<?xml version="1.0" encoding="UTF-8" standalone="no"?>
<!-- Created with Inkscape (http://www.inkscape.org/) -->

<svg
   width="73.345497mm"
   height="57.97208mm"
   viewBox="0 0 73.345497 57.97208"
   version="1.1"
   id="svg1"
   inkscape:version="1.3.2 (091e20ef0f, 2023-11-25, custom)"
   sodipodi:docname="fsk_iq.svg"
   xmlns:inkscape="http://www.inkscape.org/namespaces/inkscape"
   xmlns:sodipodi="http://sodipodi.sourceforge.net/DTD/sodipodi-0.dtd"
   xmlns="http://www.w3.org/2000/svg"
   xmlns:svg="http://www.w3.org/2000/svg">
  <sodipodi:namedview
     id="namedview1"
     pagecolor="#ffffff"
     bordercolor="#999999"
     borderopacity="1"
     inkscape:showpageshadow="0"
     inkscape:pageopacity="0"
     inkscape:pagecheckerboard="0"
     inkscape:deskcolor="#d1d1d1"
     inkscape:document-units="mm"
     inkscape:zoom="4.7572176"
     inkscape:cx="222.39891"
     inkscape:cy="75.569384"
     inkscape:window-width="1920"
     inkscape:window-height="1035"
     inkscape:window-x="0"
     inkscape:window-y="0"
     inkscape:window-maximized="0"
     inkscape:current-layer="layer1"
     showgrid="false" />
  <defs
     id="defs1" />
  <g
     inkscape:label="Layer 1"
     inkscape:groupmode="layer"
     id="layer1"
     transform="translate(-68.915077,-48.599679)">
    <path
       fill-rule="nonzero"
       fill="#ffffff"
       fill-opacity="1"
       d="M 68.966488,106.52035 H 142.20922 V 48.651017 H 68.966488 Z m 0,0"
       id="path150"
       style="stroke-width:0.352778" />
    <path
       fill="none"
       stroke-width="0.102802"
       stroke-linecap="square"
       stroke-linejoin="round"
       stroke="#262626"
       stroke-opacity="1"
       stroke-miterlimit="10"
       d="M 68.966478,77.58572 H 142.20917"
       id="path151" />
    <path
       fill="none"
       stroke-width="0.102802"
       stroke-linecap="square"
       stroke-linejoin="round"
       stroke="#262626"
       stroke-opacity="1"
       stroke-miterlimit="10"
       d="M 76.223228,77.58572 V 76.852604"
       id="path152" />
    <path
       fill="none"
       stroke-width="0.102802"
       stroke-linecap="square"
       stroke-linejoin="round"
       stroke="#262626"
       stroke-opacity="1"
       stroke-miterlimit="10"
       d="M 95.478548,77.58572 V 76.852604"
       id="path153" />
    <path
       fill="none"
       stroke-width="0.102802"
       stroke-linecap="square"
       stroke-linejoin="round"
       stroke="#262626"
       stroke-opacity="1"
       stroke-miterlimit="10"
       d="M 114.73386,77.58572 V 76.852604"
       id="path154" />
    <path
       fill="none"
       stroke-width="0.102802"
       stroke-linecap="square"
       stroke-linejoin="round"
       stroke="#262626"
       stroke-opacity="1"
       stroke-miterlimit="10"
       d="M 133.99056,77.58572 V 76.852604"
       id="path155" />
    <g
       fill="#262626"
       fill-opacity="1"
       id="g158"
       transform="matrix(0.35277777,0,0,0.35277777,-6.3625924,17.228991)">
      <g
         id="use155"
         transform="translate(227.46069,181.4772)">
        <path
           d="m 2.15625,-2.375 h -1.8125 v 0.546875 h 1.8125 z m 0,0"
           id="path32" />
      </g>
      <g
         id="use156"
         transform="translate(229.98253,181.4772)">
        <path
           d="M 1.96875,-3.828125 V 0 H 2.625 V -5.390625 H 2.1875 C 1.953125,-4.5625 1.796875,-4.4375 0.765625,-4.3125 v 0.484375 z m 0,0"
           id="path30" />
      </g>
      <g
         id="use157"
         transform="translate(234.19315,181.4772)">
        <path
           d="M 1.453125,-0.796875 H 0.65625 V 0 h 0.796875 z m 0,0"
           id="path24" />
      </g>
      <g
         id="use158"
         transform="translate(236.29846,181.4772)">
        <path
           d="m 3.609375,-5.390625 h -2.78125 l -0.390625,2.9375 h 0.609375 c 0.3125,-0.375 0.5625,-0.5 0.984375,-0.5 0.734375,0 1.171875,0.5 1.171875,1.296875 0,0.765625 -0.4375,1.234375 -1.171875,1.234375 -0.578125,0 -0.9375,-0.296875 -1.09375,-0.90625 H 0.265625 C 0.359375,-0.875 0.4375,-0.671875 0.59375,-0.46875 0.890625,-0.0625 1.4375,0.171875 2.046875,0.171875 c 1.078125,0 1.84375,-0.78125 1.84375,-1.921875 0,-1.0625 -0.703125,-1.796875 -1.734375,-1.796875 -0.390625,0 -0.6875,0.09375 -1,0.328125 l 0.21875,-1.5 h 2.234375 z m 0,0"
           id="path18" />
      </g>
    </g>
    <g
       fill="#262626"
       fill-opacity="1"
       id="g162"
       transform="matrix(0.35277777,0,0,0.35277777,-6.3625924,17.228991)">
      <g
         id="use159"
         transform="translate(282.043,181.4772)">
        <path
           d="m 2.15625,-2.375 h -1.8125 v 0.546875 h 1.8125 z m 0,0"
           id="path33" />
      </g>
      <g
         id="use160"
         transform="translate(284.56482,181.4772)">
        <path
           d="m 2.078125,-5.390625 c -0.5,0 -0.953125,0.234375 -1.234375,0.59375 -0.34375,0.46875 -0.515625,1.203125 -0.515625,2.1875 0,1.828125 0.609375,2.78125 1.75,2.78125 1.140625,0 1.765625,-0.96875 1.765625,-2.734375 0,-1.046875 -0.171875,-1.75 -0.53125,-2.234375 -0.28125,-0.375 -0.71875,-0.59375 -1.234375,-0.59375 z m 0,0.59375 c 0.71875,0 1.078125,0.734375 1.078125,2.171875 0,1.53125 -0.34375,2.25 -1.09375,2.25 -0.703125,0 -1.046875,-0.75 -1.046875,-2.21875 0,-1.46875 0.34375,-2.203125 1.0625,-2.203125 z m 0,0"
           id="path14" />
      </g>
      <g
         id="use161"
         transform="translate(288.77545,181.4772)">
        <path
           d="M 1.453125,-0.796875 H 0.65625 V 0 h 0.796875 z m 0,0"
           id="path25" />
      </g>
      <g
         id="use162"
         transform="translate(290.88077,181.4772)">
        <path
           d="m 3.609375,-5.390625 h -2.78125 l -0.390625,2.9375 h 0.609375 c 0.3125,-0.375 0.5625,-0.5 0.984375,-0.5 0.734375,0 1.171875,0.5 1.171875,1.296875 0,0.765625 -0.4375,1.234375 -1.171875,1.234375 -0.578125,0 -0.9375,-0.296875 -1.09375,-0.90625 H 0.265625 C 0.359375,-0.875 0.4375,-0.671875 0.59375,-0.46875 0.890625,-0.0625 1.4375,0.171875 2.046875,0.171875 c 1.078125,0 1.84375,-0.78125 1.84375,-1.921875 0,-1.0625 -0.703125,-1.796875 -1.734375,-1.796875 -0.390625,0 -0.6875,0.09375 -1,0.328125 l 0.21875,-1.5 h 2.234375 z m 0,0"
           id="path19" />
      </g>
    </g>
    <g
       fill="#262626"
       fill-opacity="1"
       id="g165"
       transform="matrix(0.35277777,0,0,0.35277777,-6.3625924,17.228991)">
      <g
         id="use163"
         transform="translate(337.84872,181.4772)">
        <path
           d="m 2.078125,-5.390625 c -0.5,0 -0.953125,0.234375 -1.234375,0.59375 -0.34375,0.46875 -0.515625,1.203125 -0.515625,2.1875 0,1.828125 0.609375,2.78125 1.75,2.78125 1.140625,0 1.765625,-0.96875 1.765625,-2.734375 0,-1.046875 -0.171875,-1.75 -0.53125,-2.234375 -0.28125,-0.375 -0.71875,-0.59375 -1.234375,-0.59375 z m 0,0.59375 c 0.71875,0 1.078125,0.734375 1.078125,2.171875 0,1.53125 -0.34375,2.25 -1.09375,2.25 -0.703125,0 -1.046875,-0.75 -1.046875,-2.21875 0,-1.46875 0.34375,-2.203125 1.0625,-2.203125 z m 0,0"
           id="path15" />
      </g>
      <g
         id="use164"
         transform="translate(342.05933,181.4772)">
        <path
           d="M 1.453125,-0.796875 H 0.65625 V 0 h 0.796875 z m 0,0"
           id="path26" />
      </g>
      <g
         id="use165"
         transform="translate(344.16464,181.4772)">
        <path
           d="m 3.609375,-5.390625 h -2.78125 l -0.390625,2.9375 h 0.609375 c 0.3125,-0.375 0.5625,-0.5 0.984375,-0.5 0.734375,0 1.171875,0.5 1.171875,1.296875 0,0.765625 -0.4375,1.234375 -1.171875,1.234375 -0.578125,0 -0.9375,-0.296875 -1.09375,-0.90625 H 0.265625 C 0.359375,-0.875 0.4375,-0.671875 0.59375,-0.46875 0.890625,-0.0625 1.4375,0.171875 2.046875,0.171875 c 1.078125,0 1.84375,-0.78125 1.84375,-1.921875 0,-1.0625 -0.703125,-1.796875 -1.734375,-1.796875 -0.390625,0 -0.6875,0.09375 -1,0.328125 l 0.21875,-1.5 h 2.234375 z m 0,0"
           id="path20" />
      </g>
    </g>
    <g
       fill="#262626"
       fill-opacity="1"
       id="g168"
       transform="matrix(0.35277777,0,0,0.35277777,-6.3625924,17.228991)">
      <g
         id="use166"
         transform="translate(392.431,181.4772)">
        <path
           d="M 1.96875,-3.828125 V 0 H 2.625 V -5.390625 H 2.1875 C 1.953125,-4.5625 1.796875,-4.4375 0.765625,-4.3125 v 0.484375 z m 0,0"
           id="path31" />
      </g>
      <g
         id="use167"
         transform="translate(396.64163,181.4772)">
        <path
           d="M 1.453125,-0.796875 H 0.65625 V 0 h 0.796875 z m 0,0"
           id="path27" />
      </g>
      <g
         id="use168"
         transform="translate(398.74695,181.4772)">
        <path
           d="m 3.609375,-5.390625 h -2.78125 l -0.390625,2.9375 h 0.609375 c 0.3125,-0.375 0.5625,-0.5 0.984375,-0.5 0.734375,0 1.171875,0.5 1.171875,1.296875 0,0.765625 -0.4375,1.234375 -1.171875,1.234375 -0.578125,0 -0.9375,-0.296875 -1.09375,-0.90625 H 0.265625 C 0.359375,-0.875 0.4375,-0.671875 0.59375,-0.46875 0.890625,-0.0625 1.4375,0.171875 2.046875,0.171875 c 1.078125,0 1.84375,-0.78125 1.84375,-1.921875 0,-1.0625 -0.703125,-1.796875 -1.734375,-1.796875 -0.390625,0 -0.6875,0.09375 -1,0.328125 l 0.21875,-1.5 h 2.234375 z m 0,0"
           id="path21" />
      </g>
    </g>
    <g
       fill="#262626"
       fill-opacity="1"
       id="g169"
       transform="matrix(0.35277777,0,0,0.35277777,-6.8917591,17.228991)">
      <g
         id="use169"
         transform="translate(416.02023,164.22481)">
        <path
           d="M 1.609375,-6.078125 H 0.828125 V 0 h 0.78125 z m 0,0"
           id="path13" />
      </g>
    </g>
    <path
       fill="none"
       stroke-width="0.102802"
       stroke-linecap="square"
       stroke-linejoin="round"
       stroke="#262626"
       stroke-opacity="1"
       stroke-miterlimit="10"
       d="M 105.10689,106.52036 V 48.65108"
       id="path169" />
    <path
       fill="none"
       stroke-width="0.102802"
       stroke-linecap="square"
       stroke-linejoin="round"
       stroke="#262626"
       stroke-opacity="1"
       stroke-miterlimit="10"
       d="m 105.10689,106.52036 h 0.73174"
       id="path170" />
    <path
       fill="none"
       stroke-width="0.102802"
       stroke-linecap="square"
       stroke-linejoin="round"
       stroke="#262626"
       stroke-opacity="1"
       stroke-miterlimit="10"
       d="m 105.10689,87.230599 h 0.73174"
       id="path171" />
    <path
       fill="none"
       stroke-width="0.102802"
       stroke-linecap="square"
       stroke-linejoin="round"
       stroke="#262626"
       stroke-opacity="1"
       stroke-miterlimit="10"
       d="m 105.10689,67.94084 h 0.73174"
       id="path172" />
    <path
       fill="none"
       stroke-width="0.102802"
       stroke-linecap="square"
       stroke-linejoin="round"
       stroke="#262626"
       stroke-opacity="1"
       stroke-miterlimit="10"
       d="m 105.10689,48.65108 h 0.73174"
       id="path173" />
    <g
       fill="#262626"
       fill-opacity="1"
       id="g176"
       transform="matrix(0.35277777,0,0,0.35277777,-6.3625924,17.228991)">
      <g
         id="use173"
         transform="translate(300.01346,201.40605)">
        <path
           d="m 2.15625,-2.375 h -1.8125 v 0.546875 h 1.8125 z m 0,0"
           id="path34" />
      </g>
      <g
         id="use174"
         transform="translate(302.53528,201.40605)">
        <path
           d="m 2.078125,-5.390625 c -0.5,0 -0.953125,0.234375 -1.234375,0.59375 -0.34375,0.46875 -0.515625,1.203125 -0.515625,2.1875 0,1.828125 0.609375,2.78125 1.75,2.78125 1.140625,0 1.765625,-0.96875 1.765625,-2.734375 0,-1.046875 -0.171875,-1.75 -0.53125,-2.234375 -0.28125,-0.375 -0.71875,-0.59375 -1.234375,-0.59375 z m 0,0.59375 c 0.71875,0 1.078125,0.734375 1.078125,2.171875 0,1.53125 -0.34375,2.25 -1.09375,2.25 -0.703125,0 -1.046875,-0.75 -1.046875,-2.21875 0,-1.46875 0.34375,-2.203125 1.0625,-2.203125 z m 0,0"
           id="path16" />
      </g>
      <g
         id="use175"
         transform="translate(306.74591,201.40605)">
        <path
           d="M 1.453125,-0.796875 H 0.65625 V 0 h 0.796875 z m 0,0"
           id="path28" />
      </g>
      <g
         id="use176"
         transform="translate(308.8512,201.40605)">
        <path
           d="m 3.609375,-5.390625 h -2.78125 l -0.390625,2.9375 h 0.609375 c 0.3125,-0.375 0.5625,-0.5 0.984375,-0.5 0.734375,0 1.171875,0.5 1.171875,1.296875 0,0.765625 -0.4375,1.234375 -1.171875,1.234375 -0.578125,0 -0.9375,-0.296875 -1.09375,-0.90625 H 0.265625 C 0.359375,-0.875 0.4375,-0.671875 0.59375,-0.46875 0.890625,-0.0625 1.4375,0.171875 2.046875,0.171875 c 1.078125,0 1.84375,-0.78125 1.84375,-1.921875 0,-1.0625 -0.703125,-1.796875 -1.734375,-1.796875 -0.390625,0 -0.6875,0.09375 -1,0.328125 l 0.21875,-1.5 h 2.234375 z m 0,0"
           id="path22" />
      </g>
    </g>
    <g
       fill="#262626"
       fill-opacity="1"
       id="g179"
       transform="matrix(0.35277777,0,0,0.35277777,-6.3625924,17.228991)">
      <g
         id="use177"
         transform="translate(302.45996,146.72659)">
        <path
           d="m 2.078125,-5.390625 c -0.5,0 -0.953125,0.234375 -1.234375,0.59375 -0.34375,0.46875 -0.515625,1.203125 -0.515625,2.1875 0,1.828125 0.609375,2.78125 1.75,2.78125 1.140625,0 1.765625,-0.96875 1.765625,-2.734375 0,-1.046875 -0.171875,-1.75 -0.53125,-2.234375 -0.28125,-0.375 -0.71875,-0.59375 -1.234375,-0.59375 z m 0,0.59375 c 0.71875,0 1.078125,0.734375 1.078125,2.171875 0,1.53125 -0.34375,2.25 -1.09375,2.25 -0.703125,0 -1.046875,-0.75 -1.046875,-2.21875 0,-1.46875 0.34375,-2.203125 1.0625,-2.203125 z m 0,0"
           id="path17" />
      </g>
      <g
         id="use178"
         transform="translate(306.67059,146.72659)">
        <path
           d="M 1.453125,-0.796875 H 0.65625 V 0 h 0.796875 z m 0,0"
           id="path29" />
      </g>
      <g
         id="use179"
         transform="translate(308.77588,146.72659)">
        <path
           d="m 3.609375,-5.390625 h -2.78125 l -0.390625,2.9375 h 0.609375 c 0.3125,-0.375 0.5625,-0.5 0.984375,-0.5 0.734375,0 1.171875,0.5 1.171875,1.296875 0,0.765625 -0.4375,1.234375 -1.171875,1.234375 -0.578125,0 -0.9375,-0.296875 -1.09375,-0.90625 H 0.265625 C 0.359375,-0.875 0.4375,-0.671875 0.59375,-0.46875 0.890625,-0.0625 1.4375,0.171875 2.046875,0.171875 c 1.078125,0 1.84375,-0.78125 1.84375,-1.921875 0,-1.0625 -0.703125,-1.796875 -1.734375,-1.796875 -0.390625,0 -0.6875,0.09375 -1,0.328125 l 0.21875,-1.5 h 2.234375 z m 0,0"
           id="path23" />
      </g>
    </g>
    <g
       fill="#262626"
       fill-opacity="1"
       id="g180"
       transform="matrix(0.35277777,0,0,0.35277777,-6.3625924,17.228991)">
      <g
         id="use180"
         transform="translate(320.73077,100.15867)">
        <path
           d="m 6.109375,0.015625 -0.78125,-0.65625 c 0.5625,-0.625 0.84375,-1.40625 0.84375,-2.375 C 6.171875,-4.90625 5,-6.1875 3.25,-6.1875 c -1.765625,0 -2.9375,1.28125 -2.9375,3.1875 0,1.90625 1.171875,3.1875 2.9375,3.1875 0.609375,0 1.09375,-0.125 1.59375,-0.421875 L 5.71875,0.5 Z M 4,-1.703125 3.625,-1.25 4.234375,-0.71875 c -0.359375,0.171875 -0.625,0.21875 -1,0.21875 -1.28125,0 -2.140625,-1 -2.140625,-2.5 0,-1.5 0.859375,-2.5 2.15625,-2.5 1.28125,0 2.15625,1 2.15625,2.5 0,0.78125 -0.203125,1.390625 -0.65625,1.90625 z m 0,0"
           id="path12" />
      </g>
    </g>
    <path
       fill="none"
       stroke-width="0.41133"
       stroke-linecap="butt"
       stroke-linejoin="round"
       stroke="#0072bd"
       stroke-opacity="1"
       stroke-miterlimit="10"
       d="m 124.36221,77.58572 v -0.121267 l -0.003,-0.242536 -0.003,-0.121267 -0.008,-0.242534 -0.006,-0.121266 -0.006,-0.11989 -0.006,-0.121267 -0.008,-0.121268 -0.007,-0.121267 -0.01,-0.121267 -0.008,-0.119889 -0.011,-0.121267 -0.011,-0.119889 -0.011,-0.121267 -0.0138,-0.11989 -0.0124,-0.121268 -0.0138,-0.11989 -0.0152,-0.119889 -0.0152,-0.121267 -0.0331,-0.239778 -0.0179,-0.119889 -0.0386,-0.239779 -0.0193,-0.118511 -0.022,-0.11989 -0.0207,-0.119889 -0.022,-0.118509 -0.0234,-0.118512 -0.0234,-0.119889 -0.0248,-0.118512 -0.0262,-0.118511 -0.0248,-0.118512 -0.0276,-0.117132 -0.0551,-0.237023 -0.0289,-0.117132 -0.0606,-0.234268 -0.0634,-0.234266 -0.0331,-0.117132 -0.0331,-0.115756 -0.0344,-0.117132 -0.0344,-0.115756 -0.0717,-0.231511 -0.0372,-0.115754 -0.0372,-0.114377 -0.0386,-0.115756 -0.11989,-0.34313 -0.0413,-0.112999 -0.0427,-0.114376 -0.0413,-0.113001 -0.0882,-0.225998 -0.0455,-0.112999 -0.091,-0.223241 -0.0482,-0.111621 -0.0468,-0.111622 -0.0482,-0.111621 -0.0992,-0.220485 -0.15296,-0.33073 -0.0537,-0.108864 -0.0524,-0.108866 -0.0537,-0.108864 -0.11024,-0.214975 -0.113,-0.214972 -0.0565,-0.106109 -0.0579,-0.107486 -0.0592,-0.106109 -0.0593,-0.104731 -0.0592,-0.106109 -0.0606,-0.104731 -0.062,-0.104731 -0.12402,-0.206705 -0.12678,-0.206707 -0.0648,-0.101974 -0.0648,-0.103353 -0.0661,-0.100597 -0.0661,-0.101973 -0.13505,-0.201195 -0.0689,-0.100596 -0.1378,-0.198437 -0.0703,-0.09784 -0.0717,-0.09922 -0.0703,-0.09784 -0.073,-0.09784 -0.0717,-0.09646 -0.0744,-0.09646 -0.073,-0.09646 -0.0744,-0.09508 -0.0758,-0.09509 -0.0758,-0.09371 -0.0758,-0.09509 -0.0772,-0.09371 -0.15434,-0.184656 -0.0785,-0.09233 -0.0799,-0.09233 -0.15985,-0.181901 -0.24392,-0.268717 -0.16536,-0.176389 -0.0841,-0.08819 -0.0841,-0.08682 -0.0854,-0.08682 -0.25631,-0.256316 -0.0882,-0.08406 -0.0868,-0.08406 -0.17639,-0.165365 -0.0896,-0.08268 -0.17915,-0.162608 -0.0896,-0.07993 -0.0923,-0.07992 -0.091,-0.07855 -0.0923,-0.07993 -0.0923,-0.07717 -0.0923,-0.07855 -0.0937,-0.07717 -0.0937,-0.07579 -0.0951,-0.07579 -0.28526,-0.223242 -0.0965,-0.07304 -0.0978,-0.07304 -0.0965,-0.07304 -0.0978,-0.07166 -0.0978,-0.07028 -0.0992,-0.07028 -0.0978,-0.07028 -0.10059,-0.0689 -0.0992,-0.06752 -0.1006,-0.0689 -0.10059,-0.06615 -0.1006,-0.06752 -0.10198,-0.06614 -0.20395,-0.129536 -0.31005,-0.19017 -0.10336,-0.06063 -0.10473,-0.06201 -0.20946,-0.121267 -0.10611,-0.05926 -0.10611,-0.05788 -0.10611,-0.05926 -0.21221,-0.112999 -0.10749,-0.0565 -0.10749,-0.05512 -0.10886,-0.05512 -0.10749,-0.05374 -0.10886,-0.05374 -0.10887,-0.05237 -0.11024,-0.05236 -0.10887,-0.05099 -0.11024,-0.04961 -0.11024,-0.05099 -0.11024,-0.04823 -0.11163,-0.04961 -0.11024,-0.04685 -0.11162,-0.04823 -0.11162,-0.04547 -0.113,-0.04548 -0.11162,-0.04547 -0.226,-0.08819 -0.113,-0.04272 -0.113,-0.04134 -0.22875,-0.08268 -0.113,-0.03996 -0.11576,-0.03859 -0.22875,-0.07717 -0.11576,-0.03721 -0.11437,-0.03583 -0.11576,-0.03583 -0.11575,-0.03445 -0.11714,-0.03445 -0.11575,-0.03307 -0.11713,-0.03307 -0.11576,-0.0317 -0.11713,-0.03169 -0.23427,-0.06063 -0.11713,-0.02894 -0.11851,-0.02756 -0.11714,-0.02756 -0.11851,-0.02756 -0.11851,-0.02618 -0.23702,-0.04961 -0.23703,-0.04685 -0.23702,-0.0441 -0.23977,-0.04134 -0.11852,-0.01929 -0.23977,-0.03583 -0.35967,-0.04961 -0.11989,-0.01378 -0.11989,-0.01516 -0.11989,-0.0124 -0.12127,-0.0124 -0.11989,-0.0124 -0.12126,-0.01103 -0.11989,-0.0096 -0.12127,-0.0096 -0.11989,-0.0096 -0.12127,-0.0069 -0.11989,-0.0083 -0.24253,-0.01102 -0.11989,-0.0055 -0.12127,-0.0041 -0.3638,-0.0083 -0.11989,-0.0014 h -0.24253 l -0.12127,0.0014 -0.12127,0.0028 -0.11989,0.0028 -0.12126,0.0028 -0.12127,0.0041 -0.11989,0.0055 -0.24254,0.01102 -0.11988,0.0083 -0.12127,0.0069 -0.12127,0.0096 -0.11989,0.0096 -0.12127,0.0096 -0.11988,0.01103 -0.12127,0.0124 -0.23978,0.0248 -0.11989,0.01516 -0.11989,0.01378 -0.12127,0.01654 -0.11851,0.01654 -0.11989,0.01653 -0.23978,0.03583 -0.11989,0.01929 -0.11851,0.02067 -0.11989,0.02067 -0.23702,0.0441 -0.11989,0.02343 -0.11851,0.02343 -0.11851,0.0248 -0.11713,0.02481 -0.11851,0.02618 -0.11852,0.02756 -0.11713,0.02756 -0.11851,0.02756 -0.11713,0.02894 -0.23427,0.06063 -0.234262,0.06339 -0.11576,0.03307 -0.11713,0.03307 -0.23152,0.0689 -0.11575,0.03583 -0.11438,0.03583 -0.11575,0.03721 -0.11438,0.03858 -0.11575,0.03858 -0.11438,0.03859 -0.11438,0.03996 -0.113,0.04134 -0.11437,0.04134 -0.113,0.04134 -0.113,0.04272 -0.226,0.08819 -0.11162,0.04547 -0.113,0.04548 -0.11162,0.04547 -0.11162,0.04823 -0.11162,0.04685 -0.11025,0.04961 -0.11024,0.04823 -0.11024,0.05099 -0.11025,0.04961 -0.11024,0.05099 -0.21773,0.104731 -0.21773,0.107486 -0.21497,0.110244 -0.10749,0.0565 -0.10611,0.0565 -0.10749,0.0565 -0.1061,0.05926 -0.10611,0.05788 -0.10473,0.05926 -0.20947,0.121267 -0.10473,0.06201 -0.10335,0.06063 -0.10473,0.06339 -0.10335,0.06339 -0.10198,0.06339 -0.20395,0.129536 -0.10197,0.06614 -0.1006,0.06752 -0.10197,0.06615 -0.0992,0.0689 -0.1006,0.06752 -0.0992,0.0689 -0.0992,0.07028 -0.19568,0.14056 -0.0978,0.07166 -0.0978,0.07304 -0.19292,0.146073 -0.0951,0.07442 -0.0965,0.07441 -0.0937,0.07442 -0.0951,0.07579 -0.0937,0.07579 -0.0937,0.07717 -0.0923,0.07855 -0.0923,0.07717 -0.0923,0.07993 -0.0923,0.07855 -0.0909,0.07992 -0.0896,0.07993 -0.0909,0.08131 -0.0896,0.0813 -0.26458,0.248048 -0.0882,0.08406 -0.0868,0.08406 -0.0854,0.08544 -0.0868,0.08544 -0.0854,0.08544 -0.16812,0.173632 -0.0841,0.08819 -0.16537,0.176389 -0.0813,0.08957 -0.0827,0.08957 -0.0799,0.08957 -0.0813,0.09095 -0.0786,0.09095 -0.0799,0.09233 -0.0785,0.09233 -0.0772,0.09233 -0.0785,0.09233 -0.0758,0.09371 -0.0772,0.09509 -0.0758,0.09371 -0.14883,0.190169 -0.0744,0.09646 -0.14607,0.192925 -0.14332,0.195682 -0.0703,0.09922 -0.0703,0.09784 -0.0703,0.09922 -0.0675,0.09922 -0.0689,0.100596 -0.13505,0.201195 -0.0661,0.101973 -0.0661,0.100597 -0.0648,0.103353 -0.0648,0.101974 -0.12678,0.206707 -0.12402,0.206705 -0.062,0.104731 -0.0606,0.104731 -0.0593,0.106109 -0.0593,0.104731 -0.0593,0.106109 -0.0579,0.107486 -0.0579,0.106109 -0.0565,0.107486 -0.16536,0.322461 -0.10749,0.21773 -0.0524,0.108864 -0.051,0.110244 -0.0524,0.110242 -0.14883,0.330729 -0.0965,0.223243 -0.0468,0.111621 -0.091,0.223241 -0.0455,0.112999 -0.0882,0.225998 -0.0427,0.113001 -0.0413,0.114376 -0.0413,0.112999 -0.0413,0.114377 -0.04,0.114377 -0.0386,0.114376 -0.0386,0.115756 -0.0372,0.114377 -0.0744,0.231511 -0.0358,0.115754 -0.0344,0.115756 -0.0331,0.117132 -0.0344,0.115756 -0.0951,0.351398 -0.0606,0.234268 -0.0289,0.117132 -0.0551,0.237023 -0.0276,0.117132 -0.0262,0.118512 -0.0496,0.237023 -0.0234,0.119889 -0.0234,0.118512 -0.0221,0.118509 -0.022,0.119889 -0.0207,0.11989 -0.0193,0.118511 -0.0386,0.239779 -0.0179,0.119889 -0.0331,0.239778 -0.0152,0.121267 -0.0152,0.119889 -0.0138,0.11989 -0.0138,0.121268 -0.0124,0.11989 -0.011,0.121267 -0.011,0.119889 -0.011,0.121267 -0.01,0.119889 -0.0165,0.242534 -0.0138,0.242535 -0.006,0.11989 -0.0124,0.3638 -0.003,0.121267 -0.003,0.242536 v 0.242533 l 0.003,0.242536 0.003,0.121267 0.008,0.242534 0.004,0.119889 0.006,0.121267 0.0138,0.242536 0.008,0.121266 0.008,0.11989 0.01,0.121267 0.011,0.121266 0.011,0.11989 0.011,0.121266 0.0124,0.11989 0.0138,0.121269 0.0138,0.119889 0.0152,0.119889 0.0152,0.121267 0.0331,0.239778 0.0179,0.11989 0.0193,0.119889 0.0193,0.118511 0.0193,0.11989 0.0207,0.119889 0.022,0.118509 0.0221,0.11989 0.0469,0.237023 0.0248,0.118511 0.0248,0.11989 0.0262,0.117131 0.0551,0.237024 0.0276,0.117134 0.0289,0.118509 0.0606,0.234268 0.0951,0.351398 0.0344,0.115756 0.0331,0.117132 0.0344,0.115756 0.0358,0.115755 0.0372,0.115756 0.0372,0.114376 0.0372,0.115755 0.0386,0.114376 0.0386,0.115757 0.04,0.114376 0.0413,0.114377 0.0413,0.112999 0.0413,0.114379 0.0427,0.112999 0.0882,0.225998 0.0455,0.112999 0.091,0.22324 0.0468,0.111622 0.0965,0.223242 0.14883,0.330729 0.0524,0.110242 0.051,0.108866 0.0524,0.110242 0.0537,0.108866 0.0538,0.107486 0.0551,0.108864 0.11024,0.214975 0.0565,0.107486 0.11576,0.212218 0.11851,0.212218 0.0593,0.104731 0.0606,0.106108 0.062,0.103354 0.062,0.104731 0.062,0.103351 0.12678,0.206707 0.12954,0.203948 0.13229,0.20395 0.13505,0.201194 0.0689,0.09922 0.0675,0.100596 0.0703,0.09922 0.0703,0.09784 0.0703,0.09922 0.0717,0.09784 0.0717,0.09646 0.073,0.09784 0.073,0.09646 0.0744,0.09509 0.0744,0.09646 0.0744,0.09509 0.0758,0.09371 0.0772,0.09509 0.0758,0.09233 0.0785,0.09371 0.0772,0.09233 0.0785,0.09233 0.0799,0.09233 0.0786,0.09095 0.0813,0.09095 0.0799,0.08957 0.0827,0.08957 0.0813,0.08957 0.16537,0.176389 0.0841,0.08682 0.0841,0.08819 0.0841,0.08544 0.0854,0.08682 0.0868,0.08544 0.0854,0.08406 0.0868,0.08544 0.0882,0.08268 0.0882,0.08406 0.0882,0.08268 0.0882,0.0813 0.0896,0.08268 0.0909,0.08131 0.0896,0.07993 0.0909,0.07992 0.27699,0.235646 0.0923,0.07717 0.18742,0.15434 0.0951,0.07579 0.0937,0.07441 0.0965,0.07441 0.0951,0.07442 0.19292,0.146072 0.29352,0.214973 0.0978,0.07028 0.0992,0.0689 0.0992,0.07028 0.1006,0.06752 0.0992,0.0689 0.10197,0.06615 0.1006,0.06614 0.20395,0.132292 0.10197,0.06477 0.10198,0.06339 0.10335,0.06339 0.10473,0.06201 0.10335,0.06201 0.10473,0.06201 0.20947,0.121267 0.10473,0.05926 0.21221,0.115754 0.10749,0.05788 0.10611,0.0565 0.10749,0.0565 0.21497,0.110244 0.21773,0.107487 0.10887,0.05237 0.10886,0.05099 0.11024,0.05236 0.11025,0.04961 0.11024,0.05099 0.22049,0.09646 0.11162,0.04823 0.22324,0.09371 0.113,0.04548 0.11162,0.04547 0.113,0.0441 0.113,0.04272 0.113,0.0441 0.113,0.04134 0.11437,0.04134 0.113,0.04134 0.11438,0.03996 0.11438,0.03858 0.11575,0.03859 0.11438,0.03859 0.11575,0.03721 0.11438,0.03583 0.11575,0.03583 0.23152,0.0689 0.11713,0.03307 0.11576,0.03307 0.234262,0.06339 0.23427,0.06063 0.11713,0.02894 0.11851,0.02756 0.11713,0.02756 0.11852,0.02756 0.11851,0.02618 0.11713,0.02481 0.11851,0.02481 0.11851,0.02343 0.11989,0.02343 0.23702,0.0441 0.11989,0.02067 0.11851,0.01929 0.23978,0.03859 0.11989,0.01791 0.11989,0.01654 0.11851,0.01654 0.12127,0.01516 0.11989,0.01516 0.23978,0.02756 0.11989,0.0124 0.12127,0.0124 0.11988,0.01102 0.12127,0.0096 0.11989,0.0096 0.24254,0.01654 0.11988,0.0069 0.12127,0.0069 0.12127,0.0055 0.11989,0.0055 0.12127,0.0041 0.12126,0.0028 0.11989,0.0028 0.12127,0.0028 h 0.12127 l 0.12126,0.0014 0.12127,-0.0014 h 0.11989 l 0.3638,-0.0083 0.12127,-0.0041 0.11989,-0.0055 0.12127,-0.0055 0.12126,-0.0069 0.11989,-0.0069 0.12127,-0.0083 0.11989,-0.0083 0.12127,-0.0096 0.11989,-0.0096 0.12126,-0.01102 0.11989,-0.0124 0.12127,-0.0124 0.23978,-0.02756 0.23978,-0.03032 0.23978,-0.03307 0.11989,-0.01791 0.11988,-0.01929 0.11852,-0.01929 0.11988,-0.01929 0.11989,-0.02067 0.23702,-0.0441 0.23703,-0.04685 0.23702,-0.04961 0.11851,-0.02618 0.11851,-0.02756 0.11714,-0.02756 0.11851,-0.02756 0.11713,-0.02894 0.23427,-0.06063 0.11713,-0.03169 0.11576,-0.0317 0.11713,-0.03307 0.11575,-0.03307 0.11714,-0.03445 0.11575,-0.03445 0.11576,-0.03583 0.11437,-0.03583 0.11576,-0.03721 0.22875,-0.07717 0.11576,-0.03858 0.113,-0.03996 0.22875,-0.08268 0.113,-0.04134 0.113,-0.0441 0.113,-0.04272 0.113,-0.0441 0.11162,-0.04547 0.113,-0.04548 0.22324,-0.09371 0.11024,-0.04823 0.11163,-0.04823 0.11024,-0.04823 0.11024,-0.05099 0.11024,-0.04961 0.10887,-0.05236 0.11024,-0.05099 0.10887,-0.05237 0.10886,-0.05374 0.10749,-0.05374 0.10886,-0.05512 0.10749,-0.05512 0.10749,-0.0565 0.10611,-0.0565 0.31832,-0.173631 0.10611,-0.05926 0.20946,-0.121267 0.10473,-0.06201 0.20671,-0.124022 0.2067,-0.126779 0.10198,-0.06477 0.20395,-0.132292 0.20119,-0.132292 0.1006,-0.0689 0.0992,-0.06752 0.10059,-0.07028 0.0978,-0.0689 0.0992,-0.07028 0.19569,-0.143315 0.0965,-0.07166 0.0978,-0.07304 0.0965,-0.07304 0.28526,-0.223243 0.0951,-0.07579 0.18741,-0.15434 0.0923,-0.07717 0.18466,-0.157096 0.091,-0.07855 0.0923,-0.07992 0.0896,-0.07993 0.0896,-0.08131 0.0896,-0.08268 0.0896,-0.0813 0.0882,-0.08268 0.0882,-0.08406 0.0868,-0.08268 0.0882,-0.08544 0.0854,-0.08406 0.0854,-0.08544 0.0854,-0.08682 0.0854,-0.08544 0.0841,-0.08819 0.0841,-0.08682 0.16536,-0.176389 0.24392,-0.268717 0.15985,-0.181901 0.0799,-0.09233 0.0785,-0.09233 0.0772,-0.09233 0.0772,-0.09371 0.0772,-0.09233 0.0758,-0.09509 0.0758,-0.09371 0.0758,-0.09509 0.0744,-0.09646 0.073,-0.09509 0.0744,-0.09646 0.0717,-0.09784 0.073,-0.09646 0.0703,-0.09784 0.0717,-0.09922 0.0703,-0.09784 0.0689,-0.09922 0.0689,-0.100596 0.0689,-0.09922 0.13505,-0.201194 0.13229,-0.20395 0.12954,-0.203948 0.12678,-0.206707 0.062,-0.103351 0.062,-0.104731 0.062,-0.103354 0.0606,-0.106108 0.0592,-0.104731 0.11851,-0.212218 0.0579,-0.106109 0.0565,-0.106109 0.113,-0.214972 0.0551,-0.107489 0.0551,-0.108864 0.0537,-0.107486 0.0524,-0.108866 0.0537,-0.110242 0.051,-0.108866 0.10197,-0.220485 0.0992,-0.220486 0.0482,-0.111621 0.0468,-0.111621 0.0482,-0.111622 0.091,-0.22324 0.0455,-0.112999 0.0882,-0.225998 0.0413,-0.112999 0.0427,-0.114379 0.0413,-0.112999 0.0799,-0.228753 0.04,-0.115757 0.0386,-0.114376 0.0372,-0.115755 0.0372,-0.114376 0.0717,-0.231511 0.0344,-0.115756 0.0344,-0.117132 0.0331,-0.115756 0.0331,-0.117132 0.0634,-0.234266 0.0606,-0.234268 0.0289,-0.118509 0.0276,-0.117134 0.0551,-0.237024 0.0248,-0.117131 0.0262,-0.11989 0.0248,-0.118511 0.0469,-0.237023 0.022,-0.11989 0.0207,-0.118509 0.022,-0.119889 0.0193,-0.11989 0.0193,-0.118511 0.0193,-0.119889 0.0179,-0.11989 0.0331,-0.239778 0.0152,-0.121267 0.0152,-0.119889 0.0138,-0.119889 0.0124,-0.121269 0.0138,-0.11989 0.011,-0.121266 0.011,-0.11989 0.011,-0.121266 0.008,-0.121267 0.01,-0.11989 0.007,-0.121266 0.008,-0.121267 0.011,-0.242536 0.006,-0.119889 0.008,-0.242534 0.003,-0.121267 0.003,-0.242536 v -0.121266"
       id="path180" />
    <path
       fill="none"
       stroke-width="0.514256"
       stroke-linecap="butt"
       stroke-linejoin="bevel"
       stroke="#d95319"
       stroke-opacity="1"
       stroke-dasharray="24.0292, 24.0292"
       stroke-miterlimit="10"
       d="m 123.39896,77.58572 v -0.115755 l -0.001,-0.114378 -10e-4,-0.115755 -0.003,-0.114376 -0.003,-0.115757 -0.004,-0.114376 -0.004,-0.115754 -0.006,-0.114377 -0.007,-0.115756 -0.0138,-0.228754 -0.008,-0.115756 -0.0193,-0.228753 -0.011,-0.115756 -0.022,-0.228754 -0.0124,-0.114376 -0.0276,-0.228756 -0.0152,-0.114376 -0.0151,-0.112999 -0.0331,-0.228754 -0.0179,-0.112999 -0.0179,-0.114376 -0.0193,-0.113001 -0.0193,-0.114377 -0.0207,-0.112999 -0.0661,-0.338997 -0.0234,-0.112999 -0.0234,-0.111621 -0.0248,-0.112999 -0.0262,-0.111619 -0.0262,-0.112999 -0.0262,-0.111622 -0.0276,-0.111621 -0.0868,-0.334864 -0.0303,-0.110242 -0.0317,-0.111621 -0.0634,-0.220486 -0.0331,-0.110243 -0.0689,-0.220486 -0.0344,-0.108866 -0.0358,-0.110241 -0.11162,-0.326597 -0.0386,-0.108864 -0.04,-0.107486 -0.04,-0.108866 -0.04,-0.107486 -0.0413,-0.107487 -0.0427,-0.107486 -0.0854,-0.212218 -0.0441,-0.107488 -0.0455,-0.106109 -0.0441,-0.104731 -0.0468,-0.106109 -0.0937,-0.20946 -0.0965,-0.209462 -0.0496,-0.104731 -0.0496,-0.103352 -0.10198,-0.206707 -0.051,-0.101974 -0.0538,-0.103353 -0.0524,-0.101974 -0.0537,-0.101976 -0.11024,-0.201192 -0.0551,-0.101976 -0.0565,-0.09922 -0.0565,-0.100597 -0.11576,-0.198437 -0.11851,-0.198437 -0.12126,-0.195681 -0.0606,-0.09646 -0.062,-0.09784 -0.062,-0.09646 -0.0634,-0.09646 -0.0634,-0.09508 -0.0648,-0.09646 -0.0648,-0.09508 -0.0661,-0.09371 -0.0661,-0.09508 -0.0661,-0.09371"
       id="path181" />
    <path
       fill="none"
       stroke-width="0.514256"
       stroke-linecap="butt"
       stroke-linejoin="bevel"
       stroke="#edb11f"
       stroke-opacity="1"
       stroke-dasharray="24.0292, 24.0292"
       stroke-miterlimit="10"
       d="m 125.32546,77.58572 -0.001,-0.12678 v -0.128157 l -0.003,-0.126779 -0.003,-0.128157 -0.003,-0.12678 -0.006,-0.126779 -0.004,-0.12678 -0.007,-0.128157 -0.0138,-0.253559 -0.008,-0.126779 -0.0193,-0.253559 -0.0221,-0.253559 -0.0124,-0.12678 -0.0276,-0.253558 -0.0151,-0.12678 -0.0152,-0.125402 -0.0165,-0.126779 -0.0165,-0.125402 -0.0179,-0.126779 -0.0386,-0.250802 -0.0207,-0.125402 -0.0207,-0.126779 -0.022,-0.125402 -0.0221,-0.124022 -0.0234,-0.125402 -0.0248,-0.125402 -0.0248,-0.124022 -0.0262,-0.125402 -0.0262,-0.124024 -0.0551,-0.248046 -0.0289,-0.124022 -0.0606,-0.248049 -0.0303,-0.122644 -0.0317,-0.124025 -0.0331,-0.122644 -0.0345,-0.122644 -0.0331,-0.122647 -0.0358,-0.122645 -0.0358,-0.121266 -0.0358,-0.122647 -0.0372,-0.121267 -0.0772,-0.242533 -0.04,-0.121267 -0.04,-0.11989 -0.0413,-0.121268 -0.12815,-0.359668 -0.0441,-0.11851 -0.0455,-0.119889 -0.0455,-0.118511 -0.0469,-0.118512 -0.0469,-0.117134 -0.0468,-0.11851 -0.14883,-0.351399 -0.051,-0.117134 -0.051,-0.115755 -0.0524,-0.117134 -0.0537,-0.114376 -0.10749,-0.231511 -0.0551,-0.114376 -0.0565,-0.114377 -0.0565,-0.112999 -0.0565,-0.114377 -0.0593,-0.112999 -0.0579,-0.112999 -0.0593,-0.111621 -0.0606,-0.112999 -0.0606,-0.111621 -0.062,-0.111622 -0.062,-0.110243 -0.12678,-0.220486 -0.0648,-0.110241 -0.12953,-0.21773 -0.0661,-0.108867 -0.0675,-0.107486 -0.0675,-0.108864 -0.0689,-0.106109 -0.0689,-0.107488 -0.14056,-0.212218 -0.0703,-0.104731 -0.0717,-0.106109 -0.073,-0.104731 -0.14608,-0.206705 -0.0744,-0.103351 -0.0758,-0.103353 -0.15159,-0.20395 -0.15434,-0.201195 -0.15709,-0.201192 -0.0799,-0.09922 -0.0799,-0.09784 -0.0799,-0.09922 -0.0813,-0.09784 -0.0827,-0.09646 -0.0827,-0.09784 -0.0827,-0.09508 -0.0841,-0.09646 -0.16812,-0.190169 -0.0854,-0.09371 -0.0868,-0.09371 -0.17363,-0.184656 -0.17639,-0.184659 -0.0896,-0.08957 -0.0896,-0.09095 -0.0896,-0.08957 -0.091,-0.08957 -0.091,-0.08819 -0.0923,-0.0882 -0.18465,-0.173632 -0.0937,-0.08682 -0.18741,-0.170879 -0.0951,-0.08406 -0.0965,-0.08406 -0.28939,-0.248049 -0.0978,-0.0813 -0.0978,-0.07992 -0.0992,-0.08131 -0.0992,-0.07855 -0.0992,-0.07993 -0.1006,-0.07855 -0.2012,-0.154338 -0.30592,-0.227378 -0.10335,-0.07441 -0.20671,-0.146073 -0.10473,-0.07304 -0.10473,-0.07166 -0.10611,-0.07166 -0.10473,-0.07028 -0.10749,-0.07028 -0.1061,-0.0689 -0.10749,-0.0689 -0.21497,-0.135047 -0.10749,-0.06615 -0.10887,-0.06615 -0.11024,-0.06477 -0.10887,-0.06477 -0.22048,-0.126779 -0.11024,-0.06201 -0.11163,-0.06201 -0.22324,-0.121266 -0.11162,-0.05926 -0.113,-0.05926 -0.113,-0.05788 -0.11437,-0.05788 -0.113,-0.0565 -0.34314,-0.165365 -0.11575,-0.05374 -0.11438,-0.05374 -0.11575,-0.05236 -0.11713,-0.05099 -0.11576,-0.05099 -0.3514,-0.148828 -0.11713,-0.04685 -0.11851,-0.04823 -0.11852,-0.04548 -0.11851,-0.04685 -0.11851,-0.0441 -0.11989,-0.0441 -0.11851,-0.0441 -0.11989,-0.04272 -0.23978,-0.08268 -0.12126,-0.04134 -0.11989,-0.03858 -0.12127,-0.03996 -0.12127,-0.03721 -0.12126,-0.03859 -0.12127,-0.03583 -0.12265,-0.03583 -0.12126,-0.03583 -0.12265,-0.03445 -0.24529,-0.06615 -0.12265,-0.0317 -0.12402,-0.03169 -0.12264,-0.03032 -0.37207,-0.08682 -0.12403,-0.02756 -0.24804,-0.05236 -0.12403,-0.02481 -0.1254,-0.02343 -0.12402,-0.0248 -0.25081,-0.0441 -0.2508,-0.04134 -0.2508,-0.03858 -0.1254,-0.01792 -0.12678,-0.01654 -0.1254,-0.01653 -0.12678,-0.01516 -0.12541,-0.01516 -0.25355,-0.02756 -0.1254,-0.0124 -0.25356,-0.02205 -0.25356,-0.01929 -0.12678,-0.0083 -0.38034,-0.02067 -0.12678,-0.0041 -0.12678,-0.0055 -0.12678,-0.0028 -0.12816,-0.0028 -0.12678,-0.0028 -0.12678,-0.0014 h -0.25355 l -0.12816,0.0014 -0.38034,0.0083 -0.12678,0.0055 -0.12678,0.0041 -0.38034,0.02067 -0.12678,0.0083 -0.25356,0.01929 -0.25355,0.02205 -0.12678,0.0124 -0.1254,0.01378 -0.12678,0.01378 -0.1254,0.01516 -0.12678,0.01516 -0.12541,0.01653 -0.12678,0.01654 -0.1254,0.01792 -0.2508,0.03858 -0.2508,0.04134 -0.2508,0.0441 -0.12403,0.0248 -0.1254,0.02343 -0.12402,0.02481 -0.12541,0.02618 -0.12402,0.02618 -0.12402,0.02756 -0.12403,0.02894 -0.12264,0.02894 -0.12402,0.02894 -0.12403,0.03032 -0.245292,0.06339 -0.24529,0.06615 -0.12264,0.03445 -0.12127,0.03583 -0.12265,0.03583 -0.12126,0.03583 -0.12127,0.03859 -0.12127,0.03721"
       id="path182" />
    <g
       fill="#000000"
       fill-opacity="1"
       id="g189"
       transform="matrix(0.35277777,0,0,0.35277777,-6.3625924,17.228991)">
      <g
         id="use182"
         transform="translate(335.51465,157.7847)">
        <path
           d="M 0.40625,-4.25 V 0 h 0.484375 v -1.6875 c 0,-0.625 0.328125,-1.03125 0.828125,-1.03125 0.15625,0 0.3125,0.046875 0.4375,0.140625 0.140625,0.09375 0.1875,0.25 0.1875,0.46875 V 0 h 0.484375 v -2.3125 c 0,-0.515625 -0.359375,-0.828125 -0.953125,-0.828125 -0.4375,0 -0.703125,0.140625 -0.984375,0.5 V -4.25 Z m 0,0"
           id="path10" />
      </g>
      <g
         id="use183"
         transform="translate(338.7536,157.7847)" />
      <g
         id="use184"
         transform="translate(340.37308,157.7847)">
        <path
           d="m 3.109375,-2.0625 h -2.8125 v 0.40625 h 2.8125 z m 0,1 h -2.8125 v 0.421875 h 2.8125 z m 0,0"
           id="path8" />
      </g>
      <g
         id="use185"
         transform="translate(343.77515,157.7847)" />
      <g
         id="use186"
         transform="translate(345.39462,157.7847)">
        <path
           d="M 1.609375,-4.125 C 1.21875,-4.125 0.875,-3.96875 0.65625,-3.671875 0.390625,-3.3125 0.25,-2.765625 0.25,-2 c 0,1.40625 0.46875,2.140625 1.359375,2.140625 0.875,0 1.34375,-0.75 1.34375,-2.109375 0,-0.796875 -0.125,-1.328125 -0.40625,-1.703125 C 2.34375,-3.96875 2,-4.125 1.609375,-4.125 Z m 0,0.453125 c 0.546875,0 0.828125,0.546875 0.828125,1.65625 0,1.171875 -0.28125,1.71875 -0.84375,1.71875 -0.546875,0 -0.8125,-0.5625 -0.8125,-1.703125 0,-1.125 0.265625,-1.671875 0.828125,-1.671875 z m 0,0"
           id="path6" />
      </g>
      <g
         id="use187"
         transform="translate(348.63358,157.7847)">
        <path
           d="M 1.109375,-0.609375 H 0.5 V 0 h 0.609375 z m 0,0"
           id="path4" />
      </g>
      <g
         id="use188"
         transform="translate(350.25305,157.7847)">
        <path
           d="M 2.953125,-0.5 H 0.78125 c 0.046875,-0.34375 0.234375,-0.5625 0.734375,-0.859375 l 0.59375,-0.3125 c 0.578125,-0.3125 0.875,-0.734375 0.875,-1.25 0,-0.34375 -0.140625,-0.65625 -0.390625,-0.890625 -0.25,-0.21875 -0.546875,-0.3125 -0.9375,-0.3125 -0.53125,0 -0.921875,0.171875 -1.140625,0.53125 -0.15625,0.21875 -0.21875,0.46875 -0.21875,0.890625 h 0.5 c 0.03125,-0.28125 0.0625,-0.4375 0.125,-0.578125 0.140625,-0.25 0.40625,-0.40625 0.71875,-0.40625 0.46875,0 0.8125,0.34375 0.8125,0.78125 0,0.328125 -0.1875,0.609375 -0.5625,0.8125 l -0.53125,0.296875 C 0.5,-1.296875 0.25,-0.90625 0.203125,0 h 2.75 z m 0,0"
           id="path3" />
      </g>
      <g
         id="use189"
         transform="translate(353.492,157.7847)" />
    </g>
    <path
       fill-rule="nonzero"
       fill="#000000"
       fill-opacity="1"
       d="m 119.18633,72.409774 c -0.0124,0 -0.022,-0.0041 -0.0289,-0.01379 -0.008,-0.0096 -0.0124,-0.0193 -0.0124,-0.02893 0,-0.01101 0.004,-0.02067 0.0124,-0.02893 0.007,-0.0096 0.0165,-0.01379 0.0289,-0.01379 h 1.58888 c -0.0524,-0.03858 -0.0992,-0.08268 -0.14056,-0.132292 -0.0413,-0.05099 -0.0758,-0.104729 -0.10198,-0.162609 -0.0276,-0.0565 -0.0469,-0.118509 -0.0579,-0.183279 0,-0.01792 0.007,-0.02755 0.0207,-0.02755 h 0.0427 c 0.004,0 0.008,0.0028 0.011,0.0055 0.004,0.0041 0.007,0.0083 0.008,0.01379 0.011,0.06064 0.0303,0.117137 0.0551,0.168123 0.0248,0.05099 0.0565,0.09922 0.0937,0.143316 0.0372,0.04547 0.0786,0.08268 0.1254,0.115754 0.0469,0.03168 0.0992,0.05788 0.15709,0.07855 0.011,0.0069 0.0152,0.01379 0.0152,0.02342 0,0.0096 -0.004,0.01792 -0.0152,0.02067 -0.0716,0.0248 -0.1378,0.06201 -0.19981,0.112998 -0.0606,0.04961 -0.11024,0.108864 -0.15021,0.176389 -0.04,0.0689 -0.0675,0.141936 -0.0813,0.219106 -0.001,0.0041 -0.004,0.0096 -0.008,0.01379 -0.003,0.0028 -0.007,0.0055 -0.011,0.0055 h -0.0427 c -0.0138,0 -0.0207,-0.0096 -0.0207,-0.02755 0.0165,-0.09646 0.051,-0.187413 0.10473,-0.271473 0.0537,-0.08406 0.11851,-0.152964 0.19568,-0.206706 h -1.58888"
       id="path189"
       style="stroke-width:0.352778" />
    <path
       fill-rule="nonzero"
       fill="#000000"
       fill-opacity="1"
       d="m 122.42748,64.743747 c -0.01,-0.05788 -0.0276,-0.112998 -0.0524,-0.166744 -0.0248,-0.05236 -0.0565,-0.100595 -0.0937,-0.144692 -0.0372,-0.04548 -0.0799,-0.08406 -0.12816,-0.118512 -0.0482,-0.03447 -0.0992,-0.06063 -0.15434,-0.07855 -0.0124,-0.0014 -0.0179,-0.0096 -0.0179,-0.02067 0,-0.01101 0.005,-0.01792 0.0179,-0.02343 0.0565,-0.02067 0.10749,-0.04685 0.15572,-0.07855 0.0469,-0.03306 0.0896,-0.07028 0.12678,-0.115757 0.0372,-0.0441 0.0689,-0.09233 0.0937,-0.146071 0.0248,-0.05374 0.0427,-0.108864 0.0524,-0.165364 0.003,-0.01242 0.01,-0.0193 0.0193,-0.0193 h 0.0427 c 0.0138,0 0.022,0.0096 0.022,0.02755 -0.0165,0.09233 -0.0496,0.180523 -0.10335,0.264583 -0.0524,0.08406 -0.11852,0.155716 -0.19706,0.213596 h 1.58887 c 0.011,0 0.0207,0.0041 0.0289,0.01379 0.008,0.0083 0.011,0.01792 0.011,0.02893 0,0.0096 -0.003,0.0193 -0.011,0.02893 -0.008,0.0096 -0.0179,0.01379 -0.0289,0.01379 h -1.58887 c 0.0772,0.05512 0.14331,0.125402 0.19706,0.210841 0.0537,0.08544 0.0868,0.17501 0.10335,0.267339 0,0.01792 -0.008,0.02755 -0.022,0.02755 h -0.0427 c -0.01,0 -0.0165,-0.0069 -0.0193,-0.0193"
       id="path190"
       style="stroke-width:0.352778" />
    <g
       fill="#000000"
       fill-opacity="1"
       id="g197"
       transform="matrix(0.35277777,0,0,0.35277777,-6.3625924,17.228991)">
      <g
         id="use190"
         transform="translate(369.41791,134.6757)" />
      <g
         id="use191"
         transform="translate(371.03738,134.6757)">
        <path
           d="M 0.40625,-4.25 V 0 h 0.484375 v -1.6875 c 0,-0.625 0.328125,-1.03125 0.828125,-1.03125 0.15625,0 0.3125,0.046875 0.4375,0.140625 0.140625,0.09375 0.1875,0.25 0.1875,0.46875 V 0 h 0.484375 v -2.3125 c 0,-0.515625 -0.359375,-0.828125 -0.953125,-0.828125 -0.4375,0 -0.703125,0.140625 -0.984375,0.5 V -4.25 Z m 0,0"
           id="path11" />
      </g>
      <g
         id="use192"
         transform="translate(374.27634,134.6757)" />
      <g
         id="use193"
         transform="translate(375.89581,134.6757)">
        <path
           d="m 3.109375,-2.0625 h -2.8125 v 0.40625 h 2.8125 z m 0,1 h -2.8125 v 0.421875 h 2.8125 z m 0,0"
           id="path9" />
      </g>
      <g
         id="use194"
         transform="translate(379.29788,134.6757)" />
      <g
         id="use195"
         transform="translate(380.91736,134.6757)">
        <path
           d="M 1.609375,-4.125 C 1.21875,-4.125 0.875,-3.96875 0.65625,-3.671875 0.390625,-3.3125 0.25,-2.765625 0.25,-2 c 0,1.40625 0.46875,2.140625 1.359375,2.140625 0.875,0 1.34375,-0.75 1.34375,-2.109375 0,-0.796875 -0.125,-1.328125 -0.40625,-1.703125 C 2.34375,-3.96875 2,-4.125 1.609375,-4.125 Z m 0,0.453125 c 0.546875,0 0.828125,0.546875 0.828125,1.65625 0,1.171875 -0.28125,1.71875 -0.84375,1.71875 -0.546875,0 -0.8125,-0.5625 -0.8125,-1.703125 0,-1.125 0.265625,-1.671875 0.828125,-1.671875 z m 0,0"
           id="path7" />
      </g>
      <g
         id="use196"
         transform="translate(384.15631,134.6757)">
        <path
           d="M 1.109375,-0.609375 H 0.5 V 0 h 0.609375 z m 0,0"
           id="path5" />
      </g>
      <g
         id="use197"
         transform="translate(385.77579,134.6757)">
        <path
           d="M 2.90625,-3.046875 C 2.796875,-3.734375 2.359375,-4.125 1.734375,-4.125 1.28125,-4.125 0.875,-3.921875 0.625,-3.546875 0.359375,-3.140625 0.25,-2.640625 0.25,-1.875 c 0,0.6875 0.109375,1.125 0.34375,1.5 0.234375,0.328125 0.59375,0.515625 1.046875,0.515625 0.78125,0 1.34375,-0.59375 1.34375,-1.40625 0,-0.765625 -0.515625,-1.296875 -1.265625,-1.296875 -0.40625,0 -0.71875,0.15625 -0.9375,0.453125 0,-1.015625 0.328125,-1.5625 0.921875,-1.5625 0.359375,0 0.609375,0.21875 0.6875,0.625 z m -1.25,0.9375 c 0.5,0 0.8125,0.34375 0.8125,0.890625 0,0.515625 -0.359375,0.890625 -0.828125,0.890625 -0.46875,0 -0.84375,-0.390625 -0.84375,-0.921875 0,-0.515625 0.359375,-0.859375 0.859375,-0.859375 z m 0,0"
           id="path1" />
      </g>
    </g>
  </g>
</svg>
