<?xml version="1.0" encoding="UTF-8" standalone="no"?>
<!-- Created with Inkscape (http://www.inkscape.org/) -->

<svg
   width="118.89318mm"
   height="60.764416mm"
   viewBox="0 0 118.89318 60.764416"
   version="1.1"
   id="svg1"
   inkscape:version="1.3.2 (091e20ef0f, 2023-11-25, custom)"
   sodipodi:docname="iq_demod.svg"
   xmlns:inkscape="http://www.inkscape.org/namespaces/inkscape"
   xmlns:sodipodi="http://sodipodi.sourceforge.net/DTD/sodipodi-0.dtd"
   xmlns="http://www.w3.org/2000/svg"
   xmlns:svg="http://www.w3.org/2000/svg">
  <sodipodi:namedview
     id="namedview1"
     pagecolor="#ffffff"
     bordercolor="#999999"
     borderopacity="1"
     inkscape:showpageshadow="0"
     inkscape:pageopacity="0"
     inkscape:pagecheckerboard="0"
     inkscape:deskcolor="#d1d1d1"
     inkscape:document-units="mm"
     inkscape:zoom="1.6819304"
     inkscape:cx="203.33778"
     inkscape:cy="119.80282"
     inkscape:window-width="1920"
     inkscape:window-height="1035"
     inkscape:window-x="0"
     inkscape:window-y="0"
     inkscape:window-maximized="0"
     inkscape:current-layer="layer1" />
  <defs
     id="defs1" />
  <g
     inkscape:label="Layer 1"
     inkscape:groupmode="layer"
     id="layer1"
     transform="translate(24.077087,65.505132)">
    <path
       fill="none"
       stroke-width="0.142884"
       stroke-linecap="butt"
       stroke-linejoin="miter"
       stroke="#000000"
       stroke-opacity="1"
       stroke-miterlimit="10"
       d="M -10.016979,-11.911801 H 14.586486"
       id="path89" />
    <path
       fill="none"
       stroke-width="0.142884"
       stroke-linecap="butt"
       stroke-linejoin="miter"
       stroke="#000000"
       stroke-opacity="1"
       stroke-miterlimit="10"
       d="M -10.016979,-47.061381 H 14.586486"
       id="path90" />
    <path
       fill="none"
       stroke-width="0.142884"
       stroke-linecap="butt"
       stroke-linejoin="miter"
       stroke="#000000"
       stroke-opacity="1"
       stroke-miterlimit="10"
       d="m -24.077087,-29.485903 h 14.060108"
       id="path91" />
    <path
       fill="none"
       stroke-width="0.142884"
       stroke-linecap="butt"
       stroke-linejoin="miter"
       stroke="#000000"
       stroke-opacity="1"
       stroke-miterlimit="10"
       d="M -10.015599,-29.484524 V -47.058626"
       id="path92" />
    <path
       fill="none"
       stroke-width="0.142884"
       stroke-linecap="butt"
       stroke-linejoin="miter"
       stroke="#000000"
       stroke-opacity="1"
       stroke-miterlimit="10"
       d="M -10.015599,-11.910422 V -29.484524"
       id="path93" />
    <path
       fill="none"
       stroke-width="0.142884"
       stroke-linecap="butt"
       stroke-linejoin="miter"
       stroke="#000000"
       stroke-opacity="1"
       stroke-miterlimit="10"
       d="m -10.015599,-29.484524 v -8.789117"
       id="path94" />
    <path
       fill="none"
       stroke-width="0.142884"
       stroke-linecap="butt"
       stroke-linejoin="miter"
       stroke="#000000"
       stroke-opacity="1"
       stroke-miterlimit="10"
       d="m -10.015599,-20.698163 v -8.789116"
       id="path95" />
    <path
       fill="none"
       stroke-width="0.142884"
       stroke-linecap="butt"
       stroke-linejoin="miter"
       stroke="#000000"
       stroke-opacity="1"
       stroke-miterlimit="10"
       d="M 44.319005,-19.011445 H 62.176983"
       id="path96" />
    <path
       fill="none"
       stroke-width="0.142884"
       stroke-linecap="butt"
       stroke-linejoin="miter"
       stroke="#000000"
       stroke-opacity="1"
       stroke-miterlimit="10"
       d="M 44.390662,-4.8796795 V -18.939788"
       id="path97" />
    <path
       fill="none"
       stroke-width="0.142884"
       stroke-linecap="butt"
       stroke-linejoin="miter"
       stroke="#000000"
       stroke-opacity="1"
       stroke-miterlimit="10"
       d="M 62.105326,-4.8796795 V -18.939788"
       id="path98" />
    <path
       fill="none"
       stroke-width="0.142884"
       stroke-linecap="butt"
       stroke-linejoin="miter"
       stroke="#000000"
       stroke-opacity="1"
       stroke-miterlimit="10"
       d="M 44.319005,-4.8121573 H 62.176983"
       id="path99" />
    <path
       fill="none"
       stroke-width="0.142884"
       stroke-linecap="butt"
       stroke-linejoin="miter"
       stroke="#000000"
       stroke-opacity="1"
       stroke-miterlimit="10"
       d="M 44.319005,-54.161025 H 62.176983"
       id="path100" />
    <path
       fill="none"
       stroke-width="0.142884"
       stroke-linecap="butt"
       stroke-linejoin="miter"
       stroke="#000000"
       stroke-opacity="1"
       stroke-miterlimit="10"
       d="M 44.390662,-40.02926 V -54.089368"
       id="path101" />
    <path
       fill="none"
       stroke-width="0.142884"
       stroke-linecap="butt"
       stroke-linejoin="miter"
       stroke="#000000"
       stroke-opacity="1"
       stroke-miterlimit="10"
       d="M 62.105326,-40.02926 V -54.089368"
       id="path102" />
    <path
       fill="none"
       stroke-width="0.142884"
       stroke-linecap="butt"
       stroke-linejoin="miter"
       stroke="#000000"
       stroke-opacity="1"
       stroke-miterlimit="10"
       d="M 44.319005,-39.961738 H 62.176983"
       id="path103" />
    <path
       fill="none"
       stroke-width="0.142884"
       stroke-linecap="butt"
       stroke-linejoin="miter"
       stroke="#000000"
       stroke-opacity="1"
       stroke-miterlimit="10"
       d="M 21.613097,-11.911801 H 44.462323"
       id="path104" />
    <path
       fill="none"
       stroke-width="0.142884"
       stroke-linecap="butt"
       stroke-linejoin="miter"
       stroke="#000000"
       stroke-opacity="1"
       stroke-miterlimit="10"
       d="M 21.613097,-47.061381 H 44.462323"
       id="path105" />
    <path
       fill="none"
       stroke-width="0.142884"
       stroke-linecap="butt"
       stroke-linejoin="miter"
       stroke="#000000"
       stroke-opacity="1"
       stroke-miterlimit="10"
       d="M 62.033666,-11.911801 H 84.882891"
       id="path106" />
    <path
       fill="none"
       stroke-width="0.142884"
       stroke-linecap="butt"
       stroke-linejoin="miter"
       stroke="#000000"
       stroke-opacity="1"
       stroke-miterlimit="10"
       d="M 62.033666,-47.061381 H 84.882891"
       id="path107" />
    <path
       fill="none"
       stroke-width="0.142884"
       stroke-linecap="butt"
       stroke-linejoin="miter"
       stroke="#000000"
       stroke-opacity="1"
       stroke-miterlimit="10"
       d="m -24.077087,-29.485903 h 8.789116"
       id="path108" />
    <path
       fill="none"
       stroke-width="0.142884"
       stroke-linecap="butt"
       stroke-linejoin="miter"
       stroke="#000000"
       stroke-opacity="1"
       stroke-miterlimit="10"
       d="m 21.613097,-11.911801 h 8.789117"
       id="path109" />
    <path
       fill="none"
       stroke-width="0.142884"
       stroke-linecap="butt"
       stroke-linejoin="miter"
       stroke="#000000"
       stroke-opacity="1"
       stroke-miterlimit="10"
       d="m 21.613097,-47.061381 h 8.789117"
       id="path110" />
    <g
       fill="#000000"
       fill-opacity="1"
       id="g149"
       transform="matrix(0.35277777,0,0,0.35277777,-63.538544,-175.28524)">
      <g
         id="use148"
         transform="translate(231.399,318.67209)">
        <path
           d="m 3.578125,-3.84375 c -0.40625,0.03125 -0.46875,0.328125 -0.46875,0.453125 0,0.265625 0.1875,0.453125 0.453125,0.453125 0.265625,0 0.46875,-0.15625 0.46875,-0.46875 0,-0.671875 -0.765625,-1.0625 -1.53125,-1.0625 -1.25,0 -2.15625,1.078125 -2.15625,2.3125 0,1.28125 0.984375,2.265625 2.140625,2.265625 1.328125,0 1.65625,-1.203125 1.65625,-1.296875 0,-0.09375 -0.109375,-0.09375 -0.140625,-0.09375 -0.078125,0 -0.109375,0.03125 -0.125,0.09375 -0.28125,0.921875 -0.9375,1.046875 -1.296875,1.046875 -0.53125,0 -1.40625,-0.421875 -1.40625,-2.03125 0,-1.625 0.8125,-2.046875 1.34375,-2.046875 0.09375,0 0.71875,0.015625 1.0625,0.375 z m 0,0"
           id="path64" />
      </g>
      <g
         id="use149"
         transform="translate(235.82239,318.67209)">
        <path
           d="M 4.6875,-2.140625 C 4.6875,-3.40625 3.703125,-4.46875 2.5,-4.46875 c -1.25,0 -2.21875,1.09375 -2.21875,2.328125 0,1.296875 1.03125,2.25 2.203125,2.25 1.203125,0 2.203125,-0.984375 2.203125,-2.25 z m -2.1875,2 c -0.4375,0 -0.875,-0.203125 -1.140625,-0.671875 -0.25,-0.4375 -0.25,-1.046875 -0.25,-1.40625 0,-0.390625 0,-0.921875 0.234375,-1.359375 C 1.609375,-4.03125 2.078125,-4.25 2.484375,-4.25 c 0.4375,0 0.859375,0.21875 1.125,0.65625 0.265625,0.421875 0.265625,1 0.265625,1.375 0,0.359375 0,0.90625 -0.21875,1.34375 C 3.421875,-0.421875 2.984375,-0.140625 2.5,-0.140625 Z m 0,0"
           id="path63" />
      </g>
    </g>
    <g
       fill="#000000"
       fill-opacity="1"
       id="g150"
       transform="matrix(0.35277777,0,0,0.35277777,-63.538544,-175.28524)">
      <g
         id="use150"
         transform="translate(240.7995,318.67209)">
        <path
           d="m 2.078125,-1.9375 c 0.21875,0.046875 1.03125,0.203125 1.03125,0.921875 0,0.5 -0.34375,0.90625 -1.125,0.90625 -0.84375,0 -1.203125,-0.5625 -1.390625,-1.421875 C 0.5625,-1.65625 0.5625,-1.6875 0.453125,-1.6875 c -0.125,0 -0.125,0.0625 -0.125,0.234375 V -0.125 c 0,0.171875 0,0.234375 0.109375,0.234375 0.046875,0 0.0625,-0.015625 0.25,-0.203125 0.015625,-0.015625 0.015625,-0.03125 0.203125,-0.21875 0.4375,0.40625 0.890625,0.421875 1.09375,0.421875 1.140625,0 1.609375,-0.671875 1.609375,-1.390625 0,-0.515625 -0.296875,-0.828125 -0.421875,-0.9375 C 2.84375,-2.546875 2.453125,-2.625 2.03125,-2.703125 1.46875,-2.8125 0.8125,-2.9375 0.8125,-3.515625 c 0,-0.359375 0.25,-0.765625 1.109375,-0.765625 1.09375,0 1.15625,0.90625 1.171875,1.203125 0,0.09375 0.09375,0.09375 0.109375,0.09375 0.140625,0 0.140625,-0.046875 0.140625,-0.234375 v -1.015625 c 0,-0.15625 0,-0.234375 -0.109375,-0.234375 -0.046875,0 -0.078125,0 -0.203125,0.125 -0.03125,0.03125 -0.125,0.125 -0.171875,0.15625 -0.375,-0.28125 -0.78125,-0.28125 -0.9375,-0.28125 -1.21875,0 -1.59375,0.671875 -1.59375,1.234375 0,0.34375 0.15625,0.625 0.421875,0.84375 0.328125,0.25 0.609375,0.3125 1.328125,0.453125 z m 0,0"
           id="path61" />
      </g>
    </g>
    <g
       fill="#000000"
       fill-opacity="1"
       id="g151"
       transform="matrix(0.35277777,0,0,0.35277777,-63.538544,-175.28524)">
      <g
         id="use151"
         transform="translate(244.728,318.67209)">
        <path
           d="m 3.296875,2.390625 c 0,-0.03125 0,-0.046875 -0.171875,-0.21875 C 1.890625,0.921875 1.5625,-0.96875 1.5625,-2.5 c 0,-1.734375 0.375,-3.46875 1.609375,-4.703125 0.125,-0.125 0.125,-0.140625 0.125,-0.171875 0,-0.078125 -0.03125,-0.109375 -0.09375,-0.109375 -0.109375,0 -1,0.6875 -1.59375,1.953125 -0.5,1.09375 -0.625,2.203125 -0.625,3.03125 0,0.78125 0.109375,1.984375 0.65625,3.125 C 2.25,1.84375 3.09375,2.5 3.203125,2.5 c 0.0625,0 0.09375,-0.03125 0.09375,-0.109375 z m 0,0"
           id="path54" />
      </g>
    </g>
    <g
       fill="#000000"
       fill-opacity="1"
       id="g152"
       transform="matrix(0.35277777,0,0,0.35277777,-63.538544,-175.28524)">
      <g
         id="use152"
         transform="translate(248.6068,318.67209)">
        <path
           d="m 2.625,-0.8125 c 0.09375,0.625 0.4375,0.921875 0.9375,0.921875 0.59375,0 1.125,-0.375 1.53125,-0.921875 0.75,-1.046875 0.9375,-2.546875 0.9375,-2.890625 0,-0.703125 -0.375,-0.703125 -0.421875,-0.703125 -0.25,0 -0.5,0.265625 -0.5,0.484375 0,0.125 0.046875,0.1875 0.140625,0.265625 0.328125,0.328125 0.359375,0.640625 0.359375,0.859375 0,0.859375 -0.859375,2.1875 -1.90625,2.1875 -0.078125,0 -0.359375,0 -0.546875,-0.234375 C 3.046875,-1 2.953125,-1.1875 2.953125,-1.390625 c 0,-0.03125 0,-0.046875 0.0625,-0.15625 0.1875,-0.453125 0.328125,-1 0.328125,-1.125 0,-0.125 -0.0625,-0.234375 -0.203125,-0.234375 -0.109375,0 -0.203125,0.09375 -0.28125,0.25 -0.015625,0.046875 -0.140625,0.5 -0.203125,1.015625 C 2.625,-1.46875 2.625,-1.453125 2.5625,-1.375 2.125,-0.765625 1.671875,-0.609375 1.328125,-0.609375 c -0.65625,0 -0.875,-0.546875 -0.875,-1.140625 0,-0.75 0.359375,-1.5625 0.828125,-2.234375 0.109375,-0.140625 0.109375,-0.15625 0.109375,-0.1875 0,-0.078125 -0.0625,-0.125 -0.125,-0.125 -0.15625,0 -0.625,0.875 -0.75,1.203125 -0.375,0.875 -0.390625,1.703125 -0.390625,1.78125 0,0.796875 0.296875,1.421875 1.0625,1.421875 0.640625,0 1.125,-0.453125 1.4375,-0.921875 z m 0,0"
           id="path37" />
      </g>
    </g>
    <g
       fill="#000000"
       fill-opacity="1"
       id="g153"
       transform="matrix(0.35277777,0,0,0.35277777,-63.538544,-175.28524)">
      <g
         id="use153"
         transform="translate(254.8084,320.1662)">
        <path
           d="m 3.046875,-2.671875 c -0.25,0.046875 -0.34375,0.234375 -0.34375,0.390625 0,0.1875 0.140625,0.265625 0.265625,0.265625 0.15625,0 0.390625,-0.109375 0.390625,-0.453125 0,-0.46875 -0.53125,-0.609375 -0.90625,-0.609375 -1.046875,0 -2.015625,0.96875 -2.015625,1.9375 0,0.59375 0.40625,1.203125 1.28125,1.203125 1.1875,0 1.734375,-0.6875 1.734375,-0.78125 0,-0.046875 -0.0625,-0.125 -0.125,-0.125 -0.03125,0 -0.046875,0.015625 -0.109375,0.078125 C 2.671875,-0.125 1.859375,-0.125 1.734375,-0.125 c -0.5,0 -0.71875,-0.34375 -0.71875,-0.78125 0,-0.1875 0.09375,-0.953125 0.453125,-1.4375 0.265625,-0.34375 0.625,-0.53125 0.984375,-0.53125 0.09375,0 0.421875,0.015625 0.59375,0.203125 z m 0,0"
           id="path13" />
      </g>
    </g>
    <g
       fill="#000000"
       fill-opacity="1"
       id="g154"
       transform="matrix(0.35277777,0,0,0.35277777,-63.538544,-175.28524)">
      <g
         id="use154"
         transform="translate(258.8764,318.67209)">
        <path
           d="m 2.046875,-3.984375 h 0.9375 c 0.203125,0 0.3125,0 0.3125,-0.203125 0,-0.109375 -0.109375,-0.109375 -0.28125,-0.109375 h -0.875 C 2.5,-5.71875 2.546875,-5.90625 2.546875,-5.96875 c 0,-0.171875 -0.125,-0.265625 -0.296875,-0.265625 -0.03125,0 -0.3125,0 -0.390625,0.359375 L 1.46875,-4.296875 h -0.9375 c -0.203125,0 -0.296875,0 -0.296875,0.1875 0,0.125 0.078125,0.125 0.28125,0.125 h 0.875 C 0.671875,-1.15625 0.625,-0.984375 0.625,-0.8125 0.625,-0.265625 1,0.109375 1.546875,0.109375 2.5625,0.109375 3.125,-1.34375 3.125,-1.421875 3.125,-1.53125 3.046875,-1.53125 3.015625,-1.53125 2.921875,-1.53125 2.90625,-1.5 2.859375,-1.390625 2.4375,-0.34375 1.90625,-0.109375 1.5625,-0.109375 c -0.203125,0 -0.3125,-0.125 -0.3125,-0.453125 0,-0.25 0.03125,-0.3125 0.0625,-0.484375 z m 0,0"
           id="path20" />
      </g>
    </g>
    <g
       fill="#000000"
       fill-opacity="1"
       id="g155"
       transform="matrix(0.35277777,0,0,0.35277777,-63.538544,-175.28524)">
      <g
         id="use155"
         transform="translate(262.4729,318.67209)">
        <path
           d="m 2.875,-2.5 c 0,-0.765625 -0.109375,-1.96875 -0.65625,-3.109375 -0.59375,-1.21875 -1.453125,-1.875 -1.546875,-1.875 -0.0625,0 -0.109375,0.046875 -0.109375,0.109375 0,0.03125 0,0.046875 0.1875,0.234375 0.984375,0.984375 1.546875,2.5625 1.546875,4.640625 0,1.71875 -0.359375,3.46875 -1.59375,4.71875 C 0.5625,2.34375 0.5625,2.359375 0.5625,2.390625 0.5625,2.453125 0.609375,2.5 0.671875,2.5 0.765625,2.5 1.671875,1.8125 2.25,0.546875 2.765625,-0.546875 2.875,-1.65625 2.875,-2.5 Z m 0,0"
           id="path47" />
      </g>
    </g>
    <path
       fill="none"
       stroke-width="0.127008"
       stroke-linecap="round"
       stroke-linejoin="miter"
       stroke="#000000"
       stroke-opacity="1"
       stroke-miterlimit="10"
       d="m 21.604828,-47.058626 c 0,1.934763 -1.569585,3.504348 -3.505724,3.504348 -1.936143,0 -3.505728,-1.569585 -3.505728,-3.504348 0,-1.936143 1.569585,-3.505724 3.505728,-3.505724 1.936139,0 3.505724,1.569581 3.505724,3.505724"
       id="path156" />
    <path
       fill="none"
       stroke-width="0.142884"
       stroke-linecap="butt"
       stroke-linejoin="miter"
       stroke="#000000"
       stroke-opacity="1"
       stroke-miterlimit="10"
       d="M 18.10048,-50.573999 V -61.118735"
       id="path157" />
    <path
       fill="none"
       stroke-width="0.127008"
       stroke-linecap="round"
       stroke-linejoin="miter"
       stroke="#000000"
       stroke-opacity="1"
       stroke-miterlimit="10"
       d="m 15.637929,-44.598831 4.903055,-4.901675"
       id="path158" />
    <path
       fill="none"
       stroke-width="0.127008"
       stroke-linecap="round"
       stroke-linejoin="miter"
       stroke="#000000"
       stroke-opacity="1"
       stroke-miterlimit="10"
       d="m 15.637929,-49.519801 4.903055,4.901679"
       id="path159" />
    <g
       fill="#000000"
       fill-opacity="1"
       id="g159"
       transform="matrix(0.35277777,0,0,0.35277777,-63.538544,-175.28524)">
      <g
         id="use159"
         transform="translate(231.399,353.53799)">
        <path
           d="m -1.5,-3.984375 c 0.6875,1.265625 1.1875,2.59375 1.5,3.96875 0.3125,-1.375 0.8125,-2.703125 1.5,-3.96875 z m 0,0"
           id="path8" />
      </g>
    </g>
    <g
       fill="#000000"
       fill-opacity="1"
       id="g161"
       transform="matrix(0.35277777,0,0,0.35277777,-63.538544,-175.28524)">
      <g
         id="use161"
         transform="translate(256.311,363.50101)">
        <path
           d="M 9.953125,-0.015625 C 8.5625,-0.3125 7.234375,-0.8125 5.984375,-1.5 v 3 c 1.25,-0.6875 2.578125,-1.1875 3.96875,-1.484375 z m 0,0"
           id="path3" />
      </g>
    </g>
    <g
       fill="#000000"
       fill-opacity="1"
       id="g163"
       transform="matrix(0.35277777,0,0,0.35277777,-63.538544,-175.28524)">
      <g
         id="use163"
         transform="translate(281.21399,358.5238)">
        <path
           d="m 0.875,-0.59375 c -0.03125,0.15625 -0.09375,0.390625 -0.09375,0.4375 0,0.171875 0.140625,0.265625 0.296875,0.265625 0.125,0 0.296875,-0.078125 0.375,-0.28125 C 1.46875,-0.203125 1.796875,-1.5625 1.84375,-1.75 c 0.078125,-0.328125 0.265625,-1.015625 0.3125,-1.296875 0.046875,-0.125 0.328125,-0.59375 0.5625,-0.8125 0.078125,-0.0625 0.375,-0.328125 0.796875,-0.328125 0.265625,0 0.40625,0.125 0.421875,0.125 -0.296875,0.046875 -0.515625,0.28125 -0.515625,0.546875 0,0.15625 0.109375,0.34375 0.375,0.34375 0.265625,0 0.546875,-0.234375 0.546875,-0.59375 0,-0.34375 -0.3125,-0.640625 -0.828125,-0.640625 C 2.875,-4.40625 2.4375,-3.921875 2.25,-3.640625 2.15625,-4.09375 1.796875,-4.40625 1.328125,-4.40625 0.875,-4.40625 0.6875,-4.015625 0.59375,-3.84375 0.421875,-3.5 0.296875,-2.90625 0.296875,-2.875 c 0,0.109375 0.09375,0.109375 0.109375,0.109375 0.109375,0 0.109375,-0.015625 0.171875,-0.234375 0.171875,-0.703125 0.375,-1.1875 0.734375,-1.1875 0.15625,0 0.296875,0.078125 0.296875,0.453125 0,0.21875 -0.03125,0.328125 -0.15625,0.84375 z m 0,0"
           id="path18" />
      </g>
    </g>
    <g
       fill="#000000"
       fill-opacity="1"
       id="g164"
       transform="matrix(0.35277777,0,0,0.35277777,-63.538544,-175.28524)">
      <g
         id="use164"
         transform="translate(285.70499,360.01791)">
        <path
           d="m 2.265625,-4.359375 c 0,-0.109375 -0.09375,-0.265625 -0.28125,-0.265625 -0.1875,0 -0.390625,0.1875 -0.390625,0.390625 0,0.109375 0.078125,0.265625 0.28125,0.265625 0.1875,0 0.390625,-0.203125 0.390625,-0.390625 z M 0.84375,-0.8125 c -0.03125,0.09375 -0.0625,0.171875 -0.0625,0.296875 0,0.328125 0.265625,0.578125 0.65625,0.578125 0.6875,0 1,-0.953125 1,-1.0625 0,-0.09375 -0.09375,-0.09375 -0.109375,-0.09375 -0.09375,0 -0.109375,0.046875 -0.140625,0.125 -0.15625,0.5625 -0.453125,0.84375 -0.734375,0.84375 -0.140625,0 -0.171875,-0.09375 -0.171875,-0.25 0,-0.15625 0.046875,-0.28125 0.109375,-0.4375 C 1.46875,-1 1.546875,-1.1875 1.609375,-1.375 1.671875,-1.546875 1.9375,-2.171875 1.953125,-2.265625 1.984375,-2.328125 2,-2.40625 2,-2.484375 2,-2.8125 1.71875,-3.078125 1.34375,-3.078125 0.640625,-3.078125 0.328125,-2.125 0.328125,-2 c 0,0.078125 0.09375,0.078125 0.125,0.078125 0.09375,0 0.09375,-0.03125 0.125,-0.109375 C 0.75,-2.625 1.0625,-2.875 1.3125,-2.875 c 0.109375,0 0.171875,0.046875 0.171875,0.234375 0,0.171875 -0.03125,0.265625 -0.203125,0.703125 z m 0,0"
           id="path12" />
      </g>
    </g>
    <g
       fill="#000000"
       fill-opacity="1"
       id="g165"
       transform="matrix(0.35277777,0,0,0.35277777,-63.538544,-175.28524)">
      <g
         id="use165"
         transform="translate(289.02609,358.5238)">
        <path
           d="m 3.296875,2.390625 c 0,-0.03125 0,-0.046875 -0.171875,-0.21875 C 1.890625,0.921875 1.5625,-0.96875 1.5625,-2.5 c 0,-1.734375 0.375,-3.46875 1.609375,-4.703125 0.125,-0.125 0.125,-0.140625 0.125,-0.171875 0,-0.078125 -0.03125,-0.109375 -0.09375,-0.109375 -0.109375,0 -1,0.6875 -1.59375,1.953125 -0.5,1.09375 -0.625,2.203125 -0.625,3.03125 0,0.78125 0.109375,1.984375 0.65625,3.125 C 2.25,1.84375 3.09375,2.5 3.203125,2.5 c 0.0625,0 0.09375,-0.03125 0.09375,-0.109375 z m 0,0"
           id="path55" />
      </g>
    </g>
    <g
       fill="#000000"
       fill-opacity="1"
       id="g166"
       transform="matrix(0.35277777,0,0,0.35277777,-63.538544,-175.28524)">
      <g
         id="use166"
         transform="translate(292.896,358.5238)">
        <path
           d="m 2.046875,-3.984375 h 0.9375 c 0.203125,0 0.3125,0 0.3125,-0.203125 0,-0.109375 -0.109375,-0.109375 -0.28125,-0.109375 h -0.875 C 2.5,-5.71875 2.546875,-5.90625 2.546875,-5.96875 c 0,-0.171875 -0.125,-0.265625 -0.296875,-0.265625 -0.03125,0 -0.3125,0 -0.390625,0.359375 L 1.46875,-4.296875 h -0.9375 c -0.203125,0 -0.296875,0 -0.296875,0.1875 0,0.125 0.078125,0.125 0.28125,0.125 h 0.875 C 0.671875,-1.15625 0.625,-0.984375 0.625,-0.8125 0.625,-0.265625 1,0.109375 1.546875,0.109375 2.5625,0.109375 3.125,-1.34375 3.125,-1.421875 3.125,-1.53125 3.046875,-1.53125 3.015625,-1.53125 2.921875,-1.53125 2.90625,-1.5 2.859375,-1.390625 2.4375,-0.34375 1.90625,-0.109375 1.5625,-0.109375 c -0.203125,0 -0.3125,-0.125 -0.3125,-0.453125 0,-0.25 0.03125,-0.3125 0.0625,-0.484375 z m 0,0"
           id="path21" />
      </g>
    </g>
    <g
       fill="#000000"
       fill-opacity="1"
       id="g167"
       transform="matrix(0.35277777,0,0,0.35277777,-63.538544,-175.28524)">
      <g
         id="use167"
         transform="translate(296.49249,358.5238)">
        <path
           d="m 2.875,-2.5 c 0,-0.765625 -0.109375,-1.96875 -0.65625,-3.109375 -0.59375,-1.21875 -1.453125,-1.875 -1.546875,-1.875 -0.0625,0 -0.109375,0.046875 -0.109375,0.109375 0,0.03125 0,0.046875 0.1875,0.234375 0.984375,0.984375 1.546875,2.5625 1.546875,4.640625 0,1.71875 -0.359375,3.46875 -1.59375,4.71875 C 0.5625,2.34375 0.5625,2.359375 0.5625,2.390625 0.5625,2.453125 0.609375,2.5 0.671875,2.5 0.765625,2.5 1.671875,1.8125 2.25,0.546875 2.765625,-0.546875 2.875,-1.65625 2.875,-2.5 Z m 0,0"
           id="path48" />
      </g>
    </g>
    <g
       fill="#000000"
       fill-opacity="1"
       id="g169"
       transform="matrix(0.35277777,0,0,0.35277777,-63.538544,-175.28524)">
      <g
         id="use169"
         transform="translate(410.733,363.50101)">
        <path
           d="M 9.953125,-0.015625 C 8.5625,-0.3125 7.234375,-0.8125 5.984375,-1.5 v 3 c 1.25,-0.6875 2.578125,-1.1875 3.96875,-1.484375 z m 0,0"
           id="path4" />
      </g>
    </g>
    <g
       fill="#000000"
       fill-opacity="1"
       id="g171"
       transform="matrix(0.35277777,0,0,0.35277777,-63.538544,-175.28524)">
      <g
         id="use171"
         transform="translate(430.65939,363.50101)">
        <path
           d="M 3.734375,-6.046875 C 3.8125,-6.40625 3.84375,-6.5 4.640625,-6.5 c 0.234375,0 0.3125,0 0.3125,-0.1875 0,-0.125 -0.109375,-0.125 -0.140625,-0.125 -0.296875,0 -1.03125,0.03125 -1.328125,0.03125 -0.296875,0 -1.015625,-0.03125 -1.328125,-0.03125 -0.0625,0 -0.1875,0 -0.1875,0.203125 C 1.96875,-6.5 2.046875,-6.5 2.25,-6.5 c 0.40625,0 0.6875,0 0.6875,0.1875 0,0.046875 0,0.078125 -0.03125,0.15625 l -1.34375,5.375 c -0.09375,0.375 -0.109375,0.46875 -0.90625,0.46875 -0.234375,0 -0.3125,0 -0.3125,0.203125 C 0.34375,0 0.453125,0 0.484375,0 0.78125,0 1.5,-0.03125 1.796875,-0.03125 2.09375,-0.03125 2.828125,0 3.125,0 c 0.078125,0 0.203125,0 0.203125,-0.1875 0,-0.125 -0.078125,-0.125 -0.296875,-0.125 -0.1875,0 -0.234375,0 -0.421875,-0.015625 -0.21875,-0.015625 -0.25,-0.0625 -0.25,-0.171875 0,-0.078125 0.015625,-0.15625 0.03125,-0.234375 z m 0,0"
           id="path17" />
      </g>
    </g>
    <g
       fill="#000000"
       fill-opacity="1"
       id="g172"
       transform="matrix(0.35277777,0,0,0.35277777,-63.538544,-175.28524)">
      <g
         id="use172"
         transform="translate(435.82541,363.50101)">
        <path
           d="m 3.296875,2.390625 c 0,-0.03125 0,-0.046875 -0.171875,-0.21875 C 1.890625,0.921875 1.5625,-0.96875 1.5625,-2.5 c 0,-1.734375 0.375,-3.46875 1.609375,-4.703125 0.125,-0.125 0.125,-0.140625 0.125,-0.171875 0,-0.078125 -0.03125,-0.109375 -0.09375,-0.109375 -0.109375,0 -1,0.6875 -1.59375,1.953125 -0.5,1.09375 -0.625,2.203125 -0.625,3.03125 0,0.78125 0.109375,1.984375 0.65625,3.125 C 2.25,1.84375 3.09375,2.5 3.203125,2.5 c 0.0625,0 0.09375,-0.03125 0.09375,-0.109375 z m 0,0"
           id="path56" />
      </g>
    </g>
    <g
       fill="#000000"
       fill-opacity="1"
       id="g173"
       transform="matrix(0.35277777,0,0,0.35277777,-63.538544,-175.28524)">
      <g
         id="use173"
         transform="translate(439.69531,363.50101)">
        <path
           d="m 2.046875,-3.984375 h 0.9375 c 0.203125,0 0.3125,0 0.3125,-0.203125 0,-0.109375 -0.109375,-0.109375 -0.28125,-0.109375 h -0.875 C 2.5,-5.71875 2.546875,-5.90625 2.546875,-5.96875 c 0,-0.171875 -0.125,-0.265625 -0.296875,-0.265625 -0.03125,0 -0.3125,0 -0.390625,0.359375 L 1.46875,-4.296875 h -0.9375 c -0.203125,0 -0.296875,0 -0.296875,0.1875 0,0.125 0.078125,0.125 0.28125,0.125 h 0.875 C 0.671875,-1.15625 0.625,-0.984375 0.625,-0.8125 0.625,-0.265625 1,0.109375 1.546875,0.109375 2.5625,0.109375 3.125,-1.34375 3.125,-1.421875 3.125,-1.53125 3.046875,-1.53125 3.015625,-1.53125 2.921875,-1.53125 2.90625,-1.5 2.859375,-1.390625 2.4375,-0.34375 1.90625,-0.109375 1.5625,-0.109375 c -0.203125,0 -0.3125,-0.125 -0.3125,-0.453125 0,-0.25 0.03125,-0.3125 0.0625,-0.484375 z m 0,0"
           id="path22" />
      </g>
    </g>
    <g
       fill="#000000"
       fill-opacity="1"
       id="g174"
       transform="matrix(0.35277777,0,0,0.35277777,-63.538544,-175.28524)">
      <g
         id="use174"
         transform="translate(443.29529,363.50101)">
        <path
           d="m 2.875,-2.5 c 0,-0.765625 -0.109375,-1.96875 -0.65625,-3.109375 -0.59375,-1.21875 -1.453125,-1.875 -1.546875,-1.875 -0.0625,0 -0.109375,0.046875 -0.109375,0.109375 0,0.03125 0,0.046875 0.1875,0.234375 0.984375,0.984375 1.546875,2.5625 1.546875,4.640625 0,1.71875 -0.359375,3.46875 -1.59375,4.71875 C 0.5625,2.34375 0.5625,2.359375 0.5625,2.390625 0.5625,2.453125 0.609375,2.5 0.671875,2.5 0.765625,2.5 1.671875,1.8125 2.25,0.546875 2.765625,-0.546875 2.875,-1.65625 2.875,-2.5 Z m 0,0"
           id="path49" />
      </g>
    </g>
    <g
       fill="#000000"
       fill-opacity="1"
       id="g175"
       transform="matrix(0.35277777,0,0,0.35277777,-63.538544,-175.28524)">
      <g
         id="use175"
         transform="translate(321.27301,366.90302)">
        <path
           d="m 5.796875,-2.578125 h -0.25 c -0.109375,1.015625 -0.25,2.265625 -2,2.265625 h -0.8125 C 2.265625,-0.3125 2.25,-0.375 2.25,-0.703125 v -5.3125 C 2.25,-6.359375 2.25,-6.5 3.1875,-6.5 H 3.515625 V -6.8125 C 3.15625,-6.78125 2.25,-6.78125 1.84375,-6.78125 c -0.390625,0 -1.171875,0 -1.515625,-0.03125 V -6.5 H 0.5625 c 0.765625,0 0.796875,0.109375 0.796875,0.46875 v 5.25 c 0,0.359375 -0.03125,0.46875 -0.796875,0.46875 H 0.328125 V 0 h 5.1875 z m 0,0"
           id="path45" />
      </g>
    </g>
    <g
       fill="#000000"
       fill-opacity="1"
       id="g177"
       transform="matrix(0.35277777,0,0,0.35277777,-63.538544,-175.28524)">
      <g
         id="use176"
         transform="translate(327.50101,366.90302)">
        <path
           d="m 2.265625,-3.15625 h 1.6875 c 1.1875,0 2.265625,-0.796875 2.265625,-1.796875 C 6.21875,-5.9375 5.234375,-6.8125 3.875,-6.8125 H 0.34375 V -6.5 h 0.25 c 0.765625,0 0.78125,0.109375 0.78125,0.46875 v 5.25 c 0,0.359375 -0.015625,0.46875 -0.78125,0.46875 h -0.25 V 0 c 0.359375,-0.03125 1.09375,-0.03125 1.46875,-0.03125 0.375,0 1.125,0 1.484375,0.03125 v -0.3125 h -0.25 c -0.765625,0 -0.78125,-0.109375 -0.78125,-0.46875 z m -0.03125,-0.25 v -2.6875 C 2.234375,-6.4375 2.25,-6.5 2.71875,-6.5 h 0.890625 c 1.578125,0 1.578125,1.0625 1.578125,1.546875 0,0.46875 0,1.546875 -1.578125,1.546875 z m 0,0"
           id="path43" />
      </g>
      <g
         id="use177"
         transform="translate(334.28552,366.90302)">
        <path
           d="m 5.796875,-6.78125 h -5.46875 v 0.3125 H 0.5625 c 0.765625,0 0.796875,0.109375 0.796875,0.46875 v 5.21875 c 0,0.359375 -0.03125,0.46875 -0.796875,0.46875 H 0.328125 V 0 c 0.34375,-0.03125 1.125,-0.03125 1.515625,-0.03125 0.40625,0 1.3125,0 1.671875,0.03125 V -0.3125 H 3.1875 C 2.25,-0.3125 2.25,-0.4375 2.25,-0.78125 v -2.453125 h 0.84375 c 0.96875,0 1.0625,0.3125 1.0625,1.15625 h 0.25 V -4.71875 h -0.25 c 0,0.84375 -0.09375,1.171875 -1.0625,1.171875 H 2.25 v -2.53125 c 0,-0.328125 0.015625,-0.390625 0.484375,-0.390625 h 1.1875 c 1.5,0 1.75,0.5625 1.90625,1.9375 h 0.25 z m 0,0"
           id="path41" />
      </g>
    </g>
    <g
       fill="#000000"
       fill-opacity="1"
       id="g179"
       transform="matrix(0.35277777,0,0,0.35277777,-63.538544,-175.28524)">
      <g
         id="use179"
         transform="translate(151.70399,398.367)">
        <path
           d="m 1.5,-5.984375 c -0.6875,-1.25 -1.1875,-2.578125 -1.484375,-3.96875 h -0.03125 C -0.3125,-8.5625 -0.8125,-7.234375 -1.5,-5.984375 Z m 0,0"
           id="path1" />
      </g>
    </g>
    <g
       fill="#000000"
       fill-opacity="1"
       id="g181"
       transform="matrix(0.35277777,0,0,0.35277777,-63.538544,-175.28524)">
      <g
         id="use181"
         transform="translate(111.8523,403.35339)">
        <path
           d="M 3.890625,-3.734375 C 3.625,-3.71875 3.421875,-3.5 3.421875,-3.28125 c 0,0.140625 0.09375,0.296875 0.3125,0.296875 0.21875,0 0.453125,-0.171875 0.453125,-0.5625 C 4.1875,-4 3.765625,-4.40625 3,-4.40625 c -1.3125,0 -1.6875,1.015625 -1.6875,1.453125 0,0.78125 0.734375,0.921875 1.03125,0.984375 0.515625,0.109375 1.03125,0.21875 1.03125,0.765625 0,0.25 -0.21875,1.09375 -1.421875,1.09375 -0.140625,0 -0.90625,0 -1.140625,-0.53125 0.390625,0.046875 0.640625,-0.25 0.640625,-0.53125 0,-0.21875 -0.171875,-0.34375 -0.375,-0.34375 -0.265625,0 -0.5625,0.203125 -0.5625,0.65625 0,0.5625 0.578125,0.96875 1.421875,0.96875 1.625,0 2.015625,-1.203125 2.015625,-1.65625 0,-0.359375 -0.1875,-0.609375 -0.3125,-0.71875 -0.265625,-0.28125 -0.5625,-0.34375 -1,-0.421875 -0.359375,-0.078125 -0.75,-0.15625 -0.75,-0.609375 C 1.890625,-3.578125 2.125,-4.1875 3,-4.1875 c 0.25,0 0.75,0.078125 0.890625,0.453125 z m 0,0"
           id="path16" />
      </g>
    </g>
    <g
       fill="#000000"
       fill-opacity="1"
       id="g182"
       transform="matrix(0.35277777,0,0,0.35277777,-63.538544,-175.28524)">
      <g
         id="use182"
         transform="translate(116.5234,403.35339)">
        <path
           d="m 3.296875,2.390625 c 0,-0.03125 0,-0.046875 -0.171875,-0.21875 C 1.890625,0.921875 1.5625,-0.96875 1.5625,-2.5 c 0,-1.734375 0.375,-3.46875 1.609375,-4.703125 0.125,-0.125 0.125,-0.140625 0.125,-0.171875 0,-0.078125 -0.03125,-0.109375 -0.09375,-0.109375 -0.109375,0 -1,0.6875 -1.59375,1.953125 -0.5,1.09375 -0.625,2.203125 -0.625,3.03125 0,0.78125 0.109375,1.984375 0.65625,3.125 C 2.25,1.84375 3.09375,2.5 3.203125,2.5 c 0.0625,0 0.09375,-0.03125 0.09375,-0.109375 z m 0,0"
           id="path57" />
      </g>
    </g>
    <g
       fill="#000000"
       fill-opacity="1"
       id="g183"
       transform="matrix(0.35277777,0,0,0.35277777,-63.538544,-175.28524)">
      <g
         id="use183"
         transform="translate(120.3933,403.35339)">
        <path
           d="m 2.046875,-3.984375 h 0.9375 c 0.203125,0 0.3125,0 0.3125,-0.203125 0,-0.109375 -0.109375,-0.109375 -0.28125,-0.109375 h -0.875 C 2.5,-5.71875 2.546875,-5.90625 2.546875,-5.96875 c 0,-0.171875 -0.125,-0.265625 -0.296875,-0.265625 -0.03125,0 -0.3125,0 -0.390625,0.359375 L 1.46875,-4.296875 h -0.9375 c -0.203125,0 -0.296875,0 -0.296875,0.1875 0,0.125 0.078125,0.125 0.28125,0.125 h 0.875 C 0.671875,-1.15625 0.625,-0.984375 0.625,-0.8125 0.625,-0.265625 1,0.109375 1.546875,0.109375 2.5625,0.109375 3.125,-1.34375 3.125,-1.421875 3.125,-1.53125 3.046875,-1.53125 3.015625,-1.53125 2.921875,-1.53125 2.90625,-1.5 2.859375,-1.390625 2.4375,-0.34375 1.90625,-0.109375 1.5625,-0.109375 c -0.203125,0 -0.3125,-0.125 -0.3125,-0.453125 0,-0.25 0.03125,-0.3125 0.0625,-0.484375 z m 0,0"
           id="path23" />
      </g>
    </g>
    <g
       fill="#000000"
       fill-opacity="1"
       id="g184"
       transform="matrix(0.35277777,0,0,0.35277777,-63.538544,-175.28524)">
      <g
         id="use184"
         transform="translate(123.9933,403.35339)">
        <path
           d="m 2.875,-2.5 c 0,-0.765625 -0.109375,-1.96875 -0.65625,-3.109375 -0.59375,-1.21875 -1.453125,-1.875 -1.546875,-1.875 -0.0625,0 -0.109375,0.046875 -0.109375,0.109375 0,0.03125 0,0.046875 0.1875,0.234375 0.984375,0.984375 1.546875,2.5625 1.546875,4.640625 0,1.71875 -0.359375,3.46875 -1.59375,4.71875 C 0.5625,2.34375 0.5625,2.359375 0.5625,2.390625 0.5625,2.453125 0.609375,2.5 0.671875,2.5 0.765625,2.5 1.671875,1.8125 2.25,0.546875 2.765625,-0.546875 2.875,-1.65625 2.875,-2.5 Z m 0,0"
           id="path50" />
      </g>
    </g>
    <g
       fill="#000000"
       fill-opacity="1"
       id="g185"
       transform="matrix(0.35277777,0,0,0.35277777,-63.538544,-175.28524)">
      <g
         id="use185"
         transform="translate(126.792,413.31601)">
        <path
           d="M 9.953125,-0.015625 C 8.5625,-0.3125 7.234375,-0.8125 5.984375,-1.5 v 3 c 1.25,-0.6875 2.578125,-1.1875 3.96875,-1.484375 z m 0,0"
           id="path5" />
      </g>
    </g>
    <g
       fill="#000000"
       fill-opacity="1"
       id="g187"
       transform="matrix(0.35277777,0,0,0.35277777,-63.538544,-175.28524)">
      <g
         id="use187"
         transform="translate(231.399,418.29321)">
        <path
           d="m 2.078125,-1.9375 c 0.21875,0.046875 1.03125,0.203125 1.03125,0.921875 0,0.5 -0.34375,0.90625 -1.125,0.90625 -0.84375,0 -1.203125,-0.5625 -1.390625,-1.421875 C 0.5625,-1.65625 0.5625,-1.6875 0.453125,-1.6875 c -0.125,0 -0.125,0.0625 -0.125,0.234375 V -0.125 c 0,0.171875 0,0.234375 0.109375,0.234375 0.046875,0 0.0625,-0.015625 0.25,-0.203125 0.015625,-0.015625 0.015625,-0.03125 0.203125,-0.21875 0.4375,0.40625 0.890625,0.421875 1.09375,0.421875 1.140625,0 1.609375,-0.671875 1.609375,-1.390625 0,-0.515625 -0.296875,-0.828125 -0.421875,-0.9375 C 2.84375,-2.546875 2.453125,-2.625 2.03125,-2.703125 1.46875,-2.8125 0.8125,-2.9375 0.8125,-3.515625 c 0,-0.359375 0.25,-0.765625 1.109375,-0.765625 1.09375,0 1.15625,0.90625 1.171875,1.203125 0,0.09375 0.09375,0.09375 0.109375,0.09375 0.140625,0 0.140625,-0.046875 0.140625,-0.234375 v -1.015625 c 0,-0.15625 0,-0.234375 -0.109375,-0.234375 -0.046875,0 -0.078125,0 -0.203125,0.125 -0.03125,0.03125 -0.125,0.125 -0.171875,0.15625 -0.375,-0.28125 -0.78125,-0.28125 -0.9375,-0.28125 -1.21875,0 -1.59375,0.671875 -1.59375,1.234375 0,0.34375 0.15625,0.625 0.421875,0.84375 0.328125,0.25 0.609375,0.3125 1.328125,0.453125 z m 0,0"
           id="path62" />
      </g>
    </g>
    <g
       fill="#000000"
       fill-opacity="1"
       id="g188"
       transform="matrix(0.35277777,0,0,0.35277777,-63.538544,-175.28524)">
      <g
         id="use188"
         transform="translate(235.32761,418.29321)">
        <path
           d="M 1.765625,-4.40625 0.375,-4.296875 v 0.3125 c 0.640625,0 0.734375,0.0625 0.734375,0.546875 V -0.75 c 0,0.4375 -0.109375,0.4375 -0.78125,0.4375 V 0 C 0.640625,-0.015625 1.1875,-0.03125 1.421875,-0.03125 1.78125,-0.03125 2.125,-0.015625 2.46875,0 v -0.3125 c -0.671875,0 -0.703125,-0.046875 -0.703125,-0.4375 z m 0.03125,-1.734375 c 0,-0.3125 -0.234375,-0.53125 -0.515625,-0.53125 -0.3125,0 -0.53125,0.265625 -0.53125,0.53125 0,0.265625 0.21875,0.53125 0.53125,0.53125 0.28125,0 0.515625,-0.21875 0.515625,-0.53125 z m 0,0"
           id="path40" />
      </g>
    </g>
    <g
       fill="#000000"
       fill-opacity="1"
       id="g190"
       transform="matrix(0.35277777,0,0,0.35277777,-63.538544,-175.28524)">
      <g
         id="use189"
         transform="translate(238.0928,418.29321)">
        <path
           d="M 1.09375,-3.421875 V -0.75 c 0,0.4375 -0.109375,0.4375 -0.78125,0.4375 V 0 c 0.359375,-0.015625 0.859375,-0.03125 1.140625,-0.03125 0.25,0 0.765625,0.015625 1.109375,0.03125 v -0.3125 c -0.671875,0 -0.78125,0 -0.78125,-0.4375 V -2.59375 C 1.78125,-3.625 2.5,-4.1875 3.125,-4.1875 c 0.640625,0 0.75,0.53125 0.75,1.109375 V -0.75 c 0,0.4375 -0.109375,0.4375 -0.78125,0.4375 V 0 c 0.34375,-0.015625 0.859375,-0.03125 1.125,-0.03125 0.25,0 0.78125,0.015625 1.109375,0.03125 v -0.3125 c -0.515625,0 -0.765625,0 -0.765625,-0.296875 v -1.90625 c 0,-0.859375 0,-1.15625 -0.3125,-1.515625 -0.140625,-0.171875 -0.46875,-0.375 -1.046875,-0.375 C 2.46875,-4.40625 2,-3.984375 1.71875,-3.359375 V -4.40625 L 0.3125,-4.296875 v 0.3125 c 0.703125,0 0.78125,0.0625 0.78125,0.5625 z m 0,0"
           id="path39" />
      </g>
      <g
         id="use190"
         transform="translate(243.632,418.29321)">
        <path
           d="m 3.296875,2.390625 c 0,-0.03125 0,-0.046875 -0.171875,-0.21875 C 1.890625,0.921875 1.5625,-0.96875 1.5625,-2.5 c 0,-1.734375 0.375,-3.46875 1.609375,-4.703125 0.125,-0.125 0.125,-0.140625 0.125,-0.171875 0,-0.078125 -0.03125,-0.109375 -0.09375,-0.109375 -0.109375,0 -1,0.6875 -1.59375,1.953125 -0.5,1.09375 -0.625,2.203125 -0.625,3.03125 0,0.78125 0.109375,1.984375 0.65625,3.125 C 2.25,1.84375 3.09375,2.5 3.203125,2.5 c 0.0625,0 0.09375,-0.03125 0.09375,-0.109375 z m 0,0"
           id="path58" />
      </g>
    </g>
    <g
       fill="#000000"
       fill-opacity="1"
       id="g191"
       transform="matrix(0.35277777,0,0,0.35277777,-63.538544,-175.28524)">
      <g
         id="use191"
         transform="translate(247.5002,418.29321)">
        <path
           d="m 2.625,-0.8125 c 0.09375,0.625 0.4375,0.921875 0.9375,0.921875 0.59375,0 1.125,-0.375 1.53125,-0.921875 0.75,-1.046875 0.9375,-2.546875 0.9375,-2.890625 0,-0.703125 -0.375,-0.703125 -0.421875,-0.703125 -0.25,0 -0.5,0.265625 -0.5,0.484375 0,0.125 0.046875,0.1875 0.140625,0.265625 0.328125,0.328125 0.359375,0.640625 0.359375,0.859375 0,0.859375 -0.859375,2.1875 -1.90625,2.1875 -0.078125,0 -0.359375,0 -0.546875,-0.234375 C 3.046875,-1 2.953125,-1.1875 2.953125,-1.390625 c 0,-0.03125 0,-0.046875 0.0625,-0.15625 0.1875,-0.453125 0.328125,-1 0.328125,-1.125 0,-0.125 -0.0625,-0.234375 -0.203125,-0.234375 -0.109375,0 -0.203125,0.09375 -0.28125,0.25 -0.015625,0.046875 -0.140625,0.5 -0.203125,1.015625 C 2.625,-1.46875 2.625,-1.453125 2.5625,-1.375 2.125,-0.765625 1.671875,-0.609375 1.328125,-0.609375 c -0.65625,0 -0.875,-0.546875 -0.875,-1.140625 0,-0.75 0.359375,-1.5625 0.828125,-2.234375 0.109375,-0.140625 0.109375,-0.15625 0.109375,-0.1875 0,-0.078125 -0.0625,-0.125 -0.125,-0.125 -0.15625,0 -0.625,0.875 -0.75,1.203125 -0.375,0.875 -0.390625,1.703125 -0.390625,1.78125 0,0.796875 0.296875,1.421875 1.0625,1.421875 0.640625,0 1.125,-0.453125 1.4375,-0.921875 z m 0,0"
           id="path38" />
      </g>
    </g>
    <g
       fill="#000000"
       fill-opacity="1"
       id="g192"
       transform="matrix(0.35277777,0,0,0.35277777,-63.538544,-175.28524)">
      <g
         id="use192"
         transform="translate(253.7014,419.78729)">
        <path
           d="m 3.046875,-2.671875 c -0.25,0.046875 -0.34375,0.234375 -0.34375,0.390625 0,0.1875 0.140625,0.265625 0.265625,0.265625 0.15625,0 0.390625,-0.109375 0.390625,-0.453125 0,-0.46875 -0.53125,-0.609375 -0.90625,-0.609375 -1.046875,0 -2.015625,0.96875 -2.015625,1.9375 0,0.59375 0.40625,1.203125 1.28125,1.203125 1.1875,0 1.734375,-0.6875 1.734375,-0.78125 0,-0.046875 -0.0625,-0.125 -0.125,-0.125 -0.03125,0 -0.046875,0.015625 -0.109375,0.078125 C 2.671875,-0.125 1.859375,-0.125 1.734375,-0.125 c -0.5,0 -0.71875,-0.34375 -0.71875,-0.78125 0,-0.1875 0.09375,-0.953125 0.453125,-1.4375 0.265625,-0.34375 0.625,-0.53125 0.984375,-0.53125 0.09375,0 0.421875,0.015625 0.59375,0.203125 z m 0,0"
           id="path14" />
      </g>
    </g>
    <g
       fill="#000000"
       fill-opacity="1"
       id="g193"
       transform="matrix(0.35277777,0,0,0.35277777,-63.538544,-175.28524)">
      <g
         id="use193"
         transform="translate(257.76929,418.29321)">
        <path
           d="m 2.046875,-3.984375 h 0.9375 c 0.203125,0 0.3125,0 0.3125,-0.203125 0,-0.109375 -0.109375,-0.109375 -0.28125,-0.109375 h -0.875 C 2.5,-5.71875 2.546875,-5.90625 2.546875,-5.96875 c 0,-0.171875 -0.125,-0.265625 -0.296875,-0.265625 -0.03125,0 -0.3125,0 -0.390625,0.359375 L 1.46875,-4.296875 h -0.9375 c -0.203125,0 -0.296875,0 -0.296875,0.1875 0,0.125 0.078125,0.125 0.28125,0.125 h 0.875 C 0.671875,-1.15625 0.625,-0.984375 0.625,-0.8125 0.625,-0.265625 1,0.109375 1.546875,0.109375 2.5625,0.109375 3.125,-1.34375 3.125,-1.421875 3.125,-1.53125 3.046875,-1.53125 3.015625,-1.53125 2.921875,-1.53125 2.90625,-1.5 2.859375,-1.390625 2.4375,-0.34375 1.90625,-0.109375 1.5625,-0.109375 c -0.203125,0 -0.3125,-0.125 -0.3125,-0.453125 0,-0.25 0.03125,-0.3125 0.0625,-0.484375 z m 0,0"
           id="path24" />
      </g>
    </g>
    <g
       fill="#000000"
       fill-opacity="1"
       id="g194"
       transform="matrix(0.35277777,0,0,0.35277777,-63.538544,-175.28524)">
      <g
         id="use194"
         transform="translate(261.36581,418.29321)">
        <path
           d="m 2.875,-2.5 c 0,-0.765625 -0.109375,-1.96875 -0.65625,-3.109375 -0.59375,-1.21875 -1.453125,-1.875 -1.546875,-1.875 -0.0625,0 -0.109375,0.046875 -0.109375,0.109375 0,0.03125 0,0.046875 0.1875,0.234375 0.984375,0.984375 1.546875,2.5625 1.546875,4.640625 0,1.71875 -0.359375,3.46875 -1.59375,4.71875 C 0.5625,2.34375 0.5625,2.359375 0.5625,2.390625 0.5625,2.453125 0.609375,2.5 0.671875,2.5 0.765625,2.5 1.671875,1.8125 2.25,0.546875 2.765625,-0.546875 2.875,-1.65625 2.875,-2.5 Z m 0,0"
           id="path51" />
      </g>
    </g>
    <g
       fill="#000000"
       fill-opacity="1"
       id="g196"
       transform="matrix(0.35277777,0,0,0.35277777,-63.538544,-175.28524)">
      <g
         id="use196"
         transform="translate(151.70399,438.21899)">
        <path
           d="m -1.5,-3.984375 c 0.6875,1.265625 1.1875,2.59375 1.5,3.96875 0.3125,-1.375 0.8125,-2.703125 1.5,-3.96875 z m 0,0"
           id="path9" />
      </g>
    </g>
    <path
       fill="none"
       stroke-width="0.127008"
       stroke-linecap="round"
       stroke-linejoin="miter"
       stroke="#000000"
       stroke-opacity="1"
       stroke-miterlimit="10"
       d="m 21.604828,-11.910422 c 0,1.9361394 -1.569585,3.5057241 -3.505724,3.5057241 -1.936143,0 -3.505728,-1.5695847 -3.505728,-3.5057241 0,-1.936143 1.569585,-3.504348 3.505728,-3.504348 1.936139,0 3.505724,1.568205 3.505724,3.504348"
       id="path197" />
    <path
       fill="none"
       stroke-width="0.142884"
       stroke-linecap="butt"
       stroke-linejoin="miter"
       stroke="#000000"
       stroke-opacity="1"
       stroke-miterlimit="10"
       d="m 18.10048,-15.424415 v -10.54474"
       id="path198" />
    <path
       fill="none"
       stroke-width="0.127008"
       stroke-linecap="round"
       stroke-linejoin="miter"
       stroke="#000000"
       stroke-opacity="1"
       stroke-miterlimit="10"
       d="m 15.637929,-9.4492508 4.903055,-4.9016752"
       id="path199" />
    <path
       fill="none"
       stroke-width="0.127008"
       stroke-linecap="round"
       stroke-linejoin="miter"
       stroke="#000000"
       stroke-opacity="1"
       stroke-miterlimit="10"
       d="m 15.637929,-14.370217 4.903055,4.9016751"
       id="path200" />
    <g
       fill="#000000"
       fill-opacity="1"
       id="g200"
       transform="matrix(0.35277777,0,0,0.35277777,-63.538544,-175.28524)">
      <g
         id="use200"
         transform="translate(231.399,453.168)">
        <path
           d="m -1.5,-3.984375 c 0.6875,1.265625 1.1875,2.59375 1.5,3.96875 0.3125,-1.375 0.8125,-2.703125 1.5,-3.96875 z m 0,0"
           id="path10" />
      </g>
    </g>
    <g
       fill="#000000"
       fill-opacity="1"
       id="g202"
       transform="matrix(0.35277777,0,0,0.35277777,-63.538544,-175.28524)">
      <g
         id="use202"
         transform="translate(256.311,463.13101)">
        <path
           d="M 9.953125,-0.015625 C 8.5625,-0.3125 7.234375,-0.8125 5.984375,-1.5 v 3 c 1.25,-0.6875 2.578125,-1.1875 3.96875,-1.484375 z m 0,0"
           id="path6" />
      </g>
    </g>
    <g
       fill="#000000"
       fill-opacity="1"
       id="g204"
       transform="matrix(0.35277777,0,0,0.35277777,-63.538544,-175.28524)">
      <g
         id="use204"
         transform="translate(281.21399,458.1449)">
        <path
           d="m 0.875,-0.59375 c -0.03125,0.15625 -0.09375,0.390625 -0.09375,0.4375 0,0.171875 0.140625,0.265625 0.296875,0.265625 0.125,0 0.296875,-0.078125 0.375,-0.28125 C 1.46875,-0.203125 1.796875,-1.5625 1.84375,-1.75 c 0.078125,-0.328125 0.265625,-1.015625 0.3125,-1.296875 0.046875,-0.125 0.328125,-0.59375 0.5625,-0.8125 0.078125,-0.0625 0.375,-0.328125 0.796875,-0.328125 0.265625,0 0.40625,0.125 0.421875,0.125 -0.296875,0.046875 -0.515625,0.28125 -0.515625,0.546875 0,0.15625 0.109375,0.34375 0.375,0.34375 0.265625,0 0.546875,-0.234375 0.546875,-0.59375 0,-0.34375 -0.3125,-0.640625 -0.828125,-0.640625 C 2.875,-4.40625 2.4375,-3.921875 2.25,-3.640625 2.15625,-4.09375 1.796875,-4.40625 1.328125,-4.40625 0.875,-4.40625 0.6875,-4.015625 0.59375,-3.84375 0.421875,-3.5 0.296875,-2.90625 0.296875,-2.875 c 0,0.109375 0.09375,0.109375 0.109375,0.109375 0.109375,0 0.109375,-0.015625 0.171875,-0.234375 0.171875,-0.703125 0.375,-1.1875 0.734375,-1.1875 0.15625,0 0.296875,0.078125 0.296875,0.453125 0,0.21875 -0.03125,0.328125 -0.15625,0.84375 z m 0,0"
           id="path19" />
      </g>
    </g>
    <g
       fill="#000000"
       fill-opacity="1"
       id="g205"
       transform="matrix(0.35277777,0,0,0.35277777,-63.538544,-175.28524)">
      <g
         id="use205"
         transform="translate(285.70499,459.63901)">
        <path
           d="m 3.546875,-2.875 c 0,-0.03125 0.015625,-0.0625 0.015625,-0.09375 0,-0.046875 -0.03125,-0.109375 -0.09375,-0.109375 -0.0625,0 -0.359375,0.234375 -0.5,0.46875 -0.0625,-0.140625 -0.296875,-0.46875 -0.75,-0.46875 -0.890625,0 -1.796875,0.984375 -1.796875,1.984375 0,0.6875 0.453125,1.15625 1.0625,1.15625 0.390625,0 0.71875,-0.25 0.875,-0.375 C 2.34375,-0.296875 2.125,0.578125 2.109375,0.703125 2,1.09375 2,1.09375 1.5625,1.09375 c -0.078125,0 -0.171875,0 -0.171875,0.15625 0,0.046875 0.03125,0.109375 0.09375,0.109375 0.234375,0 0.5,-0.03125 0.734375,-0.03125 0.234375,0 0.53125,0.03125 0.75,0.03125 0.0625,0 0.125,-0.03125 0.125,-0.15625 C 3.09375,1.09375 3,1.09375 2.921875,1.09375 c -0.15625,0 -0.34375,0 -0.34375,-0.078125 0,-0.015625 0,-0.03125 0.03125,-0.15625 z M 2.5,-0.875 C 2.453125,-0.765625 2.453125,-0.75 2.375,-0.640625 2.09375,-0.3125 1.765625,-0.125 1.5,-0.125 c -0.265625,0 -0.515625,-0.1875 -0.515625,-0.671875 0,-0.375 0.203125,-1.140625 0.375,-1.421875 0.3125,-0.5625 0.671875,-0.65625 0.859375,-0.65625 0.484375,0 0.625,0.53125 0.625,0.609375 0,0.03125 -0.015625,0.078125 -0.015625,0.09375 z m 0,0"
           id="path11" />
      </g>
    </g>
    <g
       fill="#000000"
       fill-opacity="1"
       id="g207"
       transform="matrix(0.35277777,0,0,0.35277777,-63.538544,-175.28524)">
      <g
         id="use207"
         transform="translate(290.1058,458.1449)">
        <path
           d="m 3.296875,2.390625 c 0,-0.03125 0,-0.046875 -0.171875,-0.21875 C 1.890625,0.921875 1.5625,-0.96875 1.5625,-2.5 c 0,-1.734375 0.375,-3.46875 1.609375,-4.703125 0.125,-0.125 0.125,-0.140625 0.125,-0.171875 0,-0.078125 -0.03125,-0.109375 -0.09375,-0.109375 -0.109375,0 -1,0.6875 -1.59375,1.953125 -0.5,1.09375 -0.625,2.203125 -0.625,3.03125 0,0.78125 0.109375,1.984375 0.65625,3.125 C 2.25,1.84375 3.09375,2.5 3.203125,2.5 c 0.0625,0 0.09375,-0.03125 0.09375,-0.109375 z m 0,0"
           id="path59" />
      </g>
    </g>
    <g
       fill="#000000"
       fill-opacity="1"
       id="g208"
       transform="matrix(0.35277777,0,0,0.35277777,-63.538544,-175.28524)">
      <g
         id="use208"
         transform="translate(293.9758,458.1449)">
        <path
           d="m 2.046875,-3.984375 h 0.9375 c 0.203125,0 0.3125,0 0.3125,-0.203125 0,-0.109375 -0.109375,-0.109375 -0.28125,-0.109375 h -0.875 C 2.5,-5.71875 2.546875,-5.90625 2.546875,-5.96875 c 0,-0.171875 -0.125,-0.265625 -0.296875,-0.265625 -0.03125,0 -0.3125,0 -0.390625,0.359375 L 1.46875,-4.296875 h -0.9375 c -0.203125,0 -0.296875,0 -0.296875,0.1875 0,0.125 0.078125,0.125 0.28125,0.125 h 0.875 C 0.671875,-1.15625 0.625,-0.984375 0.625,-0.8125 0.625,-0.265625 1,0.109375 1.546875,0.109375 2.5625,0.109375 3.125,-1.34375 3.125,-1.421875 3.125,-1.53125 3.046875,-1.53125 3.015625,-1.53125 2.921875,-1.53125 2.90625,-1.5 2.859375,-1.390625 2.4375,-0.34375 1.90625,-0.109375 1.5625,-0.109375 c -0.203125,0 -0.3125,-0.125 -0.3125,-0.453125 0,-0.25 0.03125,-0.3125 0.0625,-0.484375 z m 0,0"
           id="path35" />
      </g>
    </g>
    <g
       fill="#000000"
       fill-opacity="1"
       id="g209"
       transform="matrix(0.35277777,0,0,0.35277777,-63.538544,-175.28524)">
      <g
         id="use209"
         transform="translate(297.5723,458.1449)">
        <path
           d="m 2.875,-2.5 c 0,-0.765625 -0.109375,-1.96875 -0.65625,-3.109375 -0.59375,-1.21875 -1.453125,-1.875 -1.546875,-1.875 -0.0625,0 -0.109375,0.046875 -0.109375,0.109375 0,0.03125 0,0.046875 0.1875,0.234375 0.984375,0.984375 1.546875,2.5625 1.546875,4.640625 0,1.71875 -0.359375,3.46875 -1.59375,4.71875 C 0.5625,2.34375 0.5625,2.359375 0.5625,2.390625 0.5625,2.453125 0.609375,2.5 0.671875,2.5 0.765625,2.5 1.671875,1.8125 2.25,0.546875 2.765625,-0.546875 2.875,-1.65625 2.875,-2.5 Z m 0,0"
           id="path52" />
      </g>
    </g>
    <g
       fill="#000000"
       fill-opacity="1"
       id="g211"
       transform="matrix(0.35277777,0,0,0.35277777,-63.538544,-175.28524)">
      <g
         id="use211"
         transform="translate(410.733,463.13101)">
        <path
           d="M 9.953125,-0.015625 C 8.5625,-0.3125 7.234375,-0.8125 5.984375,-1.5 v 3 c 1.25,-0.6875 2.578125,-1.1875 3.96875,-1.484375 z m 0,0"
           id="path7" />
      </g>
    </g>
    <g
       fill="#000000"
       fill-opacity="1"
       id="g213"
       transform="matrix(0.35277777,0,0,0.35277777,-63.538544,-175.28524)">
      <g
         id="use213"
         transform="translate(430.65939,463.1311)">
        <path
           d="M 4.359375,-0.0625 C 5.90625,-0.640625 7.375,-2.421875 7.375,-4.34375 c 0,-1.609375 -1.0625,-2.6875 -2.546875,-2.6875 -2.140625,0 -4.34375,2.265625 -4.34375,4.59375 0,1.65625 1.125,2.65625 2.5625,2.65625 0.25,0 0.578125,-0.046875 0.96875,-0.15625 -0.03125,0.625 -0.03125,0.640625 -0.03125,0.78125 0,0.3125 0,1.09375 0.828125,1.09375 1.171875,0 1.65625,-1.828125 1.65625,-1.9375 0,-0.0625 -0.0625,-0.09375 -0.109375,-0.09375 -0.078125,0 -0.09375,0.046875 -0.125,0.109375 C 6,0.71875 5.421875,0.96875 5.078125,0.96875 c -0.46875,0 -0.609375,-0.265625 -0.71875,-1.03125 z m -1.875,-0.078125 c -0.78125,-0.3125 -1.125,-1.078125 -1.125,-1.984375 0,-0.6875 0.265625,-2.109375 1.015625,-3.171875 C 3.109375,-6.3125 4.046875,-6.78125 4.78125,-6.78125 5.765625,-6.78125 6.5,-6 6.5,-4.671875 c 0,1 -0.515625,3.34375 -2.1875,4.265625 -0.046875,-0.34375 -0.140625,-1.0625 -0.875,-1.0625 -0.53125,0 -1.015625,0.484375 -1.015625,1.015625 0,0.1875 0.0625,0.296875 0.0625,0.3125 z M 3.09375,-0.03125 c -0.140625,0 -0.453125,0 -0.453125,-0.421875 0,-0.40625 0.375,-0.796875 0.796875,-0.796875 0.421875,0 0.609375,0.234375 0.609375,0.84375 0,0.140625 -0.015625,0.15625 -0.109375,0.203125 C 3.671875,-0.09375 3.375,-0.03125 3.09375,-0.03125 Z m 0,0"
           id="path15" />
      </g>
    </g>
    <g
       fill="#000000"
       fill-opacity="1"
       id="g214"
       transform="matrix(0.35277777,0,0,0.35277777,-63.538544,-175.28524)">
      <g
         id="use214"
         transform="translate(438.53439,463.1311)">
        <path
           d="m 3.296875,2.390625 c 0,-0.03125 0,-0.046875 -0.171875,-0.21875 C 1.890625,0.921875 1.5625,-0.96875 1.5625,-2.5 c 0,-1.734375 0.375,-3.46875 1.609375,-4.703125 0.125,-0.125 0.125,-0.140625 0.125,-0.171875 0,-0.078125 -0.03125,-0.109375 -0.09375,-0.109375 -0.109375,0 -1,0.6875 -1.59375,1.953125 -0.5,1.09375 -0.625,2.203125 -0.625,3.03125 0,0.78125 0.109375,1.984375 0.65625,3.125 C 2.25,1.84375 3.09375,2.5 3.203125,2.5 c 0.0625,0 0.09375,-0.03125 0.09375,-0.109375 z m 0,0"
           id="path60" />
      </g>
    </g>
    <g
       fill="#000000"
       fill-opacity="1"
       id="g215"
       transform="matrix(0.35277777,0,0,0.35277777,-63.538544,-175.28524)">
      <g
         id="use215"
         transform="translate(442.4043,463.1311)">
        <path
           d="m 2.046875,-3.984375 h 0.9375 c 0.203125,0 0.3125,0 0.3125,-0.203125 0,-0.109375 -0.109375,-0.109375 -0.28125,-0.109375 h -0.875 C 2.5,-5.71875 2.546875,-5.90625 2.546875,-5.96875 c 0,-0.171875 -0.125,-0.265625 -0.296875,-0.265625 -0.03125,0 -0.3125,0 -0.390625,0.359375 L 1.46875,-4.296875 h -0.9375 c -0.203125,0 -0.296875,0 -0.296875,0.1875 0,0.125 0.078125,0.125 0.28125,0.125 h 0.875 C 0.671875,-1.15625 0.625,-0.984375 0.625,-0.8125 0.625,-0.265625 1,0.109375 1.546875,0.109375 2.5625,0.109375 3.125,-1.34375 3.125,-1.421875 3.125,-1.53125 3.046875,-1.53125 3.015625,-1.53125 2.921875,-1.53125 2.90625,-1.5 2.859375,-1.390625 2.4375,-0.34375 1.90625,-0.109375 1.5625,-0.109375 c -0.203125,0 -0.3125,-0.125 -0.3125,-0.453125 0,-0.25 0.03125,-0.3125 0.0625,-0.484375 z m 0,0"
           id="path36" />
      </g>
    </g>
    <g
       fill="#000000"
       fill-opacity="1"
       id="g216"
       transform="matrix(0.35277777,0,0,0.35277777,-63.538544,-175.28524)">
      <g
         id="use216"
         transform="translate(446.0043,463.1311)">
        <path
           d="m 2.875,-2.5 c 0,-0.765625 -0.109375,-1.96875 -0.65625,-3.109375 -0.59375,-1.21875 -1.453125,-1.875 -1.546875,-1.875 -0.0625,0 -0.109375,0.046875 -0.109375,0.109375 0,0.03125 0,0.046875 0.1875,0.234375 0.984375,0.984375 1.546875,2.5625 1.546875,4.640625 0,1.71875 -0.359375,3.46875 -1.59375,4.71875 C 0.5625,2.34375 0.5625,2.359375 0.5625,2.390625 0.5625,2.453125 0.609375,2.5 0.671875,2.5 0.765625,2.5 1.671875,1.8125 2.25,0.546875 2.765625,-0.546875 2.875,-1.65625 2.875,-2.5 Z m 0,0"
           id="path53" />
      </g>
    </g>
    <g
       fill="#000000"
       fill-opacity="1"
       id="g217"
       transform="matrix(0.35277777,0,0,0.35277777,-63.538544,-175.28524)">
      <g
         id="use217"
         transform="translate(321.27301,466.53299)">
        <path
           d="m 5.796875,-2.578125 h -0.25 c -0.109375,1.015625 -0.25,2.265625 -2,2.265625 h -0.8125 C 2.265625,-0.3125 2.25,-0.375 2.25,-0.703125 v -5.3125 C 2.25,-6.359375 2.25,-6.5 3.1875,-6.5 H 3.515625 V -6.8125 C 3.15625,-6.78125 2.25,-6.78125 1.84375,-6.78125 c -0.390625,0 -1.171875,0 -1.515625,-0.03125 V -6.5 H 0.5625 c 0.765625,0 0.796875,0.109375 0.796875,0.46875 v 5.25 c 0,0.359375 -0.03125,0.46875 -0.796875,0.46875 H 0.328125 V 0 h 5.1875 z m 0,0"
           id="path46" />
      </g>
    </g>
    <g
       fill="#000000"
       fill-opacity="1"
       id="g219"
       transform="matrix(0.35277777,0,0,0.35277777,-63.538544,-175.28524)">
      <g
         id="use218"
         transform="translate(327.50101,466.53299)">
        <path
           d="m 2.265625,-3.15625 h 1.6875 c 1.1875,0 2.265625,-0.796875 2.265625,-1.796875 C 6.21875,-5.9375 5.234375,-6.8125 3.875,-6.8125 H 0.34375 V -6.5 h 0.25 c 0.765625,0 0.78125,0.109375 0.78125,0.46875 v 5.25 c 0,0.359375 -0.015625,0.46875 -0.78125,0.46875 h -0.25 V 0 c 0.359375,-0.03125 1.09375,-0.03125 1.46875,-0.03125 0.375,0 1.125,0 1.484375,0.03125 v -0.3125 h -0.25 c -0.765625,0 -0.78125,-0.109375 -0.78125,-0.46875 z m -0.03125,-0.25 v -2.6875 C 2.234375,-6.4375 2.25,-6.5 2.71875,-6.5 h 0.890625 c 1.578125,0 1.578125,1.0625 1.578125,1.546875 0,0.46875 0,1.546875 -1.578125,1.546875 z m 0,0"
           id="path44" />
      </g>
      <g
         id="use219"
         transform="translate(334.28552,466.53299)">
        <path
           d="m 5.796875,-6.78125 h -5.46875 v 0.3125 H 0.5625 c 0.765625,0 0.796875,0.109375 0.796875,0.46875 v 5.21875 c 0,0.359375 -0.03125,0.46875 -0.796875,0.46875 H 0.328125 V 0 c 0.34375,-0.03125 1.125,-0.03125 1.515625,-0.03125 0.40625,0 1.3125,0 1.671875,0.03125 V -0.3125 H 3.1875 C 2.25,-0.3125 2.25,-0.4375 2.25,-0.78125 v -2.453125 h 0.84375 c 0.96875,0 1.0625,0.3125 1.0625,1.15625 h 0.25 V -4.71875 h -0.25 c 0,0.84375 -0.09375,1.171875 -1.0625,1.171875 H 2.25 v -2.53125 c 0,-0.328125 0.015625,-0.390625 0.484375,-0.390625 h 1.1875 c 1.5,0 1.75,0.5625 1.90625,1.9375 h 0.25 z m 0,0"
           id="path42" />
      </g>
    </g>
    <path
       style="font-size:4.24379px;line-height:1.25;font-family:'Fira Sans';-inkscape-font-specification:'Fira Sans';letter-spacing:0px;word-spacing:0px;stroke-width:0.264583"
       d="m 16.206031,-28.730858 h 1.200993 v 0.331016 h -1.200993 z"
       id="text1"
       aria-label="-" />
  </g>
</svg>
