<?xml version="1.0" encoding="UTF-8" standalone="no"?>
<svg
   version="1.0"
   width="870"
   height="755"
   id="svg15"
   sodipodi:docname="Oqpsk_phase_plot.svg"
   inkscape:version="1.3.2 (091e20ef0f, 2023-11-25, custom)"
   xmlns:inkscape="http://www.inkscape.org/namespaces/inkscape"
   xmlns:sodipodi="http://sodipodi.sourceforge.net/DTD/sodipodi-0.dtd"
   xmlns="http://www.w3.org/2000/svg"
   xmlns:svg="http://www.w3.org/2000/svg">
  <sodipodi:namedview
     id="namedview15"
     pagecolor="#ffffff"
     bordercolor="#999999"
     borderopacity="1"
     inkscape:showpageshadow="0"
     inkscape:pageopacity="0"
     inkscape:pagecheckerboard="0"
     inkscape:deskcolor="#d1d1d1"
     inkscape:zoom="5.0013245"
     inkscape:cx="62.083554"
     inkscape:cy="465.57667"
     inkscape:window-width="1920"
     inkscape:window-height="1035"
     inkscape:window-x="0"
     inkscape:window-y="0"
     inkscape:window-maximized="0"
     inkscape:current-layer="svg15" />
  <defs
     id="defs9">
    <!-- Arrow marker from Inkscape -->
    <marker
       refX="0"
       refY="0"
       orient="auto"
       id="Arrow2Mend"
       style="overflow:visible">
      <path
         d="M 8.7185878,4.0337352 L -2.2072895,0.016013256 L 8.7185884,-4.0017078 C 6.97309,-1.6296469 6.9831476,1.6157441 8.7185878,4.0337352 z"
         transform="scale(-0.8,-0.8)"
         style="stroke-width:0.625;stroke-linejoin:round"
         id="path1" />
    </marker>
    <symbol
       id="graphbg">
      <!-- Grid -->
      <g
         stroke="#bbb"
         stroke-width="2"
         fill="none"
         id="g3">
        <path
           d="M0,135H700 M0,45H700 M0,-45H700 M0,-135H700"
           id="path2" />
        <path
           d="M100,150V-150 M200,150V-150 M300,150V-150 M400,150V-150 M500,150V-150 M600,150V-150 M700,150V-150 "
           id="path3" />
      </g>
      <!-- Axes -->
      <g
         stroke="#000"
         stroke-width="3"
         fill="none"
         id="g5">
        <path
           d="M-40,0 H740"
           marker-end="url(#Arrow2Mend)"
           id="path4" />
        <path
           d="M0,150 V-150"
           marker-end="url(#Arrow2Mend)"
           id="path5" />
      </g>
      <!-- Axis labels -->
      <g
         font-family="Bitstream Vera Sans"
         font-size="24px"
         text-align="end"
         text-anchor="end"
         id="g9">
        <text
           x="-15"
           y="-128"
           id="text5">135°</text>
        <text
           x="-15"
           y="-38"
           id="text6">45°</text>
        <text
           x="-15"
           y="52"
           id="text7">−45°</text>
        <text
           x="-15"
           y="142"
           id="text8">−135°</text>
        <text
           x="740"
           y="25"
           font-style="italic"
           text-align="start"
           text-anchor="start"
           id="text9">t</text>
      </g>
    </symbol>
  </defs>
  <!-- Headings -->
  <text
     x="100"
     y="40"
     id="text10"
     style="font-size:36px;font-family:'Bitstream Vera Sans';text-align:start;text-anchor:start">QPSK</text>
  <text
     x="100"
     y="425"
     id="text11"
     style="font-size:36px;font-family:'Bitstream Vera Sans';text-align:start;text-anchor:start">OQPSK</text>
  <path
     d="M 100,345 H 800 M 100,255 H 800 M 100,165 H 800 M 100,75 h 700"
     id="path31"
     style="fill:none;stroke:#bbbbbb;stroke-width:2" />
  <path
     d="M 200,360 V 60 M 300,360 V 60 M 400,360 V 60 M 500,360 V 60 M 600,360 V 60 M 700,360 V 60 M 800,360 V 60"
     id="path32"
     style="fill:none;stroke:#bbbbbb;stroke-width:2" />
  <path
     d="M 60,210 H 840"
     marker-end="url(#Arrow2Mend)"
     id="path33"
     style="fill:none;stroke:#000000;stroke-width:3" />
  <path
     d="M 100,360 V 60"
     marker-end="url(#Arrow2Mend)"
     id="path34"
     style="fill:none;stroke:#000000;stroke-width:3" />
  <path
     d="m 30.167969,80.00781 h 3.867187 V 66.66016 l -4.207031,0.84375 v -2.15625 l 4.183594,-0.84375 h 2.367187 v 15.5039 h 3.867188 V 82 H 30.167969 Z m 22.03125,-7.4414 q 1.699219,0.36328 2.648437,1.51172 0.960938,1.14843 0.960938,2.83593 0,2.58985 -1.78125,4.00782 -1.78125,1.41796 -5.0625,1.41796 -1.101563,0 -2.273438,-0.22265 -1.160156,-0.21094 -2.402343,-0.64453 V 79.1875 q 0.984375,0.57422 2.15625,0.86719 1.171875,0.29297 2.449218,0.29297 2.226563,0 3.386719,-0.87891 1.171875,-0.87891 1.171875,-2.55469 0,-1.54687 -1.089844,-2.41406 -1.078125,-0.87891 -3.011718,-0.87891 H 47.3125 v -1.94531 h 2.132813 q 1.746093,0 2.671875,-0.6914 0.925781,-0.70313 0.925781,-2.01563 0,-1.34766 -0.960938,-2.0625 -0.949218,-0.72656 -2.730468,-0.72656 -0.972657,0 -2.085938,0.21094 -1.113281,0.21093 -2.449219,0.65625 V 64.9375 q 1.347657,-0.375 2.519532,-0.5625 1.183593,-0.1875 2.226562,-0.1875 2.695313,0 4.265625,1.23047 1.570313,1.21875 1.570313,3.30469 0,1.45312 -0.832032,2.46093 -0.832031,0.9961 -2.367187,1.38282 z m 8.121094,-8.0625 h 9.292968 v 1.99218 h -7.125 v 4.28907 q 0.515625,-0.17578 1.03125,-0.25782 0.515625,-0.0937 1.03125,-0.0937 2.929688,0 4.640625,1.60547 1.710938,1.60547 1.710938,4.34766 0,2.82422 -1.757813,4.39453 -1.757812,1.55859 -4.957031,1.55859 -1.101562,0 -2.25,-0.1875 -1.136719,-0.1875 -2.355469,-0.5625 v -2.3789 q 1.054688,0.57422 2.179688,0.85547 1.125,0.28125 2.378906,0.28125 2.027344,0 3.210938,-1.06641 1.183593,-1.06641 1.183593,-2.89453 0,-1.82813 -1.183593,-2.89453 -1.183594,-1.06641 -3.210938,-1.06641 -0.949219,0 -1.898437,0.21094 -0.9375,0.21094 -1.921875,0.65625 z M 79,65.69922 q -0.9375,0 -1.582031,0.65625 Q 76.773438,67 76.773438,67.9375 q 0,0.92578 0.644531,1.57031 Q 78.0625,70.14063 79,70.14063 q 0.9375,0 1.582031,-0.63282 0.644532,-0.64453 0.644532,-1.57031 0,-0.92578 -0.65625,-1.58203 Q 79.925781,65.69922 79,65.69922 Z m 0,-1.51172 q 0.75,0 1.441406,0.29297 0.691407,0.28125 1.195313,0.82031 0.539062,0.52735 0.808594,1.19531 0.269531,0.66797 0.269531,1.44141 0,1.54688 -1.089844,2.625 -1.078125,1.06641 -2.648437,1.06641 -1.582032,0 -2.636719,-1.05469 -1.054688,-1.05469 -1.054688,-2.63672 0,-1.57031 1.078125,-2.66016 Q 77.441406,64.1875 79,64.1875 Z"
     id="text34"
     aria-label="135°"
     style="font-size:24px;font-family:'Bitstream Vera Sans';text-align:end;text-anchor:end" />
  <path
     d="m 51.53125,156.56641 -5.976562,9.33984 h 5.976562 z m -0.621094,-2.0625 h 2.976563 v 11.40234 h 2.496094 V 167.875 H 53.886719 V 172 H 51.53125 v -4.125 h -7.898437 v -2.28516 z m 9.410157,0 h 9.292968 v 1.99218 h -7.125 v 4.28907 q 0.515625,-0.17579 1.03125,-0.25782 0.515625,-0.0937 1.03125,-0.0937 2.929688,0 4.640625,1.60547 1.710938,1.60547 1.710938,4.34766 0,2.82422 -1.757813,4.39453 -1.757812,1.55859 -4.957031,1.55859 -1.101562,0 -2.25,-0.1875 -1.136719,-0.1875 -2.355469,-0.5625 v -2.3789 q 1.054688,0.57422 2.179688,0.85547 1.125,0.28125 2.378906,0.28125 2.027344,0 3.210938,-1.06641 1.183593,-1.06641 1.183593,-2.89453 0,-1.82813 -1.183593,-2.89453 -1.183594,-1.06641 -3.210938,-1.06641 -0.949219,0 -1.898437,0.21094 -0.9375,0.21094 -1.921875,0.65625 z M 79,155.69922 q -0.9375,0 -1.582031,0.65625 -0.644531,0.64453 -0.644531,1.58203 0,0.92578 0.644531,1.57031 0.644531,0.63281 1.582031,0.63281 0.9375,0 1.582031,-0.63281 0.644532,-0.64453 0.644532,-1.57031 0,-0.92578 -0.65625,-1.58203 Q 79.925781,155.69922 79,155.69922 Z m 0,-1.51172 q 0.75,0 1.441406,0.29297 0.691407,0.28125 1.195313,0.82031 0.539062,0.52734 0.808594,1.19531 0.269531,0.66797 0.269531,1.44141 0,1.54687 -1.089844,2.625 -1.078125,1.06641 -2.648437,1.06641 -1.582032,0 -2.636719,-1.05469 -1.054688,-1.05469 -1.054688,-2.63672 0,-1.57031 1.078125,-2.66016 Q 77.441406,154.1875 79,154.1875 Z"
     id="text35"
     aria-label="45°"
     style="font-size:24px;font-family:'Bitstream Vera Sans';text-align:end;text-anchor:end" />
  <path
     d="m 24.894531,253.48047 h 15.023438 v 1.99219 H 24.894531 Z m 26.636719,-6.91406 -5.976562,9.33984 h 5.976562 z m -0.621094,-2.0625 h 2.976563 v 11.40234 h 2.496094 V 257.875 H 53.886719 V 262 H 51.53125 v -4.125 h -7.898437 v -2.28516 z m 9.410157,0 h 9.292968 v 1.99218 h -7.125 v 4.28907 q 0.515625,-0.17579 1.03125,-0.25782 0.515625,-0.0937 1.03125,-0.0937 2.929688,0 4.640625,1.60547 1.710938,1.60547 1.710938,4.34766 0,2.82422 -1.757813,4.39453 -1.757812,1.55859 -4.957031,1.55859 -1.101562,0 -2.25,-0.1875 -1.136719,-0.1875 -2.355469,-0.5625 v -2.3789 q 1.054688,0.57422 2.179688,0.85547 1.125,0.28125 2.378906,0.28125 2.027344,0 3.210938,-1.06641 1.183593,-1.06641 1.183593,-2.89453 0,-1.82813 -1.183593,-2.89453 -1.183594,-1.06641 -3.210938,-1.06641 -0.949219,0 -1.898437,0.21094 -0.9375,0.21094 -1.921875,0.65625 z M 79,245.69922 q -0.9375,0 -1.582031,0.65625 -0.644531,0.64453 -0.644531,1.58203 0,0.92578 0.644531,1.57031 0.644531,0.63281 1.582031,0.63281 0.9375,0 1.582031,-0.63281 0.644532,-0.64453 0.644532,-1.57031 0,-0.92578 -0.65625,-1.58203 Q 79.925781,245.69922 79,245.69922 Z m 0,-1.51172 q 0.75,0 1.441406,0.29297 0.691407,0.28125 1.195313,0.82031 0.539062,0.52734 0.808594,1.19531 0.269531,0.66797 0.269531,1.44141 0,1.54687 -1.089844,2.625 -1.078125,1.06641 -2.648437,1.06641 -1.582032,0 -2.636719,-1.05469 -1.054688,-1.05469 -1.054688,-2.63672 0,-1.57031 1.078125,-2.66016 Q 77.441406,244.1875 79,244.1875 Z"
     id="text36"
     aria-label="−45°"
     style="font-size:24px;font-family:'Bitstream Vera Sans';text-align:end;text-anchor:end" />
  <path
     d="m 9.625,343.48047 h 15.023438 v 1.99219 H 9.625 Z m 20.542969,6.52734 h 3.867187 v -13.34765 l -4.207031,0.84375 v -2.15625 l 4.183594,-0.84375 h 2.367187 v 15.5039 h 3.867188 V 352 H 30.167969 Z m 22.03125,-7.4414 q 1.699219,0.36328 2.648437,1.51171 0.960938,1.14844 0.960938,2.83594 0,2.58985 -1.78125,4.00781 -1.78125,1.41797 -5.0625,1.41797 -1.101563,0 -2.273438,-0.22265 -1.160156,-0.21094 -2.402343,-0.64453 v -2.28516 q 0.984375,0.57422 2.15625,0.86719 1.171875,0.29297 2.449218,0.29297 2.226563,0 3.386719,-0.87891 1.171875,-0.87891 1.171875,-2.55469 0,-1.54687 -1.089844,-2.41406 -1.078125,-0.87891 -3.011718,-0.87891 H 47.3125 v -1.94531 h 2.132813 q 1.746093,0 2.671875,-0.69141 0.925781,-0.70312 0.925781,-2.01562 0,-1.34766 -0.960938,-2.0625 -0.949218,-0.72656 -2.730468,-0.72656 -0.972657,0 -2.085938,0.21094 -1.113281,0.21093 -2.449219,0.65625 v -2.10938 q 1.347657,-0.375 2.519532,-0.5625 1.183593,-0.1875 2.226562,-0.1875 2.695313,0 4.265625,1.23047 1.570313,1.21875 1.570313,3.30469 0,1.45312 -0.832032,2.46093 -0.832031,0.9961 -2.367187,1.38282 z m 8.121094,-8.0625 h 9.292968 v 1.99218 h -7.125 v 4.28907 q 0.515625,-0.17579 1.03125,-0.25782 0.515625,-0.0937 1.03125,-0.0937 2.929688,0 4.640625,1.60547 1.710938,1.60547 1.710938,4.34766 0,2.82422 -1.757813,4.39453 -1.757812,1.55859 -4.957031,1.55859 -1.101562,0 -2.25,-0.1875 -1.136719,-0.1875 -2.355469,-0.5625 v -2.3789 q 1.054688,0.57422 2.179688,0.85547 1.125,0.28125 2.378906,0.28125 2.027344,0 3.210938,-1.06641 1.183593,-1.06641 1.183593,-2.89453 0,-1.82813 -1.183593,-2.89453 -1.183594,-1.06641 -3.210938,-1.06641 -0.949219,0 -1.898437,0.21094 -0.9375,0.21094 -1.921875,0.65625 z M 79,335.69922 q -0.9375,0 -1.582031,0.65625 -0.644531,0.64453 -0.644531,1.58203 0,0.92578 0.644531,1.57031 0.644531,0.63281 1.582031,0.63281 0.9375,0 1.582031,-0.63281 0.644532,-0.64453 0.644532,-1.57031 0,-0.92578 -0.65625,-1.58203 Q 79.925781,335.69922 79,335.69922 Z m 0,-1.51172 q 0.75,0 1.441406,0.29297 0.691407,0.28125 1.195313,0.82031 0.539062,0.52735 0.808594,1.19531 0.269531,0.66797 0.269531,1.44141 0,1.54687 -1.089844,2.625 -1.078125,1.06641 -2.648437,1.06641 -1.582032,0 -2.636719,-1.05469 -1.054688,-1.05469 -1.054688,-2.63672 0,-1.57031 1.078125,-2.66016 Q 77.441406,334.1875 79,334.1875 Z"
     id="text37"
     aria-label="−135°"
     style="font-size:24px;font-family:'Bitstream Vera Sans';text-align:end;text-anchor:end" />
  <path
     d="m 850.14844,221.875 -0.32813,1.67578 h -4.30078 l -1.39453,7.125 q -0.0703,0.39844 -0.10547,0.66797 -0.0352,0.26953 -0.0352,0.42187 0,0.75 0.44532,1.08985 0.45703,0.33984 1.45312,0.33984 h 2.17969 L 847.69922,235 h -2.0625 q -1.92188,0 -2.8711,-0.75 -0.9375,-0.75 -0.9375,-2.27344 0,-0.26953 0.0352,-0.58594 0.0352,-0.32812 0.10547,-0.71484 l 1.39453,-7.125 h -1.82812 l 0.3398,-1.67578 h 1.79297 l 0.72656,-3.72656 h 2.15625 l -0.71484,3.72656 z"
     id="text38"
     style="font-style:italic;font-size:24px;font-family:'Bitstream Vera Sans';text-align:start;text-anchor:start"
     aria-label="t" />
  <path
     d="M 100,165 H 200 V 75 h 100 v 180 h 100 v -90 h 100 v 90 h 100 v 90 H 700 V 165 h 100"
     id="path11"
     style="fill:none;stroke:#ff0000;stroke-width:4" />
  <path
     d="M 100,730 H 800 M 100,640 H 800 M 100,550 H 800 M 100,460 h 700"
     id="path39"
     style="fill:none;stroke:#bbbbbb;stroke-width:2" />
  <path
     d="M 200,745 V 445 M 300,745 V 445 M 400,745 V 445 M 500,745 V 445 M 600,745 V 445 M 700,745 V 445 M 800,745 V 445"
     id="path40"
     style="fill:none;stroke:#bbbbbb;stroke-width:2" />
  <path
     d="M 60,595 H 840"
     marker-end="url(#Arrow2Mend)"
     id="path41"
     style="fill:none;stroke:#000000;stroke-width:3" />
  <path
     d="M 100,745 V 445"
     marker-end="url(#Arrow2Mend)"
     id="path42"
     style="fill:none;stroke:#000000;stroke-width:3" />
  <path
     d="m 30.167969,465.00781 h 3.867187 v -13.34765 l -4.207031,0.84375 v -2.15625 l 4.183594,-0.84375 h 2.367187 v 15.5039 h 3.867188 V 467 H 30.167969 Z m 22.03125,-7.4414 q 1.699219,0.36328 2.648437,1.51172 0.960938,1.14843 0.960938,2.83593 0,2.58985 -1.78125,4.00782 -1.78125,1.41796 -5.0625,1.41796 -1.101563,0 -2.273438,-0.22265 -1.160156,-0.21094 -2.402343,-0.64453 v -2.28516 q 0.984375,0.57422 2.15625,0.86719 1.171875,0.29297 2.449218,0.29297 2.226563,0 3.386719,-0.87891 1.171875,-0.87891 1.171875,-2.55469 0,-1.54687 -1.089844,-2.41406 -1.078125,-0.87891 -3.011718,-0.87891 H 47.3125 v -1.94531 h 2.132813 q 1.746093,0 2.671875,-0.6914 0.925781,-0.70313 0.925781,-2.01563 0,-1.34766 -0.960938,-2.0625 -0.949218,-0.72656 -2.730468,-0.72656 -0.972657,0 -2.085938,0.21094 -1.113281,0.21093 -2.449219,0.65625 v -2.10938 q 1.347657,-0.375 2.519532,-0.5625 1.183593,-0.1875 2.226562,-0.1875 2.695313,0 4.265625,1.23047 1.570313,1.21875 1.570313,3.30469 0,1.45312 -0.832032,2.46093 -0.832031,0.9961 -2.367187,1.38282 z m 8.121094,-8.0625 h 9.292968 v 1.99218 h -7.125 v 4.28907 q 0.515625,-0.17578 1.03125,-0.25782 0.515625,-0.0937 1.03125,-0.0937 2.929688,0 4.640625,1.60547 1.710938,1.60547 1.710938,4.34766 0,2.82422 -1.757813,4.39453 -1.757812,1.55859 -4.957031,1.55859 -1.101562,0 -2.25,-0.1875 -1.136719,-0.1875 -2.355469,-0.5625 v -2.3789 q 1.054688,0.57422 2.179688,0.85547 1.125,0.28125 2.378906,0.28125 2.027344,0 3.210938,-1.06641 1.183593,-1.06641 1.183593,-2.89453 0,-1.82813 -1.183593,-2.89453 -1.183594,-1.06641 -3.210938,-1.06641 -0.949219,0 -1.898437,0.21094 -0.9375,0.21094 -1.921875,0.65625 z M 79,450.69922 q -0.9375,0 -1.582031,0.65625 -0.644531,0.64453 -0.644531,1.58203 0,0.92578 0.644531,1.57031 0.644531,0.63282 1.582031,0.63282 0.9375,0 1.582031,-0.63282 0.644532,-0.64453 0.644532,-1.57031 0,-0.92578 -0.65625,-1.58203 Q 79.925781,450.69922 79,450.69922 Z m 0,-1.51172 q 0.75,0 1.441406,0.29297 0.691407,0.28125 1.195313,0.82031 0.539062,0.52735 0.808594,1.19531 0.269531,0.66797 0.269531,1.44141 0,1.54688 -1.089844,2.625 -1.078125,1.06641 -2.648437,1.06641 -1.582032,0 -2.636719,-1.05469 -1.054688,-1.05469 -1.054688,-2.63672 0,-1.57031 1.078125,-2.66016 Q 77.441406,449.1875 79,449.1875 Z"
     id="text42"
     aria-label="135°"
     style="font-size:24px;font-family:'Bitstream Vera Sans';text-align:end;text-anchor:end" />
  <path
     d="m 51.53125,541.56641 -5.976562,9.33984 h 5.976562 z m -0.621094,-2.0625 h 2.976563 v 11.40234 h 2.496094 V 552.875 H 53.886719 V 557 H 51.53125 v -4.125 h -7.898437 v -2.28516 z m 9.410157,0 h 9.292968 v 1.99218 h -7.125 v 4.28907 q 0.515625,-0.17579 1.03125,-0.25782 0.515625,-0.0937 1.03125,-0.0937 2.929688,0 4.640625,1.60547 1.710938,1.60547 1.710938,4.34766 0,2.82422 -1.757813,4.39453 -1.757812,1.55859 -4.957031,1.55859 -1.101562,0 -2.25,-0.1875 -1.136719,-0.1875 -2.355469,-0.5625 v -2.3789 q 1.054688,0.57422 2.179688,0.85547 1.125,0.28125 2.378906,0.28125 2.027344,0 3.210938,-1.06641 1.183593,-1.06641 1.183593,-2.89453 0,-1.82813 -1.183593,-2.89453 -1.183594,-1.06641 -3.210938,-1.06641 -0.949219,0 -1.898437,0.21094 -0.9375,0.21094 -1.921875,0.65625 z M 79,540.69922 q -0.9375,0 -1.582031,0.65625 -0.644531,0.64453 -0.644531,1.58203 0,0.92578 0.644531,1.57031 0.644531,0.63281 1.582031,0.63281 0.9375,0 1.582031,-0.63281 0.644532,-0.64453 0.644532,-1.57031 0,-0.92578 -0.65625,-1.58203 Q 79.925781,540.69922 79,540.69922 Z m 0,-1.51172 q 0.75,0 1.441406,0.29297 0.691407,0.28125 1.195313,0.82031 0.539062,0.52734 0.808594,1.19531 0.269531,0.66797 0.269531,1.44141 0,1.54687 -1.089844,2.625 -1.078125,1.06641 -2.648437,1.06641 -1.582032,0 -2.636719,-1.05469 -1.054688,-1.05469 -1.054688,-2.63672 0,-1.57031 1.078125,-2.66016 Q 77.441406,539.1875 79,539.1875 Z"
     id="text43"
     aria-label="45°"
     style="font-size:24px;font-family:'Bitstream Vera Sans';text-align:end;text-anchor:end" />
  <path
     d="m 24.894531,638.48047 h 15.023438 v 1.99219 H 24.894531 Z m 26.636719,-6.91406 -5.976562,9.33984 h 5.976562 z m -0.621094,-2.0625 h 2.976563 v 11.40234 h 2.496094 V 642.875 H 53.886719 V 647 H 51.53125 v -4.125 h -7.898437 v -2.28516 z m 9.410157,0 h 9.292968 v 1.99218 h -7.125 v 4.28907 q 0.515625,-0.17579 1.03125,-0.25782 0.515625,-0.0937 1.03125,-0.0937 2.929688,0 4.640625,1.60547 1.710938,1.60547 1.710938,4.34766 0,2.82422 -1.757813,4.39453 -1.757812,1.55859 -4.957031,1.55859 -1.101562,0 -2.25,-0.1875 -1.136719,-0.1875 -2.355469,-0.5625 v -2.3789 q 1.054688,0.57422 2.179688,0.85547 1.125,0.28125 2.378906,0.28125 2.027344,0 3.210938,-1.06641 1.183593,-1.06641 1.183593,-2.89453 0,-1.82813 -1.183593,-2.89453 -1.183594,-1.06641 -3.210938,-1.06641 -0.949219,0 -1.898437,0.21094 -0.9375,0.21094 -1.921875,0.65625 z M 79,630.69922 q -0.9375,0 -1.582031,0.65625 -0.644531,0.64453 -0.644531,1.58203 0,0.92578 0.644531,1.57031 0.644531,0.63281 1.582031,0.63281 0.9375,0 1.582031,-0.63281 0.644532,-0.64453 0.644532,-1.57031 0,-0.92578 -0.65625,-1.58203 Q 79.925781,630.69922 79,630.69922 Z m 0,-1.51172 q 0.75,0 1.441406,0.29297 0.691407,0.28125 1.195313,0.82031 0.539062,0.52734 0.808594,1.19531 0.269531,0.66797 0.269531,1.44141 0,1.54687 -1.089844,2.625 -1.078125,1.06641 -2.648437,1.06641 -1.582032,0 -2.636719,-1.05469 -1.054688,-1.05469 -1.054688,-2.63672 0,-1.57031 1.078125,-2.66016 Q 77.441406,629.1875 79,629.1875 Z"
     id="text44"
     aria-label="−45°"
     style="font-size:24px;font-family:'Bitstream Vera Sans';text-align:end;text-anchor:end" />
  <path
     d="m 9.625,728.48047 h 15.023438 v 1.99219 H 9.625 Z m 20.542969,6.52734 h 3.867187 v -13.34765 l -4.207031,0.84375 v -2.15625 l 4.183594,-0.84375 h 2.367187 v 15.5039 h 3.867188 V 737 H 30.167969 Z m 22.03125,-7.4414 q 1.699219,0.36328 2.648437,1.51171 0.960938,1.14844 0.960938,2.83594 0,2.58985 -1.78125,4.00781 -1.78125,1.41797 -5.0625,1.41797 -1.101563,0 -2.273438,-0.22265 -1.160156,-0.21094 -2.402343,-0.64453 v -2.28516 q 0.984375,0.57422 2.15625,0.86719 1.171875,0.29297 2.449218,0.29297 2.226563,0 3.386719,-0.87891 1.171875,-0.87891 1.171875,-2.55469 0,-1.54687 -1.089844,-2.41406 -1.078125,-0.87891 -3.011718,-0.87891 H 47.3125 v -1.94531 h 2.132813 q 1.746093,0 2.671875,-0.69141 0.925781,-0.70312 0.925781,-2.01562 0,-1.34766 -0.960938,-2.0625 -0.949218,-0.72656 -2.730468,-0.72656 -0.972657,0 -2.085938,0.21094 -1.113281,0.21093 -2.449219,0.65625 v -2.10938 q 1.347657,-0.375 2.519532,-0.5625 1.183593,-0.1875 2.226562,-0.1875 2.695313,0 4.265625,1.23047 1.570313,1.21875 1.570313,3.30469 0,1.45312 -0.832032,2.46093 -0.832031,0.9961 -2.367187,1.38282 z m 8.121094,-8.0625 h 9.292968 v 1.99218 h -7.125 v 4.28907 q 0.515625,-0.17579 1.03125,-0.25782 0.515625,-0.0937 1.03125,-0.0937 2.929688,0 4.640625,1.60547 1.710938,1.60547 1.710938,4.34766 0,2.82422 -1.757813,4.39453 -1.757812,1.55859 -4.957031,1.55859 -1.101562,0 -2.25,-0.1875 -1.136719,-0.1875 -2.355469,-0.5625 v -2.3789 q 1.054688,0.57422 2.179688,0.85547 1.125,0.28125 2.378906,0.28125 2.027344,0 3.210938,-1.06641 1.183593,-1.06641 1.183593,-2.89453 0,-1.82813 -1.183593,-2.89453 -1.183594,-1.06641 -3.210938,-1.06641 -0.949219,0 -1.898437,0.21094 -0.9375,0.21094 -1.921875,0.65625 z M 79,720.69922 q -0.9375,0 -1.582031,0.65625 -0.644531,0.64453 -0.644531,1.58203 0,0.92578 0.644531,1.57031 0.644531,0.63281 1.582031,0.63281 0.9375,0 1.582031,-0.63281 0.644532,-0.64453 0.644532,-1.57031 0,-0.92578 -0.65625,-1.58203 Q 79.925781,720.69922 79,720.69922 Z m 0,-1.51172 q 0.75,0 1.441406,0.29297 0.691407,0.28125 1.195313,0.82031 0.539062,0.52735 0.808594,1.19531 0.269531,0.66797 0.269531,1.44141 0,1.54687 -1.089844,2.625 -1.078125,1.06641 -2.648437,1.06641 -1.582032,0 -2.636719,-1.05469 -1.054688,-1.05469 -1.054688,-2.63672 0,-1.57031 1.078125,-2.66016 Q 77.441406,719.1875 79,719.1875 Z"
     id="text45"
     aria-label="−135°"
     style="font-size:24px;font-family:'Bitstream Vera Sans';text-align:end;text-anchor:end" />
  <path
     d="m 850.14844,606.875 -0.32813,1.67578 h -4.30078 l -1.39453,7.125 q -0.0703,0.39844 -0.10547,0.66797 -0.0352,0.26953 -0.0352,0.42187 0,0.75 0.44532,1.08985 0.45703,0.33984 1.45312,0.33984 h 2.17969 L 847.69922,620 h -2.0625 q -1.92188,0 -2.8711,-0.75 -0.9375,-0.75 -0.9375,-2.27344 0,-0.26953 0.0352,-0.58594 0.0352,-0.32812 0.10547,-0.71484 l 1.39453,-7.125 h -1.82812 l 0.3398,-1.67578 h 1.79297 l 0.72656,-3.72656 h 2.15625 l -0.71484,3.72656 z"
     id="text46"
     style="font-style:italic;font-size:24px;font-family:'Bitstream Vera Sans';text-align:start;text-anchor:start"
     aria-label="t" />
  <path
     d="m 100,550 h 100 v -90 h 100 v 90 h 50 v 90 h 100 v -90 h 100 v 90 h 50 v 90 h 100 v -90 h 50 v -90 h 50"
     id="path13"
     style="fill:none;stroke:#ff0000;stroke-width:4" />
</svg>
