<?xml version="1.0" encoding="UTF-8" standalone="no"?>
<!-- Created with Inkscape (http://www.inkscape.org/) -->

<svg
   width="79.926086mm"
   height="46.04324mm"
   viewBox="0 0 79.926086 46.04324"
   version="1.1"
   id="svg1"
   inkscape:version="1.4.4 (dcaf3e7d9e, 2026-05-05)"
   sodipodi:docname="advanced_eletromag05_fig1.svg"
   xmlns:inkscape="http://www.inkscape.org/namespaces/inkscape"
   xmlns:sodipodi="http://sodipodi.sourceforge.net/DTD/sodipodi-0.dtd"
   xmlns="http://www.w3.org/2000/svg"
   xmlns:svg="http://www.w3.org/2000/svg">
  <sodipodi:namedview
     id="namedview1"
     pagecolor="#ffffff"
     bordercolor="#999999"
     borderopacity="1"
     inkscape:showpageshadow="0"
     inkscape:pageopacity="0"
     inkscape:pagecheckerboard="0"
     inkscape:deskcolor="#d1d1d1"
     inkscape:document-units="mm"
     inkscape:zoom="1.7256174"
     inkscape:cx="214.41602"
     inkscape:cy="129.80861"
     inkscape:window-width="1920"
     inkscape:window-height="1035"
     inkscape:window-x="0"
     inkscape:window-y="0"
     inkscape:window-maximized="0"
     inkscape:current-layer="layer1" />
  <defs
     id="defs1">
    <clipPath
       id="clip-0">
      <path
         clip-rule="nonzero"
         d="M 184.24609,466.41016 H 411.01953 V 593 H 184.24609 Z m 0,0"
         id="path155" />
    </clipPath>
    <clipPath
       id="clip-1">
      <path
         clip-rule="nonzero"
         d="m 311,517 h 8 v 16 h -8 z m 0,0"
         id="path156" />
    </clipPath>
    <clipPath
       id="clip-2">
      <path
         clip-rule="evenodd"
         d="m 184.24609,466.41016 v 128.4414 h 226.77344 v -128.4414 z m 130.35547,52.60937 -1.32422,0.32031 0.79688,3.36328 0.0469,-2.8125 1.28125,2.51563 z m 0,0"
         id="path157" />
    </clipPath>
  </defs>
  <g
     inkscape:label="Layer 1"
     inkscape:groupmode="layer"
     id="layer1"
     transform="translate(-46.0375,-273.84375)">
    <path
       fill="none"
       stroke-width="0.0605049"
       stroke-linecap="butt"
       stroke-linejoin="miter"
       stroke="#000000"
       stroke-opacity="1"
       stroke-miterlimit="10"
       d="m 111.41296,301.70622 c 0,3.34175 -5.96002,6.04959 -13.310476,6.04959 -7.351833,0 -13.311848,-2.70784 -13.311848,-6.04959 0,-3.34174 5.960015,-6.05096 13.311848,-6.05096 7.350456,0 13.310476,2.70922 13.310476,6.05096 z m 0,0"
       id="path950" />
    <g
       clip-path="url(#clip-0)"
       id="g951"
       transform="matrix(0.35277777,0,0,0.35277777,-18.997697,109.28112)">
      <path
         fill="none"
         stroke-width="1.7151"
         stroke-linecap="butt"
         stroke-linejoin="miter"
         stroke="#000000"
         stroke-opacity="1"
         stroke-dasharray="13.7207"
         stroke-miterlimit="10"
         d="m 4108.2812,2636.9531 c 0,-341.0156 -506.7968,-617.4609 -1131.9531,-617.4609 -625.1562,0 -1131.9531,276.4453 -1131.9531,617.4609 0,340.9766 506.7969,617.4219 1131.9531,617.4219 625.1563,0 1131.9531,-276.4453 1131.9531,-617.4219 z m 0,0"
         transform="matrix(0.1,0,0,-0.1,0,792)"
         id="path951" />
    </g>
    <path
       fill-rule="evenodd"
       fill="#cccccc"
       fill-opacity="1"
       d="m 60.459982,290.38703 c 0,1.43592 -0.458886,2.5976 -1.025261,2.5976 -0.564994,0 -1.023881,-1.16168 -1.023881,-2.5976 0,-1.43454 0.458887,-2.59622 1.023881,-2.59622 0.566375,0 1.025261,1.16168 1.025261,2.59622"
       id="path952"
       style="stroke-width:0.352778" />
    <path
       fill="none"
       stroke-width="0.0605049"
       stroke-linecap="butt"
       stroke-linejoin="miter"
       stroke="#000000"
       stroke-opacity="1"
       stroke-miterlimit="10"
       d="m 60.459992,290.38702 c 0,1.43591 -0.45889,2.5976 -1.02526,2.5976 -0.564999,0 -1.023885,-1.16169 -1.023885,-2.5976 0,-1.43454 0.458886,-2.59623 1.023885,-2.59623 0.56637,0 1.02526,1.16169 1.02526,2.59623 z m 0,0"
       id="path953" />
    <g
       clip-path="url(#clip-1)"
       id="g955"
       transform="matrix(0.35277777,0,0,0.35277777,-18.997697,109.28112)">
      <g
         clip-path="url(#clip-2)"
         id="g954">
        <path
           fill="none"
           stroke-width="1.7151"
           stroke-linecap="butt"
           stroke-linejoin="miter"
           stroke="#000000"
           stroke-opacity="1"
           stroke-miterlimit="10"
           d="m 3164.2969,2621.8359 -23.9844,102.9297"
           transform="matrix(0.1,0,0,-0.1,0,792)"
           id="path954" />
      </g>
    </g>
    <path
       fill="none"
       stroke-width="0.0605049"
       stroke-linecap="butt"
       stroke-linejoin="miter"
       stroke="#000000"
       stroke-opacity="1"
       stroke-miterlimit="10"
       d="m 92.269247,293.57442 -0.451997,-0.88746 -0.01654,0.99219"
       id="path955" />
    <g
       fill="#000000"
       fill-opacity="1"
       id="g956"
       transform="matrix(0.35277777,0,0,0.35277777,-18.997697,109.28112)">
      <g
         id="use955"
         transform="translate(232.0872,490.21359)">
        <path
           d="m 4.3125,-1.109375 h 1.859375 c 0.125,0 0.28125,0 0.28125,-0.15625 0,-0.171875 -0.15625,-0.171875 -0.28125,-0.171875 H 4.40625 L 4.75,-2.71875 h 1.421875 c 0.125,0 0.28125,0 0.28125,-0.171875 0,-0.15625 -0.15625,-0.15625 -0.28125,-0.15625 H 4.84375 L 5.5,-5.453125 c 0,-0.015625 0.03125,-0.109375 0.03125,-0.15625 0,-0.078125 -0.078125,-0.15625 -0.171875,-0.15625 -0.125,0 -0.15625,0.109375 -0.1875,0.203125 L 4.5,-3.046875 H 2.9375 l 0.65625,-2.40625 c 0,-0.015625 0.03125,-0.109375 0.03125,-0.15625 0,-0.078125 -0.078125,-0.15625 -0.171875,-0.15625 -0.125,0 -0.15625,0.109375 -0.171875,0.203125 l -0.671875,2.515625 h -1.875 c -0.109375,0 -0.265625,0 -0.265625,0.15625 0,0.171875 0.15625,0.171875 0.28125,0.171875 H 2.5 L 2.171875,-1.4375 H 0.75 c -0.125,0 -0.28125,0 -0.28125,0.171875 0,0.15625 0.15625,0.15625 0.265625,0.15625 H 2.0625 L 1.421875,1.296875 C 1.40625,1.3125 1.390625,1.40625 1.390625,1.453125 c 0,0.078125 0.078125,0.15625 0.15625,0.15625 C 1.6875,1.609375 1.71875,1.5 1.734375,1.40625 L 2.40625,-1.109375 h 1.5625 L 3.328125,1.296875 C 3.3125,1.3125 3.296875,1.40625 3.296875,1.453125 c 0,0.078125 0.0625,0.15625 0.15625,0.15625 0.140625,0 0.15625,-0.109375 0.1875,-0.203125 z M 2.515625,-1.4375 2.84375,-2.71875 h 1.5625 L 4.078125,-1.4375 Z m 0,0"
           id="path9" />
      </g>
      <g
         id="use956"
         transform="translate(239.01479,490.21359)">
        <path
           d="m 2.4375,-5.3125 c 0,-0.203125 0,-0.21875 -0.1875,-0.21875 C 1.734375,-5 1,-5 0.734375,-5 v 0.25 c 0.171875,0 0.65625,0 1.09375,-0.21875 v 4.3125 c 0,0.296875 -0.03125,0.40625 -0.765625,0.40625 H 0.796875 V 0 c 0.28125,-0.03125 1,-0.03125 1.34375,-0.03125 0.328125,0 1.046875,0 1.34375,0.03125 V -0.25 H 3.21875 c -0.75,0 -0.78125,-0.09375 -0.78125,-0.40625 z m 0,0"
           id="path8" />
      </g>
    </g>
    <g
       fill="#000000"
       fill-opacity="1"
       id="g958"
       transform="matrix(0.35277777,0,0,0.35277777,-18.997697,109.28112)">
      <g
         id="use957"
         transform="translate(298.63916,545.44501)">
        <path
           d="m 4.3125,-1.109375 h 1.859375 c 0.125,0 0.28125,0 0.28125,-0.15625 0,-0.171875 -0.15625,-0.171875 -0.28125,-0.171875 H 4.40625 L 4.75,-2.71875 h 1.421875 c 0.125,0 0.28125,0 0.28125,-0.171875 0,-0.15625 -0.15625,-0.15625 -0.28125,-0.15625 H 4.84375 L 5.5,-5.453125 c 0,-0.015625 0.03125,-0.109375 0.03125,-0.15625 0,-0.078125 -0.078125,-0.15625 -0.171875,-0.15625 -0.125,0 -0.15625,0.109375 -0.1875,0.203125 L 4.5,-3.046875 H 2.9375 l 0.65625,-2.40625 c 0,-0.015625 0.03125,-0.109375 0.03125,-0.15625 0,-0.078125 -0.078125,-0.15625 -0.171875,-0.15625 -0.125,0 -0.15625,0.109375 -0.171875,0.203125 l -0.671875,2.515625 h -1.875 c -0.109375,0 -0.265625,0 -0.265625,0.15625 0,0.171875 0.15625,0.171875 0.28125,0.171875 H 2.5 L 2.171875,-1.4375 H 0.75 c -0.125,0 -0.28125,0 -0.28125,0.171875 0,0.15625 0.15625,0.15625 0.265625,0.15625 H 2.0625 L 1.421875,1.296875 C 1.40625,1.3125 1.390625,1.40625 1.390625,1.453125 c 0,0.078125 0.078125,0.15625 0.15625,0.15625 C 1.6875,1.609375 1.71875,1.5 1.734375,1.40625 L 2.40625,-1.109375 h 1.5625 L 3.328125,1.296875 C 3.3125,1.3125 3.296875,1.40625 3.296875,1.453125 c 0,0.078125 0.0625,0.15625 0.15625,0.15625 0.140625,0 0.15625,-0.109375 0.1875,-0.203125 z M 2.515625,-1.4375 2.84375,-2.71875 h 1.5625 L 4.078125,-1.4375 Z m 0,0"
           id="path10" />
      </g>
      <g
         id="use958"
         transform="translate(305.56674,545.44501)">
        <path
           d="M 3.734375,-1.453125 H 3.53125 c -0.046875,0.25 -0.109375,0.625 -0.1875,0.75 -0.0625,0.0625 -0.609375,0.0625 -0.796875,0.0625 H 1.0625 L 1.9375,-1.5 c 1.296875,-1.140625 1.796875,-1.59375 1.796875,-2.421875 0,-0.953125 -0.75,-1.609375 -1.765625,-1.609375 -0.9375,0 -1.546875,0.765625 -1.546875,1.5 0,0.46875 0.40625,0.46875 0.4375,0.46875 C 1,-3.5625 1.28125,-3.671875 1.28125,-4 c 0,-0.21875 -0.140625,-0.4375 -0.4375,-0.4375 -0.0625,0 -0.078125,0 -0.109375,0 0.203125,-0.53125 0.640625,-0.84375 1.125,-0.84375 0.765625,0 1.109375,0.671875 1.109375,1.359375 0,0.65625 -0.40625,1.3125 -0.859375,1.828125 L 0.5,-0.3125 C 0.421875,-0.21875 0.421875,-0.203125 0.421875,0 H 3.5 Z m 0,0"
           id="path7" />
      </g>
    </g>
    <g
       fill="#000000"
       fill-opacity="1"
       id="g959"
       transform="matrix(0.35277777,0,0,0.35277777,-18.997697,109.28112)">
      <g
         id="use959"
         transform="translate(316.84698,521.65637)">
        <path
           d="m 2.078125,-5.765625 -1.109375,1.125 0.140625,0.15625 0.96875,-0.859375 0.953125,0.859375 0.15625,-0.15625 z m 0,0"
           id="path6" />
      </g>
    </g>
    <g
       fill="#000000"
       fill-opacity="1"
       id="g960"
       transform="matrix(0.35277777,0,0,0.35277777,-18.997697,109.28112)">
      <g
         id="use960"
         transform="translate(316.42053,521.65637)">
        <path
           d="m 0.734375,-0.484375 c -0.03125,0.125 -0.078125,0.3125 -0.078125,0.34375 0,0.15625 0.109375,0.234375 0.234375,0.234375 0.109375,0 0.25,-0.0625 0.3125,-0.234375 C 1.21875,-0.15625 1.3125,-0.546875 1.359375,-0.75 c 0.0625,-0.25 0.125,-0.5 0.1875,-0.75 0.046875,-0.1875 0.09375,-0.375 0.140625,-0.5625 0.03125,-0.140625 0.09375,-0.375 0.109375,-0.421875 0.125,-0.25 0.5625,-1 1.359375,-1 0.375,0 0.4375,0.296875 0.4375,0.578125 0,0.515625 -0.40625,1.578125 -0.53125,1.9375 -0.078125,0.1875 -0.09375,0.28125 -0.09375,0.375 0,0.390625 0.296875,0.6875 0.6875,0.6875 0.78125,0 1.09375,-1.21875 1.09375,-1.28125 0,-0.078125 -0.078125,-0.078125 -0.109375,-0.078125 -0.078125,0 -0.078125,0.015625 -0.125,0.140625 -0.15625,0.5625 -0.4375,1.03125 -0.84375,1.03125 -0.140625,0 -0.203125,-0.078125 -0.203125,-0.265625 0,-0.21875 0.078125,-0.40625 0.15625,-0.59375 0.15625,-0.4375 0.5,-1.359375 0.5,-1.828125 0,-0.5625 -0.34375,-0.890625 -0.953125,-0.890625 -0.75,0 -1.15625,0.53125 -1.296875,0.71875 -0.03125,-0.46875 -0.375,-0.71875 -0.765625,-0.71875 -0.375,0 -0.53125,0.328125 -0.625,0.46875 -0.125,0.28125 -0.25,0.78125 -0.25,0.8125 0,0.078125 0.09375,0.078125 0.109375,0.078125 0.078125,0 0.09375,0 0.140625,-0.1875 0.140625,-0.59375 0.3125,-0.984375 0.609375,-0.984375 0.15625,0 0.25,0.09375 0.25,0.375 0,0.171875 -0.015625,0.265625 -0.125,0.703125 z m 0,0"
           id="path5" />
      </g>
    </g>
    <g
       fill="#000000"
       fill-opacity="1"
       id="g961"
       transform="matrix(0.35277777,0,0,0.35277777,-18.997697,109.28112)">
      <g
         id="use961"
         transform="translate(226.0941,518.47681)">
        <path
           d="m 4.5,-5.078125 c 0.0625,-0.265625 0.078125,-0.34375 0.53125,-0.34375 0.140625,0 0.234375,0 0.234375,-0.15625 0,-0.078125 -0.046875,-0.09375 -0.125,-0.09375 -0.203125,0 -0.703125,0.015625 -0.921875,0.015625 -0.265625,0 -0.9375,-0.015625 -1.21875,-0.015625 -0.078125,0 -0.171875,0 -0.171875,0.15625 0,0.09375 0.0625,0.09375 0.28125,0.09375 0.1875,0 0.28125,0 0.484375,0.015625 0.203125,0.03125 0.25,0.046875 0.25,0.171875 0,0.046875 -0.015625,0.109375 -0.03125,0.171875 L 2.859375,-1.25 C 2.65625,-0.4375 2.09375,0 1.65625,0 1.453125,0 1,-0.078125 0.875,-0.515625 0.890625,-0.5 0.953125,-0.5 0.96875,-0.5 c 0.328125,0 0.546875,-0.296875 0.546875,-0.53125 0,-0.28125 -0.234375,-0.359375 -0.375,-0.359375 -0.140625,0 -0.546875,0.109375 -0.546875,0.671875 0,0.515625 0.4375,0.90625 1.09375,0.90625 0.765625,0 1.625,-0.546875 1.84375,-1.375 z m 0,0"
           id="path4" />
      </g>
    </g>
    <g
       fill="#000000"
       fill-opacity="1"
       id="g962"
       transform="matrix(0.35277777,0,0,0.35277777,-18.997697,109.28112)">
      <g
         id="use962"
         transform="translate(357.70825,530.79803)">
        <path
           d="m 5.359375,-5.78125 c 0,-0.015625 -0.015625,-0.078125 -0.09375,-0.078125 -0.03125,0 -0.046875,0 -0.140625,0.125 l -0.40625,0.46875 C 4.5,-5.65625 4.078125,-5.859375 3.53125,-5.859375 c -1.046875,0 -2.046875,0.953125 -2.046875,1.953125 0,0.6875 0.4375,1.0625 0.859375,1.1875 l 0.890625,0.234375 C 3.546875,-2.40625 4,-2.28125 4,-1.609375 c 0,0.75 -0.6875,1.53125 -1.5,1.53125 -0.53125,0 -1.453125,-0.171875 -1.453125,-1.203125 0,-0.203125 0.046875,-0.40625 0.046875,-0.453125 0.015625,-0.03125 0.015625,-0.046875 0.015625,-0.0625 0,-0.078125 -0.046875,-0.09375 -0.09375,-0.09375 -0.046875,0 -0.0625,0.015625 -0.078125,0.03125 -0.046875,0.03125 -0.5,1.9375 -0.5,1.953125 0,0.0625 0.03125,0.09375 0.09375,0.09375 0.03125,0 0.046875,-0.015625 0.140625,-0.125 l 0.40625,-0.484375 C 1.4375,0.0625 2,0.1875 2.484375,0.1875 c 1.125,0 2.109375,-1.109375 2.109375,-2.140625 C 4.59375,-2.53125 4.3125,-2.8125 4.1875,-2.921875 4,-3.109375 3.875,-3.15625 3.140625,-3.34375 2.953125,-3.390625 2.65625,-3.46875 2.578125,-3.484375 2.359375,-3.5625 2.0625,-3.8125 2.0625,-4.25 c 0,-0.671875 0.671875,-1.375 1.46875,-1.375 0.6875,0 1.1875,0.359375 1.1875,1.28125 0,0.265625 -0.03125,0.421875 -0.03125,0.46875 0,0.015625 0,0.078125 0.09375,0.078125 0.09375,0 0.09375,-0.015625 0.125,-0.15625 z m 0,0"
           id="path2" />
      </g>
    </g>
    <g
       fill="#000000"
       fill-opacity="1"
       id="g963"
       transform="matrix(0.35277777,0,0,0.35277777,-18.997697,109.28112)">
      <g
         id="use963"
         transform="translate(249.18341,595.68182)">
        <path
           d="m 5.359375,-5.78125 c 0,-0.015625 -0.015625,-0.078125 -0.09375,-0.078125 -0.03125,0 -0.046875,0 -0.140625,0.125 l -0.40625,0.46875 C 4.5,-5.65625 4.078125,-5.859375 3.53125,-5.859375 c -1.046875,0 -2.046875,0.953125 -2.046875,1.953125 0,0.6875 0.4375,1.0625 0.859375,1.1875 l 0.890625,0.234375 C 3.546875,-2.40625 4,-2.28125 4,-1.609375 c 0,0.75 -0.6875,1.53125 -1.5,1.53125 -0.53125,0 -1.453125,-0.171875 -1.453125,-1.203125 0,-0.203125 0.046875,-0.40625 0.046875,-0.453125 0.015625,-0.03125 0.015625,-0.046875 0.015625,-0.0625 0,-0.078125 -0.046875,-0.09375 -0.09375,-0.09375 -0.046875,0 -0.0625,0.015625 -0.078125,0.03125 -0.046875,0.03125 -0.5,1.9375 -0.5,1.953125 0,0.0625 0.03125,0.09375 0.09375,0.09375 0.03125,0 0.046875,-0.015625 0.140625,-0.125 l 0.40625,-0.484375 C 1.4375,0.0625 2,0.1875 2.484375,0.1875 c 1.125,0 2.109375,-1.109375 2.109375,-2.140625 C 4.59375,-2.53125 4.3125,-2.8125 4.1875,-2.921875 4,-3.109375 3.875,-3.15625 3.140625,-3.34375 2.953125,-3.390625 2.65625,-3.46875 2.578125,-3.484375 2.359375,-3.5625 2.0625,-3.8125 2.0625,-4.25 c 0,-0.671875 0.671875,-1.375 1.46875,-1.375 0.6875,0 1.1875,0.359375 1.1875,1.28125 0,0.265625 -0.03125,0.421875 -0.03125,0.46875 0,0.015625 0,0.078125 0.09375,0.078125 0.09375,0 0.09375,-0.015625 0.125,-0.15625 z m 0,0"
           id="path3" />
      </g>
    </g>
    <g
       fill="#000000"
       fill-opacity="1"
       id="g964"
       transform="matrix(0.35277777,0,0,0.35277777,-18.997697,109.28112)">
      <g
         id="use964"
         transform="translate(254.28111,596.93054)">
        <path
           d="M 3.28125,-1.671875 C 2.875,-2.15625 2.859375,-2.15625 2.6875,-2.296875 2.328125,-2.5625 1.9375,-2.6875 1.609375,-2.6875 c -0.734375,0 -1.25,0.65625 -1.25,1.375 0,0.703125 0.484375,1.375 1.234375,1.375 0.625,0 1.1875,-0.421875 1.578125,-1.015625 0.421875,0.484375 0.421875,0.484375 0.609375,0.625 C 4.125,-0.0625 4.515625,0.0625 4.84375,0.0625 c 0.734375,0 1.25,-0.65625 1.25,-1.375 0,-0.6875 -0.484375,-1.375 -1.234375,-1.375 -0.625,0 -1.1875,0.421875 -1.578125,1.015625 z m 0.1875,0.234375 c 0.21875,-0.375 0.71875,-1.015625 1.4375,-1.015625 0.671875,0 1.015625,0.625 1.015625,1.140625 0,0.609375 -0.46875,1.046875 -0.984375,1.046875 -0.53125,0 -0.921875,-0.484375 -1.46875,-1.171875 z m -0.484375,0.265625 c -0.21875,0.359375 -0.71875,1 -1.4375,1 -0.671875,0 -1.015625,-0.625 -1.015625,-1.125 0,-0.625 0.46875,-1.0625 0.984375,-1.0625 0.53125,0 0.921875,0.5 1.46875,1.1875 z m 0,0"
           id="path1" />
      </g>
    </g>
  </g>
</svg>
