<?xml version="1.0" encoding="UTF-8" standalone="no"?>
<!-- Created with Inkscape (http://www.inkscape.org/) -->

<svg
   width="96.114815mm"
   height="63.757076mm"
   viewBox="0 0 96.114815 63.757076"
   version="1.1"
   id="svg1"
   inkscape:version="1.4.4 (dcaf3e7d9e, 2026-05-05)"
   sodipodi:docname="eletromag18_pg4.svg"
   xmlns:inkscape="http://www.inkscape.org/namespaces/inkscape"
   xmlns:sodipodi="http://sodipodi.sourceforge.net/DTD/sodipodi-0.dtd"
   xmlns="http://www.w3.org/2000/svg"
   xmlns:svg="http://www.w3.org/2000/svg">
  <sodipodi:namedview
     id="namedview1"
     pagecolor="#ffffff"
     bordercolor="#999999"
     borderopacity="1"
     inkscape:showpageshadow="0"
     inkscape:pageopacity="0"
     inkscape:pagecheckerboard="0"
     inkscape:deskcolor="#d1d1d1"
     inkscape:document-units="mm"
     inkscape:zoom="1.3113356"
     inkscape:cx="115.91236"
     inkscape:cy="7.6258131"
     inkscape:window-width="1920"
     inkscape:window-height="1035"
     inkscape:window-x="0"
     inkscape:window-y="0"
     inkscape:window-maximized="0"
     inkscape:current-layer="layer1" />
  <defs
     id="defs1" />
  <g
     inkscape:label="Layer 1"
     inkscape:groupmode="layer"
     id="layer1"
     transform="translate(-43.127085,-125.41251)">
    <text
       id="text26575"
       xml:space="preserve"
       x="84.571411"
       y="131.87144"
       style="font-size:4.23333px;stroke-width:0.352777"><tspan
         id="tspan26576"
         style="font-variant:normal;font-weight:normal;font-stretch:normal;font-size:7.05964px;font-family:Arial;writing-mode:lr-tb;fill:#000000;fill-opacity:1;fill-rule:nonzero;stroke:none;stroke-width:0.352777"
         x="84.571411"
         y="131.87144">z</tspan></text>
    <path
       id="path26576"
       d="m 82.010249,189.02145 v -53.57283 l 0.04233,-0.0847 0.08467,-0.0423 0.105833,0.0423 0.04233,0.0847 v 53.57283 l -0.04233,0.10583 -0.105833,0.0423 -0.08467,-0.0423 z m -0.5715,-53.213 0.6985,-3.53483 0.719667,3.53483"
       style="fill:#000000;fill-opacity:1;fill-rule:nonzero;stroke:none;stroke-width:0.352777" />
    <path
       id="path26577"
       d="m 43.254085,168.57445 h 87.312495 l 0.0847,0.0423 0.0423,0.0847 -0.0423,0.0847 -0.0847,0.0423 H 43.254085 l -0.08467,-0.0423 -0.04233,-0.0847 0.04233,-0.0847 z m 86.952665,-0.5715 3.53483,0.6985 -3.53483,0.6985"
       style="fill:#000000;fill-opacity:1;fill-rule:nonzero;stroke:none;stroke-width:0.352777" />
    <path
       id="path26578"
       d="m 99.239915,151.64112 c -9.440333,0 -17.102666,7.62 -17.102666,17.03916 0,9.41917 7.662333,17.03917 17.102666,17.03917 9.440335,0 17.081505,-7.62 17.081505,-17.03917 0,-9.41916 -7.64117,-17.03916 -17.081505,-17.03916 z m -34.162996,0.381 c -9.440334,0 -17.102667,7.64117 -17.102667,17.06033 0,9.398 7.662333,17.03917 17.102667,17.03917 9.461499,0 17.12383,-7.64117 17.12383,-17.03917 0,-9.41916 -7.662331,-17.06033 -17.12383,-17.06033 z"
       style="fill:none;stroke:#000000;stroke-width:0.529167;stroke-linecap:round;stroke-linejoin:round;stroke-miterlimit:10;stroke-dasharray:none;stroke-opacity:1" />
    <path
       id="path26579"
       d="m 82.094916,141.43879 c 3.216981,0.0374 6.179608,0.51046 9.228666,1.54516 1.557515,0.54998 2.794,1.0922 4.2545,1.86267 l 0.592667,0.3175 0.5715,0.33867 0.5715,0.35983 0.550333,0.35983 0.550333,0.381 0.677334,0.508 0.0635,0.0847 -0.04233,0.10583 -0.08467,0.0635 c -1.317625,-0.95179 -2.680052,-1.8729 -4.148667,-2.58233 -1.591733,-0.81951 -3.190168,-1.45203 -4.910666,-1.94733 -1.681338,-0.4759 -3.442404,-0.85055 -5.185834,-0.99484 l -0.677333,-0.0635 -0.656167,-0.0423 -0.677333,-0.0212 h -0.677333 l -0.08467,-0.0423 -0.04233,-0.0847 0.04233,-0.10583 z m 17.102666,5.0165 2.264838,2.794 -3.175005,-1.7145"
       style="fill:#000000;fill-opacity:1;fill-rule:nonzero;stroke:none;stroke-width:0.352777" />
    <text
       id="text26579"
       xml:space="preserve"
       x="98.202576"
       y="130.81288"
       style="font-size:4.23333px;stroke-width:0.352777"><tspan
         id="tspan26579"
         style="font-variant:normal;font-weight:normal;font-stretch:normal;font-size:7.05964px;font-family:Arial;writing-mode:lr-tb;fill:#000000;fill-opacity:1;fill-rule:nonzero;stroke:none;stroke-width:0.352777"
         x="98.202576"
         y="130.81288">E</tspan></text>
    <text
       id="text26580"
       xml:space="preserve"
       x="102.90176"
       y="132.92978"
       style="font-size:4.23333px;stroke-width:0.352777"><tspan
         id="tspan26580"
         style="font-variant:normal;font-weight:normal;font-stretch:normal;font-size:4.59317px;font-family:Symbol;writing-mode:lr-tb;fill:#000000;fill-opacity:1;fill-rule:nonzero;stroke:none;stroke-width:0.352777"
         x="102.90176"
         y="132.92978">θ</tspan></text>
    <text
       id="text26581"
       xml:space="preserve"
       x="107.26205"
       y="130.81313"
       style="font-size:4.23333px;stroke-width:0.352777"><tspan
         id="tspan26581"
         style="font-variant:normal;font-weight:normal;font-stretch:normal;font-size:7.05964px;font-family:Symbol;writing-mode:lr-tb;fill:#000000;fill-opacity:1;fill-rule:nonzero;stroke:none;stroke-width:0.352777"
         x="107.26205"
         y="130.81313">∝</tspan></text>
    <text
       id="text26582"
       xml:space="preserve"
       x="114.03542"
       y="130.81313"
       style="font-size:4.23333px;stroke-width:0.352777"><tspan
         id="tspan26582"
         style="font-variant:normal;font-weight:normal;font-stretch:normal;font-size:7.0485px;font-family:'Times New Roman';writing-mode:lr-tb;fill:#000000;fill-opacity:1;fill-rule:nonzero;stroke:none;stroke-width:0.352777"
         x="114.03542"
         y="130.81313">L </tspan></text>
    <text
       id="text26583"
       xml:space="preserve"
       x="120.11025"
       y="130.81313"
       style="font-size:4.23333px;stroke-width:0.352777"><tspan
         id="tspan26583"
         style="font-variant:normal;font-weight:normal;font-stretch:normal;font-size:7.05964px;font-family:Symbol;writing-mode:lr-tb;fill:#000000;fill-opacity:1;fill-rule:nonzero;stroke:none;stroke-width:0.352777"
         x="120.11025"
         y="130.81313">∝</tspan><tspan
         id="tspan26584"
         style="font-variant:normal;font-weight:normal;font-stretch:normal;font-size:7.05964px;font-family:Arial;writing-mode:lr-tb;fill:#000000;fill-opacity:1;fill-rule:nonzero;stroke:none;stroke-width:0.352777"
         x="126.39334"
         y="130.81313">sin</tspan><tspan
         id="tspan26585"
         style="font-variant:normal;font-weight:normal;font-stretch:normal;font-size:7.05964px;font-family:Symbol;writing-mode:lr-tb;fill:#000000;fill-opacity:1;fill-rule:nonzero;stroke:none;stroke-width:0.352777"
         x="135.42969"
         y="130.81313">θ</tspan><tspan
         id="tspan26586"
         style="font-variant:normal;font-weight:normal;font-stretch:normal;font-size:7.05964px;font-family:Symbol;writing-mode:lr-tb;fill:#000000;fill-opacity:1;fill-rule:nonzero;stroke:none;stroke-width:0.352777"
         x="82.680008"
         y="148.27869">θ</tspan></text>
    <path
       id="path26586"
       d="m 82.094916,168.95545 0.5715,-0.55033 0.08467,-0.0423 0.08467,0.0423 0.04233,0.0847 -0.04233,0.10584 -0.550333,0.55033 -0.08467,0.0423 -0.105833,-0.0423 -0.04233,-0.0847 z m 1.312333,-1.31233 0.550333,-0.55034 0.105834,-0.0423 0.08467,0.0423 0.04233,0.0847 -0.04233,0.10583 -0.550333,0.55034 -0.105833,0.0423 -0.08467,-0.0423 -0.04233,-0.0847 z m 1.312333,-1.31233 0.550334,-0.55034 0.105833,-0.0423 0.08467,0.0423 0.04233,0.0847 -0.04233,0.10583 -0.550334,0.55034 -0.105833,0.0423 -0.08467,-0.0423 -0.04233,-0.0847 z m 1.312334,-1.29117 0.550333,-0.5715 0.105833,-0.0423 0.08467,0.0423 0.04233,0.0847 -0.04233,0.10583 -0.5715,0.55033 -0.08467,0.0423 -0.08467,-0.0423 -0.04233,-0.0847 z m 1.291166,-1.31233 0.5715,-0.5715 0.08467,-0.0423 0.105833,0.0423 0.04233,0.0847 -0.04233,0.10584 -0.5715,0.55033 -0.08467,0.0423 -0.105834,-0.0423 -0.02117,-0.0847 z m 1.312334,-1.31234 0.5715,-0.5715 0.08467,-0.0423 0.105834,0.0423 0.04233,0.10584 -0.04233,0.0847 -0.5715,0.5715 -0.08467,0.0212 -0.105833,-0.0212 -0.02117,-0.10583 z m 1.312333,-1.31233 0.5715,-0.5715 0.08467,-0.0423 0.08467,0.0423 0.04233,0.10583 -0.04233,0.0847 -0.550333,0.5715 -0.08467,0.0423 -0.105833,-0.0423 -0.04233,-0.10583 z m 1.312333,-1.31233 0.550334,-0.5715 0.105833,-0.0212 0.08467,0.0212 0.04233,0.10583 -0.04233,0.0847 -0.550334,0.5715 -0.105833,0.0423 -0.08467,-0.0423 -0.04233,-0.10584 z m 1.312334,-1.31234 0.550333,-0.5715 0.105833,-0.0212 0.08467,0.0212 0.04233,0.10584 -0.04233,0.0847 -0.550333,0.5715 -0.105834,0.0423 -0.08467,-0.0423 -0.04233,-0.10583 z m 1.312333,-1.31233 0.550333,-0.55033 0.105834,-0.0423 0.08467,0.0423 0.04233,0.0847 -0.04233,0.0847 -0.5715,0.5715 -0.08467,0.0423 -0.08467,-0.0423 -0.04233,-0.10583 z m 1.291167,-1.31233 0.5715,-0.55034 0.08467,-0.0423 0.105834,0.0423 0.04233,0.0847 -0.04233,0.0847 -0.5715,0.5715 -0.08467,0.0423 -0.105833,-0.0423 -0.02117,-0.0847 z m 1.312333,-1.31234 0.5715,-0.55033 0.08467,-0.0423 0.105833,0.0423 0.04233,0.0847 -0.04233,0.10583 -0.5715,0.55033 -0.08467,0.0423 -0.105833,-0.0423 -0.02117,-0.0847 z m 1.312333,-1.31233 0.5715,-0.55033 0.08467,-0.0423 0.08467,0.0423 0.04233,0.0847 -0.04233,0.10584 -0.550333,0.55033 -0.08467,0.0423 -0.105833,-0.0423 -0.04233,-0.0847 z m 1.312333,-1.31233 0.550334,-0.55034 0.105833,-0.0423 0.08467,0.0423 0.04233,0.0847 -0.04233,0.10583 -0.550334,0.55034 -0.105833,0.0423 -0.08467,-0.0423 -0.04233,-0.0847 z m 1.312335,-1.31234 0.55033,-0.55033 0.10584,-0.0423 0.0847,0.0423 0.0423,0.0847 -0.0423,0.10583 -0.55033,0.55033 -0.10583,0.0423 -0.0847,-0.0423 -0.0423,-0.0847 z m 1.31233,-1.29116 0.55034,-0.5715 0.10583,-0.0423 0.0847,0.0423 0.0423,0.0847 -0.0423,0.10584 -0.5715,0.55033 -0.0847,0.0423 -0.0847,-0.0423 -0.0423,-0.0847 z m 1.29117,-1.31234 0.5715,-0.5715 0.0847,-0.0423 0.10583,0.0423 0.0423,0.10584 -0.0423,0.0847 -0.5715,0.55034 -0.0847,0.0423 -0.10583,-0.0212 -0.0212,-0.10583 z m 1.31233,-1.31233 0.5715,-0.5715 0.0847,-0.0423 0.10583,0.0423 0.0423,0.10583 -0.0423,0.0847 -0.5715,0.5715 -0.0847,0.0423 -0.10584,-0.0423 -0.0212,-0.10583 z m 1.31234,-1.31233 0.5715,-0.5715 0.0847,-0.0212 0.0847,0.0212 0.0423,0.10583 -0.0423,0.0847 -0.55033,0.5715 -0.0847,0.0423 -0.10583,-0.0423 -0.0423,-0.10584 z m 1.31233,-1.31234 0.55033,-0.5715 0.10584,-0.0212 0.0847,0.0212 0.0423,0.10584 -0.0423,0.0847 -0.55033,0.5715 -0.10583,0.0423 -0.0847,-0.0423 -0.0423,-0.10583 z m 1.31233,-1.31233 0.55034,-0.5715 0.10583,-0.0212 0.0847,0.0212 0.0423,0.10583 -0.0423,0.0847 -0.55034,0.5715 -0.10583,0.0423 -0.0847,-0.0423 -0.0423,-0.10583 z m 1.31234,-1.31233 0.55033,-0.55034 0.10583,-0.0423 0.0847,0.0423 0.0423,0.0847 -0.0423,0.0847 -0.5715,0.5715 -0.0847,0.0423 -0.0847,-0.0423 -0.0423,-0.0847 z m 1.29116,-1.31234 0.5715,-0.55033 0.0847,-0.0423 0.10583,0.0423 0.0423,0.0847 -0.0423,0.10583 -0.5715,0.55033 -0.0847,0.0423 -0.10584,-0.0423 -0.0212,-0.0847 z m 1.31234,-1.31233 0.5715,-0.55033 0.0847,-0.0423 0.10584,0.0423 0.0423,0.0847 -0.0423,0.10584 -0.5715,0.55033 -0.0847,0.0423 -0.10583,-0.0423 -0.0212,-0.0847 z m 1.31233,-1.31233 0.5715,-0.55034 0.0847,-0.0423 0.0847,0.0423 0.0423,0.0847 -0.0423,0.10583 -0.55033,0.55034 -0.0847,0.0423 -0.10583,-0.0423 -0.0423,-0.0847 z m 1.31233,-1.31234 0.0423,-0.0423 0.10583,-0.0423 0.0847,0.0423 0.0423,0.10583 -0.0423,0.0847 -0.0423,0.0423 -0.10583,0.0423 -0.0847,-0.0423 -0.0423,-0.0847 z m -0.61383,-0.1905 3.00567,-2.01083 -1.98967,3.00567"
       style="fill:#000000;fill-opacity:1;fill-rule:nonzero;stroke:none;stroke-width:0.352777" />
    <path
       id="path26587"
       d="m 108.63792,141.96795 c 1.26047,1.21144 2.39994,2.46204 3.40783,3.89467 0.99942,1.42804 2.11949,3.13549 2.7305,4.7625 l -0.0847,0.0847 h -0.0847 l -0.0847,-0.0635 -0.46567,-1.016 -0.40216,-0.74084 -0.42334,-0.74083 -0.4445,-0.71967 -0.46566,-0.71966 -0.48684,-0.6985 -0.508,-0.67734 -0.52916,-0.67733 -0.55034,-0.635 -0.5715,-0.635 -0.59266,-0.61383 -0.61384,-0.61384 -0.0423,-0.0847 0.0212,-0.10584 0.10583,-0.0423 z m 6.51933,8.02217 0.67733,3.53483 -1.9685,-3.00566"
       style="fill:#000000;fill-opacity:1;fill-rule:nonzero;stroke:none;stroke-width:0.352777" />
    <path
       id="path26588"
       d="m 100.72158,152.78412 c 1.0795,1.0795 1.35467,2.56117 0.59267,3.34433 l -5.524501,5.588 c -0.762,0.78317 -0.508,2.286 0.592667,3.3655 -1.100667,-1.0795 -2.6035,-1.3335 -3.3655,-0.5715 l -5.5245,5.60917 c -0.762,0.78316 -2.264834,0.52916 -3.344334,-0.55034"
       style="fill:none;stroke:#000000;stroke-width:0.264583;stroke-linecap:round;stroke-linejoin:round;stroke-miterlimit:10;stroke-dasharray:none;stroke-opacity:1" />
    <text
       id="text26588"
       xml:space="preserve"
       x="96.572929"
       y="165.35712"
       style="font-size:4.23333px;stroke-width:0.352777"><tspan
         id="tspan26588"
         style="font-variant:normal;font-weight:normal;font-stretch:normal;font-size:7.05964px;font-family:Arial;writing-mode:lr-tb;fill:#000000;fill-opacity:1;fill-rule:nonzero;stroke:none;stroke-width:0.352777"
         x="96.572929"
         y="165.35712">L</tspan><tspan
         id="tspan26589"
         style="font-variant:normal;font-weight:normal;font-stretch:normal;font-size:7.05964px;font-family:Arial;writing-mode:lr-tb;fill:#000000;fill-opacity:1;fill-rule:nonzero;stroke:none;stroke-width:0.352777"
         x="134.18672"
         y="168.61868">x</tspan></text>
  </g>
</svg>
