<?xml version="1.0" encoding="UTF-8" standalone="no"?>
<!-- Created with Inkscape (http://www.inkscape.org/) -->

<svg
   width="106.14024mm"
   height="94.871155mm"
   viewBox="0 0 106.14024 94.871157"
   version="1.1"
   id="svg1"
   inkscape:version="1.4.4 (dcaf3e7d9e, 2026-05-05)"
   sodipodi:docname="eletromag11_pg5.svg"
   xmlns:inkscape="http://www.inkscape.org/namespaces/inkscape"
   xmlns:sodipodi="http://sodipodi.sourceforge.net/DTD/sodipodi-0.dtd"
   xmlns="http://www.w3.org/2000/svg"
   xmlns:svg="http://www.w3.org/2000/svg">
  <sodipodi:namedview
     id="namedview1"
     pagecolor="#ffffff"
     bordercolor="#999999"
     borderopacity="1"
     inkscape:showpageshadow="0"
     inkscape:pageopacity="0"
     inkscape:pagecheckerboard="0"
     inkscape:deskcolor="#d1d1d1"
     inkscape:document-units="mm"
     inkscape:zoom="1.3113356"
     inkscape:cx="89.222013"
     inkscape:cy="190.64533"
     inkscape:window-width="1920"
     inkscape:window-height="1035"
     inkscape:window-x="0"
     inkscape:window-y="0"
     inkscape:window-maximized="0"
     inkscape:current-layer="layer1" />
  <defs
     id="defs1" />
  <g
     inkscape:label="Layer 1"
     inkscape:groupmode="layer"
     id="layer1"
     transform="translate(23.283334,-168.78785)">
    <g
       id="g2"
       transform="translate(-10.491223)">
      <path
         id="path60"
         d="m -8.9979856,181.54038 c 0,-0.10583 0,-0.21167 0.021167,-0.381 0.021167,-0.1905 0.084667,-0.48683 0.127,-0.6985 0.042333,-0.1905 0.0635,-0.3175 0.127,-0.48683 0.042333,-0.16934 0.1481667,-0.35984 0.2116667,-0.508 0.0635,-0.14817 0.127,-0.29634 0.2116666,-0.40217 0.0635,-0.127 0.1481667,-0.254 0.2328334,-0.33867 0.084667,-0.0847 0.1905,-0.14816 0.2751666,-0.21166 0.084667,-0.0635 0.1481667,-0.10584 0.2328334,-0.14817 0.084667,-0.0423 0.1481666,-0.0847 0.2328333,-0.10583 0.084667,-0.0212 0.1481667,-0.0212 0.2328333,-0.0212 0.084667,0 0.2328334,0.0212 0.3175,0.0212 0.0635,0.0212 0.1058334,0.0212 0.1693334,0.0423 0.0635,0.0212 0.127,0.0423 0.1904999,0.0847 0.084667,0.0423 0.1481667,0.10583 0.2116667,0.16933 0.0635,0.0423 0.1058333,0.0847 0.1693333,0.14817 0.0635,0.0635 0.1481667,0.16933 0.2116667,0.27516 0.0635,0.0847 0.127,0.1905 0.1693333,0.27517 0.042333,0.0635 0.084667,0.127 0.1058334,0.21167 0.042333,0.0635 0.0635,0.14816 0.084667,0.23283 0.021167,0.0847 0.042333,0.16933 0.0635,0.29633 0.042333,0.10584 0.084667,0.27517 0.1058334,0.40217 0.042333,0.10583 0.042333,0.14817 0.0635,0.254 0.042333,0.127 0.0635,0.254 0.084667,0.40217 0.021167,0.14816 0.021167,0.254 0.021167,0.4445 0.021167,0.1905 0.021167,0.4445 0.042333,0.67733 0.021167,0.254 0.042333,0.55033 0.042333,0.762 0,0.1905 0,0.23283 -0.042333,0.46567 -0.042333,0.23283 -0.1058333,0.67733 -0.1693333,0.9525 -0.042333,0.254 -0.1058333,0.52916 -0.1905,0.6985 -0.0635,0.14816 -0.1905,0.21166 -0.254,0.254 -0.0635,0.0212 -0.042333,0.0212 -0.1058333,0 -0.042333,-0.0423 -0.1481667,-0.10584 -0.1905,-0.16934 -0.0635,-0.0423 -0.1058334,-0.0847 -0.127,-0.14816 -0.042333,-0.0423 -0.0635,-0.0847 -0.1058334,-0.14817 -0.021167,-0.0847 -0.0635,-0.16933 -0.084667,-0.254 -0.021167,-0.0847 -0.042333,-0.1905 -0.0635,-0.29633 -0.021167,-0.10584 -0.042333,-0.23284 -0.0635,-0.40217 -0.021167,-0.14817 -0.042333,-0.381 -0.042333,-0.52917 -0.021167,-0.14816 0,-0.21166 0,-0.33866 0,-0.127 0,-0.29634 0,-0.46567 0,-0.14817 0,-0.35983 0,-0.508 0,-0.14817 -0.042333,-0.254 -0.021167,-0.3175 m 2.2225,-0.1905 c 0,-0.10583 0,-0.21167 0.021167,-0.381 0.021167,-0.1905 0.084667,-0.48683 0.127,-0.6985 0.042333,-0.1905 0.0635,-0.3175 0.127,-0.48683 0.0635,-0.16934 0.1481667,-0.35984 0.2116667,-0.508 0.084667,-0.14817 0.1481666,-0.29634 0.2116666,-0.40217 0.084667,-0.127 0.1693334,-0.254 0.254,-0.33867 0.084667,-0.0847 0.1693334,-0.14816 0.254,-0.21166 0.084667,-0.0635 0.1693334,-0.10584 0.254,-0.14817 0.084667,-0.0423 0.1481667,-0.0847 0.2328334,-0.10583 0.0635,-0.0212 0.1481666,-0.0212 0.2328333,-0.0212 0.084667,0 0.2328333,0.0212 0.3175,0.0212 0.084667,0.0212 0.1058333,0.0212 0.1693333,0.0423 0.0635,0.0212 0.1481667,0.0423 0.2116667,0.0847 0.0635,0.0423 0.1481667,0.10583 0.2116667,0.16933 0.0635,0.0423 0.084667,0.0847 0.1481666,0.14817 0.0635,0.0635 0.1481667,0.16933 0.2116667,0.27516 0.0635,0.0847 0.12699998,0.1905 0.16933331,0.27517 0.0635,0.0635 0.0846667,0.127 0.127,0.21167 0.0423333,0.0635 0.0635,0.14816 0.0846667,0.23283 0.0211667,0.0847 0.0423333,0.16933 0.0635,0.29633 0.0211667,0.10584 0.0846667,0.27517 0.10583333,0.40217 0.0211667,0.10583 0.0423333,0.14817 0.0635,0.254 0.0211667,0.127 0.0635,0.254 0.0846667,0.40217 0,0.14816 0.0211667,0.254 0.0211667,0.4445 0.0211667,0.1905 0.0211667,0.4445 0.0423333,0.67733 0.0211667,0.254 0.0423333,0.55033 0.0423333,0.762 0,0.1905 0,0.23283 -0.0423333,0.46567 -0.0423333,0.23283 -0.10583333,0.67733 -0.16933333,0.9525 -0.0635,0.254 -0.127,0.52916 -0.1905,0.6985 -0.0846667,0.14816 -0.19049999,0.21166 -0.25399999,0.254 -0.0635,0.0212 -0.0635,0.0212 -0.10583332,0 -0.0635,-0.0423 -0.1481666,-0.10584 -0.2116666,-0.16934 -0.0635,-0.0423 -0.084667,-0.0847 -0.127,-0.14816 -0.042333,-0.0423 -0.0635,-0.0847 -0.084667,-0.14817 -0.042333,-0.0847 -0.084667,-0.16933 -0.1058333,-0.254 -0.021167,-0.0847 -0.042333,-0.1905 -0.0635,-0.29633 0,-0.10584 -0.021167,-0.23284 -0.042333,-0.40217 -0.021167,-0.14817 -0.0635,-0.381 -0.0635,-0.52917 -0.021167,-0.14816 0,-0.21166 0,-0.33866 0,-0.127 0,-0.29634 0,-0.46567 0,-0.14817 0,-0.35983 0,-0.508 0,-0.14817 -0.021167,-0.254 -0.021167,-0.3175 m -4.8683333,-0.1905 c 0,-0.10583 0,-0.21167 0.021167,-0.381 0.021167,-0.1905 0.084667,-0.48683 0.127,-0.6985 0.042333,-0.1905 0.084667,-0.3175 0.1269999,-0.48683 0.0635,-0.16934 0.1481667,-0.35984 0.2328334,-0.508 0.0635,-0.14817 0.127,-0.29634 0.1905,-0.40217 0.084667,-0.127 0.1693333,-0.254 0.254,-0.33867 0.084667,-0.0847 0.1693333,-0.14816 0.254,-0.21166 0.084667,-0.0635 0.1693333,-0.10584 0.254,-0.14817 0.0635,-0.0423 0.1481666,-0.0847 0.2328333,-0.10583 0.0635,-0.0212 0.127,-0.0212 0.2116667,-0.0212 0.1058333,0 0.2328333,0.0212 0.3175,0.0212 0.084667,0.0212 0.127,0.0212 0.1905,0.0423 0.0635,0.0212 0.127,0.0423 0.1905,0.0847 0.0635,0.0423 0.1481666,0.10583 0.2116666,0.16933 0.0635,0.0423 0.084667,0.0847 0.1481667,0.14817 0.0635,0.0635 0.1481666,0.16933 0.2116666,0.27516 0.0635,0.0847 0.127,0.1905 0.1693334,0.27517 0.0635,0.0635 0.084667,0.127 0.127,0.21167 0.021167,0.0635 0.042333,0.14816 0.084667,0.23283 0.021167,0.0847 0.021167,0.16933 0.0635,0.29633 0.021167,0.10584 0.0635,0.27517 0.1058334,0.40217 0.021167,0.10583 0.042333,0.14817 0.0635,0.254 0.021167,0.127 0.042333,0.254 0.0635,0.40217 0.021167,0.14816 0.021167,0.254 0.042333,0.4445 0,0.1905 0.021167,0.4445 0.021167,0.67733 0.021167,0.254 0.0635,0.55033 0.0635,0.762 0,0.1905 -0.021167,0.23283 -0.0635,0.46567 -0.021167,0.23283 -0.084667,0.67733 -0.1481667,0.9525 -0.0635,0.254 -0.127,0.52916 -0.1905,0.6985 -0.084667,0.14816 -0.2116667,0.21166 -0.254,0.254 -0.0635,0.0212 -0.0635,0.0212 -0.1058333,0 -0.0635,-0.0423 -0.1481667,-0.10584 -0.2116667,-0.16934 -0.0635,-0.0423 -0.084667,-0.0847 -0.127,-0.14816 -0.042333,-0.0423 -0.0635,-0.0847 -0.084667,-0.14817 -0.042333,-0.0847 -0.084667,-0.16933 -0.1058334,-0.254 -0.021167,-0.0847 -0.021167,-0.1905 -0.042333,-0.29633 -0.021167,-0.10584 -0.042333,-0.23284 -0.0635,-0.40217 -0.021167,-0.14817 -0.042333,-0.381 -0.0635,-0.52917 0,-0.14816 0,-0.21166 0,-0.33866 0,-0.127 0,-0.29634 0,-0.46567 0,-0.14817 0,-0.35983 0,-0.508 0,-0.14817 -0.021167,-0.254 -0.021167,-0.3175 m 2.2648333,-0.0635 c 0.021167,-0.29633 0.021167,-0.5715 0.042333,-0.84667 0.042333,-0.27516 0.1058333,-0.61383 0.127,-0.78316 0.021167,-0.14817 0.021167,-0.0847 0.021167,-0.14817 0.021167,-0.0635 0.042333,-0.16933 0.042333,-0.23283 0.021167,-0.0847 0.021167,-0.127 0.042333,-0.21167 0,-0.0635 0.042333,-0.1905 0.0635,-0.23283 0,-0.0635 0.021167,-0.0847 0.042333,-0.127 0.021167,-0.0423 0.0635,-0.10584 0.084667,-0.14817 0.021167,-0.0423 0.042333,-0.0635 0.0635,-0.0847 0.021167,-0.0423 0.042333,-0.0635 0.042333,-0.10583 0.021167,-0.0423 0.042333,-0.0847 0.0635,-0.127 0.042333,-0.0212 0.084667,-0.0423 0.127,-0.0635 0.042333,-0.0423 0.084667,-0.0635 0.12699998,-0.0847 0.0423333,-0.0212 0.0635,-0.0423 0.10583334,-0.0635 0.0423333,-0.0212 0.10583333,-0.0212 0.14816666,-0.0212 0.0423333,-0.0212 0.0423333,-0.0212 0.0846667,0 0.0423333,0 0.127,0 0.19049999,0 0.0635,0.0212 0.127,0.0212 0.16933334,0.0423 0.0635,0 0.10583333,0.0423 0.14816666,0.0635 0.04233333,0.0212 0.10583333,0.0423 0.14816667,0.0635 0.04233333,0.0212 0.04233333,0.0212 0.08466666,0.0635 0.0211667,0.0212 0.084664,0.0635 0.12699735,0.10583 0.0423333,0.0212 0,-0.0212 0.0846667,0.0847 0.0846667,0.127 0.35983333,0.48683 0.44449999,0.635 0.0635,0.14817 0.0211667,0.127 0.0423333,0.254 0.0423333,0.127 0.0846667,0.381 0.12699999,0.508 0.0423333,0.127 0.0846667,0.16933 0.12699997,0.254 0.021167,0.0847 0,0.16933 0.021167,0.254 0,0.0847 0.021167,0.16933 0.042333,0.254 0.021167,0.10583 0.0635,0.23283 0.084667,0.3175 0,0.0847 0.021167,0.14817 0.042333,0.21167 0,0.0423 0,0.0635 0,0.0847 0.021167,0.0423 0.021167,0.0635 0.021167,0.10584 m -13.9276645,0 h 3.4290006 m 10.4986639,0 h 3.9793333 m 21.1666662,-0.14817 c 0,-0.10583 0,-0.21167 0.02117,-0.381 0.02117,-0.1905 0.08467,-0.48683 0.127,-0.6985 0.04233,-0.1905 0.0635,-0.3175 0.127,-0.48683 0.04233,-0.16934 0.148167,-0.35984 0.211667,-0.508 0.0635,-0.14817 0.127,-0.29634 0.211667,-0.40217 0.0635,-0.127 0.148166,-0.254 0.232833,-0.33867 0.08467,-0.0847 0.1905,-0.14816 0.275167,-0.21166 0.08467,-0.0635 0.148166,-0.10584 0.232833,-0.14817 0.08467,-0.0423 0.148167,-0.0847 0.232833,-0.10583 0.08467,-0.0212 0.148167,-0.0212 0.232834,-0.0212 0.08467,0 0.232833,0.0212 0.296333,0.0212 0.08467,0.0212 0.127,0.0212 0.1905,0.0423 0.0635,0.0212 0.127,0.0423 0.1905,0.0847 0.08467,0.0423 0.148167,0.10583 0.211667,0.16933 0.0635,0.0423 0.105833,0.0847 0.169333,0.14817 0.0635,0.0635 0.148167,0.16933 0.211667,0.27516 0.0635,0.0847 0.105833,0.1905 0.169333,0.27517 0.04233,0.0635 0.08467,0.127 0.105833,0.21167 0.04233,0.0635 0.0635,0.14816 0.08467,0.23283 0.02117,0.0847 0.04233,0.16933 0.0635,0.29633 0.04233,0.10584 0.08467,0.27517 0.105833,0.40217 0.02117,0.10583 0.04233,0.14817 0.0635,0.254 0.02117,0.127 0.0635,0.254 0.08467,0.40217 0,0.14816 0.02117,0.254 0.02117,0.4445 0.02117,0.1905 0.02117,0.4445 0.04233,0.67733 0,0.254 0.04233,0.55033 0.04233,0.762 0,0.1905 0,0.23283 -0.04233,0.46567 -0.04233,0.23283 -0.105833,0.67733 -0.169333,0.9525 -0.0635,0.254 -0.105834,0.52916 -0.1905,0.6985 -0.0635,0.14816 -0.1905,0.21166 -0.254,0.254 -0.0635,0.0212 -0.04233,0.0212 -0.105834,0 -0.04233,-0.0423 -0.148166,-0.10584 -0.211666,-0.16934 -0.04233,-0.0423 -0.08467,-0.0847 -0.127,-0.14816 -0.02117,-0.0423 -0.04233,-0.0847 -0.08467,-0.14817 -0.02117,-0.0847 -0.0635,-0.16933 -0.08467,-0.254 -0.02117,-0.0847 -0.04233,-0.1905 -0.0635,-0.29633 -0.02117,-0.10584 -0.04233,-0.23284 -0.0635,-0.40217 -0.02117,-0.14817 -0.04233,-0.381 -0.04233,-0.52917 -0.02117,-0.14816 0,-0.21166 0,-0.33866 0,-0.127 0,-0.29634 0,-0.46567 0,-0.14817 0,-0.35983 0,-0.508 -0.02117,-0.14817 -0.04233,-0.254 -0.02117,-0.3175 m 2.2225,-0.1905 c 0,-0.10583 -0.02117,-0.21167 0.02117,-0.381 0.02117,-0.1905 0.08467,-0.48683 0.127,-0.6985 0.04233,-0.1905 0.0635,-0.3175 0.127,-0.48683 0.04233,-0.16934 0.148167,-0.35984 0.211667,-0.508 0.0635,-0.14817 0.127,-0.29634 0.211666,-0.40217 0.0635,-0.127 0.148167,-0.254 0.232834,-0.33867 0.08467,-0.0847 0.1905,-0.14816 0.275166,-0.21166 0.08467,-0.0635 0.148167,-0.10584 0.232834,-0.14817 0.08467,-0.0423 0.148166,-0.0847 0.232833,-0.10583 0.0635,-0.0212 0.127,-0.0212 0.232833,-0.0212 0.08467,0 0.232834,0.0212 0.296334,0.0212 0.08467,0.0212 0.127,0.0212 0.1905,0.0423 0.0635,0.0212 0.127,0.0423 0.1905,0.0847 0.0635,0.0423 0.148166,0.10583 0.211666,0.16933 0.0635,0.0423 0.105834,0.0847 0.169334,0.14817 0.0635,0.0635 0.148166,0.16933 0.1905,0.27516 0.0635,0.0847 0.127,0.1905 0.1905,0.27517 0.04233,0.0635 0.08467,0.127 0.105833,0.21167 0.04233,0.0635 0.0635,0.14816 0.08467,0.23283 0.02117,0.0847 0.04233,0.16933 0.0635,0.29633 0.04233,0.10584 0.08467,0.27517 0.105833,0.40217 0.02117,0.10583 0.04233,0.14817 0.0635,0.254 0.02117,0.127 0.0635,0.254 0.08467,0.40217 0,0.14816 0.02117,0.254 0.02117,0.4445 0.02117,0.1905 0.02117,0.4445 0.04233,0.67733 0,0.254 0.04233,0.55033 0.04233,0.762 0,0.1905 -0.02117,0.23283 -0.04233,0.46567 -0.04233,0.23283 -0.105834,0.67733 -0.169334,0.9525 -0.0635,0.254 -0.127,0.52916 -0.1905,0.6985 -0.08467,0.14816 -0.1905,0.21166 -0.254,0.254 -0.0635,0.0212 -0.04233,0.0212 -0.105833,0 -0.04233,-0.0423 -0.148167,-0.10584 -0.211667,-0.16934 -0.04233,-0.0423 -0.08467,-0.0847 -0.127,-0.14816 -0.02117,-0.0423 -0.0635,-0.0847 -0.08467,-0.14817 -0.02117,-0.0847 -0.0635,-0.16933 -0.08467,-0.254 -0.02117,-0.0847 -0.04233,-0.1905 -0.0635,-0.29633 -0.02117,-0.10584 -0.04233,-0.23284 -0.0635,-0.40217 -0.02117,-0.14817 -0.04233,-0.381 -0.04233,-0.52917 -0.02117,-0.14816 0,-0.21166 0,-0.33866 0,-0.127 0,-0.29634 0,-0.46567 0,-0.14817 0,-0.35983 0,-0.508 -0.02117,-0.14817 -0.04233,-0.254 -0.04233,-0.3175 m -4.868333,-0.1905 c 0,-0.10583 0,-0.21167 0.02117,-0.381 0.02117,-0.1905 0.08467,-0.48683 0.127,-0.6985 0.04233,-0.1905 0.0635,-0.3175 0.127,-0.48683 0.0635,-0.16934 0.148166,-0.35984 0.211666,-0.508 0.08467,-0.14817 0.148167,-0.29634 0.211667,-0.40217 0.08467,-0.127 0.169333,-0.254 0.254,-0.33867 0.08467,-0.0847 0.169333,-0.14816 0.254,-0.21166 0.08467,-0.0635 0.169333,-0.10584 0.232833,-0.14817 0.08467,-0.0423 0.169334,-0.0847 0.232834,-0.10583 0.08467,-0.0212 0.148166,-0.0212 0.232833,-0.0212 0.08467,0 0.232833,0.0212 0.3175,0.0212 0.08467,0.0212 0.127,0.0212 0.1905,0.0423 0.0635,0.0212 0.127,0.0423 0.1905,0.0847 0.0635,0.0423 0.148167,0.10583 0.211667,0.16933 0.04233,0.0423 0.08467,0.0847 0.148166,0.14817 0.0635,0.0635 0.148167,0.16933 0.211667,0.27516 0.0635,0.0847 0.127,0.1905 0.169333,0.27517 0.04233,0.0635 0.08467,0.127 0.127,0.21167 0.02117,0.0635 0.04233,0.14816 0.0635,0.23283 0.04233,0.0847 0.04233,0.16933 0.08467,0.29633 0.02117,0.10584 0.0635,0.27517 0.105833,0.40217 0.02117,0.10583 0.04233,0.14817 0.0635,0.254 0.02117,0.127 0.04233,0.254 0.0635,0.40217 0.02117,0.14816 0.02117,0.254 0.04233,0.4445 0,0.1905 0.02117,0.4445 0.02117,0.67733 0.02117,0.254 0.04233,0.55033 0.04233,0.762 0,0.1905 0,0.23283 -0.04233,0.46567 -0.02117,0.23283 -0.105833,0.67733 -0.148166,0.9525 -0.0635,0.254 -0.127,0.52916 -0.211667,0.6985 -0.0635,0.14816 -0.1905,0.21166 -0.232833,0.254 -0.0635,0.0212 -0.0635,0.0212 -0.105834,0 -0.0635,-0.0423 -0.169333,-0.10584 -0.211666,-0.16934 -0.0635,-0.0423 -0.08467,-0.0847 -0.127,-0.14816 -0.04233,-0.0423 -0.0635,-0.0847 -0.08467,-0.14817 -0.04233,-0.0847 -0.08467,-0.16933 -0.105833,-0.254 -0.02117,-0.0847 -0.04233,-0.1905 -0.0635,-0.29633 0,-0.10584 -0.02117,-0.23284 -0.04233,-0.40217 -0.02117,-0.14817 -0.0635,-0.381 -0.0635,-0.52917 0,-0.14816 0,-0.21166 0,-0.33866 0,-0.127 0,-0.29634 0,-0.46567 0,-0.14817 0,-0.35983 0,-0.508 0,-0.14817 -0.02117,-0.254 -0.02117,-0.3175 m 2.264833,0.0635 c 0,-0.27517 0.02117,-0.5715 0.04233,-0.84667 0.02117,-0.254 0.105834,-0.61383 0.127,-0.762 0.02117,-0.16933 0.02117,-0.10583 0.02117,-0.16933 0.02117,-0.0635 0.04233,-0.14817 0.04233,-0.23283 0.02117,-0.0635 0.02117,-0.127 0.04233,-0.1905 0,-0.0847 0.04233,-0.1905 0.0635,-0.254 0.02117,-0.0635 0.02117,-0.0847 0.04233,-0.127 0.02117,-0.0423 0.0635,-0.10584 0.08467,-0.14817 0.02117,-0.0423 0.04233,-0.0635 0.0635,-0.0847 0.02117,-0.0423 0.04233,-0.0635 0.0635,-0.10583 0.02117,-0.0212 0.02117,-0.0847 0.0635,-0.10583 0.02117,-0.0423 0.0635,-0.0635 0.105833,-0.0847 0.04233,-0.0212 0.105833,-0.0635 0.148167,-0.0847 0.04233,-0.0212 0.0635,-0.0423 0.105833,-0.0635 0.04233,0 0.105833,-0.0212 0.148167,-0.0212 0.04233,0 0.04233,0 0.08467,0 0.04233,0 0.127,0 0.1905,0.0212 0.04233,0 0.105834,0 0.169334,0.0212 0.0635,0.0212 0.105833,0.0423 0.148166,0.0635 0.0635,0.0212 0.105834,0.0635 0.148167,0.0847 0.04233,0.0212 0.04233,0.0212 0.08467,0.0423 0.02117,0.0212 0.08467,0.0635 0.127,0.10583 0.04233,0.0423 0,-0.0212 0.08467,0.0847 0.105834,0.127 0.359834,0.48683 0.4445,0.635 0.08467,0.14817 0.04233,0.127 0.0635,0.254 0.02117,0.127 0.08467,0.381 0.127,0.508 0.04233,0.127 0.08467,0.16933 0.105834,0.254 0.02117,0.0847 0.02117,0.16933 0.04233,0.254 0,0.0847 0.02117,0.16933 0.04233,0.27517 0.02117,0.0847 0.04233,0.21166 0.0635,0.29633 0.02117,0.0847 0.04233,0.16933 0.0635,0.21167 0,0.0423 0,0.0635 0,0.0847 0,0.0423 0.02117,0.0847 0.02117,0.10584 m -13.927667,0 h 3.386667 m 10.541,0 h 3.915833 m 26.818167,-0.27517 c 0,-0.10583 0,-0.21167 0.02117,-0.381 0.02117,-0.1905 0.08467,-0.48683 0.127,-0.6985 0.04233,-0.1905 0.0635,-0.3175 0.127,-0.48683 0.0635,-0.16934 0.148167,-0.35984 0.211667,-0.508 0.08467,-0.14817 0.148166,-0.29634 0.211666,-0.40217 0.08467,-0.127 0.169334,-0.254 0.254,-0.33867 0.08467,-0.0847 0.169334,-0.14816 0.254,-0.21166 0.08467,-0.0635 0.169334,-0.10584 0.254,-0.14817 0.0635,-0.0423 0.148167,-0.0847 0.211667,-0.10583 0.08467,-0.0212 0.148167,-0.0212 0.232833,-0.0212 0.105834,0 0.232834,0.0212 0.3175,0.0212 0.08467,0.0212 0.127,0.0212 0.1905,0.0423 0.0635,0.0212 0.127,0.0423 0.1905,0.0847 0.0635,0.0423 0.148167,0.10583 0.211667,0.16933 0.0635,0.0423 0.08467,0.0847 0.148167,0.14817 0.0635,0.0635 0.148166,0.16933 0.211666,0.27516 0.0635,0.0847 0.127,0.1905 0.169334,0.27517 0.04233,0.0635 0.08467,0.127 0.127,0.21167 0.02117,0.0635 0.04233,0.14816 0.0635,0.23283 0.04233,0.0847 0.04233,0.16933 0.08467,0.29633 0.02117,0.10584 0.0635,0.27517 0.105834,0.40217 0.02117,0.10583 0.04233,0.14817 0.0635,0.254 0.02117,0.127 0.04233,0.254 0.0635,0.40217 0.02117,0.14816 0.02117,0.254 0.04233,0.4445 0,0.1905 0.02117,0.4445 0.02117,0.67733 0.02117,0.254 0.0635,0.55033 0.0635,0.762 0,0.1905 -0.02117,0.23283 -0.0635,0.46567 -0.02117,0.23283 -0.08467,0.67733 -0.148167,0.9525 -0.0635,0.254 -0.127,0.52916 -0.1905,0.6985 -0.08467,0.14816 -0.211667,0.21166 -0.254,0.254 -0.0635,0.0212 -0.0635,0.0212 -0.105833,0 -0.0635,-0.0423 -0.148167,-0.10584 -0.211667,-0.16934 -0.0635,-0.0423 -0.08467,-0.0847 -0.127,-0.14816 -0.04233,-0.0423 -0.0635,-0.0847 -0.08467,-0.14817 -0.04233,-0.0847 -0.08467,-0.16933 -0.105833,-0.254 -0.02117,-0.0847 -0.04233,-0.1905 -0.04233,-0.29633 -0.02117,-0.10584 -0.04233,-0.23284 -0.0635,-0.40217 -0.02117,-0.14817 -0.04233,-0.381 -0.0635,-0.52917 0,-0.14816 0,-0.21166 0,-0.33866 0,-0.127 0,-0.29634 0,-0.46567 0,-0.14817 0,-0.35983 0,-0.508 0,-0.14817 -0.02117,-0.254 -0.02117,-0.3175 m 2.2225,-0.1905 c 0,-0.10583 0,-0.21167 0.02117,-0.381 0.02117,-0.1905 0.08467,-0.48683 0.127,-0.6985 0.04233,-0.1905 0.0635,-0.3175 0.127,-0.48683 0.0635,-0.16934 0.148166,-0.35984 0.232833,-0.508 0.0635,-0.14817 0.127,-0.29634 0.211667,-0.40217 0.0635,-0.127 0.148166,-0.254 0.232833,-0.33867 0.08467,-0.0847 0.1905,-0.14816 0.275167,-0.21166 0.08467,-0.0635 0.169333,-0.10584 0.232833,-0.14817 0.08467,-0.0423 0.169333,-0.0847 0.232833,-0.10583 0.08467,-0.0212 0.148167,-0.0212 0.232834,-0.0212 0.105833,0 0.232833,0.0212 0.3175,0.0212 0.08467,0.0212 0.127,0.0212 0.1905,0.0423 0.0635,0.0212 0.127,0.0423 0.1905,0.0847 0.0635,0.0423 0.148166,0.10583 0.211666,0.16933 0.0635,0.0423 0.105834,0.0847 0.169334,0.14817 0.0635,0.0635 0.148166,0.16933 0.211666,0.27516 0.0635,0.0847 0.127,0.1905 0.169334,0.27517 0.04233,0.0635 0.08467,0.127 0.105833,0.21167 0.04233,0.0635 0.0635,0.14816 0.08467,0.23283 0.02117,0.0847 0.04233,0.16933 0.08467,0.29633 0.02117,0.10584 0.0635,0.27517 0.08467,0.40217 0.04233,0.10583 0.0635,0.14817 0.08467,0.254 0.02117,0.127 0.04233,0.254 0.0635,0.40217 0.02117,0.14816 0.02117,0.254 0.04233,0.4445 0,0.1905 0.02117,0.4445 0.02117,0.67733 0.02117,0.254 0.0635,0.55033 0.0635,0.762 0,0.1905 -0.02117,0.23283 -0.0635,0.46567 -0.02117,0.23283 -0.105834,0.67733 -0.148167,0.9525 -0.0635,0.254 -0.127,0.52916 -0.211667,0.6985 -0.0635,0.14816 -0.1905,0.21166 -0.254,0.254 -0.0635,0.0212 -0.04233,0.0212 -0.105833,0 -0.04233,-0.0423 -0.148167,-0.10584 -0.211667,-0.16934 -0.04233,-0.0423 -0.08467,-0.0847 -0.127,-0.14816 -0.02117,-0.0423 -0.0635,-0.0847 -0.08467,-0.14817 -0.02117,-0.0847 -0.0635,-0.16933 -0.08467,-0.254 -0.04233,-0.0847 -0.04233,-0.1905 -0.0635,-0.29633 -0.02117,-0.10584 -0.04233,-0.23284 -0.0635,-0.40217 -0.02117,-0.14817 -0.04233,-0.381 -0.0635,-0.52917 0,-0.14816 0,-0.21166 0,-0.33866 0,-0.127 0,-0.29634 0,-0.46567 0,-0.14817 0.02117,-0.35983 0,-0.508 0,-0.14817 -0.02117,-0.254 -0.02117,-0.3175 m -4.847166,-0.1905 c 0,-0.10583 0,-0.21167 0.02117,-0.381 0.02117,-0.1905 0.08467,-0.48683 0.127,-0.6985 0.04233,-0.1905 0.0635,-0.3175 0.127,-0.48683 0.04233,-0.16934 0.148167,-0.35984 0.211667,-0.508 0.0635,-0.14817 0.127,-0.29634 0.211667,-0.40217 0.0635,-0.127 0.148166,-0.254 0.232833,-0.33867 0.08467,-0.0847 0.1905,-0.14816 0.275167,-0.21166 0.08467,-0.0635 0.148166,-0.10584 0.232833,-0.14817 0.08467,-0.0423 0.148167,-0.0847 0.232833,-0.10583 0.08467,-0.0212 0.148167,-0.0212 0.232834,-0.0212 0.08467,0 0.232833,0.0212 0.296333,0.0212 0.08467,0.0212 0.127,0.0212 0.1905,0.0423 0.0635,0.0212 0.127,0.0423 0.1905,0.0847 0.08467,0.0423 0.148167,0.10583 0.211667,0.16933 0.0635,0.0423 0.105833,0.0847 0.169333,0.14817 0.0635,0.0635 0.148167,0.16933 0.211667,0.27516 0.0635,0.0847 0.105833,0.1905 0.169333,0.27517 0.04233,0.0635 0.08467,0.127 0.105833,0.21167 0.04233,0.0635 0.0635,0.14816 0.08467,0.23283 0.02117,0.0847 0.04233,0.16933 0.0635,0.29633 0.04233,0.10584 0.08467,0.27517 0.105833,0.40217 0.02117,0.10583 0.04233,0.14817 0.0635,0.254 0.02117,0.127 0.0635,0.254 0.08467,0.40217 0,0.14816 0.02117,0.254 0.02117,0.4445 0.02117,0.1905 0.02117,0.4445 0.04233,0.67733 0,0.254 0.04233,0.55033 0.04233,0.762 0,0.1905 0,0.23283 -0.04233,0.46567 -0.04233,0.23283 -0.105833,0.67733 -0.169333,0.9525 -0.0635,0.254 -0.105834,0.52916 -0.1905,0.6985 -0.0635,0.14816 -0.1905,0.21166 -0.254,0.254 -0.0635,0.0212 -0.04233,0.0212 -0.105834,0 -0.04233,-0.0423 -0.148166,-0.10584 -0.211666,-0.16934 -0.04233,-0.0423 -0.08467,-0.0847 -0.127,-0.14816 -0.02117,-0.0423 -0.04233,-0.0847 -0.08467,-0.14817 -0.02117,-0.0847 -0.0635,-0.16933 -0.08467,-0.254 -0.02117,-0.0847 -0.04233,-0.1905 -0.0635,-0.29633 -0.02117,-0.10584 -0.04233,-0.23284 -0.0635,-0.40217 -0.02117,-0.14817 -0.04233,-0.381 -0.04233,-0.52917 -0.02117,-0.14816 0,-0.21166 0,-0.33866 0,-0.127 0,-0.29634 0,-0.46567 0,-0.14817 0,-0.35983 0,-0.508 -0.02117,-0.14817 -0.04233,-0.254 -0.02117,-0.3175 m 2.264834,-0.0635 c 0,-0.29633 0,-0.5715 0.04233,-0.84667 0.02117,-0.27516 0.08467,-0.61383 0.105833,-0.78316 0.02117,-0.14817 0.02117,-0.0847 0.04233,-0.14817 0,-0.0635 0.02117,-0.16933 0.04233,-0.23283 0,-0.0847 0,-0.127 0.02117,-0.21167 0.02117,-0.0635 0.04233,-0.1905 0.0635,-0.23283 0.02117,-0.0635 0.04233,-0.0847 0.0635,-0.127 0.02117,-0.0423 0.04233,-0.10584 0.0635,-0.14817 0.02117,-0.0423 0.04233,-0.0635 0.0635,-0.0847 0.02117,-0.0423 0.04233,-0.0635 0.0635,-0.10583 0.02117,-0.0423 0.02117,-0.0847 0.0635,-0.127 0.02117,-0.0212 0.0635,-0.0423 0.105833,-0.0635 0.04233,-0.0423 0.105833,-0.0635 0.148167,-0.0847 0.02117,-0.0212 0.0635,-0.0423 0.105833,-0.0635 0.02117,-0.0212 0.105833,-0.0212 0.148167,-0.0212 0.02117,-0.0212 0.04233,-0.0212 0.08467,0 0.04233,0 0.105834,0 0.169334,0 0.0635,0.0212 0.127,0.0212 0.1905,0.0423 0.04233,0 0.08467,0.0423 0.148166,0.0635 0.04233,0.0212 0.105834,0.0423 0.148167,0.0635 0.02117,0.0212 0.02117,0.0212 0.0635,0.0635 0.04233,0.0212 0.105833,0.0635 0.127,0.10583 0.04233,0.0212 0.02117,-0.0212 0.105833,0.0847 0.08467,0.127 0.338667,0.48683 0.423334,0.635 0.08467,0.14817 0.02117,0.127 0.0635,0.254 0.02117,0.127 0.0635,0.381 0.105833,0.508 0.04233,0.127 0.105833,0.16933 0.127,0.254 0.02117,0.0847 0.02117,0.16933 0.02117,0.254 0.02117,0.0847 0.04233,0.16933 0.04233,0.254 0.02117,0.10583 0.0635,0.23283 0.08467,0.3175 0.02117,0.0847 0.04233,0.14817 0.04233,0.21167 0.02117,0.0423 0.02117,0.0635 0.02117,0.0847 0,0.0423 0,0.0635 0,0.10584 m -13.927667,0 h 3.450167 m 10.4775,0 h 3.979333 m -76.4116652,0.0847 H 24.233678 m 14.1605,0 h 25.484666 m -76.538663,20.36234 h 103.92833 m -10.3505,-20.36234 h 12.297833 m -86.8679991,0 v 7.366 m 0,12.78467 v -8.9535"
         style="fill:none;stroke:#000000;stroke-width:0.264583;stroke-linecap:round;stroke-linejoin:round;stroke-miterlimit:10;stroke-dasharray:none;stroke-opacity:1" />
      <path
         id="path61"
         d="M 0.73867835,192.20838 H 11.533678"
         style="fill:none;stroke:#000000;stroke-width:0.529167;stroke-linecap:butt;stroke-linejoin:round;stroke-miterlimit:10;stroke-dasharray:none;stroke-opacity:1" />
      <path
         id="path62"
         d="m 41.357511,181.77321 v 8.1915"
         style="fill:none;stroke:#000000;stroke-width:0.264583;stroke-linecap:round;stroke-linejoin:round;stroke-miterlimit:10;stroke-dasharray:none;stroke-opacity:1" />
      <path
         id="path63"
         d="m 41.357511,201.92388 v -8.9535"
         style="fill:none;stroke:#000000;stroke-width:0.264583;stroke-linecap:round;stroke-linejoin:round;stroke-miterlimit:10;stroke-dasharray:none;stroke-opacity:1" />
      <path
         id="path64"
         d="M 35.790678,192.56821 H 46.606844"
         style="fill:none;stroke:#000000;stroke-width:0.529167;stroke-linecap:butt;stroke-linejoin:round;stroke-miterlimit:10;stroke-dasharray:none;stroke-opacity:1" />
      <path
         id="path65"
         d="m 82.399677,181.77321 v 8.1915"
         style="fill:none;stroke:#000000;stroke-width:0.264583;stroke-linecap:round;stroke-linejoin:round;stroke-miterlimit:10;stroke-dasharray:none;stroke-opacity:1" />
      <path
         id="path66"
         d="m 82.399677,201.92388 v -8.9535"
         style="fill:none;stroke:#000000;stroke-width:0.264583;stroke-linecap:round;stroke-linejoin:round;stroke-miterlimit:10;stroke-dasharray:none;stroke-opacity:1" />
      <path
         id="path67"
         d="m 76.811677,189.96471 h 10.795"
         style="fill:none;stroke:#000000;stroke-width:0.529167;stroke-linecap:butt;stroke-linejoin:round;stroke-miterlimit:10;stroke-dasharray:none;stroke-opacity:1" />
      <path
         id="path68"
         d="m 76.811677,192.56821 h 10.795"
         style="fill:none;stroke:#000000;stroke-width:0.529167;stroke-linecap:butt;stroke-linejoin:round;stroke-miterlimit:10;stroke-dasharray:none;stroke-opacity:1" />
      <path
         id="path69"
         d="m 15.640011,200.25171 c -1.015999,0 -1.841499,0.8255 -1.841499,1.8415 0,1.016 0.8255,1.86267 1.841499,1.86267 1.037167,0 1.862667,-0.84667 1.862667,-1.86267 0,-1.016 -0.8255,-1.8415 -1.862667,-1.8415"
         style="fill:#ffffff;fill-opacity:1;fill-rule:evenodd;stroke:none;stroke-width:0.352777" />
      <path
         id="path70"
         d="m 15.640011,200.25171 c -1.015999,0 -1.841499,0.8255 -1.841499,1.8415 0,1.016 0.8255,1.86267 1.841499,1.86267 1.037167,0 1.862667,-0.84667 1.862667,-1.86267 0,-1.016 -0.8255,-1.8415 -1.862667,-1.8415 z"
         style="fill:none;stroke:#000000;stroke-width:0.264583;stroke-linecap:round;stroke-linejoin:round;stroke-miterlimit:10;stroke-dasharray:none;stroke-opacity:1" />
      <path
         id="path71"
         d="m 15.555345,179.86821 c -0.973667,0 -1.756833,0.80434 -1.756833,1.79917 0,0.97367 0.783166,1.778 1.756833,1.778 0.973666,0 1.756833,-0.80433 1.756833,-1.778 0,-0.99483 -0.783167,-1.79917 -1.756833,-1.79917"
         style="fill:#ffffff;fill-opacity:1;fill-rule:evenodd;stroke:none;stroke-width:0.352777" />
      <path
         id="path72"
         d="m 15.555345,179.86821 c -0.973667,0 -1.756833,0.80434 -1.756833,1.79917 0,0.97367 0.783166,1.778 1.756833,1.778 0.973666,0 1.756833,-0.80433 1.756833,-1.778 0,-0.99483 -0.783167,-1.79917 -1.756833,-1.79917 z"
         style="fill:none;stroke:#000000;stroke-width:0.264583;stroke-linecap:round;stroke-linejoin:round;stroke-miterlimit:10;stroke-dasharray:none;stroke-opacity:1" />
      <path
         id="path73"
         d="m 48.829344,200.25171 c -1.037166,0 -1.883833,0.8255 -1.883833,1.8415 0,1.016 0.846667,1.86267 1.883833,1.86267 1.037167,0 1.862667,-0.84667 1.862667,-1.86267 0,-1.016 -0.8255,-1.8415 -1.862667,-1.8415"
         style="fill:#ffffff;fill-opacity:1;fill-rule:evenodd;stroke:none;stroke-width:0.352777" />
      <path
         id="path74"
         d="m 48.829344,200.25171 c -1.037166,0 -1.883833,0.8255 -1.883833,1.8415 0,1.016 0.846667,1.86267 1.883833,1.86267 1.037167,0 1.862667,-0.84667 1.862667,-1.86267 0,-1.016 -0.8255,-1.8415 -1.862667,-1.8415 z"
         style="fill:none;stroke:#000000;stroke-width:0.264583;stroke-linecap:round;stroke-linejoin:round;stroke-miterlimit:10;stroke-dasharray:none;stroke-opacity:1" />
      <path
         id="path75"
         d="m 48.723511,179.86821 c -0.973667,0 -1.778,0.80434 -1.778,1.79917 0,0.97367 0.804333,1.778 1.778,1.778 0.973667,0 1.756833,-0.80433 1.756833,-1.778 0,-0.99483 -0.783166,-1.79917 -1.756833,-1.79917"
         style="fill:#ffffff;fill-opacity:1;fill-rule:evenodd;stroke:none;stroke-width:0.352777" />
      <path
         id="path76"
         d="m 48.723511,179.86821 c -0.973667,0 -1.778,0.80434 -1.778,1.79917 0,0.97367 0.804333,1.778 1.778,1.778 0.973667,0 1.756833,-0.80433 1.756833,-1.778 0,-0.99483 -0.783166,-1.79917 -1.756833,-1.79917 z"
         style="fill:none;stroke:#000000;stroke-width:0.264583;stroke-linecap:round;stroke-linejoin:round;stroke-miterlimit:10;stroke-dasharray:none;stroke-opacity:1" />
      <path
         id="path77"
         d="M 0.73867835,189.62605 H 11.533678"
         style="fill:none;stroke:#000000;stroke-width:0.529167;stroke-linecap:butt;stroke-linejoin:round;stroke-miterlimit:10;stroke-dasharray:none;stroke-opacity:1" />
      <path
         id="path78"
         d="M 35.790678,189.96471 H 46.606844"
         style="fill:none;stroke:#000000;stroke-width:0.529167;stroke-linecap:butt;stroke-linejoin:round;stroke-miterlimit:10;stroke-dasharray:none;stroke-opacity:1" />
      <path
         id="path79"
         d="m 51.009511,182.95855 v 3.78883"
         style="fill:none;stroke:#cc0000;stroke-width:0.529167;stroke-linecap:butt;stroke-linejoin:round;stroke-miterlimit:10;stroke-dasharray:none;stroke-opacity:1" />
      <path
         id="path80"
         d="m 49.019844,184.75771 h 4.064"
         style="fill:none;stroke:#cc0000;stroke-width:0.529167;stroke-linecap:butt;stroke-linejoin:round;stroke-miterlimit:10;stroke-dasharray:none;stroke-opacity:1" />
      <path
         id="path81"
         d="m 16.740678,197.81755 h 3.852333"
         style="fill:none;stroke:#cc0000;stroke-width:0.529167;stroke-linecap:butt;stroke-linejoin:round;stroke-miterlimit:10;stroke-dasharray:none;stroke-opacity:1" />
      <path
         id="path82"
         d="m 49.252678,198.21971 h 3.831166"
         style="fill:none;stroke:#cc0000;stroke-width:0.529167;stroke-linecap:butt;stroke-linejoin:round;stroke-miterlimit:10;stroke-dasharray:none;stroke-opacity:1" />
      <path
         id="path83"
         d="m 12.507345,178.89455 v -1.05834 h 8.255 v 1.05834 z m 7.725833,-1.5875 5.291667,1.05833 -5.291667,1.05833"
         style="fill:#0000ff;fill-opacity:1;fill-rule:nonzero;stroke:none;stroke-width:0.352777" />
      <path
         id="path84"
         d="m 44.532511,178.89455 v -1.05834 h 7.9375 v 1.05834 z m 7.408333,-1.5875 5.291667,1.05833 -5.291667,1.05833"
         style="fill:#0000ff;fill-opacity:1;fill-rule:nonzero;stroke:none;stroke-width:0.352777" />
      <path
         id="path85"
         d="m 18.815011,206.11488 h 26.902833 l 0.105834,0.0423 0.02117,0.0847 -0.02117,0.0847 -0.105834,0.0423 H 18.815011 l -0.08467,-0.0423 -0.04233,-0.0847 0.04233,-0.0847 z m 0.359834,0.8255 -3.534834,-0.6985 3.534834,-0.6985 z m 26.183166,-1.397 3.534833,0.6985 -3.534833,0.6985"
         style="fill:#000000;fill-opacity:1;fill-rule:nonzero;stroke:none;stroke-width:0.352777" />
      <path
         id="path86"
         d="m 16.042178,204.08288 v 5.86317"
         style="fill:none;stroke:#000000;stroke-width:0.264583;stroke-linecap:round;stroke-linejoin:round;stroke-miterlimit:10;stroke-dasharray:0.79375, 1.05833;stroke-dashoffset:0;stroke-opacity:1" />
      <path
         id="path87"
         d="m 48.808178,203.72305 v 6.477"
         style="fill:none;stroke:#000000;stroke-width:0.264583;stroke-linecap:round;stroke-linejoin:round;stroke-miterlimit:10;stroke-dasharray:0.79375, 1.05833;stroke-dashoffset:0;stroke-opacity:1" />
      <text
         id="text87"
         xml:space="preserve"
         x="7.0886817"
         y="175.14804"
         style="font-size:4.23333px;stroke-width:0.352777"><tspan
           id="tspan87"
           style="font-variant:normal;font-weight:normal;font-stretch:normal;font-size:7.04943px;font-family:Arial;writing-mode:lr-tb;fill:#0000ff;fill-opacity:1;fill-rule:nonzero;stroke:none;stroke-width:0.352777"
           x="7.0886817"
           y="175.14804">i(z) </tspan></text>
      <text
         id="text88"
         xml:space="preserve"
         x="43.389656"
         y="173.92003"
         style="font-size:4.23333px;stroke-width:0.352777"><tspan
           id="tspan88"
           style="font-variant:normal;font-weight:normal;font-stretch:normal;font-size:7.04943px;font-family:Arial;writing-mode:lr-tb;fill:#0000ff;fill-opacity:1;fill-rule:nonzero;stroke:none;stroke-width:0.352777"
           x="43.389656"
           y="173.92003">i(z+</tspan></text>
      <text
         id="text89"
         xml:space="preserve"
         x="54.946514"
         y="173.92038"
         style="font-size:4.23333px;stroke-width:0.352777"><tspan
           id="tspan89"
           style="font-variant:normal;font-weight:normal;font-stretch:normal;font-size:7.05115px;font-family:Symbol;writing-mode:lr-tb;fill:#0000ff;fill-opacity:1;fill-rule:nonzero;stroke:none;stroke-width:0.352777"
           x="54.946514"
           y="173.92038">Δ</tspan></text>
      <text
         id="text90"
         xml:space="preserve"
         x="59.264511"
         y="173.92038"
         style="font-size:4.23333px;stroke-width:0.352777"><tspan
           id="tspan90"
           style="font-variant:normal;font-weight:normal;font-stretch:normal;font-size:7.04943px;font-family:Arial;writing-mode:lr-tb;fill:#0000ff;fill-opacity:1;fill-rule:nonzero;stroke:none;stroke-width:0.352777"
           x="59.264511"
           y="173.92038">z)</tspan></text>
      <text
         id="text91"
         xml:space="preserve"
         x="-9.1465425"
         y="175.42332"
         style="font-size:4.23333px;stroke-width:0.352777"><tspan
           id="tspan91"
           style="font-variant:normal;font-weight:normal;font-stretch:normal;font-size:7.04943px;font-family:Arial;writing-mode:lr-tb;fill:#000000;fill-opacity:1;fill-rule:nonzero;stroke:none;stroke-width:0.352777"
           x="-9.1465425"
           y="175.42332">L</tspan></text>
      <text
         id="text92"
         xml:space="preserve"
         x="-5.2303171"
         y="175.42322"
         style="font-size:4.23333px;stroke-width:0.352777"><tspan
           id="tspan92"
           style="font-variant:normal;font-weight:normal;font-stretch:normal;font-size:7.05115px;font-family:Symbol;writing-mode:lr-tb;fill:#000000;fill-opacity:1;fill-rule:nonzero;stroke:none;stroke-width:0.352777"
           x="-5.2303171"
           y="175.42322">Δ</tspan></text>
      <text
         id="text93"
         xml:space="preserve"
         x="-0.91231948"
         y="175.42322"
         style="font-size:4.23333px;stroke-width:0.352777"><tspan
           id="tspan93"
           style="font-variant:normal;font-weight:normal;font-stretch:normal;font-size:7.04943px;font-family:Arial;writing-mode:lr-tb;fill:#000000;fill-opacity:1;fill-rule:nonzero;stroke:none;stroke-width:0.352777"
           x="-0.91231948"
           y="175.42322">z </tspan></text>
      <text
         id="text94"
         xml:space="preserve"
         x="13.396594"
         y="193.18211"
         style="font-size:4.23333px;stroke-width:0.352777"><tspan
           id="tspan94"
           style="font-variant:normal;font-weight:normal;font-stretch:normal;font-size:7.04943px;font-family:Arial;writing-mode:lr-tb;fill:#9a0033;fill-opacity:1;fill-rule:nonzero;stroke:none;stroke-width:0.352777"
           x="13.396594"
           y="193.18211">v(t,z) </tspan></text>
      <text
         id="text95"
         xml:space="preserve"
         x="47.749813"
         y="193.66924"
         style="font-size:4.23333px;stroke-width:0.352777"><tspan
           id="tspan95"
           style="font-variant:normal;font-weight:normal;font-stretch:normal;font-size:7.04943px;font-family:Arial;writing-mode:lr-tb;fill:#9a0033;fill-opacity:1;fill-rule:nonzero;stroke:none;stroke-width:0.352777"
           x="47.749813"
           y="193.66924">v(t,z+</tspan></text>
      <text
         id="text96"
         xml:space="preserve"
         x="65.127678"
         y="193.66888"
         style="font-size:4.23333px;stroke-width:0.352777"><tspan
           id="tspan96"
           style="font-variant:normal;font-weight:normal;font-stretch:normal;font-size:7.05115px;font-family:Symbol;writing-mode:lr-tb;fill:#9a0033;fill-opacity:1;fill-rule:nonzero;stroke:none;stroke-width:0.352777"
           x="65.127678"
           y="193.66888">Δ</tspan></text>
      <text
         id="text97"
         xml:space="preserve"
         x="69.445679"
         y="193.66888"
         style="font-size:4.23333px;stroke-width:0.352777"><tspan
           id="tspan97"
           style="font-variant:normal;font-weight:normal;font-stretch:normal;font-size:7.04943px;font-family:Arial;writing-mode:lr-tb;fill:#9a0033;fill-opacity:1;fill-rule:nonzero;stroke:none;stroke-width:0.352777"
           x="69.445679"
           y="193.66888">z) </tspan></text>
      <text
         id="text98"
         xml:space="preserve"
         x="27.726181"
         y="212.59189"
         style="font-size:4.23333px;stroke-width:0.352777"><tspan
           id="tspan98"
           style="font-variant:normal;font-weight:normal;font-stretch:normal;font-size:7.05115px;font-family:Symbol;writing-mode:lr-tb;fill:#000000;fill-opacity:1;fill-rule:nonzero;stroke:none;stroke-width:0.352777"
           x="27.726181"
           y="212.59189">Δ</tspan></text>
      <text
         id="text99"
         xml:space="preserve"
         x="32.044182"
         y="212.59189"
         style="font-size:4.23333px;stroke-width:0.352777"><tspan
           id="tspan99"
           style="font-variant:normal;font-weight:normal;font-stretch:normal;font-size:7.04943px;font-family:Arial;writing-mode:lr-tb;fill:#000000;fill-opacity:1;fill-rule:nonzero;stroke:none;stroke-width:0.352777"
           x="32.044182"
           y="212.59189">z </tspan></text>
      <text
         id="text100"
         xml:space="preserve"
         x="25.694078"
         y="175.42311"
         style="font-size:4.23333px;stroke-width:0.352777"><tspan
           id="tspan100"
           style="font-variant:normal;font-weight:normal;font-stretch:normal;font-size:7.04943px;font-family:Arial;writing-mode:lr-tb;fill:#000000;fill-opacity:1;fill-rule:nonzero;stroke:none;stroke-width:0.352777"
           x="25.694078"
           y="175.42311">L</tspan></text>
      <text
         id="text101"
         xml:space="preserve"
         x="29.610014"
         y="175.42322"
         style="font-size:4.23333px;stroke-width:0.352777"><tspan
           id="tspan101"
           style="font-variant:normal;font-weight:normal;font-stretch:normal;font-size:7.05115px;font-family:Symbol;writing-mode:lr-tb;fill:#000000;fill-opacity:1;fill-rule:nonzero;stroke:none;stroke-width:0.352777"
           x="29.610014"
           y="175.42322">Δ</tspan></text>
      <text
         id="text102"
         xml:space="preserve"
         x="33.928017"
         y="175.42322"
         style="font-size:4.23333px;stroke-width:0.352777"><tspan
           id="tspan102"
           style="font-variant:normal;font-weight:normal;font-stretch:normal;font-size:7.04943px;font-family:Arial;writing-mode:lr-tb;fill:#000000;fill-opacity:1;fill-rule:nonzero;stroke:none;stroke-width:0.352777"
           x="33.928017"
           y="175.42322">z </tspan></text>
      <text
         id="text103"
         xml:space="preserve"
         x="69.128532"
         y="175.42322"
         style="font-size:4.23333px;stroke-width:0.352777"><tspan
           id="tspan103"
           style="font-variant:normal;font-weight:normal;font-stretch:normal;font-size:7.04943px;font-family:Arial;writing-mode:lr-tb;fill:#000000;fill-opacity:1;fill-rule:nonzero;stroke:none;stroke-width:0.352777"
           x="69.128532"
           y="175.42322">L</tspan></text>
      <text
         id="text104"
         xml:space="preserve"
         x="73.044014"
         y="175.42322"
         style="font-size:4.23333px;stroke-width:0.352777"><tspan
           id="tspan104"
           style="font-variant:normal;font-weight:normal;font-stretch:normal;font-size:7.05115px;font-family:Symbol;writing-mode:lr-tb;fill:#000000;fill-opacity:1;fill-rule:nonzero;stroke:none;stroke-width:0.352777"
           x="73.044014"
           y="175.42322">Δ</tspan></text>
      <text
         id="text105"
         xml:space="preserve"
         x="77.362015"
         y="175.42322"
         style="font-size:4.23333px;stroke-width:0.352777"><tspan
           id="tspan105"
           style="font-variant:normal;font-weight:normal;font-stretch:normal;font-size:7.04943px;font-family:Arial;writing-mode:lr-tb;fill:#000000;fill-opacity:1;fill-rule:nonzero;stroke:none;stroke-width:0.352777"
           x="77.362015"
           y="175.42322">z </tspan></text>
      <text
         id="text106"
         xml:space="preserve"
         x="-6.754457"
         y="199.84944"
         style="font-size:4.23333px;stroke-width:0.352777"><tspan
           id="tspan106"
           style="font-variant:normal;font-weight:normal;font-stretch:normal;font-size:7.04943px;font-family:Arial;writing-mode:lr-tb;fill:#000000;fill-opacity:1;fill-rule:nonzero;stroke:none;stroke-width:0.352777"
           x="-6.754457"
           y="199.84944">C</tspan></text>
      <text
         id="text107"
         xml:space="preserve"
         x="-1.6531537"
         y="199.84955"
         style="font-size:4.23333px;stroke-width:0.352777"><tspan
           id="tspan107"
           style="font-variant:normal;font-weight:normal;font-stretch:normal;font-size:7.05115px;font-family:Symbol;writing-mode:lr-tb;fill:#000000;fill-opacity:1;fill-rule:nonzero;stroke:none;stroke-width:0.352777"
           x="-1.6531537"
           y="199.84955">Δ</tspan></text>
      <text
         id="text108"
         xml:space="preserve"
         x="2.6648483"
         y="199.84955"
         style="font-size:4.23333px;stroke-width:0.352777"><tspan
           id="tspan108"
           style="font-variant:normal;font-weight:normal;font-stretch:normal;font-size:7.04943px;font-family:Arial;writing-mode:lr-tb;fill:#000000;fill-opacity:1;fill-rule:nonzero;stroke:none;stroke-width:0.352777"
           x="2.6648483"
           y="199.84955">z </tspan></text>
      <text
         id="text109"
         xml:space="preserve"
         x="27.154503"
         y="199.84955"
         style="font-size:4.23333px;stroke-width:0.352777"><tspan
           id="tspan109"
           style="font-variant:normal;font-weight:normal;font-stretch:normal;font-size:7.04943px;font-family:Arial;writing-mode:lr-tb;fill:#000000;fill-opacity:1;fill-rule:nonzero;stroke:none;stroke-width:0.352777"
           x="27.154503"
           y="199.84955">C</tspan></text>
      <text
         id="text110"
         xml:space="preserve"
         x="32.255848"
         y="199.84955"
         style="font-size:4.23333px;stroke-width:0.352777"><tspan
           id="tspan110"
           style="font-variant:normal;font-weight:normal;font-stretch:normal;font-size:7.05115px;font-family:Symbol;writing-mode:lr-tb;fill:#000000;fill-opacity:1;fill-rule:nonzero;stroke:none;stroke-width:0.352777"
           x="32.255848"
           y="199.84955">Δ</tspan></text>
      <text
         id="text111"
         xml:space="preserve"
         x="36.573849"
         y="199.84955"
         style="font-size:4.23333px;stroke-width:0.352777"><tspan
           id="tspan111"
           style="font-variant:normal;font-weight:normal;font-stretch:normal;font-size:7.04943px;font-family:Arial;writing-mode:lr-tb;fill:#000000;fill-opacity:1;fill-rule:nonzero;stroke:none;stroke-width:0.352777"
           x="36.573849"
           y="199.84955">z </tspan></text>
      <text
         id="text112"
         xml:space="preserve"
         x="68.175644"
         y="199.84955"
         style="font-size:4.23333px;stroke-width:0.352777"><tspan
           id="tspan112"
           style="font-variant:normal;font-weight:normal;font-stretch:normal;font-size:7.04943px;font-family:Arial;writing-mode:lr-tb;fill:#000000;fill-opacity:1;fill-rule:nonzero;stroke:none;stroke-width:0.352777"
           x="68.175644"
           y="199.84955">C</tspan></text>
      <text
         id="text113"
         xml:space="preserve"
         x="73.276848"
         y="199.84955"
         style="font-size:4.23333px;stroke-width:0.352777"><tspan
           id="tspan113"
           style="font-variant:normal;font-weight:normal;font-stretch:normal;font-size:7.05115px;font-family:Symbol;writing-mode:lr-tb;fill:#000000;fill-opacity:1;fill-rule:nonzero;stroke:none;stroke-width:0.352777"
           x="73.276848"
           y="199.84955">Δ</tspan></text>
      <text
         id="text114"
         xml:space="preserve"
         x="77.594849"
         y="199.84955"
         style="font-size:4.23333px;stroke-width:0.352777"><tspan
           id="tspan114"
           style="font-variant:normal;font-weight:normal;font-stretch:normal;font-size:7.04943px;font-family:Arial;writing-mode:lr-tb;fill:#000000;fill-opacity:1;fill-rule:nonzero;stroke:none;stroke-width:0.352777"
           x="77.594849"
           y="199.84955">z </tspan></text>
      <path
         id="path114"
         d="m 18.772678,182.59871 v 3.78884"
         style="fill:none;stroke:#cc0000;stroke-width:0.529167;stroke-linecap:butt;stroke-linejoin:round;stroke-miterlimit:10;stroke-dasharray:none;stroke-opacity:1" />
      <path
         id="path115"
         d="m 16.783011,184.41905 h 4.064"
         style="fill:none;stroke:#cc0000;stroke-width:0.529167;stroke-linecap:butt;stroke-linejoin:round;stroke-miterlimit:10;stroke-dasharray:none;stroke-opacity:1" />
    </g>
    <g
       id="g1"
       transform="translate(8.8145962,-13.720109)">
      <path
         id="path14"
         d="m 46.41056,268.57112 v -2.20134 l 12.53066,-12.53066 v 1.397"
         style="fill:#6b6b6b;fill-opacity:1;fill-rule:evenodd;stroke:none;stroke-width:0.352777" />
      <path
         id="path15"
         d="m 46.41056,268.57112 12.53066,-13.335"
         style="fill:none;stroke:#6b6b6b;stroke-width:0.0211667;stroke-linecap:butt;stroke-linejoin:miter;stroke-miterlimit:10;stroke-dasharray:none;stroke-opacity:1" />
      <path
         id="path16"
         d="m 46.41056,266.36978 h -48.0695 l 29.86616,-12.53066 h 30.734"
         style="fill:#969696;fill-opacity:1;fill-rule:evenodd;stroke:none;stroke-width:0.352777" />
      <path
         id="path17"
         d="M 46.41056,266.36978 58.94122,253.83912"
         style="fill:none;stroke:#969696;stroke-width:0.0211667;stroke-linecap:butt;stroke-linejoin:miter;stroke-miterlimit:10;stroke-dasharray:none;stroke-opacity:1" />
      <path
         id="path18"
         d="m -1.65894,266.36978 v 2.20134 h 48.0695 v -2.20134 z"
         style="fill:#bbbbbb;fill-opacity:1;fill-rule:nonzero;stroke:none;stroke-width:0.352777" />
      <path
         id="path19"
         d="m -1.65894,266.36978 v 2.20134"
         style="fill:none;stroke:#aaaaaa;stroke-width:0.359833;stroke-linecap:butt;stroke-linejoin:miter;stroke-miterlimit:10;stroke-dasharray:none;stroke-opacity:1" />
      <path
         id="path20"
         d="m -1.65894,268.57112 h 48.0695"
         style="fill:none;stroke:#818181;stroke-width:0.359833;stroke-linecap:butt;stroke-linejoin:miter;stroke-miterlimit:10;stroke-dasharray:none;stroke-opacity:1" />
      <path
         id="path21"
         d="m 46.41056,268.57112 v -2.20134"
         style="fill:none;stroke:#9e9e9e;stroke-width:0.359833;stroke-linecap:butt;stroke-linejoin:miter;stroke-miterlimit:10;stroke-dasharray:none;stroke-opacity:1" />
      <path
         id="path22"
         d="M 46.41056,266.36978 H -1.65894"
         style="fill:none;stroke:#c7c7c7;stroke-width:0.359833;stroke-linecap:butt;stroke-linejoin:miter;stroke-miterlimit:10;stroke-dasharray:none;stroke-opacity:1" />
      <path
         id="path23"
         d="m 46.41056,253.30995 v -2.20133 l 12.53066,-12.53067 v 1.41817"
         style="fill:#6b6b6b;fill-opacity:1;fill-rule:evenodd;stroke:none;stroke-width:0.352777" />
      <path
         id="path24"
         d="M 46.41056,253.30995 58.94122,239.99612"
         style="fill:none;stroke:#6b6b6b;stroke-width:0.0211667;stroke-linecap:butt;stroke-linejoin:miter;stroke-miterlimit:10;stroke-dasharray:none;stroke-opacity:1" />
      <path
         id="path25"
         d="m 46.41056,251.10862 h -48.0695 l 29.86616,-12.53067 h 30.734"
         style="fill:#969696;fill-opacity:1;fill-rule:evenodd;stroke:none;stroke-width:0.352777" />
      <path
         id="path26"
         d="M 46.41056,251.10862 58.94122,238.57795"
         style="fill:none;stroke:#969696;stroke-width:0.0211667;stroke-linecap:butt;stroke-linejoin:miter;stroke-miterlimit:10;stroke-dasharray:none;stroke-opacity:1" />
      <path
         id="path27"
         d="m -1.65894,251.10862 v 2.20133 h 48.0695 v -2.20133 z"
         style="fill:#bbbbbb;fill-opacity:1;fill-rule:nonzero;stroke:none;stroke-width:0.352777" />
      <path
         id="path28"
         d="m -1.65894,251.10862 v 2.20133"
         style="fill:none;stroke:#aaaaaa;stroke-width:0.359833;stroke-linecap:butt;stroke-linejoin:miter;stroke-miterlimit:10;stroke-dasharray:none;stroke-opacity:1" />
      <path
         id="path29"
         d="m -1.65894,253.30995 h 48.0695"
         style="fill:none;stroke:#818181;stroke-width:0.359833;stroke-linecap:butt;stroke-linejoin:miter;stroke-miterlimit:10;stroke-dasharray:none;stroke-opacity:1" />
      <path
         id="path30"
         d="m 46.41056,253.30995 v -2.20133"
         style="fill:none;stroke:#9e9e9e;stroke-width:0.359833;stroke-linecap:butt;stroke-linejoin:miter;stroke-miterlimit:10;stroke-dasharray:none;stroke-opacity:1" />
      <path
         id="path31"
         d="M 46.41056,251.10862 H -1.65894"
         style="fill:none;stroke:#c7c7c7;stroke-width:0.359833;stroke-linecap:butt;stroke-linejoin:miter;stroke-miterlimit:10;stroke-dasharray:none;stroke-opacity:1" />
      <path
         id="path32"
         d="m 58.83539,239.63629 h 6.223"
         style="fill:none;stroke:#000000;stroke-width:0.264583;stroke-linecap:round;stroke-linejoin:round;stroke-miterlimit:10;stroke-dasharray:0.79375, 1.05833;stroke-dashoffset:0;stroke-opacity:1" />
      <path
         id="path33"
         d="m 58.43322,254.15662 h 6.7945"
         style="fill:none;stroke:#000000;stroke-width:0.264583;stroke-linecap:round;stroke-linejoin:round;stroke-miterlimit:10;stroke-dasharray:0.79375, 1.05833;stroke-dashoffset:0;stroke-opacity:1" />
      <path
         id="path34"
         d="m 62.85706,242.81128 v 9.05934 l -0.0423,0.0847 -0.10583,0.0423 -0.0847,-0.0423 -0.0423,-0.0847 v -9.05934 l 0.0423,-0.0847 0.0847,-0.0423 0.10583,0.0423 z m -0.84667,0.35984 0.6985,-3.53483 0.71967,3.53483 z m 1.41817,8.33966 -0.71967,3.53484 -0.6985,-3.53484"
         style="fill:#000000;fill-opacity:1;fill-rule:nonzero;stroke:none;stroke-width:0.352777" />
      <path
         id="path35"
         d="m -20.01044,249.07662 h 6.7945 l 0.0847,0.0423 0.0423,0.10583 -0.0423,0.0847 -0.0847,0.0423 h -6.7945 l -0.0847,-0.0423 -0.0423,-0.0847 0.0423,-0.10583 z m 0.35983,0.84666 -3.53483,-0.6985 3.53483,-0.71966"
         style="fill:#000000;fill-opacity:1;fill-rule:nonzero;stroke:none;stroke-width:0.352777" />
      <path
         id="path36"
         d="m -7.69144,246.17678 -5.37634,3.15384 -0.0847,0.0212 -0.0847,-0.0635 -0.0212,-0.10583 0.0635,-0.0847 5.37634,-3.15383 0.10583,-0.0212 0.0847,0.0635 v 0.10584 z m -0.71967,-0.55033 3.38667,-1.16417 -2.667,2.39184"
         style="fill:#000000;fill-opacity:1;fill-rule:nonzero;stroke:none;stroke-width:0.352777" />
      <path
         id="path37"
         d="m -13.34294,259.44828 v -10.2235 l 0.0423,-0.10583 0.0847,-0.0423 0.0847,0.0423 0.0423,0.10583 v 10.2235 l -0.0423,0.0847 -0.0847,0.0423 -0.0847,-0.0423 z m 0.8255,-0.35983 -0.6985,3.53483 -0.6985,-3.53483"
         style="fill:#000000;fill-opacity:1;fill-rule:nonzero;stroke:none;stroke-width:0.352777" />
      <path
         id="path38"
         d="m 31.76322,236.46129 h 23.32567 l 0.10583,0.0423 0.0212,0.10583 -0.0212,0.0847 -0.10583,0.0423 H 31.76322 l -0.0847,-0.0423 -0.0423,-0.0847 0.0423,-0.10583 z m 0.35984,0.84666 -3.53484,-0.6985 3.53484,-0.71966 z m 22.606,-1.41816 3.53483,0.71966 -3.53483,0.6985"
         style="fill:#000000;fill-opacity:1;fill-rule:nonzero;stroke:none;stroke-width:0.352777" />
      <path
         id="path39"
         d="m 22.38639,253.52162 -7.47183,5.50333 -0.61384,-0.84667 7.45067,-5.50333 z m -1.37583,-0.9525 4.8895,-2.286 -3.64067,3.97933"
         style="fill:#cc0000;fill-opacity:1;fill-rule:nonzero;stroke:none;stroke-width:0.352777" />
      <path
         id="path40"
         d="m 18.57639,270.26445 5.88433,-4.699 0.65617,0.8255 -5.88433,4.699 z m 1.397,0.91017 -4.78367,2.4765 3.47134,-4.1275"
         style="fill:#cc0000;fill-opacity:1;fill-rule:nonzero;stroke:none;stroke-width:0.352777" />
      <text
         id="text40"
         xml:space="preserve"
         x="-3.7332728"
         y="267.0683"
         style="font-size:4.23333px;stroke-width:0.352777"><tspan
           id="tspan40"
           style="font-variant:normal;font-weight:normal;font-stretch:normal;font-size:7.04943px;font-family:Arial;writing-mode:lr-tb;fill:#cc0000;fill-opacity:1;fill-rule:nonzero;stroke:none;stroke-width:0.352777"
           x="-3.7332728"
           y="267.0683">-</tspan></text>
      <text
         id="text41"
         xml:space="preserve"
         x="-4.6221967"
         y="257.81873"
         style="font-size:4.23333px;stroke-width:0.352777"><tspan
           id="tspan41"
           style="font-variant:normal;font-weight:normal;font-stretch:normal;font-size:7.04943px;font-family:Arial;writing-mode:lr-tb;fill:#cc0000;fill-opacity:1;fill-rule:nonzero;stroke:none;stroke-width:0.352777"
           x="-4.6221967"
           y="257.81873">+</tspan></text>
      <text
         id="text42"
         xml:space="preserve"
         x="-8.4535789"
         y="262.53903"
         style="font-size:4.23333px;stroke-width:0.352777"><tspan
           id="tspan42"
           style="font-variant:normal;font-weight:normal;font-stretch:normal;font-size:7.04943px;font-family:Arial;writing-mode:lr-tb;fill:#9a0033;fill-opacity:1;fill-rule:nonzero;stroke:none;stroke-width:0.352777"
           x="-8.4535789"
           y="262.53903">v(t,z) </tspan></text>
      <text
         id="text43"
         xml:space="preserve"
         x="57.607937"
         y="248.90758"
         style="font-size:4.23333px;stroke-width:0.352777"><tspan
           id="tspan43"
           style="font-variant:normal;font-weight:normal;font-stretch:normal;font-size:7.04943px;font-family:Arial;writing-mode:lr-tb;fill:#000000;fill-opacity:1;fill-rule:nonzero;stroke:none;stroke-width:0.352777"
           x="57.607937"
           y="248.90758">d </tspan></text>
      <text
         id="text44"
         xml:space="preserve"
         x="-23.396923"
         y="255.57494"
         style="font-size:4.23333px;stroke-width:0.352777"><tspan
           id="tspan44"
           style="font-variant:normal;font-weight:normal;font-stretch:normal;font-size:7.04943px;font-family:Arial;writing-mode:lr-tb;fill:#000000;fill-opacity:1;fill-rule:nonzero;stroke:none;stroke-width:0.352777"
           x="-23.396923"
           y="255.57494">y </tspan></text>
      <text
         id="text45"
         xml:space="preserve"
         x="-17.851147"
         y="264.25345"
         style="font-size:4.23333px;stroke-width:0.352777"><tspan
           id="tspan45"
           style="font-variant:normal;font-weight:normal;font-stretch:normal;font-size:7.04943px;font-family:Arial;writing-mode:lr-tb;fill:#000000;fill-opacity:1;fill-rule:nonzero;stroke:none;stroke-width:0.352777"
           x="-17.851147"
           y="264.25345">x </tspan></text>
      <text
         id="text46"
         xml:space="preserve"
         x="-4.2196774"
         y="246.34651"
         style="font-size:4.23333px;stroke-width:0.352777"><tspan
           id="tspan46"
           style="font-variant:normal;font-weight:normal;font-stretch:normal;font-size:7.04943px;font-family:Arial;writing-mode:lr-tb;fill:#000000;fill-opacity:1;fill-rule:nonzero;stroke:none;stroke-width:0.352777"
           x="-4.2196774"
           y="246.34651">z </tspan></text>
      <text
         id="text47"
         xml:space="preserve"
         x="1.1146047"
         y="275.89557"
         style="font-size:4.23333px;stroke-width:0.352777"><tspan
           id="tspan47"
           style="font-variant:normal;font-weight:normal;font-stretch:normal;font-size:7.04943px;font-family:Arial;writing-mode:lr-tb;fill:#9a0033;fill-opacity:1;fill-rule:nonzero;stroke:none;stroke-width:0.352777"
           x="1.1146047"
           y="275.89557">i(t,z) </tspan></text>
      <text
         id="text59"
         xml:space="preserve"
         x="40.526226"
         y="235.23363"
         style="font-size:4.23333px;stroke-width:0.352777"><tspan
           id="tspan60"
           style="font-variant:normal;font-weight:normal;font-stretch:normal;font-size:7.04943px;font-family:Arial;writing-mode:lr-tb;fill:#000000;fill-opacity:1;fill-rule:nonzero;stroke:none;stroke-width:0.352777"
           x="40.526226"
           y="235.23363">W </tspan></text>
    </g>
  </g>
</svg>
