<?xml version="1.0" encoding="utf-8" standalone="no"?>
<!DOCTYPE svg PUBLIC "-//W3C//DTD SVG 1.1//EN"
  "http://www.w3.org/Graphics/SVG/1.1/DTD/svg11.dtd">
<svg xmlns:xlink="http://www.w3.org/1999/xlink" width="828pt" height="230.4pt" viewBox="0 0 828 230.4" xmlns="http://www.w3.org/2000/svg" version="1.1">
 <metadata>
  <rdf:RDF xmlns:dc="http://purl.org/dc/elements/1.1/" xmlns:cc="http://creativecommons.org/ns#" xmlns:rdf="http://www.w3.org/1999/02/22-rdf-syntax-ns#">
   <cc:Work>
    <dc:type rdf:resource="http://purl.org/dc/dcmitype/StillImage"/>
    <dc:date>2026-03-16T21:20:15.441633</dc:date>
    <dc:format>image/svg+xml</dc:format>
    <dc:creator>
     <cc:Agent>
      <dc:title>Matplotlib v3.10.8, https://matplotlib.org/</dc:title>
     </cc:Agent>
    </dc:creator>
   </cc:Work>
  </rdf:RDF>
 </metadata>
 <defs>
  <style type="text/css">*{stroke-linejoin: round; stroke-linecap: butt}</style>
 </defs>
 <g id="figure_1">
  <g id="patch_1">
   <path d="M 0 230.4 
L 828 230.4 
L 828 0 
L 0 0 
z
" style="fill: #ffffff"/>
  </g>
  <g id="axes_1">
   <g id="patch_2">
    <path d="M 62.57 188.44 
L 293.638333 188.44 
L 293.638333 52.08 
L 62.57 52.08 
z
" style="fill: #ffffff"/>
   </g>
   <g id="matplotlib.axis_1">
    <g id="xtick_1">
     <g id="line2d_1">
      <path d="M 62.57 188.44 
L 62.57 52.08 
" clip-path="url(#p8e7787f9fc)" style="fill: none; stroke: #b0b0b0; stroke-opacity: 0.25; stroke-width: 0.8; stroke-linecap: square"/>
     </g>
     <g id="line2d_2">
      <defs>
       <path id="m853036bdcf" d="M 0 0 
L 0 3.5 
" style="stroke: #000000; stroke-width: 0.8"/>
      </defs>
      <g>
       <use xlink:href="#m853036bdcf" x="62.57" y="188.44" style="stroke: #000000; stroke-width: 0.8"/>
      </g>
     </g>
     <g id="text_1">
      <!-- 0.0 -->
      <g transform="translate(54.618438 203.038438) scale(0.1 -0.1)">
       <defs>
        <path id="DejaVuSans-30" d="M 2034 4250 
Q 1547 4250 1301 3770 
Q 1056 3291 1056 2328 
Q 1056 1369 1301 889 
Q 1547 409 2034 409 
Q 2525 409 2770 889 
Q 3016 1369 3016 2328 
Q 3016 3291 2770 3770 
Q 2525 4250 2034 4250 
z
M 2034 4750 
Q 2819 4750 3233 4129 
Q 3647 3509 3647 2328 
Q 3647 1150 3233 529 
Q 2819 -91 2034 -91 
Q 1250 -91 836 529 
Q 422 1150 422 2328 
Q 422 3509 836 4129 
Q 1250 4750 2034 4750 
z
" transform="scale(0.015625)"/>
        <path id="DejaVuSans-2e" d="M 684 794 
L 1344 794 
L 1344 0 
L 684 0 
L 684 794 
z
" transform="scale(0.015625)"/>
       </defs>
       <use xlink:href="#DejaVuSans-30"/>
       <use xlink:href="#DejaVuSans-2e" transform="translate(63.623047 0)"/>
       <use xlink:href="#DejaVuSans-30" transform="translate(95.410156 0)"/>
      </g>
     </g>
    </g>
    <g id="xtick_2">
     <g id="line2d_3">
      <path d="M 101.081389 188.44 
L 101.081389 52.08 
" clip-path="url(#p8e7787f9fc)" style="fill: none; stroke: #b0b0b0; stroke-opacity: 0.25; stroke-width: 0.8; stroke-linecap: square"/>
     </g>
     <g id="line2d_4">
      <g>
       <use xlink:href="#m853036bdcf" x="101.081389" y="188.44" style="stroke: #000000; stroke-width: 0.8"/>
      </g>
     </g>
     <g id="text_2">
      <!-- 0.2 -->
      <g transform="translate(93.129826 203.038438) scale(0.1 -0.1)">
       <defs>
        <path id="DejaVuSans-32" d="M 1228 531 
L 3431 531 
L 3431 0 
L 469 0 
L 469 531 
Q 828 903 1448 1529 
Q 2069 2156 2228 2338 
Q 2531 2678 2651 2914 
Q 2772 3150 2772 3378 
Q 2772 3750 2511 3984 
Q 2250 4219 1831 4219 
Q 1534 4219 1204 4116 
Q 875 4013 500 3803 
L 500 4441 
Q 881 4594 1212 4672 
Q 1544 4750 1819 4750 
Q 2544 4750 2975 4387 
Q 3406 4025 3406 3419 
Q 3406 3131 3298 2873 
Q 3191 2616 2906 2266 
Q 2828 2175 2409 1742 
Q 1991 1309 1228 531 
z
" transform="scale(0.015625)"/>
       </defs>
       <use xlink:href="#DejaVuSans-30"/>
       <use xlink:href="#DejaVuSans-2e" transform="translate(63.623047 0)"/>
       <use xlink:href="#DejaVuSans-32" transform="translate(95.410156 0)"/>
      </g>
     </g>
    </g>
    <g id="xtick_3">
     <g id="line2d_5">
      <path d="M 139.592778 188.44 
L 139.592778 52.08 
" clip-path="url(#p8e7787f9fc)" style="fill: none; stroke: #b0b0b0; stroke-opacity: 0.25; stroke-width: 0.8; stroke-linecap: square"/>
     </g>
     <g id="line2d_6">
      <g>
       <use xlink:href="#m853036bdcf" x="139.592778" y="188.44" style="stroke: #000000; stroke-width: 0.8"/>
      </g>
     </g>
     <g id="text_3">
      <!-- 0.4 -->
      <g transform="translate(131.641215 203.038438) scale(0.1 -0.1)">
       <defs>
        <path id="DejaVuSans-34" d="M 2419 4116 
L 825 1625 
L 2419 1625 
L 2419 4116 
z
M 2253 4666 
L 3047 4666 
L 3047 1625 
L 3713 1625 
L 3713 1100 
L 3047 1100 
L 3047 0 
L 2419 0 
L 2419 1100 
L 313 1100 
L 313 1709 
L 2253 4666 
z
" transform="scale(0.015625)"/>
       </defs>
       <use xlink:href="#DejaVuSans-30"/>
       <use xlink:href="#DejaVuSans-2e" transform="translate(63.623047 0)"/>
       <use xlink:href="#DejaVuSans-34" transform="translate(95.410156 0)"/>
      </g>
     </g>
    </g>
    <g id="xtick_4">
     <g id="line2d_7">
      <path d="M 178.104167 188.44 
L 178.104167 52.08 
" clip-path="url(#p8e7787f9fc)" style="fill: none; stroke: #b0b0b0; stroke-opacity: 0.25; stroke-width: 0.8; stroke-linecap: square"/>
     </g>
     <g id="line2d_8">
      <g>
       <use xlink:href="#m853036bdcf" x="178.104167" y="188.44" style="stroke: #000000; stroke-width: 0.8"/>
      </g>
     </g>
     <g id="text_4">
      <!-- 0.6 -->
      <g transform="translate(170.152604 203.038438) scale(0.1 -0.1)">
       <defs>
        <path id="DejaVuSans-36" d="M 2113 2584 
Q 1688 2584 1439 2293 
Q 1191 2003 1191 1497 
Q 1191 994 1439 701 
Q 1688 409 2113 409 
Q 2538 409 2786 701 
Q 3034 994 3034 1497 
Q 3034 2003 2786 2293 
Q 2538 2584 2113 2584 
z
M 3366 4563 
L 3366 3988 
Q 3128 4100 2886 4159 
Q 2644 4219 2406 4219 
Q 1781 4219 1451 3797 
Q 1122 3375 1075 2522 
Q 1259 2794 1537 2939 
Q 1816 3084 2150 3084 
Q 2853 3084 3261 2657 
Q 3669 2231 3669 1497 
Q 3669 778 3244 343 
Q 2819 -91 2113 -91 
Q 1303 -91 875 529 
Q 447 1150 447 2328 
Q 447 3434 972 4092 
Q 1497 4750 2381 4750 
Q 2619 4750 2861 4703 
Q 3103 4656 3366 4563 
z
" transform="scale(0.015625)"/>
       </defs>
       <use xlink:href="#DejaVuSans-30"/>
       <use xlink:href="#DejaVuSans-2e" transform="translate(63.623047 0)"/>
       <use xlink:href="#DejaVuSans-36" transform="translate(95.410156 0)"/>
      </g>
     </g>
    </g>
    <g id="xtick_5">
     <g id="line2d_9">
      <path d="M 216.615556 188.44 
L 216.615556 52.08 
" clip-path="url(#p8e7787f9fc)" style="fill: none; stroke: #b0b0b0; stroke-opacity: 0.25; stroke-width: 0.8; stroke-linecap: square"/>
     </g>
     <g id="line2d_10">
      <g>
       <use xlink:href="#m853036bdcf" x="216.615556" y="188.44" style="stroke: #000000; stroke-width: 0.8"/>
      </g>
     </g>
     <g id="text_5">
      <!-- 0.8 -->
      <g transform="translate(208.663993 203.038438) scale(0.1 -0.1)">
       <defs>
        <path id="DejaVuSans-38" d="M 2034 2216 
Q 1584 2216 1326 1975 
Q 1069 1734 1069 1313 
Q 1069 891 1326 650 
Q 1584 409 2034 409 
Q 2484 409 2743 651 
Q 3003 894 3003 1313 
Q 3003 1734 2745 1975 
Q 2488 2216 2034 2216 
z
M 1403 2484 
Q 997 2584 770 2862 
Q 544 3141 544 3541 
Q 544 4100 942 4425 
Q 1341 4750 2034 4750 
Q 2731 4750 3128 4425 
Q 3525 4100 3525 3541 
Q 3525 3141 3298 2862 
Q 3072 2584 2669 2484 
Q 3125 2378 3379 2068 
Q 3634 1759 3634 1313 
Q 3634 634 3220 271 
Q 2806 -91 2034 -91 
Q 1263 -91 848 271 
Q 434 634 434 1313 
Q 434 1759 690 2068 
Q 947 2378 1403 2484 
z
M 1172 3481 
Q 1172 3119 1398 2916 
Q 1625 2713 2034 2713 
Q 2441 2713 2670 2916 
Q 2900 3119 2900 3481 
Q 2900 3844 2670 4047 
Q 2441 4250 2034 4250 
Q 1625 4250 1398 4047 
Q 1172 3844 1172 3481 
z
" transform="scale(0.015625)"/>
       </defs>
       <use xlink:href="#DejaVuSans-30"/>
       <use xlink:href="#DejaVuSans-2e" transform="translate(63.623047 0)"/>
       <use xlink:href="#DejaVuSans-38" transform="translate(95.410156 0)"/>
      </g>
     </g>
    </g>
    <g id="xtick_6">
     <g id="line2d_11">
      <path d="M 255.126944 188.44 
L 255.126944 52.08 
" clip-path="url(#p8e7787f9fc)" style="fill: none; stroke: #b0b0b0; stroke-opacity: 0.25; stroke-width: 0.8; stroke-linecap: square"/>
     </g>
     <g id="line2d_12">
      <g>
       <use xlink:href="#m853036bdcf" x="255.126944" y="188.44" style="stroke: #000000; stroke-width: 0.8"/>
      </g>
     </g>
     <g id="text_6">
      <!-- 1.0 -->
      <g transform="translate(247.175382 203.038438) scale(0.1 -0.1)">
       <defs>
        <path id="DejaVuSans-31" d="M 794 531 
L 1825 531 
L 1825 4091 
L 703 3866 
L 703 4441 
L 1819 4666 
L 2450 4666 
L 2450 531 
L 3481 531 
L 3481 0 
L 794 0 
L 794 531 
z
" transform="scale(0.015625)"/>
       </defs>
       <use xlink:href="#DejaVuSans-31"/>
       <use xlink:href="#DejaVuSans-2e" transform="translate(63.623047 0)"/>
       <use xlink:href="#DejaVuSans-30" transform="translate(95.410156 0)"/>
      </g>
     </g>
    </g>
    <g id="xtick_7">
     <g id="line2d_13">
      <path d="M 293.638333 188.44 
L 293.638333 52.08 
" clip-path="url(#p8e7787f9fc)" style="fill: none; stroke: #b0b0b0; stroke-opacity: 0.25; stroke-width: 0.8; stroke-linecap: square"/>
     </g>
     <g id="line2d_14">
      <g>
       <use xlink:href="#m853036bdcf" x="293.638333" y="188.44" style="stroke: #000000; stroke-width: 0.8"/>
      </g>
     </g>
     <g id="text_7">
      <!-- 1.2 -->
      <g transform="translate(285.686771 203.038438) scale(0.1 -0.1)">
       <use xlink:href="#DejaVuSans-31"/>
       <use xlink:href="#DejaVuSans-2e" transform="translate(63.623047 0)"/>
       <use xlink:href="#DejaVuSans-32" transform="translate(95.410156 0)"/>
      </g>
     </g>
    </g>
    <g id="text_8">
     <!-- Tempo (s) -->
     <g transform="translate(153.624479 216.716563) scale(0.1 -0.1)">
      <defs>
       <path id="DejaVuSans-54" d="M -19 4666 
L 3928 4666 
L 3928 4134 
L 2272 4134 
L 2272 0 
L 1638 0 
L 1638 4134 
L -19 4134 
L -19 4666 
z
" transform="scale(0.015625)"/>
       <path id="DejaVuSans-65" d="M 3597 1894 
L 3597 1613 
L 953 1613 
Q 991 1019 1311 708 
Q 1631 397 2203 397 
Q 2534 397 2845 478 
Q 3156 559 3463 722 
L 3463 178 
Q 3153 47 2828 -22 
Q 2503 -91 2169 -91 
Q 1331 -91 842 396 
Q 353 884 353 1716 
Q 353 2575 817 3079 
Q 1281 3584 2069 3584 
Q 2775 3584 3186 3129 
Q 3597 2675 3597 1894 
z
M 3022 2063 
Q 3016 2534 2758 2815 
Q 2500 3097 2075 3097 
Q 1594 3097 1305 2825 
Q 1016 2553 972 2059 
L 3022 2063 
z
" transform="scale(0.015625)"/>
       <path id="DejaVuSans-6d" d="M 3328 2828 
Q 3544 3216 3844 3400 
Q 4144 3584 4550 3584 
Q 5097 3584 5394 3201 
Q 5691 2819 5691 2113 
L 5691 0 
L 5113 0 
L 5113 2094 
Q 5113 2597 4934 2840 
Q 4756 3084 4391 3084 
Q 3944 3084 3684 2787 
Q 3425 2491 3425 1978 
L 3425 0 
L 2847 0 
L 2847 2094 
Q 2847 2600 2669 2842 
Q 2491 3084 2119 3084 
Q 1678 3084 1418 2786 
Q 1159 2488 1159 1978 
L 1159 0 
L 581 0 
L 581 3500 
L 1159 3500 
L 1159 2956 
Q 1356 3278 1631 3431 
Q 1906 3584 2284 3584 
Q 2666 3584 2933 3390 
Q 3200 3197 3328 2828 
z
" transform="scale(0.015625)"/>
       <path id="DejaVuSans-70" d="M 1159 525 
L 1159 -1331 
L 581 -1331 
L 581 3500 
L 1159 3500 
L 1159 2969 
Q 1341 3281 1617 3432 
Q 1894 3584 2278 3584 
Q 2916 3584 3314 3078 
Q 3713 2572 3713 1747 
Q 3713 922 3314 415 
Q 2916 -91 2278 -91 
Q 1894 -91 1617 61 
Q 1341 213 1159 525 
z
M 3116 1747 
Q 3116 2381 2855 2742 
Q 2594 3103 2138 3103 
Q 1681 3103 1420 2742 
Q 1159 2381 1159 1747 
Q 1159 1113 1420 752 
Q 1681 391 2138 391 
Q 2594 391 2855 752 
Q 3116 1113 3116 1747 
z
" transform="scale(0.015625)"/>
       <path id="DejaVuSans-6f" d="M 1959 3097 
Q 1497 3097 1228 2736 
Q 959 2375 959 1747 
Q 959 1119 1226 758 
Q 1494 397 1959 397 
Q 2419 397 2687 759 
Q 2956 1122 2956 1747 
Q 2956 2369 2687 2733 
Q 2419 3097 1959 3097 
z
M 1959 3584 
Q 2709 3584 3137 3096 
Q 3566 2609 3566 1747 
Q 3566 888 3137 398 
Q 2709 -91 1959 -91 
Q 1206 -91 779 398 
Q 353 888 353 1747 
Q 353 2609 779 3096 
Q 1206 3584 1959 3584 
z
" transform="scale(0.015625)"/>
       <path id="DejaVuSans-20" transform="scale(0.015625)"/>
       <path id="DejaVuSans-28" d="M 1984 4856 
Q 1566 4138 1362 3434 
Q 1159 2731 1159 2009 
Q 1159 1288 1364 580 
Q 1569 -128 1984 -844 
L 1484 -844 
Q 1016 -109 783 600 
Q 550 1309 550 2009 
Q 550 2706 781 3412 
Q 1013 4119 1484 4856 
L 1984 4856 
z
" transform="scale(0.015625)"/>
       <path id="DejaVuSans-73" d="M 2834 3397 
L 2834 2853 
Q 2591 2978 2328 3040 
Q 2066 3103 1784 3103 
Q 1356 3103 1142 2972 
Q 928 2841 928 2578 
Q 928 2378 1081 2264 
Q 1234 2150 1697 2047 
L 1894 2003 
Q 2506 1872 2764 1633 
Q 3022 1394 3022 966 
Q 3022 478 2636 193 
Q 2250 -91 1575 -91 
Q 1294 -91 989 -36 
Q 684 19 347 128 
L 347 722 
Q 666 556 975 473 
Q 1284 391 1588 391 
Q 1994 391 2212 530 
Q 2431 669 2431 922 
Q 2431 1156 2273 1281 
Q 2116 1406 1581 1522 
L 1381 1569 
Q 847 1681 609 1914 
Q 372 2147 372 2553 
Q 372 3047 722 3315 
Q 1072 3584 1716 3584 
Q 2034 3584 2315 3537 
Q 2597 3491 2834 3397 
z
" transform="scale(0.015625)"/>
       <path id="DejaVuSans-29" d="M 513 4856 
L 1013 4856 
Q 1481 4119 1714 3412 
Q 1947 2706 1947 2009 
Q 1947 1309 1714 600 
Q 1481 -109 1013 -844 
L 513 -844 
Q 928 -128 1133 580 
Q 1338 1288 1338 2009 
Q 1338 2731 1133 3434 
Q 928 4138 513 4856 
z
" transform="scale(0.015625)"/>
      </defs>
      <use xlink:href="#DejaVuSans-54"/>
      <use xlink:href="#DejaVuSans-65" transform="translate(44.083984 0)"/>
      <use xlink:href="#DejaVuSans-6d" transform="translate(105.607422 0)"/>
      <use xlink:href="#DejaVuSans-70" transform="translate(203.019531 0)"/>
      <use xlink:href="#DejaVuSans-6f" transform="translate(266.496094 0)"/>
      <use xlink:href="#DejaVuSans-20" transform="translate(327.677734 0)"/>
      <use xlink:href="#DejaVuSans-28" transform="translate(359.464844 0)"/>
      <use xlink:href="#DejaVuSans-73" transform="translate(398.478516 0)"/>
      <use xlink:href="#DejaVuSans-29" transform="translate(450.578125 0)"/>
     </g>
    </g>
   </g>
   <g id="matplotlib.axis_2">
    <g id="ytick_1">
     <g id="line2d_15">
      <path d="M 62.57 188.44 
L 293.638333 188.44 
" clip-path="url(#p8e7787f9fc)" style="fill: none; stroke: #b0b0b0; stroke-opacity: 0.25; stroke-width: 0.8; stroke-linecap: square"/>
     </g>
     <g id="line2d_16">
      <defs>
       <path id="me122eaa3ae" d="M 0 0 
L -3.5 0 
" style="stroke: #000000; stroke-width: 0.8"/>
      </defs>
      <g>
       <use xlink:href="#me122eaa3ae" x="62.57" y="188.44" style="stroke: #000000; stroke-width: 0.8"/>
      </g>
     </g>
     <g id="text_9">
      <!-- −10 -->
      <g transform="translate(34.465313 192.239219) scale(0.1 -0.1)">
       <defs>
        <path id="DejaVuSans-2212" d="M 678 2272 
L 4684 2272 
L 4684 1741 
L 678 1741 
L 678 2272 
z
" transform="scale(0.015625)"/>
       </defs>
       <use xlink:href="#DejaVuSans-2212"/>
       <use xlink:href="#DejaVuSans-31" transform="translate(83.789062 0)"/>
       <use xlink:href="#DejaVuSans-30" transform="translate(147.412109 0)"/>
      </g>
     </g>
    </g>
    <g id="ytick_2">
     <g id="line2d_17">
      <path d="M 62.57 154.35 
L 293.638333 154.35 
" clip-path="url(#p8e7787f9fc)" style="fill: none; stroke: #b0b0b0; stroke-opacity: 0.25; stroke-width: 0.8; stroke-linecap: square"/>
     </g>
     <g id="line2d_18">
      <g>
       <use xlink:href="#me122eaa3ae" x="62.57" y="154.35" style="stroke: #000000; stroke-width: 0.8"/>
      </g>
     </g>
     <g id="text_10">
      <!-- −5 -->
      <g transform="translate(40.827813 158.149219) scale(0.1 -0.1)">
       <defs>
        <path id="DejaVuSans-35" d="M 691 4666 
L 3169 4666 
L 3169 4134 
L 1269 4134 
L 1269 2991 
Q 1406 3038 1543 3061 
Q 1681 3084 1819 3084 
Q 2600 3084 3056 2656 
Q 3513 2228 3513 1497 
Q 3513 744 3044 326 
Q 2575 -91 1722 -91 
Q 1428 -91 1123 -41 
Q 819 9 494 109 
L 494 744 
Q 775 591 1075 516 
Q 1375 441 1709 441 
Q 2250 441 2565 725 
Q 2881 1009 2881 1497 
Q 2881 1984 2565 2268 
Q 2250 2553 1709 2553 
Q 1456 2553 1204 2497 
Q 953 2441 691 2322 
L 691 4666 
z
" transform="scale(0.015625)"/>
       </defs>
       <use xlink:href="#DejaVuSans-2212"/>
       <use xlink:href="#DejaVuSans-35" transform="translate(83.789062 0)"/>
      </g>
     </g>
    </g>
    <g id="ytick_3">
     <g id="line2d_19">
      <path d="M 62.57 120.26 
L 293.638333 120.26 
" clip-path="url(#p8e7787f9fc)" style="fill: none; stroke: #b0b0b0; stroke-opacity: 0.25; stroke-width: 0.8; stroke-linecap: square"/>
     </g>
     <g id="line2d_20">
      <g>
       <use xlink:href="#me122eaa3ae" x="62.57" y="120.26" style="stroke: #000000; stroke-width: 0.8"/>
      </g>
     </g>
     <g id="text_11">
      <!-- 0 -->
      <g transform="translate(49.2075 124.059219) scale(0.1 -0.1)">
       <use xlink:href="#DejaVuSans-30"/>
      </g>
     </g>
    </g>
    <g id="ytick_4">
     <g id="line2d_21">
      <path d="M 62.57 86.17 
L 293.638333 86.17 
" clip-path="url(#p8e7787f9fc)" style="fill: none; stroke: #b0b0b0; stroke-opacity: 0.25; stroke-width: 0.8; stroke-linecap: square"/>
     </g>
     <g id="line2d_22">
      <g>
       <use xlink:href="#me122eaa3ae" x="62.57" y="86.17" style="stroke: #000000; stroke-width: 0.8"/>
      </g>
     </g>
     <g id="text_12">
      <!-- 5 -->
      <g transform="translate(49.2075 89.969219) scale(0.1 -0.1)">
       <use xlink:href="#DejaVuSans-35"/>
      </g>
     </g>
    </g>
    <g id="ytick_5">
     <g id="line2d_23">
      <path d="M 62.57 52.08 
L 293.638333 52.08 
" clip-path="url(#p8e7787f9fc)" style="fill: none; stroke: #b0b0b0; stroke-opacity: 0.25; stroke-width: 0.8; stroke-linecap: square"/>
     </g>
     <g id="line2d_24">
      <g>
       <use xlink:href="#me122eaa3ae" x="62.57" y="52.08" style="stroke: #000000; stroke-width: 0.8"/>
      </g>
     </g>
     <g id="text_13">
      <!-- 10 -->
      <g transform="translate(42.845 55.879219) scale(0.1 -0.1)">
       <use xlink:href="#DejaVuSans-31"/>
       <use xlink:href="#DejaVuSans-30" transform="translate(63.623047 0)"/>
      </g>
     </g>
    </g>
    <g id="text_14">
     <!-- Amplitude -->
     <g transform="translate(28.385625 145.882656) rotate(-90) scale(0.1 -0.1)">
      <defs>
       <path id="DejaVuSans-41" d="M 2188 4044 
L 1331 1722 
L 3047 1722 
L 2188 4044 
z
M 1831 4666 
L 2547 4666 
L 4325 0 
L 3669 0 
L 3244 1197 
L 1141 1197 
L 716 0 
L 50 0 
L 1831 4666 
z
" transform="scale(0.015625)"/>
       <path id="DejaVuSans-6c" d="M 603 4863 
L 1178 4863 
L 1178 0 
L 603 0 
L 603 4863 
z
" transform="scale(0.015625)"/>
       <path id="DejaVuSans-69" d="M 603 3500 
L 1178 3500 
L 1178 0 
L 603 0 
L 603 3500 
z
M 603 4863 
L 1178 4863 
L 1178 4134 
L 603 4134 
L 603 4863 
z
" transform="scale(0.015625)"/>
       <path id="DejaVuSans-74" d="M 1172 4494 
L 1172 3500 
L 2356 3500 
L 2356 3053 
L 1172 3053 
L 1172 1153 
Q 1172 725 1289 603 
Q 1406 481 1766 481 
L 2356 481 
L 2356 0 
L 1766 0 
Q 1100 0 847 248 
Q 594 497 594 1153 
L 594 3053 
L 172 3053 
L 172 3500 
L 594 3500 
L 594 4494 
L 1172 4494 
z
" transform="scale(0.015625)"/>
       <path id="DejaVuSans-75" d="M 544 1381 
L 544 3500 
L 1119 3500 
L 1119 1403 
Q 1119 906 1312 657 
Q 1506 409 1894 409 
Q 2359 409 2629 706 
Q 2900 1003 2900 1516 
L 2900 3500 
L 3475 3500 
L 3475 0 
L 2900 0 
L 2900 538 
Q 2691 219 2414 64 
Q 2138 -91 1772 -91 
Q 1169 -91 856 284 
Q 544 659 544 1381 
z
M 1991 3584 
L 1991 3584 
z
" transform="scale(0.015625)"/>
       <path id="DejaVuSans-64" d="M 2906 2969 
L 2906 4863 
L 3481 4863 
L 3481 0 
L 2906 0 
L 2906 525 
Q 2725 213 2448 61 
Q 2172 -91 1784 -91 
Q 1150 -91 751 415 
Q 353 922 353 1747 
Q 353 2572 751 3078 
Q 1150 3584 1784 3584 
Q 2172 3584 2448 3432 
Q 2725 3281 2906 2969 
z
M 947 1747 
Q 947 1113 1208 752 
Q 1469 391 1925 391 
Q 2381 391 2643 752 
Q 2906 1113 2906 1747 
Q 2906 2381 2643 2742 
Q 2381 3103 1925 3103 
Q 1469 3103 1208 2742 
Q 947 2381 947 1747 
z
" transform="scale(0.015625)"/>
      </defs>
      <use xlink:href="#DejaVuSans-41"/>
      <use xlink:href="#DejaVuSans-6d" transform="translate(68.408203 0)"/>
      <use xlink:href="#DejaVuSans-70" transform="translate(165.820312 0)"/>
      <use xlink:href="#DejaVuSans-6c" transform="translate(229.296875 0)"/>
      <use xlink:href="#DejaVuSans-69" transform="translate(257.080078 0)"/>
      <use xlink:href="#DejaVuSans-74" transform="translate(284.863281 0)"/>
      <use xlink:href="#DejaVuSans-75" transform="translate(324.072266 0)"/>
      <use xlink:href="#DejaVuSans-64" transform="translate(387.451172 0)"/>
      <use xlink:href="#DejaVuSans-65" transform="translate(450.927734 0)"/>
     </g>
    </g>
   </g>
   <g id="line2d_25">
    <path d="M 62.57 120.259161 
L 62.90057 119.688779 
L 63.56171 119.768868 
L 63.892279 119.110518 
L 64.222849 119.119734 
L 64.883989 116.832949 
L 65.214559 117.744295 
L 65.545129 117.502041 
L 65.875699 116.42457 
L 66.536838 116.077208 
L 66.867408 116.496238 
L 67.528548 114.852485 
L 67.859118 115.996518 
L 68.189688 115.160588 
L 68.520258 115.92913 
L 68.850827 115.312737 
L 69.181397 115.506823 
L 69.511967 114.246485 
L 69.842537 114.803371 
L 70.173107 113.625685 
L 70.503677 113.593922 
L 70.834247 113.737481 
L 71.164816 115.254533 
L 71.495386 113.854009 
L 71.825956 113.487614 
L 72.156526 113.364901 
L 72.487096 114.492837 
L 72.817666 113.802563 
L 73.148236 114.190952 
L 73.478805 114.141818 
L 73.809375 112.952984 
L 74.139945 114.331979 
L 74.801085 113.444779 
L 75.131655 114.606137 
L 75.462225 114.462478 
L 75.792794 114.506168 
L 76.123364 114.749672 
L 76.453934 115.855975 
L 77.115074 114.594435 
L 77.445644 116.846846 
L 77.776214 115.49019 
L 78.437353 117.11734 
L 78.767923 115.634099 
L 79.098493 116.805758 
L 79.429063 118.47916 
L 79.759633 117.954254 
L 80.090203 117.962003 
L 80.420773 118.839573 
L 80.751342 118.605429 
L 81.081912 119.480023 
L 81.743052 119.187289 
L 82.073622 120.996377 
L 82.404192 120.764046 
L 82.734762 121.583395 
L 83.065331 121.542777 
L 83.395901 122.797031 
L 83.726471 122.7356 
L 84.057041 122.821377 
L 84.387611 122.414753 
L 84.718181 122.57859 
L 85.048751 124.584641 
L 85.37932 124.536953 
L 85.70989 123.856151 
L 86.04046 125.945946 
L 86.37103 125.181022 
L 86.7016 125.195889 
L 87.03217 124.522692 
L 87.36274 125.144967 
L 87.693309 126.057801 
L 88.354449 126.395473 
L 88.685019 125.355491 
L 89.015589 126.837565 
L 89.346159 126.886013 
L 89.676729 126.553127 
L 90.007299 126.971423 
L 90.337868 127.099871 
L 90.668438 127.781715 
L 90.999008 127.067117 
L 91.329578 127.379039 
L 91.660148 126.279061 
L 92.321288 127.026248 
L 92.651857 126.49241 
L 92.982427 127.098712 
L 93.312997 126.049312 
L 93.643567 126.651074 
L 93.974137 126.111809 
L 94.304707 127.233682 
L 94.635277 125.943457 
L 94.965846 127.139897 
L 95.296416 127.168964 
L 95.626986 125.765209 
L 95.957556 125.932122 
L 96.288126 124.952925 
L 96.618696 123.266552 
L 96.949266 125.083154 
L 97.279835 124.648171 
L 97.610405 123.777879 
L 97.940975 123.266306 
L 98.271545 123.397515 
L 98.602115 123.08367 
L 98.932685 122.12255 
L 99.263255 121.898429 
L 99.593825 122.603279 
L 99.924394 121.593358 
L 100.254964 121.152445 
L 100.585534 121.529918 
L 100.916104 120.266677 
L 101.246674 120.66112 
L 101.577244 119.046274 
L 101.907814 119.212082 
L 102.238383 118.919739 
L 102.568953 119.024444 
L 102.899523 118.347966 
L 103.230093 119.280574 
L 103.560663 118.348127 
L 103.891233 116.995374 
L 104.221803 118.368815 
L 104.552372 116.024859 
L 104.882942 117.487722 
L 105.213512 115.48797 
L 105.544082 116.299432 
L 105.874652 114.924108 
L 106.205222 115.112166 
L 106.535792 116.010197 
L 106.866361 113.887054 
L 107.196931 113.548164 
L 107.527501 114.385043 
L 107.858071 114.353205 
L 108.188641 114.119438 
L 108.519211 114.537466 
L 108.849781 113.004332 
L 109.180351 114.023155 
L 109.51092 113.606789 
L 109.84149 114.051083 
L 110.17206 113.895024 
L 110.50263 114.317026 
L 110.8332 112.586325 
L 111.16377 113.565796 
L 111.49434 112.83929 
L 112.155479 114.104363 
L 112.486049 113.949212 
L 112.816619 114.223002 
L 113.147189 113.968836 
L 113.477759 114.381624 
L 113.808329 114.499597 
L 114.138898 115.421712 
L 114.469468 115.235401 
L 114.800038 113.777261 
L 115.130608 115.597922 
L 115.461178 116.109122 
L 116.122318 114.973008 
L 116.452887 117.214144 
L 116.783457 116.667004 
L 117.114027 117.268673 
L 117.444597 118.361261 
L 117.775167 116.991396 
L 118.105737 117.848373 
L 118.436307 118.130659 
L 118.766876 119.045324 
L 119.097446 118.58038 
L 119.428016 119.620181 
L 119.758586 119.714886 
L 120.089156 120.739901 
L 120.419726 121.181065 
L 120.750296 119.80873 
L 121.080866 121.431073 
L 121.411435 121.250095 
L 122.403145 122.861269 
L 122.733715 122.428925 
L 123.064285 123.400347 
L 123.725424 123.824864 
L 124.055994 123.345458 
L 125.047704 125.383362 
L 125.378274 126.198685 
L 125.708844 124.851879 
L 126.039413 125.067918 
L 126.369983 126.034453 
L 126.700553 125.764224 
L 127.031123 125.778974 
L 127.692263 125.986462 
L 128.022833 127.049238 
L 128.353402 125.810787 
L 128.683972 127.779574 
L 129.014542 126.40868 
L 129.345112 126.706406 
L 129.675682 126.474776 
L 130.006252 125.796737 
L 130.336822 126.053359 
L 130.667392 127.814054 
L 130.997961 128.13273 
L 131.328531 126.353014 
L 131.659101 127.51124 
L 132.320241 126.008248 
L 132.650811 127.554541 
L 132.981381 127.707456 
L 133.31195 125.90968 
L 133.97309 125.839003 
L 134.30366 125.413695 
L 134.63423 125.780157 
L 134.9648 125.964501 
L 135.29537 124.771781 
L 135.956509 125.192256 
L 136.287079 123.416682 
L 136.617649 123.48286 
L 136.948219 122.83412 
L 137.278789 123.447793 
L 137.609359 122.876648 
L 137.939928 122.757518 
L 138.270498 122.323989 
L 138.601068 121.225108 
L 138.931638 121.527836 
L 139.262208 120.38477 
L 139.592778 120.028354 
L 139.923348 118.511709 
L 140.253918 120.4756 
L 140.584487 118.556291 
L 140.915057 118.861537 
L 141.245627 118.453195 
L 141.576197 119.080533 
L 142.237337 116.901997 
L 142.567907 117.135235 
L 142.898476 116.703281 
L 143.229046 116.64648 
L 143.559616 115.361894 
L 143.890186 115.876485 
L 144.220756 117.087643 
L 144.551326 115.798398 
L 145.212465 117.065417 
L 145.873605 113.524309 
L 146.534745 114.885642 
L 146.865315 114.580595 
L 147.195885 113.039781 
L 147.526454 113.593325 
L 148.518164 113.460546 
L 148.848734 112.90542 
L 149.509874 113.302523 
L 149.840443 114.187859 
L 150.171013 113.175324 
L 150.501583 114.056873 
L 150.832153 112.930521 
L 151.162723 114.648004 
L 151.493293 113.999169 
L 151.823863 114.052773 
L 152.154433 115.111382 
L 152.485002 113.21228 
L 152.815572 113.585777 
L 153.146142 115.109229 
L 153.476712 114.494572 
L 153.807282 115.00536 
L 154.137852 117.302806 
L 154.468422 115.621281 
L 154.798991 116.117941 
L 155.129561 116.315661 
L 155.460131 117.414199 
L 155.790701 117.181624 
L 156.121271 117.447004 
L 156.451841 116.851442 
L 156.782411 117.777046 
L 157.11298 118.358978 
L 157.44355 117.66841 
L 157.77412 119.449606 
L 158.10469 119.700185 
L 158.43526 121.039368 
L 158.76583 119.098258 
L 159.0964 119.878229 
L 159.757539 120.811457 
L 160.088109 121.554449 
L 160.418679 121.840682 
L 160.749249 122.51245 
L 161.410389 122.990506 
L 161.740959 122.328637 
L 162.402098 124.035024 
L 162.732668 124.69224 
L 163.063238 125.020456 
L 163.393808 123.772508 
L 163.724378 124.7841 
L 164.716087 126.590859 
L 165.377227 125.629229 
L 165.707797 126.661865 
L 166.699506 126.718801 
L 167.030076 127.975196 
L 167.360646 127.125857 
L 167.691216 127.604671 
L 168.021786 126.456151 
L 168.352356 127.602 
L 169.013495 126.012471 
L 169.344065 127.223597 
L 169.674635 127.358267 
L 170.005205 126.73647 
L 170.335775 126.768035 
L 170.666345 127.32484 
L 171.327485 124.979372 
L 171.658054 126.355804 
L 171.988624 126.127201 
L 172.319194 126.493711 
L 172.649764 125.340062 
L 172.980334 126.16874 
L 173.310904 125.819481 
L 173.641474 123.92455 
L 173.972043 125.133423 
L 174.302613 123.485496 
L 174.633183 122.878616 
L 174.963753 123.425634 
L 175.294323 122.89994 
L 175.624893 121.612222 
L 175.955463 122.735618 
L 176.286032 122.657213 
L 176.616602 122.821152 
L 177.277742 120.168023 
L 177.608312 120.156718 
L 177.938882 121.086153 
L 178.600021 120.052773 
L 178.930591 119.144228 
L 179.261161 119.12061 
L 179.922301 118.064781 
L 180.252871 118.122215 
L 180.91401 117.101903 
L 181.24458 116.974808 
L 181.57515 116.258777 
L 181.90572 115.021671 
L 182.23629 115.600308 
L 182.56686 115.684921 
L 182.89743 116.60482 
L 183.228 114.936939 
L 183.558569 116.289629 
L 183.889139 115.699403 
L 184.219709 113.948427 
L 184.550279 113.858666 
L 184.880849 114.268677 
L 185.211419 115.176327 
L 185.541989 114.125793 
L 185.872558 114.216112 
L 186.533698 112.032567 
L 186.864268 113.36231 
L 187.194838 113.999502 
L 187.525408 114.243955 
L 187.855978 113.481639 
L 188.186547 113.581276 
L 188.517117 114.282962 
L 188.847687 113.475307 
L 189.178257 114.415612 
L 189.508827 112.968243 
L 190.169967 113.234679 
L 190.500536 114.448975 
L 190.831106 113.94431 
L 191.161676 114.571845 
L 191.492246 114.950385 
L 191.822816 115.136227 
L 192.153386 116.026421 
L 192.483956 116.374867 
L 192.814526 115.113204 
L 193.145095 116.062871 
L 193.475665 116.075231 
L 193.806235 115.841868 
L 194.136805 118.01939 
L 194.797945 117.372926 
L 195.128515 117.565059 
L 195.459084 118.436457 
L 195.789654 117.830703 
L 196.120224 118.747004 
L 196.450794 120.079772 
L 196.781364 120.252049 
L 197.111934 119.435119 
L 197.442504 120.035686 
L 197.773073 122.014075 
L 198.103643 120.166459 
L 198.434213 121.041228 
L 198.764783 120.893247 
L 199.095353 122.426417 
L 199.425923 122.716554 
L 199.756493 123.626534 
L 200.087062 121.464855 
L 200.417632 123.641642 
L 200.748202 122.757635 
L 201.078772 124.588926 
L 201.409342 124.332176 
L 201.739912 125.867526 
L 202.401052 124.585735 
L 202.731621 126.352707 
L 203.062191 124.995797 
L 203.392761 125.708589 
L 203.723331 126.845446 
L 204.053901 126.653751 
L 204.384471 126.785235 
L 204.715041 126.648423 
L 205.37618 127.40774 
L 205.70675 127.137315 
L 206.03732 127.696336 
L 206.36789 127.922368 
L 207.02903 126.475901 
L 207.359599 128.10818 
L 207.690169 127.03088 
L 208.020739 127.424534 
L 208.351309 127.576186 
L 208.681879 126.237331 
L 209.012449 127.062655 
L 209.343019 125.559232 
L 209.673588 126.965494 
L 210.004158 126.005355 
L 210.665298 126.401216 
L 210.995868 125.270737 
L 211.326438 125.545635 
L 211.657008 124.782188 
L 211.987577 124.964844 
L 212.318147 125.398465 
L 212.648717 124.440511 
L 212.979287 124.036307 
L 213.309857 123.107976 
L 213.640427 124.058893 
L 213.970997 123.138106 
L 214.301567 123.947269 
L 214.632136 121.983796 
L 214.962706 122.813726 
L 215.293276 122.951052 
L 215.954416 120.240148 
L 216.284986 121.666904 
L 216.946125 120.399228 
L 217.276695 120.296087 
L 217.607265 118.902969 
L 217.937835 119.350987 
L 218.268405 118.935558 
L 218.598975 117.694319 
L 218.929545 118.261818 
L 219.260114 117.113639 
L 219.590684 117.741292 
L 219.921254 117.58498 
L 220.251824 117.699679 
L 220.582394 114.880112 
L 220.912964 116.080197 
L 221.243534 115.421086 
L 221.574103 115.347712 
L 221.904673 114.970971 
L 222.235243 114.81471 
L 222.565813 113.331854 
L 222.896383 115.141871 
L 223.226953 115.313006 
L 223.557523 114.776154 
L 223.888093 114.849231 
L 224.218662 113.301354 
L 224.549232 113.141461 
L 224.879802 114.265456 
L 225.210372 114.486606 
L 225.540942 113.728628 
L 225.871512 112.506078 
L 226.202082 115.364537 
L 226.532651 113.090536 
L 226.863221 114.210281 
L 227.193791 112.814475 
L 227.524361 114.325282 
L 227.854931 113.870901 
L 228.185501 114.808383 
L 228.516071 114.571633 
L 228.84664 113.102891 
L 229.17721 113.648768 
L 229.50778 114.660177 
L 229.83835 115.174766 
L 230.16892 116.084356 
L 230.49949 115.289127 
L 230.83006 115.284611 
L 231.491199 115.85595 
L 231.821769 116.840967 
L 232.152339 116.417584 
L 232.482909 116.706353 
L 232.813479 116.118078 
L 233.144049 116.052728 
L 233.474619 117.754884 
L 233.805188 118.527526 
L 234.135758 118.399495 
L 234.466328 119.125138 
L 234.796898 119.577229 
L 235.127468 119.474659 
L 235.458038 120.51203 
L 235.788608 119.754831 
L 236.119177 120.60656 
L 236.449747 120.73209 
L 237.441457 122.633921 
L 237.772027 122.502407 
L 238.102597 123.061756 
L 238.433166 122.868057 
L 238.763736 123.362424 
L 239.094306 124.611081 
L 239.424876 123.949403 
L 239.755446 125.212772 
L 240.086016 125.007828 
L 240.416586 125.065923 
L 240.747155 126.544481 
L 241.077725 125.317335 
L 241.408295 125.512062 
L 242.069435 126.327499 
L 242.400005 126.479613 
L 242.730575 127.060038 
L 243.061144 126.72962 
L 243.391714 127.055734 
L 243.722284 126.731011 
L 244.052854 127.710061 
L 244.383424 126.804737 
L 245.044564 127.155779 
L 245.375134 127.376055 
L 245.705703 126.697542 
L 246.036273 128.186758 
L 246.366843 126.69585 
L 246.697413 126.78241 
L 247.358553 126.505309 
L 247.689123 127.093048 
L 248.019692 126.686459 
L 248.350262 125.919205 
L 249.011402 125.847943 
L 249.341972 126.81374 
L 249.672542 125.190885 
L 250.003112 124.521206 
L 250.333681 124.376382 
L 250.664251 124.637569 
L 250.994821 125.578111 
L 251.325391 123.580139 
L 251.655961 124.018321 
L 251.986531 125.329114 
L 252.317101 123.020062 
L 252.64767 123.96063 
L 252.97824 123.485402 
L 253.30881 122.685817 
L 253.63938 121.030867 
L 253.96995 121.792214 
L 254.30052 120.991742 
L 254.63109 119.619206 
L 254.96166 119.357026 
L 255.292229 120.146631 
L 255.622799 119.873698 
L 255.953369 120.203158 
L 256.283939 119.45411 
L 256.614509 118.331471 
L 256.945079 117.997289 
L 257.275649 117.843351 
L 257.606218 116.898477 
L 257.936788 117.769359 
L 258.597928 116.103516 
L 258.928498 115.898963 
L 259.259068 115.273744 
L 259.920207 115.666175 
L 260.250777 114.954506 
L 260.581347 115.645953 
L 260.911917 115.856507 
L 261.242487 114.135218 
L 261.573057 114.377772 
L 261.903627 113.956175 
L 262.234196 115.167922 
L 262.564766 114.121542 
L 263.225906 114.242231 
L 263.556476 115.109357 
L 263.887046 113.73853 
L 264.217616 112.856386 
L 264.548186 113.186109 
L 264.878755 113.85312 
L 265.539895 112.98187 
L 265.870465 115.43669 
L 266.201035 113.715828 
L 266.531605 113.356124 
L 266.862175 113.375961 
L 267.192744 112.814704 
L 268.184454 114.275913 
L 268.515024 114.148754 
L 268.845594 115.272711 
L 269.176164 115.167675 
L 269.837303 114.320181 
L 270.167873 116.041075 
L 270.829013 116.38951 
L 271.159583 115.921944 
L 271.490153 117.181266 
L 271.820722 116.49066 
L 272.151292 118.491456 
L 272.481862 118.306208 
L 272.812432 118.667507 
L 273.143002 118.354212 
L 273.473572 118.539829 
L 273.804142 120.646593 
L 274.134711 120.608216 
L 274.465281 120.12226 
L 275.126421 122.12332 
L 275.456991 120.740927 
L 275.787561 121.47235 
L 276.118131 121.828561 
L 276.448701 122.8391 
L 276.77927 122.156985 
L 277.10984 123.358138 
L 277.44041 122.774467 
L 277.77098 124.461588 
L 278.10155 124.729951 
L 278.43212 124.304344 
L 278.76269 125.206848 
L 279.093259 124.538596 
L 279.423829 125.079131 
L 279.754399 126.12855 
L 280.084969 125.677162 
L 280.415539 126.178019 
L 280.746109 125.509265 
L 281.076679 126.743036 
L 281.407248 126.771672 
L 281.737818 125.78884 
L 282.068388 125.212325 
L 282.398958 125.480771 
L 282.729528 126.886541 
L 283.060098 126.846987 
L 283.390668 125.997657 
L 283.721237 127.155249 
L 284.051807 127.74352 
L 284.382377 126.985768 
L 284.712947 126.725428 
L 285.043517 127.546708 
L 285.374087 128.032369 
L 285.704657 127.798767 
L 286.035227 126.255677 
L 286.365796 127.097835 
L 287.026936 126.123949 
L 287.357506 125.664339 
L 287.688076 126.115461 
L 288.018646 125.33139 
L 288.349216 126.046811 
L 288.679785 125.440074 
L 289.010355 125.631047 
L 289.340925 123.886517 
L 289.671495 124.389386 
L 290.002065 124.57579 
L 290.993774 122.633677 
L 291.324344 123.861197 
L 291.985484 122.334164 
L 292.316054 119.99295 
L 292.646624 120.706755 
L 292.977194 121.069992 
L 293.307763 120.142095 
L 293.638333 118.85724 
L 293.638333 118.85724 
" clip-path="url(#p8e7787f9fc)" style="fill: none; stroke: #0b6e4f; stroke-width: 1.3; stroke-linecap: square"/>
   </g>
   <g id="patch_3">
    <path d="M 62.57 188.44 
L 62.57 52.08 
" style="fill: none; stroke: #000000; stroke-width: 0.8; stroke-linejoin: miter; stroke-linecap: square"/>
   </g>
   <g id="patch_4">
    <path d="M 293.638333 188.44 
L 293.638333 52.08 
" style="fill: none; stroke: #000000; stroke-width: 0.8; stroke-linejoin: miter; stroke-linecap: square"/>
   </g>
   <g id="patch_5">
    <path d="M 62.57 188.44 
L 293.638333 188.44 
" style="fill: none; stroke: #000000; stroke-width: 0.8; stroke-linejoin: miter; stroke-linecap: square"/>
   </g>
   <g id="patch_6">
    <path d="M 62.57 52.08 
L 293.638333 52.08 
" style="fill: none; stroke: #000000; stroke-width: 0.8; stroke-linejoin: miter; stroke-linecap: square"/>
   </g>
   <g id="text_15">
    <!-- $\sigma = 0.1$ -->
    <g transform="translate(155.614167 46.08) scale(0.13 -0.13)">
     <defs>
      <path id="DejaVuSans-Oblique-3c3" d="M 2219 3044 
Q 1744 3044 1422 2700 
Q 1081 2341 969 1747 
Q 844 1119 1044 756 
Q 1241 397 1706 397 
Q 2166 397 2503 759 
Q 2844 1122 2966 1747 
Q 3075 2319 2881 2700 
Q 2700 3044 2219 3044 
z
M 2309 3503 
L 4219 3500 
L 4106 2925 
L 3463 2925 
Q 3706 2438 3575 1747 
Q 3406 888 2884 400 
Q 2359 -91 1609 -91 
Q 856 -91 525 400 
Q 194 888 363 1747 
Q 528 2609 1050 3097 
Q 1484 3503 2309 3503 
z
" transform="scale(0.015625)"/>
      <path id="DejaVuSans-3d" d="M 678 2906 
L 4684 2906 
L 4684 2381 
L 678 2381 
L 678 2906 
z
M 678 1631 
L 4684 1631 
L 4684 1100 
L 678 1100 
L 678 1631 
z
" transform="scale(0.015625)"/>
     </defs>
     <use xlink:href="#DejaVuSans-Oblique-3c3" transform="translate(0 0.78125)"/>
     <use xlink:href="#DejaVuSans-3d" transform="translate(82.861328 0.78125)"/>
     <use xlink:href="#DejaVuSans-30" transform="translate(186.132812 0.78125)"/>
     <use xlink:href="#DejaVuSans-2e" transform="translate(249.755859 0.78125)"/>
     <use xlink:href="#DejaVuSans-31" transform="translate(281.542969 0.78125)"/>
    </g>
   </g>
  </g>
  <g id="axes_2">
   <g id="patch_7">
    <path d="M 320.368333 188.44 
L 551.436667 188.44 
L 551.436667 52.08 
L 320.368333 52.08 
z
" style="fill: #ffffff"/>
   </g>
   <g id="matplotlib.axis_3">
    <g id="xtick_8">
     <g id="line2d_26">
      <path d="M 320.368333 188.44 
L 320.368333 52.08 
" clip-path="url(#pbeb8a73065)" style="fill: none; stroke: #b0b0b0; stroke-opacity: 0.25; stroke-width: 0.8; stroke-linecap: square"/>
     </g>
     <g id="line2d_27">
      <g>
       <use xlink:href="#m853036bdcf" x="320.368333" y="188.44" style="stroke: #000000; stroke-width: 0.8"/>
      </g>
     </g>
     <g id="text_16">
      <!-- 0.0 -->
      <g transform="translate(312.416771 203.038438) scale(0.1 -0.1)">
       <use xlink:href="#DejaVuSans-30"/>
       <use xlink:href="#DejaVuSans-2e" transform="translate(63.623047 0)"/>
       <use xlink:href="#DejaVuSans-30" transform="translate(95.410156 0)"/>
      </g>
     </g>
    </g>
    <g id="xtick_9">
     <g id="line2d_28">
      <path d="M 358.879722 188.44 
L 358.879722 52.08 
" clip-path="url(#pbeb8a73065)" style="fill: none; stroke: #b0b0b0; stroke-opacity: 0.25; stroke-width: 0.8; stroke-linecap: square"/>
     </g>
     <g id="line2d_29">
      <g>
       <use xlink:href="#m853036bdcf" x="358.879722" y="188.44" style="stroke: #000000; stroke-width: 0.8"/>
      </g>
     </g>
     <g id="text_17">
      <!-- 0.2 -->
      <g transform="translate(350.92816 203.038438) scale(0.1 -0.1)">
       <use xlink:href="#DejaVuSans-30"/>
       <use xlink:href="#DejaVuSans-2e" transform="translate(63.623047 0)"/>
       <use xlink:href="#DejaVuSans-32" transform="translate(95.410156 0)"/>
      </g>
     </g>
    </g>
    <g id="xtick_10">
     <g id="line2d_30">
      <path d="M 397.391111 188.44 
L 397.391111 52.08 
" clip-path="url(#pbeb8a73065)" style="fill: none; stroke: #b0b0b0; stroke-opacity: 0.25; stroke-width: 0.8; stroke-linecap: square"/>
     </g>
     <g id="line2d_31">
      <g>
       <use xlink:href="#m853036bdcf" x="397.391111" y="188.44" style="stroke: #000000; stroke-width: 0.8"/>
      </g>
     </g>
     <g id="text_18">
      <!-- 0.4 -->
      <g transform="translate(389.439549 203.038438) scale(0.1 -0.1)">
       <use xlink:href="#DejaVuSans-30"/>
       <use xlink:href="#DejaVuSans-2e" transform="translate(63.623047 0)"/>
       <use xlink:href="#DejaVuSans-34" transform="translate(95.410156 0)"/>
      </g>
     </g>
    </g>
    <g id="xtick_11">
     <g id="line2d_32">
      <path d="M 435.9025 188.44 
L 435.9025 52.08 
" clip-path="url(#pbeb8a73065)" style="fill: none; stroke: #b0b0b0; stroke-opacity: 0.25; stroke-width: 0.8; stroke-linecap: square"/>
     </g>
     <g id="line2d_33">
      <g>
       <use xlink:href="#m853036bdcf" x="435.9025" y="188.44" style="stroke: #000000; stroke-width: 0.8"/>
      </g>
     </g>
     <g id="text_19">
      <!-- 0.6 -->
      <g transform="translate(427.950938 203.038438) scale(0.1 -0.1)">
       <use xlink:href="#DejaVuSans-30"/>
       <use xlink:href="#DejaVuSans-2e" transform="translate(63.623047 0)"/>
       <use xlink:href="#DejaVuSans-36" transform="translate(95.410156 0)"/>
      </g>
     </g>
    </g>
    <g id="xtick_12">
     <g id="line2d_34">
      <path d="M 474.413889 188.44 
L 474.413889 52.08 
" clip-path="url(#pbeb8a73065)" style="fill: none; stroke: #b0b0b0; stroke-opacity: 0.25; stroke-width: 0.8; stroke-linecap: square"/>
     </g>
     <g id="line2d_35">
      <g>
       <use xlink:href="#m853036bdcf" x="474.413889" y="188.44" style="stroke: #000000; stroke-width: 0.8"/>
      </g>
     </g>
     <g id="text_20">
      <!-- 0.8 -->
      <g transform="translate(466.462326 203.038438) scale(0.1 -0.1)">
       <use xlink:href="#DejaVuSans-30"/>
       <use xlink:href="#DejaVuSans-2e" transform="translate(63.623047 0)"/>
       <use xlink:href="#DejaVuSans-38" transform="translate(95.410156 0)"/>
      </g>
     </g>
    </g>
    <g id="xtick_13">
     <g id="line2d_36">
      <path d="M 512.925278 188.44 
L 512.925278 52.08 
" clip-path="url(#pbeb8a73065)" style="fill: none; stroke: #b0b0b0; stroke-opacity: 0.25; stroke-width: 0.8; stroke-linecap: square"/>
     </g>
     <g id="line2d_37">
      <g>
       <use xlink:href="#m853036bdcf" x="512.925278" y="188.44" style="stroke: #000000; stroke-width: 0.8"/>
      </g>
     </g>
     <g id="text_21">
      <!-- 1.0 -->
      <g transform="translate(504.973715 203.038438) scale(0.1 -0.1)">
       <use xlink:href="#DejaVuSans-31"/>
       <use xlink:href="#DejaVuSans-2e" transform="translate(63.623047 0)"/>
       <use xlink:href="#DejaVuSans-30" transform="translate(95.410156 0)"/>
      </g>
     </g>
    </g>
    <g id="xtick_14">
     <g id="line2d_38">
      <path d="M 551.436667 188.44 
L 551.436667 52.08 
" clip-path="url(#pbeb8a73065)" style="fill: none; stroke: #b0b0b0; stroke-opacity: 0.25; stroke-width: 0.8; stroke-linecap: square"/>
     </g>
     <g id="line2d_39">
      <g>
       <use xlink:href="#m853036bdcf" x="551.436667" y="188.44" style="stroke: #000000; stroke-width: 0.8"/>
      </g>
     </g>
     <g id="text_22">
      <!-- 1.2 -->
      <g transform="translate(543.485104 203.038438) scale(0.1 -0.1)">
       <use xlink:href="#DejaVuSans-31"/>
       <use xlink:href="#DejaVuSans-2e" transform="translate(63.623047 0)"/>
       <use xlink:href="#DejaVuSans-32" transform="translate(95.410156 0)"/>
      </g>
     </g>
    </g>
    <g id="text_23">
     <!-- Tempo (s) -->
     <g transform="translate(411.422812 216.716563) scale(0.1 -0.1)">
      <use xlink:href="#DejaVuSans-54"/>
      <use xlink:href="#DejaVuSans-65" transform="translate(44.083984 0)"/>
      <use xlink:href="#DejaVuSans-6d" transform="translate(105.607422 0)"/>
      <use xlink:href="#DejaVuSans-70" transform="translate(203.019531 0)"/>
      <use xlink:href="#DejaVuSans-6f" transform="translate(266.496094 0)"/>
      <use xlink:href="#DejaVuSans-20" transform="translate(327.677734 0)"/>
      <use xlink:href="#DejaVuSans-28" transform="translate(359.464844 0)"/>
      <use xlink:href="#DejaVuSans-73" transform="translate(398.478516 0)"/>
      <use xlink:href="#DejaVuSans-29" transform="translate(450.578125 0)"/>
     </g>
    </g>
   </g>
   <g id="matplotlib.axis_4">
    <g id="ytick_6">
     <g id="line2d_40">
      <path d="M 320.368333 188.44 
L 551.436667 188.44 
" clip-path="url(#pbeb8a73065)" style="fill: none; stroke: #b0b0b0; stroke-opacity: 0.25; stroke-width: 0.8; stroke-linecap: square"/>
     </g>
     <g id="line2d_41">
      <g>
       <use xlink:href="#me122eaa3ae" x="320.368333" y="188.44" style="stroke: #000000; stroke-width: 0.8"/>
      </g>
     </g>
    </g>
    <g id="ytick_7">
     <g id="line2d_42">
      <path d="M 320.368333 154.35 
L 551.436667 154.35 
" clip-path="url(#pbeb8a73065)" style="fill: none; stroke: #b0b0b0; stroke-opacity: 0.25; stroke-width: 0.8; stroke-linecap: square"/>
     </g>
     <g id="line2d_43">
      <g>
       <use xlink:href="#me122eaa3ae" x="320.368333" y="154.35" style="stroke: #000000; stroke-width: 0.8"/>
      </g>
     </g>
    </g>
    <g id="ytick_8">
     <g id="line2d_44">
      <path d="M 320.368333 120.26 
L 551.436667 120.26 
" clip-path="url(#pbeb8a73065)" style="fill: none; stroke: #b0b0b0; stroke-opacity: 0.25; stroke-width: 0.8; stroke-linecap: square"/>
     </g>
     <g id="line2d_45">
      <g>
       <use xlink:href="#me122eaa3ae" x="320.368333" y="120.26" style="stroke: #000000; stroke-width: 0.8"/>
      </g>
     </g>
    </g>
    <g id="ytick_9">
     <g id="line2d_46">
      <path d="M 320.368333 86.17 
L 551.436667 86.17 
" clip-path="url(#pbeb8a73065)" style="fill: none; stroke: #b0b0b0; stroke-opacity: 0.25; stroke-width: 0.8; stroke-linecap: square"/>
     </g>
     <g id="line2d_47">
      <g>
       <use xlink:href="#me122eaa3ae" x="320.368333" y="86.17" style="stroke: #000000; stroke-width: 0.8"/>
      </g>
     </g>
    </g>
    <g id="ytick_10">
     <g id="line2d_48">
      <path d="M 320.368333 52.08 
L 551.436667 52.08 
" clip-path="url(#pbeb8a73065)" style="fill: none; stroke: #b0b0b0; stroke-opacity: 0.25; stroke-width: 0.8; stroke-linecap: square"/>
     </g>
     <g id="line2d_49">
      <g>
       <use xlink:href="#me122eaa3ae" x="320.368333" y="52.08" style="stroke: #000000; stroke-width: 0.8"/>
      </g>
     </g>
    </g>
   </g>
   <g id="line2d_50">
    <path d="M 320.368333 121.853666 
L 320.698903 122.39067 
L 321.029473 111.262965 
L 321.360043 115.792374 
L 321.690613 114.223374 
L 322.021183 121.908689 
L 322.351753 104.972799 
L 322.682322 106.090718 
L 323.012892 113.550077 
L 323.343462 112.413513 
L 323.674032 130.580409 
L 324.004602 112.100364 
L 324.335172 117.472512 
L 324.665742 112.903475 
L 324.996311 110.934391 
L 325.657451 126.605737 
L 325.988021 112.340417 
L 326.318591 119.68763 
L 326.649161 116.684794 
L 326.979731 118.372676 
L 327.3103 116.415054 
L 327.64087 129.68554 
L 327.97144 105.513487 
L 328.30201 111.973481 
L 328.96315 100.040045 
L 329.624289 125.743556 
L 329.954859 119.536675 
L 330.285429 121.678265 
L 330.946569 112.980758 
L 331.277139 127.241266 
L 331.607709 111.341307 
L 331.938278 124.079013 
L 332.268848 111.877903 
L 332.599418 114.794267 
L 332.929988 116.346576 
L 333.260558 114.884327 
L 333.591128 118.261689 
L 333.921698 118.968988 
L 334.252268 126.493765 
L 334.913407 102.938032 
L 335.243977 102.288987 
L 335.905117 111.560243 
L 336.235687 121.292227 
L 336.566257 107.161308 
L 336.896826 117.708144 
L 337.227396 118.131078 
L 337.557966 119.990645 
L 337.888536 117.728194 
L 338.219106 121.678157 
L 338.549676 119.642264 
L 338.880246 126.829468 
L 339.210815 122.348344 
L 339.541385 104.61924 
L 339.871955 121.010203 
L 340.202525 122.529733 
L 340.533095 117.637784 
L 340.863665 116.801574 
L 341.194235 129.581278 
L 341.855374 116.426806 
L 342.185944 121.187778 
L 342.516514 122.527919 
L 342.847084 113.086968 
L 343.177654 128.616221 
L 343.508224 123.733049 
L 343.838794 128.133274 
L 344.169363 114.704311 
L 344.499933 138.437343 
L 344.830503 129.948751 
L 345.161073 129.222794 
L 345.491643 121.310694 
L 345.822213 121.904614 
L 346.152783 116.712455 
L 346.483352 137.125989 
L 346.813922 121.428999 
L 347.144492 128.678546 
L 347.475062 131.331755 
L 347.805632 123.210303 
L 348.466772 141.182539 
L 348.797341 129.583411 
L 349.127911 137.288407 
L 349.789051 124.518572 
L 350.119621 124.882573 
L 350.450191 116.128632 
L 351.11133 137.220906 
L 351.4419 131.802461 
L 351.77247 132.777921 
L 352.10304 134.656683 
L 352.43361 123.211489 
L 353.09475 139.263004 
L 353.42532 120.805997 
L 353.755889 126.078258 
L 354.086459 122.631859 
L 354.417029 124.076218 
L 354.747599 120.209463 
L 355.078169 123.963554 
L 355.408739 115.489494 
L 355.739309 120.70491 
L 356.069878 120.604125 
L 356.400448 120.148794 
L 356.731018 132.532845 
L 357.061588 123.375388 
L 357.392158 123.666539 
L 357.722728 120.124318 
L 358.053298 130.440081 
L 358.383867 109.669576 
L 359.045007 128.334928 
L 359.375577 131.360221 
L 359.706147 121.261313 
L 360.036717 119.592035 
L 360.367287 123.518796 
L 360.697856 117.639066 
L 361.028426 122.290047 
L 361.358996 113.815527 
L 361.689566 122.182684 
L 362.020136 117.180052 
L 362.350706 109.928352 
L 362.681276 98.763595 
L 363.011845 122.874026 
L 363.342415 118.889986 
L 363.672985 121.181224 
L 364.003555 109.853898 
L 364.334125 122.790124 
L 364.995265 114.732942 
L 365.325835 121.012807 
L 365.656404 120.693491 
L 365.986974 117.253238 
L 366.317544 128.193409 
L 366.648114 123.608619 
L 366.978684 116.469078 
L 367.309254 112.561251 
L 367.639824 114.776725 
L 367.970393 125.563086 
L 368.631533 107.999647 
L 368.962103 109.670848 
L 369.623243 119.604725 
L 369.953813 109.327286 
L 370.284382 117.673616 
L 370.614952 121.812972 
L 370.945522 119.443568 
L 371.276092 104.250949 
L 371.606662 112.793923 
L 371.937232 106.578054 
L 372.267802 117.953408 
L 372.598371 108.508696 
L 372.928941 119.24133 
L 373.259511 116.463781 
L 373.590081 98.702831 
L 374.251221 119.639769 
L 374.912361 114.613549 
L 375.24293 108.907698 
L 375.90407 129.704702 
L 376.23464 120.085966 
L 376.56521 118.4275 
L 376.89578 118.143622 
L 377.22635 110.275295 
L 377.556919 117.458282 
L 377.887489 114.441821 
L 378.218059 127.859319 
L 378.548629 114.801943 
L 378.879199 106.793302 
L 379.209769 116.179267 
L 379.540339 120.080396 
L 379.870908 121.114918 
L 380.201478 110.330206 
L 380.532048 129.180039 
L 381.193188 120.384322 
L 381.523758 118.767415 
L 381.854328 127.129303 
L 382.184897 122.348566 
L 382.515467 126.622866 
L 382.846037 124.177747 
L 383.176607 126.157059 
L 383.507177 133.282654 
L 384.168317 119.958099 
L 384.498887 132.726811 
L 385.160026 121.939774 
L 385.490596 133.909001 
L 385.821166 125.49337 
L 386.151736 134.07166 
L 386.482306 119.193736 
L 386.812876 111.227386 
L 387.143445 113.255432 
L 387.474015 128.564783 
L 387.804585 122.031167 
L 388.135155 126.240491 
L 388.465725 126.337114 
L 388.796295 116.428786 
L 389.126865 135.904135 
L 389.457434 119.624206 
L 389.788004 127.043285 
L 390.118574 116.977344 
L 390.779714 130.855149 
L 391.110284 124.196927 
L 391.440854 120.8693 
L 391.771423 125.427577 
L 392.101993 122.112523 
L 392.432563 128.750239 
L 392.763133 139.481421 
L 393.093703 118.521795 
L 393.424273 119.604049 
L 393.754843 123.06145 
L 394.085412 123.295033 
L 394.415982 116.375534 
L 394.746552 126.227845 
L 395.077122 127.590441 
L 395.407692 123.713517 
L 395.738262 113.969106 
L 396.068832 131.176812 
L 396.399402 113.23244 
L 396.729971 125.35243 
L 397.060541 128.132406 
L 397.391111 111.668898 
L 398.052251 128.390994 
L 398.382821 121.607505 
L 398.713391 112.452608 
L 399.04396 110.316067 
L 399.37453 121.003975 
L 399.7051 114.976413 
L 400.03567 112.54008 
L 400.36624 121.474065 
L 400.69681 114.337908 
L 401.02738 116.665613 
L 401.357949 119.803694 
L 401.688519 119.217309 
L 402.019089 115.130358 
L 402.349659 115.123002 
L 402.680229 118.935543 
L 403.010799 117.75268 
L 403.341369 107.042143 
L 403.671938 112.975657 
L 404.002508 108.216555 
L 404.333078 105.892176 
L 404.663648 109.9245 
L 404.994218 98.32773 
L 405.324788 119.327718 
L 405.655358 108.098295 
L 405.985928 115.707712 
L 406.316497 100.833997 
L 406.647067 101.860945 
L 406.977637 126.765967 
L 407.308207 120.055321 
L 407.638777 108.947546 
L 407.969347 108.138483 
L 408.299917 108.568458 
L 408.630486 114.159464 
L 408.961056 110.678388 
L 409.291626 109.453039 
L 409.622196 114.578682 
L 409.952766 107.204094 
L 410.283336 129.791572 
L 410.613906 110.260278 
L 410.944475 121.843329 
L 411.275045 108.484466 
L 411.605615 116.822712 
L 411.936185 121.580633 
L 412.266755 113.242737 
L 412.597325 122.289589 
L 412.927895 122.59565 
L 413.258464 127.365798 
L 413.589034 117.180076 
L 414.250174 110.686493 
L 414.580744 118.971359 
L 414.911314 111.210914 
L 415.241884 118.588404 
L 415.572454 119.707078 
L 416.233593 112.584583 
L 416.564163 122.495974 
L 417.225303 121.999094 
L 417.555873 120.703192 
L 417.886443 127.768532 
L 418.217012 114.978657 
L 418.547582 125.070625 
L 418.878152 119.534672 
L 419.208722 128.655603 
L 419.539292 120.913077 
L 419.869862 121.012379 
L 420.200432 126.863372 
L 420.531001 110.518786 
L 420.861571 122.057763 
L 421.192141 112.750131 
L 421.522711 118.59015 
L 421.853281 129.895115 
L 422.183851 128.220752 
L 422.514421 122.861363 
L 422.84499 125.621125 
L 423.17556 125.887663 
L 423.50613 128.345578 
L 423.8367 138.87593 
L 424.16727 128.215963 
L 424.49784 141.916674 
L 424.82841 124.354015 
L 425.158979 131.915624 
L 425.489549 131.899855 
L 426.150689 125.217526 
L 426.481259 136.837545 
L 426.811829 138.973795 
L 427.142399 134.278224 
L 427.472969 140.868611 
L 427.803538 133.45897 
L 428.134108 115.920011 
L 428.464678 133.851196 
L 428.795248 122.068279 
L 429.125818 135.705357 
L 429.456388 124.140422 
L 429.786958 128.168825 
L 430.117527 126.18908 
L 430.448097 121.679691 
L 430.778667 113.344506 
L 431.109237 123.737268 
L 431.439807 123.949148 
L 431.770377 131.152506 
L 432.100947 120.245556 
L 432.431516 125.595644 
L 432.762086 117.929818 
L 433.092656 123.575232 
L 433.423226 111.074113 
L 433.753796 136.121014 
L 434.414936 115.888577 
L 434.745505 123.930391 
L 435.076075 126.57754 
L 435.406645 122.623745 
L 435.737215 129.852189 
L 436.067785 119.265138 
L 436.398355 103.069961 
L 436.728925 111.536671 
L 437.059495 126.541852 
L 437.390064 124.57592 
L 437.720634 121.026532 
L 438.051204 111.070402 
L 438.381774 123.177631 
L 438.712344 121.948756 
L 439.042914 110.885336 
L 439.373484 110.706876 
L 439.704053 118.845902 
L 440.034623 123.624826 
L 440.365193 126.289133 
L 440.695763 120.220939 
L 441.026333 130.409194 
L 441.356903 109.850111 
L 441.687473 119.034273 
L 442.348612 101.601938 
L 442.679182 106.168964 
L 443.009752 121.858878 
L 443.340322 107.946068 
L 443.670892 105.859079 
L 444.001462 118.74167 
L 444.332031 120.071466 
L 444.662601 114.258092 
L 444.993171 124.386672 
L 445.323741 103.418402 
L 445.654311 129.843165 
L 445.984881 121.006952 
L 446.315451 115.335751 
L 446.646021 115.102917 
L 446.97659 112.498284 
L 447.30716 111.875741 
L 447.63773 115.297443 
L 447.9683 106.222971 
L 448.29887 128.712034 
L 448.62944 114.296232 
L 448.96001 119.353837 
L 449.290579 113.781817 
L 449.621149 113.399857 
L 449.951719 121.357124 
L 450.282289 119.760431 
L 450.612859 110.250911 
L 450.943429 113.552621 
L 451.273999 120.860724 
L 451.604568 102.616857 
L 451.935138 101.093767 
L 452.265708 127.131667 
L 452.926848 100.726065 
L 453.257418 112.834747 
L 453.918557 120.308983 
L 454.249127 122.942351 
L 454.579697 121.06638 
L 454.910267 123.739162 
L 455.240837 115.273141 
L 455.571407 123.433907 
L 455.901977 124.0931 
L 456.232546 129.645294 
L 456.563116 122.147242 
L 456.893686 128.260931 
L 457.224256 123.747296 
L 457.554826 115.755417 
L 457.885396 120.699657 
L 458.215966 120.0808 
L 458.546536 121.412187 
L 459.207675 125.312007 
L 459.538245 126.82662 
L 459.868815 119.823459 
L 460.199385 132.648806 
L 460.529955 116.358222 
L 460.860525 125.494498 
L 461.191094 131.043157 
L 461.521664 129.468678 
L 461.852234 130.927482 
L 462.182804 125.379956 
L 462.513374 131.508915 
L 462.843944 118.951548 
L 463.505083 142.423701 
L 463.835653 131.98015 
L 464.166223 140.737266 
L 464.496793 127.342235 
L 464.827363 119.856506 
L 465.157933 122.649028 
L 465.488503 136.152957 
L 465.819072 132.17845 
L 466.149642 114.783245 
L 466.480212 124.647594 
L 466.810782 126.681286 
L 467.471922 109.711011 
L 468.133062 125.135936 
L 468.794201 121.464164 
L 469.124771 129.617346 
L 469.455341 132.411807 
L 469.785911 124.575003 
L 470.116481 131.116242 
L 470.447051 124.789971 
L 470.77762 123.416363 
L 471.10819 107.800263 
L 471.43876 129.243458 
L 471.76933 123.941648 
L 472.0999 123.893509 
L 472.76104 114.939804 
L 473.091609 125.063593 
L 473.422179 126.958315 
L 473.752749 132.180369 
L 474.083319 126.942399 
L 474.413889 116.602546 
L 474.744459 119.581242 
L 475.075029 126.449225 
L 475.405598 121.703192 
L 476.066738 115.009546 
L 476.397308 122.137779 
L 476.727878 119.454209 
L 477.058448 129.806797 
L 477.389018 124.92915 
L 477.719588 105.728959 
L 478.050157 131.367013 
L 478.380727 118.452218 
L 478.711297 114.367351 
L 479.372437 120.836561 
L 479.703007 115.496466 
L 480.033577 114.88244 
L 480.364146 115.192753 
L 480.694716 127.235772 
L 481.025286 115.256126 
L 481.355856 119.916359 
L 481.686426 117.673689 
L 482.016996 112.263119 
L 482.347566 109.332306 
L 482.678135 107.495804 
L 483.008705 116.923151 
L 483.339275 107.186877 
L 483.669845 105.452072 
L 484.000415 105.692558 
L 484.330985 103.974153 
L 484.661555 114.470094 
L 484.992124 114.711029 
L 485.322694 107.965157 
L 485.653264 122.993267 
L 485.983834 112.353515 
L 486.314404 117.52269 
L 486.644974 116.56216 
L 486.975544 126.081884 
L 487.967253 108.735684 
L 488.297823 108.27073 
L 488.628393 115.811207 
L 488.958963 116.811449 
L 489.289533 121.455573 
L 489.620103 113.33285 
L 489.950672 118.060385 
L 490.281242 112.549064 
L 490.611812 105.054982 
L 491.272952 127.870447 
L 491.603522 123.874337 
L 491.934092 128.29684 
L 492.264661 126.872755 
L 492.595231 110.171702 
L 492.925801 117.889306 
L 493.256371 130.165254 
L 493.586941 115.71161 
L 493.917511 111.942475 
L 494.248081 123.35617 
L 494.57865 125.876418 
L 494.90922 123.92979 
L 495.23979 120.047155 
L 495.57036 117.977315 
L 495.90093 114.627257 
L 496.2315 114.760854 
L 496.56207 115.277319 
L 496.892639 114.39668 
L 497.223209 119.485824 
L 497.553779 134.734931 
L 497.884349 125.480428 
L 498.214919 122.724923 
L 498.545489 127.741714 
L 498.876059 119.166748 
L 499.206629 128.070941 
L 499.537198 132.14645 
L 499.867768 116.190969 
L 500.198338 121.684072 
L 500.528908 124.899361 
L 500.859478 120.227435 
L 501.190048 119.434605 
L 501.520618 124.46834 
L 501.851187 143.645417 
L 502.181757 131.571531 
L 502.512327 130.135101 
L 502.842897 133.769543 
L 503.504037 118.945693 
L 503.834607 130.357919 
L 504.165176 134.747076 
L 504.495746 113.120971 
L 504.826316 129.94489 
L 505.156886 135.173007 
L 505.487456 125.026909 
L 505.818026 123.607255 
L 506.148596 131.160583 
L 506.479165 120.79051 
L 506.809735 129.311424 
L 507.140305 132.073956 
L 507.470875 124.339984 
L 507.801445 120.063449 
L 508.132015 129.386375 
L 508.462585 122.542822 
L 508.793155 125.153511 
L 509.123724 104.965777 
L 509.454294 128.748883 
L 509.784864 114.16516 
L 510.115434 123.634139 
L 510.446004 123.80753 
L 510.776574 117.681176 
L 511.107144 116.157674 
L 511.437713 113.260007 
L 512.098853 125.270006 
L 512.429423 124.476642 
L 512.759993 116.96902 
L 513.090563 116.11559 
L 513.421133 110.177118 
L 513.751702 116.490637 
L 514.412842 108.280136 
L 515.073982 128.04705 
L 515.404552 125.617044 
L 515.735122 127.045698 
L 516.065691 106.066094 
L 516.396261 122.379709 
L 516.726831 107.898538 
L 517.057401 112.010395 
L 517.387971 104.028268 
L 517.718541 108.616131 
L 518.049111 115.899409 
L 518.37968 116.326191 
L 518.71025 114.15805 
L 519.04082 113.336191 
L 519.37139 117.958787 
L 519.70196 114.388909 
L 520.03253 103.038097 
L 520.3631 125.477786 
L 520.69367 111.990976 
L 521.024239 119.836615 
L 521.354809 112.296669 
L 521.685379 107.784076 
L 522.015949 113.860954 
L 522.346519 108.175648 
L 522.677089 124.282919 
L 523.007659 105.913287 
L 523.338228 117.609991 
L 523.668798 109.311059 
L 523.999368 112.386988 
L 524.329938 131.354841 
L 524.660508 118.995882 
L 524.991078 112.470836 
L 525.321648 103.530758 
L 525.652217 112.336515 
L 525.982787 112.72483 
L 526.313357 124.316973 
L 526.643927 105.14744 
L 526.974497 102.819624 
L 527.305067 115.195616 
L 527.635637 117.153071 
L 527.966206 126.971167 
L 528.627346 98.100693 
L 528.957916 111.948463 
L 529.288486 108.544667 
L 529.619056 113.796518 
L 529.949626 124.548227 
L 530.280196 109.065934 
L 530.610765 126.94973 
L 530.941335 120.326765 
L 531.602475 113.597776 
L 531.933045 117.148099 
L 532.263615 117.714488 
L 532.594185 125.911121 
L 532.924754 129.876263 
L 533.255324 121.029787 
L 533.916464 131.081292 
L 534.247034 131.146164 
L 534.577604 126.200212 
L 534.908174 135.825416 
L 535.238743 132.709059 
L 535.569313 134.988378 
L 535.899883 122.904957 
L 536.230453 121.662247 
L 536.561023 111.043311 
L 536.891593 135.209277 
L 537.222163 129.889951 
L 537.552732 119.277084 
L 537.883302 127.204806 
L 538.213872 128.16799 
L 538.544442 114.480561 
L 538.875012 128.619015 
L 539.205582 134.355181 
L 539.536152 135.593558 
L 539.866722 124.449834 
L 540.197291 124.762558 
L 540.527861 136.281914 
L 540.858431 133.714634 
L 541.189001 123.397498 
L 541.519571 123.134605 
L 541.850141 131.463333 
L 542.180711 122.823184 
L 542.51128 123.134368 
L 542.84185 139.138445 
L 543.17242 129.037619 
L 543.50299 123.988879 
L 543.83356 130.616597 
L 544.16413 141.164011 
L 544.4947 128.363394 
L 545.155839 115.311264 
L 545.486409 140.82388 
L 545.816979 107.853789 
L 546.147549 133.124783 
L 546.478119 118.66883 
L 546.808689 116.517838 
L 547.139258 117.955943 
L 547.469828 123.350822 
L 547.800398 131.990276 
L 548.130968 119.489578 
L 548.461538 128.317458 
L 548.792108 140.311025 
L 549.122678 103.485861 
L 549.453247 117.600144 
L 549.783817 109.680721 
L 550.114387 127.93492 
L 550.444957 111.352903 
L 550.775527 110.154276 
L 551.106097 110.028618 
L 551.436667 120.404585 
L 551.436667 120.404585 
" clip-path="url(#pbeb8a73065)" style="fill: none; stroke: #0b6e4f; stroke-width: 1.3; stroke-linecap: square"/>
   </g>
   <g id="patch_8">
    <path d="M 320.368333 188.44 
L 320.368333 52.08 
" style="fill: none; stroke: #000000; stroke-width: 0.8; stroke-linejoin: miter; stroke-linecap: square"/>
   </g>
   <g id="patch_9">
    <path d="M 551.436667 188.44 
L 551.436667 52.08 
" style="fill: none; stroke: #000000; stroke-width: 0.8; stroke-linejoin: miter; stroke-linecap: square"/>
   </g>
   <g id="patch_10">
    <path d="M 320.368333 188.44 
L 551.436667 188.44 
" style="fill: none; stroke: #000000; stroke-width: 0.8; stroke-linejoin: miter; stroke-linecap: square"/>
   </g>
   <g id="patch_11">
    <path d="M 320.368333 52.08 
L 551.436667 52.08 
" style="fill: none; stroke: #000000; stroke-width: 0.8; stroke-linejoin: miter; stroke-linecap: square"/>
   </g>
   <g id="text_24">
    <!-- $\sigma = 1.0$ -->
    <g transform="translate(413.4125 46.08) scale(0.13 -0.13)">
     <use xlink:href="#DejaVuSans-Oblique-3c3" transform="translate(0 0.78125)"/>
     <use xlink:href="#DejaVuSans-3d" transform="translate(82.861328 0.78125)"/>
     <use xlink:href="#DejaVuSans-31" transform="translate(186.132812 0.78125)"/>
     <use xlink:href="#DejaVuSans-2e" transform="translate(249.755859 0.78125)"/>
     <use xlink:href="#DejaVuSans-30" transform="translate(281.542969 0.78125)"/>
    </g>
   </g>
  </g>
  <g id="axes_3">
   <g id="patch_12">
    <path d="M 578.166667 188.44 
L 809.235 188.44 
L 809.235 52.08 
L 578.166667 52.08 
z
" style="fill: #ffffff"/>
   </g>
   <g id="matplotlib.axis_5">
    <g id="xtick_15">
     <g id="line2d_51">
      <path d="M 578.166667 188.44 
L 578.166667 52.08 
" clip-path="url(#p038ee6345e)" style="fill: none; stroke: #b0b0b0; stroke-opacity: 0.25; stroke-width: 0.8; stroke-linecap: square"/>
     </g>
     <g id="line2d_52">
      <g>
       <use xlink:href="#m853036bdcf" x="578.166667" y="188.44" style="stroke: #000000; stroke-width: 0.8"/>
      </g>
     </g>
     <g id="text_25">
      <!-- 0.0 -->
      <g transform="translate(570.215104 203.038438) scale(0.1 -0.1)">
       <use xlink:href="#DejaVuSans-30"/>
       <use xlink:href="#DejaVuSans-2e" transform="translate(63.623047 0)"/>
       <use xlink:href="#DejaVuSans-30" transform="translate(95.410156 0)"/>
      </g>
     </g>
    </g>
    <g id="xtick_16">
     <g id="line2d_53">
      <path d="M 616.678056 188.44 
L 616.678056 52.08 
" clip-path="url(#p038ee6345e)" style="fill: none; stroke: #b0b0b0; stroke-opacity: 0.25; stroke-width: 0.8; stroke-linecap: square"/>
     </g>
     <g id="line2d_54">
      <g>
       <use xlink:href="#m853036bdcf" x="616.678056" y="188.44" style="stroke: #000000; stroke-width: 0.8"/>
      </g>
     </g>
     <g id="text_26">
      <!-- 0.2 -->
      <g transform="translate(608.726493 203.038438) scale(0.1 -0.1)">
       <use xlink:href="#DejaVuSans-30"/>
       <use xlink:href="#DejaVuSans-2e" transform="translate(63.623047 0)"/>
       <use xlink:href="#DejaVuSans-32" transform="translate(95.410156 0)"/>
      </g>
     </g>
    </g>
    <g id="xtick_17">
     <g id="line2d_55">
      <path d="M 655.189444 188.44 
L 655.189444 52.08 
" clip-path="url(#p038ee6345e)" style="fill: none; stroke: #b0b0b0; stroke-opacity: 0.25; stroke-width: 0.8; stroke-linecap: square"/>
     </g>
     <g id="line2d_56">
      <g>
       <use xlink:href="#m853036bdcf" x="655.189444" y="188.44" style="stroke: #000000; stroke-width: 0.8"/>
      </g>
     </g>
     <g id="text_27">
      <!-- 0.4 -->
      <g transform="translate(647.237882 203.038438) scale(0.1 -0.1)">
       <use xlink:href="#DejaVuSans-30"/>
       <use xlink:href="#DejaVuSans-2e" transform="translate(63.623047 0)"/>
       <use xlink:href="#DejaVuSans-34" transform="translate(95.410156 0)"/>
      </g>
     </g>
    </g>
    <g id="xtick_18">
     <g id="line2d_57">
      <path d="M 693.700833 188.44 
L 693.700833 52.08 
" clip-path="url(#p038ee6345e)" style="fill: none; stroke: #b0b0b0; stroke-opacity: 0.25; stroke-width: 0.8; stroke-linecap: square"/>
     </g>
     <g id="line2d_58">
      <g>
       <use xlink:href="#m853036bdcf" x="693.700833" y="188.44" style="stroke: #000000; stroke-width: 0.8"/>
      </g>
     </g>
     <g id="text_28">
      <!-- 0.6 -->
      <g transform="translate(685.749271 203.038438) scale(0.1 -0.1)">
       <use xlink:href="#DejaVuSans-30"/>
       <use xlink:href="#DejaVuSans-2e" transform="translate(63.623047 0)"/>
       <use xlink:href="#DejaVuSans-36" transform="translate(95.410156 0)"/>
      </g>
     </g>
    </g>
    <g id="xtick_19">
     <g id="line2d_59">
      <path d="M 732.212222 188.44 
L 732.212222 52.08 
" clip-path="url(#p038ee6345e)" style="fill: none; stroke: #b0b0b0; stroke-opacity: 0.25; stroke-width: 0.8; stroke-linecap: square"/>
     </g>
     <g id="line2d_60">
      <g>
       <use xlink:href="#m853036bdcf" x="732.212222" y="188.44" style="stroke: #000000; stroke-width: 0.8"/>
      </g>
     </g>
     <g id="text_29">
      <!-- 0.8 -->
      <g transform="translate(724.26066 203.038438) scale(0.1 -0.1)">
       <use xlink:href="#DejaVuSans-30"/>
       <use xlink:href="#DejaVuSans-2e" transform="translate(63.623047 0)"/>
       <use xlink:href="#DejaVuSans-38" transform="translate(95.410156 0)"/>
      </g>
     </g>
    </g>
    <g id="xtick_20">
     <g id="line2d_61">
      <path d="M 770.723611 188.44 
L 770.723611 52.08 
" clip-path="url(#p038ee6345e)" style="fill: none; stroke: #b0b0b0; stroke-opacity: 0.25; stroke-width: 0.8; stroke-linecap: square"/>
     </g>
     <g id="line2d_62">
      <g>
       <use xlink:href="#m853036bdcf" x="770.723611" y="188.44" style="stroke: #000000; stroke-width: 0.8"/>
      </g>
     </g>
     <g id="text_30">
      <!-- 1.0 -->
      <g transform="translate(762.772049 203.038438) scale(0.1 -0.1)">
       <use xlink:href="#DejaVuSans-31"/>
       <use xlink:href="#DejaVuSans-2e" transform="translate(63.623047 0)"/>
       <use xlink:href="#DejaVuSans-30" transform="translate(95.410156 0)"/>
      </g>
     </g>
    </g>
    <g id="xtick_21">
     <g id="line2d_63">
      <path d="M 809.235 188.44 
L 809.235 52.08 
" clip-path="url(#p038ee6345e)" style="fill: none; stroke: #b0b0b0; stroke-opacity: 0.25; stroke-width: 0.8; stroke-linecap: square"/>
     </g>
     <g id="line2d_64">
      <g>
       <use xlink:href="#m853036bdcf" x="809.235" y="188.44" style="stroke: #000000; stroke-width: 0.8"/>
      </g>
     </g>
     <g id="text_31">
      <!-- 1.2 -->
      <g transform="translate(801.283438 203.038438) scale(0.1 -0.1)">
       <use xlink:href="#DejaVuSans-31"/>
       <use xlink:href="#DejaVuSans-2e" transform="translate(63.623047 0)"/>
       <use xlink:href="#DejaVuSans-32" transform="translate(95.410156 0)"/>
      </g>
     </g>
    </g>
    <g id="text_32">
     <!-- Tempo (s) -->
     <g transform="translate(669.221146 216.716563) scale(0.1 -0.1)">
      <use xlink:href="#DejaVuSans-54"/>
      <use xlink:href="#DejaVuSans-65" transform="translate(44.083984 0)"/>
      <use xlink:href="#DejaVuSans-6d" transform="translate(105.607422 0)"/>
      <use xlink:href="#DejaVuSans-70" transform="translate(203.019531 0)"/>
      <use xlink:href="#DejaVuSans-6f" transform="translate(266.496094 0)"/>
      <use xlink:href="#DejaVuSans-20" transform="translate(327.677734 0)"/>
      <use xlink:href="#DejaVuSans-28" transform="translate(359.464844 0)"/>
      <use xlink:href="#DejaVuSans-73" transform="translate(398.478516 0)"/>
      <use xlink:href="#DejaVuSans-29" transform="translate(450.578125 0)"/>
     </g>
    </g>
   </g>
   <g id="matplotlib.axis_6">
    <g id="ytick_11">
     <g id="line2d_65">
      <path d="M 578.166667 188.44 
L 809.235 188.44 
" clip-path="url(#p038ee6345e)" style="fill: none; stroke: #b0b0b0; stroke-opacity: 0.25; stroke-width: 0.8; stroke-linecap: square"/>
     </g>
     <g id="line2d_66">
      <g>
       <use xlink:href="#me122eaa3ae" x="578.166667" y="188.44" style="stroke: #000000; stroke-width: 0.8"/>
      </g>
     </g>
    </g>
    <g id="ytick_12">
     <g id="line2d_67">
      <path d="M 578.166667 154.35 
L 809.235 154.35 
" clip-path="url(#p038ee6345e)" style="fill: none; stroke: #b0b0b0; stroke-opacity: 0.25; stroke-width: 0.8; stroke-linecap: square"/>
     </g>
     <g id="line2d_68">
      <g>
       <use xlink:href="#me122eaa3ae" x="578.166667" y="154.35" style="stroke: #000000; stroke-width: 0.8"/>
      </g>
     </g>
    </g>
    <g id="ytick_13">
     <g id="line2d_69">
      <path d="M 578.166667 120.26 
L 809.235 120.26 
" clip-path="url(#p038ee6345e)" style="fill: none; stroke: #b0b0b0; stroke-opacity: 0.25; stroke-width: 0.8; stroke-linecap: square"/>
     </g>
     <g id="line2d_70">
      <g>
       <use xlink:href="#me122eaa3ae" x="578.166667" y="120.26" style="stroke: #000000; stroke-width: 0.8"/>
      </g>
     </g>
    </g>
    <g id="ytick_14">
     <g id="line2d_71">
      <path d="M 578.166667 86.17 
L 809.235 86.17 
" clip-path="url(#p038ee6345e)" style="fill: none; stroke: #b0b0b0; stroke-opacity: 0.25; stroke-width: 0.8; stroke-linecap: square"/>
     </g>
     <g id="line2d_72">
      <g>
       <use xlink:href="#me122eaa3ae" x="578.166667" y="86.17" style="stroke: #000000; stroke-width: 0.8"/>
      </g>
     </g>
    </g>
    <g id="ytick_15">
     <g id="line2d_73">
      <path d="M 578.166667 52.08 
L 809.235 52.08 
" clip-path="url(#p038ee6345e)" style="fill: none; stroke: #b0b0b0; stroke-opacity: 0.25; stroke-width: 0.8; stroke-linecap: square"/>
     </g>
     <g id="line2d_74">
      <g>
       <use xlink:href="#me122eaa3ae" x="578.166667" y="52.08" style="stroke: #000000; stroke-width: 0.8"/>
      </g>
     </g>
    </g>
   </g>
   <g id="line2d_75">
    <path d="M 578.166667 161.251931 
L 578.497237 125.937057 
L 578.827806 194.618395 
L 579.158376 177.183265 
L 579.488946 115.666331 
L 579.819516 152.240403 
L 580.150086 123.69801 
L 580.480656 121.46251 
L 580.811226 51.590224 
L 581.141795 72.842912 
L 581.472365 118.288251 
L 581.802935 75.236885 
L 582.133505 142.729501 
L 582.464075 127.346664 
L 582.794645 84.557853 
L 583.125215 157.654752 
L 583.455784 124.590486 
L 583.786354 159.876221 
L 584.447494 58.781068 
L 584.778064 139.890111 
L 585.108634 106.385968 
L 585.439204 144.52893 
L 585.769773 152.998756 
L 586.100343 155.830905 
L 586.430913 64.017533 
L 586.761483 33.003181 
L 587.092053 97.019768 
L 587.422623 137.872973 
L 587.753193 89.412399 
L 588.083763 124.84668 
L 588.414332 86.157161 
L 588.744902 103.603824 
L 589.075472 104.055239 
L 589.406042 92.974264 
L 589.736612 133.53634 
L 590.067182 127.690238 
L 590.397752 172.725018 
L 590.728321 129.271568 
L 591.058891 162.873641 
L 591.389461 119.513664 
L 591.720031 147.438797 
L 592.050601 111.56965 
L 592.381171 99.812613 
L 592.711741 163.93286 
L 593.04231 143.516687 
L 593.37288 148.23362 
L 593.70345 90.924438 
L 594.03402 58.510104 
L 594.36459 87.9691 
L 594.69516 129.237158 
L 595.02573 67.719417 
L 595.356299 169.620991 
L 595.686869 67.242074 
L 596.348009 213.851233 
L 596.678579 29.068738 
L 597.009149 66.005898 
L 597.339719 155.34499 
L 597.670289 114.774206 
L 598.000858 128.214832 
L 598.331428 117.782805 
L 598.661998 172.194783 
L 598.992568 145.219732 
L 599.323138 106.387832 
L 599.653708 115.095899 
L 599.984278 82.14549 
L 600.314847 120.640716 
L 600.645417 43.597293 
L 600.975987 148.394455 
L 601.306557 115.456569 
L 601.637127 189.914791 
L 601.967697 167.584541 
L 602.298267 79.840109 
L 602.628836 157.519871 
L 602.959406 107.524285 
L 603.289976 127.940475 
L 603.620546 161.646874 
L 603.951116 138.096707 
L 604.281686 143.924458 
L 604.612256 143.16004 
L 604.942825 100.988459 
L 605.273395 104.555096 
L 605.603965 146.573523 
L 605.934535 157.888497 
L 606.265105 117.397264 
L 606.595675 130.468787 
L 606.926245 92.022456 
L 607.256814 36.555169 
L 607.587384 98.316538 
L 607.917954 128.193742 
L 608.248524 132.813092 
L 608.579094 156.071691 
L 608.909664 157.675127 
L 609.240234 160.853828 
L 609.570804 139.986535 
L 609.901373 140.914871 
L 610.231943 100.826043 
L 610.562513 139.590756 
L 610.893083 132.512337 
L 611.223653 167.088578 
L 611.554223 69.254968 
L 611.884793 107.781609 
L 612.215362 63.814341 
L 612.545932 97.350249 
L 612.876502 73.441076 
L 613.207072 132.388863 
L 613.537642 99.15443 
L 613.868212 31.04653 
L 614.198782 164.653557 
L 614.529351 82.50248 
L 614.859921 64.369983 
L 615.190491 107.54228 
L 615.521061 95.45328 
L 615.851631 77.553765 
L 616.182201 143.661333 
L 616.512771 106.214269 
L 616.84334 150.348253 
L 617.17391 143.273641 
L 617.50448 140.87347 
L 617.83505 123.966914 
L 618.49619 102.482297 
L 618.82676 167.379988 
L 619.15733 48.483959 
L 619.487899 76.896256 
L 619.818469 91.569503 
L 620.149039 129.097098 
L 620.479609 119.409878 
L 620.810179 96.873751 
L 621.140749 101.356083 
L 621.471319 174.126243 
L 622.132458 13.093023 
L 622.463028 179.280978 
L 622.793598 79.77031 
L 623.454738 118.066864 
L 623.785308 66.045274 
L 624.115877 155.244106 
L 624.777017 62.451377 
L 625.107587 120.461427 
L 625.438157 128.14379 
L 625.768727 109.446324 
L 626.099297 129.016663 
L 626.429866 59.268632 
L 626.760436 145.227429 
L 627.091006 82.921469 
L 627.421576 157.417688 
L 627.752146 90.191576 
L 628.082716 117.401362 
L 628.413286 204.355508 
L 628.743856 114.183682 
L 629.074425 151.515125 
L 629.404995 129.866792 
L 629.735565 60.566699 
L 630.066135 153.840422 
L 630.396705 152.061408 
L 630.727275 64.656978 
L 631.057845 111.327018 
L 631.388414 61.63129 
L 632.049554 147.144624 
L 632.380124 118.84866 
L 632.710694 73.743602 
L 633.041264 84.178345 
L 633.371834 117.461395 
L 633.702403 116.122991 
L 634.032973 122.123596 
L 634.363543 138.804602 
L 634.694113 51.191811 
L 635.024683 119.000455 
L 635.355253 159.261026 
L 635.685823 136.702623 
L 636.016392 94.892837 
L 636.346962 98.234914 
L 637.008102 144.877552 
L 637.338672 120.971134 
L 637.669242 180.823048 
L 637.999812 168.142471 
L 638.330381 94.857003 
L 638.660951 139.993021 
L 639.322091 81.139135 
L 639.983231 123.721528 
L 640.313801 50.139696 
L 640.97494 137.680912 
L 641.30551 99.839837 
L 641.63608 111.43132 
L 641.96665 155.93724 
L 642.29722 123.576412 
L 642.62779 132.094251 
L 642.95836 195.386963 
L 643.288929 132.657163 
L 643.619499 136.660675 
L 643.950069 142.20599 
L 644.280639 184.579137 
L 644.611209 139.427122 
L 644.941779 128.434112 
L 645.272349 123.49793 
L 645.602918 166.873134 
L 645.933488 104.899227 
L 646.264058 169.634569 
L 646.594628 134.823498 
L 646.925198 81.172823 
L 647.255768 151.083011 
L 647.586338 144.606674 
L 647.916907 88.967468 
L 648.247477 139.889583 
L 648.578047 136.675062 
L 648.908617 118.335812 
L 649.239187 89.123816 
L 649.569757 202.872511 
L 649.900327 154.456392 
L 650.230897 160.473657 
L 650.561466 162.922956 
L 650.892036 154.581794 
L 651.222606 153.741102 
L 651.553176 113.530555 
L 651.883746 154.855889 
L 652.214316 119.159831 
L 652.544886 109.085964 
L 652.875455 148.274425 
L 653.206025 117.864145 
L 653.536595 64.889744 
L 654.197735 143.618406 
L 654.528305 123.261692 
L 654.858875 152.60198 
L 655.189444 110.812426 
L 655.520014 89.809772 
L 655.850584 148.091517 
L 656.181154 126.455008 
L 656.511724 80.030098 
L 656.842294 135.777907 
L 657.172864 111.543242 
L 657.503433 153.409307 
L 657.834003 145.934736 
L 658.164573 134.923861 
L 658.495143 42.567795 
L 658.825713 130.392789 
L 659.156283 134.215371 
L 659.486853 135.061112 
L 659.817423 121.232784 
L 660.147992 92.965885 
L 660.478562 108.620303 
L 660.809132 44.697684 
L 661.139702 107.344624 
L 661.470272 65.091523 
L 661.800842 104.818046 
L 662.131412 93.441927 
L 662.461981 163.151548 
L 662.792551 118.14209 
L 663.123121 116.051223 
L 663.453691 121.892436 
L 663.784261 186.930239 
L 664.114831 83.46624 
L 664.445401 126.652501 
L 664.77597 128.376006 
L 665.10654 122.148386 
L 665.43711 121.252051 
L 665.76768 99.645812 
L 666.09825 156.919843 
L 666.42882 145.415528 
L 666.75939 103.873713 
L 667.089959 108.942421 
L 667.420529 126.887918 
L 668.081669 142.831858 
L 668.412239 116.57081 
L 668.742809 74.541988 
L 669.073379 151.089682 
L 669.403948 63.333629 
L 669.734518 86.749553 
L 670.065088 131.233536 
L 670.395658 89.381094 
L 670.726228 166.345046 
L 671.056798 175.709375 
L 671.387368 160.96666 
L 671.717938 131.293724 
L 672.048507 128.75471 
L 672.379077 135.566264 
L 672.709647 114.965871 
L 673.040217 191.498258 
L 673.370787 102.184576 
L 673.701357 167.818628 
L 674.031927 142.329102 
L 674.362496 134.242147 
L 674.693066 159.950931 
L 675.023636 167.639924 
L 675.354206 155.564836 
L 675.684776 122.036025 
L 676.015346 101.87511 
L 676.345916 103.105855 
L 676.676485 156.589811 
L 677.007055 150.012396 
L 677.337625 154.742764 
L 677.668195 108.348158 
L 677.998765 193.45082 
L 678.329335 82.082225 
L 678.659905 141.114512 
L 678.990474 151.575595 
L 679.321044 113.557579 
L 679.651614 90.177741 
L 679.982184 113.936339 
L 680.312754 89.946648 
L 680.643324 121.457908 
L 680.973894 84.306509 
L 681.304464 83.946727 
L 681.635033 129.93697 
L 681.965603 77.616435 
L 682.296173 121.17775 
L 682.626743 123.926891 
L 682.957313 158.3784 
L 683.287883 136.866655 
L 683.618453 100.551465 
L 683.949022 171.824739 
L 684.279592 104.928444 
L 684.610162 115.167515 
L 684.940732 117.547718 
L 685.271302 202.167432 
L 685.601872 130.38654 
L 685.932442 104.667468 
L 686.263011 152.656527 
L 686.593581 123.431004 
L 686.924151 207.422069 
L 687.254721 103.292034 
L 687.585291 148.571214 
L 687.915861 96.076718 
L 688.246431 188.378201 
L 688.577 101.719156 
L 688.90757 133.142036 
L 689.23814 97.265814 
L 689.56871 156.073532 
L 689.89928 145.305966 
L 690.22985 47.472757 
L 690.56042 151.895511 
L 690.89099 147.345709 
L 691.221559 132.371949 
L 691.552129 157.460516 
L 691.882699 81.67023 
L 692.213269 63.092815 
L 692.543839 145.542348 
L 692.874409 180.016941 
L 693.204979 80.858264 
L 693.535548 82.658802 
L 693.866118 92.065803 
L 694.196688 80.283555 
L 694.527258 148.917433 
L 694.857828 124.724671 
L 695.188398 165.805777 
L 695.518968 166.612269 
L 695.849537 84.472767 
L 696.180107 140.482256 
L 696.510677 39.532163 
L 696.841247 114.388758 
L 697.171817 138.434159 
L 697.832957 54.598881 
L 698.494096 156.947703 
L 698.824666 102.553963 
L 699.155236 68.068245 
L 699.485806 131.553308 
L 699.816376 140.904575 
L 700.146946 79.689468 
L 700.477515 109.394949 
L 700.808085 151.596101 
L 701.138655 126.818169 
L 701.469225 139.513883 
L 701.799795 103.553212 
L 702.130365 109.832742 
L 702.460935 74.291473 
L 702.791505 89.275686 
L 703.122074 166.746747 
L 703.452644 99.569087 
L 703.783214 82.884316 
L 704.113784 97.956932 
L 704.444354 78.439904 
L 704.774924 132.365998 
L 705.105494 146.140335 
L 705.436063 82.134949 
L 705.766633 150.295953 
L 706.097203 187.744401 
L 706.427773 79.342635 
L 706.758343 139.169264 
L 707.088913 125.11909 
L 707.419483 162.562114 
L 707.750052 160.327511 
L 708.080622 154.818554 
L 708.741762 103.319218 
L 709.072332 194.555174 
L 709.402902 90.88325 
L 709.733472 157.132057 
L 710.064041 153.511166 
L 710.394611 94.384379 
L 710.725181 120.37666 
L 711.055751 170.556396 
L 711.386321 55.650233 
L 711.716891 148.229042 
L 712.047461 110.821487 
L 712.378031 112.803192 
L 712.7086 71.872146 
L 713.03917 135.885676 
L 713.36974 86.353518 
L 713.70031 146.376343 
L 714.03088 83.19559 
L 714.36145 147.819285 
L 714.69202 134.512518 
L 715.022589 57.881442 
L 715.353159 112.052961 
L 715.683729 119.45285 
L 716.014299 47.090557 
L 716.344869 111.521366 
L 716.675439 151.969722 
L 717.006009 99.400415 
L 717.336578 165.0115 
L 717.667148 86.534808 
L 717.997718 84.144677 
L 718.328288 145.031447 
L 718.658858 147.132016 
L 718.989428 119.921488 
L 719.319998 125.651131 
L 719.650567 159.641132 
L 719.981137 107.106129 
L 720.311707 196.222203 
L 720.642277 141.494777 
L 720.972847 140.614043 
L 721.303417 136.245269 
L 721.633987 116.52294 
L 721.964557 168.906453 
L 722.295126 107.00793 
L 722.625696 133.219295 
L 722.956266 149.231321 
L 723.286836 173.628375 
L 723.617406 167.313589 
L 723.947976 114.626497 
L 724.278546 159.676821 
L 724.939685 90.377775 
L 725.270255 91.231013 
L 725.600825 73.074939 
L 725.931395 136.187109 
L 726.261965 162.879856 
L 726.592535 90.881699 
L 726.923104 114.885572 
L 727.253674 86.87798 
L 727.584244 124.555699 
L 727.914814 83.898582 
L 728.245384 95.517573 
L 728.575954 99.648942 
L 728.906524 106.596361 
L 729.237093 109.883439 
L 729.567663 115.1671 
L 729.898233 115.072148 
L 730.228803 88.67225 
L 730.559373 139.529758 
L 730.889943 62.54997 
L 731.220513 124.980145 
L 731.551082 87.402325 
L 731.881652 123.703859 
L 732.212222 128.668844 
L 732.542792 50.613351 
L 732.873362 130.07156 
L 733.203932 162.701982 
L 733.865072 129.25793 
L 734.195641 44.621526 
L 734.526211 110.698399 
L 734.856781 85.544329 
L 735.187351 151.223544 
L 735.517921 104.738128 
L 735.848491 93.557573 
L 736.179061 54.731617 
L 736.50963 139.597704 
L 736.8402 95.014444 
L 737.17077 105.011457 
L 737.50134 149.910287 
L 737.83191 115.511849 
L 738.16248 123.614736 
L 738.49305 193.705238 
L 738.823619 93.842498 
L 739.154189 95.669302 
L 739.815329 159.44221 
L 740.145899 63.251656 
L 740.476469 104.542116 
L 740.807039 78.879259 
L 741.137608 65.408858 
L 741.468178 131.212258 
L 741.798748 85.755807 
L 742.129318 121.67036 
L 742.459888 115.609114 
L 742.790458 116.442434 
L 743.121028 113.635316 
L 743.451598 75.701401 
L 743.782167 109.560121 
L 744.112737 119.146088 
L 744.443307 123.47491 
L 744.773877 102.572839 
L 745.104447 144.892372 
L 745.765587 116.575403 
L 746.096156 134.310501 
L 746.426726 119.302393 
L 746.757296 136.342264 
L 747.087866 47.477082 
L 748.079576 118.507841 
L 748.410145 42.314833 
L 748.740715 106.316002 
L 749.071285 120.622048 
L 749.401855 107.671481 
L 749.732425 107.925587 
L 750.062995 70.633131 
L 750.393565 119.717544 
L 750.724134 47.868688 
L 751.054704 149.86881 
L 751.385274 96.507902 
L 751.715844 154.687986 
L 752.046414 58.957574 
L 752.376984 132.536488 
L 752.707554 123.613221 
L 753.038124 90.480366 
L 753.368693 79.546068 
L 753.699263 160.591492 
L 754.029833 134.828091 
L 754.360403 170.912336 
L 754.690973 119.001528 
L 755.352113 136.192371 
L 755.682682 147.920801 
L 756.013252 138.020784 
L 756.343822 150.574176 
L 757.004962 73.936265 
L 757.335532 191.653092 
L 757.666102 129.991532 
L 757.996671 140.480365 
L 758.327241 109.609388 
L 758.657811 158.991475 
L 758.988381 131.670961 
L 759.318951 162.23322 
L 759.649521 103.138652 
L 759.980091 123.58109 
L 760.31066 132.526812 
L 760.64123 114.439555 
L 760.9718 135.479221 
L 761.30237 180.043884 
L 761.63294 106.743383 
L 761.96351 117.182657 
L 762.29408 132.200686 
L 762.624649 93.290898 
L 762.955219 85.228138 
L 763.285789 163.883308 
L 763.616359 153.136442 
L 763.946929 73.606602 
L 764.277499 77.811163 
L 764.608069 151.160701 
L 764.938639 166.031682 
L 765.269208 147.292295 
L 765.599778 142.29934 
L 765.930348 179.06558 
L 766.260918 123.734536 
L 766.591488 168.157384 
L 766.922058 165.484949 
L 767.252628 92.687855 
L 767.583197 146.892365 
L 768.244337 101.497372 
L 768.574907 94.87868 
L 768.905477 133.741918 
L 769.236047 120.394554 
L 769.566617 149.677462 
L 769.897186 61.60833 
L 770.227756 98.654181 
L 770.558326 158.053279 
L 770.888896 119.937829 
L 771.219466 95.384052 
L 771.550036 103.000376 
L 771.880606 56.624219 
L 772.211175 71.839122 
L 772.541745 136.652055 
L 772.872315 120.958674 
L 773.202885 161.264479 
L 773.533455 108.738906 
L 773.864025 111.76925 
L 774.194595 24.440346 
L 774.855734 187.362888 
L 775.186304 138.634401 
L 775.516874 111.62524 
L 775.847444 158.01901 
L 776.508584 127.203248 
L 776.839154 102.878762 
L 777.169723 119.976686 
L 777.500293 144.480384 
L 777.830863 87.158388 
L 778.161433 132.268848 
L 778.492003 130.774787 
L 778.822573 160.685334 
L 779.153143 140.367164 
L 779.483712 91.291319 
L 779.814282 168.614032 
L 780.144852 115.872184 
L 780.475422 88.976148 
L 780.805992 126.316371 
L 781.136562 105.323397 
L 781.467132 151.626145 
L 781.797701 68.963545 
L 782.128271 76.191672 
L 782.458841 105.812873 
L 782.789411 173.8049 
L 783.119981 149.782623 
L 783.450551 80.999303 
L 783.781121 56.081502 
L 784.111691 104.573673 
L 784.44226 72.383895 
L 784.77283 135.858872 
L 785.1034 121.846649 
L 785.43397 115.615635 
L 785.76454 101.509118 
L 786.09511 168.339909 
L 786.42568 84.457501 
L 786.756249 71.752125 
L 787.086819 156.320979 
L 787.417389 163.695999 
L 787.747959 105.881795 
L 788.078529 140.484861 
L 788.409099 199.353982 
L 788.739669 91.325839 
L 789.400808 135.86635 
L 789.731378 47.936973 
L 790.061948 115.61668 
L 790.392518 146.403726 
L 790.723088 117.637064 
L 791.053658 156.904924 
L 791.384227 147.775722 
L 791.714797 108.993702 
L 792.045367 141.407558 
L 792.375937 138.232222 
L 792.706507 66.300203 
L 793.037077 94.21659 
L 793.367647 96.471683 
L 793.698216 106.12024 
L 794.028786 107.937452 
L 794.359356 75.073018 
L 794.689926 125.665442 
L 795.020496 62.001982 
L 795.351066 157.932551 
L 795.681636 134.421077 
L 796.012206 172.934868 
L 797.003915 76.999238 
L 797.334485 149.227497 
L 797.665055 126.557769 
L 798.656764 167.542148 
L 798.987334 124.97523 
L 799.317904 186.116505 
L 799.648474 123.309429 
L 799.979044 126.351202 
L 800.309614 149.45598 
L 800.970753 174.101004 
L 801.301323 63.025619 
L 801.631893 172.457195 
L 801.962463 73.478701 
L 802.954173 165.531219 
L 803.284742 90.34852 
L 803.615312 66.707605 
L 803.945882 157.28086 
L 804.276452 135.377681 
L 804.607022 89.082746 
L 804.937592 113.211301 
L 805.268162 56.192251 
L 805.598732 143.507955 
L 805.929301 105.274748 
L 806.259871 166.085133 
L 806.590441 51.662342 
L 806.921011 147.67061 
L 807.251581 197.69758 
L 807.582151 126.363666 
L 807.912721 126.472666 
L 808.24329 56.056504 
L 808.57386 132.544366 
L 808.90443 121.058562 
L 809.235 100.029669 
L 809.235 100.029669 
" clip-path="url(#p038ee6345e)" style="fill: none; stroke: #0b6e4f; stroke-width: 1.3; stroke-linecap: square"/>
   </g>
   <g id="patch_13">
    <path d="M 578.166667 188.44 
L 578.166667 52.08 
" style="fill: none; stroke: #000000; stroke-width: 0.8; stroke-linejoin: miter; stroke-linecap: square"/>
   </g>
   <g id="patch_14">
    <path d="M 809.235 188.44 
L 809.235 52.08 
" style="fill: none; stroke: #000000; stroke-width: 0.8; stroke-linejoin: miter; stroke-linecap: square"/>
   </g>
   <g id="patch_15">
    <path d="M 578.166667 188.44 
L 809.235 188.44 
" style="fill: none; stroke: #000000; stroke-width: 0.8; stroke-linejoin: miter; stroke-linecap: square"/>
   </g>
   <g id="patch_16">
    <path d="M 578.166667 52.08 
L 809.235 52.08 
" style="fill: none; stroke: #000000; stroke-width: 0.8; stroke-linejoin: miter; stroke-linecap: square"/>
   </g>
   <g id="text_33">
    <!-- $\sigma = 5.0$ -->
    <g transform="translate(671.210833 46.08) scale(0.13 -0.13)">
     <use xlink:href="#DejaVuSans-Oblique-3c3" transform="translate(0 0.78125)"/>
     <use xlink:href="#DejaVuSans-3d" transform="translate(82.861328 0.78125)"/>
     <use xlink:href="#DejaVuSans-35" transform="translate(186.132812 0.78125)"/>
     <use xlink:href="#DejaVuSans-2e" transform="translate(249.755859 0.78125)"/>
     <use xlink:href="#DejaVuSans-30" transform="translate(281.542969 0.78125)"/>
    </g>
   </g>
  </g>
  <g id="text_34">
   <!-- Sinal senoidal com diferentes níveis de AWGN -->
   <g transform="translate(241.355859 16.005656) scale(0.15 -0.15)">
    <defs>
     <path id="DejaVuSans-53" d="M 3425 4513 
L 3425 3897 
Q 3066 4069 2747 4153 
Q 2428 4238 2131 4238 
Q 1616 4238 1336 4038 
Q 1056 3838 1056 3469 
Q 1056 3159 1242 3001 
Q 1428 2844 1947 2747 
L 2328 2669 
Q 3034 2534 3370 2195 
Q 3706 1856 3706 1288 
Q 3706 609 3251 259 
Q 2797 -91 1919 -91 
Q 1588 -91 1214 -16 
Q 841 59 441 206 
L 441 856 
Q 825 641 1194 531 
Q 1563 422 1919 422 
Q 2459 422 2753 634 
Q 3047 847 3047 1241 
Q 3047 1584 2836 1778 
Q 2625 1972 2144 2069 
L 1759 2144 
Q 1053 2284 737 2584 
Q 422 2884 422 3419 
Q 422 4038 858 4394 
Q 1294 4750 2059 4750 
Q 2388 4750 2728 4690 
Q 3069 4631 3425 4513 
z
" transform="scale(0.015625)"/>
     <path id="DejaVuSans-6e" d="M 3513 2113 
L 3513 0 
L 2938 0 
L 2938 2094 
Q 2938 2591 2744 2837 
Q 2550 3084 2163 3084 
Q 1697 3084 1428 2787 
Q 1159 2491 1159 1978 
L 1159 0 
L 581 0 
L 581 3500 
L 1159 3500 
L 1159 2956 
Q 1366 3272 1645 3428 
Q 1925 3584 2291 3584 
Q 2894 3584 3203 3211 
Q 3513 2838 3513 2113 
z
" transform="scale(0.015625)"/>
     <path id="DejaVuSans-61" d="M 2194 1759 
Q 1497 1759 1228 1600 
Q 959 1441 959 1056 
Q 959 750 1161 570 
Q 1363 391 1709 391 
Q 2188 391 2477 730 
Q 2766 1069 2766 1631 
L 2766 1759 
L 2194 1759 
z
M 3341 1997 
L 3341 0 
L 2766 0 
L 2766 531 
Q 2569 213 2275 61 
Q 1981 -91 1556 -91 
Q 1019 -91 701 211 
Q 384 513 384 1019 
Q 384 1609 779 1909 
Q 1175 2209 1959 2209 
L 2766 2209 
L 2766 2266 
Q 2766 2663 2505 2880 
Q 2244 3097 1772 3097 
Q 1472 3097 1187 3025 
Q 903 2953 641 2809 
L 641 3341 
Q 956 3463 1253 3523 
Q 1550 3584 1831 3584 
Q 2591 3584 2966 3190 
Q 3341 2797 3341 1997 
z
" transform="scale(0.015625)"/>
     <path id="DejaVuSans-63" d="M 3122 3366 
L 3122 2828 
Q 2878 2963 2633 3030 
Q 2388 3097 2138 3097 
Q 1578 3097 1268 2742 
Q 959 2388 959 1747 
Q 959 1106 1268 751 
Q 1578 397 2138 397 
Q 2388 397 2633 464 
Q 2878 531 3122 666 
L 3122 134 
Q 2881 22 2623 -34 
Q 2366 -91 2075 -91 
Q 1284 -91 818 406 
Q 353 903 353 1747 
Q 353 2603 823 3093 
Q 1294 3584 2113 3584 
Q 2378 3584 2631 3529 
Q 2884 3475 3122 3366 
z
" transform="scale(0.015625)"/>
     <path id="DejaVuSans-66" d="M 2375 4863 
L 2375 4384 
L 1825 4384 
Q 1516 4384 1395 4259 
Q 1275 4134 1275 3809 
L 1275 3500 
L 2222 3500 
L 2222 3053 
L 1275 3053 
L 1275 0 
L 697 0 
L 697 3053 
L 147 3053 
L 147 3500 
L 697 3500 
L 697 3744 
Q 697 4328 969 4595 
Q 1241 4863 1831 4863 
L 2375 4863 
z
" transform="scale(0.015625)"/>
     <path id="DejaVuSans-72" d="M 2631 2963 
Q 2534 3019 2420 3045 
Q 2306 3072 2169 3072 
Q 1681 3072 1420 2755 
Q 1159 2438 1159 1844 
L 1159 0 
L 581 0 
L 581 3500 
L 1159 3500 
L 1159 2956 
Q 1341 3275 1631 3429 
Q 1922 3584 2338 3584 
Q 2397 3584 2469 3576 
Q 2541 3569 2628 3553 
L 2631 2963 
z
" transform="scale(0.015625)"/>
     <path id="DejaVuSans-ed" d="M 1325 5119 
L 1947 5119 
L 928 3944 
L 450 3944 
L 1325 5119 
z
M 603 3500 
L 1178 3500 
L 1178 0 
L 603 0 
L 603 3500 
z
M 891 3584 
L 891 3584 
z
" transform="scale(0.015625)"/>
     <path id="DejaVuSans-76" d="M 191 3500 
L 800 3500 
L 1894 563 
L 2988 3500 
L 3597 3500 
L 2284 0 
L 1503 0 
L 191 3500 
z
" transform="scale(0.015625)"/>
     <path id="DejaVuSans-57" d="M 213 4666 
L 850 4666 
L 1831 722 
L 2809 4666 
L 3519 4666 
L 4500 722 
L 5478 4666 
L 6119 4666 
L 4947 0 
L 4153 0 
L 3169 4050 
L 2175 0 
L 1381 0 
L 213 4666 
z
" transform="scale(0.015625)"/>
     <path id="DejaVuSans-47" d="M 3809 666 
L 3809 1919 
L 2778 1919 
L 2778 2438 
L 4434 2438 
L 4434 434 
Q 4069 175 3628 42 
Q 3188 -91 2688 -91 
Q 1594 -91 976 548 
Q 359 1188 359 2328 
Q 359 3472 976 4111 
Q 1594 4750 2688 4750 
Q 3144 4750 3555 4637 
Q 3966 4525 4313 4306 
L 4313 3634 
Q 3963 3931 3569 4081 
Q 3175 4231 2741 4231 
Q 1884 4231 1454 3753 
Q 1025 3275 1025 2328 
Q 1025 1384 1454 906 
Q 1884 428 2741 428 
Q 3075 428 3337 486 
Q 3600 544 3809 666 
z
" transform="scale(0.015625)"/>
     <path id="DejaVuSans-4e" d="M 628 4666 
L 1478 4666 
L 3547 763 
L 3547 4666 
L 4159 4666 
L 4159 0 
L 3309 0 
L 1241 3903 
L 1241 0 
L 628 0 
L 628 4666 
z
" transform="scale(0.015625)"/>
    </defs>
    <use xlink:href="#DejaVuSans-53"/>
    <use xlink:href="#DejaVuSans-69" transform="translate(63.476562 0)"/>
    <use xlink:href="#DejaVuSans-6e" transform="translate(91.259766 0)"/>
    <use xlink:href="#DejaVuSans-61" transform="translate(154.638672 0)"/>
    <use xlink:href="#DejaVuSans-6c" transform="translate(215.917969 0)"/>
    <use xlink:href="#DejaVuSans-20" transform="translate(243.701172 0)"/>
    <use xlink:href="#DejaVuSans-73" transform="translate(275.488281 0)"/>
    <use xlink:href="#DejaVuSans-65" transform="translate(327.587891 0)"/>
    <use xlink:href="#DejaVuSans-6e" transform="translate(389.111328 0)"/>
    <use xlink:href="#DejaVuSans-6f" transform="translate(452.490234 0)"/>
    <use xlink:href="#DejaVuSans-69" transform="translate(513.671875 0)"/>
    <use xlink:href="#DejaVuSans-64" transform="translate(541.455078 0)"/>
    <use xlink:href="#DejaVuSans-61" transform="translate(604.931641 0)"/>
    <use xlink:href="#DejaVuSans-6c" transform="translate(666.210938 0)"/>
    <use xlink:href="#DejaVuSans-20" transform="translate(693.994141 0)"/>
    <use xlink:href="#DejaVuSans-63" transform="translate(725.78125 0)"/>
    <use xlink:href="#DejaVuSans-6f" transform="translate(780.761719 0)"/>
    <use xlink:href="#DejaVuSans-6d" transform="translate(841.943359 0)"/>
    <use xlink:href="#DejaVuSans-20" transform="translate(939.355469 0)"/>
    <use xlink:href="#DejaVuSans-64" transform="translate(971.142578 0)"/>
    <use xlink:href="#DejaVuSans-69" transform="translate(1034.619141 0)"/>
    <use xlink:href="#DejaVuSans-66" transform="translate(1062.402344 0)"/>
    <use xlink:href="#DejaVuSans-65" transform="translate(1097.607422 0)"/>
    <use xlink:href="#DejaVuSans-72" transform="translate(1159.130859 0)"/>
    <use xlink:href="#DejaVuSans-65" transform="translate(1197.994141 0)"/>
    <use xlink:href="#DejaVuSans-6e" transform="translate(1259.517578 0)"/>
    <use xlink:href="#DejaVuSans-74" transform="translate(1322.896484 0)"/>
    <use xlink:href="#DejaVuSans-65" transform="translate(1362.105469 0)"/>
    <use xlink:href="#DejaVuSans-73" transform="translate(1423.628906 0)"/>
    <use xlink:href="#DejaVuSans-20" transform="translate(1475.728516 0)"/>
    <use xlink:href="#DejaVuSans-6e" transform="translate(1507.515625 0)"/>
    <use xlink:href="#DejaVuSans-ed" transform="translate(1570.894531 0)"/>
    <use xlink:href="#DejaVuSans-76" transform="translate(1598.677734 0)"/>
    <use xlink:href="#DejaVuSans-65" transform="translate(1657.857422 0)"/>
    <use xlink:href="#DejaVuSans-69" transform="translate(1719.380859 0)"/>
    <use xlink:href="#DejaVuSans-73" transform="translate(1747.164062 0)"/>
    <use xlink:href="#DejaVuSans-20" transform="translate(1799.263672 0)"/>
    <use xlink:href="#DejaVuSans-64" transform="translate(1831.050781 0)"/>
    <use xlink:href="#DejaVuSans-65" transform="translate(1894.527344 0)"/>
    <use xlink:href="#DejaVuSans-20" transform="translate(1956.050781 0)"/>
    <use xlink:href="#DejaVuSans-41" transform="translate(1987.837891 0)"/>
    <use xlink:href="#DejaVuSans-57" transform="translate(2050.746094 0)"/>
    <use xlink:href="#DejaVuSans-47" transform="translate(2149.623047 0)"/>
    <use xlink:href="#DejaVuSans-4e" transform="translate(2227.113281 0)"/>
   </g>
  </g>
 </g>
 <defs>
  <clipPath id="p8e7787f9fc">
   <rect x="62.57" y="52.08" width="231.068333" height="136.36"/>
  </clipPath>
  <clipPath id="pbeb8a73065">
   <rect x="320.368333" y="52.08" width="231.068333" height="136.36"/>
  </clipPath>
  <clipPath id="p038ee6345e">
   <rect x="578.166667" y="52.08" width="231.068333" height="136.36"/>
  </clipPath>
 </defs>
</svg>
