<?xml version="1.0" encoding="UTF-8" standalone="no"?>
<!-- Created with Inkscape (http://www.inkscape.org/) -->

<svg
   width="150.77904mm"
   height="85.08287mm"
   viewBox="0 0 150.77904 85.08287"
   version="1.1"
   id="svg1"
   inkscape:version="1.3.2 (091e20ef0f, 2023-11-25, custom)"
   sodipodi:docname="fsk_demod_arctan_deriv.svg"
   xmlns:inkscape="http://www.inkscape.org/namespaces/inkscape"
   xmlns:sodipodi="http://sodipodi.sourceforge.net/DTD/sodipodi-0.dtd"
   xmlns="http://www.w3.org/2000/svg"
   xmlns:svg="http://www.w3.org/2000/svg">
  <sodipodi:namedview
     id="namedview1"
     pagecolor="#ffffff"
     bordercolor="#999999"
     borderopacity="1"
     inkscape:showpageshadow="0"
     inkscape:pageopacity="0"
     inkscape:pagecheckerboard="0"
     inkscape:deskcolor="#d1d1d1"
     inkscape:document-units="mm"
     inkscape:zoom="1.1893044"
     inkscape:cx="171.10842"
     inkscape:cy="203.05987"
     inkscape:window-width="1920"
     inkscape:window-height="1035"
     inkscape:window-x="1920"
     inkscape:window-y="24"
     inkscape:window-maximized="1"
     inkscape:current-layer="layer1" />
  <defs
     id="defs1" />
  <g
     inkscape:label="Layer 1"
     inkscape:groupmode="layer"
     id="layer1"
     transform="translate(-29.641192,-105.30417)">
    <path
       fill="none"
       stroke-width="0.140582"
       stroke-linecap="butt"
       stroke-linejoin="miter"
       stroke="#000000"
       stroke-opacity="1"
       stroke-miterlimit="10"
       d="m 38.099999,120.34548 h 15.070226 m -0.07028,0 h 0.100597 m 9.800607,0 h 0.09922 m -0.07028,0 h 10.140983 m -0.07028,0 h 0.09922 m 9.800608,0 h 0.100594 m -0.07028,0 h 7.569567 m -42.500077,0 v 10.00042 h 44.999835 v -7.55027 m -55.000258,22.55022 h 15.070226 m -0.07028,0 h 0.100597 m 9.800607,0 h 0.09922 m -0.07028,0 h 10.140983 m -0.07028,0 h 0.09922 m 9.800608,0 h 0.100594 m -0.07028,0 h 7.569567 m -42.500077,0 v -10.00043 h 44.999835 v 7.55028 m 2.450155,-22.55022 h 5.000894 l 12.24938,12.24938 m 0.50023,0.50023 12.25076,12.25076 v 5.10012 m -57.450407,-5.10012 v 10.00042 h 52.550107 m 9.8006,0 h 9.99905 v -20.05045 m 2.45015,-2.45016 h 10.10102 m 9.79923,0 h 10.00042 m -77.251434,12.50019 h 5.000894 l 25.00037,-25.00037 v -5.10012 m -57.450407,5.10012 v -10.00042 h 52.550107 m 9.8006,0 h 9.99905 v 20.05045 m -92.350604,14.95034 v 10.00042 m 0,0 h 10.000423 v 5.10012 m -10.000423,-5.10012 v 9.99905 h 5.10012 m 9.800607,0 h 14.999945 m 0,0 v 7.55027 M 43.1009,120.34548 v 24.50014 m 0,1.00046 v 39.50008 H 53.200542 M 43.200119,175.34574 h 14.999945 l -0.09922,5.10012 m 4.900304,4.9003 h 14.999945 v -7.55027 m 2.450151,-2.45015 h 22.499236"
       id="path86" />
    <g
       fill="#000000"
       fill-opacity="1"
       id="g86"
       transform="matrix(0.35277777,0,0,0.35277777,-5.124924,7.9209877)">
      <g
         id="use86"
         transform="translate(101.02,321.59799)">
        <path
           d="M 3.15625,0 3.203125,-0.296875 2.625,-0.328125 c -0.25,-0.015625 -0.296875,-0.1875 -0.234375,-0.5 l 1.203125,-5.28125 c 0.078125,-0.3125 0.171875,-0.46875 0.421875,-0.484375 l 0.5625,-0.0625 0.0625,-0.28125 h -2.75 l -0.0625,0.28125 0.59375,0.046875 c 0.21875,0.015625 0.28125,0.203125 0.21875,0.5 L 1.4375,-0.828125 C 1.359375,-0.515625 1.25,-0.375 1.015625,-0.34375 L 0.46875,-0.296875 0.40625,0 Z m 0,0"
           id="path46" />
      </g>
    </g>
    <g
       fill="#000000"
       fill-opacity="1"
       id="g87"
       transform="matrix(0.35277777,0,0,0.35277777,-5.124924,7.9209877)">
      <g
         id="use87"
         transform="translate(105.744,321.59799)">
        <path
           d="m 1.96875,-6.125 c 0,-0.46875 0.0625,-0.5 0.953125,-0.546875 V -6.9375 h -1.59375 v 8.21875 h 1.59375 V 1.015625 C 2.03125,0.96875 1.96875,0.9375 1.96875,0.46875 Z m 0,0"
           id="path14" />
      </g>
    </g>
    <g
       fill="#000000"
       fill-opacity="1"
       id="g88"
       transform="matrix(0.35277777,0,0,0.35277777,-5.124924,7.9209877)">
      <g
         id="use88"
         transform="translate(109.06,321.59799)">
        <path
           d="m 1.859375,0 c 0.296875,-1.015625 0.46875,-1.5625 0.734375,-2.1875 0.359375,-0.859375 1.328125,-2.328125 2.140625,-2.328125 0.34375,0 0.4375,0.328125 0.328125,0.71875 l -0.859375,2.9375 C 4.046875,-0.296875 4.171875,0.125 4.71875,0.125 c 0.75,0 1.3125,-0.6875 1.65625,-1.453125 L 6.125,-1.46875 c -0.171875,0.359375 -0.625,1.0625 -0.90625,1.0625 -0.1875,0 -0.1875,-0.21875 -0.09375,-0.546875 l 0.78125,-2.625 C 6.140625,-4.375 6.015625,-5.03125 5.203125,-5.03125 c -0.96875,0 -2.015625,1.0625 -2.609375,2.234375 H 2.5625 L 3.203125,-4.984375 3.15625,-5.03125 1.328125,-4.75 l -0.0625,0.234375 0.625,0.046875 C 2.125,-4.4375 2.125,-4.296875 2.03125,-3.984375 L 0.984375,0.125 Z m 0,0"
           id="path39" />
      </g>
    </g>
    <g
       fill="#000000"
       fill-opacity="1"
       id="g89"
       transform="matrix(0.35277777,0,0,0.35277777,-5.124924,7.9209877)">
      <g
         id="use89"
         transform="translate(115.813,321.59799)">
        <path
           d="m 1.34375,0.46875 c 0,0.46875 -0.0625,0.5 -0.96875,0.546875 V 1.28125 H 1.96875 V -6.9375 H 0.375 v 0.265625 C 1.28125,-6.625 1.34375,-6.59375 1.34375,-6.125 Z m 0,0"
           id="path85" />
      </g>
    </g>
    <path
       fill-rule="nonzero"
       fill="#000000"
       fill-opacity="1"
       d="m 51.613041,120.34547 v 0.70005 l 1.486902,-0.70005 -1.486902,-0.70004 v 0.70004"
       id="path89"
       style="stroke-width:0.352778" />
    <path
       fill="none"
       stroke-width="0.281164"
       stroke-linecap="butt"
       stroke-linejoin="miter"
       stroke="#000000"
       stroke-opacity="1"
       stroke-miterlimit="10"
       d="m 53.200542,115.44518 h 9.800607 v 9.8006 h -9.800607 z m 0,0"
       id="path90" />
    <g
       fill="#000000"
       fill-opacity="1"
       id="g90"
       transform="matrix(0.35277777,0,0,0.35277777,-5.124924,7.9209877)">
      <g
         id="use90"
         transform="translate(171.627,323.16599)">
        <path
           d="M 1.859375,-4.921875 C 1.71875,-4.734375 1.40625,-4.1875 1.1875,-3.484375 L 1.4375,-3.375 C 1.75,-3.96875 1.921875,-4.265625 2.390625,-4.265625 H 4.15625 c -1.28125,1.28125 -2.4375,2.4375 -3.53125,3.546875 -0.15625,0.15625 -0.234375,0.375 -0.234375,0.53125 0,0.140625 0.0625,0.3125 0.234375,0.3125 0.140625,0 0.46875,-0.078125 0.46875,-0.25 v -0.4375 c 0,-0.109375 0.046875,-0.1875 0.125,-0.1875 0.171875,0 0.515625,0.234375 1.109375,0.46875 0.53125,0.21875 1,0.40625 1.46875,0.40625 0.65625,0 0.953125,-0.890625 1.234375,-1.9375 L 4.75,-1.890625 c -0.25,0.625 -0.5,1.234375 -0.953125,1.234375 -0.3125,0 -0.75,-0.15625 -1.125,-0.296875 -0.328125,-0.125 -0.6875,-0.25 -0.953125,-0.28125 1.125,-1.15625 2.265625,-2.359375 3.484375,-3.546875 l -0.09375,-0.140625 z m 0,0"
           id="path77" />
      </g>
    </g>
    <g
       fill="#000000"
       fill-opacity="1"
       id="g91"
       transform="matrix(0.35277777,0,0,0.35277777,-5.124924,7.9209877)">
      <g
         id="use91"
         transform="translate(177.02699,319.20599)">
        <path
           d="m 4.828125,-1.921875 v -0.4375 h -4.1875 v 0.4375 z m 0,0"
           id="path69" />
      </g>
    </g>
    <g
       fill="#000000"
       fill-opacity="1"
       id="g92"
       transform="matrix(0.35277777,0,0,0.35277777,-5.124924,7.9209877)">
      <g
         id="use92"
         transform="translate(182.50101,319.20599)">
        <path
           d="M 3.328125,0 V -0.21875 L 2.6875,-0.28125 c -0.15625,-0.015625 -0.25,-0.0625 -0.25,-0.359375 V -5.125 l -0.046875,-0.046875 -1.5625,0.265625 v 0.1875 L 1.53125,-4.640625 C 1.671875,-4.625 1.71875,-4.5625 1.71875,-4.34375 v 3.703125 c 0,0.140625 -0.015625,0.234375 -0.0625,0.28125 -0.046875,0.0625 -0.109375,0.078125 -0.1875,0.078125 l -0.640625,0.0625 V 0 Z m 0,0"
           id="path61" />
      </g>
    </g>
    <path
       fill-rule="nonzero"
       fill="#000000"
       fill-opacity="1"
       d="m 71.61251,120.34547 v 0.70005 l 1.488281,-0.70005 -1.488281,-0.70004 v 0.70004"
       id="path92"
       style="stroke-width:0.352778" />
    <path
       fill="none"
       stroke-width="0.281164"
       stroke-linecap="butt"
       stroke-linejoin="miter"
       stroke="#000000"
       stroke-opacity="1"
       stroke-miterlimit="10"
       d="m 73.20001,115.44518 h 9.800608 v 9.8006 H 73.20001 Z m 0,0"
       id="path93" />
    <g
       fill="#000000"
       fill-opacity="1"
       id="g93"
       transform="matrix(0.35277777,0,0,0.35277777,-5.124924,7.9209877)">
      <g
         id="use93"
         transform="translate(228.319,323.16599)">
        <path
           d="M 1.859375,-4.921875 C 1.71875,-4.734375 1.40625,-4.1875 1.1875,-3.484375 L 1.4375,-3.375 C 1.75,-3.96875 1.921875,-4.265625 2.390625,-4.265625 H 4.15625 c -1.28125,1.28125 -2.4375,2.4375 -3.53125,3.546875 -0.15625,0.15625 -0.234375,0.375 -0.234375,0.53125 0,0.140625 0.0625,0.3125 0.234375,0.3125 0.140625,0 0.46875,-0.078125 0.46875,-0.25 v -0.4375 c 0,-0.109375 0.046875,-0.1875 0.125,-0.1875 0.171875,0 0.515625,0.234375 1.109375,0.46875 0.53125,0.21875 1,0.40625 1.46875,0.40625 0.65625,0 0.953125,-0.890625 1.234375,-1.9375 L 4.75,-1.890625 c -0.25,0.625 -0.5,1.234375 -0.953125,1.234375 -0.3125,0 -0.75,-0.15625 -1.125,-0.296875 -0.328125,-0.125 -0.6875,-0.25 -0.953125,-0.28125 1.125,-1.15625 2.265625,-2.359375 3.484375,-3.546875 l -0.09375,-0.140625 z m 0,0"
           id="path78" />
      </g>
    </g>
    <g
       fill="#000000"
       fill-opacity="1"
       id="g94"
       transform="matrix(0.35277777,0,0,0.35277777,-5.124924,7.9209877)">
      <g
         id="use94"
         transform="translate(233.71899,319.20599)">
        <path
           d="m 4.828125,-1.921875 v -0.4375 h -4.1875 v 0.4375 z m 0,0"
           id="path70" />
      </g>
    </g>
    <g
       fill="#000000"
       fill-opacity="1"
       id="g95"
       transform="matrix(0.35277777,0,0,0.35277777,-5.124924,7.9209877)">
      <g
         id="use95"
         transform="translate(239.194,319.20599)">
        <path
           d="M 3.328125,0 V -0.21875 L 2.6875,-0.28125 c -0.15625,-0.015625 -0.25,-0.0625 -0.25,-0.359375 V -5.125 l -0.046875,-0.046875 -1.5625,0.265625 v 0.1875 L 1.53125,-4.640625 C 1.671875,-4.625 1.71875,-4.5625 1.71875,-4.34375 v 3.703125 c 0,0.140625 -0.015625,0.234375 -0.0625,0.28125 -0.046875,0.0625 -0.109375,0.078125 -0.1875,0.078125 l -0.640625,0.0625 V 0 Z m 0,0"
           id="path62" />
      </g>
    </g>
    <path
       fill-rule="nonzero"
       fill="#000000"
       fill-opacity="1"
       d="m 89.113593,120.34547 v 0.70005 l 1.486905,-0.70005 -1.486905,-0.70004 v 0.70004"
       id="path95"
       style="stroke-width:0.352778" />
    <path
       fill="none"
       stroke-width="0.281164"
       stroke-linecap="butt"
       stroke-linejoin="miter"
       stroke="#000000"
       stroke-opacity="1"
       stroke-miterlimit="10"
       d="m 95.550412,120.34548 c 0,-1.35323 -1.09692,-2.45015 -2.450155,-2.45015 -1.351855,0 -2.448771,1.09692 -2.448771,2.45015 0,1.35323 1.096916,2.45015 2.448771,2.45015 1.353235,0 2.450155,-1.09692 2.450155,-2.45015 z m 0,0"
       id="path96" />
    <path
       fill="none"
       stroke-width="0.281164"
       stroke-linecap="butt"
       stroke-linejoin="miter"
       stroke="#000000"
       stroke-opacity="1"
       stroke-miterlimit="10"
       d="M 94.570625,120.34548 H 91.63127 m 1.468987,-1.47037 v 2.94074"
       id="path97" />
    <g
       fill="#000000"
       fill-opacity="1"
       id="g97"
       transform="matrix(0.35277777,0,0,0.35277777,-5.124924,7.9209877)">
      <g
         id="use97"
         transform="translate(263.07199,312.44901)">
        <path
           d="m 0,-2.921875 v 0.828125 h 5.015625 v -0.828125 z m 0,0"
           id="path52" />
      </g>
    </g>
    <g
       fill="#000000"
       fill-opacity="1"
       id="g98"
       transform="matrix(0.35277777,0,0,0.35277777,-5.124924,7.9209877)">
      <g
         id="use98"
         transform="translate(266.17801,334.056)">
        <path
           d="M 0.578125,-2.109375 H 2.53125 V 0 H 3.484375 V -2.109375 H 5.4375 V -2.90625 H 3.484375 V -4.921875 H 2.53125 V -2.90625 H 0.578125 Z m 0,0"
           id="path9" />
      </g>
    </g>
    <path
       fill-rule="nonzero"
       fill="#000000"
       fill-opacity="1"
       d="m 93.100257,124.28253 h 0.700045 l -0.700045,-1.4869 -0.700042,1.4869 h 0.700042"
       id="path98"
       style="stroke-width:0.352778" />
    <g
       fill="#000000"
       fill-opacity="1"
       id="g99"
       transform="matrix(0.35277777,0,0,0.35277777,-5.124924,7.9209877)">
      <g
         id="use99"
         transform="translate(97.408997,392.07999)">
        <path
           d="m 5.0625,-6.734375 c 1.09375,0 1.796875,0.640625 1.796875,2.0625 0,0.5625 -0.0625,1.40625 -0.46875,2.46875 -0.40625,1.0625 -1.09375,2 -2.390625,2 -1.09375,0 -1.796875,-0.703125 -1.796875,-2.109375 0,-0.84375 0.15625,-1.765625 0.609375,-2.75 C 3.28125,-6.015625 4,-6.734375 5.0625,-6.734375 Z M 5.015625,-7.09375 c -1.609375,0 -2.59375,0.890625 -3.1875,1.84375 -0.546875,0.9375 -0.6875,1.875 -0.6875,2.546875 0,1.484375 0.78125,2.609375 2.375,2.8125 C 3.734375,0.53125 4.125,1.015625 4.546875,1.375 5.0625,1.8125 5.71875,2.03125 6.265625,2.03125 c 0.25,0 0.578125,-0.0625 0.75,-0.15625 L 6.984375,1.703125 C 6.3125,1.71875 5.84375,1.390625 5.359375,0.90625 5.0625,0.625 4.8125,0.296875 4.6875,0.109375 6.0625,-0.078125 6.796875,-0.875 7.28125,-1.75 c 0.546875,-0.984375 0.640625,-2.015625 0.640625,-2.40625 0,-2.046875 -1.25,-2.9375 -2.90625,-2.9375 z m 0,0"
           id="path74" />
      </g>
    </g>
    <g
       fill="#000000"
       fill-opacity="1"
       id="g100"
       transform="matrix(0.35277777,0,0,0.35277777,-5.124924,7.9209877)">
      <g
         id="use100"
         transform="translate(105.744,392.07999)">
        <path
           d="m 1.96875,-6.125 c 0,-0.46875 0.0625,-0.5 0.953125,-0.546875 V -6.9375 h -1.59375 v 8.21875 h 1.59375 V 1.015625 C 2.03125,0.96875 1.96875,0.9375 1.96875,0.46875 Z m 0,0"
           id="path15" />
      </g>
    </g>
    <g
       fill="#000000"
       fill-opacity="1"
       id="g101"
       transform="matrix(0.35277777,0,0,0.35277777,-5.124924,7.9209877)">
      <g
         id="use101"
         transform="translate(109.06,392.07999)">
        <path
           d="m 1.859375,0 c 0.296875,-1.015625 0.46875,-1.5625 0.734375,-2.1875 0.359375,-0.859375 1.328125,-2.328125 2.140625,-2.328125 0.34375,0 0.4375,0.328125 0.328125,0.71875 l -0.859375,2.9375 C 4.046875,-0.296875 4.171875,0.125 4.71875,0.125 c 0.75,0 1.3125,-0.6875 1.65625,-1.453125 L 6.125,-1.46875 c -0.171875,0.359375 -0.625,1.0625 -0.90625,1.0625 -0.1875,0 -0.1875,-0.21875 -0.09375,-0.546875 l 0.78125,-2.625 C 6.140625,-4.375 6.015625,-5.03125 5.203125,-5.03125 c -0.96875,0 -2.015625,1.0625 -2.609375,2.234375 H 2.5625 L 3.203125,-4.984375 3.15625,-5.03125 1.328125,-4.75 l -0.0625,0.234375 0.625,0.046875 C 2.125,-4.4375 2.125,-4.296875 2.03125,-3.984375 L 0.984375,0.125 Z m 0,0"
           id="path40" />
      </g>
    </g>
    <g
       fill="#000000"
       fill-opacity="1"
       id="g102"
       transform="matrix(0.35277777,0,0,0.35277777,-5.124924,7.9209877)">
      <g
         id="use102"
         transform="translate(115.813,392.07999)">
        <path
           d="m 1.34375,0.46875 c 0,0.46875 -0.0625,0.5 -0.96875,0.546875 V 1.28125 H 1.96875 V -6.9375 H 0.375 v 0.265625 C 1.28125,-6.625 1.34375,-6.59375 1.34375,-6.125 Z m 0,0"
           id="path87" />
      </g>
    </g>
    <path
       fill-rule="nonzero"
       fill="#000000"
       fill-opacity="1"
       d="m 51.613041,145.34584 v 0.70005 l 1.486902,-0.70005 -1.486902,-0.70004 v 0.70004"
       id="path102"
       style="stroke-width:0.352778" />
    <path
       fill="none"
       stroke-width="0.281164"
       stroke-linecap="butt"
       stroke-linejoin="miter"
       stroke="#000000"
       stroke-opacity="1"
       stroke-miterlimit="10"
       d="m 53.200542,140.44554 h 9.800607 v 9.80061 h -9.800607 z m 0,0"
       id="path103" />
    <g
       fill="#000000"
       fill-opacity="1"
       id="g103"
       transform="matrix(0.35277777,0,0,0.35277777,-5.124924,7.9209877)">
      <g
         id="use103"
         transform="translate(171.627,394.03201)">
        <path
           d="M 1.859375,-4.921875 C 1.71875,-4.734375 1.40625,-4.1875 1.1875,-3.484375 L 1.4375,-3.375 C 1.75,-3.96875 1.921875,-4.265625 2.390625,-4.265625 H 4.15625 c -1.28125,1.28125 -2.4375,2.4375 -3.53125,3.546875 -0.15625,0.15625 -0.234375,0.375 -0.234375,0.53125 0,0.140625 0.0625,0.3125 0.234375,0.3125 0.140625,0 0.46875,-0.078125 0.46875,-0.25 v -0.4375 c 0,-0.109375 0.046875,-0.1875 0.125,-0.1875 0.171875,0 0.515625,0.234375 1.109375,0.46875 0.53125,0.21875 1,0.40625 1.46875,0.40625 0.65625,0 0.953125,-0.890625 1.234375,-1.9375 L 4.75,-1.890625 c -0.25,0.625 -0.5,1.234375 -0.953125,1.234375 -0.3125,0 -0.75,-0.15625 -1.125,-0.296875 -0.328125,-0.125 -0.6875,-0.25 -0.953125,-0.28125 1.125,-1.15625 2.265625,-2.359375 3.484375,-3.546875 l -0.09375,-0.140625 z m 0,0"
           id="path79" />
      </g>
    </g>
    <g
       fill="#000000"
       fill-opacity="1"
       id="g104"
       transform="matrix(0.35277777,0,0,0.35277777,-5.124924,7.9209877)">
      <g
         id="use104"
         transform="translate(177.02699,390.07199)">
        <path
           d="m 4.828125,-1.921875 v -0.4375 h -4.1875 v 0.4375 z m 0,0"
           id="path71" />
      </g>
    </g>
    <g
       fill="#000000"
       fill-opacity="1"
       id="g105"
       transform="matrix(0.35277777,0,0,0.35277777,-5.124924,7.9209877)">
      <g
         id="use105"
         transform="translate(182.50101,390.07199)">
        <path
           d="M 3.328125,0 V -0.21875 L 2.6875,-0.28125 c -0.15625,-0.015625 -0.25,-0.0625 -0.25,-0.359375 V -5.125 l -0.046875,-0.046875 -1.5625,0.265625 v 0.1875 L 1.53125,-4.640625 C 1.671875,-4.625 1.71875,-4.5625 1.71875,-4.34375 v 3.703125 c 0,0.140625 -0.015625,0.234375 -0.0625,0.28125 -0.046875,0.0625 -0.109375,0.078125 -0.1875,0.078125 l -0.640625,0.0625 V 0 Z m 0,0"
           id="path63" />
      </g>
    </g>
    <path
       fill-rule="nonzero"
       fill="#000000"
       fill-opacity="1"
       d="m 71.61251,145.34584 v 0.70005 l 1.488281,-0.70005 -1.488281,-0.70004 v 0.70004"
       id="path105"
       style="stroke-width:0.352778" />
    <path
       fill="none"
       stroke-width="0.281164"
       stroke-linecap="butt"
       stroke-linejoin="miter"
       stroke="#000000"
       stroke-opacity="1"
       stroke-miterlimit="10"
       d="m 73.20001,140.44554 h 9.800608 v 9.80061 H 73.20001 Z m 0,0"
       id="path106" />
    <g
       fill="#000000"
       fill-opacity="1"
       id="g106"
       transform="matrix(0.35277777,0,0,0.35277777,-5.124924,7.9209877)">
      <g
         id="use106"
         transform="translate(228.319,394.03201)">
        <path
           d="M 1.859375,-4.921875 C 1.71875,-4.734375 1.40625,-4.1875 1.1875,-3.484375 L 1.4375,-3.375 C 1.75,-3.96875 1.921875,-4.265625 2.390625,-4.265625 H 4.15625 c -1.28125,1.28125 -2.4375,2.4375 -3.53125,3.546875 -0.15625,0.15625 -0.234375,0.375 -0.234375,0.53125 0,0.140625 0.0625,0.3125 0.234375,0.3125 0.140625,0 0.46875,-0.078125 0.46875,-0.25 v -0.4375 c 0,-0.109375 0.046875,-0.1875 0.125,-0.1875 0.171875,0 0.515625,0.234375 1.109375,0.46875 0.53125,0.21875 1,0.40625 1.46875,0.40625 0.65625,0 0.953125,-0.890625 1.234375,-1.9375 L 4.75,-1.890625 c -0.25,0.625 -0.5,1.234375 -0.953125,1.234375 -0.3125,0 -0.75,-0.15625 -1.125,-0.296875 -0.328125,-0.125 -0.6875,-0.25 -0.953125,-0.28125 1.125,-1.15625 2.265625,-2.359375 3.484375,-3.546875 l -0.09375,-0.140625 z m 0,0"
           id="path80" />
      </g>
    </g>
    <g
       fill="#000000"
       fill-opacity="1"
       id="g107"
       transform="matrix(0.35277777,0,0,0.35277777,-5.124924,7.9209877)">
      <g
         id="use107"
         transform="translate(233.71899,390.07199)">
        <path
           d="m 4.828125,-1.921875 v -0.4375 h -4.1875 v 0.4375 z m 0,0"
           id="path72" />
      </g>
    </g>
    <g
       fill="#000000"
       fill-opacity="1"
       id="g108"
       transform="matrix(0.35277777,0,0,0.35277777,-5.124924,7.9209877)">
      <g
         id="use108"
         transform="translate(239.19299,390.07199)">
        <path
           d="M 3.328125,0 V -0.21875 L 2.6875,-0.28125 c -0.15625,-0.015625 -0.25,-0.0625 -0.25,-0.359375 V -5.125 l -0.046875,-0.046875 -1.5625,0.265625 v 0.1875 L 1.53125,-4.640625 C 1.671875,-4.625 1.71875,-4.5625 1.71875,-4.34375 v 3.703125 c 0,0.140625 -0.015625,0.234375 -0.0625,0.28125 -0.046875,0.0625 -0.109375,0.078125 -0.1875,0.078125 l -0.640625,0.0625 V 0 Z m 0,0"
           id="path64" />
      </g>
    </g>
    <path
       fill-rule="nonzero"
       fill="#000000"
       fill-opacity="1"
       d="m 89.113593,145.34584 v 0.70005 l 1.486905,-0.70005 -1.486905,-0.70004 v 0.70004"
       id="path108"
       style="stroke-width:0.352778" />
    <path
       fill="none"
       stroke-width="0.281164"
       stroke-linecap="butt"
       stroke-linejoin="miter"
       stroke="#000000"
       stroke-opacity="1"
       stroke-miterlimit="10"
       d="m 95.550412,145.34585 c 0,-1.35324 -1.09692,-2.45015 -2.450155,-2.45015 -1.351855,0 -2.448771,1.09691 -2.448771,2.45015 0,1.35323 1.096916,2.45015 2.448771,2.45015 1.353235,0 2.450155,-1.09692 2.450155,-2.45015 z m 0,0"
       id="path109" />
    <path
       fill="none"
       stroke-width="0.281164"
       stroke-linecap="butt"
       stroke-linejoin="miter"
       stroke="#000000"
       stroke-opacity="1"
       stroke-miterlimit="10"
       d="M 94.570625,145.34585 H 91.63127 m 1.468987,-1.47037 v 2.94073"
       id="path110" />
    <g
       fill="#000000"
       fill-opacity="1"
       id="g110"
       transform="matrix(0.35277777,0,0,0.35277777,-5.124924,7.9209877)">
      <g
         id="use110"
         transform="translate(263.07199,400.16101)">
        <path
           d="m 0,-2.921875 v 0.828125 h 5.015625 v -0.828125 z m 0,0"
           id="path53" />
      </g>
    </g>
    <g
       fill="#000000"
       fill-opacity="1"
       id="g111"
       transform="matrix(0.35277777,0,0,0.35277777,-5.124924,7.9209877)">
      <g
         id="use111"
         transform="translate(266.17801,379.20499)">
        <path
           d="M 0.578125,-2.109375 H 2.53125 V 0 H 3.484375 V -2.109375 H 5.4375 V -2.90625 H 3.484375 V -4.921875 H 2.53125 V -2.90625 H 0.578125 Z m 0,0"
           id="path11" />
      </g>
    </g>
    <path
       fill-rule="nonzero"
       fill="#000000"
       fill-opacity="1"
       d="m 93.100257,141.40741 h -0.700042 l 0.700042,1.48828 0.700045,-1.48828 h -0.700045"
       id="path111"
       style="stroke-width:0.352778" />
    <path
       fill="none"
       stroke-width="0.281164"
       stroke-linecap="butt"
       stroke-linejoin="miter"
       stroke="#000000"
       stroke-opacity="1"
       stroke-miterlimit="10"
       d="m 130.45198,155.34627 c 0,-2.70647 -2.19383,-4.9003 -4.9003,-4.9003 -2.70647,0 -4.9003,2.19383 -4.9003,4.9003 0,2.70509 2.19383,4.89893 4.9003,4.89893 2.70647,0 4.9003,-2.19384 4.9003,-4.89893 z m 0,0"
       id="path112" />
    <path
       fill="none"
       stroke-width="0.140582"
       stroke-linecap="butt"
       stroke-linejoin="miter"
       stroke="#000000"
       stroke-opacity="1"
       stroke-miterlimit="10"
       d="m 122.08591,151.8805 6.93016,6.93016 m 0,-6.93016 -6.93016,6.93016"
       id="path113" />
    <g
       fill="#000000"
       fill-opacity="1"
       id="g113"
       transform="matrix(0.35277777,0,0,0.35277777,-5.124924,7.9209877)">
      <g
         id="use113"
         transform="translate(374.14401,400.272)">
        <path
           d="M 3.15625,0 3.203125,-0.296875 2.625,-0.328125 c -0.25,-0.015625 -0.296875,-0.1875 -0.234375,-0.5 l 1.203125,-5.28125 c 0.078125,-0.3125 0.171875,-0.46875 0.421875,-0.484375 l 0.5625,-0.0625 0.0625,-0.28125 h -2.75 l -0.0625,0.28125 0.59375,0.046875 c 0.21875,0.015625 0.28125,0.203125 0.21875,0.5 L 1.4375,-0.828125 C 1.359375,-0.515625 1.25,-0.375 1.015625,-0.34375 L 0.46875,-0.296875 0.40625,0 Z m 0,0"
           id="path47" />
      </g>
    </g>
    <g
       fill="#000000"
       fill-opacity="1"
       id="g114"
       transform="matrix(0.35277777,0,0,0.35277777,-5.124924,7.9209877)">
      <g
         id="use114"
         transform="translate(378.86801,396.31201)">
        <path
           d="M 2.109375,-3.84375 C 2.15625,-3.953125 2.15625,-4.03125 2.15625,-4.0625 c 0,-0.15625 -0.21875,-0.21875 -0.453125,-0.21875 -0.234375,0 -0.46875,0.0625 -0.5,0.1875 l -0.796875,3.6875 c 0,0.0625 0.109375,0.109375 0.203125,0.109375 0.0625,0 0.125,-0.03125 0.140625,-0.0625 z m 0,0"
           id="path67" />
      </g>
    </g>
    <g
       fill="#000000"
       fill-opacity="1"
       id="g115"
       transform="matrix(0.35277777,0,0,0.35277777,-5.124924,7.9209877)">
      <g
         id="use115"
         transform="translate(381.60699,400.272)">
        <path
           d="m 1.96875,-6.125 c 0,-0.46875 0.0625,-0.5 0.953125,-0.546875 V -6.9375 h -1.59375 v 8.21875 h 1.59375 V 1.015625 C 2.03125,0.96875 1.96875,0.9375 1.96875,0.46875 Z m 0,0"
           id="path16" />
      </g>
    </g>
    <g
       fill="#000000"
       fill-opacity="1"
       id="g116"
       transform="matrix(0.35277777,0,0,0.35277777,-5.124924,7.9209877)">
      <g
         id="use116"
         transform="translate(384.923,400.272)">
        <path
           d="m 1.859375,0 c 0.296875,-1.015625 0.46875,-1.5625 0.734375,-2.1875 0.359375,-0.859375 1.328125,-2.328125 2.140625,-2.328125 0.34375,0 0.4375,0.328125 0.328125,0.71875 l -0.859375,2.9375 C 4.046875,-0.296875 4.171875,0.125 4.71875,0.125 c 0.75,0 1.3125,-0.6875 1.65625,-1.453125 L 6.125,-1.46875 c -0.171875,0.359375 -0.625,1.0625 -0.90625,1.0625 -0.1875,0 -0.1875,-0.21875 -0.09375,-0.546875 l 0.78125,-2.625 C 6.140625,-4.375 6.015625,-5.03125 5.203125,-5.03125 c -0.96875,0 -2.015625,1.0625 -2.609375,2.234375 H 2.5625 L 3.203125,-4.984375 3.15625,-5.03125 1.328125,-4.75 l -0.0625,0.234375 0.625,0.046875 C 2.125,-4.4375 2.125,-4.296875 2.03125,-3.984375 L 0.984375,0.125 Z m 0,0"
           id="path41" />
      </g>
    </g>
    <g
       fill="#000000"
       fill-opacity="1"
       id="g117"
       transform="matrix(0.35277777,0,0,0.35277777,-5.124924,7.9209877)">
      <g
         id="use117"
         transform="translate(391.67599,400.272)">
        <path
           d="m 1.34375,0.46875 c 0,0.46875 -0.0625,0.5 -0.96875,0.546875 V 1.28125 H 1.96875 V -6.9375 H 0.375 v 0.265625 C 1.28125,-6.625 1.34375,-6.59375 1.34375,-6.125 Z m 0,0"
           id="path99" />
      </g>
    </g>
    <path
       fill-rule="nonzero"
       fill="#000000"
       fill-opacity="1"
       d="m 125.55168,148.95768 h -0.70004 l 0.70004,1.48828 0.70004,-1.48828 h -0.70004"
       id="path117"
       style="stroke-width:0.352778" />
    <path
       fill-rule="nonzero"
       fill="#000000"
       fill-opacity="1"
       d="m 119.16309,155.34627 v 0.70004 l 1.48829,-0.70004 -1.48829,-0.70005 v 0.70005"
       id="path118"
       style="stroke-width:0.352778" />
    <path
       fill="none"
       stroke-width="0.281164"
       stroke-linecap="butt"
       stroke-linejoin="miter"
       stroke="#000000"
       stroke-opacity="1"
       stroke-miterlimit="10"
       d="m 142.90118,132.84566 c 0,-1.35323 -1.09692,-2.45015 -2.45015,-2.45015 -1.35324,0 -2.45015,1.09692 -2.45015,2.45015 0,1.35324 1.09691,2.45016 2.45015,2.45016 1.35323,0 2.45015,-1.09692 2.45015,-2.45016 z m 0,0"
       id="path119" />
    <path
       fill="none"
       stroke-width="0.281164"
       stroke-linecap="butt"
       stroke-linejoin="miter"
       stroke="#000000"
       stroke-opacity="1"
       stroke-miterlimit="10"
       d="m 141.9214,132.84566 h -2.93936 m 1.46899,-1.47036 v 2.94073"
       id="path120" />
    <path
       fill-rule="nonzero"
       fill="#000000"
       fill-opacity="1"
       d="m 140.45103,136.78271 h 0.70004 l -0.70004,-1.4869 -0.70005,1.4869 h 0.70005"
       id="path121"
       style="stroke-width:0.352778" />
    <g
       fill="#000000"
       fill-opacity="1"
       id="g121"
       transform="matrix(0.35277777,0,0,0.35277777,-5.124924,7.9209877)">
      <g
         id="use121"
         transform="translate(401.40201,367.42099)">
        <path
           d="m 0,-2.921875 v 0.828125 h 5.015625 v -0.828125 z m 0,0"
           id="path54" />
      </g>
    </g>
    <g
       fill="#000000"
       fill-opacity="1"
       id="g122"
       transform="matrix(0.35277777,0,0,0.35277777,-5.124924,7.9209877)">
      <g
         id="use122"
         transform="translate(400.39801,343.772)">
        <path
           d="M 0.578125,-2.109375 H 2.53125 V 0 H 3.484375 V -2.109375 H 5.4375 V -2.90625 H 3.484375 V -4.921875 H 2.53125 V -2.90625 H 0.578125 Z m 0,0"
           id="path12" />
      </g>
    </g>
    <path
       fill="none"
       stroke-width="0.281164"
       stroke-linecap="butt"
       stroke-linejoin="miter"
       stroke="#000000"
       stroke-opacity="1"
       stroke-miterlimit="10"
       d="m 162.80143,132.84566 c 0,-2.70646 -2.19384,-4.9003 -4.90031,-4.9003 -2.70509,0 -4.89892,2.19384 -4.89892,4.9003 0,2.70647 2.19383,4.90031 4.89892,4.90031 2.70647,0 4.90031,-2.19384 4.90031,-4.90031 z m 0,0"
       id="path122" />
    <path
       fill="none"
       stroke-width="0.140582"
       stroke-linecap="butt"
       stroke-linejoin="miter"
       stroke="#000000"
       stroke-opacity="1"
       stroke-miterlimit="10"
       d="m 154.43674,129.3799 6.93015,6.93015 m 0,-6.93015 -6.93015,6.93015"
       id="path123" />
    <path
       fill-rule="nonzero"
       fill="#000000"
       fill-opacity="1"
       d="m 151.51392,132.84566 v 0.70004 l 1.48828,-0.70004 -1.48828,-0.70004 v 0.70004"
       id="path124"
       style="stroke-width:0.352778" />
    <path
       fill-rule="nonzero"
       fill="#000000"
       fill-opacity="1"
       d="m 171.31495,132.84566 v 0.70004 l 1.4869,-0.70004 -1.4869,-0.70004 v 0.70004"
       id="path125"
       style="stroke-width:0.352778" />
    <g
       fill="#000000"
       fill-opacity="1"
       id="g125"
       transform="matrix(0.35277777,0,0,0.35277777,-5.124924,7.9209877)">
      <g
         id="use125"
         transform="translate(508.29901,356.43399)">
        <path
           d="m 0.71875,-4.546875 0.03125,0.25 0.671875,-0.03125 c 0.21875,0 0.265625,0.171875 0.359375,0.6875 0.109375,0.78125 0.328125,2.703125 0.328125,3.515625 0,0.296875 -0.015625,0.703125 -0.25,1.234375 -0.171875,0.421875 -0.4375,0.71875 -0.640625,0.71875 -0.140625,0 -0.25,-0.109375 -0.40625,-0.3125 C 0.6875,1.359375 0.609375,1.28125 0.46875,1.28125 c -0.265625,0 -0.515625,0.296875 -0.515625,0.59375 0,0.265625 0.28125,0.546875 0.734375,0.546875 0.84375,0 1.21875,-0.625 2.09375,-2.15625 0.203125,-0.328125 0.8125,-1.40625 1.4375,-2.421875 0.5625,-0.9375 1.203125,-1.921875 1.203125,-2.3125 0,-0.359375 -0.109375,-0.5625 -0.1875,-0.5625 -0.1875,0 -0.53125,0.078125 -0.78125,0.25 0.015625,0.34375 -0.015625,0.953125 -0.125,1.375 -0.171875,0.5625 -0.75,1.65625 -1.421875,2.796875 H 2.875 C 2.8125,-2.140625 2.625,-4.265625 2.484375,-5 l -0.09375,-0.03125 z m 0,0"
           id="path73" />
      </g>
    </g>
    <g
       fill="#000000"
       fill-opacity="1"
       id="g126"
       transform="matrix(0.35277777,0,0,0.35277777,-5.124924,7.9209877)">
      <g
         id="use126"
         transform="translate(513.91699,356.43399)">
        <path
           d="m 1.96875,-6.125 c 0,-0.46875 0.0625,-0.5 0.953125,-0.546875 V -6.9375 h -1.59375 v 8.21875 h 1.59375 V 1.015625 C 2.03125,0.96875 1.96875,0.9375 1.96875,0.46875 Z m 0,0"
           id="path17" />
      </g>
    </g>
    <g
       fill="#000000"
       fill-opacity="1"
       id="g127"
       transform="matrix(0.35277777,0,0,0.35277777,-5.124924,7.9209877)">
      <g
         id="use127"
         transform="translate(517.23297,356.43399)">
        <path
           d="m 1.859375,0 c 0.296875,-1.015625 0.46875,-1.5625 0.734375,-2.1875 0.359375,-0.859375 1.328125,-2.328125 2.140625,-2.328125 0.34375,0 0.4375,0.328125 0.328125,0.71875 l -0.859375,2.9375 C 4.046875,-0.296875 4.171875,0.125 4.71875,0.125 c 0.75,0 1.3125,-0.6875 1.65625,-1.453125 L 6.125,-1.46875 c -0.171875,0.359375 -0.625,1.0625 -0.90625,1.0625 -0.1875,0 -0.1875,-0.21875 -0.09375,-0.546875 l 0.78125,-2.625 C 6.140625,-4.375 6.015625,-5.03125 5.203125,-5.03125 c -0.96875,0 -2.015625,1.0625 -2.609375,2.234375 H 2.5625 L 3.203125,-4.984375 3.15625,-5.03125 1.328125,-4.75 l -0.0625,0.234375 0.625,0.046875 C 2.125,-4.4375 2.125,-4.296875 2.03125,-3.984375 L 0.984375,0.125 Z m 0,0"
           id="path42" />
      </g>
    </g>
    <g
       fill="#000000"
       fill-opacity="1"
       id="g128"
       transform="matrix(0.35277777,0,0,0.35277777,-5.124924,7.9209877)">
      <g
         id="use128"
         transform="translate(523.98602,356.43399)">
        <path
           d="m 1.34375,0.46875 c 0,0.46875 -0.0625,0.5 -0.96875,0.546875 V 1.28125 H 1.96875 V -6.9375 H 0.375 v 0.265625 C 1.28125,-6.625 1.34375,-6.59375 1.34375,-6.125 Z m 0,0"
           id="path114" />
      </g>
    </g>
    <path
       fill="none"
       stroke-width="0.281164"
       stroke-linecap="butt"
       stroke-linejoin="miter"
       stroke="#000000"
       stroke-opacity="1"
       stroke-miterlimit="10"
       d="m 130.45198,110.34506 c 0,-2.70647 -2.19383,-4.90031 -4.9003,-4.90031 -2.70647,0 -4.9003,2.19384 -4.9003,4.90031 0,2.70646 2.19383,4.9003 4.9003,4.9003 2.70647,0 4.9003,-2.19384 4.9003,-4.9003 z m 0,0"
       id="path128" />
    <path
       fill="none"
       stroke-width="0.140582"
       stroke-linecap="butt"
       stroke-linejoin="miter"
       stroke="#000000"
       stroke-opacity="1"
       stroke-miterlimit="10"
       d="m 122.08591,106.88067 6.93016,6.92877 m 0,-6.92877 -6.93016,6.92877"
       id="path129" />
    <g
       fill="#000000"
       fill-opacity="1"
       id="g129"
       transform="matrix(0.35277777,0,0,0.35277777,-5.124924,7.9209877)">
      <g
         id="use129"
         transform="translate(373.48901,314.564)">
        <path
           d="m 5.0625,-6.734375 c 1.09375,0 1.796875,0.640625 1.796875,2.0625 0,0.5625 -0.0625,1.40625 -0.46875,2.46875 -0.40625,1.0625 -1.09375,2 -2.390625,2 -1.09375,0 -1.796875,-0.703125 -1.796875,-2.109375 0,-0.84375 0.15625,-1.765625 0.609375,-2.75 C 3.28125,-6.015625 4,-6.734375 5.0625,-6.734375 Z M 5.015625,-7.09375 c -1.609375,0 -2.59375,0.890625 -3.1875,1.84375 -0.546875,0.9375 -0.6875,1.875 -0.6875,2.546875 0,1.484375 0.78125,2.609375 2.375,2.8125 C 3.734375,0.53125 4.125,1.015625 4.546875,1.375 5.0625,1.8125 5.71875,2.03125 6.265625,2.03125 c 0.25,0 0.578125,-0.0625 0.75,-0.15625 L 6.984375,1.703125 C 6.3125,1.71875 5.84375,1.390625 5.359375,0.90625 5.0625,0.625 4.8125,0.296875 4.6875,0.109375 6.0625,-0.078125 6.796875,-0.875 7.28125,-1.75 c 0.546875,-0.984375 0.640625,-2.015625 0.640625,-2.40625 0,-2.046875 -1.25,-2.9375 -2.90625,-2.9375 z m 0,0"
           id="path75" />
      </g>
    </g>
    <g
       fill="#000000"
       fill-opacity="1"
       id="g130"
       transform="matrix(0.35277777,0,0,0.35277777,-5.124924,7.9209877)">
      <g
         id="use130"
         transform="translate(381.82401,310.604)">
        <path
           d="M 2.109375,-3.84375 C 2.15625,-3.953125 2.15625,-4.03125 2.15625,-4.0625 c 0,-0.15625 -0.21875,-0.21875 -0.453125,-0.21875 -0.234375,0 -0.46875,0.0625 -0.5,0.1875 l -0.796875,3.6875 c 0,0.0625 0.109375,0.109375 0.203125,0.109375 0.0625,0 0.125,-0.03125 0.140625,-0.0625 z m 0,0"
           id="path68" />
      </g>
    </g>
    <g
       fill="#000000"
       fill-opacity="1"
       id="g131"
       transform="matrix(0.35277777,0,0,0.35277777,-5.124924,7.9209877)">
      <g
         id="use131"
         transform="translate(384.56299,314.564)">
        <path
           d="m 1.96875,-6.125 c 0,-0.46875 0.0625,-0.5 0.953125,-0.546875 V -6.9375 h -1.59375 v 8.21875 h 1.59375 V 1.015625 C 2.03125,0.96875 1.96875,0.9375 1.96875,0.46875 Z m 0,0"
           id="path36" />
      </g>
    </g>
    <g
       fill="#000000"
       fill-opacity="1"
       id="g132"
       transform="matrix(0.35277777,0,0,0.35277777,-5.124924,7.9209877)">
      <g
         id="use132"
         transform="translate(387.879,314.564)">
        <path
           d="m 1.859375,0 c 0.296875,-1.015625 0.46875,-1.5625 0.734375,-2.1875 0.359375,-0.859375 1.328125,-2.328125 2.140625,-2.328125 0.34375,0 0.4375,0.328125 0.328125,0.71875 l -0.859375,2.9375 C 4.046875,-0.296875 4.171875,0.125 4.71875,0.125 c 0.75,0 1.3125,-0.6875 1.65625,-1.453125 L 6.125,-1.46875 c -0.171875,0.359375 -0.625,1.0625 -0.90625,1.0625 -0.1875,0 -0.1875,-0.21875 -0.09375,-0.546875 l 0.78125,-2.625 C 6.140625,-4.375 6.015625,-5.03125 5.203125,-5.03125 c -0.96875,0 -2.015625,1.0625 -2.609375,2.234375 H 2.5625 L 3.203125,-4.984375 3.15625,-5.03125 1.328125,-4.75 l -0.0625,0.234375 0.625,0.046875 C 2.125,-4.4375 2.125,-4.296875 2.03125,-3.984375 L 0.984375,0.125 Z m 0,0"
           id="path43" />
      </g>
    </g>
    <g
       fill="#000000"
       fill-opacity="1"
       id="g133"
       transform="matrix(0.35277777,0,0,0.35277777,-5.124924,7.9209877)">
      <g
         id="use133"
         transform="translate(394.63199,314.564)">
        <path
           d="m 1.34375,0.46875 c 0,0.46875 -0.0625,0.5 -0.96875,0.546875 V 1.28125 H 1.96875 V -6.9375 H 0.375 v 0.265625 C 1.28125,-6.625 1.34375,-6.59375 1.34375,-6.125 Z m 0,0"
           id="path126" />
      </g>
    </g>
    <path
       fill-rule="nonzero"
       fill="#000000"
       fill-opacity="1"
       d="m 125.55168,116.73226 h 0.70004 l -0.70004,-1.4869 -0.70004,1.4869 h 0.70004"
       id="path133"
       style="stroke-width:0.352778" />
    <path
       fill-rule="nonzero"
       fill="#000000"
       fill-opacity="1"
       d="m 119.16309,110.34505 v 0.70004 l 1.48829,-0.70004 -1.48829,-0.70004 v 0.70004"
       id="path134"
       style="stroke-width:0.352778" />
    <path
       fill-rule="nonzero"
       fill="#000000"
       fill-opacity="1"
       d="m 140.45103,128.90722 h -0.70005 l 0.70005,1.48829 0.70004,-1.48829 h -0.70004"
       id="path135"
       style="stroke-width:0.352778" />
    <path
       fill="none"
       stroke-width="0.281164"
       stroke-linecap="butt"
       stroke-linejoin="miter"
       stroke="#000000"
       stroke-opacity="1"
       stroke-miterlimit="10"
       d="m 63.001149,165.34532 c 0,-2.70509 -2.193837,-4.89893 -4.900304,-4.89893 -2.706467,0 -4.900303,2.19384 -4.900303,4.89893 0,2.70646 2.193836,4.9003 4.900303,4.9003 2.706467,0 4.900304,-2.19384 4.900304,-4.9003 z m 0,0"
       id="path136" />
    <path
       fill="none"
       stroke-width="0.140582"
       stroke-linecap="butt"
       stroke-linejoin="miter"
       stroke="#000000"
       stroke-opacity="1"
       stroke-miterlimit="10"
       d="m 54.63508,161.88093 6.930153,6.93015 m 0,-6.93015 -6.930153,6.93015"
       id="path137" />
    <path
       fill-rule="nonzero"
       fill="#000000"
       fill-opacity="1"
       d="m 58.100846,158.95811 h -0.700045 l 0.700045,1.48828 0.700042,-1.48828 h -0.700042"
       id="path138"
       style="stroke-width:0.352778" />
    <path
       fill-rule="nonzero"
       fill="#000000"
       fill-opacity="1"
       d="m 51.713639,165.34531 v 0.70004 l 1.486902,-0.70004 -1.486902,-0.70004 v 0.70004"
       id="path139"
       style="stroke-width:0.352778" />
    <g
       fill="#000000"
       fill-opacity="1"
       id="g139"
       transform="matrix(0.35277777,0,0,0.35277777,-5.124924,7.9209877)">
      <g
         id="use139"
         transform="translate(201.08,440.80301)">
        <path
           d="m 5.0625,-6.734375 c 1.09375,0 1.796875,0.640625 1.796875,2.0625 0,0.5625 -0.0625,1.40625 -0.46875,2.46875 -0.40625,1.0625 -1.09375,2 -2.390625,2 -1.09375,0 -1.796875,-0.703125 -1.796875,-2.109375 0,-0.84375 0.15625,-1.765625 0.609375,-2.75 C 3.28125,-6.015625 4,-6.734375 5.0625,-6.734375 Z M 5.015625,-7.09375 c -1.609375,0 -2.59375,0.890625 -3.1875,1.84375 -0.546875,0.9375 -0.6875,1.875 -0.6875,2.546875 0,1.484375 0.78125,2.609375 2.375,2.8125 C 3.734375,0.53125 4.125,1.015625 4.546875,1.375 5.0625,1.8125 5.71875,2.03125 6.265625,2.03125 c 0.25,0 0.578125,-0.0625 0.75,-0.15625 L 6.984375,1.703125 C 6.3125,1.71875 5.84375,1.390625 5.359375,0.90625 5.0625,0.625 4.8125,0.296875 4.6875,0.109375 6.0625,-0.078125 6.796875,-0.875 7.28125,-1.75 c 0.546875,-0.984375 0.640625,-2.015625 0.640625,-2.40625 0,-2.046875 -1.25,-2.9375 -2.90625,-2.9375 z m 0,0"
           id="path76" />
      </g>
    </g>
    <g
       fill="#000000"
       fill-opacity="1"
       id="g140"
       transform="matrix(0.35277777,0,0,0.35277777,-5.124924,7.9209877)">
      <g
         id="use140"
         transform="translate(209.41499,436.84299)">
        <path
           d="M 3.6875,-1 3.484375,-1.046875 c -0.171875,0.421875 -0.3125,0.46875 -0.625,0.46875 H 0.90625 c 0.125,-0.390625 0.578125,-0.9375 1.28125,-1.453125 0.734375,-0.53125 1.296875,-0.875 1.296875,-1.71875 0,-1.0625 -0.703125,-1.421875 -1.5,-1.421875 -1.046875,0 -1.578125,0.625 -1.578125,1.03125 0,0.25 0.28125,0.375 0.421875,0.375 0.125,0 0.1875,-0.078125 0.21875,-0.203125 0.125,-0.515625 0.421875,-0.9375 0.890625,-0.9375 0.578125,0 0.75,0.5 0.75,1.046875 0,0.8125 -0.40625,1.265625 -1.078125,1.859375 -0.9375,0.8125 -1.265625,1.328125 -1.40625,1.921875 L 0.28125,0 H 3.4375 Z m 0,0"
           id="path59" />
      </g>
    </g>
    <g
       fill="#000000"
       fill-opacity="1"
       id="g141"
       transform="matrix(0.35277777,0,0,0.35277777,-5.124924,7.9209877)">
      <g
         id="use141"
         transform="translate(213.948,440.80301)">
        <path
           d="m 1.96875,-6.125 c 0,-0.46875 0.0625,-0.5 0.953125,-0.546875 V -6.9375 h -1.59375 v 8.21875 h 1.59375 V 1.015625 C 2.03125,0.96875 1.96875,0.9375 1.96875,0.46875 Z m 0,0"
           id="path37" />
      </g>
    </g>
    <g
       fill="#000000"
       fill-opacity="1"
       id="g142"
       transform="matrix(0.35277777,0,0,0.35277777,-5.124924,7.9209877)">
      <g
         id="use142"
         transform="translate(217.26401,440.80301)">
        <path
           d="m 1.859375,0 c 0.296875,-1.015625 0.46875,-1.5625 0.734375,-2.1875 0.359375,-0.859375 1.328125,-2.328125 2.140625,-2.328125 0.34375,0 0.4375,0.328125 0.328125,0.71875 l -0.859375,2.9375 C 4.046875,-0.296875 4.171875,0.125 4.71875,0.125 c 0.75,0 1.3125,-0.6875 1.65625,-1.453125 L 6.125,-1.46875 c -0.171875,0.359375 -0.625,1.0625 -0.90625,1.0625 -0.1875,0 -0.1875,-0.21875 -0.09375,-0.546875 l 0.78125,-2.625 C 6.140625,-4.375 6.015625,-5.03125 5.203125,-5.03125 c -0.96875,0 -2.015625,1.0625 -2.609375,2.234375 H 2.5625 L 3.203125,-4.984375 3.15625,-5.03125 1.328125,-4.75 l -0.0625,0.234375 0.625,0.046875 C 2.125,-4.4375 2.125,-4.296875 2.03125,-3.984375 L 0.984375,0.125 Z m 0,0"
           id="path44" />
      </g>
    </g>
    <g
       fill="#000000"
       fill-opacity="1"
       id="g143"
       transform="matrix(0.35277777,0,0,0.35277777,-5.124924,7.9209877)">
      <g
         id="use143"
         transform="translate(224.017,440.80301)">
        <path
           d="m 1.34375,0.46875 c 0,0.46875 -0.0625,0.5 -0.96875,0.546875 V 1.28125 H 1.96875 V -6.9375 H 0.375 v 0.265625 C 1.28125,-6.625 1.34375,-6.59375 1.34375,-6.125 Z m 0,0"
           id="path140" />
      </g>
    </g>
    <path
       fill="none"
       stroke-width="0.281164"
       stroke-linecap="butt"
       stroke-linejoin="miter"
       stroke="#000000"
       stroke-opacity="1"
       stroke-miterlimit="10"
       d="m 80.451245,175.34574 c 0,-1.35323 -1.096917,-2.45015 -2.450151,-2.45015 -1.353235,0 -2.450151,1.09692 -2.450151,2.45015 0,1.35323 1.096916,2.45015 2.450151,2.45015 1.353234,0 2.450151,-1.09692 2.450151,-2.45015 z m 0,0"
       id="path143" />
    <path
       fill="none"
       stroke-width="0.281164"
       stroke-linecap="butt"
       stroke-linejoin="miter"
       stroke="#000000"
       stroke-opacity="1"
       stroke-miterlimit="10"
       d="m 79.470081,175.34574 h -2.939355 m 1.470368,-1.47037 v 2.94073"
       id="path144" />
    <path
       fill-rule="nonzero"
       fill="#000000"
       fill-opacity="1"
       d="m 78.001093,171.40868 h -0.700041 l 0.700041,1.4869 0.700045,-1.4869 h -0.700045"
       id="path145"
       style="stroke-width:0.352778" />
    <path
       fill="none"
       stroke-width="0.281164"
       stroke-linecap="butt"
       stroke-linejoin="miter"
       stroke="#000000"
       stroke-opacity="1"
       stroke-miterlimit="10"
       d="m 63.001149,185.34616 c 0,-2.70647 -2.193837,-4.9003 -4.900304,-4.9003 -2.706467,0 -4.900303,2.19383 -4.900303,4.9003 0,2.70647 2.193836,4.9003 4.900303,4.9003 2.706467,0 4.900304,-2.19383 4.900304,-4.9003 z m 0,0"
       id="path146" />
    <path
       fill="none"
       stroke-width="0.140582"
       stroke-linecap="butt"
       stroke-linejoin="miter"
       stroke="#000000"
       stroke-opacity="1"
       stroke-miterlimit="10"
       d="m 54.63508,181.88177 6.930153,6.92878 m 0,-6.92878 -6.930153,6.92878"
       id="path147" />
    <path
       fill-rule="nonzero"
       fill="#000000"
       fill-opacity="1"
       d="m 51.713639,185.34616 v 0.70004 l 1.486902,-0.70004 -1.486902,-0.70005 v 0.70005"
       id="path148"
       style="stroke-width:0.352778" />
    <path
       fill-rule="nonzero"
       fill="#000000"
       fill-opacity="1"
       d="m 58.100846,178.95895 h -0.700045 l 0.700045,1.4869 0.700042,-1.4869 h -0.700042"
       id="path149"
       style="stroke-width:0.352778" />
    <g
       fill="#000000"
       fill-opacity="1"
       id="g149"
       transform="matrix(0.35277777,0,0,0.35277777,-5.124924,7.9209877)">
      <g
         id="use149"
         transform="translate(203.213,498.26501)">
        <path
           d="M 3.15625,0 3.203125,-0.296875 2.625,-0.328125 c -0.25,-0.015625 -0.296875,-0.1875 -0.234375,-0.5 l 1.203125,-5.28125 c 0.078125,-0.3125 0.171875,-0.46875 0.421875,-0.484375 l 0.5625,-0.0625 0.0625,-0.28125 h -2.75 l -0.0625,0.28125 0.59375,0.046875 c 0.21875,0.015625 0.28125,0.203125 0.21875,0.5 L 1.4375,-0.828125 C 1.359375,-0.515625 1.25,-0.375 1.015625,-0.34375 L 0.46875,-0.296875 0.40625,0 Z m 0,0"
           id="path48" />
      </g>
    </g>
    <g
       fill="#000000"
       fill-opacity="1"
       id="g150"
       transform="matrix(0.35277777,0,0,0.35277777,-5.124924,7.9209877)">
      <g
         id="use150"
         transform="translate(207.936,494.30499)">
        <path
           d="M 3.6875,-1 3.484375,-1.046875 c -0.171875,0.421875 -0.3125,0.46875 -0.625,0.46875 H 0.90625 c 0.125,-0.390625 0.578125,-0.9375 1.28125,-1.453125 0.734375,-0.53125 1.296875,-0.875 1.296875,-1.71875 0,-1.0625 -0.703125,-1.421875 -1.5,-1.421875 -1.046875,0 -1.578125,0.625 -1.578125,1.03125 0,0.25 0.28125,0.375 0.421875,0.375 0.125,0 0.1875,-0.078125 0.21875,-0.203125 0.125,-0.515625 0.421875,-0.9375 0.890625,-0.9375 0.578125,0 0.75,0.5 0.75,1.046875 0,0.8125 -0.40625,1.265625 -1.078125,1.859375 -0.9375,0.8125 -1.265625,1.328125 -1.40625,1.921875 L 0.28125,0 H 3.4375 Z m 0,0"
           id="path60" />
      </g>
    </g>
    <g
       fill="#000000"
       fill-opacity="1"
       id="g151"
       transform="matrix(0.35277777,0,0,0.35277777,-5.124924,7.9209877)">
      <g
         id="use151"
         transform="translate(212.47,498.26501)">
        <path
           d="m 1.96875,-6.125 c 0,-0.46875 0.0625,-0.5 0.953125,-0.546875 V -6.9375 h -1.59375 v 8.21875 h 1.59375 V 1.015625 C 2.03125,0.96875 1.96875,0.9375 1.96875,0.46875 Z m 0,0"
           id="path38" />
      </g>
    </g>
    <g
       fill="#000000"
       fill-opacity="1"
       id="g152"
       transform="matrix(0.35277777,0,0,0.35277777,-5.124924,7.9209877)">
      <g
         id="use152"
         transform="translate(215.786,498.26501)">
        <path
           d="m 1.859375,0 c 0.296875,-1.015625 0.46875,-1.5625 0.734375,-2.1875 0.359375,-0.859375 1.328125,-2.328125 2.140625,-2.328125 0.34375,0 0.4375,0.328125 0.328125,0.71875 l -0.859375,2.9375 C 4.046875,-0.296875 4.171875,0.125 4.71875,0.125 c 0.75,0 1.3125,-0.6875 1.65625,-1.453125 L 6.125,-1.46875 c -0.171875,0.359375 -0.625,1.0625 -0.90625,1.0625 -0.1875,0 -0.1875,-0.21875 -0.09375,-0.546875 l 0.78125,-2.625 C 6.140625,-4.375 6.015625,-5.03125 5.203125,-5.03125 c -0.96875,0 -2.015625,1.0625 -2.609375,2.234375 H 2.5625 L 3.203125,-4.984375 3.15625,-5.03125 1.328125,-4.75 l -0.0625,0.234375 0.625,0.046875 C 2.125,-4.4375 2.125,-4.296875 2.03125,-3.984375 L 0.984375,0.125 Z m 0,0"
           id="path45" />
      </g>
    </g>
    <g
       fill="#000000"
       fill-opacity="1"
       id="g153"
       transform="matrix(0.35277777,0,0,0.35277777,-5.124924,7.9209877)">
      <g
         id="use153"
         transform="translate(222.539,498.26501)">
        <path
           d="m 1.34375,0.46875 c 0,0.46875 -0.0625,0.5 -0.96875,0.546875 V 1.28125 H 1.96875 V -6.9375 H 0.375 v 0.265625 C 1.28125,-6.625 1.34375,-6.59375 1.34375,-6.125 Z m 0,0"
           id="path150" />
      </g>
    </g>
    <path
       fill-rule="nonzero"
       fill="#000000"
       fill-opacity="1"
       d="m 78.001093,179.28279 h 0.700045 l -0.700045,-1.4869 -0.700041,1.4869 h 0.700041"
       id="path153"
       style="stroke-width:0.352778" />
    <path
       fill-rule="nonzero"
       fill="#000000"
       fill-opacity="1"
       d="m 101.46357,175.34573 v 0.70005 l 1.48691,-0.70005 -1.48691,-0.70004 v 0.70004"
       id="path154"
       style="stroke-width:0.352778" />
    <path
       fill="none"
       stroke-width="0.281167"
       stroke-linecap="butt"
       stroke-linejoin="miter"
       stroke="#000000"
       stroke-opacity="1"
       stroke-miterlimit="10"
       d="m 103.10068,180.34664 v -10.00042 h 14.99995 v 10.00042 z m 0,0"
       id="path155" />
    <g
       fill="#000000"
       fill-opacity="1"
       id="g155"
       transform="matrix(0.35277777,0,0,0.35277777,-5.124924,7.9209877)">
      <g
         id="use155"
         transform="translate(311.474,478.112)">
        <path
           d="m 2.25,-6.015625 c 0,-0.5625 0.03125,-0.578125 0.90625,-0.640625 V -6.9375 h -2.8125 v 0.28125 C 1.234375,-6.59375 1.25,-6.578125 1.25,-6.015625 V -0.9375 c 0,0.5625 -0.015625,0.59375 -0.90625,0.640625 V 0 h 2.8125 V -0.296875 C 2.28125,-0.34375 2.25,-0.375 2.25,-0.9375 Z m 0,0"
           id="path84" />
      </g>
    </g>
    <g
       fill="#000000"
       fill-opacity="1"
       id="g157"
       transform="matrix(0.35277777,0,0,0.35277777,-5.124924,7.9209877)">
      <g
         id="use156"
         transform="translate(314.78601,478.112)">
        <path
           d="M 5.3125,-3.4375 C 5.3125,-4.453125 4.75,-5.03125 3.828125,-5.03125 3.09375,-5.03125 2.625,-4.671875 2,-4.265625 L 1.859375,-5.03125 0.375,-4.78125 v 0.25 l 0.375,0.046875 c 0.265625,0.046875 0.328125,0.09375 0.328125,0.453125 V -0.875 c 0,0.515625 -0.03125,0.53125 -0.75,0.578125 V 0 h 2.4375 v -0.296875 c -0.703125,-0.046875 -0.75,-0.0625 -0.75,-0.578125 v -2.34375 c 0,-0.25 0.015625,-0.390625 0.09375,-0.546875 C 2.328125,-4.15625 2.78125,-4.5 3.3125,-4.5 4,-4.5 4.359375,-4.109375 4.359375,-3.234375 V -0.875 c 0,0.515625 -0.03125,0.53125 -0.75,0.578125 V 0 H 6.0625 V -0.296875 C 5.34375,-0.34375 5.3125,-0.359375 5.3125,-0.875 Z m 0,0"
           id="path49" />
      </g>
      <g
         id="use157"
         transform="translate(320.99854,478.112)">
        <path
           d="M 3.40625,-4.921875 V -4.625 l 0.484375,0.046875 c 0.15625,0.03125 0.1875,0.140625 0.15625,0.28125 -0.078125,0.3125 -0.28125,0.890625 -0.5,1.53125 L 2.875,-0.90625 H 2.84375 L 2.234375,-2.59375 C 2.03125,-3.15625 1.828125,-3.734375 1.640625,-4.28125 1.578125,-4.46875 1.609375,-4.546875 1.8125,-4.578125 L 2.25,-4.625 V -4.921875 H 0.015625 V -4.625 c 0.46875,0.046875 0.5625,0.078125 0.703125,0.453125 0.28125,0.65625 0.5,1.3125 0.75,2 L 2.25,0 H 2.96875 L 3.859375,-2.421875 C 4.15625,-3.203125 4.4375,-3.875 4.578125,-4.1875 4.734375,-4.546875 4.84375,-4.609375 5.3125,-4.625 v -0.296875 z m 0,0"
           id="path51" />
      </g>
    </g>
    <g
       fill="#000000"
       fill-opacity="1"
       id="g161"
       transform="matrix(0.35277777,0,0,0.35277777,-5.124924,7.9209877)">
      <g
         id="use158"
         transform="translate(326.00671,478.112)">
        <path
           d="m 4.421875,-2.640625 c 0.21875,0 0.40625,-0.046875 0.40625,-0.375 0,-0.59375 -0.1875,-2.015625 -2.03125,-2.015625 -1.5625,0 -2.3125,1.109375 -2.3125,2.609375 0,1.59375 0.6875,2.5625 2.328125,2.546875 C 3.921875,0.109375 4.5,-0.5 4.765625,-1.296875 L 4.46875,-1.453125 c -0.28125,0.578125 -0.671875,1.0625 -1.453125,1.0625 -1.25,0 -1.5,-1.203125 -1.484375,-2.25 z m -2.875,-0.375 c 0,-0.421875 0.140625,-1.671875 1.1875,-1.671875 0.9375,0 1.046875,0.953125 1.046875,1.34375 0,0.1875 -0.0625,0.328125 -0.34375,0.328125 z m 0,0"
           id="path82" />
      </g>
      <g
         id="use159"
         transform="translate(331.16541,478.112)">
        <path
           d="m 1.890625,-5.03125 -1.515625,0.25 v 0.25 l 0.375,0.046875 c 0.265625,0.046875 0.328125,0.09375 0.328125,0.453125 V -0.875 c 0,0.515625 -0.0625,0.53125 -0.75,0.578125 V 0 H 2.96875 V -0.296875 C 2.078125,-0.34375 2.015625,-0.359375 2.015625,-0.875 V -3.21875 C 2.015625,-4 2.359375,-4.25 2.59375,-4.25 2.75,-4.25 2.921875,-4.1875 3.203125,-4.03125 3.28125,-4 3.359375,-3.984375 3.40625,-3.984375 c 0.25,0 0.46875,-0.25 0.46875,-0.5625 0,-0.21875 -0.140625,-0.484375 -0.53125,-0.484375 -0.359375,0 -0.671875,0.21875 -1.328125,0.796875 z m 0,0"
           id="path50" />
      </g>
      <g
         id="use160"
         transform="translate(335.06958,478.112)">
        <path
           d="M 3.6875,-3.515625 V -4.6875 c -0.34375,-0.25 -0.84375,-0.34375 -1.296875,-0.34375 -1.09375,0 -1.8125,0.5 -1.828125,1.453125 C 0.578125,-2.734375 1.25,-2.375 2.078125,-2.109375 2.53125,-1.96875 3.15625,-1.75 3.15625,-1.0625 c 0,0.515625 -0.390625,0.828125 -0.921875,0.828125 -0.8125,0 -1.265625,-0.59375 -1.46875,-1.4375 H 0.46875 l 0.109375,1.3125 c 0.359375,0.3125 0.96875,0.484375 1.5625,0.484375 1.1875,0 1.875,-0.640625 1.875,-1.484375 C 4.015625,-2.25 3.46875,-2.640625 2.4375,-2.96875 2.03125,-3.09375 1.359375,-3.3125 1.359375,-3.875 1.375,-4.390625 1.765625,-4.6875 2.265625,-4.6875 c 0.71875,0 1.0625,0.546875 1.125,1.171875 z m 0,0"
           id="path81" />
      </g>
      <g
         id="use161"
         transform="translate(339.44543,478.112)">
        <path
           d="m 4.421875,-2.640625 c 0.21875,0 0.40625,-0.046875 0.40625,-0.375 0,-0.59375 -0.1875,-2.015625 -2.03125,-2.015625 -1.5625,0 -2.3125,1.109375 -2.3125,2.609375 0,1.59375 0.6875,2.5625 2.328125,2.546875 C 3.921875,0.109375 4.5,-0.5 4.765625,-1.296875 L 4.46875,-1.453125 c -0.28125,0.578125 -0.671875,1.0625 -1.453125,1.0625 -1.25,0 -1.5,-1.203125 -1.484375,-2.25 z m -2.875,-0.375 c 0,-0.421875 0.140625,-1.671875 1.1875,-1.671875 0.9375,0 1.046875,0.953125 1.046875,1.34375 0,0.1875 -0.0625,0.328125 -0.34375,0.328125 z m 0,0"
           id="path83" />
      </g>
    </g>
    <path
       fill="none"
       stroke-width="0.140582"
       stroke-linecap="butt"
       stroke-linejoin="miter"
       stroke="#000000"
       stroke-opacity="1"
       stroke-miterlimit="10"
       d="m 118.10063,175.34574 h 39.80049 v -37.59977"
       id="path161" />
    <path
       fill-rule="nonzero"
       fill="#000000"
       fill-opacity="1"
       d="m 157.90112,139.23287 h 0.70005 l -0.70005,-1.48691 -0.70004,1.48691 h 0.70004"
       id="path162"
       style="stroke-width:0.352778" />
    <g
       fill="#000000"
       fill-opacity="1"
       id="g162"
       transform="matrix(0.35277777,0,0,0.35277777,-5.124924,7.9209877)">
      <g
         id="use162"
         transform="translate(403.97501,461.22501)">
        <path
           d="M 3.328125,0 V -0.21875 L 2.6875,-0.28125 c -0.15625,-0.015625 -0.25,-0.0625 -0.25,-0.359375 V -5.125 l -0.046875,-0.046875 -1.5625,0.265625 v 0.1875 L 1.53125,-4.640625 C 1.671875,-4.625 1.71875,-4.5625 1.71875,-4.34375 v 3.703125 c 0,0.140625 -0.015625,0.234375 -0.0625,0.28125 -0.046875,0.0625 -0.109375,0.078125 -0.1875,0.078125 l -0.640625,0.0625 V 0 Z m 0,0"
           id="path65" />
      </g>
    </g>
    <path
       fill="none"
       stroke-width="0.205317"
       stroke-linecap="butt"
       stroke-linejoin="miter"
       stroke="#000000"
       stroke-opacity="1"
       stroke-miterlimit="10"
       d="m 130.60495,171.15099 h 14.99029"
       id="path163" />
    <g
       fill="#000000"
       fill-opacity="1"
       id="g163"
       transform="matrix(0.35277777,0,0,0.35277777,-5.124924,7.9209877)">
      <g
         id="use163"
         transform="translate(384.99301,469.64301)">
        <path
           d="M 2.390625,0 2.4375,-0.21875 1.984375,-0.25 C 1.796875,-0.265625 1.765625,-0.390625 1.8125,-0.625 L 2.734375,-4.640625 C 2.78125,-4.875 2.859375,-4.984375 3.046875,-5 L 3.46875,-5.046875 3.515625,-5.265625 H 1.4375 l -0.046875,0.21875 0.4375,0.03125 C 2.015625,-5 2.046875,-4.859375 2,-4.640625 L 1.09375,-0.625 c -0.0625,0.234375 -0.140625,0.34375 -0.328125,0.359375 L 0.34375,-0.21875 0.296875,0 Z m 0,0"
           id="path8" />
      </g>
    </g>
    <g
       fill="#000000"
       fill-opacity="1"
       id="g164"
       transform="matrix(0.35277777,0,0,0.35277777,-5.124924,7.9209877)">
      <g
         id="use164"
         transform="translate(388.57401,467.25299)">
        <path
           d="M 2.671875,-0.71875 2.515625,-0.75 C 2.390625,-0.453125 2.28125,-0.421875 2.0625,-0.421875 H 0.65625 C 0.75,-0.703125 1.078125,-1.09375 1.578125,-1.46875 c 0.53125,-0.375 0.9375,-0.625 0.9375,-1.25 0,-0.75 -0.5,-1.015625 -1.078125,-1.015625 -0.75,0 -1.140625,0.453125 -1.140625,0.734375 0,0.1875 0.203125,0.28125 0.296875,0.28125 0.09375,0 0.140625,-0.0625 0.15625,-0.15625 0.09375,-0.375 0.3125,-0.671875 0.640625,-0.671875 0.4375,0 0.546875,0.359375 0.546875,0.765625 0,0.578125 -0.296875,0.90625 -0.765625,1.328125 C 0.484375,-0.859375 0.25,-0.484375 0.15625,-0.0625 L 0.203125,0 h 2.28125 z m 0,0"
           id="path1" />
      </g>
    </g>
    <g
       fill="#000000"
       fill-opacity="1"
       id="g165"
       transform="matrix(0.35277777,0,0,0.35277777,-5.124924,7.9209877)">
      <g
         id="use165"
         transform="translate(391.98901,469.64301)">
        <path
           d="M 1.484375,-4.640625 C 1.484375,-5 1.53125,-5.03125 2.21875,-5.0625 V -5.265625 H 1.015625 V 0.96875 H 2.21875 V 0.765625 C 1.53125,0.734375 1.484375,0.703125 1.484375,0.34375 Z m 0,0"
           id="path57" />
      </g>
    </g>
    <g
       fill="#000000"
       fill-opacity="1"
       id="g166"
       transform="matrix(0.35277777,0,0,0.35277777,-5.124924,7.9209877)">
      <g
         id="use166"
         transform="translate(394.50299,469.64301)">
        <path
           d="m 1.421875,0 c 0.21875,-0.78125 0.34375,-1.1875 0.546875,-1.65625 0.28125,-0.65625 1,-1.765625 1.625,-1.765625 0.265625,0 0.328125,0.234375 0.25,0.53125 L 3.1875,-0.65625 c -0.125,0.421875 -0.015625,0.75 0.390625,0.75 0.5625,0 1,-0.515625 1.25,-1.09375 L 4.65625,-1.109375 c -0.140625,0.265625 -0.484375,0.8125 -0.6875,0.8125 -0.15625,0 -0.15625,-0.1875 -0.078125,-0.421875 l 0.59375,-2 C 4.65625,-3.3125 4.5625,-3.8125 3.9375,-3.8125 c -0.71875,0 -1.515625,0.796875 -1.96875,1.6875 H 1.9375 l 0.5,-1.65625 L 2.390625,-3.8125 1,-3.609375 l -0.046875,0.1875 0.484375,0.03125 c 0.171875,0.015625 0.171875,0.125 0.109375,0.375 L 0.75,0.09375 Z m 0,0"
           id="path5" />
      </g>
    </g>
    <g
       fill="#000000"
       fill-opacity="1"
       id="g167"
       transform="matrix(0.35277777,0,0,0.35277777,-5.124924,7.9209877)">
      <g
         id="use167"
         transform="translate(399.621,469.64301)">
        <path
           d="m 1.015625,0.34375 c 0,0.359375 -0.046875,0.390625 -0.71875,0.421875 V 0.96875 H 1.5 V -5.265625 H 0.296875 V -5.0625 C 0.96875,-5.03125 1.015625,-5 1.015625,-4.640625 Z m 0,0"
           id="path55" />
      </g>
    </g>
    <g
       fill="#000000"
       fill-opacity="1"
       id="g168"
       transform="matrix(0.35277777,0,0,0.35277777,-5.124924,7.9209877)">
      <g
         id="use168"
         transform="translate(402.13501,469.64301)">
        <path
           d="m 0.640625,-2.359375 v 0.4375 h 1.875 v 1.875 h 0.4375 v -1.875 h 1.875 v -0.4375 h -1.875 v -1.875 h -0.4375 v 1.875 z m 0,0"
           id="path66" />
      </g>
    </g>
    <g
       fill="#000000"
       fill-opacity="1"
       id="g169"
       transform="matrix(0.35277777,0,0,0.35277777,-5.124924,7.9209877)">
      <g
         id="use169"
         transform="translate(407.36099,469.64301)">
        <path
           d="m 3.828125,-5.109375 c 0.84375,0 1.375,0.484375 1.375,1.5625 0,0.4375 -0.046875,1.0625 -0.359375,1.875 -0.3125,0.8125 -0.828125,1.515625 -1.8125,1.515625 -0.828125,0 -1.359375,-0.53125 -1.359375,-1.59375 0,-0.640625 0.109375,-1.34375 0.46875,-2.078125 0.34375,-0.734375 0.890625,-1.28125 1.6875,-1.28125 z M 3.796875,-5.375 c -1.203125,0 -1.96875,0.671875 -2.40625,1.390625 C 0.96875,-3.265625 0.875,-2.5625 0.875,-2.046875 c 0,1.125 0.578125,1.984375 1.796875,2.125 0.171875,0.328125 0.453125,0.6875 0.78125,0.96875 0.390625,0.328125 0.890625,0.5 1.296875,0.5 0.203125,0 0.4375,-0.046875 0.5625,-0.125 l -0.015625,-0.125 C 4.78125,1.296875 4.421875,1.0625 4.0625,0.6875 3.84375,0.46875 3.65625,0.234375 3.5625,0.078125 4.609375,-0.0625 5.15625,-0.671875 5.53125,-1.328125 5.9375,-2.078125 6,-2.859375 6,-3.15625 6,-4.703125 5.0625,-5.375 3.796875,-5.375 Z m 0,0"
           id="path4" />
      </g>
    </g>
    <g
       fill="#000000"
       fill-opacity="1"
       id="g170"
       transform="matrix(0.35277777,0,0,0.35277777,-5.124924,7.9209877)">
      <g
         id="use170"
         transform="translate(413.67899,467.25299)">
        <path
           d="M 2.671875,-0.71875 2.515625,-0.75 C 2.390625,-0.453125 2.28125,-0.421875 2.0625,-0.421875 H 0.65625 C 0.75,-0.703125 1.078125,-1.09375 1.578125,-1.46875 c 0.53125,-0.375 0.9375,-0.625 0.9375,-1.25 0,-0.75 -0.5,-1.015625 -1.078125,-1.015625 -0.75,0 -1.140625,0.453125 -1.140625,0.734375 0,0.1875 0.203125,0.28125 0.296875,0.28125 0.09375,0 0.140625,-0.0625 0.15625,-0.15625 0.09375,-0.375 0.3125,-0.671875 0.640625,-0.671875 0.4375,0 0.546875,0.359375 0.546875,0.765625 0,0.578125 -0.296875,0.90625 -0.765625,1.328125 C 0.484375,-0.859375 0.25,-0.484375 0.15625,-0.0625 L 0.203125,0 h 2.28125 z m 0,0"
           id="path3" />
      </g>
    </g>
    <g
       fill="#000000"
       fill-opacity="1"
       id="g171"
       transform="matrix(0.35277777,0,0,0.35277777,-5.124924,7.9209877)">
      <g
         id="use171"
         transform="translate(417.09399,469.64301)">
        <path
           d="M 1.484375,-4.640625 C 1.484375,-5 1.53125,-5.03125 2.21875,-5.0625 V -5.265625 H 1.015625 V 0.96875 H 2.21875 V 0.765625 C 1.53125,0.734375 1.484375,0.703125 1.484375,0.34375 Z m 0,0"
           id="path58" />
      </g>
    </g>
    <g
       fill="#000000"
       fill-opacity="1"
       id="g172"
       transform="matrix(0.35277777,0,0,0.35277777,-5.124924,7.9209877)">
      <g
         id="use172"
         transform="translate(419.60699,469.64301)">
        <path
           d="m 1.421875,0 c 0.21875,-0.78125 0.34375,-1.1875 0.546875,-1.65625 0.28125,-0.65625 1,-1.765625 1.625,-1.765625 0.265625,0 0.328125,0.234375 0.25,0.53125 L 3.1875,-0.65625 c -0.125,0.421875 -0.015625,0.75 0.390625,0.75 0.5625,0 1,-0.515625 1.25,-1.09375 L 4.65625,-1.109375 c -0.140625,0.265625 -0.484375,0.8125 -0.6875,0.8125 -0.15625,0 -0.15625,-0.1875 -0.078125,-0.421875 l 0.59375,-2 C 4.65625,-3.3125 4.5625,-3.8125 3.9375,-3.8125 c -0.71875,0 -1.515625,0.796875 -1.96875,1.6875 H 1.9375 l 0.5,-1.65625 L 2.390625,-3.8125 1,-3.609375 l -0.046875,0.1875 0.484375,0.03125 c 0.171875,0.015625 0.171875,0.125 0.109375,0.375 L 0.75,0.09375 Z m 0,0"
           id="path7" />
      </g>
    </g>
    <g
       fill="#000000"
       fill-opacity="1"
       id="g173"
       transform="matrix(0.35277777,0,0,0.35277777,-5.124924,7.9209877)">
      <g
         id="use173"
         transform="translate(424.72601,469.64301)">
        <path
           d="m 1.015625,0.34375 c 0,0.359375 -0.046875,0.390625 -0.71875,0.421875 V 0.96875 H 1.5 V -5.265625 H 0.296875 V -5.0625 C 0.96875,-5.03125 1.015625,-5 1.015625,-4.640625 Z m 0,0"
           id="path56" />
      </g>
    </g>
    <path
       fill-rule="nonzero"
       fill="#000000"
       fill-opacity="1"
       stroke-width="0.140582"
       stroke-linecap="butt"
       stroke-linejoin="miter"
       stroke="#000000"
       stroke-opacity="1"
       stroke-miterlimit="10"
       d="m 43.660384,120.34548 c 0,-0.31006 -0.250803,-0.55948 -0.559484,-0.55948 -0.310059,0 -0.560862,0.24942 -0.560862,0.55948 0,0.30868 0.250803,0.55948 0.560862,0.55948 0.308681,0 0.559484,-0.2508 0.559484,-0.55948 z m 0,0"
       id="path173" />
    <path
       fill-rule="nonzero"
       fill="#000000"
       fill-opacity="1"
       stroke-width="0.140582"
       stroke-linecap="butt"
       stroke-linejoin="miter"
       stroke="#000000"
       stroke-opacity="1"
       stroke-miterlimit="10"
       d="m 48.659906,120.34548 c 0,-0.31006 -0.250803,-0.55948 -0.559484,-0.55948 -0.30868,0 -0.559483,0.24942 -0.559483,0.55948 0,0.30868 0.250803,0.55948 0.559483,0.55948 0.308681,0 0.559484,-0.2508 0.559484,-0.55948 z m 0,0"
       id="path174" />
    <path
       fill-rule="nonzero"
       fill="#000000"
       fill-opacity="1"
       stroke-width="0.140582"
       stroke-linecap="butt"
       stroke-linejoin="miter"
       stroke="#000000"
       stroke-opacity="1"
       stroke-miterlimit="10"
       d="m 68.660752,120.34548 c 0,-0.31006 -0.250803,-0.55948 -0.559483,-0.55948 -0.310059,0 -0.560862,0.24942 -0.560862,0.55948 0,0.30868 0.250803,0.55948 0.560862,0.55948 0.30868,0 0.559483,-0.2508 0.559483,-0.55948 z m 0,0"
       id="path175" />
    <path
       fill-rule="nonzero"
       fill="#000000"
       fill-opacity="1"
       stroke-width="0.140582"
       stroke-linecap="butt"
       stroke-linejoin="miter"
       stroke="#000000"
       stroke-opacity="1"
       stroke-miterlimit="10"
       d="m 48.659906,145.34585 c 0,-0.31006 -0.250803,-0.56086 -0.559484,-0.56086 -0.30868,0 -0.559483,0.2508 -0.559483,0.56086 0,0.30868 0.250803,0.55948 0.559483,0.55948 0.308681,0 0.559484,-0.2508 0.559484,-0.55948 z m 0,0"
       id="path176" />
    <path
       fill-rule="nonzero"
       fill="#000000"
       fill-opacity="1"
       stroke-width="0.140582"
       stroke-linecap="butt"
       stroke-linejoin="miter"
       stroke="#000000"
       stroke-opacity="1"
       stroke-miterlimit="10"
       d="m 68.660752,145.34585 c 0,-0.31006 -0.250803,-0.56086 -0.559483,-0.56086 -0.310059,0 -0.560862,0.2508 -0.560862,0.56086 0,0.30868 0.250803,0.55948 0.560862,0.55948 0.30868,0 0.559483,-0.2508 0.559483,-0.55948 z m 0,0"
       id="path177" />
    <path
       fill-rule="nonzero"
       fill="#000000"
       fill-opacity="1"
       stroke-width="0.140582"
       stroke-linecap="butt"
       stroke-linejoin="miter"
       stroke="#000000"
       stroke-opacity="1"
       stroke-miterlimit="10"
       d="m 48.659906,155.34627 c 0,-0.31006 -0.250803,-0.56086 -0.559484,-0.56086 -0.30868,0 -0.559483,0.2508 -0.559483,0.56086 0,0.30868 0.250803,0.55948 0.559483,0.55948 0.308681,0 0.559484,-0.2508 0.559484,-0.55948 z m 0,0"
       id="path178" />
    <path
       fill-rule="nonzero"
       fill="#000000"
       fill-opacity="1"
       stroke-width="0.140582"
       stroke-linecap="butt"
       stroke-linejoin="miter"
       stroke="#000000"
       stroke-opacity="1"
       stroke-miterlimit="10"
       d="m 43.660384,175.34574 c 0,-0.30868 -0.250803,-0.55948 -0.559484,-0.55948 -0.310059,0 -0.560862,0.2508 -0.560862,0.55948 0,0.31006 0.250803,0.55948 0.560862,0.55948 0.308681,0 0.559484,-0.24942 0.559484,-0.55948 z m 0,0"
       id="path179" />
  </g>
</svg>
