<?xml version="1.0" encoding="utf-8" standalone="no"?>
<!DOCTYPE svg PUBLIC "-//W3C//DTD SVG 1.1//EN"
  "http://www.w3.org/Graphics/SVG/1.1/DTD/svg11.dtd">
<svg xmlns:xlink="http://www.w3.org/1999/xlink" width="777.6pt" height="324pt" viewBox="0 0 777.6 324" xmlns="http://www.w3.org/2000/svg" version="1.1">
 <metadata>
  <rdf:RDF xmlns:dc="http://purl.org/dc/elements/1.1/" xmlns:cc="http://creativecommons.org/ns#" xmlns:rdf="http://www.w3.org/1999/02/22-rdf-syntax-ns#">
   <cc:Work>
    <dc:type rdf:resource="http://purl.org/dc/dcmitype/StillImage"/>
    <dc:date>2026-03-16T22:16:44.638192</dc:date>
    <dc:format>image/svg+xml</dc:format>
    <dc:creator>
     <cc:Agent>
      <dc:title>Matplotlib v3.10.8, https://matplotlib.org/</dc:title>
     </cc:Agent>
    </dc:creator>
   </cc:Work>
  </rdf:RDF>
 </metadata>
 <defs>
  <style type="text/css">*{stroke-linejoin: round; stroke-linecap: butt}</style>
 </defs>
 <g id="figure_1">
  <g id="patch_1">
   <path d="M 0 324 
L 777.6 324 
L 777.6 0 
L 0 0 
z
" style="fill: #ffffff"/>
  </g>
  <g id="axes_1">
   <g id="patch_2">
    <path d="M 56.18 146.05 
L 766.8 146.05 
L 766.8 28.32 
L 56.18 28.32 
z
" style="fill: #ffffff"/>
   </g>
   <g id="matplotlib.axis_1">
    <g id="xtick_1">
     <g id="line2d_1">
      <path d="M 88.480909 146.05 
L 88.480909 28.32 
" clip-path="url(#pd093b590c6)" style="fill: none; stroke: #b0b0b0; stroke-opacity: 0.22; stroke-width: 0.8; stroke-linecap: square"/>
     </g>
     <g id="line2d_2">
      <defs>
       <path id="m5c9ca3a063" d="M 0 0 
L 0 3.5 
" style="stroke: #000000; stroke-width: 0.8"/>
      </defs>
      <g>
       <use xlink:href="#m5c9ca3a063" x="88.480909" y="146.05" style="stroke: #000000; stroke-width: 0.8"/>
      </g>
     </g>
    </g>
    <g id="xtick_2">
     <g id="line2d_3">
      <path d="M 196.150606 146.05 
L 196.150606 28.32 
" clip-path="url(#pd093b590c6)" style="fill: none; stroke: #b0b0b0; stroke-opacity: 0.22; stroke-width: 0.8; stroke-linecap: square"/>
     </g>
     <g id="line2d_4">
      <g>
       <use xlink:href="#m5c9ca3a063" x="196.150606" y="146.05" style="stroke: #000000; stroke-width: 0.8"/>
      </g>
     </g>
    </g>
    <g id="xtick_3">
     <g id="line2d_5">
      <path d="M 303.820303 146.05 
L 303.820303 28.32 
" clip-path="url(#pd093b590c6)" style="fill: none; stroke: #b0b0b0; stroke-opacity: 0.22; stroke-width: 0.8; stroke-linecap: square"/>
     </g>
     <g id="line2d_6">
      <g>
       <use xlink:href="#m5c9ca3a063" x="303.820303" y="146.05" style="stroke: #000000; stroke-width: 0.8"/>
      </g>
     </g>
    </g>
    <g id="xtick_4">
     <g id="line2d_7">
      <path d="M 411.49 146.05 
L 411.49 28.32 
" clip-path="url(#pd093b590c6)" style="fill: none; stroke: #b0b0b0; stroke-opacity: 0.22; stroke-width: 0.8; stroke-linecap: square"/>
     </g>
     <g id="line2d_8">
      <g>
       <use xlink:href="#m5c9ca3a063" x="411.49" y="146.05" style="stroke: #000000; stroke-width: 0.8"/>
      </g>
     </g>
    </g>
    <g id="xtick_5">
     <g id="line2d_9">
      <path d="M 519.159697 146.05 
L 519.159697 28.32 
" clip-path="url(#pd093b590c6)" style="fill: none; stroke: #b0b0b0; stroke-opacity: 0.22; stroke-width: 0.8; stroke-linecap: square"/>
     </g>
     <g id="line2d_10">
      <g>
       <use xlink:href="#m5c9ca3a063" x="519.159697" y="146.05" style="stroke: #000000; stroke-width: 0.8"/>
      </g>
     </g>
    </g>
    <g id="xtick_6">
     <g id="line2d_11">
      <path d="M 626.829394 146.05 
L 626.829394 28.32 
" clip-path="url(#pd093b590c6)" style="fill: none; stroke: #b0b0b0; stroke-opacity: 0.22; stroke-width: 0.8; stroke-linecap: square"/>
     </g>
     <g id="line2d_12">
      <g>
       <use xlink:href="#m5c9ca3a063" x="626.829394" y="146.05" style="stroke: #000000; stroke-width: 0.8"/>
      </g>
     </g>
    </g>
    <g id="xtick_7">
     <g id="line2d_13">
      <path d="M 734.499091 146.05 
L 734.499091 28.32 
" clip-path="url(#pd093b590c6)" style="fill: none; stroke: #b0b0b0; stroke-opacity: 0.22; stroke-width: 0.8; stroke-linecap: square"/>
     </g>
     <g id="line2d_14">
      <g>
       <use xlink:href="#m5c9ca3a063" x="734.499091" y="146.05" style="stroke: #000000; stroke-width: 0.8"/>
      </g>
     </g>
    </g>
   </g>
   <g id="matplotlib.axis_2">
    <g id="ytick_1">
     <g id="line2d_15">
      <path d="M 56.18 132.968889 
L 766.8 132.968889 
" clip-path="url(#pd093b590c6)" style="fill: none; stroke: #b0b0b0; stroke-opacity: 0.22; stroke-width: 0.8; stroke-linecap: square"/>
     </g>
     <g id="line2d_16">
      <defs>
       <path id="m20a9c40e0d" d="M 0 0 
L -3.5 0 
" style="stroke: #000000; stroke-width: 0.8"/>
      </defs>
      <g>
       <use xlink:href="#m20a9c40e0d" x="56.18" y="132.968889" style="stroke: #000000; stroke-width: 0.8"/>
      </g>
     </g>
     <g id="text_1">
      <!-- 0.0 -->
      <g transform="translate(33.276875 136.768108) scale(0.1 -0.1)">
       <defs>
        <path id="DejaVuSans-30" d="M 2034 4250 
Q 1547 4250 1301 3770 
Q 1056 3291 1056 2328 
Q 1056 1369 1301 889 
Q 1547 409 2034 409 
Q 2525 409 2770 889 
Q 3016 1369 3016 2328 
Q 3016 3291 2770 3770 
Q 2525 4250 2034 4250 
z
M 2034 4750 
Q 2819 4750 3233 4129 
Q 3647 3509 3647 2328 
Q 3647 1150 3233 529 
Q 2819 -91 2034 -91 
Q 1250 -91 836 529 
Q 422 1150 422 2328 
Q 422 3509 836 4129 
Q 1250 4750 2034 4750 
z
" transform="scale(0.015625)"/>
        <path id="DejaVuSans-2e" d="M 684 794 
L 1344 794 
L 1344 0 
L 684 0 
L 684 794 
z
" transform="scale(0.015625)"/>
       </defs>
       <use xlink:href="#DejaVuSans-30"/>
       <use xlink:href="#DejaVuSans-2e" transform="translate(63.623047 0)"/>
       <use xlink:href="#DejaVuSans-30" transform="translate(95.410156 0)"/>
      </g>
     </g>
    </g>
    <g id="ytick_2">
     <g id="line2d_17">
      <path d="M 56.18 89.365185 
L 766.8 89.365185 
" clip-path="url(#pd093b590c6)" style="fill: none; stroke: #b0b0b0; stroke-opacity: 0.22; stroke-width: 0.8; stroke-linecap: square"/>
     </g>
     <g id="line2d_18">
      <g>
       <use xlink:href="#m20a9c40e0d" x="56.18" y="89.365185" style="stroke: #000000; stroke-width: 0.8"/>
      </g>
     </g>
     <g id="text_2">
      <!-- 0.5 -->
      <g transform="translate(33.276875 93.164404) scale(0.1 -0.1)">
       <defs>
        <path id="DejaVuSans-35" d="M 691 4666 
L 3169 4666 
L 3169 4134 
L 1269 4134 
L 1269 2991 
Q 1406 3038 1543 3061 
Q 1681 3084 1819 3084 
Q 2600 3084 3056 2656 
Q 3513 2228 3513 1497 
Q 3513 744 3044 326 
Q 2575 -91 1722 -91 
Q 1428 -91 1123 -41 
Q 819 9 494 109 
L 494 744 
Q 775 591 1075 516 
Q 1375 441 1709 441 
Q 2250 441 2565 725 
Q 2881 1009 2881 1497 
Q 2881 1984 2565 2268 
Q 2250 2553 1709 2553 
Q 1456 2553 1204 2497 
Q 953 2441 691 2322 
L 691 4666 
z
" transform="scale(0.015625)"/>
       </defs>
       <use xlink:href="#DejaVuSans-30"/>
       <use xlink:href="#DejaVuSans-2e" transform="translate(63.623047 0)"/>
       <use xlink:href="#DejaVuSans-35" transform="translate(95.410156 0)"/>
      </g>
     </g>
    </g>
    <g id="ytick_3">
     <g id="line2d_19">
      <path d="M 56.18 45.761481 
L 766.8 45.761481 
" clip-path="url(#pd093b590c6)" style="fill: none; stroke: #b0b0b0; stroke-opacity: 0.22; stroke-width: 0.8; stroke-linecap: square"/>
     </g>
     <g id="line2d_20">
      <g>
       <use xlink:href="#m20a9c40e0d" x="56.18" y="45.761481" style="stroke: #000000; stroke-width: 0.8"/>
      </g>
     </g>
     <g id="text_3">
      <!-- 1.0 -->
      <g transform="translate(33.276875 49.5607) scale(0.1 -0.1)">
       <defs>
        <path id="DejaVuSans-31" d="M 794 531 
L 1825 531 
L 1825 4091 
L 703 3866 
L 703 4441 
L 1819 4666 
L 2450 4666 
L 2450 531 
L 3481 531 
L 3481 0 
L 794 0 
L 794 531 
z
" transform="scale(0.015625)"/>
       </defs>
       <use xlink:href="#DejaVuSans-31"/>
       <use xlink:href="#DejaVuSans-2e" transform="translate(63.623047 0)"/>
       <use xlink:href="#DejaVuSans-30" transform="translate(95.410156 0)"/>
      </g>
     </g>
    </g>
    <g id="text_4">
     <!-- Amplitude -->
     <g transform="translate(27.197188 112.807656) rotate(-90) scale(0.1 -0.1)">
      <defs>
       <path id="DejaVuSans-41" d="M 2188 4044 
L 1331 1722 
L 3047 1722 
L 2188 4044 
z
M 1831 4666 
L 2547 4666 
L 4325 0 
L 3669 0 
L 3244 1197 
L 1141 1197 
L 716 0 
L 50 0 
L 1831 4666 
z
" transform="scale(0.015625)"/>
       <path id="DejaVuSans-6d" d="M 3328 2828 
Q 3544 3216 3844 3400 
Q 4144 3584 4550 3584 
Q 5097 3584 5394 3201 
Q 5691 2819 5691 2113 
L 5691 0 
L 5113 0 
L 5113 2094 
Q 5113 2597 4934 2840 
Q 4756 3084 4391 3084 
Q 3944 3084 3684 2787 
Q 3425 2491 3425 1978 
L 3425 0 
L 2847 0 
L 2847 2094 
Q 2847 2600 2669 2842 
Q 2491 3084 2119 3084 
Q 1678 3084 1418 2786 
Q 1159 2488 1159 1978 
L 1159 0 
L 581 0 
L 581 3500 
L 1159 3500 
L 1159 2956 
Q 1356 3278 1631 3431 
Q 1906 3584 2284 3584 
Q 2666 3584 2933 3390 
Q 3200 3197 3328 2828 
z
" transform="scale(0.015625)"/>
       <path id="DejaVuSans-70" d="M 1159 525 
L 1159 -1331 
L 581 -1331 
L 581 3500 
L 1159 3500 
L 1159 2969 
Q 1341 3281 1617 3432 
Q 1894 3584 2278 3584 
Q 2916 3584 3314 3078 
Q 3713 2572 3713 1747 
Q 3713 922 3314 415 
Q 2916 -91 2278 -91 
Q 1894 -91 1617 61 
Q 1341 213 1159 525 
z
M 3116 1747 
Q 3116 2381 2855 2742 
Q 2594 3103 2138 3103 
Q 1681 3103 1420 2742 
Q 1159 2381 1159 1747 
Q 1159 1113 1420 752 
Q 1681 391 2138 391 
Q 2594 391 2855 752 
Q 3116 1113 3116 1747 
z
" transform="scale(0.015625)"/>
       <path id="DejaVuSans-6c" d="M 603 4863 
L 1178 4863 
L 1178 0 
L 603 0 
L 603 4863 
z
" transform="scale(0.015625)"/>
       <path id="DejaVuSans-69" d="M 603 3500 
L 1178 3500 
L 1178 0 
L 603 0 
L 603 3500 
z
M 603 4863 
L 1178 4863 
L 1178 4134 
L 603 4134 
L 603 4863 
z
" transform="scale(0.015625)"/>
       <path id="DejaVuSans-74" d="M 1172 4494 
L 1172 3500 
L 2356 3500 
L 2356 3053 
L 1172 3053 
L 1172 1153 
Q 1172 725 1289 603 
Q 1406 481 1766 481 
L 2356 481 
L 2356 0 
L 1766 0 
Q 1100 0 847 248 
Q 594 497 594 1153 
L 594 3053 
L 172 3053 
L 172 3500 
L 594 3500 
L 594 4494 
L 1172 4494 
z
" transform="scale(0.015625)"/>
       <path id="DejaVuSans-75" d="M 544 1381 
L 544 3500 
L 1119 3500 
L 1119 1403 
Q 1119 906 1312 657 
Q 1506 409 1894 409 
Q 2359 409 2629 706 
Q 2900 1003 2900 1516 
L 2900 3500 
L 3475 3500 
L 3475 0 
L 2900 0 
L 2900 538 
Q 2691 219 2414 64 
Q 2138 -91 1772 -91 
Q 1169 -91 856 284 
Q 544 659 544 1381 
z
M 1991 3584 
L 1991 3584 
z
" transform="scale(0.015625)"/>
       <path id="DejaVuSans-64" d="M 2906 2969 
L 2906 4863 
L 3481 4863 
L 3481 0 
L 2906 0 
L 2906 525 
Q 2725 213 2448 61 
Q 2172 -91 1784 -91 
Q 1150 -91 751 415 
Q 353 922 353 1747 
Q 353 2572 751 3078 
Q 1150 3584 1784 3584 
Q 2172 3584 2448 3432 
Q 2725 3281 2906 2969 
z
M 947 1747 
Q 947 1113 1208 752 
Q 1469 391 1925 391 
Q 2381 391 2643 752 
Q 2906 1113 2906 1747 
Q 2906 2381 2643 2742 
Q 2381 3103 1925 3103 
Q 1469 3103 1208 2742 
Q 947 2381 947 1747 
z
" transform="scale(0.015625)"/>
       <path id="DejaVuSans-65" d="M 3597 1894 
L 3597 1613 
L 953 1613 
Q 991 1019 1311 708 
Q 1631 397 2203 397 
Q 2534 397 2845 478 
Q 3156 559 3463 722 
L 3463 178 
Q 3153 47 2828 -22 
Q 2503 -91 2169 -91 
Q 1331 -91 842 396 
Q 353 884 353 1716 
Q 353 2575 817 3079 
Q 1281 3584 2069 3584 
Q 2775 3584 3186 3129 
Q 3597 2675 3597 1894 
z
M 3022 2063 
Q 3016 2534 2758 2815 
Q 2500 3097 2075 3097 
Q 1594 3097 1305 2825 
Q 1016 2553 972 2059 
L 3022 2063 
z
" transform="scale(0.015625)"/>
      </defs>
      <use xlink:href="#DejaVuSans-41"/>
      <use xlink:href="#DejaVuSans-6d" transform="translate(68.408203 0)"/>
      <use xlink:href="#DejaVuSans-70" transform="translate(165.820312 0)"/>
      <use xlink:href="#DejaVuSans-6c" transform="translate(229.296875 0)"/>
      <use xlink:href="#DejaVuSans-69" transform="translate(257.080078 0)"/>
      <use xlink:href="#DejaVuSans-74" transform="translate(284.863281 0)"/>
      <use xlink:href="#DejaVuSans-75" transform="translate(324.072266 0)"/>
      <use xlink:href="#DejaVuSans-64" transform="translate(387.451172 0)"/>
      <use xlink:href="#DejaVuSans-65" transform="translate(450.927734 0)"/>
     </g>
    </g>
   </g>
   <g id="line2d_21">
    <path d="M 88.480909 132.968889 
L 133.326449 132.858909 
L 135.750532 132.630776 
L 137.366588 132.255859 
L 138.578629 131.724729 
L 139.386657 131.169909 
L 140.194685 130.375138 
L 141.002712 129.244556 
L 141.81074 127.652133 
L 142.618768 125.440237 
L 143.426796 122.426604 
L 144.234823 118.426811 
L 145.042851 113.298835 
L 146.254893 103.463743 
L 147.870948 87.627684 
L 149.487004 72.237775 
L 150.699045 63.108778 
L 151.507073 58.472378 
L 152.315101 54.91282 
L 153.123129 52.263085 
L 153.931156 50.33561 
L 154.739184 48.956933 
L 155.547212 47.98263 
L 156.35524 47.299955 
L 157.567281 46.644473 
L 158.779323 46.26662 
L 160.395378 46.000711 
L 163.223475 45.825946 
L 169.283684 45.765349 
L 239.178083 45.761481 
L 321.596913 45.863998 
L 324.020997 46.076706 
L 325.637052 46.426439 
L 326.849094 46.92224 
L 327.657121 47.440594 
L 328.465149 48.183912 
L 329.273177 49.24289 
L 330.081205 50.737636 
L 330.889232 52.820047 
L 331.69726 55.668909 
L 332.505288 59.470906 
L 333.313316 64.380496 
L 334.121343 70.457523 
L 335.333385 81.476691 
L 338.161482 108.603621 
L 339.373524 117.193808 
L 340.181552 121.479113 
L 340.989579 124.734507 
L 341.797607 127.138572 
L 342.605635 128.877126 
L 343.413663 130.115435 
L 344.22169 130.987921 
L 345.029718 131.597967 
L 346.24176 132.182716 
L 347.453801 132.519355 
L 349.473871 132.792398 
L 352.705982 132.929483 
L 361.594287 132.968253 
L 734.499091 132.968889 
L 734.499091 132.968889 
" clip-path="url(#pd093b590c6)" style="fill: none; stroke: #1d4ed8; stroke-width: 2; stroke-linecap: square"/>
   </g>
   <g id="line2d_22">
    <path d="M 88.480909 132.968889 
L 189.484377 132.867597 
L 193.120502 132.62532 
L 195.140571 132.295382 
L 196.756627 131.821742 
L 197.968668 131.268416 
L 199.18071 130.467014 
L 200.392752 129.327304 
L 201.604793 127.747843 
L 202.816835 125.635623 
L 204.028877 122.941713 
L 205.240918 119.706228 
L 207.665001 112.35608 
L 209.281057 107.711019 
L 210.493099 104.770803 
L 211.70514 102.408331 
L 212.917182 100.607832 
L 214.129223 99.290151 
L 215.341265 98.35416 
L 216.553307 97.703297 
L 218.169362 97.143145 
L 220.189431 96.751285 
L 223.017529 96.50043 
L 227.461681 96.377264 
L 240.390125 96.342229 
L 377.350828 96.425781 
L 380.986953 96.627031 
L 383.411036 96.982277 
L 385.027091 97.433409 
L 386.239133 97.961179 
L 387.451175 98.726983 
L 388.663216 99.81896 
L 389.875258 101.337916 
L 391.087299 103.379536 
L 392.299341 106.000684 
L 393.511383 109.174668 
L 395.531452 115.248606 
L 397.551521 121.194638 
L 398.763563 124.203244 
L 399.975605 126.638885 
L 401.187646 128.506155 
L 402.399688 129.878785 
L 403.611729 130.856948 
L 404.823771 131.538681 
L 406.439827 132.126417 
L 408.459896 132.538136 
L 410.883979 132.777666 
L 414.924118 132.919839 
L 425.024465 132.967268 
L 645.212025 132.968889 
L 734.499091 132.968889 
L 734.499091 132.968889 
" clip-path="url(#pd093b590c6)" style="fill: none; stroke-dasharray: 6.66,2.88; stroke-dashoffset: 0; stroke: #16a34a; stroke-width: 1.8"/>
   </g>
   <g id="line2d_23">
    <path d="M 88.480909 132.968889 
L 195.544585 132.864929 
L 200.392752 132.625172 
L 203.220849 132.281334 
L 205.240918 131.845219 
L 206.856974 131.310927 
L 208.473029 130.535543 
L 209.685071 129.739928 
L 210.897112 128.708063 
L 212.109154 127.386808 
L 213.321196 125.722447 
L 214.533237 123.668539 
L 215.745279 121.197251 
L 217.361334 117.266254 
L 219.381404 111.544041 
L 223.421542 99.755531 
L 225.037598 95.837461 
L 226.24964 93.376718 
L 227.461681 91.332992 
L 228.673723 89.677825 
L 229.885764 88.364471 
L 231.097806 87.339145 
L 232.309848 86.548794 
L 233.925903 85.778724 
L 235.541959 85.248201 
L 237.562028 84.815227 
L 240.390125 84.473906 
L 244.430264 84.258727 
L 251.702514 84.153588 
L 278.367429 84.132769 
L 386.643147 84.236312 
L 391.491313 84.47518 
L 394.31941 84.817757 
L 396.33948 85.252299 
L 397.955535 85.784703 
L 399.571591 86.557426 
L 400.783632 87.350405 
L 401.995674 88.378996 
L 403.207716 89.696296 
L 404.419757 91.356057 
L 405.631799 93.404872 
L 406.84384 95.870887 
L 408.459896 99.795427 
L 410.479965 105.512475 
L 414.520104 117.306203 
L 416.13616 121.230743 
L 417.348201 123.696758 
L 418.560243 125.745573 
L 419.772284 127.405333 
L 420.984326 128.722633 
L 422.196368 129.751225 
L 423.408409 130.544204 
L 425.024465 131.316927 
L 426.64052 131.849331 
L 428.66059 132.283873 
L 431.488687 132.62645 
L 435.528825 132.842431 
L 442.801075 132.947964 
L 469.465991 132.968861 
L 734.499091 132.968889 
L 734.499091 132.968889 
" clip-path="url(#pd093b590c6)" style="fill: none; stroke: #b91c1c; stroke-width: 1.8; stroke-linecap: square"/>
   </g>
   <g id="patch_3">
    <path d="M 56.18 146.05 
L 56.18 28.32 
" style="fill: none; stroke: #000000; stroke-width: 0.8; stroke-linejoin: miter; stroke-linecap: square"/>
   </g>
   <g id="patch_4">
    <path d="M 766.8 146.05 
L 766.8 28.32 
" style="fill: none; stroke: #000000; stroke-width: 0.8; stroke-linejoin: miter; stroke-linecap: square"/>
   </g>
   <g id="patch_5">
    <path d="M 56.18 146.05 
L 766.8 146.05 
" style="fill: none; stroke: #000000; stroke-width: 0.8; stroke-linejoin: miter; stroke-linecap: square"/>
   </g>
   <g id="patch_6">
    <path d="M 56.18 28.32 
L 766.8 28.32 
" style="fill: none; stroke: #000000; stroke-width: 0.8; stroke-linejoin: miter; stroke-linecap: square"/>
   </g>
   <g id="text_5">
    <!-- ZL real diferente da impedância de referência -->
    <g transform="translate(250.912188 22.32) scale(0.14 -0.14)">
     <defs>
      <path id="DejaVuSans-5a" d="M 359 4666 
L 4025 4666 
L 4025 4184 
L 1075 531 
L 4097 531 
L 4097 0 
L 288 0 
L 288 481 
L 3238 4134 
L 359 4134 
L 359 4666 
z
" transform="scale(0.015625)"/>
      <path id="DejaVuSans-4c" d="M 628 4666 
L 1259 4666 
L 1259 531 
L 3531 531 
L 3531 0 
L 628 0 
L 628 4666 
z
" transform="scale(0.015625)"/>
      <path id="DejaVuSans-20" transform="scale(0.015625)"/>
      <path id="DejaVuSans-72" d="M 2631 2963 
Q 2534 3019 2420 3045 
Q 2306 3072 2169 3072 
Q 1681 3072 1420 2755 
Q 1159 2438 1159 1844 
L 1159 0 
L 581 0 
L 581 3500 
L 1159 3500 
L 1159 2956 
Q 1341 3275 1631 3429 
Q 1922 3584 2338 3584 
Q 2397 3584 2469 3576 
Q 2541 3569 2628 3553 
L 2631 2963 
z
" transform="scale(0.015625)"/>
      <path id="DejaVuSans-61" d="M 2194 1759 
Q 1497 1759 1228 1600 
Q 959 1441 959 1056 
Q 959 750 1161 570 
Q 1363 391 1709 391 
Q 2188 391 2477 730 
Q 2766 1069 2766 1631 
L 2766 1759 
L 2194 1759 
z
M 3341 1997 
L 3341 0 
L 2766 0 
L 2766 531 
Q 2569 213 2275 61 
Q 1981 -91 1556 -91 
Q 1019 -91 701 211 
Q 384 513 384 1019 
Q 384 1609 779 1909 
Q 1175 2209 1959 2209 
L 2766 2209 
L 2766 2266 
Q 2766 2663 2505 2880 
Q 2244 3097 1772 3097 
Q 1472 3097 1187 3025 
Q 903 2953 641 2809 
L 641 3341 
Q 956 3463 1253 3523 
Q 1550 3584 1831 3584 
Q 2591 3584 2966 3190 
Q 3341 2797 3341 1997 
z
" transform="scale(0.015625)"/>
      <path id="DejaVuSans-66" d="M 2375 4863 
L 2375 4384 
L 1825 4384 
Q 1516 4384 1395 4259 
Q 1275 4134 1275 3809 
L 1275 3500 
L 2222 3500 
L 2222 3053 
L 1275 3053 
L 1275 0 
L 697 0 
L 697 3053 
L 147 3053 
L 147 3500 
L 697 3500 
L 697 3744 
Q 697 4328 969 4595 
Q 1241 4863 1831 4863 
L 2375 4863 
z
" transform="scale(0.015625)"/>
      <path id="DejaVuSans-6e" d="M 3513 2113 
L 3513 0 
L 2938 0 
L 2938 2094 
Q 2938 2591 2744 2837 
Q 2550 3084 2163 3084 
Q 1697 3084 1428 2787 
Q 1159 2491 1159 1978 
L 1159 0 
L 581 0 
L 581 3500 
L 1159 3500 
L 1159 2956 
Q 1366 3272 1645 3428 
Q 1925 3584 2291 3584 
Q 2894 3584 3203 3211 
Q 3513 2838 3513 2113 
z
" transform="scale(0.015625)"/>
      <path id="DejaVuSans-e2" d="M 2194 1759 
Q 1497 1759 1228 1600 
Q 959 1441 959 1056 
Q 959 750 1161 570 
Q 1363 391 1709 391 
Q 2188 391 2477 730 
Q 2766 1069 2766 1631 
L 2766 1759 
L 2194 1759 
z
M 3341 1997 
L 3341 0 
L 2766 0 
L 2766 531 
Q 2569 213 2275 61 
Q 1981 -91 1556 -91 
Q 1019 -91 701 211 
Q 384 513 384 1019 
Q 384 1609 779 1909 
Q 1175 2209 1959 2209 
L 2766 2209 
L 2766 2266 
Q 2766 2663 2505 2880 
Q 2244 3097 1772 3097 
Q 1472 3097 1187 3025 
Q 903 2953 641 2809 
L 641 3341 
Q 956 3463 1253 3523 
Q 1550 3584 1831 3584 
Q 2591 3584 2966 3190 
Q 3341 2797 3341 1997 
z
M 1625 5119 
L 2088 5119 
L 2853 3944 
L 2419 3944 
L 1856 4709 
L 1294 3944 
L 859 3944 
L 1625 5119 
z
" transform="scale(0.015625)"/>
      <path id="DejaVuSans-63" d="M 3122 3366 
L 3122 2828 
Q 2878 2963 2633 3030 
Q 2388 3097 2138 3097 
Q 1578 3097 1268 2742 
Q 959 2388 959 1747 
Q 959 1106 1268 751 
Q 1578 397 2138 397 
Q 2388 397 2633 464 
Q 2878 531 3122 666 
L 3122 134 
Q 2881 22 2623 -34 
Q 2366 -91 2075 -91 
Q 1284 -91 818 406 
Q 353 903 353 1747 
Q 353 2603 823 3093 
Q 1294 3584 2113 3584 
Q 2378 3584 2631 3529 
Q 2884 3475 3122 3366 
z
" transform="scale(0.015625)"/>
      <path id="DejaVuSans-ea" d="M 3597 1894 
L 3597 1613 
L 953 1613 
Q 991 1019 1311 708 
Q 1631 397 2203 397 
Q 2534 397 2845 478 
Q 3156 559 3463 722 
L 3463 178 
Q 3153 47 2828 -22 
Q 2503 -91 2169 -91 
Q 1331 -91 842 396 
Q 353 884 353 1716 
Q 353 2575 817 3079 
Q 1281 3584 2069 3584 
Q 2775 3584 3186 3129 
Q 3597 2675 3597 1894 
z
M 3022 2063 
Q 3016 2534 2758 2815 
Q 2500 3097 2075 3097 
Q 1594 3097 1305 2825 
Q 1016 2553 972 2059 
L 3022 2063 
z
M 1803 5119 
L 2266 5119 
L 3031 3944 
L 2597 3944 
L 2034 4709 
L 1472 3944 
L 1038 3944 
L 1803 5119 
z
" transform="scale(0.015625)"/>
     </defs>
     <use xlink:href="#DejaVuSans-5a"/>
     <use xlink:href="#DejaVuSans-4c" transform="translate(68.505859 0)"/>
     <use xlink:href="#DejaVuSans-20" transform="translate(124.21875 0)"/>
     <use xlink:href="#DejaVuSans-72" transform="translate(156.005859 0)"/>
     <use xlink:href="#DejaVuSans-65" transform="translate(194.869141 0)"/>
     <use xlink:href="#DejaVuSans-61" transform="translate(256.392578 0)"/>
     <use xlink:href="#DejaVuSans-6c" transform="translate(317.671875 0)"/>
     <use xlink:href="#DejaVuSans-20" transform="translate(345.455078 0)"/>
     <use xlink:href="#DejaVuSans-64" transform="translate(377.242188 0)"/>
     <use xlink:href="#DejaVuSans-69" transform="translate(440.71875 0)"/>
     <use xlink:href="#DejaVuSans-66" transform="translate(468.501953 0)"/>
     <use xlink:href="#DejaVuSans-65" transform="translate(503.707031 0)"/>
     <use xlink:href="#DejaVuSans-72" transform="translate(565.230469 0)"/>
     <use xlink:href="#DejaVuSans-65" transform="translate(604.09375 0)"/>
     <use xlink:href="#DejaVuSans-6e" transform="translate(665.617188 0)"/>
     <use xlink:href="#DejaVuSans-74" transform="translate(728.996094 0)"/>
     <use xlink:href="#DejaVuSans-65" transform="translate(768.205078 0)"/>
     <use xlink:href="#DejaVuSans-20" transform="translate(829.728516 0)"/>
     <use xlink:href="#DejaVuSans-64" transform="translate(861.515625 0)"/>
     <use xlink:href="#DejaVuSans-61" transform="translate(924.992188 0)"/>
     <use xlink:href="#DejaVuSans-20" transform="translate(986.271484 0)"/>
     <use xlink:href="#DejaVuSans-69" transform="translate(1018.058594 0)"/>
     <use xlink:href="#DejaVuSans-6d" transform="translate(1045.841797 0)"/>
     <use xlink:href="#DejaVuSans-70" transform="translate(1143.253906 0)"/>
     <use xlink:href="#DejaVuSans-65" transform="translate(1206.730469 0)"/>
     <use xlink:href="#DejaVuSans-64" transform="translate(1268.253906 0)"/>
     <use xlink:href="#DejaVuSans-e2" transform="translate(1331.730469 0)"/>
     <use xlink:href="#DejaVuSans-6e" transform="translate(1393.009766 0)"/>
     <use xlink:href="#DejaVuSans-63" transform="translate(1456.388672 0)"/>
     <use xlink:href="#DejaVuSans-69" transform="translate(1511.369141 0)"/>
     <use xlink:href="#DejaVuSans-61" transform="translate(1539.152344 0)"/>
     <use xlink:href="#DejaVuSans-20" transform="translate(1600.431641 0)"/>
     <use xlink:href="#DejaVuSans-64" transform="translate(1632.21875 0)"/>
     <use xlink:href="#DejaVuSans-65" transform="translate(1695.695312 0)"/>
     <use xlink:href="#DejaVuSans-20" transform="translate(1757.21875 0)"/>
     <use xlink:href="#DejaVuSans-72" transform="translate(1789.005859 0)"/>
     <use xlink:href="#DejaVuSans-65" transform="translate(1827.869141 0)"/>
     <use xlink:href="#DejaVuSans-66" transform="translate(1889.392578 0)"/>
     <use xlink:href="#DejaVuSans-65" transform="translate(1924.597656 0)"/>
     <use xlink:href="#DejaVuSans-72" transform="translate(1986.121094 0)"/>
     <use xlink:href="#DejaVuSans-ea" transform="translate(2024.984375 0)"/>
     <use xlink:href="#DejaVuSans-6e" transform="translate(2086.507812 0)"/>
     <use xlink:href="#DejaVuSans-63" transform="translate(2149.886719 0)"/>
     <use xlink:href="#DejaVuSans-69" transform="translate(2204.867188 0)"/>
     <use xlink:href="#DejaVuSans-61" transform="translate(2232.650391 0)"/>
    </g>
   </g>
   <g id="legend_1">
    <g id="line2d_24">
     <path d="M 475.164844 40.108594 
L 484.164844 40.108594 
L 493.164844 40.108594 
" style="fill: none; stroke: #1d4ed8; stroke-width: 2; stroke-linecap: square"/>
    </g>
    <g id="text_6">
     <!-- sinal transmitido -->
     <g transform="translate(500.364844 43.258594) scale(0.09 -0.09)">
      <defs>
       <path id="DejaVuSans-73" d="M 2834 3397 
L 2834 2853 
Q 2591 2978 2328 3040 
Q 2066 3103 1784 3103 
Q 1356 3103 1142 2972 
Q 928 2841 928 2578 
Q 928 2378 1081 2264 
Q 1234 2150 1697 2047 
L 1894 2003 
Q 2506 1872 2764 1633 
Q 3022 1394 3022 966 
Q 3022 478 2636 193 
Q 2250 -91 1575 -91 
Q 1294 -91 989 -36 
Q 684 19 347 128 
L 347 722 
Q 666 556 975 473 
Q 1284 391 1588 391 
Q 1994 391 2212 530 
Q 2431 669 2431 922 
Q 2431 1156 2273 1281 
Q 2116 1406 1581 1522 
L 1381 1569 
Q 847 1681 609 1914 
Q 372 2147 372 2553 
Q 372 3047 722 3315 
Q 1072 3584 1716 3584 
Q 2034 3584 2315 3537 
Q 2597 3491 2834 3397 
z
" transform="scale(0.015625)"/>
       <path id="DejaVuSans-6f" d="M 1959 3097 
Q 1497 3097 1228 2736 
Q 959 2375 959 1747 
Q 959 1119 1226 758 
Q 1494 397 1959 397 
Q 2419 397 2687 759 
Q 2956 1122 2956 1747 
Q 2956 2369 2687 2733 
Q 2419 3097 1959 3097 
z
M 1959 3584 
Q 2709 3584 3137 3096 
Q 3566 2609 3566 1747 
Q 3566 888 3137 398 
Q 2709 -91 1959 -91 
Q 1206 -91 779 398 
Q 353 888 353 1747 
Q 353 2609 779 3096 
Q 1206 3584 1959 3584 
z
" transform="scale(0.015625)"/>
      </defs>
      <use xlink:href="#DejaVuSans-73"/>
      <use xlink:href="#DejaVuSans-69" transform="translate(52.099609 0)"/>
      <use xlink:href="#DejaVuSans-6e" transform="translate(79.882812 0)"/>
      <use xlink:href="#DejaVuSans-61" transform="translate(143.261719 0)"/>
      <use xlink:href="#DejaVuSans-6c" transform="translate(204.541016 0)"/>
      <use xlink:href="#DejaVuSans-20" transform="translate(232.324219 0)"/>
      <use xlink:href="#DejaVuSans-74" transform="translate(264.111328 0)"/>
      <use xlink:href="#DejaVuSans-72" transform="translate(303.320312 0)"/>
      <use xlink:href="#DejaVuSans-61" transform="translate(344.433594 0)"/>
      <use xlink:href="#DejaVuSans-6e" transform="translate(405.712891 0)"/>
      <use xlink:href="#DejaVuSans-73" transform="translate(469.091797 0)"/>
      <use xlink:href="#DejaVuSans-6d" transform="translate(521.191406 0)"/>
      <use xlink:href="#DejaVuSans-69" transform="translate(618.603516 0)"/>
      <use xlink:href="#DejaVuSans-74" transform="translate(646.386719 0)"/>
      <use xlink:href="#DejaVuSans-69" transform="translate(685.595703 0)"/>
      <use xlink:href="#DejaVuSans-64" transform="translate(713.378906 0)"/>
      <use xlink:href="#DejaVuSans-6f" transform="translate(776.855469 0)"/>
     </g>
    </g>
    <g id="line2d_25">
     <path d="M 593.784844 40.108594 
L 602.784844 40.108594 
L 611.784844 40.108594 
" style="fill: none; stroke-dasharray: 6.66,2.88; stroke-dashoffset: 0; stroke: #16a34a; stroke-width: 1.8"/>
    </g>
    <g id="text_7">
     <!-- eco estimado -->
     <g transform="translate(618.984844 43.258594) scale(0.09 -0.09)">
      <use xlink:href="#DejaVuSans-65"/>
      <use xlink:href="#DejaVuSans-63" transform="translate(61.523438 0)"/>
      <use xlink:href="#DejaVuSans-6f" transform="translate(116.503906 0)"/>
      <use xlink:href="#DejaVuSans-20" transform="translate(177.685547 0)"/>
      <use xlink:href="#DejaVuSans-65" transform="translate(209.472656 0)"/>
      <use xlink:href="#DejaVuSans-73" transform="translate(270.996094 0)"/>
      <use xlink:href="#DejaVuSans-74" transform="translate(323.095703 0)"/>
      <use xlink:href="#DejaVuSans-69" transform="translate(362.304688 0)"/>
      <use xlink:href="#DejaVuSans-6d" transform="translate(390.087891 0)"/>
      <use xlink:href="#DejaVuSans-61" transform="translate(487.5 0)"/>
      <use xlink:href="#DejaVuSans-64" transform="translate(548.779297 0)"/>
      <use xlink:href="#DejaVuSans-6f" transform="translate(612.255859 0)"/>
     </g>
    </g>
    <g id="line2d_26">
     <path d="M 697.595625 40.108594 
L 706.595625 40.108594 
L 715.595625 40.108594 
" style="fill: none; stroke: #b91c1c; stroke-width: 1.8; stroke-linecap: square"/>
    </g>
    <g id="text_8">
     <!-- eco real -->
     <g transform="translate(722.795625 43.258594) scale(0.09 -0.09)">
      <use xlink:href="#DejaVuSans-65"/>
      <use xlink:href="#DejaVuSans-63" transform="translate(61.523438 0)"/>
      <use xlink:href="#DejaVuSans-6f" transform="translate(116.503906 0)"/>
      <use xlink:href="#DejaVuSans-20" transform="translate(177.685547 0)"/>
      <use xlink:href="#DejaVuSans-72" transform="translate(209.472656 0)"/>
      <use xlink:href="#DejaVuSans-65" transform="translate(248.335938 0)"/>
      <use xlink:href="#DejaVuSans-61" transform="translate(309.859375 0)"/>
      <use xlink:href="#DejaVuSans-6c" transform="translate(371.138672 0)"/>
     </g>
    </g>
   </g>
  </g>
  <g id="axes_2">
   <g id="patch_7">
    <path d="M 56.18 282.04 
L 766.8 282.04 
L 766.8 164.31 
L 56.18 164.31 
z
" style="fill: #ffffff"/>
   </g>
   <g id="matplotlib.axis_3">
    <g id="xtick_8">
     <g id="line2d_27">
      <path d="M 88.480909 282.04 
L 88.480909 164.31 
" clip-path="url(#p2e12cb514d)" style="fill: none; stroke: #b0b0b0; stroke-opacity: 0.22; stroke-width: 0.8; stroke-linecap: square"/>
     </g>
     <g id="line2d_28">
      <g>
       <use xlink:href="#m5c9ca3a063" x="88.480909" y="282.04" style="stroke: #000000; stroke-width: 0.8"/>
      </g>
     </g>
     <g id="text_9">
      <!-- 0 -->
      <g transform="translate(85.299659 296.638438) scale(0.1 -0.1)">
       <use xlink:href="#DejaVuSans-30"/>
      </g>
     </g>
    </g>
    <g id="xtick_9">
     <g id="line2d_29">
      <path d="M 196.150606 282.04 
L 196.150606 164.31 
" clip-path="url(#p2e12cb514d)" style="fill: none; stroke: #b0b0b0; stroke-opacity: 0.22; stroke-width: 0.8; stroke-linecap: square"/>
     </g>
     <g id="line2d_30">
      <g>
       <use xlink:href="#m5c9ca3a063" x="196.150606" y="282.04" style="stroke: #000000; stroke-width: 0.8"/>
      </g>
     </g>
     <g id="text_10">
      <!-- 2 -->
      <g transform="translate(192.969356 296.638438) scale(0.1 -0.1)">
       <defs>
        <path id="DejaVuSans-32" d="M 1228 531 
L 3431 531 
L 3431 0 
L 469 0 
L 469 531 
Q 828 903 1448 1529 
Q 2069 2156 2228 2338 
Q 2531 2678 2651 2914 
Q 2772 3150 2772 3378 
Q 2772 3750 2511 3984 
Q 2250 4219 1831 4219 
Q 1534 4219 1204 4116 
Q 875 4013 500 3803 
L 500 4441 
Q 881 4594 1212 4672 
Q 1544 4750 1819 4750 
Q 2544 4750 2975 4387 
Q 3406 4025 3406 3419 
Q 3406 3131 3298 2873 
Q 3191 2616 2906 2266 
Q 2828 2175 2409 1742 
Q 1991 1309 1228 531 
z
" transform="scale(0.015625)"/>
       </defs>
       <use xlink:href="#DejaVuSans-32"/>
      </g>
     </g>
    </g>
    <g id="xtick_10">
     <g id="line2d_31">
      <path d="M 303.820303 282.04 
L 303.820303 164.31 
" clip-path="url(#p2e12cb514d)" style="fill: none; stroke: #b0b0b0; stroke-opacity: 0.22; stroke-width: 0.8; stroke-linecap: square"/>
     </g>
     <g id="line2d_32">
      <g>
       <use xlink:href="#m5c9ca3a063" x="303.820303" y="282.04" style="stroke: #000000; stroke-width: 0.8"/>
      </g>
     </g>
     <g id="text_11">
      <!-- 4 -->
      <g transform="translate(300.639053 296.638438) scale(0.1 -0.1)">
       <defs>
        <path id="DejaVuSans-34" d="M 2419 4116 
L 825 1625 
L 2419 1625 
L 2419 4116 
z
M 2253 4666 
L 3047 4666 
L 3047 1625 
L 3713 1625 
L 3713 1100 
L 3047 1100 
L 3047 0 
L 2419 0 
L 2419 1100 
L 313 1100 
L 313 1709 
L 2253 4666 
z
" transform="scale(0.015625)"/>
       </defs>
       <use xlink:href="#DejaVuSans-34"/>
      </g>
     </g>
    </g>
    <g id="xtick_11">
     <g id="line2d_33">
      <path d="M 411.49 282.04 
L 411.49 164.31 
" clip-path="url(#p2e12cb514d)" style="fill: none; stroke: #b0b0b0; stroke-opacity: 0.22; stroke-width: 0.8; stroke-linecap: square"/>
     </g>
     <g id="line2d_34">
      <g>
       <use xlink:href="#m5c9ca3a063" x="411.49" y="282.04" style="stroke: #000000; stroke-width: 0.8"/>
      </g>
     </g>
     <g id="text_12">
      <!-- 6 -->
      <g transform="translate(408.30875 296.638438) scale(0.1 -0.1)">
       <defs>
        <path id="DejaVuSans-36" d="M 2113 2584 
Q 1688 2584 1439 2293 
Q 1191 2003 1191 1497 
Q 1191 994 1439 701 
Q 1688 409 2113 409 
Q 2538 409 2786 701 
Q 3034 994 3034 1497 
Q 3034 2003 2786 2293 
Q 2538 2584 2113 2584 
z
M 3366 4563 
L 3366 3988 
Q 3128 4100 2886 4159 
Q 2644 4219 2406 4219 
Q 1781 4219 1451 3797 
Q 1122 3375 1075 2522 
Q 1259 2794 1537 2939 
Q 1816 3084 2150 3084 
Q 2853 3084 3261 2657 
Q 3669 2231 3669 1497 
Q 3669 778 3244 343 
Q 2819 -91 2113 -91 
Q 1303 -91 875 529 
Q 447 1150 447 2328 
Q 447 3434 972 4092 
Q 1497 4750 2381 4750 
Q 2619 4750 2861 4703 
Q 3103 4656 3366 4563 
z
" transform="scale(0.015625)"/>
       </defs>
       <use xlink:href="#DejaVuSans-36"/>
      </g>
     </g>
    </g>
    <g id="xtick_12">
     <g id="line2d_35">
      <path d="M 519.159697 282.04 
L 519.159697 164.31 
" clip-path="url(#p2e12cb514d)" style="fill: none; stroke: #b0b0b0; stroke-opacity: 0.22; stroke-width: 0.8; stroke-linecap: square"/>
     </g>
     <g id="line2d_36">
      <g>
       <use xlink:href="#m5c9ca3a063" x="519.159697" y="282.04" style="stroke: #000000; stroke-width: 0.8"/>
      </g>
     </g>
     <g id="text_13">
      <!-- 8 -->
      <g transform="translate(515.978447 296.638438) scale(0.1 -0.1)">
       <defs>
        <path id="DejaVuSans-38" d="M 2034 2216 
Q 1584 2216 1326 1975 
Q 1069 1734 1069 1313 
Q 1069 891 1326 650 
Q 1584 409 2034 409 
Q 2484 409 2743 651 
Q 3003 894 3003 1313 
Q 3003 1734 2745 1975 
Q 2488 2216 2034 2216 
z
M 1403 2484 
Q 997 2584 770 2862 
Q 544 3141 544 3541 
Q 544 4100 942 4425 
Q 1341 4750 2034 4750 
Q 2731 4750 3128 4425 
Q 3525 4100 3525 3541 
Q 3525 3141 3298 2862 
Q 3072 2584 2669 2484 
Q 3125 2378 3379 2068 
Q 3634 1759 3634 1313 
Q 3634 634 3220 271 
Q 2806 -91 2034 -91 
Q 1263 -91 848 271 
Q 434 634 434 1313 
Q 434 1759 690 2068 
Q 947 2378 1403 2484 
z
M 1172 3481 
Q 1172 3119 1398 2916 
Q 1625 2713 2034 2713 
Q 2441 2713 2670 2916 
Q 2900 3119 2900 3481 
Q 2900 3844 2670 4047 
Q 2441 4250 2034 4250 
Q 1625 4250 1398 4047 
Q 1172 3844 1172 3481 
z
" transform="scale(0.015625)"/>
       </defs>
       <use xlink:href="#DejaVuSans-38"/>
      </g>
     </g>
    </g>
    <g id="xtick_13">
     <g id="line2d_37">
      <path d="M 626.829394 282.04 
L 626.829394 164.31 
" clip-path="url(#p2e12cb514d)" style="fill: none; stroke: #b0b0b0; stroke-opacity: 0.22; stroke-width: 0.8; stroke-linecap: square"/>
     </g>
     <g id="line2d_38">
      <g>
       <use xlink:href="#m5c9ca3a063" x="626.829394" y="282.04" style="stroke: #000000; stroke-width: 0.8"/>
      </g>
     </g>
     <g id="text_14">
      <!-- 10 -->
      <g transform="translate(620.466894 296.638438) scale(0.1 -0.1)">
       <use xlink:href="#DejaVuSans-31"/>
       <use xlink:href="#DejaVuSans-30" transform="translate(63.623047 0)"/>
      </g>
     </g>
    </g>
    <g id="xtick_14">
     <g id="line2d_39">
      <path d="M 734.499091 282.04 
L 734.499091 164.31 
" clip-path="url(#p2e12cb514d)" style="fill: none; stroke: #b0b0b0; stroke-opacity: 0.22; stroke-width: 0.8; stroke-linecap: square"/>
     </g>
     <g id="line2d_40">
      <g>
       <use xlink:href="#m5c9ca3a063" x="734.499091" y="282.04" style="stroke: #000000; stroke-width: 0.8"/>
      </g>
     </g>
     <g id="text_15">
      <!-- 12 -->
      <g transform="translate(728.136591 296.638438) scale(0.1 -0.1)">
       <use xlink:href="#DejaVuSans-31"/>
       <use xlink:href="#DejaVuSans-32" transform="translate(63.623047 0)"/>
      </g>
     </g>
    </g>
    <g id="text_16">
     <!-- Tempo -->
     <g transform="translate(395.105625 310.316563) scale(0.1 -0.1)">
      <defs>
       <path id="DejaVuSans-54" d="M -19 4666 
L 3928 4666 
L 3928 4134 
L 2272 4134 
L 2272 0 
L 1638 0 
L 1638 4134 
L -19 4134 
L -19 4666 
z
" transform="scale(0.015625)"/>
      </defs>
      <use xlink:href="#DejaVuSans-54"/>
      <use xlink:href="#DejaVuSans-65" transform="translate(44.083984 0)"/>
      <use xlink:href="#DejaVuSans-6d" transform="translate(105.607422 0)"/>
      <use xlink:href="#DejaVuSans-70" transform="translate(203.019531 0)"/>
      <use xlink:href="#DejaVuSans-6f" transform="translate(266.496094 0)"/>
     </g>
    </g>
   </g>
   <g id="matplotlib.axis_4">
    <g id="ytick_4">
     <g id="line2d_41">
      <path d="M 56.18 282.04 
L 766.8 282.04 
" clip-path="url(#p2e12cb514d)" style="fill: none; stroke: #b0b0b0; stroke-opacity: 0.22; stroke-width: 0.8; stroke-linecap: square"/>
     </g>
     <g id="line2d_42">
      <g>
       <use xlink:href="#m20a9c40e0d" x="56.18" y="282.04" style="stroke: #000000; stroke-width: 0.8"/>
      </g>
     </g>
     <g id="text_17">
      <!-- −0.2 -->
      <g transform="translate(24.897188 285.839219) scale(0.1 -0.1)">
       <defs>
        <path id="DejaVuSans-2212" d="M 678 2272 
L 4684 2272 
L 4684 1741 
L 678 1741 
L 678 2272 
z
" transform="scale(0.015625)"/>
       </defs>
       <use xlink:href="#DejaVuSans-2212"/>
       <use xlink:href="#DejaVuSans-30" transform="translate(83.789062 0)"/>
       <use xlink:href="#DejaVuSans-2e" transform="translate(147.412109 0)"/>
       <use xlink:href="#DejaVuSans-32" transform="translate(179.199219 0)"/>
      </g>
     </g>
    </g>
    <g id="ytick_5">
     <g id="line2d_43">
      <path d="M 56.18 258.494 
L 766.8 258.494 
" clip-path="url(#p2e12cb514d)" style="fill: none; stroke: #b0b0b0; stroke-opacity: 0.22; stroke-width: 0.8; stroke-linecap: square"/>
     </g>
     <g id="line2d_44">
      <g>
       <use xlink:href="#m20a9c40e0d" x="56.18" y="258.494" style="stroke: #000000; stroke-width: 0.8"/>
      </g>
     </g>
     <g id="text_18">
      <!-- −0.1 -->
      <g transform="translate(24.897188 262.293219) scale(0.1 -0.1)">
       <use xlink:href="#DejaVuSans-2212"/>
       <use xlink:href="#DejaVuSans-30" transform="translate(83.789062 0)"/>
       <use xlink:href="#DejaVuSans-2e" transform="translate(147.412109 0)"/>
       <use xlink:href="#DejaVuSans-31" transform="translate(179.199219 0)"/>
      </g>
     </g>
    </g>
    <g id="ytick_6">
     <g id="line2d_45">
      <path d="M 56.18 234.948 
L 766.8 234.948 
" clip-path="url(#p2e12cb514d)" style="fill: none; stroke: #b0b0b0; stroke-opacity: 0.22; stroke-width: 0.8; stroke-linecap: square"/>
     </g>
     <g id="line2d_46">
      <g>
       <use xlink:href="#m20a9c40e0d" x="56.18" y="234.948" style="stroke: #000000; stroke-width: 0.8"/>
      </g>
     </g>
     <g id="text_19">
      <!-- 0.0 -->
      <g transform="translate(33.276875 238.747219) scale(0.1 -0.1)">
       <use xlink:href="#DejaVuSans-30"/>
       <use xlink:href="#DejaVuSans-2e" transform="translate(63.623047 0)"/>
       <use xlink:href="#DejaVuSans-30" transform="translate(95.410156 0)"/>
      </g>
     </g>
    </g>
    <g id="ytick_7">
     <g id="line2d_47">
      <path d="M 56.18 211.402 
L 766.8 211.402 
" clip-path="url(#p2e12cb514d)" style="fill: none; stroke: #b0b0b0; stroke-opacity: 0.22; stroke-width: 0.8; stroke-linecap: square"/>
     </g>
     <g id="line2d_48">
      <g>
       <use xlink:href="#m20a9c40e0d" x="56.18" y="211.402" style="stroke: #000000; stroke-width: 0.8"/>
      </g>
     </g>
     <g id="text_20">
      <!-- 0.1 -->
      <g transform="translate(33.276875 215.201219) scale(0.1 -0.1)">
       <use xlink:href="#DejaVuSans-30"/>
       <use xlink:href="#DejaVuSans-2e" transform="translate(63.623047 0)"/>
       <use xlink:href="#DejaVuSans-31" transform="translate(95.410156 0)"/>
      </g>
     </g>
    </g>
    <g id="ytick_8">
     <g id="line2d_49">
      <path d="M 56.18 187.856 
L 766.8 187.856 
" clip-path="url(#p2e12cb514d)" style="fill: none; stroke: #b0b0b0; stroke-opacity: 0.22; stroke-width: 0.8; stroke-linecap: square"/>
     </g>
     <g id="line2d_50">
      <g>
       <use xlink:href="#m20a9c40e0d" x="56.18" y="187.856" style="stroke: #000000; stroke-width: 0.8"/>
      </g>
     </g>
     <g id="text_21">
      <!-- 0.2 -->
      <g transform="translate(33.276875 191.655219) scale(0.1 -0.1)">
       <use xlink:href="#DejaVuSans-30"/>
       <use xlink:href="#DejaVuSans-2e" transform="translate(63.623047 0)"/>
       <use xlink:href="#DejaVuSans-32" transform="translate(95.410156 0)"/>
      </g>
     </g>
    </g>
    <g id="ytick_9">
     <g id="line2d_51">
      <path d="M 56.18 164.31 
L 766.8 164.31 
" clip-path="url(#p2e12cb514d)" style="fill: none; stroke: #b0b0b0; stroke-opacity: 0.22; stroke-width: 0.8; stroke-linecap: square"/>
     </g>
     <g id="line2d_52">
      <g>
       <use xlink:href="#m20a9c40e0d" x="56.18" y="164.31" style="stroke: #000000; stroke-width: 0.8"/>
      </g>
     </g>
     <g id="text_22">
      <!-- 0.3 -->
      <g transform="translate(33.276875 168.109219) scale(0.1 -0.1)">
       <defs>
        <path id="DejaVuSans-33" d="M 2597 2516 
Q 3050 2419 3304 2112 
Q 3559 1806 3559 1356 
Q 3559 666 3084 287 
Q 2609 -91 1734 -91 
Q 1441 -91 1130 -33 
Q 819 25 488 141 
L 488 750 
Q 750 597 1062 519 
Q 1375 441 1716 441 
Q 2309 441 2620 675 
Q 2931 909 2931 1356 
Q 2931 1769 2642 2001 
Q 2353 2234 1838 2234 
L 1294 2234 
L 1294 2753 
L 1863 2753 
Q 2328 2753 2575 2939 
Q 2822 3125 2822 3475 
Q 2822 3834 2567 4026 
Q 2313 4219 1838 4219 
Q 1578 4219 1281 4162 
Q 984 4106 628 3988 
L 628 4550 
Q 988 4650 1302 4700 
Q 1616 4750 1894 4750 
Q 2613 4750 3031 4423 
Q 3450 4097 3450 3541 
Q 3450 3153 3228 2886 
Q 3006 2619 2597 2516 
z
" transform="scale(0.015625)"/>
       </defs>
       <use xlink:href="#DejaVuSans-30"/>
       <use xlink:href="#DejaVuSans-2e" transform="translate(63.623047 0)"/>
       <use xlink:href="#DejaVuSans-33" transform="translate(95.410156 0)"/>
      </g>
     </g>
    </g>
    <g id="text_23">
     <!-- Eco residual -->
     <g transform="translate(18.8175 253.541406) rotate(-90) scale(0.1 -0.1)">
      <defs>
       <path id="DejaVuSans-45" d="M 628 4666 
L 3578 4666 
L 3578 4134 
L 1259 4134 
L 1259 2753 
L 3481 2753 
L 3481 2222 
L 1259 2222 
L 1259 531 
L 3634 531 
L 3634 0 
L 628 0 
L 628 4666 
z
" transform="scale(0.015625)"/>
      </defs>
      <use xlink:href="#DejaVuSans-45"/>
      <use xlink:href="#DejaVuSans-63" transform="translate(63.183594 0)"/>
      <use xlink:href="#DejaVuSans-6f" transform="translate(118.164062 0)"/>
      <use xlink:href="#DejaVuSans-20" transform="translate(179.345703 0)"/>
      <use xlink:href="#DejaVuSans-72" transform="translate(211.132812 0)"/>
      <use xlink:href="#DejaVuSans-65" transform="translate(249.996094 0)"/>
      <use xlink:href="#DejaVuSans-73" transform="translate(311.519531 0)"/>
      <use xlink:href="#DejaVuSans-69" transform="translate(363.619141 0)"/>
      <use xlink:href="#DejaVuSans-64" transform="translate(391.402344 0)"/>
      <use xlink:href="#DejaVuSans-75" transform="translate(454.878906 0)"/>
      <use xlink:href="#DejaVuSans-61" transform="translate(518.257812 0)"/>
      <use xlink:href="#DejaVuSans-6c" transform="translate(579.537109 0)"/>
     </g>
    </g>
   </g>
   <g id="line2d_53">
    <path d="M 88.480909 234.948 
L 187.464308 235.048422 
L 190.696419 235.274646 
L 192.716488 235.618812 
L 194.332544 236.130254 
L 195.544585 236.746044 
L 196.756627 237.666615 
L 197.564655 238.515238 
L 198.372682 239.610756 
L 199.18071 241.014428 
L 199.988738 242.796127 
L 200.796766 245.031315 
L 201.604793 247.79495 
L 202.412821 251.151476 
L 203.624863 257.37408 
L 204.836904 264.951489 
L 207.260988 282.328848 
L 208.877043 292.960254 
L 209.685071 297.237377 
L 210.493099 300.586827 
L 211.301126 302.911469 
L 211.70514 303.674947 
L 212.109154 304.170689 
L 212.513168 304.400199 
L 212.917182 304.366761 
L 213.321196 304.075073 
L 213.72521 303.530946 
L 214.533237 301.712966 
L 215.341265 298.975201 
L 216.149293 295.391199 
L 217.361334 288.620881 
L 218.573376 280.49917 
L 220.593445 265.173864 
L 223.421542 243.791203 
L 225.037598 233.369351 
L 226.24964 226.798131 
L 227.461681 221.328465 
L 228.673723 216.891679 
L 229.885764 213.366994 
L 231.097806 210.612812 
L 232.309848 208.488294 
L 233.521889 206.865712 
L 234.733931 205.635863 
L 235.945972 204.709045 
L 237.158014 204.013621 
L 238.77407 203.351321 
L 240.794139 202.816528 
L 243.218222 202.441974 
L 246.450333 202.189906 
L 251.702514 202.03986 
L 263.82293 201.986398 
L 376.946814 201.811041 
L 379.774911 201.521912 
L 381.390967 201.178089 
L 383.007022 200.585229 
L 384.219064 199.877599 
L 385.431105 198.827191 
L 386.239133 197.864282 
L 387.047161 196.626911 
L 387.855188 195.048915 
L 388.663216 193.055769 
L 389.471244 190.568389 
L 390.279272 187.510279 
L 391.491313 181.723327 
L 392.703355 174.446772 
L 394.31941 162.821277 
L 397.147508 141.566792 
L 398.359549 134.212874 
L 399.167577 130.340469 
L 399.975605 127.37942 
L 400.783632 125.347341 
L 401.187646 124.675646 
L 401.59166 124.228657 
L 401.995674 124.001813 
L 402.399688 123.990237 
L 402.803702 124.18899 
L 403.207716 124.593252 
L 404.015743 126.000154 
L 404.823771 128.177018 
L 405.631799 131.09213 
L 406.439827 134.71194 
L 407.651868 141.370067 
L 408.86391 149.320313 
L 410.479965 161.407012 
L 414.520104 192.810515 
L 416.13616 203.342993 
L 417.348201 209.971695 
L 418.560243 215.483869 
L 419.772284 219.952185 
L 420.984326 223.500235 
L 422.196368 226.27168 
L 423.408409 228.408904 
L 424.620451 230.040803 
L 425.832492 231.277465 
L 427.044534 232.209252 
L 428.256576 232.908293 
L 429.872631 233.573932 
L 431.892701 234.111324 
L 434.316784 234.487629 
L 437.548895 234.740825 
L 442.801075 234.891513 
L 454.921491 234.945191 
L 627.031401 234.948 
L 734.499091 234.948 
L 734.499091 234.948 
" clip-path="url(#p2e12cb514d)" style="fill: none; stroke: #7c3aed; stroke-width: 2; stroke-linecap: square"/>
   </g>
   <g id="line2d_54">
    <path d="M 56.18 234.948 
L 766.8 234.948 
" clip-path="url(#p2e12cb514d)" style="fill: none; stroke: #9ca3af; stroke-width: 0.8; stroke-linecap: square"/>
   </g>
   <g id="patch_8">
    <path d="M 56.18 282.04 
L 56.18 164.31 
" style="fill: none; stroke: #000000; stroke-width: 0.8; stroke-linejoin: miter; stroke-linecap: square"/>
   </g>
   <g id="patch_9">
    <path d="M 766.8 282.04 
L 766.8 164.31 
" style="fill: none; stroke: #000000; stroke-width: 0.8; stroke-linejoin: miter; stroke-linecap: square"/>
   </g>
   <g id="patch_10">
    <path d="M 56.18 282.04 
L 766.8 282.04 
" style="fill: none; stroke: #000000; stroke-width: 0.8; stroke-linejoin: miter; stroke-linecap: square"/>
   </g>
   <g id="patch_11">
    <path d="M 56.18 164.31 
L 766.8 164.31 
" style="fill: none; stroke: #000000; stroke-width: 0.8; stroke-linejoin: miter; stroke-linecap: square"/>
   </g>
  </g>
 </g>
 <defs>
  <clipPath id="pd093b590c6">
   <rect x="56.18" y="28.32" width="710.62" height="117.73"/>
  </clipPath>
  <clipPath id="p2e12cb514d">
   <rect x="56.18" y="164.31" width="710.62" height="117.73"/>
  </clipPath>
 </defs>
</svg>
