<?xml version="1.0" encoding="utf-8" standalone="no"?>
<!DOCTYPE svg PUBLIC "-//W3C//DTD SVG 1.1//EN"
  "http://www.w3.org/Graphics/SVG/1.1/DTD/svg11.dtd">
<svg xmlns:xlink="http://www.w3.org/1999/xlink" width="795.6pt" height="337.655172pt" viewBox="0 0 795.6 337.655172" xmlns="http://www.w3.org/2000/svg" version="1.1">
 <metadata>
  <rdf:RDF xmlns:dc="http://purl.org/dc/elements/1.1/" xmlns:cc="http://creativecommons.org/ns#" xmlns:rdf="http://www.w3.org/1999/02/22-rdf-syntax-ns#">
   <cc:Work>
    <dc:type rdf:resource="http://purl.org/dc/dcmitype/StillImage"/>
    <dc:date>2026-03-10T21:13:03.061530</dc:date>
    <dc:format>image/svg+xml</dc:format>
    <dc:creator>
     <cc:Agent>
      <dc:title>Matplotlib v3.10.8, https://matplotlib.org/</dc:title>
     </cc:Agent>
    </dc:creator>
   </cc:Work>
  </rdf:RDF>
 </metadata>
 <defs>
  <style type="text/css">*{stroke-linejoin: round; stroke-linecap: butt}</style>
 </defs>
 <g id="figure_1">
  <g id="patch_1">
   <path d="M 0 337.655172 
L 795.6 337.655172 
L 795.6 0 
L 0 0 
z
" style="fill: #ffffff"/>
  </g>
  <g id="axes_1">
   <g id="line2d_1">
    <path d="M 327.761379 249.641379 
L 327.761379 50.30069 
" clip-path="url(#pc4f00db51f)" style="fill: none; stroke-dasharray: 1.5,2.475; stroke-dashoffset: 0; stroke: #cccccc; stroke-width: 1.5"/>
   </g>
   <g id="patch_2">
    <path d="M 187.684138 114.951724 
Q 194.957379 114.951724 199.994553 114.951724 
" style="fill: none; stroke: #969696; stroke-width: 2; stroke-linecap: round"/>
    <path d="M 195.994553 112.951724 
L 199.994553 114.951724 
L 195.994553 116.951724 
z
" style="fill: #969696; stroke: #969696; stroke-width: 2; stroke-linecap: round"/>
   </g>
   <g id="patch_3">
    <path d="M 297.052138 114.951724 
Q 325.875724 114.951724 352.463242 114.951724 
" style="fill: none; stroke: #238b45; stroke-width: 2; stroke-linecap: round"/>
    <path d="M 348.463242 112.951724 
L 352.463242 114.951724 
L 348.463242 116.951724 
z
" style="fill: #238b45; stroke: #238b45; stroke-width: 2; stroke-linecap: round"/>
   </g>
   <g id="patch_4">
    <path d="M 446.288276 114.951724 
Q 466.491724 114.951724 484.459104 114.951724 
" style="fill: none; stroke: #238b45; stroke-width: 2; stroke-linecap: round"/>
    <path d="M 480.459104 112.951724 
L 484.459104 114.951724 
L 480.459104 116.951724 
z
" style="fill: #238b45; stroke: #238b45; stroke-width: 2; stroke-linecap: round"/>
   </g>
   <g id="patch_5">
    <path d="M 572.896552 114.951724 
Q 591.753103 114.951724 608.373587 114.951724 
" style="fill: none; stroke: #238b45; stroke-width: 2; stroke-linecap: round"/>
    <path d="M 604.373587 112.951724 
L 608.373587 114.951724 
L 604.373587 116.951724 
z
" style="fill: #238b45; stroke: #238b45; stroke-width: 2; stroke-linecap: round"/>
   </g>
   <g id="text_1">
    <!-- PSTN End-to-End Path for V.90 Downstream -->
    <g style="fill: #262626" transform="translate(275.354981 34.137931) scale(0.13 -0.13)">
     <defs>
      <path id="Arial-BoldMT-50" d="M 466 0 
L 466 4581 
L 1950 4581 
Q 2794 4581 3050 4513 
Q 3444 4409 3709 4064 
Q 3975 3719 3975 3172 
Q 3975 2750 3822 2462 
Q 3669 2175 3433 2011 
Q 3197 1847 2953 1794 
Q 2622 1728 1994 1728 
L 1391 1728 
L 1391 0 
L 466 0 
z
M 1391 3806 
L 1391 2506 
L 1897 2506 
Q 2444 2506 2628 2578 
Q 2813 2650 2917 2803 
Q 3022 2956 3022 3159 
Q 3022 3409 2875 3571 
Q 2728 3734 2503 3775 
Q 2338 3806 1838 3806 
L 1391 3806 
z
" transform="scale(0.015625)"/>
      <path id="Arial-BoldMT-53" d="M 231 1491 
L 1131 1578 
Q 1213 1125 1461 912 
Q 1709 700 2131 700 
Q 2578 700 2804 889 
Q 3031 1078 3031 1331 
Q 3031 1494 2936 1608 
Q 2841 1722 2603 1806 
Q 2441 1863 1863 2006 
Q 1119 2191 819 2459 
Q 397 2838 397 3381 
Q 397 3731 595 4036 
Q 794 4341 1167 4500 
Q 1541 4659 2069 4659 
Q 2931 4659 3367 4281 
Q 3803 3903 3825 3272 
L 2900 3231 
Q 2841 3584 2645 3739 
Q 2450 3894 2059 3894 
Q 1656 3894 1428 3728 
Q 1281 3622 1281 3444 
Q 1281 3281 1419 3166 
Q 1594 3019 2269 2859 
Q 2944 2700 3267 2529 
Q 3591 2359 3773 2064 
Q 3956 1769 3956 1334 
Q 3956 941 3737 597 
Q 3519 253 3119 86 
Q 2719 -81 2122 -81 
Q 1253 -81 787 320 
Q 322 722 231 1491 
z
" transform="scale(0.015625)"/>
      <path id="Arial-BoldMT-54" d="M 1497 0 
L 1497 3806 
L 138 3806 
L 138 4581 
L 3778 4581 
L 3778 3806 
L 2422 3806 
L 2422 0 
L 1497 0 
z
" transform="scale(0.015625)"/>
      <path id="Arial-BoldMT-4e" d="M 475 0 
L 475 4581 
L 1375 4581 
L 3250 1522 
L 3250 4581 
L 4109 4581 
L 4109 0 
L 3181 0 
L 1334 2988 
L 1334 0 
L 475 0 
z
" transform="scale(0.015625)"/>
      <path id="Arial-BoldMT-20" transform="scale(0.015625)"/>
      <path id="Arial-BoldMT-45" d="M 466 0 
L 466 4581 
L 3863 4581 
L 3863 3806 
L 1391 3806 
L 1391 2791 
L 3691 2791 
L 3691 2019 
L 1391 2019 
L 1391 772 
L 3950 772 
L 3950 0 
L 466 0 
z
" transform="scale(0.015625)"/>
      <path id="Arial-BoldMT-6e" d="M 3478 0 
L 2600 0 
L 2600 1694 
Q 2600 2231 2544 2389 
Q 2488 2547 2361 2634 
Q 2234 2722 2056 2722 
Q 1828 2722 1647 2597 
Q 1466 2472 1398 2265 
Q 1331 2059 1331 1503 
L 1331 0 
L 453 0 
L 453 3319 
L 1269 3319 
L 1269 2831 
Q 1703 3394 2363 3394 
Q 2653 3394 2893 3289 
Q 3134 3184 3257 3021 
Q 3381 2859 3429 2653 
Q 3478 2447 3478 2063 
L 3478 0 
z
" transform="scale(0.015625)"/>
      <path id="Arial-BoldMT-64" d="M 3503 0 
L 2688 0 
L 2688 488 
Q 2484 203 2207 64 
Q 1931 -75 1650 -75 
Q 1078 -75 670 386 
Q 263 847 263 1672 
Q 263 2516 659 2955 
Q 1056 3394 1663 3394 
Q 2219 3394 2625 2931 
L 2625 4581 
L 3503 4581 
L 3503 0 
z
M 1159 1731 
Q 1159 1200 1306 963 
Q 1519 619 1900 619 
Q 2203 619 2415 876 
Q 2628 1134 2628 1647 
Q 2628 2219 2422 2470 
Q 2216 2722 1894 2722 
Q 1581 2722 1370 2473 
Q 1159 2225 1159 1731 
z
" transform="scale(0.015625)"/>
      <path id="Arial-BoldMT-2d" d="M 359 1222 
L 359 2100 
L 2084 2100 
L 2084 1222 
L 359 1222 
z
" transform="scale(0.015625)"/>
      <path id="Arial-BoldMT-74" d="M 1981 3319 
L 1981 2619 
L 1381 2619 
L 1381 1281 
Q 1381 875 1398 808 
Q 1416 741 1477 697 
Q 1538 653 1625 653 
Q 1747 653 1978 738 
L 2053 56 
Q 1747 -75 1359 -75 
Q 1122 -75 931 4 
Q 741 84 652 211 
Q 563 338 528 553 
Q 500 706 500 1172 
L 500 2619 
L 97 2619 
L 97 3319 
L 500 3319 
L 500 3978 
L 1381 4491 
L 1381 3319 
L 1981 3319 
z
" transform="scale(0.015625)"/>
      <path id="Arial-BoldMT-6f" d="M 256 1706 
Q 256 2144 472 2553 
Q 688 2963 1083 3178 
Q 1478 3394 1966 3394 
Q 2719 3394 3200 2905 
Q 3681 2416 3681 1669 
Q 3681 916 3195 420 
Q 2709 -75 1972 -75 
Q 1516 -75 1102 131 
Q 688 338 472 736 
Q 256 1134 256 1706 
z
M 1156 1659 
Q 1156 1166 1390 903 
Q 1625 641 1969 641 
Q 2313 641 2545 903 
Q 2778 1166 2778 1666 
Q 2778 2153 2545 2415 
Q 2313 2678 1969 2678 
Q 1625 2678 1390 2415 
Q 1156 2153 1156 1659 
z
" transform="scale(0.015625)"/>
      <path id="Arial-BoldMT-61" d="M 1116 2306 
L 319 2450 
Q 453 2931 781 3162 
Q 1109 3394 1756 3394 
Q 2344 3394 2631 3255 
Q 2919 3116 3036 2902 
Q 3153 2688 3153 2116 
L 3144 1091 
Q 3144 653 3186 445 
Q 3228 238 3344 0 
L 2475 0 
Q 2441 88 2391 259 
Q 2369 338 2359 363 
Q 2134 144 1878 34 
Q 1622 -75 1331 -75 
Q 819 -75 523 203 
Q 228 481 228 906 
Q 228 1188 362 1408 
Q 497 1628 739 1745 
Q 981 1863 1438 1950 
Q 2053 2066 2291 2166 
L 2291 2253 
Q 2291 2506 2166 2614 
Q 2041 2722 1694 2722 
Q 1459 2722 1328 2630 
Q 1197 2538 1116 2306 
z
M 2291 1594 
Q 2122 1538 1756 1459 
Q 1391 1381 1278 1306 
Q 1106 1184 1106 997 
Q 1106 813 1243 678 
Q 1381 544 1594 544 
Q 1831 544 2047 700 
Q 2206 819 2256 991 
Q 2291 1103 2291 1419 
L 2291 1594 
z
" transform="scale(0.015625)"/>
      <path id="Arial-BoldMT-68" d="M 1334 4581 
L 1334 2897 
Q 1759 3394 2350 3394 
Q 2653 3394 2897 3281 
Q 3141 3169 3264 2994 
Q 3388 2819 3433 2606 
Q 3478 2394 3478 1947 
L 3478 0 
L 2600 0 
L 2600 1753 
Q 2600 2275 2550 2415 
Q 2500 2556 2373 2639 
Q 2247 2722 2056 2722 
Q 1838 2722 1666 2615 
Q 1494 2509 1414 2295 
Q 1334 2081 1334 1663 
L 1334 0 
L 456 0 
L 456 4581 
L 1334 4581 
z
" transform="scale(0.015625)"/>
      <path id="Arial-BoldMT-66" d="M 75 3319 
L 563 3319 
L 563 3569 
Q 563 3988 652 4194 
Q 741 4400 980 4529 
Q 1219 4659 1584 4659 
Q 1959 4659 2319 4547 
L 2200 3934 
Q 1991 3984 1797 3984 
Q 1606 3984 1523 3895 
Q 1441 3806 1441 3553 
L 1441 3319 
L 2097 3319 
L 2097 2628 
L 1441 2628 
L 1441 0 
L 563 0 
L 563 2628 
L 75 2628 
L 75 3319 
z
" transform="scale(0.015625)"/>
      <path id="Arial-BoldMT-72" d="M 1300 0 
L 422 0 
L 422 3319 
L 1238 3319 
L 1238 2847 
Q 1447 3181 1614 3287 
Q 1781 3394 1994 3394 
Q 2294 3394 2572 3228 
L 2300 2463 
Q 2078 2606 1888 2606 
Q 1703 2606 1575 2504 
Q 1447 2403 1373 2137 
Q 1300 1872 1300 1025 
L 1300 0 
z
" transform="scale(0.015625)"/>
      <path id="Arial-BoldMT-56" d="M 1634 0 
L -3 4581 
L 1000 4581 
L 2159 1191 
L 3281 4581 
L 4263 4581 
L 2622 0 
L 1634 0 
z
" transform="scale(0.015625)"/>
      <path id="Arial-BoldMT-2e" d="M 459 0 
L 459 878 
L 1338 878 
L 1338 0 
L 459 0 
z
" transform="scale(0.015625)"/>
      <path id="Arial-BoldMT-39" d="M 291 1059 
L 1141 1153 
Q 1172 894 1303 769 
Q 1434 644 1650 644 
Q 1922 644 2112 894 
Q 2303 1144 2356 1931 
Q 2025 1547 1528 1547 
Q 988 1547 595 1964 
Q 203 2381 203 3050 
Q 203 3747 617 4173 
Q 1031 4600 1672 4600 
Q 2369 4600 2816 4061 
Q 3263 3522 3263 2288 
Q 3263 1031 2797 475 
Q 2331 -81 1584 -81 
Q 1047 -81 715 205 
Q 384 491 291 1059 
z
M 2278 2978 
Q 2278 3403 2083 3637 
Q 1888 3872 1631 3872 
Q 1388 3872 1227 3680 
Q 1066 3488 1066 3050 
Q 1066 2606 1241 2398 
Q 1416 2191 1678 2191 
Q 1931 2191 2104 2391 
Q 2278 2591 2278 2978 
z
" transform="scale(0.015625)"/>
      <path id="Arial-BoldMT-30" d="M 1756 4600 
Q 2422 4600 2797 4125 
Q 3244 3563 3244 2259 
Q 3244 959 2794 391 
Q 2422 -78 1756 -78 
Q 1088 -78 678 436 
Q 269 950 269 2269 
Q 269 3563 719 4131 
Q 1091 4600 1756 4600 
z
M 1756 3872 
Q 1597 3872 1472 3770 
Q 1347 3669 1278 3406 
Q 1188 3066 1188 2259 
Q 1188 1453 1269 1151 
Q 1350 850 1473 750 
Q 1597 650 1756 650 
Q 1916 650 2041 751 
Q 2166 853 2234 1116 
Q 2325 1453 2325 2259 
Q 2325 3066 2244 3367 
Q 2163 3669 2039 3770 
Q 1916 3872 1756 3872 
z
" transform="scale(0.015625)"/>
      <path id="Arial-BoldMT-44" d="M 463 4581 
L 2153 4581 
Q 2725 4581 3025 4494 
Q 3428 4375 3715 4072 
Q 4003 3769 4153 3330 
Q 4303 2891 4303 2247 
Q 4303 1681 4163 1272 
Q 3991 772 3672 463 
Q 3431 228 3022 97 
Q 2716 0 2203 0 
L 463 0 
L 463 4581 
z
M 1388 3806 
L 1388 772 
L 2078 772 
Q 2466 772 2638 816 
Q 2863 872 3011 1006 
Q 3159 1141 3253 1448 
Q 3347 1756 3347 2288 
Q 3347 2819 3253 3103 
Q 3159 3388 2990 3547 
Q 2822 3706 2563 3763 
Q 2369 3806 1803 3806 
L 1388 3806 
z
" transform="scale(0.015625)"/>
      <path id="Arial-BoldMT-77" d="M 1078 0 
L 28 3319 
L 881 3319 
L 1503 1144 
L 2075 3319 
L 2922 3319 
L 3475 1144 
L 4109 3319 
L 4975 3319 
L 3909 0 
L 3066 0 
L 2494 2134 
L 1931 0 
L 1078 0 
z
" transform="scale(0.015625)"/>
      <path id="Arial-BoldMT-73" d="M 150 947 
L 1031 1081 
Q 1088 825 1259 692 
Q 1431 559 1741 559 
Q 2081 559 2253 684 
Q 2369 772 2369 919 
Q 2369 1019 2306 1084 
Q 2241 1147 2013 1200 
Q 950 1434 666 1628 
Q 272 1897 272 2375 
Q 272 2806 612 3100 
Q 953 3394 1669 3394 
Q 2350 3394 2681 3172 
Q 3013 2950 3138 2516 
L 2309 2363 
Q 2256 2556 2107 2659 
Q 1959 2763 1684 2763 
Q 1338 2763 1188 2666 
Q 1088 2597 1088 2488 
Q 1088 2394 1175 2328 
Q 1294 2241 1995 2081 
Q 2697 1922 2975 1691 
Q 3250 1456 3250 1038 
Q 3250 581 2869 253 
Q 2488 -75 1741 -75 
Q 1063 -75 667 200 
Q 272 475 150 947 
z
" transform="scale(0.015625)"/>
      <path id="Arial-BoldMT-65" d="M 2381 1056 
L 3256 909 
Q 3088 428 2723 176 
Q 2359 -75 1813 -75 
Q 947 -75 531 491 
Q 203 944 203 1634 
Q 203 2459 634 2926 
Q 1066 3394 1725 3394 
Q 2466 3394 2894 2905 
Q 3322 2416 3303 1406 
L 1103 1406 
Q 1113 1016 1316 798 
Q 1519 581 1822 581 
Q 2028 581 2168 693 
Q 2309 806 2381 1056 
z
M 2431 1944 
Q 2422 2325 2234 2523 
Q 2047 2722 1778 2722 
Q 1491 2722 1303 2513 
Q 1116 2303 1119 1944 
L 2431 1944 
z
" transform="scale(0.015625)"/>
      <path id="Arial-BoldMT-6d" d="M 394 3319 
L 1203 3319 
L 1203 2866 
Q 1638 3394 2238 3394 
Q 2556 3394 2790 3262 
Q 3025 3131 3175 2866 
Q 3394 3131 3647 3262 
Q 3900 3394 4188 3394 
Q 4553 3394 4806 3245 
Q 5059 3097 5184 2809 
Q 5275 2597 5275 2122 
L 5275 0 
L 4397 0 
L 4397 1897 
Q 4397 2391 4306 2534 
Q 4184 2722 3931 2722 
Q 3747 2722 3584 2609 
Q 3422 2497 3350 2280 
Q 3278 2063 3278 1594 
L 3278 0 
L 2400 0 
L 2400 1819 
Q 2400 2303 2353 2443 
Q 2306 2584 2207 2653 
Q 2109 2722 1941 2722 
Q 1738 2722 1575 2612 
Q 1413 2503 1342 2297 
Q 1272 2091 1272 1613 
L 1272 0 
L 394 0 
L 394 3319 
z
" transform="scale(0.015625)"/>
     </defs>
     <use xlink:href="#Arial-BoldMT-50"/>
     <use xlink:href="#Arial-BoldMT-53" transform="translate(66.699219 0)"/>
     <use xlink:href="#Arial-BoldMT-54" transform="translate(133.398438 0)"/>
     <use xlink:href="#Arial-BoldMT-4e" transform="translate(194.482422 0)"/>
     <use xlink:href="#Arial-BoldMT-20" transform="translate(266.699219 0)"/>
     <use xlink:href="#Arial-BoldMT-45" transform="translate(294.482422 0)"/>
     <use xlink:href="#Arial-BoldMT-6e" transform="translate(361.181641 0)"/>
     <use xlink:href="#Arial-BoldMT-64" transform="translate(422.265625 0)"/>
     <use xlink:href="#Arial-BoldMT-2d" transform="translate(483.349609 0)"/>
     <use xlink:href="#Arial-BoldMT-74" transform="translate(516.650391 0)"/>
     <use xlink:href="#Arial-BoldMT-6f" transform="translate(549.951172 0)"/>
     <use xlink:href="#Arial-BoldMT-2d" transform="translate(611.035156 0)"/>
     <use xlink:href="#Arial-BoldMT-45" transform="translate(644.335938 0)"/>
     <use xlink:href="#Arial-BoldMT-6e" transform="translate(711.035156 0)"/>
     <use xlink:href="#Arial-BoldMT-64" transform="translate(772.119141 0)"/>
     <use xlink:href="#Arial-BoldMT-20" transform="translate(833.203125 0)"/>
     <use xlink:href="#Arial-BoldMT-50" transform="translate(860.986328 0)"/>
     <use xlink:href="#Arial-BoldMT-61" transform="translate(927.685547 0)"/>
     <use xlink:href="#Arial-BoldMT-74" transform="translate(983.300781 0)"/>
     <use xlink:href="#Arial-BoldMT-68" transform="translate(1016.601562 0)"/>
     <use xlink:href="#Arial-BoldMT-20" transform="translate(1077.685547 0)"/>
     <use xlink:href="#Arial-BoldMT-66" transform="translate(1105.46875 0)"/>
     <use xlink:href="#Arial-BoldMT-6f" transform="translate(1138.769531 0)"/>
     <use xlink:href="#Arial-BoldMT-72" transform="translate(1199.853516 0)"/>
     <use xlink:href="#Arial-BoldMT-20" transform="translate(1238.769531 0)"/>
     <use xlink:href="#Arial-BoldMT-56" transform="translate(1266.552734 0)"/>
     <use xlink:href="#Arial-BoldMT-2e" transform="translate(1324.126953 0)"/>
     <use xlink:href="#Arial-BoldMT-39" transform="translate(1351.910156 0)"/>
     <use xlink:href="#Arial-BoldMT-30" transform="translate(1407.525391 0)"/>
     <use xlink:href="#Arial-BoldMT-20" transform="translate(1463.140625 0)"/>
     <use xlink:href="#Arial-BoldMT-44" transform="translate(1490.923828 0)"/>
     <use xlink:href="#Arial-BoldMT-6f" transform="translate(1563.140625 0)"/>
     <use xlink:href="#Arial-BoldMT-77" transform="translate(1624.224609 0)"/>
     <use xlink:href="#Arial-BoldMT-6e" transform="translate(1702.007812 0)"/>
     <use xlink:href="#Arial-BoldMT-73" transform="translate(1763.091797 0)"/>
     <use xlink:href="#Arial-BoldMT-74" transform="translate(1818.707031 0)"/>
     <use xlink:href="#Arial-BoldMT-72" transform="translate(1852.007812 0)"/>
     <use xlink:href="#Arial-BoldMT-65" transform="translate(1890.923828 0)"/>
     <use xlink:href="#Arial-BoldMT-61" transform="translate(1946.539062 0)"/>
     <use xlink:href="#Arial-BoldMT-6d" transform="translate(2002.154297 0)"/>
    </g>
   </g>
   <g id="patch_6">
    <path d="M 44.913103 136.502069 
L 131.114483 136.502069 
Q 133.808276 136.502069 133.808276 133.808276 
L 133.808276 96.095172 
Q 133.808276 93.401379 131.114483 93.401379 
L 44.913103 93.401379 
Q 42.21931 93.401379 42.21931 96.095172 
L 42.21931 133.808276 
Q 42.21931 136.502069 44.913103 136.502069 
z
" clip-path="url(#pc4f00db51f)" style="fill: #d94701; opacity: 0.92; stroke: #333333; stroke-linejoin: miter"/>
   </g>
   <g id="text_2">
    <!-- V.90 RX -->
    <g style="fill: #d94701" transform="translate(74.325121 150.01007) scale(0.075 -0.075)">
     <defs>
      <path id="Arial-ItalicMT-56" d="M 1675 0 
L 794 4581 
L 1384 4581 
L 1916 1850 
Q 2063 1106 2106 650 
Q 2394 1238 2578 1581 
L 4213 4581 
L 4844 4581 
L 2331 0 
L 1675 0 
z
" transform="scale(0.015625)"/>
      <path id="Arial-ItalicMT-2e" d="M 369 0 
L 503 641 
L 1144 641 
L 1006 0 
L 369 0 
z
" transform="scale(0.015625)"/>
      <path id="Arial-ItalicMT-39" d="M 431 1050 
L 963 1103 
Q 1016 719 1181 556 
Q 1347 394 1575 394 
Q 1900 394 2178 675 
Q 2588 1088 2781 1859 
Q 2497 1647 2276 1556 
Q 2056 1466 1825 1466 
Q 1406 1466 1075 1747 
Q 638 2113 638 2797 
Q 638 3572 1144 4125 
Q 1578 4600 2209 4600 
Q 2778 4600 3153 4179 
Q 3528 3759 3528 2991 
Q 3528 2244 3278 1516 
Q 2981 659 2475 253 
Q 2063 -78 1547 -78 
Q 1072 -78 770 217 
Q 469 513 431 1050 
z
M 1184 2863 
Q 1184 2431 1414 2175 
Q 1644 1919 1959 1919 
Q 2194 1919 2425 2078 
Q 2656 2238 2822 2555 
Q 2988 2872 2988 3206 
Q 2988 3469 2878 3694 
Q 2769 3919 2580 4033 
Q 2391 4147 2197 4147 
Q 2009 4147 1828 4047 
Q 1647 3947 1492 3753 
Q 1338 3559 1261 3307 
Q 1184 3056 1184 2863 
z
" transform="scale(0.015625)"/>
      <path id="Arial-ItalicMT-30" d="M 453 1503 
Q 453 2084 626 2684 
Q 800 3284 1012 3643 
Q 1225 4003 1453 4206 
Q 1681 4409 1901 4504 
Q 2122 4600 2391 4600 
Q 2916 4600 3267 4209 
Q 3619 3819 3619 3081 
Q 3619 2322 3375 1578 
Q 3088 697 2575 256 
Q 2181 -78 1678 -78 
Q 1163 -78 808 326 
Q 453 731 453 1503 
z
M 1000 1359 
Q 1000 938 1141 700 
Q 1331 372 1706 372 
Q 2034 372 2303 669 
Q 2691 1088 2886 1895 
Q 3081 2703 3081 3216 
Q 3081 3709 2892 3928 
Q 2703 4147 2394 4147 
Q 2169 4147 1973 4031 
Q 1778 3916 1600 3634 
Q 1347 3238 1159 2447 
Q 1000 1772 1000 1359 
z
" transform="scale(0.015625)"/>
      <path id="Arial-ItalicMT-20" transform="scale(0.015625)"/>
      <path id="Arial-ItalicMT-52" d="M 300 0 
L 1259 4581 
L 3181 4581 
Q 3750 4581 4044 4486 
Q 4338 4391 4505 4128 
Q 4672 3866 4672 3466 
Q 4672 2906 4306 2537 
Q 3941 2169 3125 2059 
Q 3375 1875 3503 1697 
Q 3791 1294 3966 863 
L 4316 0 
L 3631 0 
L 3303 853 
Q 3125 1316 2897 1653 
Q 2741 1888 2578 1961 
Q 2416 2034 2050 2034 
L 1338 2034 
L 913 0 
L 300 0 
z
M 1441 2531 
L 2288 2531 
Q 2875 2531 3053 2547 
Q 3400 2581 3622 2703 
Q 3844 2825 3966 3031 
Q 4088 3238 4088 3475 
Q 4088 3675 3997 3823 
Q 3906 3972 3759 4025 
Q 3613 4078 3259 4078 
L 1766 4078 
L 1441 2531 
z
" transform="scale(0.015625)"/>
      <path id="Arial-ItalicMT-58" d="M -203 0 
L 1984 2316 
L 688 4581 
L 1363 4581 
L 1953 3544 
Q 2188 3134 2222 3066 
Q 2303 2913 2400 2700 
Q 2631 3013 3116 3522 
L 4122 4581 
L 4922 4581 
L 2706 2216 
L 3963 0 
L 3297 0 
L 2553 1341 
Q 2444 1538 2300 1847 
Q 2131 1619 1888 1363 
L 609 0 
L -203 0 
z
" transform="scale(0.015625)"/>
     </defs>
     <use xlink:href="#Arial-ItalicMT-56"/>
     <use xlink:href="#Arial-ItalicMT-2e" transform="translate(59.324219 0)"/>
     <use xlink:href="#Arial-ItalicMT-39" transform="translate(87.107422 0)"/>
     <use xlink:href="#Arial-ItalicMT-30" transform="translate(142.722656 0)"/>
     <use xlink:href="#Arial-ItalicMT-20" transform="translate(198.337891 0)"/>
     <use xlink:href="#Arial-ItalicMT-52" transform="translate(226.121094 0)"/>
     <use xlink:href="#Arial-ItalicMT-58" transform="translate(298.337891 0)"/>
    </g>
    <!-- (this code) -->
    <g style="fill: #d94701" transform="translate(70.508324 158.052414) scale(0.075 -0.075)">
     <defs>
      <path id="Arial-ItalicMT-28" d="M 1031 -1347 
Q 541 -272 541 863 
Q 541 1619 739 2270 
Q 938 2922 1344 3559 
Q 1613 3984 2203 4659 
L 2644 4659 
Q 2278 4269 1870 3559 
Q 1463 2850 1278 2165 
Q 1094 1481 1094 791 
Q 1094 -241 1453 -1347 
L 1031 -1347 
z
" transform="scale(0.015625)"/>
      <path id="Arial-ItalicMT-74" d="M 1534 459 
L 1441 -3 
Q 1238 -56 1047 -56 
Q 709 -56 509 109 
Q 359 234 359 450 
Q 359 559 441 953 
L 844 2881 
L 397 2881 
L 488 3319 
L 934 3319 
L 1106 4134 
L 1753 4525 
L 1500 3319 
L 2056 3319 
L 1963 2881 
L 1409 2881 
L 1025 1047 
Q 953 697 953 628 
Q 953 528 1011 475 
Q 1069 422 1200 422 
Q 1388 422 1534 459 
z
" transform="scale(0.015625)"/>
      <path id="Arial-ItalicMT-68" d="M 213 0 
L 1169 4581 
L 1734 4581 
L 1369 2822 
Q 1684 3128 1956 3261 
Q 2228 3394 2516 3394 
Q 2928 3394 3156 3176 
Q 3384 2959 3384 2603 
Q 3384 2428 3284 1959 
L 2875 0 
L 2309 0 
L 2731 2009 
Q 2822 2447 2822 2559 
Q 2822 2722 2709 2825 
Q 2597 2928 2384 2928 
Q 2078 2928 1800 2767 
Q 1522 2606 1364 2326 
Q 1206 2047 1075 1425 
L 778 0 
L 213 0 
z
" transform="scale(0.015625)"/>
      <path id="Arial-ItalicMT-69" d="M 1016 3941 
L 1150 4581 
L 1713 4581 
L 1578 3941 
L 1016 3941 
z
M 191 0 
L 884 3319 
L 1450 3319 
L 756 0 
L 191 0 
z
" transform="scale(0.015625)"/>
      <path id="Arial-ItalicMT-73" d="M 266 1134 
L 831 1169 
Q 831 925 906 753 
Q 981 581 1182 472 
Q 1384 363 1653 363 
Q 2028 363 2215 513 
Q 2403 663 2403 866 
Q 2403 1013 2291 1144 
Q 2175 1275 1726 1467 
Q 1278 1659 1153 1738 
Q 944 1866 837 2039 
Q 731 2213 731 2438 
Q 731 2831 1043 3112 
Q 1356 3394 1919 3394 
Q 2544 3394 2870 3105 
Q 3197 2816 3209 2344 
L 2656 2306 
Q 2644 2606 2444 2781 
Q 2244 2956 1878 2956 
Q 1584 2956 1421 2822 
Q 1259 2688 1259 2531 
Q 1259 2375 1400 2256 
Q 1494 2175 1884 2006 
Q 2534 1725 2703 1563 
Q 2972 1303 2972 931 
Q 2972 684 2820 446 
Q 2669 209 2358 67 
Q 2047 -75 1625 -75 
Q 1050 -75 647 209 
Q 244 494 266 1134 
z
" transform="scale(0.015625)"/>
      <path id="Arial-ItalicMT-63" d="M 2503 1209 
L 3069 1150 
Q 2856 528 2464 226 
Q 2072 -75 1572 -75 
Q 1031 -75 695 275 
Q 359 625 359 1253 
Q 359 1797 575 2322 
Q 791 2847 1192 3120 
Q 1594 3394 2109 3394 
Q 2644 3394 2956 3092 
Q 3269 2791 3269 2294 
L 2713 2256 
Q 2709 2572 2529 2750 
Q 2350 2928 2056 2928 
Q 1716 2928 1466 2712 
Q 1216 2497 1073 2058 
Q 931 1619 931 1213 
Q 931 788 1118 575 
Q 1306 363 1581 363 
Q 1856 363 2107 572 
Q 2359 781 2503 1209 
z
" transform="scale(0.015625)"/>
      <path id="Arial-ItalicMT-6f" d="M 313 1259 
Q 313 2231 884 2869 
Q 1356 3394 2122 3394 
Q 2722 3394 3089 3019 
Q 3456 2644 3456 2006 
Q 3456 1434 3225 942 
Q 2994 450 2567 187 
Q 2141 -75 1669 -75 
Q 1281 -75 964 90 
Q 647 256 480 559 
Q 313 863 313 1259 
z
M 878 1316 
Q 878 847 1103 605 
Q 1328 363 1675 363 
Q 1856 363 2034 436 
Q 2213 509 2366 659 
Q 2519 809 2626 1001 
Q 2734 1194 2800 1416 
Q 2897 1725 2897 2009 
Q 2897 2459 2670 2707 
Q 2444 2956 2100 2956 
Q 1834 2956 1615 2829 
Q 1397 2703 1220 2459 
Q 1044 2216 961 1892 
Q 878 1569 878 1316 
z
" transform="scale(0.015625)"/>
      <path id="Arial-ItalicMT-64" d="M 2450 481 
Q 1966 -75 1438 -75 
Q 966 -75 652 273 
Q 338 622 338 1284 
Q 338 1891 586 2392 
Q 834 2894 1207 3144 
Q 1581 3394 1956 3394 
Q 2575 3394 2891 2797 
L 3266 4581 
L 3828 4581 
L 2872 0 
L 2350 0 
L 2450 481 
z
M 900 1391 
Q 900 1044 969 844 
Q 1038 644 1203 511 
Q 1369 378 1600 378 
Q 1984 378 2297 778 
Q 2716 1309 2716 2091 
Q 2716 2484 2509 2706 
Q 2303 2928 1991 2928 
Q 1788 2928 1620 2837 
Q 1453 2747 1289 2530 
Q 1125 2313 1012 1978 
Q 900 1644 900 1391 
z
" transform="scale(0.015625)"/>
      <path id="Arial-ItalicMT-65" d="M 2650 1128 
L 3200 1072 
Q 3081 663 2654 294 
Q 2228 -75 1638 -75 
Q 1269 -75 961 95 
Q 653 266 492 591 
Q 331 916 331 1331 
Q 331 1875 582 2386 
Q 834 2897 1234 3145 
Q 1634 3394 2100 3394 
Q 2694 3394 3048 3025 
Q 3403 2656 3403 2019 
Q 3403 1775 3359 1519 
L 916 1519 
Q 903 1422 903 1344 
Q 903 878 1117 633 
Q 1331 388 1641 388 
Q 1931 388 2212 578 
Q 2494 769 2650 1128 
z
M 1006 1950 
L 2869 1950 
Q 2872 2038 2872 2075 
Q 2872 2500 2659 2726 
Q 2447 2953 2113 2953 
Q 1750 2953 1451 2703 
Q 1153 2453 1006 1950 
z
" transform="scale(0.015625)"/>
      <path id="Arial-ItalicMT-29" d="M 1269 4659 
Q 1763 3584 1763 2453 
Q 1763 1694 1564 1044 
Q 1366 394 959 -247 
Q 688 -672 100 -1347 
L -341 -1347 
Q 22 -953 431 -243 
Q 841 466 1023 1148 
Q 1206 1831 1206 2525 
Q 1206 3556 847 4659 
L 1269 4659 
z
" transform="scale(0.015625)"/>
     </defs>
     <use xlink:href="#Arial-ItalicMT-28"/>
     <use xlink:href="#Arial-ItalicMT-74" transform="translate(33.300781 0)"/>
     <use xlink:href="#Arial-ItalicMT-68" transform="translate(61.083984 0)"/>
     <use xlink:href="#Arial-ItalicMT-69" transform="translate(116.699219 0)"/>
     <use xlink:href="#Arial-ItalicMT-73" transform="translate(138.916016 0)"/>
     <use xlink:href="#Arial-ItalicMT-20" transform="translate(188.916016 0)"/>
     <use xlink:href="#Arial-ItalicMT-63" transform="translate(216.699219 0)"/>
     <use xlink:href="#Arial-ItalicMT-6f" transform="translate(266.699219 0)"/>
     <use xlink:href="#Arial-ItalicMT-64" transform="translate(322.314453 0)"/>
     <use xlink:href="#Arial-ItalicMT-65" transform="translate(377.929688 0)"/>
     <use xlink:href="#Arial-ItalicMT-29" transform="translate(433.544922 0)"/>
    </g>
   </g>
   <g id="patch_7">
    <path d="M 135.348206 114.951724 
Q 155.357208 114.951724 175.366209 114.951724 
" style="fill: none; stroke: #969696; stroke-width: 2; stroke-linecap: round"/>
    <path d="M 139.348206 116.951724 
L 135.348206 114.951724 
L 139.348206 112.951724 
" style="fill: none; stroke: #969696; stroke-width: 2; stroke-linecap: round"/>
    <path d="M 171.366209 112.951724 
L 175.366209 114.951724 
L 171.366209 116.951724 
" style="fill: none; stroke: #969696; stroke-width: 2; stroke-linecap: round"/>
   </g>
   <g id="text_3">
    <!-- Analog -->
    <g style="fill: #969696" transform="translate(143.682644 88.074626) scale(0.075 -0.075)">
     <defs>
      <path id="ArialMT-41" d="M -9 0 
L 1750 4581 
L 2403 4581 
L 4278 0 
L 3588 0 
L 3053 1388 
L 1138 1388 
L 634 0 
L -9 0 
z
M 1313 1881 
L 2866 1881 
L 2388 3150 
Q 2169 3728 2063 4100 
Q 1975 3659 1816 3225 
L 1313 1881 
z
" transform="scale(0.015625)"/>
      <path id="ArialMT-6e" d="M 422 0 
L 422 3319 
L 928 3319 
L 928 2847 
Q 1294 3394 1984 3394 
Q 2284 3394 2536 3286 
Q 2788 3178 2913 3003 
Q 3038 2828 3088 2588 
Q 3119 2431 3119 2041 
L 3119 0 
L 2556 0 
L 2556 2019 
Q 2556 2363 2490 2533 
Q 2425 2703 2258 2804 
Q 2091 2906 1866 2906 
Q 1506 2906 1245 2678 
Q 984 2450 984 1813 
L 984 0 
L 422 0 
z
" transform="scale(0.015625)"/>
      <path id="ArialMT-61" d="M 2588 409 
Q 2275 144 1986 34 
Q 1697 -75 1366 -75 
Q 819 -75 525 192 
Q 231 459 231 875 
Q 231 1119 342 1320 
Q 453 1522 633 1644 
Q 813 1766 1038 1828 
Q 1203 1872 1538 1913 
Q 2219 1994 2541 2106 
Q 2544 2222 2544 2253 
Q 2544 2597 2384 2738 
Q 2169 2928 1744 2928 
Q 1347 2928 1158 2789 
Q 969 2650 878 2297 
L 328 2372 
Q 403 2725 575 2942 
Q 747 3159 1072 3276 
Q 1397 3394 1825 3394 
Q 2250 3394 2515 3294 
Q 2781 3194 2906 3042 
Q 3031 2891 3081 2659 
Q 3109 2516 3109 2141 
L 3109 1391 
Q 3109 606 3145 398 
Q 3181 191 3288 0 
L 2700 0 
Q 2613 175 2588 409 
z
M 2541 1666 
Q 2234 1541 1622 1453 
Q 1275 1403 1131 1340 
Q 988 1278 909 1158 
Q 831 1038 831 891 
Q 831 666 1001 516 
Q 1172 366 1500 366 
Q 1825 366 2078 508 
Q 2331 650 2450 897 
Q 2541 1088 2541 1459 
L 2541 1666 
z
" transform="scale(0.015625)"/>
      <path id="ArialMT-6c" d="M 409 0 
L 409 4581 
L 972 4581 
L 972 0 
L 409 0 
z
" transform="scale(0.015625)"/>
      <path id="ArialMT-6f" d="M 213 1659 
Q 213 2581 725 3025 
Q 1153 3394 1769 3394 
Q 2453 3394 2887 2945 
Q 3322 2497 3322 1706 
Q 3322 1066 3130 698 
Q 2938 331 2570 128 
Q 2203 -75 1769 -75 
Q 1072 -75 642 372 
Q 213 819 213 1659 
z
M 791 1659 
Q 791 1022 1069 705 
Q 1347 388 1769 388 
Q 2188 388 2466 706 
Q 2744 1025 2744 1678 
Q 2744 2294 2464 2611 
Q 2184 2928 1769 2928 
Q 1347 2928 1069 2612 
Q 791 2297 791 1659 
z
" transform="scale(0.015625)"/>
      <path id="ArialMT-67" d="M 319 -275 
L 866 -356 
Q 900 -609 1056 -725 
Q 1266 -881 1628 -881 
Q 2019 -881 2231 -725 
Q 2444 -569 2519 -288 
Q 2563 -116 2559 434 
Q 2191 0 1641 0 
Q 956 0 581 494 
Q 206 988 206 1678 
Q 206 2153 378 2554 
Q 550 2956 876 3175 
Q 1203 3394 1644 3394 
Q 2231 3394 2613 2919 
L 2613 3319 
L 3131 3319 
L 3131 450 
Q 3131 -325 2973 -648 
Q 2816 -972 2473 -1159 
Q 2131 -1347 1631 -1347 
Q 1038 -1347 672 -1080 
Q 306 -813 319 -275 
z
M 784 1719 
Q 784 1066 1043 766 
Q 1303 466 1694 466 
Q 2081 466 2343 764 
Q 2606 1063 2606 1700 
Q 2606 2309 2336 2618 
Q 2066 2928 1684 2928 
Q 1309 2928 1046 2623 
Q 784 2319 784 1719 
z
" transform="scale(0.015625)"/>
     </defs>
     <use xlink:href="#ArialMT-41"/>
     <use xlink:href="#ArialMT-6e" transform="translate(66.699219 0)"/>
     <use xlink:href="#ArialMT-61" transform="translate(122.314453 0)"/>
     <use xlink:href="#ArialMT-6c" transform="translate(177.929688 0)"/>
     <use xlink:href="#ArialMT-6f" transform="translate(200.146484 0)"/>
     <use xlink:href="#ArialMT-67" transform="translate(255.761719 0)"/>
    </g>
    <!-- Local Loop -->
    <g style="fill: #969696" transform="translate(137.01116 96.095172) scale(0.075 -0.075)">
     <defs>
      <path id="ArialMT-4c" d="M 469 0 
L 469 4581 
L 1075 4581 
L 1075 541 
L 3331 541 
L 3331 0 
L 469 0 
z
" transform="scale(0.015625)"/>
      <path id="ArialMT-63" d="M 2588 1216 
L 3141 1144 
Q 3050 572 2676 248 
Q 2303 -75 1759 -75 
Q 1078 -75 664 370 
Q 250 816 250 1647 
Q 250 2184 428 2587 
Q 606 2991 970 3192 
Q 1334 3394 1763 3394 
Q 2303 3394 2647 3120 
Q 2991 2847 3088 2344 
L 2541 2259 
Q 2463 2594 2264 2762 
Q 2066 2931 1784 2931 
Q 1359 2931 1093 2626 
Q 828 2322 828 1663 
Q 828 994 1084 691 
Q 1341 388 1753 388 
Q 2084 388 2306 591 
Q 2528 794 2588 1216 
z
" transform="scale(0.015625)"/>
      <path id="ArialMT-20" transform="scale(0.015625)"/>
      <path id="ArialMT-70" d="M 422 -1272 
L 422 3319 
L 934 3319 
L 934 2888 
Q 1116 3141 1344 3267 
Q 1572 3394 1897 3394 
Q 2322 3394 2647 3175 
Q 2972 2956 3137 2557 
Q 3303 2159 3303 1684 
Q 3303 1175 3120 767 
Q 2938 359 2589 142 
Q 2241 -75 1856 -75 
Q 1575 -75 1351 44 
Q 1128 163 984 344 
L 984 -1272 
L 422 -1272 
z
M 931 1641 
Q 931 1000 1190 694 
Q 1450 388 1819 388 
Q 2194 388 2461 705 
Q 2728 1022 2728 1688 
Q 2728 2322 2467 2637 
Q 2206 2953 1844 2953 
Q 1484 2953 1207 2617 
Q 931 2281 931 1641 
z
" transform="scale(0.015625)"/>
     </defs>
     <use xlink:href="#ArialMT-4c"/>
     <use xlink:href="#ArialMT-6f" transform="translate(55.615234 0)"/>
     <use xlink:href="#ArialMT-63" transform="translate(111.230469 0)"/>
     <use xlink:href="#ArialMT-61" transform="translate(161.230469 0)"/>
     <use xlink:href="#ArialMT-6c" transform="translate(216.845703 0)"/>
     <use xlink:href="#ArialMT-20" transform="translate(239.0625 0)"/>
     <use xlink:href="#ArialMT-4c" transform="translate(266.845703 0)"/>
     <use xlink:href="#ArialMT-6f" transform="translate(322.460938 0)"/>
     <use xlink:href="#ArialMT-6f" transform="translate(378.076172 0)"/>
     <use xlink:href="#ArialMT-70" transform="translate(433.691406 0)"/>
    </g>
   </g>
   <g id="patch_8">
    <path d="M 202.230621 140.273379 
L 297.052138 140.273379 
Q 299.745931 140.273379 299.745931 137.579586 
L 299.745931 92.323862 
Q 299.745931 89.630069 297.052138 89.630069 
L 202.230621 89.630069 
Q 199.536828 89.630069 199.536828 92.323862 
L 199.536828 137.579586 
Q 199.536828 140.273379 202.230621 140.273379 
z
" clip-path="url(#pc4f00db51f)" style="fill: #7b3294; opacity: 0.92; stroke: #333333; stroke-linejoin: miter"/>
   </g>
   <g id="text_4">
    <!--    DAC -->
    <g style="fill: #7b3294" transform="translate(238.391379 160.795789) scale(0.075 -0.075)">
     <defs>
      <path id="Arial-BoldMT-41" d="M 4597 0 
L 3591 0 
L 3191 1041 
L 1359 1041 
L 981 0 
L 0 0 
L 1784 4581 
L 2763 4581 
L 4597 0 
z
M 2894 1813 
L 2263 3513 
L 1644 1813 
L 2894 1813 
z
" transform="scale(0.015625)"/>
      <path id="Arial-BoldMT-43" d="M 3397 1684 
L 4294 1400 
Q 4088 650 3608 286 
Q 3128 -78 2391 -78 
Q 1478 -78 890 545 
Q 303 1169 303 2250 
Q 303 3394 893 4026 
Q 1484 4659 2447 4659 
Q 3288 4659 3813 4163 
Q 4125 3869 4281 3319 
L 3366 3100 
Q 3284 3456 3026 3662 
Q 2769 3869 2400 3869 
Q 1891 3869 1573 3503 
Q 1256 3138 1256 2319 
Q 1256 1450 1568 1081 
Q 1881 713 2381 713 
Q 2750 713 3015 947 
Q 3281 1181 3397 1684 
z
" transform="scale(0.015625)"/>
     </defs>
     <use xlink:href="#Arial-BoldMT-20"/>
     <use xlink:href="#Arial-BoldMT-20" transform="translate(27.783203 0)"/>
     <use xlink:href="#Arial-BoldMT-20" transform="translate(55.566406 0)"/>
     <use xlink:href="#Arial-BoldMT-44" transform="translate(83.349609 0)"/>
     <use xlink:href="#Arial-BoldMT-41" transform="translate(155.566406 0)"/>
     <use xlink:href="#Arial-BoldMT-43" transform="translate(227.783203 0)"/>
    </g>
    <!-- (μ-law → voltage) -->
    <g style="fill: #7b3294" transform="translate(218.596067 168.827586) scale(0.075 -0.075)">
     <defs>
      <path id="Arial-BoldMT-28" d="M 1916 -1347 
L 1313 -1347 
Q 834 -625 584 153 
Q 334 931 334 1659 
Q 334 2563 644 3369 
Q 913 4069 1325 4659 
L 1925 4659 
Q 1497 3713 1336 3048 
Q 1175 2384 1175 1641 
Q 1175 1128 1270 590 
Q 1366 53 1531 -431 
Q 1641 -750 1916 -1347 
z
" transform="scale(0.015625)"/>
      <path id="Arial-BoldMT-3bc" d="M 450 3319 
L 1328 3319 
L 1328 1809 
Q 1328 1388 1372 1150 
Q 1416 913 1570 766 
Q 1725 619 1941 619 
Q 2166 619 2330 772 
Q 2494 925 2541 1144 
Q 2588 1363 2588 1800 
L 2588 3319 
L 3466 3319 
L 3466 0 
L 2656 0 
L 2656 400 
Q 2409 -75 1988 -75 
Q 1538 -75 1328 400 
L 1328 -1263 
L 450 -1263 
L 450 3319 
z
" transform="scale(0.015625)"/>
      <path id="Arial-BoldMT-6c" d="M 459 0 
L 459 4581 
L 1338 4581 
L 1338 0 
L 459 0 
z
" transform="scale(0.015625)"/>
      <path id="Arial-BoldMT-2192" d="M 4859 2738 
Q 5275 2284 5578 2048 
Q 5881 1813 6150 1697 
L 6150 1556 
Q 5841 1406 5550 1173 
Q 5259 941 4856 491 
L 4616 491 
Q 4909 1119 5231 1456 
L 247 1456 
L 247 1772 
L 5231 1772 
Q 4994 2072 4900 2220 
Q 4806 2369 4622 2738 
L 4859 2738 
z
" transform="scale(0.015625)"/>
      <path id="Arial-BoldMT-76" d="M 1372 0 
L 34 3319 
L 956 3319 
L 1581 1625 
L 1763 1059 
Q 1834 1275 1853 1344 
Q 1897 1484 1947 1625 
L 2578 3319 
L 3481 3319 
L 2163 0 
L 1372 0 
z
" transform="scale(0.015625)"/>
      <path id="Arial-BoldMT-67" d="M 378 -219 
L 1381 -341 
Q 1406 -516 1497 -581 
Q 1622 -675 1891 -675 
Q 2234 -675 2406 -572 
Q 2522 -503 2581 -350 
Q 2622 -241 2622 53 
L 2622 538 
Q 2228 0 1628 0 
Q 959 0 569 566 
Q 263 1013 263 1678 
Q 263 2513 664 2953 
Q 1066 3394 1663 3394 
Q 2278 3394 2678 2853 
L 2678 3319 
L 3500 3319 
L 3500 341 
Q 3500 -247 3403 -537 
Q 3306 -828 3131 -993 
Q 2956 -1159 2664 -1253 
Q 2372 -1347 1925 -1347 
Q 1081 -1347 728 -1058 
Q 375 -769 375 -325 
Q 375 -281 378 -219 
z
M 1163 1728 
Q 1163 1200 1367 954 
Q 1572 709 1872 709 
Q 2194 709 2416 961 
Q 2638 1213 2638 1706 
Q 2638 2222 2425 2472 
Q 2213 2722 1888 2722 
Q 1572 2722 1367 2476 
Q 1163 2231 1163 1728 
z
" transform="scale(0.015625)"/>
      <path id="Arial-BoldMT-29" d="M 216 -1347 
Q 475 -791 581 -494 
Q 688 -197 778 190 
Q 869 578 912 926 
Q 956 1275 956 1641 
Q 956 2384 797 3048 
Q 638 3713 209 4659 
L 806 4659 
Q 1278 3988 1539 3234 
Q 1800 2481 1800 1706 
Q 1800 1053 1594 306 
Q 1359 -531 822 -1347 
L 216 -1347 
z
" transform="scale(0.015625)"/>
     </defs>
     <use xlink:href="#Arial-BoldMT-28"/>
     <use xlink:href="#Arial-BoldMT-3bc" transform="translate(33.300781 0)"/>
     <use xlink:href="#Arial-BoldMT-2d" transform="translate(94.482422 0)"/>
     <use xlink:href="#Arial-BoldMT-6c" transform="translate(127.783203 0)"/>
     <use xlink:href="#Arial-BoldMT-61" transform="translate(155.566406 0)"/>
     <use xlink:href="#Arial-BoldMT-77" transform="translate(211.181641 0)"/>
     <use xlink:href="#Arial-BoldMT-20" transform="translate(288.964844 0)"/>
     <use xlink:href="#Arial-BoldMT-2192" transform="translate(316.748047 0)"/>
     <use xlink:href="#Arial-BoldMT-20" transform="translate(416.748047 0)"/>
     <use xlink:href="#Arial-BoldMT-76" transform="translate(444.53125 0)"/>
     <use xlink:href="#Arial-BoldMT-6f" transform="translate(500.146484 0)"/>
     <use xlink:href="#Arial-BoldMT-6c" transform="translate(561.230469 0)"/>
     <use xlink:href="#Arial-BoldMT-74" transform="translate(589.013672 0)"/>
     <use xlink:href="#Arial-BoldMT-61" transform="translate(622.314453 0)"/>
     <use xlink:href="#Arial-BoldMT-67" transform="translate(677.929688 0)"/>
     <use xlink:href="#Arial-BoldMT-65" transform="translate(739.013672 0)"/>
     <use xlink:href="#Arial-BoldMT-29" transform="translate(794.628906 0)"/>
    </g>
   </g>
   <g id="patch_9">
    <path d="M 249.641379 217.724706 
Q 249.641379 184.846559 249.641379 153.645462 
" style="fill: none; stroke: #cc0000; stroke-width: 1.5; stroke-linecap: round"/>
    <path d="M 247.841379 157.245462 
L 249.641379 153.645462 
L 251.441379 157.245462 
" style="fill: none; stroke: #cc0000; stroke-width: 1.5; stroke-linecap: round"/>
   </g>
   <g id="text_5">
    <g id="patch_10">
     <path d="M 224.137629 243.342301 
L 275.145129 243.342301 
Q 277.845129 243.342301 277.845129 240.642301 
L 277.845129 222.917644 
Q 277.845129 220.217644 275.145129 220.217644 
L 224.137629 220.217644 
Q 221.437629 220.217644 221.437629 222.917644 
L 221.437629 240.642301 
Q 221.437629 243.342301 224.137629 243.342301 
z
" style="fill: #ffeeee; opacity: 0.95; stroke: #cc0000; stroke-linejoin: miter"/>
    </g>
    <!-- ONLY D/A -->
    <g style="fill: #cc0000" transform="translate(228.630598 229.359676) scale(0.09 -0.09)">
     <defs>
      <path id="Arial-BoldMT-4f" d="M 278 2263 
Q 278 2963 488 3438 
Q 644 3788 914 4066 
Q 1184 4344 1506 4478 
Q 1934 4659 2494 4659 
Q 3506 4659 4114 4031 
Q 4722 3403 4722 2284 
Q 4722 1175 4119 548 
Q 3516 -78 2506 -78 
Q 1484 -78 881 545 
Q 278 1169 278 2263 
z
M 1231 2294 
Q 1231 1516 1590 1114 
Q 1950 713 2503 713 
Q 3056 713 3411 1111 
Q 3766 1509 3766 2306 
Q 3766 3094 3420 3481 
Q 3075 3869 2503 3869 
Q 1931 3869 1581 3476 
Q 1231 3084 1231 2294 
z
" transform="scale(0.015625)"/>
      <path id="Arial-BoldMT-4c" d="M 491 0 
L 491 4544 
L 1416 4544 
L 1416 772 
L 3716 772 
L 3716 0 
L 491 0 
z
" transform="scale(0.015625)"/>
      <path id="Arial-BoldMT-59" d="M 1669 0 
L 1669 1928 
L -9 4581 
L 1075 4581 
L 2153 2769 
L 3209 4581 
L 4275 4581 
L 2591 1922 
L 2591 0 
L 1669 0 
z
" transform="scale(0.015625)"/>
      <path id="Arial-BoldMT-2f" d="M -9 -78 
L 1125 4659 
L 1784 4659 
L 638 -78 
L -9 -78 
z
" transform="scale(0.015625)"/>
     </defs>
     <use xlink:href="#Arial-BoldMT-4f"/>
     <use xlink:href="#Arial-BoldMT-4e" transform="translate(77.783203 0)"/>
     <use xlink:href="#Arial-BoldMT-4c" transform="translate(150 0)"/>
     <use xlink:href="#Arial-BoldMT-59" transform="translate(201.958984 0)"/>
     <use xlink:href="#Arial-BoldMT-20" transform="translate(266.908203 0)"/>
     <use xlink:href="#Arial-BoldMT-44" transform="translate(294.691406 0)"/>
     <use xlink:href="#Arial-BoldMT-2f" transform="translate(366.908203 0)"/>
     <use xlink:href="#Arial-BoldMT-41" transform="translate(394.691406 0)"/>
    </g>
    <!-- conversion! -->
    <g style="fill: #cc0000" transform="translate(224.137629 238.866207) scale(0.09 -0.09)">
     <defs>
      <path id="Arial-BoldMT-63" d="M 3353 2338 
L 2488 2181 
Q 2444 2441 2289 2572 
Q 2134 2703 1888 2703 
Q 1559 2703 1364 2476 
Q 1169 2250 1169 1719 
Q 1169 1128 1367 884 
Q 1566 641 1900 641 
Q 2150 641 2309 783 
Q 2469 925 2534 1272 
L 3397 1125 
Q 3263 531 2881 228 
Q 2500 -75 1859 -75 
Q 1131 -75 698 384 
Q 266 844 266 1656 
Q 266 2478 700 2936 
Q 1134 3394 1875 3394 
Q 2481 3394 2839 3133 
Q 3197 2872 3353 2338 
z
" transform="scale(0.015625)"/>
      <path id="Arial-BoldMT-69" d="M 459 3769 
L 459 4581 
L 1338 4581 
L 1338 3769 
L 459 3769 
z
M 459 0 
L 459 3319 
L 1338 3319 
L 1338 0 
L 459 0 
z
" transform="scale(0.015625)"/>
      <path id="Arial-BoldMT-21" d="M 803 1181 
L 575 3506 
L 575 4581 
L 1525 4581 
L 1525 3506 
L 1300 1181 
L 803 1181 
z
M 613 0 
L 613 878 
L 1491 878 
L 1491 0 
L 613 0 
z
" transform="scale(0.015625)"/>
     </defs>
     <use xlink:href="#Arial-BoldMT-63"/>
     <use xlink:href="#Arial-BoldMT-6f" transform="translate(55.615234 0)"/>
     <use xlink:href="#Arial-BoldMT-6e" transform="translate(116.699219 0)"/>
     <use xlink:href="#Arial-BoldMT-76" transform="translate(177.783203 0)"/>
     <use xlink:href="#Arial-BoldMT-65" transform="translate(233.398438 0)"/>
     <use xlink:href="#Arial-BoldMT-72" transform="translate(289.013672 0)"/>
     <use xlink:href="#Arial-BoldMT-73" transform="translate(327.929688 0)"/>
     <use xlink:href="#Arial-BoldMT-69" transform="translate(383.544922 0)"/>
     <use xlink:href="#Arial-BoldMT-6f" transform="translate(411.328125 0)"/>
     <use xlink:href="#Arial-BoldMT-6e" transform="translate(472.412109 0)"/>
     <use xlink:href="#Arial-BoldMT-21" transform="translate(533.496094 0)"/>
    </g>
   </g>
   <g id="patch_11">
    <path d="M 344.462897 128.959448 
L 456.52469 128.959448 
Q 459.218483 128.959448 459.218483 126.265655 
L 459.218483 103.637793 
Q 459.218483 100.944 456.52469 100.944 
L 344.462897 100.944 
Q 341.769103 100.944 341.769103 103.637793 
L 341.769103 126.265655 
Q 341.769103 128.959448 344.462897 128.959448 
z
" clip-path="url(#pc4f00db51f)" style="fill: #238b45; opacity: 0.92; stroke: #333333; stroke-linejoin: miter"/>
   </g>
   <g id="text_6">
    <!-- 64 kbps DS0 (PCM) -->
    <g style="fill: #238b45" transform="translate(367.151606 144.583448) scale(0.075 -0.075)">
     <defs>
      <path id="Arial-ItalicMT-36" d="M 1288 2656 
Q 1525 2853 1761 2951 
Q 1997 3050 2228 3050 
Q 2750 3050 3090 2694 
Q 3431 2338 3431 1734 
Q 3431 956 2925 400 
Q 2488 -78 1863 -78 
Q 1294 -78 914 339 
Q 534 756 534 1528 
Q 534 2219 778 2956 
Q 966 3522 1242 3889 
Q 1519 4256 1830 4428 
Q 2141 4600 2531 4600 
Q 3000 4600 3297 4308 
Q 3594 4016 3634 3472 
L 3109 3422 
Q 3066 3794 2898 3959 
Q 2731 4125 2491 4125 
Q 2238 4125 1981 3928 
Q 1725 3731 1540 3345 
Q 1356 2959 1288 2656 
z
M 1091 1288 
Q 1091 900 1331 636 
Q 1572 372 1875 372 
Q 2088 372 2325 533 
Q 2563 694 2728 1022 
Q 2894 1350 2894 1675 
Q 2894 2094 2664 2345 
Q 2434 2597 2109 2597 
Q 1734 2597 1412 2230 
Q 1091 1863 1091 1288 
z
" transform="scale(0.015625)"/>
      <path id="Arial-ItalicMT-34" d="M 1913 0 
L 2159 1169 
L 291 1169 
L 409 1728 
L 2975 4581 
L 3438 4581 
L 2828 1669 
L 3472 1669 
L 3369 1169 
L 2725 1169 
L 2478 0 
L 1913 0 
z
M 2263 1669 
L 2663 3581 
L 956 1669 
L 2263 1669 
z
" transform="scale(0.015625)"/>
      <path id="Arial-ItalicMT-6b" d="M 219 0 
L 1178 4581 
L 1741 4581 
L 1147 1741 
L 2797 3319 
L 3544 3319 
L 2128 2081 
L 2984 0 
L 2366 0 
L 1703 1703 
L 1016 1109 
L 784 0 
L 219 0 
z
" transform="scale(0.015625)"/>
      <path id="Arial-ItalicMT-62" d="M 213 0 
L 1169 4581 
L 1734 4581 
L 1394 2944 
Q 1663 3191 1881 3292 
Q 2100 3394 2338 3394 
Q 2803 3394 3114 3047 
Q 3425 2700 3425 2038 
Q 3425 1597 3300 1231 
Q 3175 866 2990 617 
Q 2806 369 2609 220 
Q 2413 72 2206 -1 
Q 2000 -75 1809 -75 
Q 1481 -75 1231 98 
Q 981 272 841 628 
L 709 0 
L 213 0 
z
M 1050 1363 
L 1047 1256 
Q 1047 831 1250 609 
Q 1453 388 1756 388 
Q 2053 388 2301 595 
Q 2550 803 2709 1243 
Q 2869 1684 2869 2056 
Q 2869 2475 2667 2706 
Q 2466 2938 2169 2938 
Q 1863 2938 1606 2702 
Q 1350 2466 1178 1975 
Q 1050 1609 1050 1363 
z
" transform="scale(0.015625)"/>
      <path id="Arial-ItalicMT-70" d="M -66 -1272 
L 894 3319 
L 1416 3319 
L 1319 2856 
Q 1609 3159 1839 3276 
Q 2069 3394 2325 3394 
Q 2800 3394 3112 3048 
Q 3425 2703 3425 2059 
Q 3425 1541 3253 1114 
Q 3081 688 2831 428 
Q 2581 169 2325 47 
Q 2069 -75 1800 -75 
Q 1203 -75 875 531 
L 500 -1272 
L -66 -1272 
z
M 1053 1356 
Q 1053 984 1106 841 
Q 1184 638 1362 513 
Q 1541 388 1775 388 
Q 2263 388 2563 936 
Q 2863 1484 2863 2056 
Q 2863 2478 2661 2708 
Q 2459 2938 2159 2938 
Q 1944 2938 1759 2823 
Q 1575 2709 1417 2482 
Q 1259 2256 1156 1928 
Q 1053 1600 1053 1356 
z
" transform="scale(0.015625)"/>
      <path id="Arial-ItalicMT-44" d="M 284 0 
L 1241 4581 
L 2622 4581 
Q 3119 4581 3381 4509 
Q 3756 4413 4022 4164 
Q 4288 3916 4422 3544 
Q 4556 3172 4556 2709 
Q 4556 2156 4389 1701 
Q 4222 1247 3951 901 
Q 3681 556 3386 361 
Q 3091 166 2688 72 
Q 2381 0 1934 0 
L 284 0 
z
M 1006 519 
L 1731 519 
Q 2222 519 2603 609 
Q 2841 666 3009 775 
Q 3231 916 3413 1147 
Q 3650 1453 3792 1845 
Q 3934 2238 3934 2738 
Q 3934 3294 3740 3592 
Q 3547 3891 3247 3988 
Q 3025 4059 2556 4059 
L 1747 4059 
L 1006 519 
z
" transform="scale(0.015625)"/>
      <path id="Arial-ItalicMT-53" d="M 450 1481 
L 1050 1538 
L 1044 1378 
Q 1044 1113 1166 892 
Q 1288 672 1569 551 
Q 1850 431 2238 431 
Q 2788 431 3077 672 
Q 3366 913 3366 1222 
Q 3366 1438 3213 1616 
Q 3056 1791 2359 2091 
Q 1819 2325 1622 2450 
Q 1313 2653 1166 2892 
Q 1019 3131 1019 3438 
Q 1019 3791 1212 4075 
Q 1406 4359 1779 4509 
Q 2153 4659 2622 4659 
Q 3181 4659 3565 4471 
Q 3950 4284 4123 3971 
Q 4297 3659 4297 3375 
Q 4297 3347 4294 3281 
L 3703 3234 
Q 3703 3428 3669 3538 
Q 3606 3728 3475 3859 
Q 3344 3991 3114 4070 
Q 2884 4150 2600 4150 
Q 2100 4150 1822 3925 
Q 1609 3753 1609 3469 
Q 1609 3300 1696 3167 
Q 1784 3034 2013 2906 
Q 2175 2816 2784 2547 
Q 3278 2328 3466 2203 
Q 3716 2038 3850 1802 
Q 3984 1566 3984 1266 
Q 3984 894 3757 580 
Q 3531 266 3131 94 
Q 2731 -78 2216 -78 
Q 1438 -78 945 261 
Q 453 600 450 1481 
z
" transform="scale(0.015625)"/>
      <path id="Arial-ItalicMT-50" d="M 275 0 
L 1234 4581 
L 3147 4581 
Q 3644 4581 3892 4467 
Q 4141 4353 4303 4076 
Q 4466 3800 4466 3456 
Q 4466 3172 4350 2878 
Q 4234 2584 4057 2393 
Q 3881 2203 3700 2106 
Q 3519 2009 3313 1963 
Q 2872 1859 2422 1859 
L 1275 1859 
L 888 0 
L 275 0 
z
M 1384 2378 
L 2394 2378 
Q 2981 2378 3256 2504 
Q 3531 2631 3697 2890 
Q 3863 3150 3863 3441 
Q 3863 3666 3775 3808 
Q 3688 3950 3528 4017 
Q 3369 4084 2916 4084 
L 1741 4084 
L 1384 2378 
z
" transform="scale(0.015625)"/>
      <path id="Arial-ItalicMT-43" d="M 3859 1613 
L 4466 1528 
Q 4178 734 3628 328 
Q 3078 -78 2394 -78 
Q 1559 -78 1070 431 
Q 581 941 581 1891 
Q 581 3128 1325 3938 
Q 1988 4659 2972 4659 
Q 3700 4659 4151 4268 
Q 4603 3878 4675 3219 
L 4103 3166 
Q 4013 3663 3730 3908 
Q 3447 4153 3000 4153 
Q 2159 4153 1641 3406 
Q 1191 2763 1191 1878 
Q 1191 1172 1537 800 
Q 1884 428 2441 428 
Q 2916 428 3300 737 
Q 3684 1047 3859 1613 
z
" transform="scale(0.015625)"/>
      <path id="Arial-ItalicMT-4d" d="M 281 0 
L 1238 4581 
L 1991 4581 
L 2453 1613 
Q 2544 1028 2572 491 
Q 2763 953 3209 1744 
L 4816 4581 
L 5581 4581 
L 4625 0 
L 4022 0 
L 4500 2228 
Q 4666 3000 4975 3959 
Q 4778 3513 4488 2997 
L 2781 0 
L 2191 0 
L 1731 2938 
Q 1669 3341 1641 3878 
Q 1563 3275 1488 2922 
L 878 0 
L 281 0 
z
" transform="scale(0.015625)"/>
     </defs>
     <use xlink:href="#Arial-ItalicMT-36"/>
     <use xlink:href="#Arial-ItalicMT-34" transform="translate(55.615234 0)"/>
     <use xlink:href="#Arial-ItalicMT-20" transform="translate(111.230469 0)"/>
     <use xlink:href="#Arial-ItalicMT-6b" transform="translate(139.013672 0)"/>
     <use xlink:href="#Arial-ItalicMT-62" transform="translate(189.013672 0)"/>
     <use xlink:href="#Arial-ItalicMT-70" transform="translate(244.628906 0)"/>
     <use xlink:href="#Arial-ItalicMT-73" transform="translate(300.244141 0)"/>
     <use xlink:href="#Arial-ItalicMT-20" transform="translate(350.244141 0)"/>
     <use xlink:href="#Arial-ItalicMT-44" transform="translate(378.027344 0)"/>
     <use xlink:href="#Arial-ItalicMT-53" transform="translate(450.244141 0)"/>
     <use xlink:href="#Arial-ItalicMT-30" transform="translate(516.943359 0)"/>
     <use xlink:href="#Arial-ItalicMT-20" transform="translate(572.558594 0)"/>
     <use xlink:href="#Arial-ItalicMT-28" transform="translate(600.341797 0)"/>
     <use xlink:href="#Arial-ItalicMT-50" transform="translate(633.642578 0)"/>
     <use xlink:href="#Arial-ItalicMT-43" transform="translate(700.341797 0)"/>
     <use xlink:href="#Arial-ItalicMT-4d" transform="translate(772.558594 0)"/>
     <use xlink:href="#Arial-ItalicMT-29" transform="translate(855.859375 0)"/>
    </g>
   </g>
   <g id="patch_12">
    <path d="M 486.695172 132.730759 
L 572.896552 132.730759 
Q 575.590345 132.730759 575.590345 130.036966 
L 575.590345 99.866483 
Q 575.590345 97.17269 572.896552 97.17269 
L 486.695172 97.17269 
Q 484.001379 97.17269 484.001379 99.866483 
L 484.001379 130.036966 
Q 484.001379 132.730759 486.695172 132.730759 
z
" clip-path="url(#pc4f00db51f)" style="fill: #969696; opacity: 0.92; stroke: #333333; stroke-linejoin: miter"/>
   </g>
   <g id="patch_13">
    <path d="M 610.609655 136.502069 
L 696.811034 136.502069 
Q 699.504828 136.502069 699.504828 133.808276 
L 699.504828 96.095172 
Q 699.504828 93.401379 696.811034 93.401379 
L 610.609655 93.401379 
Q 607.915862 93.401379 607.915862 96.095172 
L 607.915862 133.808276 
Q 607.915862 136.502069 610.609655 136.502069 
z
" clip-path="url(#pc4f00db51f)" style="fill: #2171b5; opacity: 0.92; stroke: #333333; stroke-linejoin: miter"/>
   </g>
   <g id="text_7">
    <!-- V.90 TX -->
    <g style="fill: #2171b5" transform="translate(640.439446 150.01007) scale(0.075 -0.075)">
     <defs>
      <path id="Arial-ItalicMT-54" d="M 1453 0 
L 2300 4059 
L 797 4059 
L 906 4581 
L 4513 4581 
L 4403 4059 
L 2913 4059 
L 2066 0 
L 1453 0 
z
" transform="scale(0.015625)"/>
     </defs>
     <use xlink:href="#Arial-ItalicMT-56"/>
     <use xlink:href="#Arial-ItalicMT-2e" transform="translate(59.324219 0)"/>
     <use xlink:href="#Arial-ItalicMT-39" transform="translate(87.107422 0)"/>
     <use xlink:href="#Arial-ItalicMT-30" transform="translate(142.722656 0)"/>
     <use xlink:href="#Arial-ItalicMT-20" transform="translate(198.337891 0)"/>
     <use xlink:href="#Arial-ItalicMT-54" transform="translate(226.121094 0)"/>
     <use xlink:href="#Arial-ItalicMT-58" transform="translate(287.205078 0)"/>
    </g>
    <!-- (server) -->
    <g style="fill: #2171b5" transform="translate(640.79511 158.052414) scale(0.075 -0.075)">
     <defs>
      <path id="Arial-ItalicMT-72" d="M 213 0 
L 906 3319 
L 1406 3319 
L 1266 2641 
Q 1522 3025 1767 3209 
Q 2013 3394 2269 3394 
Q 2438 3394 2684 3272 
L 2453 2747 
Q 2306 2853 2131 2853 
Q 1834 2853 1521 2522 
Q 1209 2191 1031 1331 
L 750 0 
L 213 0 
z
" transform="scale(0.015625)"/>
      <path id="Arial-ItalicMT-76" d="M 1050 0 
L 506 3319 
L 1056 3319 
L 1341 1491 
Q 1388 1191 1456 513 
Q 1619 866 1872 1322 
L 2981 3319 
L 3578 3319 
L 1678 0 
L 1050 0 
z
" transform="scale(0.015625)"/>
     </defs>
     <use xlink:href="#Arial-ItalicMT-28"/>
     <use xlink:href="#Arial-ItalicMT-73" transform="translate(33.300781 0)"/>
     <use xlink:href="#Arial-ItalicMT-65" transform="translate(83.300781 0)"/>
     <use xlink:href="#Arial-ItalicMT-72" transform="translate(138.916016 0)"/>
     <use xlink:href="#Arial-ItalicMT-76" transform="translate(172.216797 0)"/>
     <use xlink:href="#Arial-ItalicMT-65" transform="translate(222.216797 0)"/>
     <use xlink:href="#Arial-ItalicMT-72" transform="translate(277.832031 0)"/>
     <use xlink:href="#Arial-ItalicMT-29" transform="translate(311.132812 0)"/>
    </g>
   </g>
   <g id="patch_14">
    <path d="M 651.712073 276.57931 
Q 370.86284 276.57931 92.808693 276.57931 
" style="fill: none; stroke-dasharray: 9.25,4; stroke-dashoffset: 0; stroke: #2171b5; stroke-width: 2.5; stroke-linecap: round"/>
    <path d="M 96.808693 278.57931 
L 92.808693 276.57931 
L 96.808693 274.57931 
" style="fill: none; stroke-dasharray: 9.25,4; stroke-dashoffset: 0; stroke: #2171b5; stroke-width: 2.5; stroke-linecap: round"/>
   </g>
   <g id="text_8">
    <!-- DOWNSTREAM (up to 56 kbps): PCM codewords as constellation points -->
    <g style="fill: #2171b5" transform="translate(216.612616 295.435862) scale(0.09 -0.09)">
     <defs>
      <path id="Arial-BoldMT-57" d="M 1116 0 
L 22 4581 
L 969 4581 
L 1659 1434 
L 2497 4581 
L 3597 4581 
L 4400 1381 
L 5103 4581 
L 6034 4581 
L 4922 0 
L 3941 0 
L 3028 3425 
L 2119 0 
L 1116 0 
z
" transform="scale(0.015625)"/>
      <path id="Arial-BoldMT-52" d="M 469 0 
L 469 4581 
L 2416 4581 
Q 3150 4581 3483 4457 
Q 3816 4334 4016 4018 
Q 4216 3703 4216 3297 
Q 4216 2781 3912 2445 
Q 3609 2109 3006 2022 
Q 3306 1847 3501 1637 
Q 3697 1428 4028 894 
L 4588 0 
L 3481 0 
L 2813 997 
Q 2456 1531 2325 1670 
Q 2194 1809 2047 1861 
Q 1900 1913 1581 1913 
L 1394 1913 
L 1394 0 
L 469 0 
z
M 1394 2644 
L 2078 2644 
Q 2744 2644 2909 2700 
Q 3075 2756 3169 2893 
Q 3263 3031 3263 3238 
Q 3263 3469 3139 3611 
Q 3016 3753 2791 3791 
Q 2678 3806 2116 3806 
L 1394 3806 
L 1394 2644 
z
" transform="scale(0.015625)"/>
      <path id="Arial-BoldMT-4d" d="M 453 0 
L 453 4581 
L 1838 4581 
L 2669 1456 
L 3491 4581 
L 4878 4581 
L 4878 0 
L 4019 0 
L 4019 3606 
L 3109 0 
L 2219 0 
L 1313 3606 
L 1313 0 
L 453 0 
z
" transform="scale(0.015625)"/>
      <path id="Arial-BoldMT-75" d="M 2644 0 
L 2644 497 
Q 2463 231 2167 78 
Q 1872 -75 1544 -75 
Q 1209 -75 943 72 
Q 678 219 559 484 
Q 441 750 441 1219 
L 441 3319 
L 1319 3319 
L 1319 1794 
Q 1319 1094 1367 936 
Q 1416 778 1544 686 
Q 1672 594 1869 594 
Q 2094 594 2272 717 
Q 2450 841 2515 1023 
Q 2581 1206 2581 1919 
L 2581 3319 
L 3459 3319 
L 3459 0 
L 2644 0 
z
" transform="scale(0.015625)"/>
      <path id="Arial-BoldMT-70" d="M 434 3319 
L 1253 3319 
L 1253 2831 
Q 1413 3081 1684 3237 
Q 1956 3394 2288 3394 
Q 2866 3394 3269 2941 
Q 3672 2488 3672 1678 
Q 3672 847 3265 386 
Q 2859 -75 2281 -75 
Q 2006 -75 1782 34 
Q 1559 144 1313 409 
L 1313 -1263 
L 434 -1263 
L 434 3319 
z
M 1303 1716 
Q 1303 1156 1525 889 
Q 1747 622 2066 622 
Q 2372 622 2575 867 
Q 2778 1113 2778 1672 
Q 2778 2194 2568 2447 
Q 2359 2700 2050 2700 
Q 1728 2700 1515 2451 
Q 1303 2203 1303 1716 
z
" transform="scale(0.015625)"/>
      <path id="Arial-BoldMT-35" d="M 284 1178 
L 1159 1269 
Q 1197 972 1381 798 
Q 1566 625 1806 625 
Q 2081 625 2272 848 
Q 2463 1072 2463 1522 
Q 2463 1944 2273 2155 
Q 2084 2366 1781 2366 
Q 1403 2366 1103 2031 
L 391 2134 
L 841 4519 
L 3163 4519 
L 3163 3697 
L 1506 3697 
L 1369 2919 
Q 1663 3066 1969 3066 
Q 2553 3066 2959 2641 
Q 3366 2216 3366 1538 
Q 3366 972 3038 528 
Q 2591 -78 1797 -78 
Q 1163 -78 763 262 
Q 363 603 284 1178 
z
" transform="scale(0.015625)"/>
      <path id="Arial-BoldMT-36" d="M 3247 3459 
L 2397 3366 
Q 2366 3628 2234 3753 
Q 2103 3878 1894 3878 
Q 1616 3878 1423 3628 
Q 1231 3378 1181 2588 
Q 1509 2975 1997 2975 
Q 2547 2975 2939 2556 
Q 3331 2138 3331 1475 
Q 3331 772 2918 347 
Q 2506 -78 1859 -78 
Q 1166 -78 719 461 
Q 272 1000 272 2228 
Q 272 3488 737 4044 
Q 1203 4600 1947 4600 
Q 2469 4600 2811 4308 
Q 3153 4016 3247 3459 
z
M 1256 1544 
Q 1256 1116 1453 883 
Q 1650 650 1903 650 
Q 2147 650 2309 840 
Q 2472 1031 2472 1466 
Q 2472 1913 2297 2120 
Q 2122 2328 1859 2328 
Q 1606 2328 1431 2129 
Q 1256 1931 1256 1544 
z
" transform="scale(0.015625)"/>
      <path id="Arial-BoldMT-6b" d="M 428 0 
L 428 4581 
L 1306 4581 
L 1306 2150 
L 2334 3319 
L 3416 3319 
L 2281 2106 
L 3497 0 
L 2550 0 
L 1716 1491 
L 1306 1063 
L 1306 0 
L 428 0 
z
" transform="scale(0.015625)"/>
      <path id="Arial-BoldMT-62" d="M 422 0 
L 422 4581 
L 1300 4581 
L 1300 2931 
Q 1706 3394 2263 3394 
Q 2869 3394 3266 2955 
Q 3663 2516 3663 1694 
Q 3663 844 3258 384 
Q 2853 -75 2275 -75 
Q 1991 -75 1714 67 
Q 1438 209 1238 488 
L 1238 0 
L 422 0 
z
M 1294 1731 
Q 1294 1216 1456 969 
Q 1684 619 2063 619 
Q 2353 619 2558 867 
Q 2763 1116 2763 1650 
Q 2763 2219 2556 2470 
Q 2350 2722 2028 2722 
Q 1713 2722 1503 2476 
Q 1294 2231 1294 1731 
z
" transform="scale(0.015625)"/>
      <path id="Arial-BoldMT-3a" d="M 628 2441 
L 628 3319 
L 1506 3319 
L 1506 2441 
L 628 2441 
z
M 628 0 
L 628 878 
L 1506 878 
L 1506 0 
L 628 0 
z
" transform="scale(0.015625)"/>
     </defs>
     <use xlink:href="#Arial-BoldMT-44"/>
     <use xlink:href="#Arial-BoldMT-4f" transform="translate(72.216797 0)"/>
     <use xlink:href="#Arial-BoldMT-57" transform="translate(150 0)"/>
     <use xlink:href="#Arial-BoldMT-4e" transform="translate(244.384766 0)"/>
     <use xlink:href="#Arial-BoldMT-53" transform="translate(316.601562 0)"/>
     <use xlink:href="#Arial-BoldMT-54" transform="translate(383.300781 0)"/>
     <use xlink:href="#Arial-BoldMT-52" transform="translate(444.384766 0)"/>
     <use xlink:href="#Arial-BoldMT-45" transform="translate(516.601562 0)"/>
     <use xlink:href="#Arial-BoldMT-41" transform="translate(583.300781 0)"/>
     <use xlink:href="#Arial-BoldMT-4d" transform="translate(655.517578 0)"/>
     <use xlink:href="#Arial-BoldMT-20" transform="translate(738.818359 0)"/>
     <use xlink:href="#Arial-BoldMT-28" transform="translate(766.601562 0)"/>
     <use xlink:href="#Arial-BoldMT-75" transform="translate(799.902344 0)"/>
     <use xlink:href="#Arial-BoldMT-70" transform="translate(860.986328 0)"/>
     <use xlink:href="#Arial-BoldMT-20" transform="translate(922.070312 0)"/>
     <use xlink:href="#Arial-BoldMT-74" transform="translate(949.853516 0)"/>
     <use xlink:href="#Arial-BoldMT-6f" transform="translate(983.154297 0)"/>
     <use xlink:href="#Arial-BoldMT-20" transform="translate(1044.238281 0)"/>
     <use xlink:href="#Arial-BoldMT-35" transform="translate(1072.021484 0)"/>
     <use xlink:href="#Arial-BoldMT-36" transform="translate(1127.636719 0)"/>
     <use xlink:href="#Arial-BoldMT-20" transform="translate(1183.251953 0)"/>
     <use xlink:href="#Arial-BoldMT-6b" transform="translate(1211.035156 0)"/>
     <use xlink:href="#Arial-BoldMT-62" transform="translate(1266.650391 0)"/>
     <use xlink:href="#Arial-BoldMT-70" transform="translate(1327.734375 0)"/>
     <use xlink:href="#Arial-BoldMT-73" transform="translate(1388.818359 0)"/>
     <use xlink:href="#Arial-BoldMT-29" transform="translate(1444.433594 0)"/>
     <use xlink:href="#Arial-BoldMT-3a" transform="translate(1477.734375 0)"/>
     <use xlink:href="#Arial-BoldMT-20" transform="translate(1511.035156 0)"/>
     <use xlink:href="#Arial-BoldMT-50" transform="translate(1538.818359 0)"/>
     <use xlink:href="#Arial-BoldMT-43" transform="translate(1605.517578 0)"/>
     <use xlink:href="#Arial-BoldMT-4d" transform="translate(1677.734375 0)"/>
     <use xlink:href="#Arial-BoldMT-20" transform="translate(1761.035156 0)"/>
     <use xlink:href="#Arial-BoldMT-63" transform="translate(1788.818359 0)"/>
     <use xlink:href="#Arial-BoldMT-6f" transform="translate(1844.433594 0)"/>
     <use xlink:href="#Arial-BoldMT-64" transform="translate(1905.517578 0)"/>
     <use xlink:href="#Arial-BoldMT-65" transform="translate(1966.601562 0)"/>
     <use xlink:href="#Arial-BoldMT-77" transform="translate(2022.216797 0)"/>
     <use xlink:href="#Arial-BoldMT-6f" transform="translate(2100 0)"/>
     <use xlink:href="#Arial-BoldMT-72" transform="translate(2161.083984 0)"/>
     <use xlink:href="#Arial-BoldMT-64" transform="translate(2200 0)"/>
     <use xlink:href="#Arial-BoldMT-73" transform="translate(2261.083984 0)"/>
     <use xlink:href="#Arial-BoldMT-20" transform="translate(2316.699219 0)"/>
     <use xlink:href="#Arial-BoldMT-61" transform="translate(2344.482422 0)"/>
     <use xlink:href="#Arial-BoldMT-73" transform="translate(2400.097656 0)"/>
     <use xlink:href="#Arial-BoldMT-20" transform="translate(2455.712891 0)"/>
     <use xlink:href="#Arial-BoldMT-63" transform="translate(2483.496094 0)"/>
     <use xlink:href="#Arial-BoldMT-6f" transform="translate(2539.111328 0)"/>
     <use xlink:href="#Arial-BoldMT-6e" transform="translate(2600.195312 0)"/>
     <use xlink:href="#Arial-BoldMT-73" transform="translate(2661.279297 0)"/>
     <use xlink:href="#Arial-BoldMT-74" transform="translate(2716.894531 0)"/>
     <use xlink:href="#Arial-BoldMT-65" transform="translate(2750.195312 0)"/>
     <use xlink:href="#Arial-BoldMT-6c" transform="translate(2805.810547 0)"/>
     <use xlink:href="#Arial-BoldMT-6c" transform="translate(2833.59375 0)"/>
     <use xlink:href="#Arial-BoldMT-61" transform="translate(2861.376953 0)"/>
     <use xlink:href="#Arial-BoldMT-74" transform="translate(2916.992188 0)"/>
     <use xlink:href="#Arial-BoldMT-69" transform="translate(2950.292969 0)"/>
     <use xlink:href="#Arial-BoldMT-6f" transform="translate(2978.076172 0)"/>
     <use xlink:href="#Arial-BoldMT-6e" transform="translate(3039.160156 0)"/>
     <use xlink:href="#Arial-BoldMT-20" transform="translate(3100.244141 0)"/>
     <use xlink:href="#Arial-BoldMT-70" transform="translate(3128.027344 0)"/>
     <use xlink:href="#Arial-BoldMT-6f" transform="translate(3189.111328 0)"/>
     <use xlink:href="#Arial-BoldMT-69" transform="translate(3250.195312 0)"/>
     <use xlink:href="#Arial-BoldMT-6e" transform="translate(3277.978516 0)"/>
     <use xlink:href="#Arial-BoldMT-74" transform="translate(3339.0625 0)"/>
     <use xlink:href="#Arial-BoldMT-73" transform="translate(3372.363281 0)"/>
    </g>
   </g>
   <g id="patch_15">
    <path d="M 90.012065 61.075862 
Q 370.861298 61.075862 648.915445 61.075862 
" style="fill: none; stroke-dasharray: 9.25,4; stroke-dashoffset: 0; stroke: #d94701; stroke-width: 2.5; stroke-linecap: round"/>
    <path d="M 644.915445 59.075862 
L 648.915445 61.075862 
L 644.915445 63.075862 
" style="fill: none; stroke-dasharray: 9.25,4; stroke-dashoffset: 0; stroke: #d94701; stroke-width: 2.5; stroke-linecap: round"/>
   </g>
   <g id="text_9">
    <!-- UPSTREAM (up to 33.6 kbps V.34 / 48 kbps V.92): analog QAM/PCM -->
    <g style="fill: #d94701" transform="translate(227.662928 50.30069) scale(0.09 -0.09)">
     <defs>
      <path id="Arial-BoldMT-55" d="M 459 4581 
L 1384 4581 
L 1384 2100 
Q 1384 1509 1419 1334 
Q 1478 1053 1701 883 
Q 1925 713 2313 713 
Q 2706 713 2906 873 
Q 3106 1034 3147 1268 
Q 3188 1503 3188 2047 
L 3188 4581 
L 4113 4581 
L 4113 2175 
Q 4113 1350 4038 1009 
Q 3963 669 3761 434 
Q 3559 200 3221 61 
Q 2884 -78 2341 -78 
Q 1684 -78 1345 73 
Q 1006 225 809 467 
Q 613 709 550 975 
Q 459 1369 459 2138 
L 459 4581 
z
" transform="scale(0.015625)"/>
      <path id="Arial-BoldMT-33" d="M 241 1216 
L 1091 1319 
Q 1131 994 1309 822 
Q 1488 650 1741 650 
Q 2013 650 2198 856 
Q 2384 1063 2384 1413 
Q 2384 1744 2206 1937 
Q 2028 2131 1772 2131 
Q 1603 2131 1369 2066 
L 1466 2781 
Q 1822 2772 2009 2936 
Q 2197 3100 2197 3372 
Q 2197 3603 2059 3740 
Q 1922 3878 1694 3878 
Q 1469 3878 1309 3722 
Q 1150 3566 1116 3266 
L 306 3403 
Q 391 3819 561 4067 
Q 731 4316 1036 4458 
Q 1341 4600 1719 4600 
Q 2366 4600 2756 4188 
Q 3078 3850 3078 3425 
Q 3078 2822 2419 2463 
Q 2813 2378 3048 2084 
Q 3284 1791 3284 1375 
Q 3284 772 2843 347 
Q 2403 -78 1747 -78 
Q 1125 -78 715 280 
Q 306 638 241 1216 
z
" transform="scale(0.015625)"/>
      <path id="Arial-BoldMT-34" d="M 1994 0 
L 1994 922 
L 119 922 
L 119 1691 
L 2106 4600 
L 2844 4600 
L 2844 1694 
L 3413 1694 
L 3413 922 
L 2844 922 
L 2844 0 
L 1994 0 
z
M 1994 1694 
L 1994 3259 
L 941 1694 
L 1994 1694 
z
" transform="scale(0.015625)"/>
      <path id="Arial-BoldMT-38" d="M 1025 2472 
Q 684 2616 529 2867 
Q 375 3119 375 3419 
Q 375 3931 733 4265 
Q 1091 4600 1750 4600 
Q 2403 4600 2764 4265 
Q 3125 3931 3125 3419 
Q 3125 3100 2959 2851 
Q 2794 2603 2494 2472 
Q 2875 2319 3073 2025 
Q 3272 1731 3272 1347 
Q 3272 713 2867 316 
Q 2463 -81 1791 -81 
Q 1166 -81 750 247 
Q 259 634 259 1309 
Q 259 1681 443 1992 
Q 628 2303 1025 2472 
z
M 1206 3356 
Q 1206 3094 1354 2947 
Q 1503 2800 1750 2800 
Q 2000 2800 2150 2948 
Q 2300 3097 2300 3359 
Q 2300 3606 2151 3754 
Q 2003 3903 1759 3903 
Q 1506 3903 1356 3753 
Q 1206 3603 1206 3356 
z
M 1125 1394 
Q 1125 1031 1311 828 
Q 1497 625 1775 625 
Q 2047 625 2225 820 
Q 2403 1016 2403 1384 
Q 2403 1706 2222 1901 
Q 2041 2097 1763 2097 
Q 1441 2097 1283 1875 
Q 1125 1653 1125 1394 
z
" transform="scale(0.015625)"/>
      <path id="Arial-BoldMT-32" d="M 3238 816 
L 3238 0 
L 159 0 
Q 209 463 459 877 
Q 709 1291 1447 1975 
Q 2041 2528 2175 2725 
Q 2356 2997 2356 3263 
Q 2356 3556 2198 3714 
Q 2041 3872 1763 3872 
Q 1488 3872 1325 3706 
Q 1163 3541 1138 3156 
L 263 3244 
Q 341 3969 753 4284 
Q 1166 4600 1784 4600 
Q 2463 4600 2850 4234 
Q 3238 3869 3238 3325 
Q 3238 3016 3127 2736 
Q 3016 2456 2775 2150 
Q 2616 1947 2200 1565 
Q 1784 1184 1673 1059 
Q 1563 934 1494 816 
L 3238 816 
z
" transform="scale(0.015625)"/>
      <path id="Arial-BoldMT-51" d="M 4153 581 
Q 4494 338 4894 194 
L 4553 -459 
Q 4344 -397 4144 -288 
Q 4100 -266 3528 119 
Q 3078 -78 2531 -78 
Q 1475 -78 876 544 
Q 278 1166 278 2291 
Q 278 3413 878 4036 
Q 1478 4659 2506 4659 
Q 3525 4659 4122 4036 
Q 4719 3413 4719 2291 
Q 4719 1697 4553 1247 
Q 4428 903 4153 581 
z
M 3409 1103 
Q 3588 1313 3677 1609 
Q 3766 1906 3766 2291 
Q 3766 3084 3416 3476 
Q 3066 3869 2500 3869 
Q 1934 3869 1582 3475 
Q 1231 3081 1231 2291 
Q 1231 1488 1582 1089 
Q 1934 691 2472 691 
Q 2672 691 2850 756 
Q 2569 941 2278 1044 
L 2538 1572 
Q 2994 1416 3409 1103 
z
" transform="scale(0.015625)"/>
     </defs>
     <use xlink:href="#Arial-BoldMT-55"/>
     <use xlink:href="#Arial-BoldMT-50" transform="translate(72.216797 0)"/>
     <use xlink:href="#Arial-BoldMT-53" transform="translate(138.916016 0)"/>
     <use xlink:href="#Arial-BoldMT-54" transform="translate(205.615234 0)"/>
     <use xlink:href="#Arial-BoldMT-52" transform="translate(266.699219 0)"/>
     <use xlink:href="#Arial-BoldMT-45" transform="translate(338.916016 0)"/>
     <use xlink:href="#Arial-BoldMT-41" transform="translate(405.615234 0)"/>
     <use xlink:href="#Arial-BoldMT-4d" transform="translate(477.832031 0)"/>
     <use xlink:href="#Arial-BoldMT-20" transform="translate(561.132812 0)"/>
     <use xlink:href="#Arial-BoldMT-28" transform="translate(588.916016 0)"/>
     <use xlink:href="#Arial-BoldMT-75" transform="translate(622.216797 0)"/>
     <use xlink:href="#Arial-BoldMT-70" transform="translate(683.300781 0)"/>
     <use xlink:href="#Arial-BoldMT-20" transform="translate(744.384766 0)"/>
     <use xlink:href="#Arial-BoldMT-74" transform="translate(772.167969 0)"/>
     <use xlink:href="#Arial-BoldMT-6f" transform="translate(805.46875 0)"/>
     <use xlink:href="#Arial-BoldMT-20" transform="translate(866.552734 0)"/>
     <use xlink:href="#Arial-BoldMT-33" transform="translate(894.335938 0)"/>
     <use xlink:href="#Arial-BoldMT-33" transform="translate(949.951172 0)"/>
     <use xlink:href="#Arial-BoldMT-2e" transform="translate(1005.566406 0)"/>
     <use xlink:href="#Arial-BoldMT-36" transform="translate(1033.349609 0)"/>
     <use xlink:href="#Arial-BoldMT-20" transform="translate(1088.964844 0)"/>
     <use xlink:href="#Arial-BoldMT-6b" transform="translate(1116.748047 0)"/>
     <use xlink:href="#Arial-BoldMT-62" transform="translate(1172.363281 0)"/>
     <use xlink:href="#Arial-BoldMT-70" transform="translate(1233.447266 0)"/>
     <use xlink:href="#Arial-BoldMT-73" transform="translate(1294.53125 0)"/>
     <use xlink:href="#Arial-BoldMT-20" transform="translate(1350.146484 0)"/>
     <use xlink:href="#Arial-BoldMT-56" transform="translate(1377.929688 0)"/>
     <use xlink:href="#Arial-BoldMT-2e" transform="translate(1435.503906 0)"/>
     <use xlink:href="#Arial-BoldMT-33" transform="translate(1463.287109 0)"/>
     <use xlink:href="#Arial-BoldMT-34" transform="translate(1518.902344 0)"/>
     <use xlink:href="#Arial-BoldMT-20" transform="translate(1574.517578 0)"/>
     <use xlink:href="#Arial-BoldMT-2f" transform="translate(1602.300781 0)"/>
     <use xlink:href="#Arial-BoldMT-20" transform="translate(1630.083984 0)"/>
     <use xlink:href="#Arial-BoldMT-34" transform="translate(1657.867188 0)"/>
     <use xlink:href="#Arial-BoldMT-38" transform="translate(1713.482422 0)"/>
     <use xlink:href="#Arial-BoldMT-20" transform="translate(1769.097656 0)"/>
     <use xlink:href="#Arial-BoldMT-6b" transform="translate(1796.880859 0)"/>
     <use xlink:href="#Arial-BoldMT-62" transform="translate(1852.496094 0)"/>
     <use xlink:href="#Arial-BoldMT-70" transform="translate(1913.580078 0)"/>
     <use xlink:href="#Arial-BoldMT-73" transform="translate(1974.664062 0)"/>
     <use xlink:href="#Arial-BoldMT-20" transform="translate(2030.279297 0)"/>
     <use xlink:href="#Arial-BoldMT-56" transform="translate(2058.0625 0)"/>
     <use xlink:href="#Arial-BoldMT-2e" transform="translate(2115.636719 0)"/>
     <use xlink:href="#Arial-BoldMT-39" transform="translate(2143.419922 0)"/>
     <use xlink:href="#Arial-BoldMT-32" transform="translate(2199.035156 0)"/>
     <use xlink:href="#Arial-BoldMT-29" transform="translate(2254.650391 0)"/>
     <use xlink:href="#Arial-BoldMT-3a" transform="translate(2287.951172 0)"/>
     <use xlink:href="#Arial-BoldMT-20" transform="translate(2321.251953 0)"/>
     <use xlink:href="#Arial-BoldMT-61" transform="translate(2349.035156 0)"/>
     <use xlink:href="#Arial-BoldMT-6e" transform="translate(2404.650391 0)"/>
     <use xlink:href="#Arial-BoldMT-61" transform="translate(2465.734375 0)"/>
     <use xlink:href="#Arial-BoldMT-6c" transform="translate(2521.349609 0)"/>
     <use xlink:href="#Arial-BoldMT-6f" transform="translate(2549.132812 0)"/>
     <use xlink:href="#Arial-BoldMT-67" transform="translate(2610.216797 0)"/>
     <use xlink:href="#Arial-BoldMT-20" transform="translate(2671.300781 0)"/>
     <use xlink:href="#Arial-BoldMT-51" transform="translate(2699.083984 0)"/>
     <use xlink:href="#Arial-BoldMT-41" transform="translate(2776.867188 0)"/>
     <use xlink:href="#Arial-BoldMT-4d" transform="translate(2849.083984 0)"/>
     <use xlink:href="#Arial-BoldMT-2f" transform="translate(2932.384766 0)"/>
     <use xlink:href="#Arial-BoldMT-50" transform="translate(2960.167969 0)"/>
     <use xlink:href="#Arial-BoldMT-43" transform="translate(3026.867188 0)"/>
     <use xlink:href="#Arial-BoldMT-4d" transform="translate(3099.083984 0)"/>
    </g>
   </g>
   <g id="text_10">
    <!-- ── Analog Domain ── -->
    <g style="fill: #999999" transform="translate(130.619188 260.416552) scale(0.075 -0.075)">
     <defs>
      <path id="Arial-ItalicMT-2500" d="M 4603 1669 
L -72 1669 
L -72 2216 
L 4603 2216 
L 4603 1669 
z
" transform="scale(0.015625)"/>
      <path id="Arial-ItalicMT-41" d="M -128 0 
L 2469 4581 
L 3191 4581 
L 3947 0 
L 3353 0 
L 3131 1319 
L 1278 1319 
L 544 0 
L -128 0 
z
M 1541 1791 
L 3056 1791 
L 2878 2941 
Q 2775 3625 2750 4081 
Q 2594 3688 2294 3147 
L 1541 1791 
z
" transform="scale(0.015625)"/>
      <path id="Arial-ItalicMT-6e" d="M 213 0 
L 906 3319 
L 1419 3319 
L 1297 2741 
Q 1631 3081 1922 3237 
Q 2213 3394 2516 3394 
Q 2919 3394 3148 3175 
Q 3378 2956 3378 2591 
Q 3378 2406 3297 2009 
L 2875 0 
L 2309 0 
L 2750 2103 
Q 2816 2409 2816 2556 
Q 2816 2722 2702 2825 
Q 2588 2928 2372 2928 
Q 1938 2928 1598 2615 
Q 1259 2303 1100 1544 
L 778 0 
L 213 0 
z
" transform="scale(0.015625)"/>
      <path id="Arial-ItalicMT-61" d="M 2450 413 
Q 2156 159 1884 42 
Q 1613 -75 1303 -75 
Q 844 -75 562 195 
Q 281 466 281 888 
Q 281 1166 407 1380 
Q 534 1594 743 1723 
Q 953 1853 1256 1909 
Q 1447 1947 1980 1969 
Q 2513 1991 2744 2081 
Q 2809 2313 2809 2466 
Q 2809 2663 2666 2775 
Q 2469 2931 2091 2931 
Q 1734 2931 1507 2773 
Q 1281 2616 1178 2325 
L 606 2375 
Q 781 2869 1161 3131 
Q 1541 3394 2119 3394 
Q 2734 3394 3094 3100 
Q 3369 2881 3369 2531 
Q 3369 2266 3291 1916 
L 3106 1091 
Q 3019 697 3019 450 
Q 3019 294 3088 0 
L 2516 0 
Q 2469 163 2450 413 
z
M 2659 1681 
Q 2541 1634 2405 1609 
Q 2269 1584 1950 1556 
Q 1456 1513 1253 1445 
Q 1050 1378 947 1231 
Q 844 1084 844 906 
Q 844 669 1008 516 
Q 1172 363 1475 363 
Q 1756 363 2015 511 
Q 2275 659 2425 925 
Q 2575 1191 2659 1681 
z
" transform="scale(0.015625)"/>
      <path id="Arial-ItalicMT-6c" d="M 169 0 
L 1125 4581 
L 1691 4581 
L 734 0 
L 169 0 
z
" transform="scale(0.015625)"/>
      <path id="Arial-ItalicMT-67" d="M 181 -300 
L 753 -353 
Q 747 -547 800 -644 
Q 853 -741 969 -794 
Q 1122 -863 1366 -863 
Q 1878 -863 2103 -597 
Q 2250 -419 2375 178 
L 2431 447 
Q 1991 0 1494 0 
Q 991 0 652 370 
Q 313 741 313 1419 
Q 313 1978 580 2447 
Q 847 2916 1215 3155 
Q 1584 3394 1975 3394 
Q 2628 3394 2981 2775 
L 3094 3319 
L 3613 3319 
L 2944 116 
Q 2834 -413 2656 -708 
Q 2478 -1003 2161 -1165 
Q 1844 -1328 1428 -1328 
Q 1028 -1328 739 -1225 
Q 450 -1122 308 -923 
Q 166 -725 166 -469 
Q 166 -391 181 -300 
z
M 888 1469 
Q 888 1128 953 956 
Q 1047 716 1220 589 
Q 1394 463 1606 463 
Q 1884 463 2159 658 
Q 2434 853 2604 1262 
Q 2775 1672 2775 2044 
Q 2775 2453 2548 2695 
Q 2322 2938 1988 2938 
Q 1781 2938 1587 2827 
Q 1394 2716 1226 2489 
Q 1059 2263 973 1947 
Q 888 1631 888 1469 
z
" transform="scale(0.015625)"/>
      <path id="Arial-ItalicMT-6d" d="M 209 0 
L 903 3319 
L 1469 3319 
L 1353 2772 
Q 1669 3125 1917 3259 
Q 2166 3394 2456 3394 
Q 2766 3394 2973 3230 
Q 3181 3066 3247 2772 
Q 3500 3084 3779 3239 
Q 4059 3394 4369 3394 
Q 4784 3394 4992 3197 
Q 5200 3000 5200 2644 
Q 5200 2491 5128 2138 
L 4681 0 
L 4116 0 
L 4572 2194 
Q 4631 2463 4631 2578 
Q 4631 2741 4528 2834 
Q 4425 2928 4238 2928 
Q 3984 2928 3721 2775 
Q 3459 2622 3314 2373 
Q 3169 2125 3059 1609 
L 2722 0 
L 2156 0 
L 2625 2241 
Q 2675 2469 2675 2566 
Q 2675 2728 2573 2828 
Q 2472 2928 2309 2928 
Q 2069 2928 1805 2775 
Q 1541 2622 1375 2348 
Q 1209 2075 1103 1569 
L 775 0 
L 209 0 
z
" transform="scale(0.015625)"/>
     </defs>
     <use xlink:href="#Arial-ItalicMT-2500"/>
     <use xlink:href="#Arial-ItalicMT-2500" transform="translate(70.849609 0)"/>
     <use xlink:href="#Arial-ItalicMT-20" transform="translate(141.699219 0)"/>
     <use xlink:href="#Arial-ItalicMT-41" transform="translate(165.732422 0)"/>
     <use xlink:href="#Arial-ItalicMT-6e" transform="translate(232.431641 0)"/>
     <use xlink:href="#Arial-ItalicMT-61" transform="translate(288.046875 0)"/>
     <use xlink:href="#Arial-ItalicMT-6c" transform="translate(343.662109 0)"/>
     <use xlink:href="#Arial-ItalicMT-6f" transform="translate(365.878906 0)"/>
     <use xlink:href="#Arial-ItalicMT-67" transform="translate(421.494141 0)"/>
     <use xlink:href="#Arial-ItalicMT-20" transform="translate(477.109375 0)"/>
     <use xlink:href="#Arial-ItalicMT-44" transform="translate(504.892578 0)"/>
     <use xlink:href="#Arial-ItalicMT-6f" transform="translate(577.109375 0)"/>
     <use xlink:href="#Arial-ItalicMT-6d" transform="translate(632.724609 0)"/>
     <use xlink:href="#Arial-ItalicMT-61" transform="translate(716.025391 0)"/>
     <use xlink:href="#Arial-ItalicMT-69" transform="translate(771.640625 0)"/>
     <use xlink:href="#Arial-ItalicMT-6e" transform="translate(793.857422 0)"/>
     <use xlink:href="#Arial-ItalicMT-20" transform="translate(849.472656 0)"/>
     <use xlink:href="#Arial-ItalicMT-2500" transform="translate(877.255859 0)"/>
     <use xlink:href="#Arial-ItalicMT-2500" transform="translate(948.105469 0)"/>
    </g>
   </g>
   <g id="text_11">
    <!-- ── Digital Domain ── -->
    <g style="fill: #999999" transform="translate(454.989399 260.416552) scale(0.075 -0.075)">
     <use xlink:href="#Arial-ItalicMT-2500"/>
     <use xlink:href="#Arial-ItalicMT-2500" transform="translate(70.849609 0)"/>
     <use xlink:href="#Arial-ItalicMT-20" transform="translate(141.699219 0)"/>
     <use xlink:href="#Arial-ItalicMT-44" transform="translate(169.482422 0)"/>
     <use xlink:href="#Arial-ItalicMT-69" transform="translate(241.699219 0)"/>
     <use xlink:href="#Arial-ItalicMT-67" transform="translate(263.916016 0)"/>
     <use xlink:href="#Arial-ItalicMT-69" transform="translate(319.53125 0)"/>
     <use xlink:href="#Arial-ItalicMT-74" transform="translate(341.748047 0)"/>
     <use xlink:href="#Arial-ItalicMT-61" transform="translate(369.53125 0)"/>
     <use xlink:href="#Arial-ItalicMT-6c" transform="translate(425.146484 0)"/>
     <use xlink:href="#Arial-ItalicMT-20" transform="translate(447.363281 0)"/>
     <use xlink:href="#Arial-ItalicMT-44" transform="translate(475.146484 0)"/>
     <use xlink:href="#Arial-ItalicMT-6f" transform="translate(547.363281 0)"/>
     <use xlink:href="#Arial-ItalicMT-6d" transform="translate(602.978516 0)"/>
     <use xlink:href="#Arial-ItalicMT-61" transform="translate(686.279297 0)"/>
     <use xlink:href="#Arial-ItalicMT-69" transform="translate(741.894531 0)"/>
     <use xlink:href="#Arial-ItalicMT-6e" transform="translate(764.111328 0)"/>
     <use xlink:href="#Arial-ItalicMT-20" transform="translate(819.726562 0)"/>
     <use xlink:href="#Arial-ItalicMT-2500" transform="translate(847.509766 0)"/>
     <use xlink:href="#Arial-ItalicMT-2500" transform="translate(918.359375 0)"/>
    </g>
   </g>
   <g id="text_12">
    <!-- Client -->
    <g style="fill: #ffffff" transform="translate(74.125512 109.029954) scale(0.1 -0.1)">
     <use xlink:href="#Arial-BoldMT-43"/>
     <use xlink:href="#Arial-BoldMT-6c" transform="translate(72.216797 0)"/>
     <use xlink:href="#Arial-BoldMT-69" transform="translate(100 0)"/>
     <use xlink:href="#Arial-BoldMT-65" transform="translate(127.783203 0)"/>
     <use xlink:href="#Arial-BoldMT-6e" transform="translate(183.398438 0)"/>
     <use xlink:href="#Arial-BoldMT-74" transform="translate(244.482422 0)"/>
    </g>
    <!-- Modem -->
    <g style="fill: #ffffff" transform="translate(70.514574 119.592766) scale(0.1 -0.1)">
     <use xlink:href="#Arial-BoldMT-4d"/>
     <use xlink:href="#Arial-BoldMT-6f" transform="translate(83.300781 0)"/>
     <use xlink:href="#Arial-BoldMT-64" transform="translate(144.384766 0)"/>
     <use xlink:href="#Arial-BoldMT-65" transform="translate(205.46875 0)"/>
     <use xlink:href="#Arial-BoldMT-6d" transform="translate(261.083984 0)"/>
    </g>
   </g>
   <g id="text_13">
    <!-- (analogue) -->
    <g style="fill: #e0e0e0" transform="translate(71.281059 124.305595) scale(0.07 -0.07)">
     <defs>
      <path id="Arial-ItalicMT-75" d="M 2478 600 
Q 1881 -75 1256 -75 
Q 872 -75 636 145 
Q 400 366 400 684 
Q 400 894 506 1403 
L 906 3319 
L 1472 3319 
L 1028 1197 
Q 972 931 972 784 
Q 972 597 1086 492 
Q 1200 388 1422 388 
Q 1659 388 1886 503 
Q 2113 619 2277 816 
Q 2441 1013 2544 1281 
Q 2613 1453 2703 1884 
L 3003 3319 
L 3569 3319 
L 2875 0 
L 2353 0 
L 2478 600 
z
" transform="scale(0.015625)"/>
     </defs>
     <use xlink:href="#Arial-ItalicMT-28"/>
     <use xlink:href="#Arial-ItalicMT-61" transform="translate(33.300781 0)"/>
     <use xlink:href="#Arial-ItalicMT-6e" transform="translate(88.916016 0)"/>
     <use xlink:href="#Arial-ItalicMT-61" transform="translate(144.53125 0)"/>
     <use xlink:href="#Arial-ItalicMT-6c" transform="translate(200.146484 0)"/>
     <use xlink:href="#Arial-ItalicMT-6f" transform="translate(222.363281 0)"/>
     <use xlink:href="#Arial-ItalicMT-67" transform="translate(277.978516 0)"/>
     <use xlink:href="#Arial-ItalicMT-75" transform="translate(333.59375 0)"/>
     <use xlink:href="#Arial-ItalicMT-65" transform="translate(389.208984 0)"/>
     <use xlink:href="#Arial-ItalicMT-29" transform="translate(444.824219 0)"/>
    </g>
   </g>
   <g id="text_14">
    <!-- Central -->
    <g style="fill: #ffffff" transform="translate(232.415598 112.262505) scale(0.1 -0.1)">
     <use xlink:href="#Arial-BoldMT-43"/>
     <use xlink:href="#Arial-BoldMT-65" transform="translate(72.216797 0)"/>
     <use xlink:href="#Arial-BoldMT-6e" transform="translate(127.832031 0)"/>
     <use xlink:href="#Arial-BoldMT-74" transform="translate(188.916016 0)"/>
     <use xlink:href="#Arial-BoldMT-72" transform="translate(222.216797 0)"/>
     <use xlink:href="#Arial-BoldMT-61" transform="translate(261.132812 0)"/>
     <use xlink:href="#Arial-BoldMT-6c" transform="translate(316.748047 0)"/>
    </g>
    <!-- Office -->
    <g style="fill: #ffffff" transform="translate(235.472629 122.825318) scale(0.1 -0.1)">
     <use xlink:href="#Arial-BoldMT-4f"/>
     <use xlink:href="#Arial-BoldMT-66" transform="translate(77.783203 0)"/>
     <use xlink:href="#Arial-BoldMT-66" transform="translate(111.083984 0)"/>
     <use xlink:href="#Arial-BoldMT-69" transform="translate(144.384766 0)"/>
     <use xlink:href="#Arial-BoldMT-63" transform="translate(172.167969 0)"/>
     <use xlink:href="#Arial-BoldMT-65" transform="translate(227.783203 0)"/>
    </g>
   </g>
   <g id="text_15">
    <!-- Digital Trunk -->
    <g style="fill: #ffffff" transform="translate(370.214106 117.478287) scale(0.1 -0.1)">
     <use xlink:href="#Arial-BoldMT-44"/>
     <use xlink:href="#Arial-BoldMT-69" transform="translate(72.216797 0)"/>
     <use xlink:href="#Arial-BoldMT-67" transform="translate(100 0)"/>
     <use xlink:href="#Arial-BoldMT-69" transform="translate(161.083984 0)"/>
     <use xlink:href="#Arial-BoldMT-74" transform="translate(188.867188 0)"/>
     <use xlink:href="#Arial-BoldMT-61" transform="translate(222.167969 0)"/>
     <use xlink:href="#Arial-BoldMT-6c" transform="translate(277.783203 0)"/>
     <use xlink:href="#Arial-BoldMT-20" transform="translate(305.566406 0)"/>
     <use xlink:href="#Arial-BoldMT-54" transform="translate(333.349609 0)"/>
     <use xlink:href="#Arial-BoldMT-72" transform="translate(388.933594 0)"/>
     <use xlink:href="#Arial-BoldMT-75" transform="translate(427.849609 0)"/>
     <use xlink:href="#Arial-BoldMT-6e" transform="translate(488.933594 0)"/>
     <use xlink:href="#Arial-BoldMT-6b" transform="translate(550.017578 0)"/>
    </g>
   </g>
   <g id="text_16">
    <!-- Digital -->
    <g style="fill: #ffffff" transform="translate(514.518518 112.19688) scale(0.1 -0.1)">
     <use xlink:href="#Arial-BoldMT-44"/>
     <use xlink:href="#Arial-BoldMT-69" transform="translate(72.216797 0)"/>
     <use xlink:href="#Arial-BoldMT-67" transform="translate(100 0)"/>
     <use xlink:href="#Arial-BoldMT-69" transform="translate(161.083984 0)"/>
     <use xlink:href="#Arial-BoldMT-74" transform="translate(188.867188 0)"/>
     <use xlink:href="#Arial-BoldMT-61" transform="translate(222.167969 0)"/>
     <use xlink:href="#Arial-BoldMT-6c" transform="translate(277.783203 0)"/>
    </g>
    <!-- Switch -->
    <g style="fill: #ffffff" transform="translate(513.683362 122.890943) scale(0.1 -0.1)">
     <use xlink:href="#Arial-BoldMT-53"/>
     <use xlink:href="#Arial-BoldMT-77" transform="translate(66.699219 0)"/>
     <use xlink:href="#Arial-BoldMT-69" transform="translate(144.482422 0)"/>
     <use xlink:href="#Arial-BoldMT-74" transform="translate(172.265625 0)"/>
     <use xlink:href="#Arial-BoldMT-63" transform="translate(205.566406 0)"/>
     <use xlink:href="#Arial-BoldMT-68" transform="translate(261.181641 0)"/>
    </g>
   </g>
   <g id="text_17">
    <!-- ISP Digital -->
    <g style="fill: #ffffff" transform="translate(629.072064 109.025266) scale(0.1 -0.1)">
     <defs>
      <path id="Arial-BoldMT-49" d="M 438 0 
L 438 4581 
L 1363 4581 
L 1363 0 
L 438 0 
z
" transform="scale(0.015625)"/>
     </defs>
     <use xlink:href="#Arial-BoldMT-49"/>
     <use xlink:href="#Arial-BoldMT-53" transform="translate(27.783203 0)"/>
     <use xlink:href="#Arial-BoldMT-50" transform="translate(94.482422 0)"/>
     <use xlink:href="#Arial-BoldMT-20" transform="translate(159.431641 0)"/>
     <use xlink:href="#Arial-BoldMT-44" transform="translate(187.214844 0)"/>
     <use xlink:href="#Arial-BoldMT-69" transform="translate(259.431641 0)"/>
     <use xlink:href="#Arial-BoldMT-67" transform="translate(287.214844 0)"/>
     <use xlink:href="#Arial-BoldMT-69" transform="translate(348.298828 0)"/>
     <use xlink:href="#Arial-BoldMT-74" transform="translate(376.082031 0)"/>
     <use xlink:href="#Arial-BoldMT-61" transform="translate(409.382812 0)"/>
     <use xlink:href="#Arial-BoldMT-6c" transform="translate(464.998047 0)"/>
    </g>
    <!-- Modem -->
    <g style="fill: #ffffff" transform="translate(636.211126 119.719329) scale(0.1 -0.1)">
     <use xlink:href="#Arial-BoldMT-4d"/>
     <use xlink:href="#Arial-BoldMT-6f" transform="translate(83.300781 0)"/>
     <use xlink:href="#Arial-BoldMT-64" transform="translate(144.384766 0)"/>
     <use xlink:href="#Arial-BoldMT-65" transform="translate(205.46875 0)"/>
     <use xlink:href="#Arial-BoldMT-6d" transform="translate(261.083984 0)"/>
    </g>
   </g>
   <g id="text_18">
    <!-- (no codec) -->
    <g style="fill: #e0e0e0" transform="translate(637.175579 124.305595) scale(0.07 -0.07)">
     <use xlink:href="#Arial-ItalicMT-28"/>
     <use xlink:href="#Arial-ItalicMT-6e" transform="translate(33.300781 0)"/>
     <use xlink:href="#Arial-ItalicMT-6f" transform="translate(88.916016 0)"/>
     <use xlink:href="#Arial-ItalicMT-20" transform="translate(144.53125 0)"/>
     <use xlink:href="#Arial-ItalicMT-63" transform="translate(172.314453 0)"/>
     <use xlink:href="#Arial-ItalicMT-6f" transform="translate(222.314453 0)"/>
     <use xlink:href="#Arial-ItalicMT-64" transform="translate(277.929688 0)"/>
     <use xlink:href="#Arial-ItalicMT-65" transform="translate(333.544922 0)"/>
     <use xlink:href="#Arial-ItalicMT-63" transform="translate(389.160156 0)"/>
     <use xlink:href="#Arial-ItalicMT-29" transform="translate(439.160156 0)"/>
    </g>
   </g>
  </g>
 </g>
 <defs>
  <clipPath id="pc4f00db51f">
   <rect x="7.2" y="7.2" width="781.2" height="323.255172"/>
  </clipPath>
 </defs>
</svg>
