<?xml version="1.0" encoding="UTF-8" standalone="no"?>
<!-- Created with Inkscape (http://www.inkscape.org/) -->

<svg
   width="75.464012mm"
   height="59.535713mm"
   viewBox="0 0 75.464012 59.535713"
   version="1.1"
   id="svg1"
   inkscape:version="1.3.2 (091e20ef0f, 2023-11-25, custom)"
   sodipodi:docname="qpsk.svg"
   xmlns:inkscape="http://www.inkscape.org/namespaces/inkscape"
   xmlns:sodipodi="http://sodipodi.sourceforge.net/DTD/sodipodi-0.dtd"
   xmlns="http://www.w3.org/2000/svg"
   xmlns:svg="http://www.w3.org/2000/svg">
  <sodipodi:namedview
     id="namedview1"
     pagecolor="#ffffff"
     bordercolor="#999999"
     borderopacity="1"
     inkscape:showpageshadow="0"
     inkscape:pageopacity="0"
     inkscape:pagecheckerboard="0"
     inkscape:deskcolor="#d1d1d1"
     inkscape:document-units="mm"
     inkscape:zoom="1.1893044"
     inkscape:cx="11.351173"
     inkscape:cy="34.053519"
     inkscape:window-width="1920"
     inkscape:window-height="1035"
     inkscape:window-x="1920"
     inkscape:window-y="24"
     inkscape:window-maximized="1"
     inkscape:current-layer="layer1" />
  <defs
     id="defs1" />
  <g
     inkscape:label="Layer 1"
     inkscape:groupmode="layer"
     id="layer1"
     transform="translate(-138.37708,-165.24294)">
    <path
       fill="none"
       stroke-width="0.142884"
       stroke-linecap="butt"
       stroke-linejoin="miter"
       stroke="#000000"
       stroke-opacity="1"
       stroke-miterlimit="10"
       d="m 138.37708,196.65706 h 70.29916"
       id="path151" />
    <path
       fill="none"
       stroke-width="0.142884"
       stroke-linecap="butt"
       stroke-linejoin="miter"
       stroke="#000000"
       stroke-opacity="1"
       stroke-miterlimit="10"
       d="M 173.52528,224.77865 V 168.5396"
       id="path152" />
    <path
       fill="none"
       stroke-width="0.142884"
       stroke-linecap="butt"
       stroke-linejoin="miter"
       stroke="#000000"
       stroke-opacity="1"
       stroke-miterlimit="10"
       d="m 155.9498,197.36399 v -1.40697"
       id="path153" />
    <path
       fill="none"
       stroke-width="0.142884"
       stroke-linecap="butt"
       stroke-linejoin="miter"
       stroke="#000000"
       stroke-opacity="1"
       stroke-miterlimit="10"
       d="m 158.4027,199.29324 h 3.71243"
       id="path154" />
    <path
       fill="none"
       stroke-width="0.120657"
       stroke-linecap="butt"
       stroke-linejoin="miter"
       stroke="#000000"
       stroke-opacity="1"
       stroke-miterlimit="10"
       d="m 160.71091,199.68461 h 1.40422"
       id="path155" />
    <path
       fill="none"
       stroke-width="0.142884"
       stroke-linecap="butt"
       stroke-linejoin="miter"
       stroke="#000000"
       stroke-opacity="1"
       stroke-miterlimit="10"
       d="m 191.09938,197.36399 v -1.40697"
       id="path156" />
    <path
       fill="none"
       stroke-width="0.142884"
       stroke-linecap="butt"
       stroke-linejoin="miter"
       stroke="#000000"
       stroke-opacity="1"
       stroke-miterlimit="10"
       d="m 193.54953,199.29324 h 3.71105"
       id="path157" />
    <path
       fill="none"
       stroke-width="0.120657"
       stroke-linecap="butt"
       stroke-linejoin="miter"
       stroke="#000000"
       stroke-opacity="1"
       stroke-miterlimit="10"
       d="m 195.86049,199.68461 h 1.40423"
       id="path158" />
    <path
       fill="none"
       stroke-width="0.142884"
       stroke-linecap="butt"
       stroke-linejoin="miter"
       stroke="#000000"
       stroke-opacity="1"
       stroke-miterlimit="10"
       d="m 172.8211,182.60109 h 1.40698"
       id="path159" />
    <path
       fill="none"
       stroke-width="0.142884"
       stroke-linecap="butt"
       stroke-linejoin="miter"
       stroke="#000000"
       stroke-opacity="1"
       stroke-miterlimit="10"
       d="m 172.8211,210.71717 h 1.40698"
       id="path160" />
    <path
       fill="none"
       stroke-width="0.142884"
       stroke-linecap="butt"
       stroke-linejoin="miter"
       stroke="#000000"
       stroke-opacity="1"
       stroke-miterlimit="10"
       d="m 178.43798,181.7219 h 3.71243"
       id="path161" />
    <path
       fill="none"
       stroke-width="0.120657"
       stroke-linecap="butt"
       stroke-linejoin="miter"
       stroke="#000000"
       stroke-opacity="1"
       stroke-miterlimit="10"
       d="m 180.74619,182.11051 h 1.40422"
       id="path162" />
    <path
       fill="none"
       stroke-width="0.142884"
       stroke-linecap="butt"
       stroke-linejoin="miter"
       stroke="#000000"
       stroke-opacity="1"
       stroke-miterlimit="10"
       d="m 178.43798,210.18938 h 3.71243"
       id="path163" />
    <path
       fill="none"
       stroke-width="0.120657"
       stroke-linecap="butt"
       stroke-linejoin="miter"
       stroke="#000000"
       stroke-opacity="1"
       stroke-miterlimit="10"
       d="m 180.74619,210.58212 h 1.40422"
       id="path164" />
    <g
       fill="#000000"
       fill-opacity="1"
       id="g257"
       transform="matrix(0.35277777,0,0,0.35277777,53.574077,117.82617)">
      <g
         id="use257"
         transform="translate(335.01599,138.81599)">
        <path
           d="M 3.71875,-3.765625 C 3.53125,-4.140625 3.25,-4.40625 2.796875,-4.40625 c -1.15625,0 -2.390625,1.46875 -2.390625,2.921875 0,0.9375 0.546875,1.59375 1.3125,1.59375 0.203125,0 0.703125,-0.046875 1.296875,-0.75 0.078125,0.421875 0.4375,0.75 0.90625,0.75 0.359375,0 0.578125,-0.234375 0.75,-0.546875 0.15625,-0.359375 0.296875,-0.96875 0.296875,-0.984375 0,-0.109375 -0.09375,-0.109375 -0.125,-0.109375 -0.09375,0 -0.109375,0.046875 -0.140625,0.1875 -0.171875,0.640625 -0.34375,1.234375 -0.75,1.234375 -0.28125,0 -0.296875,-0.265625 -0.296875,-0.453125 0,-0.21875 0.015625,-0.3125 0.125,-0.75 C 3.890625,-1.71875 3.90625,-1.828125 4,-2.203125 4.171875,-2.84375 4.203125,-3.03125 4.359375,-3.59375 c 0.0625,-0.28125 0.0625,-0.296875 0.0625,-0.34375 0,-0.171875 -0.109375,-0.265625 -0.28125,-0.265625 -0.25,0 -0.390625,0.21875 -0.421875,0.4375 z M 3.078125,-1.1875 C 3.015625,-1 3.015625,-0.984375 2.875,-0.8125 2.4375,-0.265625 2.03125,-0.109375 1.75,-0.109375 c -0.5,0 -0.640625,-0.546875 -0.640625,-0.9375 0,-0.5 0.3125,-1.71875 0.546875,-2.1875 0.3125,-0.578125 0.75,-0.953125 1.15625,-0.953125 0.640625,0 0.78125,0.8125 0.78125,0.875 0,0.0625 -0.015625,0.125 -0.03125,0.171875 z m 0,0"
           id="path20" />
      </g>
    </g>
    <g
       fill="#000000"
       fill-opacity="1"
       id="g258"
       transform="matrix(0.35277777,0,0,0.35277777,53.574077,117.82617)">
      <g
         id="use258"
         transform="translate(340.28079,140.3101)">
        <path
           d="m 3.546875,-2.875 c 0,-0.03125 0.015625,-0.0625 0.015625,-0.09375 0,-0.046875 -0.03125,-0.109375 -0.09375,-0.109375 -0.0625,0 -0.359375,0.234375 -0.5,0.46875 -0.0625,-0.140625 -0.296875,-0.46875 -0.75,-0.46875 -0.890625,0 -1.796875,0.984375 -1.796875,1.984375 0,0.6875 0.453125,1.15625 1.0625,1.15625 0.390625,0 0.71875,-0.25 0.875,-0.375 C 2.34375,-0.296875 2.125,0.578125 2.109375,0.703125 2,1.09375 2,1.09375 1.5625,1.09375 c -0.078125,0 -0.171875,0 -0.171875,0.15625 0,0.046875 0.03125,0.109375 0.09375,0.109375 0.234375,0 0.5,-0.03125 0.734375,-0.03125 0.234375,0 0.53125,0.03125 0.75,0.03125 0.0625,0 0.125,-0.03125 0.125,-0.15625 C 3.09375,1.09375 3,1.09375 2.921875,1.09375 c -0.15625,0 -0.34375,0 -0.34375,-0.078125 0,-0.015625 0,-0.03125 0.03125,-0.15625 z M 2.5,-0.875 C 2.453125,-0.765625 2.453125,-0.75 2.375,-0.640625 2.09375,-0.3125 1.765625,-0.125 1.5,-0.125 c -0.265625,0 -0.515625,-0.1875 -0.515625,-0.671875 0,-0.375 0.203125,-1.140625 0.375,-1.421875 0.3125,-0.5625 0.671875,-0.65625 0.859375,-0.65625 0.484375,0 0.625,0.53125 0.625,0.609375 0,0.03125 -0.015625,0.078125 -0.015625,0.09375 z m 0,0"
           id="path19" />
      </g>
    </g>
    <g
       fill="#000000"
       fill-opacity="1"
       id="g260"
       transform="matrix(0.35277777,0,0,0.35277777,53.574077,117.82617)">
      <g
         id="use260"
         transform="translate(357.02121,179.73019)">
        <path
           d="m 2.9375,-2.65625 c -0.140625,-0.234375 -0.375,-0.421875 -0.71875,-0.421875 -0.890625,0 -1.796875,0.984375 -1.796875,1.984375 0,0.6875 0.453125,1.15625 1.0625,1.15625 0.375,0 0.703125,-0.203125 0.984375,-0.484375 C 2.59375,0 3,0.0625 3.1875,0.0625 c 0.25,0 0.421875,-0.140625 0.546875,-0.359375 0.15625,-0.28125 0.25,-0.671875 0.25,-0.703125 0,-0.09375 -0.09375,-0.09375 -0.109375,-0.09375 -0.109375,0 -0.109375,0.03125 -0.15625,0.21875 C 3.625,-0.53125 3.5,-0.125 3.203125,-0.125 3.03125,-0.125 2.96875,-0.28125 2.96875,-0.46875 c 0,-0.109375 0.0625,-0.375 0.109375,-0.546875 0.046875,-0.1875 0.125,-0.46875 0.15625,-0.625 C 3.296875,-1.90625 3.3125,-1.9375 3.375,-2.171875 3.421875,-2.359375 3.5,-2.6875 3.5,-2.71875 3.5,-2.875 3.375,-2.9375 3.265625,-2.9375 c -0.125,0 -0.28125,0.078125 -0.328125,0.28125 z M 2.5,-0.875 C 2.453125,-0.671875 2.296875,-0.53125 2.140625,-0.40625 2.078125,-0.34375 1.796875,-0.125 1.5,-0.125 c -0.265625,0 -0.515625,-0.1875 -0.515625,-0.671875 0,-0.375 0.203125,-1.140625 0.375,-1.421875 0.3125,-0.5625 0.671875,-0.65625 0.859375,-0.65625 0.484375,0 0.625,0.53125 0.625,0.609375 0,0.015625 -0.015625,0.078125 -0.015625,0.09375 z m 0,0"
           id="path15" />
      </g>
    </g>
    <g
       fill="#000000"
       fill-opacity="1"
       id="g261"
       transform="matrix(0.35277777,0,0,0.35277777,53.574077,117.82617)">
      <g
         id="use261"
         transform="translate(360.46799,188.244)">
        <path
           d="M 3.515625,-1.265625 H 3.28125 c -0.015625,0.15625 -0.09375,0.5625 -0.1875,0.625 C 3.046875,-0.59375 2.515625,-0.59375 2.40625,-0.59375 H 1.125 c 0.734375,-0.640625 0.984375,-0.84375 1.390625,-1.171875 0.515625,-0.40625 1,-0.84375 1,-1.5 0,-0.84375 -0.734375,-1.359375 -1.625,-1.359375 -0.859375,0 -1.453125,0.609375 -1.453125,1.25 0,0.34375 0.296875,0.390625 0.375,0.390625 0.15625,0 0.359375,-0.125 0.359375,-0.375 0,-0.125 -0.046875,-0.375 -0.40625,-0.375 C 0.984375,-4.21875 1.453125,-4.375 1.78125,-4.375 c 0.703125,0 1.0625,0.546875 1.0625,1.109375 0,0.609375 -0.4375,1.078125 -0.65625,1.328125 L 0.515625,-0.265625 C 0.4375,-0.203125 0.4375,-0.1875 0.4375,0 h 2.875 z m 0,0"
           id="path10" />
      </g>
    </g>
    <g
       fill="#000000"
       fill-opacity="1"
       id="g263"
       transform="matrix(0.35277777,0,0,0.35277777,53.574077,117.82617)">
      <g
         id="use263"
         transform="translate(399.86081,229.5358)">
        <path
           d="m 2.9375,-2.65625 c -0.140625,-0.234375 -0.375,-0.421875 -0.71875,-0.421875 -0.890625,0 -1.796875,0.984375 -1.796875,1.984375 0,0.6875 0.453125,1.15625 1.0625,1.15625 0.375,0 0.703125,-0.203125 0.984375,-0.484375 C 2.59375,0 3,0.0625 3.1875,0.0625 c 0.25,0 0.421875,-0.140625 0.546875,-0.359375 0.15625,-0.28125 0.25,-0.671875 0.25,-0.703125 0,-0.09375 -0.09375,-0.09375 -0.109375,-0.09375 -0.109375,0 -0.109375,0.03125 -0.15625,0.21875 C 3.625,-0.53125 3.5,-0.125 3.203125,-0.125 3.03125,-0.125 2.96875,-0.28125 2.96875,-0.46875 c 0,-0.109375 0.0625,-0.375 0.109375,-0.546875 0.046875,-0.1875 0.125,-0.46875 0.15625,-0.625 C 3.296875,-1.90625 3.3125,-1.9375 3.375,-2.171875 3.421875,-2.359375 3.5,-2.6875 3.5,-2.71875 3.5,-2.875 3.375,-2.9375 3.265625,-2.9375 c -0.125,0 -0.28125,0.078125 -0.328125,0.28125 z M 2.5,-0.875 C 2.453125,-0.671875 2.296875,-0.53125 2.140625,-0.40625 2.078125,-0.34375 1.796875,-0.125 1.5,-0.125 c -0.265625,0 -0.515625,-0.1875 -0.515625,-0.671875 0,-0.375 0.203125,-1.140625 0.375,-1.421875 0.3125,-0.5625 0.671875,-0.65625 0.859375,-0.65625 0.484375,0 0.625,0.53125 0.625,0.609375 0,0.015625 -0.015625,0.078125 -0.015625,0.09375 z m 0,0"
           id="path16" />
      </g>
    </g>
    <g
       fill="#000000"
       fill-opacity="1"
       id="g264"
       transform="matrix(0.35277777,0,0,0.35277777,53.574077,117.82617)">
      <g
         id="use264"
         transform="translate(396.75601,232.245)">
        <path
           d="M 3.09375,5.859375 1.71875,3.15625 C 1.671875,3.078125 1.671875,3.046875 1.609375,3.046875 c -0.03125,0 -0.046875,0 -0.109375,0.046875 L 0.75,3.609375 C 0.671875,3.65625 0.65625,3.671875 0.65625,3.71875 0.65625,3.8125 0.75,3.8125 0.78125,3.8125 L 1.25,3.5 2.78125,6.515625 C 2.828125,6.609375 2.84375,6.625 2.9375,6.625 3,6.625 3.078125,6.625 3.140625,6.5 L 6.65625,-0.03125 c 0.046875,-0.09375 0.046875,-0.125 0.046875,-0.140625 0,-0.109375 -0.09375,-0.171875 -0.171875,-0.171875 -0.09375,0 -0.140625,0.078125 -0.171875,0.125 z m 0,0"
           id="path6" />
      </g>
    </g>
    <path
       fill-rule="nonzero"
       fill="#000000"
       fill-opacity="1"
       stroke-width="0.127008"
       stroke-linecap="round"
       stroke-linejoin="miter"
       stroke="#000000"
       stroke-opacity="1"
       stroke-miterlimit="10"
       d="m 191.98683,182.59971 c 0,0.49058 -0.39825,0.88883 -0.88883,0.88883 -0.49058,0 -0.88883,-0.39825 -0.88883,-0.88883 0,-0.49058 0.39825,-0.89021 0.88883,-0.89021 0.49058,0 0.88883,0.39963 0.88883,0.89021"
       id="path264" />
    <g
       fill="#000000"
       fill-opacity="1"
       id="g265"
       transform="matrix(0.35277777,0,0,0.35277777,53.574077,117.82617)">
      <g
         id="use265"
         transform="translate(446.59781,225.4949)">
        <path
           d="M 3.71875,-3.765625 C 3.53125,-4.140625 3.25,-4.40625 2.796875,-4.40625 c -1.15625,0 -2.390625,1.46875 -2.390625,2.921875 0,0.9375 0.546875,1.59375 1.3125,1.59375 0.203125,0 0.703125,-0.046875 1.296875,-0.75 0.078125,0.421875 0.4375,0.75 0.90625,0.75 0.359375,0 0.578125,-0.234375 0.75,-0.546875 0.15625,-0.359375 0.296875,-0.96875 0.296875,-0.984375 0,-0.109375 -0.09375,-0.109375 -0.125,-0.109375 -0.09375,0 -0.109375,0.046875 -0.140625,0.1875 -0.171875,0.640625 -0.34375,1.234375 -0.75,1.234375 -0.28125,0 -0.296875,-0.265625 -0.296875,-0.453125 0,-0.21875 0.015625,-0.3125 0.125,-0.75 C 3.890625,-1.71875 3.90625,-1.828125 4,-2.203125 4.171875,-2.84375 4.203125,-3.03125 4.359375,-3.59375 c 0.0625,-0.28125 0.0625,-0.296875 0.0625,-0.34375 0,-0.171875 -0.109375,-0.265625 -0.28125,-0.265625 -0.25,0 -0.390625,0.21875 -0.421875,0.4375 z M 3.078125,-1.1875 C 3.015625,-1 3.015625,-0.984375 2.875,-0.8125 2.4375,-0.265625 2.03125,-0.109375 1.75,-0.109375 c -0.5,0 -0.640625,-0.546875 -0.640625,-0.9375 0,-0.5 0.3125,-1.71875 0.546875,-2.1875 0.3125,-0.578125 0.75,-0.953125 1.15625,-0.953125 0.640625,0 0.78125,0.8125 0.78125,0.875 0,0.0625 -0.015625,0.125 -0.03125,0.171875 z m 0,0"
           id="path21" />
      </g>
    </g>
    <g
       fill="#000000"
       fill-opacity="1"
       id="g266"
       transform="matrix(0.35277777,0,0,0.35277777,53.574077,117.82617)">
      <g
         id="use266"
         transform="translate(451.8627,226.98911)">
        <path
           d="m 2.265625,-4.359375 c 0,-0.109375 -0.09375,-0.265625 -0.28125,-0.265625 -0.1875,0 -0.390625,0.1875 -0.390625,0.390625 0,0.109375 0.078125,0.265625 0.28125,0.265625 0.1875,0 0.390625,-0.203125 0.390625,-0.390625 z M 0.84375,-0.8125 c -0.03125,0.09375 -0.0625,0.171875 -0.0625,0.296875 0,0.328125 0.265625,0.578125 0.65625,0.578125 0.6875,0 1,-0.953125 1,-1.0625 0,-0.09375 -0.09375,-0.09375 -0.109375,-0.09375 -0.09375,0 -0.109375,0.046875 -0.140625,0.125 -0.15625,0.5625 -0.453125,0.84375 -0.734375,0.84375 -0.140625,0 -0.171875,-0.09375 -0.171875,-0.25 0,-0.15625 0.046875,-0.28125 0.109375,-0.4375 C 1.46875,-1 1.546875,-1.1875 1.609375,-1.375 1.671875,-1.546875 1.9375,-2.171875 1.953125,-2.265625 1.984375,-2.328125 2,-2.40625 2,-2.484375 2,-2.8125 1.71875,-3.078125 1.34375,-3.078125 0.640625,-3.078125 0.328125,-2.125 0.328125,-2 c 0,0.078125 0.09375,0.078125 0.125,0.078125 0.09375,0 0.09375,-0.03125 0.125,-0.109375 C 0.75,-2.625 1.0625,-2.875 1.3125,-2.875 c 0.109375,0 0.171875,0.046875 0.171875,0.234375 0,0.171875 -0.03125,0.265625 -0.203125,0.703125 z m 0,0"
           id="path14" />
      </g>
    </g>
    <g
       fill="#000000"
       fill-opacity="1"
       id="g268"
       transform="matrix(0.35277777,0,0,0.35277777,53.574077,117.82617)">
      <g
         id="use268"
         transform="translate(357.02109,260.42371)">
        <path
           d="m 2.9375,-2.65625 c -0.140625,-0.234375 -0.375,-0.421875 -0.71875,-0.421875 -0.890625,0 -1.796875,0.984375 -1.796875,1.984375 0,0.6875 0.453125,1.15625 1.0625,1.15625 0.375,0 0.703125,-0.203125 0.984375,-0.484375 C 2.59375,0 3,0.0625 3.1875,0.0625 c 0.25,0 0.421875,-0.140625 0.546875,-0.359375 0.15625,-0.28125 0.25,-0.671875 0.25,-0.703125 0,-0.09375 -0.09375,-0.09375 -0.109375,-0.09375 -0.109375,0 -0.109375,0.03125 -0.15625,0.21875 C 3.625,-0.53125 3.5,-0.125 3.203125,-0.125 3.03125,-0.125 2.96875,-0.28125 2.96875,-0.46875 c 0,-0.109375 0.0625,-0.375 0.109375,-0.546875 0.046875,-0.1875 0.125,-0.46875 0.15625,-0.625 C 3.296875,-1.90625 3.3125,-1.9375 3.375,-2.171875 3.421875,-2.359375 3.5,-2.6875 3.5,-2.71875 3.5,-2.875 3.375,-2.9375 3.265625,-2.9375 c -0.125,0 -0.28125,0.078125 -0.328125,0.28125 z M 2.5,-0.875 C 2.453125,-0.671875 2.296875,-0.53125 2.140625,-0.40625 2.078125,-0.34375 1.796875,-0.125 1.5,-0.125 c -0.265625,0 -0.515625,-0.1875 -0.515625,-0.671875 0,-0.375 0.203125,-1.140625 0.375,-1.421875 0.3125,-0.5625 0.671875,-0.65625 0.859375,-0.65625 0.484375,0 0.625,0.53125 0.625,0.609375 0,0.015625 -0.015625,0.078125 -0.015625,0.09375 z m 0,0"
           id="path17" />
      </g>
    </g>
    <g
       fill="#000000"
       fill-opacity="1"
       id="g269"
       transform="matrix(0.35277777,0,0,0.35277777,53.574077,117.82617)">
      <g
         id="use269"
         transform="translate(353.92499,263.133)">
        <path
           d="M 3.09375,5.859375 1.71875,3.15625 C 1.671875,3.078125 1.671875,3.046875 1.609375,3.046875 c -0.03125,0 -0.046875,0 -0.109375,0.046875 L 0.75,3.609375 C 0.671875,3.65625 0.65625,3.671875 0.65625,3.71875 0.65625,3.8125 0.75,3.8125 0.78125,3.8125 L 1.25,3.5 2.78125,6.515625 C 2.828125,6.609375 2.84375,6.625 2.9375,6.625 3,6.625 3.078125,6.625 3.140625,6.5 L 6.65625,-0.03125 c 0.046875,-0.09375 0.046875,-0.125 0.046875,-0.140625 0,-0.109375 -0.09375,-0.171875 -0.171875,-0.171875 -0.09375,0 -0.140625,0.078125 -0.171875,0.125 z m 0,0"
           id="path7" />
      </g>
    </g>
    <g
       fill="#000000"
       fill-opacity="1"
       id="g270"
       transform="matrix(0.35277777,0,0,0.35277777,53.574077,117.82617)">
      <g
         id="use270"
         transform="translate(353.92499,182.42999)">
        <path
           d="M 3.09375,5.859375 1.71875,3.15625 C 1.671875,3.078125 1.671875,3.046875 1.609375,3.046875 c -0.03125,0 -0.046875,0 -0.109375,0.046875 L 0.75,3.609375 C 0.671875,3.65625 0.65625,3.671875 0.65625,3.71875 0.65625,3.8125 0.75,3.8125 0.78125,3.8125 L 1.25,3.5 2.78125,6.515625 C 2.828125,6.609375 2.84375,6.625 2.9375,6.625 3,6.625 3.078125,6.625 3.140625,6.5 L 6.65625,-0.03125 c 0.046875,-0.09375 0.046875,-0.125 0.046875,-0.140625 0,-0.109375 -0.09375,-0.171875 -0.171875,-0.171875 -0.09375,0 -0.140625,0.078125 -0.171875,0.125 z m 0,0"
           id="path8" />
      </g>
    </g>
    <g
       fill="#000000"
       fill-opacity="1"
       id="g271"
       transform="matrix(0.35277777,0,0,0.35277777,53.574077,117.82617)">
      <g
         id="use271"
         transform="translate(360.46799,268.94699)">
        <path
           d="M 3.515625,-1.265625 H 3.28125 c -0.015625,0.15625 -0.09375,0.5625 -0.1875,0.625 C 3.046875,-0.59375 2.515625,-0.59375 2.40625,-0.59375 H 1.125 c 0.734375,-0.640625 0.984375,-0.84375 1.390625,-1.171875 0.515625,-0.40625 1,-0.84375 1,-1.5 0,-0.84375 -0.734375,-1.359375 -1.625,-1.359375 -0.859375,0 -1.453125,0.609375 -1.453125,1.25 0,0.34375 0.296875,0.390625 0.375,0.390625 0.15625,0 0.359375,-0.125 0.359375,-0.375 0,-0.125 -0.046875,-0.375 -0.40625,-0.375 C 0.984375,-4.21875 1.453125,-4.375 1.78125,-4.375 c 0.703125,0 1.0625,0.546875 1.0625,1.109375 0,0.609375 -0.4375,1.078125 -0.65625,1.328125 L 0.515625,-0.265625 C 0.4375,-0.203125 0.4375,-0.1875 0.4375,0 h 2.875 z m 0,0"
           id="path11" />
      </g>
    </g>
    <path
       fill-rule="nonzero"
       fill="#000000"
       fill-opacity="1"
       stroke-width="0.127008"
       stroke-linecap="round"
       stroke-linejoin="miter"
       stroke="#000000"
       stroke-opacity="1"
       stroke-miterlimit="10"
       d="m 156.83725,182.59971 c 0,0.49058 -0.39825,0.88883 -0.88883,0.88883 -0.49058,0 -0.88884,-0.39825 -0.88884,-0.88883 0,-0.49058 0.39826,-0.89021 0.88884,-0.89021 0.49058,0 0.88883,0.39963 0.88883,0.89021"
       id="path272" />
    <g
       fill="#000000"
       fill-opacity="1"
       id="g273"
       transform="matrix(0.35277777,0,0,0.35277777,53.574077,117.82617)">
      <g
         id="use273"
         transform="translate(344.979,183.645)">
        <path
           d="m 4.078125,-2.296875 h 2.78125 C 7,-2.296875 7.1875,-2.296875 7.1875,-2.5 7.1875,-2.6875 7,-2.6875 6.859375,-2.6875 h -2.78125 v -2.796875 c 0,-0.140625 0,-0.328125 -0.203125,-0.328125 -0.203125,0 -0.203125,0.1875 -0.203125,0.328125 V -2.6875 h -2.78125 c -0.140625,0 -0.328125,0 -0.328125,0.1875 0,0.203125 0.1875,0.203125 0.328125,0.203125 h 2.78125 V 0.5 c 0,0.140625 0,0.328125 0.203125,0.328125 0.203125,0 0.203125,-0.1875 0.203125,-0.328125 z m 0,0"
           id="path4" />
      </g>
    </g>
    <g
       fill="#000000"
       fill-opacity="1"
       id="g275"
       transform="matrix(0.35277777,0,0,0.35277777,53.574077,117.82617)">
      <g
         id="use275"
         transform="translate(300.2308,229.5358)">
        <path
           d="m 2.9375,-2.65625 c -0.140625,-0.234375 -0.375,-0.421875 -0.71875,-0.421875 -0.890625,0 -1.796875,0.984375 -1.796875,1.984375 0,0.6875 0.453125,1.15625 1.0625,1.15625 0.375,0 0.703125,-0.203125 0.984375,-0.484375 C 2.59375,0 3,0.0625 3.1875,0.0625 c 0.25,0 0.421875,-0.140625 0.546875,-0.359375 0.15625,-0.28125 0.25,-0.671875 0.25,-0.703125 0,-0.09375 -0.09375,-0.09375 -0.109375,-0.09375 -0.109375,0 -0.109375,0.03125 -0.15625,0.21875 C 3.625,-0.53125 3.5,-0.125 3.203125,-0.125 3.03125,-0.125 2.96875,-0.28125 2.96875,-0.46875 c 0,-0.109375 0.0625,-0.375 0.109375,-0.546875 0.046875,-0.1875 0.125,-0.46875 0.15625,-0.625 C 3.296875,-1.90625 3.3125,-1.9375 3.375,-2.171875 3.421875,-2.359375 3.5,-2.6875 3.5,-2.71875 3.5,-2.875 3.375,-2.9375 3.265625,-2.9375 c -0.125,0 -0.28125,0.078125 -0.328125,0.28125 z M 2.5,-0.875 C 2.453125,-0.671875 2.296875,-0.53125 2.140625,-0.40625 2.078125,-0.34375 1.796875,-0.125 1.5,-0.125 c -0.265625,0 -0.515625,-0.1875 -0.515625,-0.671875 0,-0.375 0.203125,-1.140625 0.375,-1.421875 0.3125,-0.5625 0.671875,-0.65625 0.859375,-0.65625 0.484375,0 0.625,0.53125 0.625,0.609375 0,0.015625 -0.015625,0.078125 -0.015625,0.09375 z m 0,0"
           id="path18" />
      </g>
    </g>
    <g
       fill="#000000"
       fill-opacity="1"
       id="g276"
       transform="matrix(0.35277777,0,0,0.35277777,53.574077,117.82617)">
      <g
         id="use276"
         transform="translate(303.67801,238.05901)">
        <path
           d="M 3.515625,-1.265625 H 3.28125 c -0.015625,0.15625 -0.09375,0.5625 -0.1875,0.625 C 3.046875,-0.59375 2.515625,-0.59375 2.40625,-0.59375 H 1.125 c 0.734375,-0.640625 0.984375,-0.84375 1.390625,-1.171875 0.515625,-0.40625 1,-0.84375 1,-1.5 0,-0.84375 -0.734375,-1.359375 -1.625,-1.359375 -0.859375,0 -1.453125,0.609375 -1.453125,1.25 0,0.34375 0.296875,0.390625 0.375,0.390625 0.15625,0 0.359375,-0.125 0.359375,-0.375 0,-0.125 -0.046875,-0.375 -0.40625,-0.375 C 0.984375,-4.21875 1.453125,-4.375 1.78125,-4.375 c 0.703125,0 1.0625,0.546875 1.0625,1.109375 0,0.609375 -0.4375,1.078125 -0.65625,1.328125 L 0.515625,-0.265625 C 0.4375,-0.203125 0.4375,-0.1875 0.4375,0 h 2.875 z m 0,0"
           id="path12" />
      </g>
    </g>
    <g
       fill="#000000"
       fill-opacity="1"
       id="g277"
       transform="matrix(0.35277777,0,0,0.35277777,53.574077,117.82617)">
      <g
         id="use277"
         transform="translate(297.13501,232.245)">
        <path
           d="M 3.09375,5.859375 1.71875,3.15625 C 1.671875,3.078125 1.671875,3.046875 1.609375,3.046875 c -0.03125,0 -0.046875,0 -0.109375,0.046875 L 0.75,3.609375 C 0.671875,3.65625 0.65625,3.671875 0.65625,3.71875 0.65625,3.8125 0.75,3.8125 0.78125,3.8125 L 1.25,3.5 2.78125,6.515625 C 2.828125,6.609375 2.84375,6.625 2.9375,6.625 3,6.625 3.078125,6.625 3.140625,6.5 L 6.65625,-0.03125 c 0.046875,-0.09375 0.046875,-0.125 0.046875,-0.140625 0,-0.109375 -0.09375,-0.171875 -0.171875,-0.171875 -0.09375,0 -0.140625,0.078125 -0.171875,0.125 z m 0,0"
           id="path9" />
      </g>
    </g>
    <g
       fill="#000000"
       fill-opacity="1"
       id="g278"
       transform="matrix(0.35277777,0,0,0.35277777,53.574077,117.82617)">
      <g
         id="use278"
         transform="translate(288.189,233.46001)">
        <path
           d="m 6.59375,-2.296875 c 0.140625,0 0.328125,0 0.328125,-0.203125 0,-0.1875 -0.1875,-0.1875 -0.328125,-0.1875 h -5.4375 c -0.140625,0 -0.328125,0 -0.328125,0.1875 0,0.203125 0.1875,0.203125 0.328125,0.203125 z m 0,0"
           id="path1" />
      </g>
    </g>
    <g
       fill="#000000"
       fill-opacity="1"
       id="g280"
       transform="matrix(0.35277777,0,0,0.35277777,53.574077,117.82617)">
      <g
         id="use280"
         transform="translate(387.819,233.46001)">
        <path
           d="m 4.078125,-2.296875 h 2.78125 C 7,-2.296875 7.1875,-2.296875 7.1875,-2.5 7.1875,-2.6875 7,-2.6875 6.859375,-2.6875 h -2.78125 v -2.796875 c 0,-0.140625 0,-0.328125 -0.203125,-0.328125 -0.203125,0 -0.203125,0.1875 -0.203125,0.328125 V -2.6875 h -2.78125 c -0.140625,0 -0.328125,0 -0.328125,0.1875 0,0.203125 0.1875,0.203125 0.328125,0.203125 h 2.78125 V 0.5 c 0,0.140625 0,0.328125 0.203125,0.328125 0.203125,0 0.203125,-0.1875 0.203125,-0.328125 z m 0,0"
           id="path5" />
      </g>
    </g>
    <g
       fill="#000000"
       fill-opacity="1"
       id="g282"
       transform="matrix(0.35277777,0,0,0.35277777,53.574077,117.82617)">
      <g
         id="use282"
         transform="translate(403.30801,238.05901)">
        <path
           d="M 3.515625,-1.265625 H 3.28125 c -0.015625,0.15625 -0.09375,0.5625 -0.1875,0.625 C 3.046875,-0.59375 2.515625,-0.59375 2.40625,-0.59375 H 1.125 c 0.734375,-0.640625 0.984375,-0.84375 1.390625,-1.171875 0.515625,-0.40625 1,-0.84375 1,-1.5 0,-0.84375 -0.734375,-1.359375 -1.625,-1.359375 -0.859375,0 -1.453125,0.609375 -1.453125,1.25 0,0.34375 0.296875,0.390625 0.375,0.390625 0.15625,0 0.359375,-0.125 0.359375,-0.375 0,-0.125 -0.046875,-0.375 -0.40625,-0.375 C 0.984375,-4.21875 1.453125,-4.375 1.78125,-4.375 c 0.703125,0 1.0625,0.546875 1.0625,1.109375 0,0.609375 -0.4375,1.078125 -0.65625,1.328125 L 0.515625,-0.265625 C 0.4375,-0.203125 0.4375,-0.1875 0.4375,0 h 2.875 z m 0,0"
           id="path13" />
      </g>
    </g>
    <path
       fill-rule="nonzero"
       fill="#000000"
       fill-opacity="1"
       stroke-width="0.127008"
       stroke-linecap="round"
       stroke-linejoin="miter"
       stroke="#000000"
       stroke-opacity="1"
       stroke-miterlimit="10"
       d="m 156.83725,210.71855 c 0,0.49058 -0.39825,0.88883 -0.88883,0.88883 -0.49058,0 -0.88884,-0.39825 -0.88884,-0.88883 0,-0.49059 0.39826,-0.88884 0.88884,-0.88884 0.49058,0 0.88883,0.39825 0.88883,0.88884"
       id="path283" />
    <path
       fill-rule="nonzero"
       fill="#000000"
       fill-opacity="1"
       stroke-width="0.127008"
       stroke-linecap="round"
       stroke-linejoin="miter"
       stroke="#000000"
       stroke-opacity="1"
       stroke-miterlimit="10"
       d="m 191.98683,210.71855 c 0,0.49058 -0.39825,0.88883 -0.88883,0.88883 -0.49058,0 -0.88883,-0.39825 -0.88883,-0.88883 0,-0.49059 0.39825,-0.88884 0.88883,-0.88884 0.49058,0 0.88883,0.39825 0.88883,0.88884"
       id="path284" />
    <g
       fill="#000000"
       fill-opacity="1"
       id="g284"
       transform="matrix(0.35277777,0,0,0.35277777,53.574077,117.82617)">
      <g
         id="use284"
         transform="translate(344.97891,264.3479)">
        <path
           d="m 6.59375,-2.296875 c 0.140625,0 0.328125,0 0.328125,-0.203125 0,-0.1875 -0.1875,-0.1875 -0.328125,-0.1875 h -5.4375 c -0.140625,0 -0.328125,0 -0.328125,0.1875 0,0.203125 0.1875,0.203125 0.328125,0.203125 z m 0,0"
           id="path3" />
      </g>
    </g>
  </g>
</svg>
