<?xml version="1.0" encoding="utf-8" ?>
<svg baseProfile="full" height="230px" version="1.1" viewBox="0 0 620 230" width="620px" xmlns="http://www.w3.org/2000/svg" xmlns:ev="http://www.w3.org/2001/xml-events" xmlns:xlink="http://www.w3.org/1999/xlink"><defs><style type="text/css"><![CDATA[
    text { font-family: 'Inria Sans', 'DejaVu Sans', sans-serif; }
]]></style></defs><text fill="#555" font-size="12" x="8" y="35">dados</text><text fill="black" font-size="14" font-weight="normal" text-anchor="middle" x="99" y="35">0</text><rect fill="#fff3d0" height="23" rx="2" stroke="#996600" stroke-width="0.5" width="19" x="109" y="20" /><text fill="#333" font-size="14" font-weight="normal" text-anchor="middle" x="118" y="35">1</text><rect fill="#fff3d0" height="23" rx="2" stroke="#996600" stroke-width="0.5" width="19" x="128" y="20" /><text fill="#333" font-size="14" font-weight="normal" text-anchor="middle" x="137" y="35">1</text><rect fill="#fff3d0" height="23" rx="2" stroke="#996600" stroke-width="0.5" width="19" x="147" y="20" /><text fill="#333" font-size="14" font-weight="normal" text-anchor="middle" x="156" y="35">1</text><rect fill="#fff3d0" height="23" rx="2" stroke="#996600" stroke-width="0.5" width="19" x="166" y="20" /><text fill="#333" font-size="14" font-weight="normal" text-anchor="middle" x="175" y="35">1</text><rect fill="#fff3d0" height="23" rx="2" stroke="#996600" stroke-width="0.5" width="19" x="185" y="20" /><text fill="#333" font-size="14" font-weight="normal" text-anchor="middle" x="194" y="35">1</text><text fill="black" font-size="14" font-weight="normal" text-anchor="middle" x="213" y="35">0</text><rect fill="#fff3d0" height="23" rx="2" stroke="#996600" stroke-width="0.5" width="19" x="223" y="20" /><text fill="#333" font-size="14" font-weight="normal" text-anchor="middle" x="232" y="35">1</text><rect fill="#fff3d0" height="23" rx="2" stroke="#996600" stroke-width="0.5" width="19" x="242" y="20" /><text fill="#333" font-size="14" font-weight="normal" text-anchor="middle" x="251" y="35">1</text><rect fill="#fff3d0" height="23" rx="2" stroke="#996600" stroke-width="0.5" width="19" x="261" y="20" /><text fill="#333" font-size="14" font-weight="normal" text-anchor="middle" x="270" y="35">1</text><rect fill="#fff3d0" height="23" rx="2" stroke="#996600" stroke-width="0.5" width="19" x="280" y="20" /><text fill="#333" font-size="14" font-weight="normal" text-anchor="middle" x="289" y="35">1</text><rect fill="#fff3d0" height="23" rx="2" stroke="#996600" stroke-width="0.5" width="19" x="299" y="20" /><text fill="#333" font-size="14" font-weight="normal" text-anchor="middle" x="308" y="35">1</text><rect fill="#fff3d0" height="23" rx="2" stroke="#996600" stroke-width="0.5" width="19" x="318" y="20" /><text fill="#333" font-size="14" font-weight="normal" text-anchor="middle" x="327" y="35">1</text><text fill="black" font-size="14" font-weight="normal" text-anchor="middle" x="346" y="35">0</text><text fill="black" font-size="14" font-weight="normal" text-anchor="middle" x="365" y="35">0</text><text fill="black" font-size="14" font-weight="normal" text-anchor="middle" x="384" y="35">1</text><text fill="#555" font-size="12" x="8" y="85">transmitido</text><text fill="black" font-size="14" font-weight="normal" text-anchor="middle" x="99" y="85">0</text><text fill="black" font-size="14" font-weight="normal" text-anchor="middle" x="118" y="85">1</text><text fill="black" font-size="14" font-weight="normal" text-anchor="middle" x="137" y="85">1</text><text fill="black" font-size="14" font-weight="normal" text-anchor="middle" x="156" y="85">1</text><text fill="black" font-size="14" font-weight="normal" text-anchor="middle" x="175" y="85">1</text><text fill="black" font-size="14" font-weight="normal" text-anchor="middle" x="194" y="85">1</text><rect fill="#ffe0e0" height="23" rx="2" stroke="#c00" stroke-width="0.8" width="19" x="204" y="70" /><text fill="#c00" font-size="14" font-weight="bold" text-anchor="middle" x="213" y="85">0</text><text fill="black" font-size="14" font-weight="normal" text-anchor="middle" x="232" y="85">0</text><text fill="black" font-size="14" font-weight="normal" text-anchor="middle" x="251" y="85">1</text><text fill="black" font-size="14" font-weight="normal" text-anchor="middle" x="270" y="85">1</text><text fill="black" font-size="14" font-weight="normal" text-anchor="middle" x="289" y="85">1</text><text fill="black" font-size="14" font-weight="normal" text-anchor="middle" x="308" y="85">1</text><text fill="black" font-size="14" font-weight="normal" text-anchor="middle" x="327" y="85">1</text><rect fill="#ffe0e0" height="23" rx="2" stroke="#c00" stroke-width="0.8" width="19" x="337" y="70" /><text fill="#c00" font-size="14" font-weight="bold" text-anchor="middle" x="346" y="85">0</text><text fill="black" font-size="14" font-weight="normal" text-anchor="middle" x="365" y="85">1</text><text fill="black" font-size="14" font-weight="normal" text-anchor="middle" x="384" y="85">0</text><text fill="black" font-size="14" font-weight="normal" text-anchor="middle" x="403" y="85">0</text><text fill="black" font-size="14" font-weight="normal" text-anchor="middle" x="422" y="85">1</text><text fill="#555" font-size="12" x="8" y="135">flag HDLC</text><text fill="black" font-size="14" font-weight="normal" text-anchor="middle" x="99" y="135">0</text><text fill="black" font-size="14" font-weight="normal" text-anchor="middle" x="118" y="135">1</text><text fill="black" font-size="14" font-weight="normal" text-anchor="middle" x="137" y="135">1</text><text fill="black" font-size="14" font-weight="normal" text-anchor="middle" x="156" y="135">1</text><text fill="black" font-size="14" font-weight="normal" text-anchor="middle" x="175" y="135">1</text><text fill="black" font-size="14" font-weight="normal" text-anchor="middle" x="194" y="135">1</text><text fill="black" font-size="14" font-weight="normal" text-anchor="middle" x="213" y="135">1</text><text fill="black" font-size="14" font-weight="normal" text-anchor="middle" x="232" y="135">0</text><text fill="#0066cc" font-size="12" x="252" y="135">01111110</text><line stroke="#c00" stroke-dasharray="3,2" stroke-width="1" x1="213" x2="213" y1="47" y2="66" /><line stroke="#c00" stroke-dasharray="3,2" stroke-width="1" x1="327" x2="346" y1="47" y2="66" /><text fill="#c00" font-size="10" x="190" y="111">0 inserido</text><text fill="#c00" font-size="10" x="323" y="111">0 inserido</text><text fill="#333" font-size="12" x="90" y="220">Regra: após cinco 1s consecutivos nos dados, inserir um 0.</text></svg>