<?xml version="1.0" encoding="UTF-8" standalone="no"?>
<!-- Created with Inkscape (http://www.inkscape.org/) -->

<svg
   width="102.4106mm"
   height="78.147331mm"
   viewBox="0 0 102.4106 78.147331"
   version="1.1"
   id="svg1"
   inkscape:version="1.4.3 (0d15f75042, 2025-12-25)"
   sodipodi:docname="E1_acterna_figure2.svg"
   xmlns:inkscape="http://www.inkscape.org/namespaces/inkscape"
   xmlns:sodipodi="http://sodipodi.sourceforge.net/DTD/sodipodi-0.dtd"
   xmlns="http://www.w3.org/2000/svg"
   xmlns:svg="http://www.w3.org/2000/svg">
  <sodipodi:namedview
     id="namedview1"
     pagecolor="#ffffff"
     bordercolor="#999999"
     borderopacity="1"
     inkscape:showpageshadow="0"
     inkscape:pageopacity="0"
     inkscape:pagecheckerboard="0"
     inkscape:deskcolor="#d1d1d1"
     inkscape:document-units="mm"
     inkscape:zoom="0.040979237"
     inkscape:cx="-7247.5727"
     inkscape:cy="8272.482"
     inkscape:window-width="1920"
     inkscape:window-height="1035"
     inkscape:window-x="0"
     inkscape:window-y="0"
     inkscape:window-maximized="0"
     inkscape:current-layer="layer1" />
  <defs
     id="defs1" />
  <g
     inkscape:label="Layer 1"
     inkscape:groupmode="layer"
     id="layer1"
     transform="translate(-2021.4104,2040.4667)">
    <path
       id="path391"
       d="m 2021.5013,-1962.404 h 79.756 v -77.978 h -79.756 z"
       style="fill:none;stroke:#000000;stroke-width:0.0846667;stroke-linecap:round;stroke-linejoin:round;stroke-miterlimit:10;stroke-dasharray:none;stroke-opacity:1" />
    <path
       id="path392"
       d="m 2061.3793,-2040.382 v 77.978"
       style="fill:none;stroke:#000000;stroke-width:0.0846667;stroke-linecap:round;stroke-linejoin:round;stroke-miterlimit:10;stroke-dasharray:none;stroke-opacity:1" />
    <path
       id="path393"
       d="m 2021.5013,-2001.3506 h 79.756"
       style="fill:none;stroke:#000000;stroke-width:0.0846667;stroke-linecap:round;stroke-linejoin:round;stroke-miterlimit:10;stroke-dasharray:none;stroke-opacity:1" />
    <path
       id="path394"
       d="m 2081.3607,-2040.382 v 39.0314"
       style="fill:none;stroke:#000000;stroke-width:0.0846667;stroke-linecap:round;stroke-linejoin:round;stroke-miterlimit:10;stroke-dasharray:none;stroke-opacity:1" />
    <path
       id="path395"
       d="m 2071.37,-2040.382 v 39.0314"
       style="fill:none;stroke:#000000;stroke-width:0.0846667;stroke-linecap:round;stroke-linejoin:round;stroke-miterlimit:10;stroke-dasharray:none;stroke-opacity:1" />
    <path
       id="path396"
       d="m 2066.3747,-2040.382 v 39.0314"
       style="fill:none;stroke:#000000;stroke-width:0.0846667;stroke-linecap:round;stroke-linejoin:round;stroke-miterlimit:10;stroke-dasharray:none;stroke-opacity:1" />
    <path
       id="path397"
       d="m 2063.9193,-2040.382 v 39.0314"
       style="fill:none;stroke:#000000;stroke-width:0.0846667;stroke-linecap:round;stroke-linejoin:round;stroke-miterlimit:10;stroke-dasharray:none;stroke-opacity:1" />
    <path
       id="path398"
       d="m 2062.6493,-2040.382 v 39.0314"
       style="fill:none;stroke:#000000;stroke-width:0.0846667;stroke-linecap:round;stroke-linejoin:round;stroke-miterlimit:10;stroke-dasharray:none;stroke-opacity:1" />
    <path
       id="path399"
       d="m 2061.972,-2040.382 v 39.0314"
       style="fill:none;stroke:#000000;stroke-width:0.0846667;stroke-linecap:round;stroke-linejoin:round;stroke-miterlimit:10;stroke-dasharray:none;stroke-opacity:1" />
    <path
       id="path400"
       d="m 2041.4827,-2001.3506 v 38.9466"
       style="fill:none;stroke:#000000;stroke-width:0.0846667;stroke-linecap:round;stroke-linejoin:round;stroke-miterlimit:10;stroke-dasharray:none;stroke-opacity:1" />
    <path
       id="path401"
       d="m 2051.4733,-2001.3506 v 38.9466"
       style="fill:none;stroke:#000000;stroke-width:0.0846667;stroke-linecap:round;stroke-linejoin:round;stroke-miterlimit:10;stroke-dasharray:none;stroke-opacity:1" />
    <path
       id="path402"
       d="m 2056.384,-2001.3506 v 38.9466"
       style="fill:none;stroke:#000000;stroke-width:0.0846667;stroke-linecap:round;stroke-linejoin:round;stroke-miterlimit:10;stroke-dasharray:none;stroke-opacity:1" />
    <path
       id="path403"
       d="m 2058.924,-2001.3506 v 38.9466"
       style="fill:none;stroke:#000000;stroke-width:0.0846667;stroke-linecap:round;stroke-linejoin:round;stroke-miterlimit:10;stroke-dasharray:none;stroke-opacity:1" />
    <path
       id="path404"
       d="m 2060.194,-2001.3506 v 38.9466"
       style="fill:none;stroke:#000000;stroke-width:0.0846667;stroke-linecap:round;stroke-linejoin:round;stroke-miterlimit:10;stroke-dasharray:none;stroke-opacity:1" />
    <path
       id="path405"
       d="m 2060.7867,-2001.3506 v 38.9466"
       style="fill:none;stroke:#000000;stroke-width:0.0846667;stroke-linecap:round;stroke-linejoin:round;stroke-miterlimit:10;stroke-dasharray:none;stroke-opacity:1" />
    <path
       id="path406"
       d="m 2061.3793,-2011.0873 h 39.878"
       style="fill:none;stroke:#000000;stroke-width:0.0846667;stroke-linecap:round;stroke-linejoin:round;stroke-miterlimit:10;stroke-dasharray:none;stroke-opacity:1" />
    <path
       id="path407"
       d="m 2061.3793,-2015.998 h 39.878"
       style="fill:none;stroke:#000000;stroke-width:0.0846667;stroke-linecap:round;stroke-linejoin:round;stroke-miterlimit:10;stroke-dasharray:none;stroke-opacity:1" />
    <path
       id="path408"
       d="m 2061.3793,-2020.9086 h 39.878"
       style="fill:none;stroke:#000000;stroke-width:0.0846667;stroke-linecap:round;stroke-linejoin:round;stroke-miterlimit:10;stroke-dasharray:none;stroke-opacity:1" />
    <path
       id="path409"
       d="m 2061.3793,-2025.8193 h 39.878"
       style="fill:none;stroke:#000000;stroke-width:0.0846667;stroke-linecap:round;stroke-linejoin:round;stroke-miterlimit:10;stroke-dasharray:none;stroke-opacity:1" />
    <path
       id="path410"
       d="m 2061.3793,-2030.6453 h 39.878"
       style="fill:none;stroke:#000000;stroke-width:0.0846667;stroke-linecap:round;stroke-linejoin:round;stroke-miterlimit:10;stroke-dasharray:none;stroke-opacity:1" />
    <path
       id="path411"
       d="m 2061.3793,-2035.556 h 39.878"
       style="fill:none;stroke:#000000;stroke-width:0.0846667;stroke-linecap:round;stroke-linejoin:round;stroke-miterlimit:10;stroke-dasharray:none;stroke-opacity:1" />
    <path
       id="path412"
       d="m 2021.5013,-1996.5246 h 39.878"
       style="fill:none;stroke:#000000;stroke-width:0.0846667;stroke-linecap:round;stroke-linejoin:round;stroke-miterlimit:10;stroke-dasharray:0.423333, 0.169333;stroke-dashoffset:0;stroke-opacity:1" />
    <path
       id="path413"
       d="m 2021.5013,-1991.614 h 39.878"
       style="fill:none;stroke:#000000;stroke-width:0.0846667;stroke-linecap:round;stroke-linejoin:round;stroke-miterlimit:10;stroke-dasharray:none;stroke-opacity:1" />
    <path
       id="path414"
       d="m 2021.5013,-1986.788 h 39.878"
       style="fill:none;stroke:#000000;stroke-width:0.0846667;stroke-linecap:round;stroke-linejoin:round;stroke-miterlimit:10;stroke-dasharray:none;stroke-opacity:1" />
    <path
       id="path415"
       d="m 2021.5013,-1981.8773 h 39.878"
       style="fill:none;stroke:#000000;stroke-width:0.0846667;stroke-linecap:round;stroke-linejoin:round;stroke-miterlimit:10;stroke-dasharray:none;stroke-opacity:1" />
    <path
       id="path416"
       d="m 2021.5013,-1976.9666 h 39.878"
       style="fill:none;stroke:#000000;stroke-width:0.0846667;stroke-linecap:round;stroke-linejoin:round;stroke-miterlimit:10;stroke-dasharray:none;stroke-opacity:1" />
    <path
       id="path417"
       d="m 2021.5013,-1972.056 h 39.878"
       style="fill:none;stroke:#000000;stroke-width:0.0846667;stroke-linecap:round;stroke-linejoin:round;stroke-miterlimit:10;stroke-dasharray:none;stroke-opacity:1" />
    <path
       id="path418"
       d="m 2021.5013,-1967.23 h 39.878"
       style="fill:none;stroke:#000000;stroke-width:0.0846667;stroke-linecap:round;stroke-linejoin:round;stroke-miterlimit:10;stroke-dasharray:none;stroke-opacity:1" />
    <path
       id="path419"
       d="m 2101.2573,-2040.382 -1.778,0.4234 -1.8626,0.4233 -1.9474,0.4233 -1.8626,0.4234 -3.8947,0.8466 -1.9473,0.508 -2.032,0.4234 -1.9474,0.508 -1.9473,0.6773 -1.8627,0.5927 -1.8626,0.6773 -1.8627,0.8467 -1.6933,0.8466 -1.6934,1.016 -1.6933,1.1007 -1.3547,1.016 -0.6773,0.6773 -0.6773,0.508 -0.3387,0.3387 -0.254,0.3387 -0.3387,0.254 -0.254,0.3386 -0.3386,0.3387 -0.762,1.016 -0.1694,0.3387 -0.1693,0.254 -0.254,0.3386 -0.1693,0.254 -0.085,0.254 -0.254,0.3387 -0.1693,0.3387 -0.1694,0.254 -0.1693,0.3386 -0.085,0.3387 -0.1693,0.254 -0.1693,0.3387 -0.085,0.3386 -0.1693,0.254 -0.1694,0.6774 -0.254,0.5926 -0.1693,0.5927 -0.1693,0.6773 -0.1694,0.508 -0.1693,0.6774 -0.085,0.5926 -0.1693,0.5927 -0.085,0.6773 -0.254,1.778 -0.1693,0.5927 v 0.6773 l -0.085,0.5927 v 0.5927 l -0.1693,0.6773 -0.254,3.556 -0.1693,2.54 v 1.1853 l -0.085,1.1854 -0.085,1.27 -0.085,1.1853 v 1.1853 l -0.085,1.27 -0.085,1.1854 -0.085,1.27 v 1.1853 l -0.1694,1.1853 -0.085,1.27 -0.1694,1.1854 v 0.5926 l -0.085,0.6774 -0.3387,2.3706 -0.1693,0.6774 -0.1694,0.5926 -0.085,0.5927 -0.1694,0.6773 -0.1693,0.5927 -0.085,0.5927 -0.254,0.5926 -0.1693,0.5927 -0.1693,0.3387 -0.085,0.3386 -0.1693,0.254 -0.085,0.3387 -0.1693,0.3387 -0.085,0.254 -0.3387,0.6773 -0.1693,0.254 -0.3387,0.6773 -0.3386,0.508 -0.3387,0.6774 -0.254,0.254 -1.016,1.3546 -0.3387,0.3387 -0.3386,0.254 -0.254,0.3387 -0.9314,0.9313 -0.3386,0.254 -0.3387,0.3387 -0.6773,0.508 -0.4234,0.254 -0.254,0.3386 -3.3866,2.032 -1.778,0.8467 -1.8627,0.8467 -3.7253,1.3546 -1.9474,0.5927 -1.9473,0.508 -1.9473,0.4233 -1.9474,0.508 -1.9473,0.4234 -2.032,0.4233 -3.7253,0.8467 -1.9474,0.4233 -1.778,0.4233"
       style="fill:none;stroke:#000000;stroke-width:0.169333;stroke-linecap:round;stroke-linejoin:round;stroke-miterlimit:10;stroke-dasharray:none;stroke-opacity:1" />
    <path
       id="path420"
       d="m 2061.3793,-2006.2613 h 39.878"
       style="fill:none;stroke:#000000;stroke-width:0.0846667;stroke-linecap:round;stroke-linejoin:round;stroke-miterlimit:10;stroke-dasharray:0.423333, 0.169333;stroke-dashoffset:0;stroke-opacity:1" />
    <path
       id="path421"
       d="m 2048.9011,-2038.9511 h -0.1901 c -0.079,0.2936 -0.2067,0.3225 -0.5168,0.3432 v 0.1777 h 0.4465 v 1.2651 h 0.2604 z m 1.5131,0 h -0.1901 c -0.079,0.2936 -0.2068,0.3225 -0.5168,0.3432 v 0.1777 h 0.4465 v 1.2651 h 0.2604 z m 1.141,0.9633 c 0.037,0 0.075,0 0.1117,0 0.1612,0 0.4464,0.029 0.4464,0.3308 0,0.2026 -0.1695,0.3431 -0.4175,0.3431 -0.3597,0 -0.401,-0.2232 -0.4093,-0.3927 h -0.248 c 0.012,0.2067 0.07,0.4092 0.2852,0.5167 0.095,0.045 0.215,0.079 0.3556,0.079 0.4919,0 0.6945,-0.2811 0.6945,-0.5747 0,-0.2397 -0.1364,-0.3596 -0.3225,-0.4175 v 0 c 0.1034,-0.029 0.2481,-0.1406 0.2481,-0.368 0,-0.2728 -0.2233,-0.4713 -0.5953,-0.4713 -0.5044,0 -0.6202,0.3225 -0.6202,0.5871 h 0.2357 c 0.01,-0.1282 0.033,-0.3845 0.3721,-0.3845 0.2894,0 0.3555,0.1736 0.3555,0.2811 0,0.2233 -0.1778,0.2935 -0.3638,0.2935 -0.041,0 -0.087,0 -0.1282,-0.01 z m 2.3658,-0.3183 v -0.1861 h -0.2274 v -0.372 h -0.2439 v 0.372 h -0.1943 v 0.1861 h 0.1943 v 0.8764 c 0,0.1571 0.054,0.2811 0.2894,0.2811 0.025,0 0.095,-0.01 0.1819,-0.016 v -0.1737 h -0.083 c -0.05,0 -0.1447,0 -0.1447,-0.1074 v -0.8599 z m 0.1457,0.4754 c 0,0.3431 0.2067,0.7028 0.6656,0.7028 0.4589,0 0.6656,-0.3597 0.6656,-0.7028 0,-0.3432 -0.2067,-0.6987 -0.6656,-0.6987 -0.4589,0 -0.6656,0.3555 -0.6656,0.6987 z m 0.2481,0 c 0,-0.1778 0.074,-0.5085 0.4175,-0.5085 0.3431,0 0.4176,0.3307 0.4176,0.5085 0,0.1777 -0.074,0.5085 -0.4176,0.5085 -0.3431,0 -0.4175,-0.3308 -0.4175,-0.5085 z m 2.9145,-1.1204 h -0.1902 c -0.079,0.2936 -0.2067,0.3225 -0.5167,0.3432 v 0.1777 h 0.4465 v 1.2651 h 0.2604 z m 0.8899,0.6408 c 0.01,-0.124 0.025,-0.4382 0.3886,-0.4382 0.2852,0 0.3803,0.1778 0.3803,0.3225 0,0.2315 -0.1447,0.3059 -0.3514,0.4175 l -0.2563,0.1364 c -0.2563,0.1365 -0.4341,0.3349 -0.4506,0.707 h 1.3188 v -0.2109 h -1.046 c 0.01,-0.07 0.066,-0.2067 0.3308,-0.3431 l 0.1984,-0.099 c 0.2894,-0.1447 0.5168,-0.277 0.5168,-0.5995 0,-0.3307 -0.2687,-0.5333 -0.6036,-0.5333 -0.2067,0 -0.6656,0.058 -0.6656,0.6408 z m 1.2526,-0.3844 h 1.0625 c -0.3721,0.401 -0.7194,1.0376 -0.7855,1.5296 h 0.2646 c 0.1405,-0.7979 0.5994,-1.3643 0.7896,-1.5503 v -0.1943 h -1.3312 z m -9.2108,5.7608 c 0.1778,0 0.3679,-0.079 0.4424,-0.2149 v 0 c -0.062,0.463 -0.1984,0.6697 -0.463,0.6697 -0.1985,0 -0.3101,-0.1116 -0.3266,-0.2935 h -0.2398 c 0,0.1736 0.1199,0.4796 0.5705,0.4796 0.6656,0 0.6987,-0.8145 0.6987,-1.0046 0,-0.2894 -0.058,-0.831 -0.6739,-0.831 -0.4051,0 -0.616,0.2894 -0.616,0.6119 0,0.3555 0.2481,0.5787 0.6036,0.5787 z m 0.037,-0.2025 c -0.1612,0 -0.3927,-0.041 -0.3927,-0.3845 0,-0.2398 0.1488,-0.401 0.372,-0.401 0.277,0 0.3887,0.1778 0.3887,0.3803 0,0.3514 -0.244,0.4052 -0.368,0.4052 z m 0.8537,-0.7318 h 1.0625 c -0.3721,0.401 -0.7194,1.0377 -0.7855,1.5297 h 0.2646 c 0.1405,-0.7979 0.5994,-1.3643 0.7896,-1.5503 v -0.1943 h -1.3312 z m 2.8763,0.3886 v -0.186 h -0.2274 v -0.3721 h -0.2439 v 0.3721 h -0.1943 v 0.186 h 0.1943 v 0.8765 c 0,0.1571 0.054,0.2811 0.2894,0.2811 0.025,0 0.095,-0.01 0.1819,-0.017 v -0.1737 h -0.083 c -0.05,0 -0.1447,0 -0.1447,-0.1075 v -0.8599 z m 0.1437,0.4755 c 0,0.3431 0.2067,0.7028 0.6656,0.7028 0.4589,0 0.6656,-0.3597 0.6656,-0.7028 0,-0.3432 -0.2067,-0.6987 -0.6656,-0.6987 -0.4589,0 -0.6656,0.3555 -0.6656,0.6987 z m 0.248,0 c 0,-0.1778 0.074,-0.5085 0.4176,-0.5085 0.3431,0 0.4175,0.3307 0.4175,0.5085 0,0.1777 -0.074,0.5085 -0.4175,0.5085 -0.3432,0 -0.4176,-0.3308 -0.4176,-0.5085 z m 2.9146,-1.1204 h -0.1902 c -0.079,0.2935 -0.2067,0.3225 -0.5168,0.3431 v 0.1778 h 0.4465 v 1.2651 h 0.2605 z m 1.511,0 h -0.1902 c -0.079,0.2935 -0.2067,0.3225 -0.5167,0.3431 v 0.1778 h 0.4464 v 1.2651 h 0.2605 z m 0.8878,0.6408 c 0.01,-0.124 0.025,-0.4382 0.3886,-0.4382 0.2853,0 0.3803,0.1778 0.3803,0.3224 0,0.2316 -0.1447,0.306 -0.3514,0.4176 l -0.2563,0.1364 c -0.2563,0.1364 -0.4341,0.3349 -0.4506,0.707 h 1.3188 v -0.2109 h -1.0459 c 0.01,-0.07 0.066,-0.2067 0.3307,-0.3431 l 0.1984,-0.099 c 0.2894,-0.1447 0.5168,-0.277 0.5168,-0.5995 0,-0.3307 -0.2687,-0.5333 -0.6036,-0.5333 -0.2067,0 -0.6656,0.058 -0.6656,0.6408 z m -7.4052,4.7284 c 0,-0.2067 -0.1695,-0.4589 -0.5953,-0.4589 -0.4589,0 -0.583,0.3059 -0.583,0.492 0,0.1653 0.095,0.2894 0.2605,0.3472 -0.2026,0.074 -0.3266,0.215 -0.3266,0.4341 0,0.087 0,0.2811 0.1984,0.4258 0.153,0.1117 0.3556,0.1365 0.4631,0.1365 0.4547,0 0.649,-0.277 0.649,-0.5664 0,-0.1323 -0.054,-0.3307 -0.3142,-0.4341 0.087,-0.037 0.2481,-0.1158 0.2481,-0.3762 z m -0.5912,0.4878 c 0.2191,0 0.401,0.1075 0.401,0.3473 0,0.2811 -0.2108,0.339 -0.3845,0.339 -0.3348,0 -0.4134,-0.2109 -0.4134,-0.3555 0,-0.1654 0.1282,-0.3308 0.3969,-0.3308 z m 0,-0.1901 c -0.1778,0 -0.339,-0.1034 -0.339,-0.277 0,-0.1117 0.066,-0.277 0.3225,-0.277 0.2811,0 0.3555,0.1571 0.3555,0.2646 0,0.1653 -0.1323,0.2894 -0.339,0.2894 z m 1.7373,-0.7566 h -0.1901 c -0.079,0.2935 -0.2067,0.3225 -0.5168,0.3431 v 0.1778 h 0.4465 v 1.265 h 0.2604 z m 1.9896,0.6449 v -0.186 h -0.2274 v -0.3721 h -0.2439 v 0.3721 h -0.1943 v 0.186 h 0.1943 v 0.8765 c 0,0.1571 0.054,0.2811 0.2894,0.2811 0.025,0 0.095,-0.01 0.1819,-0.017 v -0.1736 h -0.083 c -0.05,0 -0.1447,0 -0.1447,-0.1075 v -0.8599 z m 0.1416,0.4755 c 0,0.3431 0.2067,0.7028 0.6656,0.7028 0.4589,0 0.6656,-0.3597 0.6656,-0.7028 0,-0.3432 -0.2067,-0.6987 -0.6656,-0.6987 -0.4589,0 -0.6656,0.3555 -0.6656,0.6987 z m 0.248,0 c 0,-0.1778 0.074,-0.5085 0.4176,-0.5085 0.3431,0 0.4175,0.3307 0.4175,0.5085 0,0.1777 -0.074,0.5085 -0.4175,0.5085 -0.3432,0 -0.4176,-0.3308 -0.4176,-0.5085 z m 2.6469,0.07 c 0.1778,0 0.3679,-0.079 0.4423,-0.2149 v 0 c -0.062,0.463 -0.1985,0.6697 -0.463,0.6697 -0.1985,0 -0.3101,-0.1116 -0.3266,-0.2935 h -0.2398 c 0,0.1736 0.1199,0.4796 0.5705,0.4796 0.6656,0 0.6987,-0.8145 0.6987,-1.0046 0,-0.2894 -0.058,-0.831 -0.6739,-0.831 -0.4051,0 -0.616,0.2894 -0.616,0.6119 0,0.3555 0.2481,0.5787 0.6036,0.5787 z m 0.037,-0.2025 c -0.1612,0 -0.3927,-0.041 -0.3927,-0.3845 0,-0.2398 0.1488,-0.401 0.372,-0.401 0.277,0 0.3886,0.1777 0.3886,0.3803 0,0.3514 -0.2439,0.4052 -0.3679,0.4052 z m 2.1301,-0.5127 c -0.025,-0.3638 -0.339,-0.4754 -0.5622,-0.4754 -0.5747,0 -0.7111,0.5664 -0.7111,0.955 0,0.2356 0.033,0.4547 0.1488,0.6201 0.1365,0.1984 0.3473,0.2605 0.4961,0.2605 0.2687,0 0.3845,-0.07 0.4878,-0.1737 0.1282,-0.1323 0.1819,-0.2646 0.1819,-0.4465 0,-0.4258 -0.3679,-0.5663 -0.6035,-0.5663 -0.2605,0 -0.3969,0.1199 -0.4548,0.2191 h -0.01 c 0,-0.1901 0.083,-0.6614 0.4589,-0.6614 0.2067,0 0.3018,0.1157 0.3308,0.2728 z m -0.9922,0.7607 c 0,-0.2108 0.1282,-0.3886 0.3969,-0.3886 0.2977,0 0.3886,0.2191 0.3886,0.3762 0,0.2439 -0.1488,0.4093 -0.3803,0.4093 -0.2812,0 -0.4052,-0.2067 -0.4052,-0.3969 z m -7.3184,4.0659 c -0.025,-0.3638 -0.339,-0.4754 -0.5622,-0.4754 -0.5747,0 -0.7111,0.5664 -0.7111,0.955 0,0.2356 0.033,0.4547 0.1488,0.6201 0.1365,0.1984 0.3473,0.2604 0.4961,0.2604 0.2687,0 0.3845,-0.07 0.4878,-0.1736 0.1282,-0.1323 0.1819,-0.2646 0.1819,-0.4465 0,-0.4258 -0.3679,-0.5664 -0.6035,-0.5664 -0.2605,0 -0.3969,0.1199 -0.4548,0.2192 h -0.01 c 0,-0.1902 0.083,-0.6614 0.4589,-0.6614 0.2067,0 0.3018,0.1157 0.3308,0.2728 z m -0.9922,0.7607 c 0,-0.2109 0.1282,-0.3886 0.3969,-0.3886 0.2976,0 0.3886,0.2191 0.3886,0.3762 0,0.2439 -0.1488,0.4093 -0.3803,0.4093 -0.2812,0 -0.4052,-0.2067 -0.4052,-0.3969 z m 1.6092,-0.9798 h 0.8144 v -0.215 h -0.9963 l -0.1447,0.955 0.2109,0.012 c 0.091,-0.1116 0.2149,-0.1736 0.3555,-0.1736 0.2356,0 0.4258,0.1405 0.4258,0.3969 0,0.2232 -0.1571,0.4092 -0.4051,0.4092 -0.215,0 -0.3845,-0.091 -0.4093,-0.2976 h -0.2481 c 0.045,0.3969 0.3721,0.4919 0.6202,0.4919 0.6035,0 0.6986,-0.4299 0.6986,-0.6284 0,-0.3679 -0.3183,-0.5705 -0.6325,-0.5705 -0.1695,0 -0.2894,0.054 -0.3721,0.1117 z m 2.4898,0.3886 v -0.186 h -0.2274 v -0.3721 h -0.2439 v 0.3721 h -0.1943 v 0.186 h 0.1943 v 0.8764 c 0,0.1571 0.054,0.2812 0.2894,0.2812 0.025,0 0.095,-0.01 0.1819,-0.017 v -0.1736 h -0.083 c -0.05,0 -0.1447,0 -0.1447,-0.1075 v -0.8599 z m 0.1416,0.4754 c 0,0.3432 0.2067,0.7028 0.6656,0.7028 0.4589,0 0.6656,-0.3596 0.6656,-0.7028 0,-0.3431 -0.2067,-0.6986 -0.6656,-0.6986 -0.4589,0 -0.6656,0.3555 -0.6656,0.6986 z m 0.248,0 c 0,-0.1777 0.074,-0.5085 0.4176,-0.5085 0.3431,0 0.4175,0.3308 0.4175,0.5085 0,0.1778 -0.074,0.5085 -0.4175,0.5085 -0.3432,0 -0.4176,-0.3307 -0.4176,-0.5085 z m 3.2753,-0.6614 c 0,-0.2067 -0.1695,-0.4589 -0.5953,-0.4589 -0.4589,0 -0.5829,0.3059 -0.5829,0.4919 0,0.1654 0.095,0.2894 0.2604,0.3473 -0.2026,0.074 -0.3266,0.215 -0.3266,0.4341 0,0.087 0,0.2811 0.1985,0.4258 0.1529,0.1116 0.3555,0.1364 0.463,0.1364 0.4547,0 0.649,-0.277 0.649,-0.5663 0,-0.1323 -0.054,-0.3308 -0.3142,-0.4341 0.087,-0.037 0.2481,-0.1158 0.2481,-0.3762 z m -0.5912,0.4878 c 0.2191,0 0.401,0.1075 0.401,0.3473 0,0.2811 -0.2108,0.339 -0.3845,0.339 -0.3348,0 -0.4134,-0.2109 -0.4134,-0.3556 0,-0.1653 0.1282,-0.3307 0.3969,-0.3307 z m 0,-0.1902 c -0.1778,0 -0.339,-0.1033 -0.339,-0.277 0,-0.1116 0.066,-0.2769 0.3225,-0.2769 0.2811,0 0.3555,0.1571 0.3555,0.2645 0,0.1654 -0.1323,0.2894 -0.339,0.2894 z m 1.9151,0.1613 c 0,0.4464 -0.124,0.7152 -0.401,0.7152 -0.277,0 -0.401,-0.2688 -0.401,-0.7152 0,-0.4465 0.124,-0.7152 0.401,-0.7152 0.277,0 0.401,0.2687 0.401,0.7152 z m 0.2605,0 c 0,-0.3721 -0.1075,-0.9178 -0.6615,-0.9178 -0.5539,0 -0.6614,0.5457 -0.6614,0.9178 0,0.372 0.1075,0.9177 0.6614,0.9177 0.554,0 0.6615,-0.5457 0.6615,-0.9177 z m -8.3024,5.3443 v -0.1943 h -0.2811 v -1.1575 h -0.1984 l -0.8806,1.1327 v 0.2191 h 0.8392 v 0.4341 h 0.2398 v -0.4341 z m -0.5291,-1.0046 h 0.01 v 0.8103 h -0.6201 z m 1.3281,0.8434 c 0.1777,0 0.3679,-0.078 0.4423,-0.215 v 0 c -0.062,0.463 -0.1984,0.6697 -0.463,0.6697 -0.1984,0 -0.31,-0.1116 -0.3266,-0.2935 h -0.2397 c 0,0.1736 0.1198,0.4795 0.5705,0.4795 0.6656,0 0.6986,-0.8144 0.6986,-1.0046 0,-0.2893 -0.058,-0.8309 -0.6738,-0.8309 -0.4052,0 -0.616,0.2894 -0.616,0.6118 0,0.3556 0.248,0.5788 0.6036,0.5788 z m 0.037,-0.2026 c -0.1613,0 -0.3928,-0.041 -0.3928,-0.3844 0,-0.2398 0.1489,-0.401 0.3721,-0.401 0.277,0 0.3886,0.1777 0.3886,0.3803 0,0.3514 -0.2439,0.4051 -0.3679,0.4051 z m 2.2169,-0.3431 v -0.186 h -0.2274 v -0.3721 h -0.2439 v 0.3721 h -0.1943 v 0.186 h 0.1943 v 0.8764 c 0,0.1571 0.054,0.2812 0.2894,0.2812 0.025,0 0.095,-0.01 0.1819,-0.017 v -0.1736 h -0.083 c -0.05,0 -0.1447,0 -0.1447,-0.1075 v -0.8599 z m 0.1416,0.4754 c 0,0.3432 0.2067,0.7028 0.6656,0.7028 0.4589,0 0.6656,-0.3596 0.6656,-0.7028 0,-0.3431 -0.2067,-0.6986 -0.6656,-0.6986 -0.4589,0 -0.6656,0.3555 -0.6656,0.6986 z m 0.248,0 c 0,-0.1777 0.074,-0.5085 0.4176,-0.5085 0.3431,0 0.4175,0.3308 0.4175,0.5085 0,0.1778 -0.074,0.5085 -0.4175,0.5085 -0.3432,0 -0.4176,-0.3307 -0.4176,-0.5085 z m 3.3042,-0.6449 c -0.025,-0.3638 -0.339,-0.4754 -0.5622,-0.4754 -0.5747,0 -0.7111,0.5664 -0.7111,0.955 0,0.2356 0.033,0.4547 0.1488,0.6201 0.1365,0.1984 0.3473,0.2604 0.4961,0.2604 0.2688,0 0.3845,-0.07 0.4879,-0.1736 0.1281,-0.1323 0.1819,-0.2646 0.1819,-0.4465 0,-0.4258 -0.368,-0.5664 -0.6036,-0.5664 -0.2605,0 -0.3969,0.1199 -0.4548,0.2191 h -0.01 c 0,-0.1902 0.083,-0.6614 0.4588,-0.6614 0.2068,0 0.3018,0.1157 0.3308,0.2728 z m -0.9922,0.7607 c 0,-0.2109 0.1282,-0.3886 0.3969,-0.3886 0.2977,0 0.3886,0.2191 0.3886,0.3762 0,0.2439 -0.1488,0.4093 -0.3803,0.4093 -0.2811,0 -0.4052,-0.2067 -0.4052,-0.3969 z m 2.556,0.1157 v -0.1943 h -0.2812 v -1.1575 h -0.1984 l -0.8806,1.1327 v 0.2191 h 0.8393 v 0.4341 h 0.2397 v -0.4341 z m -0.5292,-1.0046 h 0.01 v 0.8103 h -0.6202 z m -8.6,5.5263 c 0.037,0 0.074,0 0.1116,0 0.1612,0 0.4465,0.029 0.4465,0.3307 0,0.2026 -0.1695,0.3432 -0.4175,0.3432 -0.3597,0 -0.4011,-0.2233 -0.4093,-0.3928 h -0.2481 c 0.012,0.2067 0.07,0.4093 0.2853,0.5168 0.095,0.045 0.215,0.078 0.3555,0.078 0.492,0 0.6945,-0.2811 0.6945,-0.5746 0,-0.2398 -0.1364,-0.3597 -0.3224,-0.4176 v 0 c 0.1033,-0.029 0.248,-0.1406 0.248,-0.3679 0,-0.2729 -0.2232,-0.4713 -0.5953,-0.4713 -0.5043,0 -0.6201,0.3224 -0.6201,0.587 h 0.2356 c 0.01,-0.1281 0.033,-0.3845 0.3721,-0.3845 0.2894,0 0.3556,0.1737 0.3556,0.2812 0,0.2232 -0.1778,0.2935 -0.3638,0.2935 -0.041,0 -0.087,0 -0.1282,-0.01 z m 1.51,0 c 0.037,0 0.074,0 0.1116,0 0.1612,0 0.4465,0.029 0.4465,0.3307 0,0.2026 -0.1695,0.3432 -0.4176,0.3432 -0.3596,0 -0.401,-0.2233 -0.4092,-0.3928 h -0.2481 c 0.012,0.2067 0.07,0.4093 0.2853,0.5168 0.095,0.045 0.2149,0.078 0.3555,0.078 0.492,0 0.6945,-0.2811 0.6945,-0.5746 0,-0.2398 -0.1364,-0.3597 -0.3224,-0.4176 v 0 c 0.1033,-0.029 0.248,-0.1406 0.248,-0.3679 0,-0.2729 -0.2232,-0.4713 -0.5953,-0.4713 -0.5044,0 -0.6201,0.3224 -0.6201,0.587 h 0.2356 c 0.01,-0.1281 0.033,-0.3845 0.3721,-0.3845 0.2894,0 0.3555,0.1737 0.3555,0.2812 0,0.2232 -0.1777,0.2935 -0.3638,0.2935 -0.041,0 -0.087,0 -0.1281,-0.01 z m 2.3616,-0.3183 v -0.186 h -0.2274 v -0.3721 h -0.2439 v 0.3721 h -0.1943 v 0.186 h 0.1943 v 0.8764 c 0,0.1571 0.054,0.2812 0.2894,0.2812 0.025,0 0.095,-0.01 0.1819,-0.017 v -0.1736 h -0.083 c -0.05,0 -0.1447,0 -0.1447,-0.1075 v -0.8599 z m 0.1416,0.4754 c 0,0.3432 0.2067,0.7028 0.6656,0.7028 0.4589,0 0.6656,-0.3596 0.6656,-0.7028 0,-0.3431 -0.2067,-0.6986 -0.6656,-0.6986 -0.4589,0 -0.6656,0.3555 -0.6656,0.6986 z m 0.248,0 c 0,-0.1777 0.074,-0.5085 0.4176,-0.5085 0.3431,0 0.4175,0.3308 0.4175,0.5085 0,0.1778 -0.074,0.5085 -0.4175,0.5085 -0.3432,0 -0.4176,-0.3307 -0.4176,-0.5085 z m 3.358,0.2315 v -0.1943 h -0.2812 v -1.1575 h -0.1984 l -0.8806,1.1327 v 0.2191 h 0.8393 v 0.4341 h 0.2397 v -0.4341 z m -0.5292,-1.0046 h 0.01 v 0.8103 h -0.6201 z m 1.9565,0.1117 c 0,-0.2067 -0.1695,-0.4589 -0.5953,-0.4589 -0.4589,0 -0.583,0.3059 -0.583,0.4919 0,0.1654 0.095,0.2894 0.2605,0.3473 -0.2026,0.074 -0.3266,0.215 -0.3266,0.4341 0,0.087 0,0.2811 0.1984,0.4258 0.153,0.1116 0.3556,0.1364 0.4631,0.1364 0.4547,0 0.649,-0.277 0.649,-0.5663 0,-0.1323 -0.054,-0.3308 -0.3142,-0.4341 0.087,-0.037 0.2481,-0.1158 0.2481,-0.3762 z m -0.5912,0.4878 c 0.2191,0 0.401,0.1075 0.401,0.3473 0,0.2811 -0.2108,0.339 -0.3845,0.339 -0.3348,0 -0.4134,-0.2109 -0.4134,-0.3556 0,-0.1653 0.1282,-0.3307 0.3969,-0.3307 z m 0,-0.1902 c -0.1778,0 -0.339,-0.1033 -0.339,-0.277 0,-0.1116 0.066,-0.277 0.3225,-0.277 0.2811,0 0.3555,0.1571 0.3555,0.2646 0,0.1654 -0.1323,0.2894 -0.339,0.2894 z m -8.0832,4.1548 h -0.1902 c -0.079,0.2935 -0.2067,0.3225 -0.5168,0.3431 v 0.1778 h 0.4465 v 1.265 h 0.2605 z m 0.6252,0.2563 h 1.0625 c -0.3721,0.401 -0.7193,1.0377 -0.7855,1.5296 h 0.2646 c 0.1406,-0.7978 0.5995,-1.3642 0.7896,-1.5503 v -0.1943 h -1.3312 z m 2.8743,0.3886 v -0.186 h -0.2274 v -0.3721 h -0.2439 v 0.3721 h -0.1943 v 0.186 h 0.1943 v 0.8765 c 0,0.1571 0.054,0.2811 0.2894,0.2811 0.025,0 0.095,-0.01 0.1819,-0.017 v -0.1736 h -0.083 c -0.05,0 -0.1447,0 -0.1447,-0.1075 v -0.8599 z m 0.1416,0.4755 c 0,0.3431 0.2067,0.7027 0.6656,0.7027 0.4589,0 0.6656,-0.3596 0.6656,-0.7027 0,-0.3432 -0.2067,-0.6987 -0.6656,-0.6987 -0.4589,0 -0.6656,0.3555 -0.6656,0.6987 z m 0.248,0 c 0,-0.1778 0.074,-0.5085 0.4176,-0.5085 0.3431,0 0.4175,0.3307 0.4175,0.5085 0,0.1777 -0.074,0.5084 -0.4175,0.5084 -0.3432,0 -0.4176,-0.3307 -0.4176,-0.5084 z m 2.5394,-0.1571 c 0.037,0 0.074,0 0.1116,0 0.1613,0 0.4465,0.029 0.4465,0.3307 0,0.2026 -0.1695,0.3432 -0.4175,0.3432 -0.3597,0 -0.401,-0.2233 -0.4093,-0.3928 h -0.2481 c 0.013,0.2067 0.07,0.4093 0.2853,0.5168 0.095,0.045 0.215,0.079 0.3555,0.079 0.492,0 0.6946,-0.2812 0.6946,-0.5747 0,-0.2398 -0.1365,-0.3597 -0.3225,-0.4175 v 0 c 0.1034,-0.029 0.2481,-0.1405 0.2481,-0.3679 0,-0.2729 -0.2233,-0.4713 -0.5954,-0.4713 -0.5043,0 -0.6201,0.3225 -0.6201,0.587 h 0.2357 c 0.01,-0.1281 0.033,-0.3844 0.372,-0.3844 0.2894,0 0.3556,0.1736 0.3556,0.2811 0,0.2232 -0.1778,0.2935 -0.3638,0.2935 -0.041,0 -0.087,0 -0.1282,-0.01 z m 1.2578,-0.3225 c 0.01,-0.124 0.025,-0.4382 0.3886,-0.4382 0.2853,0 0.3804,0.1777 0.3804,0.3224 0,0.2315 -0.1447,0.306 -0.3514,0.4176 l -0.2564,0.1364 c -0.2563,0.1364 -0.434,0.3349 -0.4506,0.7069 h 1.3188 v -0.2108 h -1.0459 c 0.01,-0.07 0.066,-0.2067 0.3307,-0.3431 l 0.1984,-0.099 c 0.2894,-0.1447 0.5168,-0.277 0.5168,-0.5995 0,-0.3307 -0.2687,-0.5333 -0.6036,-0.5333 -0.2067,0 -0.6656,0.058 -0.6656,0.6408 z m 0,0"
       style="fill:#000000;fill-opacity:1;fill-rule:nonzero;stroke:none;stroke-width:0.339949"
       aria-label="113 to 127&#10;97 to 112&#10;81 to 96&#10;65 to 80&#10;49 to 64&#10;33 to 48&#10;17 to 32" />
    <path
       id="path422"
       d="m 2061.972,-2001.3506 1.27,3.556"
       style="fill:none;stroke:#000000;stroke-width:0.0846667;stroke-linecap:round;stroke-linejoin:round;stroke-miterlimit:10;stroke-dasharray:none;stroke-opacity:1" />
    <path
       id="path423"
       d="m 2062.6493,-2001.3506 2.4554,3.556"
       style="fill:none;stroke:#000000;stroke-width:0.0846667;stroke-linecap:round;stroke-linejoin:round;stroke-miterlimit:10;stroke-dasharray:none;stroke-opacity:1" />
    <path
       id="path424"
       d="m 2066.3747,-2001.3506 4.4026,3.556"
       style="fill:none;stroke:#000000;stroke-width:0.0846667;stroke-linecap:round;stroke-linejoin:round;stroke-miterlimit:10;stroke-dasharray:none;stroke-opacity:1" />
    <path
       id="path425"
       d="m 2062.1686,-1997.6223 h -0.087 c -0.033,0.1654 -0.091,0.1819 -0.2357,0.1943 v 0.099 h 0.2067 v 0.7193 h 0.1158 z m 0,0"
       style="fill:#000000;fill-opacity:1;fill-rule:nonzero;stroke:none;stroke-width:0.377135"
       aria-label="1" />
    <path
       id="path426"
       d="m 2063.2714,-1997.4683 h -0.1571 l -0.5912,1.662 h 0.1612 z m 0,0"
       style="fill:#000000;fill-opacity:1;fill-rule:nonzero;stroke:none;stroke-width:0.33776"
       aria-label="/" />
    <path
       id="path427"
       d="m 2063.7902,-1995.9139 c -0.01,-0.2025 -0.153,-0.2687 -0.2564,-0.2687 -0.2645,0 -0.3266,0.3225 -0.3266,0.5416 0,0.1323 0.012,0.2563 0.066,0.3514 0.062,0.1116 0.1612,0.1488 0.2274,0.1488 0.124,0 0.1777,-0.041 0.2273,-0.099 0.058,-0.074 0.083,-0.1488 0.083,-0.2522 0,-0.2439 -0.1695,-0.3224 -0.277,-0.3224 -0.1199,0 -0.1819,0.07 -0.2108,0.124 v 0 c 0,-0.1033 0.037,-0.372 0.2108,-0.372 0.095,0 0.1406,0.066 0.153,0.1529 z m -0.4548,0.4341 c 0,-0.1199 0.058,-0.2191 0.1819,-0.2191 0.1364,0 0.1778,0.124 0.1778,0.2108 0,0.1365 -0.066,0.2316 -0.1737,0.2316 -0.1281,0 -0.186,-0.1158 -0.186,-0.2233 z m 1.1607,0.062 v -0.1075 h -0.1323 v -0.6573 h -0.091 l -0.4051,0.6449 v 0.1199 h 0.3844 v 0.2481 h 0.1117 v -0.2481 z m -0.244,-0.5663 v 0.4588 h -0.2852 z m 0.3721,-1.5534 h -0.087 c -0.033,0.1653 -0.091,0.1819 -0.2357,0.1943 v 0.099 h 0.2068 v 0.7193 h 0.1157 z m 0,0"
       style="fill:#000000;fill-opacity:1;fill-rule:nonzero;stroke:none;stroke-width:0.377135"
       aria-label="64&#10;1" />
    <path
       id="path428"
       d="m 2065.727,-1997.4683 h -0.1571 l -0.5912,1.662 h 0.1613 z m 0,0"
       style="fill:#000000;fill-opacity:1;fill-rule:nonzero;stroke:none;stroke-width:0.33776"
       aria-label="/" />
    <path
       id="path429"
       d="m 2065.8934,-1995.5521 c 0.017,0 0.037,0 0.054,0 0.074,0 0.2067,0.017 0.2067,0.186 0,0.1158 -0.083,0.1943 -0.1943,0.1943 -0.1654,0 -0.186,-0.1281 -0.1902,-0.2232 h -0.1157 c 0.01,0.1158 0.037,0.2356 0.1323,0.2935 0.045,0.025 0.099,0.045 0.1653,0.045 0.2274,0 0.3184,-0.1612 0.3184,-0.3266 0,-0.1364 -0.062,-0.2026 -0.1447,-0.2356 v 0 c 0.045,-0.016 0.1116,-0.079 0.1116,-0.2067 0,-0.1571 -0.1034,-0.2687 -0.2729,-0.2687 -0.2356,0 -0.2852,0.186 -0.2852,0.3307 h 0.1075 c 0,-0.07 0.012,-0.2149 0.1736,-0.2149 0.1323,0 0.1612,0.099 0.1612,0.1571 0,0.1281 -0.083,0.1653 -0.1695,0.1653 -0.017,0 -0.037,0 -0.058,0 z m 0.5623,-0.1819 c 0,-0.07 0.012,-0.248 0.1819,-0.248 0.1281,0 0.1736,0.1033 0.1736,0.1819 0,0.1322 -0.07,0.1736 -0.1612,0.2356 l -0.1199,0.078 c -0.1158,0.079 -0.2026,0.1902 -0.2067,0.4011 h 0.6077 v -0.1199 h -0.4837 c 0,-0.037 0.033,-0.1158 0.153,-0.1943 l 0.091,-0.058 c 0.1323,-0.079 0.2398,-0.1571 0.2398,-0.339 0,-0.186 -0.124,-0.3018 -0.277,-0.3018 -0.099,0 -0.31,0.033 -0.31,0.3638 z m 0.6232,-1.8035 h -0.087 c -0.033,0.1654 -0.091,0.1819 -0.2357,0.1943 v 0.099 h 0.2067 v 0.7194 h 0.1158 z m 0,0"
       style="fill:#000000;fill-opacity:1;fill-rule:nonzero;stroke:none;stroke-width:0.377135"
       aria-label="32&#10;1" />
    <path
       id="path430"
       d="m 2068.1826,-1997.4683 h -0.157 l -0.5912,1.662 h 0.1612 z m 0,0"
       style="fill:#000000;fill-opacity:1;fill-rule:nonzero;stroke:none;stroke-width:0.33776"
       aria-label="/" />
    <path
       id="path431"
       d="m 2068.6034,-1996.0978 h -0.087 c -0.033,0.1654 -0.091,0.1819 -0.2356,0.1943 v 0.099 h 0.2067 v 0.7194 h 0.1158 z m 0.8588,0.2687 c -0.01,-0.2026 -0.1529,-0.2687 -0.2563,-0.2687 -0.2646,0 -0.3266,0.3225 -0.3266,0.5416 0,0.1323 0.012,0.2563 0.066,0.3514 0.062,0.1116 0.1612,0.1488 0.2273,0.1488 0.1241,0 0.1778,-0.041 0.2274,-0.099 0.058,-0.074 0.083,-0.1488 0.083,-0.2522 0,-0.2439 -0.1695,-0.3225 -0.277,-0.3225 -0.1199,0 -0.1819,0.07 -0.2108,0.1241 v 0 c 0,-0.1033 0.037,-0.372 0.2109,-0.372 0.095,0 0.1405,0.066 0.1529,0.1529 z m -0.4547,0.4341 c 0,-0.1199 0.058,-0.2191 0.1819,-0.2191 0.1364,0 0.1777,0.124 0.1777,0.2108 0,0.1365 -0.066,0.2315 -0.1736,0.2315 -0.1282,0 -0.186,-0.1157 -0.186,-0.2232 z m 0,0"
       style="fill:#000000;fill-opacity:1;fill-rule:nonzero;stroke:none;stroke-width:0.377135"
       aria-label="16" />
    <path
       id="path432"
       d="m 2063.9193,-2001.3506 3.7254,3.556"
       style="fill:none;stroke:#000000;stroke-width:0.0846667;stroke-linecap:round;stroke-linejoin:round;stroke-miterlimit:10;stroke-dasharray:none;stroke-opacity:1" />
    <path
       id="path433"
       d="m 2070.043,-1997.5376 h -0.087 c -0.033,0.1654 -0.091,0.1819 -0.2356,0.1943 v 0.099 h 0.2067 v 0.7193 h 0.1157 z m 0,0"
       style="fill:#000000;fill-opacity:1;fill-rule:nonzero;stroke:none;stroke-width:0.377135"
       aria-label="1" />
    <path
       id="path434"
       d="m 2071.1458,-1997.4683 h -0.1571 l -0.5911,1.662 h 0.1612 z m 0,0"
       style="fill:#000000;fill-opacity:1;fill-rule:nonzero;stroke:none;stroke-width:0.33776"
       aria-label="/" />
    <path
       id="path435"
       d="m 2071.736,-1995.8374 c 0,-0.1157 -0.079,-0.2604 -0.2729,-0.2604 -0.2108,0 -0.2687,0.1736 -0.2687,0.2811 0,0.091 0.046,0.1613 0.1199,0.1943 -0.095,0.045 -0.1489,0.124 -0.1489,0.2481 0,0.05 0,0.1571 0.091,0.2397 0.07,0.062 0.1612,0.079 0.2108,0.079 0.2109,0 0.3018,-0.1571 0.3018,-0.3225 0,-0.074 -0.025,-0.186 -0.1447,-0.2439 0.037,-0.025 0.1117,-0.07 0.1117,-0.215 z m -0.2729,0.277 c 0.1034,0 0.186,0.062 0.186,0.1985 0,0.1571 -0.095,0.1901 -0.1777,0.1901 -0.153,0 -0.1902,-0.1198 -0.1902,-0.2025 0,-0.091 0.058,-0.1861 0.1819,-0.1861 z m 0,-0.1075 c -0.079,0 -0.153,-0.062 -0.153,-0.157 0,-0.066 0.029,-0.1571 0.1447,-0.1571 0.1323,0 0.1654,0.087 0.1654,0.1488 0,0.095 -0.062,0.1653 -0.1571,0.1653 z m 0,0"
       style="fill:#000000;fill-opacity:1;fill-rule:nonzero;stroke:none;stroke-width:0.377135"
       aria-label="8" />
    <path
       id="path436"
       d="m 2070.6228,-2000.8479 h -0.1157 c -0.05,0.1943 -0.1282,0.2108 -0.3225,0.2274 v 0.1157 h 0.2811 v 0.8475 h 0.1571 z m 0,0"
       style="fill:#000000;fill-opacity:1;fill-rule:nonzero;stroke:none;stroke-width:0.352778"
       aria-label="1" />
    <path
       id="path437"
       d="m 2071.7525,-2000.6836 h -0.1777 l -0.6739,1.9223 h 0.1819 z m 0,0"
       style="fill:#000000;fill-opacity:1;fill-rule:nonzero;stroke:none;stroke-width:0.339949"
       aria-label="/" />
    <path
       id="path438"
       d="m 2072.5938,-1998.169 v -0.1281 h -0.1736 v -0.7731 h -0.124 l -0.5457,0.7565 v 0.1447 h 0.5209 v 0.2894 h 0.1488 v -0.2894 z m -0.3266,-0.6697 v 0 0.5416 h -0.3845 z m 8.3468,-2.0092 h -0.1158 c -0.05,0.1943 -0.1281,0.2108 -0.3224,0.2274 v 0.1157 h 0.2811 v 0.8475 h 0.1571 z m 0,0"
       style="fill:#000000;fill-opacity:1;fill-rule:nonzero;stroke:none;stroke-width:0.352778"
       aria-label="4&#10;1" />
    <path
       id="path439"
       d="m 2081.7436,-2000.6836 h -0.1778 l -0.6739,1.9223 h 0.1819 z m 0,0"
       style="fill:#000000;fill-opacity:1;fill-rule:nonzero;stroke:none;stroke-width:0.339949"
       aria-label="/" />
    <path
       id="path440"
       d="m 2081.9224,-1998.6444 c 0,-0.083 0.017,-0.2935 0.2398,-0.2935 0.1777,0 0.2356,0.1199 0.2356,0.2149 0,0.1571 -0.091,0.2067 -0.2191,0.277 l -0.1571,0.095 c -0.1571,0.091 -0.2687,0.2232 -0.277,0.4713 h 0.8144 v -0.1406 h -0.649 c 0.01,-0.045 0.045,-0.1405 0.2067,-0.2273 l 0.124,-0.07 c 0.1778,-0.095 0.3183,-0.1819 0.3183,-0.3969 0,-0.2232 -0.1653,-0.3555 -0.372,-0.3555 -0.1282,0 -0.4135,0.037 -0.4135,0.4258 z m 0,0"
       style="fill:#000000;fill-opacity:1;fill-rule:nonzero;stroke:none;stroke-width:0.352778"
       aria-label="2" />
    <path
       id="path441"
       d="m 2100.4628,-2000.5968 h -0.1901 c -0.079,0.2935 -0.2067,0.3224 -0.5168,0.3431 v 0.1778 h 0.4465 v 1.265 h 0.2604 z m -70.191,-23.3123 0.2067,0.1488 c -0.083,0.037 -0.1819,0.058 -0.2894,0.058 -0.4299,0 -0.6863,-0.3142 -0.6863,-0.74 0,-0.4299 0.2564,-0.7441 0.6863,-0.7441 0.4258,0 0.6821,0.3142 0.6821,0.7441 0,0.2315 -0.079,0.4341 -0.2149,0.5622 l -0.2522,-0.1819 z m 0.8557,0.3721 -0.2687,-0.1943 c 0.2109,-0.1943 0.2853,-0.4837 0.2853,-0.7111 0,-0.3969 -0.2233,-0.9632 -0.955,-0.9632 -0.7359,0 -0.9591,0.5663 -0.9591,0.9632 0,0.3928 0.2232,0.9591 0.9591,0.9591 0.2067,0 0.3762,-0.045 0.5044,-0.124 l 0.3018,0.215 z m 1.4387,0 v -1.327 h -0.2439 v 0.7317 c 0,0.1902 -0.087,0.4424 -0.3927,0.4424 -0.1571,0 -0.277,-0.074 -0.277,-0.2936 v -0.8805 h -0.2398 v 0.9549 c 0,0.3142 0.2563,0.4093 0.4672,0.4093 0.2273,0 0.3514,-0.079 0.4506,-0.2356 h 0.01 v 0.1943 z m 0.5509,-0.9219 c 0.016,-0.1033 0.054,-0.2604 0.3266,-0.2604 0.2274,0 0.339,0.079 0.339,0.2191 0,0.1323 -0.07,0.1529 -0.1282,0.1571 l -0.3968,0.045 c -0.4011,0.045 -0.4341,0.3018 -0.4341,0.4134 0,0.2316 0.186,0.3845 0.4465,0.3845 0.2811,0 0.4258,-0.1199 0.5209,-0.215 0.01,0.1034 0.037,0.2026 0.2521,0.2026 0.054,0 0.091,-0.016 0.1323,-0.025 v -0.1612 c -0.029,0 -0.058,0.01 -0.079,0.01 -0.05,0 -0.083,-0.021 -0.083,-0.079 v -0.7648 c 0,-0.339 -0.4134,-0.3679 -0.5292,-0.3679 -0.3514,0 -0.5788,0.124 -0.5912,0.4423 z m 0.6573,0.463 c 0,0.1778 -0.2191,0.3101 -0.4423,0.3101 -0.1819,0 -0.2605,-0.083 -0.2605,-0.2274 0,-0.1695 0.1902,-0.2026 0.3059,-0.2191 0.2977,-0.033 0.3597,-0.054 0.3969,-0.083 z m 1.7901,-0.4465 c 0,-0.3762 -0.277,-0.4588 -0.5002,-0.4588 -0.2481,0 -0.3804,0.1529 -0.4341,0.2232 v 0 -0.186 h -0.2273 v 1.327 h 0.2398 v -0.7235 c 0,-0.3596 0.2439,-0.4423 0.3803,-0.4423 0.2356,0 0.3059,0.1158 0.3059,0.3473 v 0.8185 h 0.2398 z m 0.8568,-0.2356 v -0.186 h -0.2274 v -0.3721 h -0.2439 v 0.3721 h -0.1943 v 0.186 h 0.1943 v 0.8764 c 0,0.1571 0.054,0.2812 0.2894,0.2812 0.025,0 0.095,-0.01 0.1819,-0.017 v -0.1736 h -0.083 c -0.05,0 -0.1447,0 -0.1447,-0.1075 v -0.8599 z m 0.4589,-0.186 h -0.2439 v 1.327 h 0.2439 z m 0,-0.2398 v -0.2563 h -0.2439 v 0.2563 z m 1.3818,0.616 c 0,-0.066 -0.037,-0.4134 -0.5457,-0.4134 -0.2853,0 -0.5457,0.1322 -0.5457,0.4216 0,0.1819 0.1323,0.277 0.3349,0.3225 l 0.2769,0.066 c 0.2067,0.045 0.2853,0.083 0.2853,0.1902 0,0.1447 -0.1571,0.2109 -0.3307,0.2109 -0.339,0 -0.3721,-0.1695 -0.3804,-0.2729 h -0.2315 c 0.01,0.1612 0.05,0.463 0.616,0.463 0.3225,0 0.5664,-0.1653 0.5664,-0.4382 0,-0.1819 -0.1034,-0.2811 -0.401,-0.3514 l -0.2398,-0.054 c -0.1861,-0.045 -0.2605,-0.07 -0.2605,-0.1778 0,-0.1654 0.2109,-0.1902 0.2853,-0.1902 0.3018,0 0.3349,0.1406 0.339,0.2233 z m 0.5126,0.029 c 0.017,-0.1033 0.054,-0.2604 0.3266,-0.2604 0.2274,0 0.339,0.079 0.339,0.2191 0,0.1323 -0.07,0.1529 -0.1281,0.1571 l -0.3969,0.045 c -0.401,0.045 -0.4341,0.3018 -0.4341,0.4134 0,0.2316 0.186,0.3845 0.4465,0.3845 0.2811,0 0.4258,-0.1199 0.5209,-0.215 0.01,0.1034 0.037,0.2026 0.2522,0.2026 0.054,0 0.091,-0.016 0.1323,-0.025 v -0.1612 c -0.029,0 -0.058,0.01 -0.079,0.01 -0.05,0 -0.083,-0.021 -0.083,-0.079 v -0.7648 c 0,-0.339 -0.4134,-0.3679 -0.5291,-0.3679 -0.3514,0 -0.5788,0.124 -0.5912,0.4423 z m 0.6573,0.463 c 0,0.1778 -0.2191,0.3101 -0.4423,0.3101 -0.1819,0 -0.2605,-0.083 -0.2605,-0.2274 0,-0.1695 0.1902,-0.2026 0.306,-0.2191 0.2976,-0.033 0.3596,-0.054 0.3968,-0.083 z m 1.1493,-0.6821 v -0.186 h -0.2273 v -0.3721 h -0.244 v 0.3721 h -0.1943 v 0.186 h 0.1943 v 0.8764 c 0,0.1571 0.054,0.2812 0.2894,0.2812 0.025,0 0.095,-0.01 0.1819,-0.017 v -0.1736 h -0.083 c -0.05,0 -0.1447,0 -0.1447,-0.1075 v -0.8599 z m 0.46,-0.186 h -0.244 v 1.327 h 0.244 z m 0,-0.2398 v -0.2563 h -0.244 v 0.2563 z m 0.2532,0.9012 c 0,0.3432 0.2067,0.7028 0.6656,0.7028 0.4588,0 0.6656,-0.3596 0.6656,-0.7028 0,-0.3431 -0.2068,-0.6986 -0.6656,-0.6986 -0.4589,0 -0.6656,0.3555 -0.6656,0.6986 z m 0.248,0 c 0,-0.1777 0.074,-0.5085 0.4176,-0.5085 0.3431,0 0.4175,0.3308 0.4175,0.5085 0,0.1778 -0.074,0.5085 -0.4175,0.5085 -0.3432,0 -0.4176,-0.3307 -0.4176,-0.5085 z m 2.497,-0.2398 c 0,-0.3762 -0.277,-0.4588 -0.5002,-0.4588 -0.2481,0 -0.3803,0.1529 -0.4341,0.2232 v 0 -0.186 h -0.2274 v 1.327 h 0.2398 v -0.7235 c 0,-0.3596 0.2439,-0.4423 0.3803,-0.4423 0.2357,0 0.3059,0.1158 0.3059,0.3473 v 0.8185 h 0.2398 z m -10.4272,2.2149 h -0.244 v 1.8231 h 0.244 z m 1.2846,1.4056 c -0.01,0.099 -0.1447,0.2646 -0.372,0.2646 -0.277,0 -0.4135,-0.1613 -0.4135,-0.4382 h 1.046 c 0,-0.4713 -0.2026,-0.7731 -0.616,-0.7731 -0.4754,0 -0.6904,0.3266 -0.6904,0.7359 0,0.3844 0.2398,0.6655 0.6408,0.6655 0.2315,0 0.3266,-0.05 0.3886,-0.091 0.1819,-0.1116 0.248,-0.2977 0.2563,-0.3638 z m -0.7855,-0.3514 c 0,-0.2067 0.1737,-0.3969 0.3969,-0.3969 0.2935,0 0.3845,0.1902 0.3969,0.3969 z m 1.7808,0.5209 v 0 l -0.3721,-1.079 h -0.2811 l 0.525,1.327 h 0.2563 l 0.5457,-1.327 h -0.2645 z m 1.7922,-0.1695 c -0.01,0.099 -0.1447,0.2646 -0.3721,0.2646 -0.277,0 -0.4134,-0.1613 -0.4134,-0.4382 h 1.0459 c 0,-0.4713 -0.2026,-0.7731 -0.616,-0.7731 -0.4754,0 -0.6904,0.3266 -0.6904,0.7359 0,0.3844 0.2398,0.6655 0.6408,0.6655 0.2315,0 0.3266,-0.05 0.3886,-0.091 0.1819,-0.1116 0.2481,-0.2977 0.2563,-0.3638 z m -0.7855,-0.3514 c 0,-0.2067 0.1736,-0.3969 0.3968,-0.3969 0.2936,0 0.3845,0.1902 0.3969,0.3969 z m 1.5286,-1.0542 h -0.244 v 1.8231 h 0.244 z m 1.3539,0.8723 c 0,-0.066 -0.037,-0.4134 -0.5457,-0.4134 -0.2853,0 -0.5457,0.1323 -0.5457,0.4217 0,0.1819 0.1323,0.2769 0.3348,0.3224 l 0.277,0.066 c 0.2067,0.045 0.2853,0.083 0.2853,0.1901 0,0.1447 -0.1571,0.2109 -0.3308,0.2109 -0.3389,0 -0.372,-0.1695 -0.3803,-0.2729 h -0.2315 c 0.01,0.1613 0.05,0.463 0.616,0.463 0.3224,0 0.5664,-0.1653 0.5664,-0.4382 0,-0.1819 -0.1034,-0.2811 -0.4011,-0.3514 l -0.2397,-0.054 c -0.1861,-0.045 -0.2605,-0.07 -0.2605,-0.1778 0,-0.1653 0.2109,-0.1901 0.2853,-0.1901 0.3018,0 0.3348,0.1405 0.339,0.2232 z m 0,0"
       style="fill:#000000;fill-opacity:1;fill-rule:nonzero;stroke:none;stroke-width:0.339949"
       aria-label="1&#10;Quantisation&#10;levels" />
    <path
       id="path442"
       d="m 2045.8007,-2030.6453 v 20.066"
       style="fill:none;stroke:#000000;stroke-width:0.169333;stroke-linecap:round;stroke-linejoin:round;stroke-miterlimit:10;stroke-dasharray:none;stroke-opacity:1" />
    <path
       id="path443"
       d="m 2045.1233,-2030.476 0.6774,-1.4393 0.762,1.4393 h -1.4394"
       style="fill:#000000;fill-opacity:1;fill-rule:evenodd;stroke:none;stroke-width:0.352778" />
    <path
       id="path444"
       d="m 2105.306,-2002.4644 v 0 l -0.9839,-1.4717 h -0.3142 v 1.8231 h 0.2605 v -1.4717 0 l 0.9963,1.4717 h 0.3018 v -1.8231 h -0.2604 z m 0.524,-0.3142 c 0,0.3431 0.2067,0.7028 0.6656,0.7028 0.4588,0 0.6655,-0.3597 0.6655,-0.7028 0,-0.3431 -0.2067,-0.6987 -0.6655,-0.6987 -0.4589,0 -0.6656,0.3556 -0.6656,0.6987 z m 0.248,0 c 0,-0.1778 0.074,-0.5085 0.4176,-0.5085 0.3431,0 0.4175,0.3307 0.4175,0.5085 0,0.1778 -0.074,0.5085 -0.4175,0.5085 -0.3432,0 -0.4176,-0.3307 -0.4176,-0.5085 z m 1.5916,-0.1075 c 0,-0.1902 0.1447,-0.3555 0.368,-0.3555 h 0.091 v -0.2274 c -0.021,-0.01 -0.033,-0.01 -0.062,-0.01 -0.1819,0 -0.31,0.1034 -0.4051,0.2564 v 0 -0.2192 h -0.2273 v 1.3271 h 0.2397 z m 0.6016,0.7731 h 0.2397 v -0.7235 c 0,-0.3596 0.2439,-0.4423 0.3804,-0.4423 0.1777,0 0.2232,0.1364 0.2232,0.248 v 0.9178 h 0.2398 v -0.8103 c 0,-0.1778 0.1364,-0.3555 0.339,-0.3555 0.2026,0 0.2646,0.124 0.2646,0.3059 v 0.8599 h 0.2398 v -0.9178 c 0,-0.3762 -0.2894,-0.4465 -0.4424,-0.4465 -0.2232,0 -0.3183,0.091 -0.4382,0.215 -0.041,-0.07 -0.124,-0.215 -0.3804,-0.215 -0.2563,0 -0.3803,0.153 -0.434,0.2233 v 0 -0.1861 h -0.2273 z m 2.4567,-0.9219 c 0.017,-0.1034 0.054,-0.2605 0.3265,-0.2605 0.2274,0 0.339,0.079 0.339,0.2191 0,0.1323 -0.07,0.153 -0.1281,0.1571 l -0.3969,0.045 c -0.401,0.046 -0.4341,0.3018 -0.4341,0.4134 0,0.2315 0.1861,0.3845 0.4465,0.3845 0.2811,0 0.4258,-0.1199 0.5209,-0.215 0.01,0.1034 0.037,0.2026 0.2522,0.2026 0.054,0 0.091,-0.017 0.1323,-0.025 v -0.1612 c -0.029,0 -0.058,0.01 -0.079,0.01 -0.05,0 -0.083,-0.021 -0.083,-0.078 v -0.7648 c 0,-0.339 -0.4135,-0.368 -0.5292,-0.368 -0.3514,0 -0.5788,0.1241 -0.5912,0.4424 z m 0.6573,0.463 c 0,0.1778 -0.2191,0.3101 -0.4424,0.3101 -0.1819,0 -0.2604,-0.083 -0.2604,-0.2274 0,-0.1695 0.1901,-0.2026 0.3059,-0.2191 0.2977,-0.033 0.3597,-0.054 0.3969,-0.083 z m 0.8599,-1.3642 h -0.2439 v 1.8231 h 0.2439 z m 0.5705,0.496 h -0.2439 v 1.3271 h 0.2439 z m 0,-0.2397 v -0.2563 h -0.2439 v 0.2563 z m 1.3684,0.616 c 0,-0.066 -0.037,-0.4135 -0.5457,-0.4135 -0.2853,0 -0.5457,0.1323 -0.5457,0.4217 0,0.1819 0.1323,0.277 0.3348,0.3225 l 0.277,0.066 c 0.2067,0.045 0.2853,0.083 0.2853,0.1902 0,0.1447 -0.1571,0.2108 -0.3308,0.2108 -0.339,0 -0.372,-0.1695 -0.3803,-0.2728 h -0.2315 c 0.01,0.1612 0.05,0.463 0.616,0.463 0.3224,0 0.5663,-0.1654 0.5663,-0.4382 0,-0.1819 -0.1033,-0.2811 -0.401,-0.3514 l -0.2397,-0.054 c -0.1861,-0.045 -0.2605,-0.07 -0.2605,-0.1777 0,-0.1654 0.2109,-0.1902 0.2853,-0.1902 0.3018,0 0.3348,0.1406 0.339,0.2233 z m 1.2598,0.5333 c -0.01,0.099 -0.1446,0.2645 -0.372,0.2645 -0.277,0 -0.4134,-0.1612 -0.4134,-0.4382 h 1.0459 c 0,-0.4713 -0.2026,-0.7731 -0.616,-0.7731 -0.4754,0 -0.6904,0.3266 -0.6904,0.7359 0,0.3845 0.2398,0.6656 0.6408,0.6656 0.2315,0 0.3266,-0.05 0.3886,-0.091 0.1819,-0.1117 0.2481,-0.2977 0.2563,-0.3638 z m -0.7854,-0.3514 c 0,-0.2068 0.1736,-0.3969 0.3968,-0.3969 0.2936,0 0.3845,0.1901 0.3969,0.3969 z m 2.4804,-1.0542 h -0.2397 v 0.6655 0.017 c -0.058,-0.074 -0.1695,-0.2233 -0.4299,-0.2233 -0.3804,0 -0.5953,0.2894 -0.5953,0.6615 0,0.3183 0.1447,0.74 0.6283,0.74 0.1406,0 0.306,-0.041 0.4093,-0.2191 v 0 0.1819 h 0.2273 z m -1.0211,1.1575 c 0,-0.1736 0.021,-0.5002 0.3927,-0.5002 0.3473,0 0.3845,0.3472 0.3845,0.5622 0,0.3555 -0.2356,0.4506 -0.3886,0.4506 -0.2646,0 -0.3886,-0.2232 -0.3886,-0.5126 z m -10.912,2.7916 c 0.017,-0.1034 0.054,-0.2605 0.3266,-0.2605 0.2274,0 0.339,0.079 0.339,0.2191 0,0.1323 -0.07,0.153 -0.1282,0.1571 l -0.3968,0.045 c -0.401,0.046 -0.4341,0.3018 -0.4341,0.4134 0,0.2315 0.186,0.3845 0.4465,0.3845 0.2811,0 0.4258,-0.1199 0.5209,-0.215 0.01,0.1034 0.037,0.2026 0.2522,0.2026 0.054,0 0.091,-0.017 0.1322,-0.025 v -0.1613 c -0.029,0 -0.058,0.01 -0.079,0.01 -0.05,0 -0.083,-0.021 -0.083,-0.078 v -0.7648 c 0,-0.339 -0.4134,-0.368 -0.5292,-0.368 -0.3514,0 -0.5787,0.124 -0.5911,0.4424 z m 0.6573,0.463 c 0,0.1778 -0.2191,0.31 -0.4423,0.31 -0.1819,0 -0.2605,-0.083 -0.2605,-0.2273 0,-0.1695 0.1902,-0.2026 0.306,-0.2191 0.2976,-0.033 0.3596,-0.054 0.3968,-0.083 z m 0.6108,0.4589 h 0.2398 v -0.7235 c 0,-0.3597 0.2439,-0.4423 0.3804,-0.4423 0.1777,0 0.2232,0.1364 0.2232,0.248 v 0.9178 h 0.2398 v -0.8103 c 0,-0.1778 0.1364,-0.3555 0.339,-0.3555 0.2026,0 0.2646,0.124 0.2646,0.3059 v 0.8599 h 0.2397 v -0.9178 c 0,-0.3762 -0.2893,-0.4465 -0.4423,-0.4465 -0.2232,0 -0.3183,0.091 -0.4382,0.215 -0.041,-0.07 -0.124,-0.215 -0.3804,-0.215 -0.2563,0 -0.3803,0.153 -0.434,0.2233 v 0 -0.1861 h -0.2274 z m 2.4516,-0.6036 c 0,-0.215 0.037,-0.5622 0.3845,-0.5622 0.372,0 0.3927,0.3265 0.3927,0.5002 0,0.2894 -0.124,0.5126 -0.3845,0.5126 -0.1529,0 -0.3927,-0.095 -0.3927,-0.4506 z m -0.2315,1.1286 h 0.2439 v -0.6656 0 c 0.062,0.095 0.1902,0.1778 0.3804,0.1778 0.4878,0 0.6283,-0.4217 0.6283,-0.74 0,-0.3721 -0.2149,-0.6615 -0.5953,-0.6615 -0.2604,0 -0.3679,0.1488 -0.4258,0.2233 h -0.01 v -0.1861 h -0.2273 z m 1.7508,-2.3482 h -0.2439 v 1.8232 h 0.2439 z m 0.5694,0.4961 h -0.2439 v 1.3271 h 0.2439 z m 0,-0.2398 v -0.2563 h -0.2439 v 0.2563 z m 0.8455,0.4259 v -0.1861 h -0.2274 v -0.372 h -0.2439 v 0.372 h -0.1943 v 0.1861 h 0.1943 v 0.8764 c 0,0.1571 0.054,0.2811 0.2894,0.2811 0.025,0 0.095,-0.01 0.1819,-0.016 v -0.1737 h -0.083 c -0.05,0 -0.1447,0 -0.1447,-0.1074 v -0.8599 z m 1.3591,1.141 v -1.3271 h -0.244 v 0.7318 c 0,0.1901 -0.087,0.4423 -0.3927,0.4423 -0.1571,0 -0.277,-0.074 -0.277,-0.2935 v -0.8806 h -0.2398 v 0.955 c 0,0.3142 0.2564,0.4093 0.4672,0.4093 0.2274,0 0.3514,-0.079 0.4506,-0.2357 h 0.01 v 0.1943 z m 1.5079,-1.8232 h -0.2398 v 0.6656 0.017 c -0.058,-0.074 -0.1695,-0.2233 -0.43,-0.2233 -0.3803,0 -0.5953,0.2894 -0.5953,0.6615 0,0.3183 0.1447,0.74 0.6284,0.74 0.1405,0 0.3059,-0.041 0.4093,-0.2191 v 0 0.1819 h 0.2274 z m -1.0212,1.1576 c 0,-0.1737 0.021,-0.5002 0.3928,-0.5002 0.3473,0 0.3845,0.3472 0.3845,0.5622 0,0.3555 -0.2357,0.4506 -0.3886,0.4506 -0.2646,0 -0.3887,-0.2232 -0.3887,-0.5126 z m 2.2934,0.248 c -0.01,0.099 -0.1446,0.2646 -0.372,0.2646 -0.277,0 -0.4134,-0.1612 -0.4134,-0.4382 h 1.0459 c 0,-0.4713 -0.2026,-0.7731 -0.616,-0.7731 -0.4754,0 -0.6904,0.3266 -0.6904,0.7359 0,0.3845 0.2398,0.6656 0.6408,0.6656 0.2315,0 0.3266,-0.05 0.3886,-0.091 0.1819,-0.1116 0.2481,-0.2976 0.2563,-0.3638 z m -0.7854,-0.3514 c 0,-0.2067 0.1736,-0.3968 0.3968,-0.3968 0.2936,0 0.3845,0.1901 0.3969,0.3968 z m 0,0"
       style="fill:#000000;fill-opacity:1;fill-rule:nonzero;stroke:none;stroke-width:0.339949"
       aria-label="Normalised&#10;amplitude" />
    <path
       id="path445"
       d="m 2101.2573,-2001.3506 h 0.8467"
       style="fill:none;stroke:#000000;stroke-width:0.0846667;stroke-linecap:round;stroke-linejoin:round;stroke-miterlimit:10;stroke-dasharray:none;stroke-opacity:1" />
    <path
       id="path446"
       d="m 2102.0193,-2002.028 1.1854,0.6774 -1.1854,0.5926 v -1.27"
       style="fill:#000000;fill-opacity:1;fill-rule:evenodd;stroke:none;stroke-width:0.352778" />
    <path
       id="path447"
       d="m 2103.1728,-2007.2857 h -0.1901 c -0.079,0.2935 -0.2067,0.3224 -0.5168,0.3431 v 0.1778 h 0.4465 v 1.265 h 0.2604 z m -0.6242,-6.6405 c 0.01,-0.124 0.025,-0.4382 0.3886,-0.4382 0.2852,0 0.3803,0.1778 0.3803,0.3225 0,0.2315 -0.1447,0.3059 -0.3514,0.4175 l -0.2563,0.1364 c -0.2563,0.1365 -0.4341,0.3349 -0.4506,0.707 h 1.3188 v -0.2109 h -1.046 c 0.01,-0.07 0.066,-0.2067 0.3308,-0.3431 l 0.1984,-0.099 c 0.2894,-0.1447 0.5168,-0.277 0.5168,-0.5995 0,-0.3307 -0.2687,-0.5333 -0.6036,-0.5333 -0.2067,0 -0.6656,0.058 -0.6656,0.6408 z m 0.2522,-4.5878 c 0.037,0 0.074,0 0.1116,0 0.1612,0 0.4465,0.029 0.4465,0.3307 0,0.2026 -0.1695,0.3431 -0.4176,0.3431 -0.3597,0 -0.401,-0.2232 -0.4093,-0.3927 h -0.248 c 0.012,0.2067 0.07,0.4093 0.2852,0.5167 0.095,0.045 0.215,0.079 0.3556,0.079 0.4919,0 0.6945,-0.2811 0.6945,-0.5746 0,-0.2398 -0.1364,-0.3597 -0.3225,-0.4176 v 0 c 0.1034,-0.029 0.2481,-0.1406 0.2481,-0.368 0,-0.2728 -0.2232,-0.4713 -0.5953,-0.4713 -0.5044,0 -0.6201,0.3225 -0.6201,0.5871 h 0.2356 c 0.01,-0.1282 0.033,-0.3845 0.3721,-0.3845 0.2894,0 0.3555,0.1737 0.3555,0.2811 0,0.2233 -0.1778,0.2936 -0.3638,0.2936 -0.041,0 -0.087,0 -0.1281,-0.01 z m 0.8185,-4.5217 v -0.1943 h -0.2811 v -1.1575 h -0.1984 l -0.8806,1.1327 v 0.2191 h 0.8392 v 0.4341 h 0.2398 v -0.4341 z m -0.5292,-1.0046 h 0.01 v 0.8103 h -0.6201 z m -0.4175,-4.9175 h 0.8144 v -0.215 h -0.9963 l -0.1447,0.955 0.2108,0.012 c 0.091,-0.1116 0.215,-0.1736 0.3556,-0.1736 0.2356,0 0.4258,0.1405 0.4258,0.3968 0,0.2233 -0.1571,0.4093 -0.4052,0.4093 -0.2149,0 -0.3844,-0.091 -0.4092,-0.2976 h -0.2481 c 0.045,0.3968 0.3721,0.4919 0.6201,0.4919 0.6036,0 0.6987,-0.4299 0.6987,-0.6284 0,-0.3679 -0.3183,-0.5705 -0.6325,-0.5705 -0.1695,0 -0.2894,0.054 -0.3721,0.1116 z m 0.893,-4.6912 c -0.025,-0.3638 -0.339,-0.4754 -0.5623,-0.4754 -0.5746,0 -0.711,0.5664 -0.711,0.955 0,0.2356 0.033,0.4547 0.1488,0.6201 0.1364,0.1984 0.3473,0.2604 0.4961,0.2604 0.2687,0 0.3845,-0.07 0.4878,-0.1736 0.1282,-0.1323 0.1819,-0.2646 0.1819,-0.4465 0,-0.4258 -0.3679,-0.5664 -0.6036,-0.5664 -0.2604,0 -0.3968,0.1199 -0.4547,0.2191 h -0.01 c 0,-0.1902 0.083,-0.6614 0.4589,-0.6614 0.2067,0 0.3018,0.1157 0.3307,0.2728 z m -0.9922,0.7607 c 0,-0.2109 0.1281,-0.3886 0.3969,-0.3886 0.2976,0 0.3886,0.2191 0.3886,0.3762 0,0.2439 -0.1489,0.4093 -0.3804,0.4093 -0.2811,0 -0.4051,-0.2067 -0.4051,-0.3969 z m -0.2853,-5.8064 h 1.0625 c -0.3721,0.401 -0.7193,1.0377 -0.7855,1.5296 h 0.2646 c 0.1406,-0.7978 0.5994,-1.3642 0.7896,-1.5503 v -0.1943 h -1.3312 z m 0,0"
       style="fill:#000000;fill-opacity:1;fill-rule:nonzero;stroke:none;stroke-width:0.339949"
       aria-label="1&#10;2&#10;3&#10;4&#10;5&#10;6&#10;7" />
    <path
       id="path448"
       d="m 2105.8093,-2017.0464 c -0.1984,0.01 -0.5829,0.079 -0.5829,0.7648 0,0.4754 0.2811,0.678 0.5664,0.678 0.3183,0 0.401,-0.2894 0.4299,-0.4217 l 0.083,-0.401 c 0.074,-0.3224 0.1323,-0.4175 0.3224,-0.4175 0.2646,0 0.3101,0.3224 0.3101,0.5126 0,0.2522 -0.099,0.5416 -0.4258,0.5416 v 0.2522 c 0.1695,0 0.3225,-0.033 0.4589,-0.2026 0.074,-0.087 0.1777,-0.2274 0.1777,-0.5912 0,-0.339 -0.1198,-0.7689 -0.5539,-0.7689 -0.2894,0 -0.43,0.1901 -0.4837,0.4423 l -0.1199,0.5623 c -0.025,0.1157 -0.079,0.2315 -0.2315,0.2315 -0.277,0 -0.3225,-0.2812 -0.3225,-0.4465 0,-0.2233 0.091,-0.4754 0.3721,-0.4878 z m 0.8723,-1.3363 c 0.099,0.01 0.2646,0.1446 0.2646,0.372 0,0.277 -0.1613,0.4134 -0.4382,0.4134 v -1.0459 c -0.4713,0 -0.7731,0.2026 -0.7731,0.616 0,0.4754 0.3266,0.6904 0.7358,0.6904 0.3845,0 0.6656,-0.2398 0.6656,-0.6408 0,-0.2315 -0.05,-0.3266 -0.091,-0.3886 -0.1116,-0.1819 -0.2977,-0.2481 -0.3638,-0.2563 z m -0.3514,0.7854 c -0.2067,0 -0.3969,-0.1736 -0.3969,-0.3968 0,-0.2936 0.1902,-0.3845 0.3969,-0.3969 z m 0.1033,-1.513 c -0.1736,0 -0.5002,-0.017 -0.5002,-0.3887 0,-0.3472 0.3473,-0.3886 0.5623,-0.3886 0.3555,0 0.4506,0.2398 0.4506,0.3928 0,0.2604 -0.2233,0.3845 -0.5127,0.3845 z m -0.6614,-1.0046 v 0.2273 h 0.186 v 0 c -0.074,0.058 -0.2232,0.1653 -0.2232,0.4258 0,0.3803 0.2894,0.5994 0.6614,0.5994 0.3184,0 0.74,-0.1447 0.74,-0.6325 0,-0.1902 -0.083,-0.3183 -0.1777,-0.3803 h -0.01 v 0 h 0.054 c 0.1571,0 0.4672,-0.01 0.4672,0.4093 0,0.054 0,0.277 -0.2108,0.3225 v 0.2398 c 0.3555,-0.045 0.3968,-0.3762 0.3968,-0.5457 0,-0.6656 -0.4754,-0.6656 -0.6656,-0.6656 z m 1.327,-0.3339 v -0.2397 h -0.7234 c -0.3597,0 -0.4424,-0.244 -0.4424,-0.3804 0,-0.1778 0.1364,-0.2232 0.2481,-0.2232 h 0.9177 v -0.2398 h -0.8103 c -0.1777,0 -0.3555,-0.1364 -0.3555,-0.339 0,-0.2026 0.124,-0.2646 0.3059,-0.2646 h 0.8599 v -0.2398 h -0.9177 c -0.3762,0 -0.4465,0.2894 -0.4465,0.4424 0,0.2232 0.091,0.3183 0.215,0.4382 -0.07,0.041 -0.215,0.124 -0.215,0.3803 0,0.2564 0.1529,0.3804 0.2232,0.4341 v 0 h -0.186 v 0.2273 z m -0.4175,-3.2545 c 0.099,0.01 0.2646,0.1446 0.2646,0.372 0,0.277 -0.1613,0.4134 -0.4382,0.4134 v -1.0459 c -0.4713,0 -0.7731,0.2026 -0.7731,0.616 0,0.4754 0.3266,0.6904 0.7358,0.6904 0.3845,0 0.6656,-0.2398 0.6656,-0.6408 0,-0.2315 -0.05,-0.3266 -0.091,-0.3886 -0.1116,-0.1819 -0.2977,-0.2481 -0.3638,-0.2563 z m -0.3514,0.7854 c -0.2067,0 -0.3969,-0.1736 -0.3969,-0.3968 0,-0.2936 0.1902,-0.3845 0.3969,-0.3969 z m -0.1364,-2.497 c -0.3762,0 -0.4589,0.277 -0.4589,0.5003 0,0.248 0.1529,0.3803 0.2232,0.434 v 0 h -0.186 v 0.2273 h 1.327 v -0.2397 h -0.7234 c -0.3597,0 -0.4424,-0.2439 -0.4424,-0.3804 0,-0.2356 0.1158,-0.3059 0.3473,-0.3059 h 0.8185 v -0.2398 z m -0.2357,-0.8795 h -0.186 v 0.2274 H 2105.4 v 0.2439 h 0.3721 v 0.1943 h 0.186 v -0.1943 h 0.8765 c 0.157,0 0.2811,-0.054 0.2811,-0.2894 0,-0.025 -0.01,-0.095 -0.017,-0.1819 h -0.1736 v 0.083 c 0,0.05 0,0.1447 -0.1075,0.1447 h -0.8599 z m 0.1902,-1.2816 c -0.066,0 -0.4134,0.037 -0.4134,0.5457 0,0.2853 0.1323,0.5457 0.4217,0.5457 0.1819,0 0.2769,-0.1323 0.3224,-0.3348 l 0.066,-0.277 c 0.045,-0.2067 0.083,-0.2853 0.1901,-0.2853 0.1447,0 0.2109,0.1571 0.2109,0.3308 0,0.3389 -0.1695,0.372 -0.2729,0.3803 v 0.2315 c 0.1613,-0.01 0.463,-0.05 0.463,-0.616 0,-0.3224 -0.1653,-0.5664 -0.4382,-0.5664 -0.1819,0 -0.2811,0.1034 -0.3514,0.4011 l -0.054,0.2397 c -0.046,0.1861 -0.07,0.2605 -0.1778,0.2605 -0.1653,0 -0.1902,-0.2109 -0.1902,-0.2853 0,-0.3018 0.1406,-0.3348 0.2233,-0.339 z m 0,0"
       style="fill:#000000;fill-opacity:1;fill-rule:nonzero;stroke:none;stroke-width:0.339949"
       aria-label="Segments" />
    <path
       id="path449"
       d="m 2067.6447,-1969.008 h 56.134 v -20.1506 h -56.134 z"
       style="fill:#ffffff;fill-opacity:1;fill-rule:nonzero;stroke:#000000;stroke-width:0.0846667;stroke-linecap:round;stroke-linejoin:round;stroke-miterlimit:10;stroke-dasharray:none;stroke-opacity:1" />
    <path
       id="path450"
       d="m 2070.7773,-1980.0146 h 6.2654 v -6.096 h -6.2654 z"
       style="fill:#808080;fill-opacity:1;fill-rule:nonzero;stroke:#000000;stroke-width:0.0846667;stroke-linecap:round;stroke-linejoin:round;stroke-miterlimit:10;stroke-dasharray:none;stroke-opacity:1" />
    <path
       id="path451"
       d="m 2074.1254,-1984.3001 h -0.2025 c -0.083,0.339 -0.2233,0.3721 -0.5623,0.3969 v 0.2067 h 0.4879 v 1.48 h 0.2769 z m 0,0"
       style="fill:#000000;fill-opacity:1;fill-rule:nonzero;stroke:none;stroke-width:0.352778"
       aria-label="1" />
    <path
       id="path452"
       d="m 2077.0427,-1980.0146 h 6.1806 v -6.096 h -6.1806 z"
       style="fill:#b3b3b3;fill-opacity:1;fill-rule:nonzero;stroke:#000000;stroke-width:0.0846667;stroke-linecap:round;stroke-linejoin:round;stroke-miterlimit:10;stroke-dasharray:none;stroke-opacity:1" />
    <path
       id="path453"
       d="m 2080.306,-1984.3001 h -0.2026 c -0.083,0.339 -0.2232,0.3721 -0.5622,0.3969 v 0.2067 h 0.4878 v 1.48 h 0.277 z m 0,0"
       style="fill:#000000;fill-opacity:1;fill-rule:nonzero;stroke:none;stroke-width:0.352778"
       aria-label="1" />
    <path
       id="path454"
       d="m 2083.2233,-1980.0146 h 6.2654 v -6.096 h -6.2654 z"
       style="fill:#b3b3b3;fill-opacity:1;fill-rule:nonzero;stroke:#000000;stroke-width:0.0846667;stroke-linecap:round;stroke-linejoin:round;stroke-miterlimit:10;stroke-dasharray:none;stroke-opacity:1" />
    <path
       id="path455"
       d="m 2086.5722,-1984.3001 h -0.2025 c -0.083,0.339 -0.2233,0.3721 -0.5623,0.3969 v 0.2067 h 0.4878 v 1.48 h 0.277 z m 0,0"
       style="fill:#000000;fill-opacity:1;fill-rule:nonzero;stroke:none;stroke-width:0.352778"
       aria-label="1" />
    <path
       id="path456"
       d="m 2089.4887,-1980.0146 h 6.1806 v -6.096 h -6.1806 z"
       style="fill:#b3b3b3;fill-opacity:1;fill-rule:nonzero;stroke:#000000;stroke-width:0.0846667;stroke-linecap:round;stroke-linejoin:round;stroke-miterlimit:10;stroke-dasharray:none;stroke-opacity:1" />
    <path
       id="path457"
       d="m 2093.036,-1983.2294 c 0,0.5209 -0.1364,0.8351 -0.4382,0.8351 -0.2977,0 -0.4341,-0.3142 -0.4341,-0.8351 0,-0.5209 0.1364,-0.8351 0.4341,-0.8351 0.3018,0 0.4382,0.3142 0.4382,0.8351 z m 0.277,0 c 0,-0.434 -0.1158,-1.0707 -0.7152,-1.0707 -0.5995,0 -0.7111,0.6367 -0.7111,1.0707 0,0.43 0.1116,1.0708 0.7111,1.0708 0.5994,0 0.7152,-0.6408 0.7152,-1.0708 z m 0,0"
       style="fill:#000000;fill-opacity:1;fill-rule:nonzero;stroke:none;stroke-width:0.352778"
       aria-label="0" />
    <path
       id="path458"
       d="m 2095.6693,-1980.0146 h 6.2654 v -6.096 h -6.2654 z"
       style="fill:#e6e6e6;fill-opacity:1;fill-rule:nonzero;stroke:#000000;stroke-width:0.0846667;stroke-linecap:round;stroke-linejoin:round;stroke-miterlimit:10;stroke-dasharray:none;stroke-opacity:1" />
    <path
       id="path459"
       d="m 2099.018,-1984.3001 h -0.2026 c -0.083,0.339 -0.2232,0.3721 -0.5622,0.3969 v 0.2067 h 0.4878 v 1.48 h 0.277 z m 0,0"
       style="fill:#000000;fill-opacity:1;fill-rule:nonzero;stroke:none;stroke-width:0.352778"
       aria-label="1" />
    <path
       id="path460"
       d="m 2101.9347,-1980.0146 h 6.2653 v -6.096 h -6.2653 z"
       style="fill:#e6e6e6;fill-opacity:1;fill-rule:nonzero;stroke:#000000;stroke-width:0.0846667;stroke-linecap:round;stroke-linejoin:round;stroke-miterlimit:10;stroke-dasharray:none;stroke-opacity:1" />
    <path
       id="path461"
       d="m 2105.4817,-1983.2294 c 0,0.5209 -0.1364,0.8351 -0.4382,0.8351 -0.2976,0 -0.4341,-0.3142 -0.4341,-0.8351 0,-0.5209 0.1365,-0.8351 0.4341,-0.8351 0.3018,0 0.4382,0.3142 0.4382,0.8351 z m 0.277,0 c 0,-0.434 -0.1157,-1.0707 -0.7152,-1.0707 -0.5994,0 -0.7111,0.6367 -0.7111,1.0707 0,0.43 0.1117,1.0708 0.7111,1.0708 0.5995,0 0.7152,-0.6408 0.7152,-1.0708 z m 0,0"
       style="fill:#000000;fill-opacity:1;fill-rule:nonzero;stroke:none;stroke-width:0.352778"
       aria-label="0" />
    <path
       id="path462"
       d="m 2108.2,-1980.0146 h 6.2653 v -6.096 H 2108.2 Z"
       style="fill:#e6e6e6;fill-opacity:1;fill-rule:nonzero;stroke:#000000;stroke-width:0.0846667;stroke-linecap:round;stroke-linejoin:round;stroke-miterlimit:10;stroke-dasharray:none;stroke-opacity:1" />
    <path
       id="path463"
       d="m 2111.5485,-1984.3001 h -0.2026 c -0.083,0.339 -0.2232,0.3721 -0.5622,0.3969 v 0.2067 h 0.4878 v 1.48 h 0.277 z m 0,0"
       style="fill:#000000;fill-opacity:1;fill-rule:nonzero;stroke:none;stroke-width:0.352778"
       aria-label="1" />
    <path
       id="path464"
       d="m 2114.4653,-1980.0146 h 6.1807 v -6.096 h -6.1807 z"
       style="fill:#e6e6e6;fill-opacity:1;fill-rule:nonzero;stroke:#000000;stroke-width:0.0846667;stroke-linecap:round;stroke-linejoin:round;stroke-miterlimit:10;stroke-dasharray:none;stroke-opacity:1" />
    <path
       id="path465"
       d="m 2118.0122,-1983.2294 c 0,0.5209 -0.1365,0.8351 -0.4383,0.8351 -0.2976,0 -0.434,-0.3142 -0.434,-0.8351 0,-0.5209 0.1364,-0.8351 0.434,-0.8351 0.3018,0 0.4383,0.3142 0.4383,0.8351 z m 0.2769,0 c 0,-0.434 -0.1157,-1.0707 -0.7152,-1.0707 -0.5994,0 -0.711,0.6367 -0.711,1.0707 0,0.43 0.1116,1.0708 0.711,1.0708 0.5995,0 0.7152,-0.6408 0.7152,-1.0708 z m 0,0"
       style="fill:#000000;fill-opacity:1;fill-rule:nonzero;stroke:none;stroke-width:0.352778"
       aria-label="0" />
    <path
       id="path466"
       d="m 2077.0427,-1980.0146 v 3.048"
       style="fill:none;stroke:#000000;stroke-width:0.169333;stroke-linecap:round;stroke-linejoin:round;stroke-miterlimit:10;stroke-dasharray:none;stroke-opacity:1" />
    <path
       id="path467"
       d="m 2095.6693,-1980.0146 v 3.048"
       style="fill:none;stroke:#000000;stroke-width:0.169333;stroke-linecap:round;stroke-linejoin:round;stroke-miterlimit:10;stroke-dasharray:none;stroke-opacity:1" />
    <path
       id="path468"
       d="m 2120.646,-1980.0146 v 3.048"
       style="fill:none;stroke:#000000;stroke-width:0.169333;stroke-linecap:round;stroke-linejoin:round;stroke-miterlimit:10;stroke-dasharray:none;stroke-opacity:1" />
    <path
       id="path469"
       d="m 2070.7773,-1980.0146 v 3.048"
       style="fill:none;stroke:#000000;stroke-width:0.169333;stroke-linecap:round;stroke-linejoin:round;stroke-miterlimit:10;stroke-dasharray:none;stroke-opacity:1" />
    <path
       id="path470"
       d="m 2082.0702,-1977.4944 c -0.01,-0.1984 -0.079,-0.5829 -0.7648,-0.5829 -0.4755,0 -0.678,0.2812 -0.678,0.5664 0,0.3183 0.2894,0.401 0.4216,0.43 l 0.4011,0.083 c 0.3224,0.074 0.4175,0.1323 0.4175,0.3225 0,0.2646 -0.3225,0.3101 -0.5126,0.3101 -0.2522,0 -0.5416,-0.099 -0.5416,-0.4259 h -0.2522 c 0,0.1695 0.033,0.3225 0.2026,0.4589 0.087,0.074 0.2274,0.1778 0.5912,0.1778 0.339,0 0.7689,-0.1199 0.7689,-0.554 0,-0.2894 -0.1902,-0.4299 -0.4423,-0.4837 l -0.5623,-0.1198 c -0.1157,-0.025 -0.2315,-0.079 -0.2315,-0.2316 0,-0.2769 0.2811,-0.3224 0.4465,-0.3224 0.2232,0 0.4754,0.091 0.4878,0.372 z m 1.3002,0.8723 c -0.01,0.099 -0.1447,0.2646 -0.3721,0.2646 -0.277,0 -0.4134,-0.1612 -0.4134,-0.4382 h 1.0459 c 0,-0.4713 -0.2026,-0.7731 -0.616,-0.7731 -0.4754,0 -0.6904,0.3266 -0.6904,0.7359 0,0.3845 0.2398,0.6656 0.6408,0.6656 0.2315,0 0.3266,-0.05 0.3886,-0.091 0.1819,-0.1116 0.2481,-0.2976 0.2563,-0.3638 z m -0.7855,-0.3514 c 0,-0.2067 0.1736,-0.3968 0.3968,-0.3968 0.2936,0 0.3845,0.1901 0.3969,0.3968 z m 1.4758,0.1034 c 0,-0.1736 0.017,-0.5002 0.3887,-0.5002 0.3472,0 0.3886,0.3472 0.3886,0.5622 0,0.3555 -0.2398,0.4506 -0.3928,0.4506 -0.2604,0 -0.3845,-0.2232 -0.3845,-0.5126 z m 1.0046,-0.6615 h -0.2273 v 0.1861 0 c -0.058,-0.074 -0.1653,-0.2233 -0.4258,-0.2233 -0.3803,0 -0.5994,0.2894 -0.5994,0.6615 0,0.3183 0.1447,0.74 0.6325,0.74 0.1902,0 0.3183,-0.083 0.3803,-0.1778 v -0.01 0 0.054 c 0,0.1571 0.01,0.4672 -0.4093,0.4672 -0.054,0 -0.277,0 -0.3225,-0.2109 h -0.2398 c 0.046,0.3556 0.3762,0.3969 0.5457,0.3969 0.6656,0 0.6656,-0.4754 0.6656,-0.6656 z m 0.2987,1.3271 h 0.2398 v -0.7235 c 0,-0.3596 0.2439,-0.4423 0.3803,-0.4423 0.1778,0 0.2233,0.1364 0.2233,0.248 v 0.9178 h 0.2398 v -0.8103 c 0,-0.1778 0.1364,-0.3555 0.339,-0.3555 0.2025,0 0.2645,0.124 0.2645,0.3059 v 0.8599 h 0.2398 v -0.9178 c 0,-0.3762 -0.2894,-0.4465 -0.4423,-0.4465 -0.2233,0 -0.3184,0.091 -0.4382,0.215 -0.041,-0.07 -0.1241,-0.215 -0.3804,-0.215 -0.2563,0 -0.3803,0.153 -0.4341,0.2233 v 0 -0.1861 h -0.2274 z m 3.2174,-0.4176 c -0.01,0.099 -0.1447,0.2646 -0.3721,0.2646 -0.277,0 -0.4134,-0.1612 -0.4134,-0.4382 h 1.046 c 0,-0.4713 -0.2026,-0.7731 -0.616,-0.7731 -0.4755,0 -0.6904,0.3266 -0.6904,0.7359 0,0.3845 0.2397,0.6656 0.6408,0.6656 0.2315,0 0.3266,-0.05 0.3886,-0.091 0.1819,-0.1116 0.248,-0.2976 0.2563,-0.3638 z m -0.7855,-0.3514 c 0,-0.2067 0.1737,-0.3968 0.3969,-0.3968 0.2935,0 0.3845,0.1901 0.3969,0.3968 z m 2.4598,-0.1364 c 0,-0.3762 -0.277,-0.4589 -0.5002,-0.4589 -0.2481,0 -0.3803,0.153 -0.4341,0.2233 v 0 -0.1861 h -0.2274 v 1.3271 h 0.2398 v -0.7235 c 0,-0.3596 0.2439,-0.4423 0.3803,-0.4423 0.2357,0 0.3059,0.1157 0.3059,0.3472 v 0.8186 h 0.2398 z m 0.8434,-0.2356 v -0.1861 h -0.2274 v -0.372 h -0.2439 v 0.372 h -0.1943 v 0.1861 h 0.1943 v 0.8764 c 0,0.1571 0.054,0.2811 0.2894,0.2811 0.025,0 0.095,-0.01 0.1819,-0.016 v -0.1736 h -0.083 c -0.05,0 -0.1447,0 -0.1447,-0.1075 v -0.8599 z m 1.2454,0.1901 c 0,-0.066 -0.037,-0.4134 -0.5457,-0.4134 -0.2853,0 -0.5457,0.1323 -0.5457,0.4217 0,0.1819 0.1323,0.277 0.3348,0.3225 l 0.277,0.066 c 0.2067,0.045 0.2853,0.083 0.2853,0.1902 0,0.1447 -0.1571,0.2108 -0.3308,0.2108 -0.339,0 -0.372,-0.1695 -0.3803,-0.2728 h -0.2315 c 0.01,0.1612 0.05,0.463 0.616,0.463 0.3224,0 0.5664,-0.1654 0.5664,-0.4382 0,-0.1819 -0.1034,-0.2811 -0.4011,-0.3514 l -0.2397,-0.054 c -0.1861,-0.045 -0.2605,-0.07 -0.2605,-0.1777 0,-0.1654 0.2109,-0.1902 0.2853,-0.1902 0.3018,0 0.3348,0.1406 0.339,0.2232 z m -8.3065,2.2976 h -0.1902 c -0.079,0.2935 -0.2067,0.3224 -0.5167,0.3431 v 0.1778 h 0.4465 v 1.265 h 0.2604 z m 1.9823,0.6449 v -0.186 h -0.2274 v -0.3721 h -0.2439 v 0.3721 h -0.1943 v 0.186 h 0.1943 v 0.8764 c 0,0.1571 0.054,0.2812 0.2894,0.2812 0.025,0 0.095,-0.01 0.1819,-0.017 v -0.1736 h -0.083 c -0.05,0 -0.1447,0 -0.1447,-0.1075 v -0.8599 z m 0.1333,0.4754 c 0,0.3432 0.2067,0.7028 0.6656,0.7028 0.4589,0 0.6656,-0.3596 0.6656,-0.7028 0,-0.3431 -0.2067,-0.6986 -0.6656,-0.6986 -0.4589,0 -0.6656,0.3555 -0.6656,0.6986 z m 0.2481,0 c 0,-0.1777 0.074,-0.5085 0.4175,-0.5085 0.3432,0 0.4176,0.3308 0.4176,0.5085 0,0.1778 -0.074,0.5085 -0.4176,0.5085 -0.3431,0 -0.4175,-0.3307 -0.4175,-0.5085 z m 2.0195,-0.864 h 1.0625 c -0.3721,0.401 -0.7194,1.0377 -0.7855,1.5296 h 0.2646 c 0.1405,-0.7979 0.5994,-1.3642 0.7896,-1.5503 v -0.1943 h -1.3312 z m 18.033,-2.8929 c -0.01,-0.1984 -0.079,-0.5829 -0.7648,-0.5829 -0.4754,0 -0.678,0.2812 -0.678,0.5664 0,0.3183 0.2894,0.401 0.4217,0.43 l 0.401,0.083 c 0.3225,0.074 0.4175,0.1323 0.4175,0.3225 0,0.2646 -0.3224,0.3101 -0.5126,0.3101 -0.2522,0 -0.5416,-0.099 -0.5416,-0.4259 h -0.2521 c 0,0.1695 0.033,0.3225 0.2025,0.4589 0.087,0.074 0.2274,0.1778 0.5912,0.1778 0.339,0 0.769,-0.1199 0.769,-0.554 0,-0.2894 -0.1902,-0.4299 -0.4424,-0.4837 l -0.5622,-0.1198 c -0.1158,-0.025 -0.2315,-0.079 -0.2315,-0.2316 0,-0.2769 0.2811,-0.3224 0.4464,-0.3224 0.2233,0 0.4755,0.091 0.4879,0.372 z m 0.8413,0.1489 v -0.1861 h -0.2274 v -0.372 h -0.2439 v 0.372 h -0.1943 v 0.1861 h 0.1943 v 0.8764 c 0,0.1571 0.054,0.2811 0.2894,0.2811 0.025,0 0.095,-0.01 0.1819,-0.016 v -0.1736 h -0.083 c -0.05,0 -0.1447,0 -0.1447,-0.1075 v -0.8599 z m 1.1669,0.7234 c -0.01,0.099 -0.1447,0.2646 -0.3721,0.2646 -0.277,0 -0.4134,-0.1612 -0.4134,-0.4382 h 1.0459 c 0,-0.4713 -0.2026,-0.7731 -0.616,-0.7731 -0.4754,0 -0.6904,0.3266 -0.6904,0.7359 0,0.3845 0.2398,0.6656 0.6408,0.6656 0.2315,0 0.3266,-0.05 0.3886,-0.091 0.1819,-0.1116 0.2481,-0.2976 0.2563,-0.3638 z m -0.7855,-0.3514 c 0,-0.2067 0.1736,-0.3968 0.3969,-0.3968 0.2935,0 0.3844,0.1901 0.3968,0.3968 z m 1.4976,0.1654 c 0,-0.215 0.037,-0.5622 0.3844,-0.5622 0.3721,0 0.3928,0.3266 0.3928,0.5002 0,0.2894 -0.1241,0.5126 -0.3845,0.5126 -0.153,0 -0.3927,-0.095 -0.3927,-0.4506 z m -0.2316,1.1286 h 0.244 v -0.6656 0 c 0.062,0.095 0.1902,0.1778 0.3803,0.1778 0.4879,0 0.6284,-0.4217 0.6284,-0.74 0,-0.3721 -0.215,-0.6615 -0.5953,-0.6615 -0.2604,0 -0.3679,0.1489 -0.4258,0.2233 h -0.01 v -0.1861 h -0.2274 z m 2.5436,-1.4759 c 0,-0.066 -0.037,-0.4134 -0.5457,-0.4134 -0.2853,0 -0.5457,0.1323 -0.5457,0.4217 0,0.1819 0.1322,0.277 0.3348,0.3225 l 0.277,0.066 c 0.2067,0.045 0.2853,0.083 0.2853,0.1902 0,0.1447 -0.1571,0.2108 -0.3308,0.2108 -0.339,0 -0.372,-0.1695 -0.3803,-0.2728 h -0.2315 c 0.01,0.1612 0.05,0.463 0.616,0.463 0.3224,0 0.5663,-0.1654 0.5663,-0.4382 0,-0.1819 -0.1033,-0.2811 -0.401,-0.3514 l -0.2398,-0.054 c -0.186,-0.045 -0.2604,-0.07 -0.2604,-0.1777 0,-0.1654 0.2108,-0.1902 0.2853,-0.1902 0.3017,0 0.3348,0.1406 0.339,0.2232 z m -6.3666,2.2976 h -0.1901 c -0.079,0.2935 -0.2067,0.3224 -0.5168,0.3431 v 0.1778 h 0.4465 v 1.265 h 0.2604 z m 1.9865,0.6449 v -0.186 h -0.2274 v -0.3721 h -0.2439 v 0.3721 h -0.1943 v 0.186 h 0.1943 v 0.8764 c 0,0.1571 0.054,0.2812 0.2894,0.2812 0.025,0 0.095,-0.01 0.1819,-0.017 v -0.1736 h -0.083 c -0.05,0 -0.1447,0 -0.1447,-0.1075 v -0.8599 z m 0.1385,0.4754 c 0,0.3432 0.2067,0.7028 0.6656,0.7028 0.4588,0 0.6655,-0.3596 0.6655,-0.7028 0,-0.3431 -0.2067,-0.6986 -0.6655,-0.6986 -0.4589,0 -0.6656,0.3555 -0.6656,0.6986 z m 0.248,0 c 0,-0.1777 0.074,-0.5085 0.4176,-0.5085 0.3431,0 0.4175,0.3308 0.4175,0.5085 0,0.1778 -0.074,0.5085 -0.4175,0.5085 -0.3432,0 -0.4176,-0.3307 -0.4176,-0.5085 z m 2.9084,-1.1203 h -0.1902 c -0.079,0.2935 -0.2067,0.3224 -0.5168,0.3431 v 0.1778 h 0.4465 v 1.265 h 0.2605 z m 1.8996,0.4754 c -0.025,-0.3638 -0.339,-0.4754 -0.5623,-0.4754 -0.5746,0 -0.711,0.5664 -0.711,0.955 0,0.2356 0.033,0.4547 0.1488,0.6201 0.1364,0.1984 0.3473,0.2604 0.4961,0.2604 0.2687,0 0.3845,-0.07 0.4878,-0.1736 0.1282,-0.1323 0.1819,-0.2646 0.1819,-0.4465 0,-0.4258 -0.3679,-0.5664 -0.6036,-0.5664 -0.2604,0 -0.3968,0.1199 -0.4547,0.2191 h -0.01 c 0,-0.1902 0.083,-0.6614 0.4589,-0.6614 0.2067,0 0.3018,0.1157 0.3307,0.2728 z m -0.9922,0.7607 c 0,-0.2109 0.1282,-0.3886 0.3969,-0.3886 0.2976,0 0.3886,0.2191 0.3886,0.3762 0,0.2439 -0.1489,0.4093 -0.3804,0.4093 -0.2811,0 -0.4051,-0.2067 -0.4051,-0.3969 z m -38.4669,-2.3492 c -0.01,-0.1985 -0.079,-0.5829 -0.7648,-0.5829 -0.4754,0 -0.678,0.2811 -0.678,0.5663 0,0.3184 0.2894,0.401 0.4217,0.43 l 0.401,0.083 c 0.3224,0.074 0.4175,0.1323 0.4175,0.3224 0,0.2646 -0.3224,0.3101 -0.5126,0.3101 -0.2522,0 -0.5416,-0.099 -0.5416,-0.4258 h -0.2522 c 0,0.1695 0.033,0.3224 0.2026,0.4589 0.087,0.074 0.2274,0.1777 0.5912,0.1777 0.339,0 0.7689,-0.1199 0.7689,-0.5539 0,-0.2894 -0.1901,-0.43 -0.4423,-0.4837 l -0.5623,-0.1199 c -0.1157,-0.025 -0.2315,-0.079 -0.2315,-0.2315 0,-0.277 0.2812,-0.3225 0.4465,-0.3225 0.2233,0 0.4754,0.091 0.4878,0.3721 z m 0.5746,-0.037 h -0.2439 v 1.327 h 0.2439 z m 0,-0.2398 v -0.2563 h -0.2439 v 0.2563 z m 0.5065,0.9012 c 0,-0.1736 0.017,-0.5002 0.3886,-0.5002 0.3472,0 0.3886,0.3473 0.3886,0.5622 0,0.3556 -0.2398,0.4507 -0.3928,0.4507 -0.2604,0 -0.3844,-0.2233 -0.3844,-0.5127 z m 1.0046,-0.6614 h -0.2274 v 0.186 0 c -0.058,-0.074 -0.1653,-0.2232 -0.4258,-0.2232 -0.3803,0 -0.5994,0.2893 -0.5994,0.6614 0,0.3183 0.1447,0.74 0.6325,0.74 0.1902,0 0.3183,-0.083 0.3803,-0.1777 v -0.01 0 0.054 c 0,0.1571 0.01,0.4672 -0.4093,0.4672 -0.054,0 -0.277,0 -0.3225,-0.2109 h -0.2397 c 0.045,0.3556 0.3762,0.3969 0.5457,0.3969 0.6656,0 0.6656,-0.4754 0.6656,-0.6656 z m 1.4645,0.4216 c 0,-0.3762 -0.277,-0.4588 -0.5003,-0.4588 -0.248,0 -0.3803,0.1529 -0.434,0.2232 v 0 -0.186 h -0.2274 v 1.327 h 0.2398 v -0.7235 c 0,-0.3596 0.2439,-0.4423 0.3804,-0.4423 0.2356,0 0.3059,0.1157 0.3059,0.3473 v 0.8185 h 0.2398 z m -23.0033,-29.2437 h -0.1901 c -0.079,0.2936 -0.2068,0.3225 -0.5168,0.3432 v 0.1777 h 0.4465 v 1.2651 h 0.2604 z m 1.9865,0.645 v -0.1861 h -0.2274 v -0.372 h -0.2439 v 0.372 h -0.1943 v 0.1861 h 0.1943 v 0.8764 c 0,0.1571 0.054,0.2811 0.2894,0.2811 0.025,0 0.095,-0.01 0.1819,-0.016 v -0.1736 h -0.083 c -0.05,0 -0.1447,0 -0.1447,-0.1075 v -0.8599 z m 0.1395,0.4754 c 0,0.3431 0.2067,0.7028 0.6656,0.7028 0.4589,0 0.6656,-0.3597 0.6656,-0.7028 0,-0.3431 -0.2067,-0.6987 -0.6656,-0.6987 -0.4589,0 -0.6656,0.3556 -0.6656,0.6987 z m 0.248,0 c 0,-0.1778 0.074,-0.5085 0.4176,-0.5085 0.3431,0 0.4175,0.3307 0.4175,0.5085 0,0.1778 -0.074,0.5085 -0.4175,0.5085 -0.3432,0 -0.4176,-0.3307 -0.4176,-0.5085 z m 2.9084,-1.1204 h -0.1902 c -0.079,0.2936 -0.2067,0.3225 -0.5167,0.3432 v 0.1777 h 0.4464 v 1.2651 h 0.2605 z m 1.8986,0.4755 c -0.025,-0.3638 -0.339,-0.4755 -0.5623,-0.4755 -0.5746,0 -0.711,0.5664 -0.711,0.955 0,0.2357 0.033,0.4548 0.1488,0.6201 0.1364,0.1985 0.3473,0.2605 0.4961,0.2605 0.2687,0 0.3845,-0.07 0.4878,-0.1736 0.1282,-0.1323 0.1819,-0.2646 0.1819,-0.4465 0,-0.4258 -0.3679,-0.5664 -0.6036,-0.5664 -0.2604,0 -0.3968,0.1199 -0.4547,0.2191 h -0.01 c 0,-0.1902 0.083,-0.6615 0.4589,-0.6615 0.2067,0 0.3018,0.1158 0.3307,0.2729 z m -0.9922,0.7607 c 0,-0.2109 0.1281,-0.3887 0.3969,-0.3887 0.2976,0 0.3886,0.2192 0.3886,0.3762 0,0.244 -0.1489,0.4093 -0.3804,0.4093 -0.2811,0 -0.4051,-0.2067 -0.4051,-0.3968 z m 0,0"
       style="fill:#000000;fill-opacity:1;fill-rule:nonzero;stroke:none;stroke-width:0.339949"
       aria-label="Segments&#10;1 to 7&#10;Steps&#10;1 to 16&#10;Sign&#10;1 to 16" />
  </g>
</svg>
