<?xml version="1.0" encoding="UTF-8" standalone="no"?>
<!-- Created with Inkscape (http://www.inkscape.org/) -->

<svg
   width="70.533028mm"
   height="43.349266mm"
   viewBox="0 0 70.533028 43.349266"
   version="1.1"
   id="svg1"
   inkscape:version="1.4.3 (0d15f75042, 2025-12-25)"
   sodipodi:docname="E1_acterna_figure1.svg"
   xmlns:inkscape="http://www.inkscape.org/namespaces/inkscape"
   xmlns:sodipodi="http://sodipodi.sourceforge.net/DTD/sodipodi-0.dtd"
   xmlns="http://www.w3.org/2000/svg"
   xmlns:svg="http://www.w3.org/2000/svg">
  <sodipodi:namedview
     id="namedview1"
     pagecolor="#ffffff"
     bordercolor="#999999"
     borderopacity="1"
     inkscape:showpageshadow="0"
     inkscape:pageopacity="0"
     inkscape:pagecheckerboard="0"
     inkscape:deskcolor="#d1d1d1"
     inkscape:document-units="mm"
     inkscape:zoom="3.0364612"
     inkscape:cx="164.0067"
     inkscape:cy="147.54017"
     inkscape:window-width="1920"
     inkscape:window-height="1035"
     inkscape:window-x="0"
     inkscape:window-y="0"
     inkscape:window-maximized="0"
     inkscape:current-layer="layer1" />
  <defs
     id="defs1" />
  <g
     inkscape:label="Layer 1"
     inkscape:groupmode="layer"
     id="layer1"
     transform="translate(-552.18544,1700.477)">
    <path
       id="path283"
       d="m 552.86277,-1667.203 h 45.974"
       style="fill:none;stroke:#000000;stroke-width:0.169333;stroke-linecap:round;stroke-linejoin:round;stroke-miterlimit:10;stroke-dasharray:none;stroke-opacity:1" />
    <path
       id="path284"
       d="m 598.66743,-1667.8804 1.35467,0.6774 -1.35467,0.5926 v -1.27"
       style="fill:#000000;fill-opacity:1;fill-rule:evenodd;stroke:none;stroke-width:0.352778" />
    <path
       id="path285"
       d="m 552.86277,-1677.1937 v 19.9813"
       style="fill:none;stroke:#000000;stroke-width:0.169333;stroke-linecap:round;stroke-linejoin:round;stroke-miterlimit:10;stroke-dasharray:none;stroke-opacity:1" />
    <path
       id="path286"
       d="m 552.18544,-1677.0244 0.67733,-1.27 0.67733,1.27 h -1.35466"
       style="fill:#000000;fill-opacity:1;fill-rule:evenodd;stroke:none;stroke-width:0.352778" />
    <path
       id="path287"
       d="m 555.8261,-1667.203 v 3.302"
       style="fill:none;stroke:#000000;stroke-width:0.169333;stroke-linecap:round;stroke-linejoin:round;stroke-miterlimit:10;stroke-dasharray:none;stroke-opacity:1" />
    <path
       id="path288"
       d="m 560.22877,-1667.203 v 8.2973"
       style="fill:none;stroke:#000000;stroke-width:0.169333;stroke-linecap:round;stroke-linejoin:round;stroke-miterlimit:10;stroke-dasharray:none;stroke-opacity:1" />
    <path
       id="path289"
       d="m 582.32677,-1671.3517 v 4.1487"
       style="fill:none;stroke:#000000;stroke-width:0.169333;stroke-linecap:round;stroke-linejoin:round;stroke-miterlimit:10;stroke-dasharray:none;stroke-opacity:1" />
    <path
       id="path290"
       d="m 591.1321,-1674.7384 v 7.5354"
       style="fill:none;stroke:#000000;stroke-width:0.169333;stroke-linecap:round;stroke-linejoin:round;stroke-miterlimit:10;stroke-dasharray:none;stroke-opacity:1" />
    <path
       id="path291"
       d="m 577.9241,-1676.9397 v 9.7367"
       style="fill:none;stroke:#000000;stroke-width:0.169333;stroke-linecap:round;stroke-linejoin:round;stroke-miterlimit:10;stroke-dasharray:none;stroke-opacity:1" />
    <path
       id="path292"
       d="m 569.11877,-1669.1504 v 1.9474"
       style="fill:none;stroke:#000000;stroke-width:0.169333;stroke-linecap:round;stroke-linejoin:round;stroke-miterlimit:10;stroke-dasharray:none;stroke-opacity:1" />
    <path
       id="path293"
       d="m 586.72943,-1670.759 v 3.556"
       style="fill:none;stroke:#000000;stroke-width:0.169333;stroke-linecap:round;stroke-linejoin:round;stroke-miterlimit:10;stroke-dasharray:none;stroke-opacity:1" />
    <path
       id="path294"
       d="m 573.52144,-1676.9397 v 9.7367"
       style="fill:none;stroke:#000000;stroke-width:0.169333;stroke-linecap:round;stroke-linejoin:round;stroke-miterlimit:10;stroke-dasharray:none;stroke-opacity:1" />
    <path
       id="path295"
       d="m 564.63144,-1667.203 v 5.5033"
       style="fill:none;stroke:#000000;stroke-width:0.169333;stroke-linecap:round;stroke-linejoin:round;stroke-miterlimit:10;stroke-dasharray:none;stroke-opacity:1" />
    <path
       id="path296"
       d="m 595.53477,-1676.093 v 8.89"
       style="fill:none;stroke:#000000;stroke-width:0.169333;stroke-linecap:round;stroke-linejoin:round;stroke-miterlimit:10;stroke-dasharray:none;stroke-opacity:1" />
    <path
       id="path297"
       d="m 554.66992,-1669.7899 h 0.52089 v 1.232 h 0.20671 v -1.232 h 0.5209 v -0.1654 h -1.2485 z m 1.98437,-0.1364 h -0.14883 c -0.0579,0.2232 -0.16123,0.2439 -0.40514,0.2604 v 0.1365 h 0.3514 v 0.9715 h 0.20257 z m 2.41846,0.1364 h 0.5209 v 1.232 h 0.2067 v -1.232 h 0.5209 v -0.1654 h -1.2485 z m 1.49655,0.3555 c 0.008,-0.095 0.0207,-0.339 0.30592,-0.339 0.21911,0 0.29766,0.1406 0.29766,0.2481 0,0.1778 -0.11576,0.2356 -0.27699,0.3183 l -0.19844,0.1075 c -0.20257,0.1034 -0.34313,0.2563 -0.35553,0.5416 h 1.03353 v -0.1613 h -0.81856 c 0.008,-0.054 0.0538,-0.1612 0.25632,-0.2645 l 0.1571,-0.079 c 0.22737,-0.1075 0.40514,-0.2108 0.40514,-0.4547 0,-0.2564 -0.21084,-0.4093 -0.47129,-0.4093 -0.16536,0 -0.5209,0.046 -0.5209,0.4919 z m 2.90628,-0.3555 h 0.5209 v 1.232 h 0.2067 v -1.232 h 0.5209 v -0.1654 h -1.2485 z m 1.69395,0.5995 c 0.0289,0 0.0579,0 0.0868,0 0.12816,0 0.3514,0.021 0.3514,0.2521 0,0.1571 -0.13643,0.2646 -0.33073,0.2646 -0.27699,0 -0.31419,-0.1736 -0.31833,-0.3018 h -0.1943 c 0.0124,0.1571 0.0579,0.3142 0.22324,0.3928 0.0744,0.037 0.16537,0.062 0.27699,0.062 0.38447,0 0.54157,-0.215 0.54157,-0.4382 0,-0.1861 -0.10336,-0.277 -0.24805,-0.3225 v 0 c 0.0786,-0.021 0.19017,-0.1075 0.19017,-0.2811 0,-0.2068 -0.17363,-0.3597 -0.46302,-0.3597 -0.39688,0 -0.48783,0.248 -0.48783,0.4465 h 0.18604 c 0.008,-0.095 0.0248,-0.2936 0.29352,-0.2936 0.22324,0 0.27699,0.1365 0.27699,0.215 0,0.1737 -0.14056,0.2274 -0.28526,0.2274 -0.0331,0 -0.0661,0 -0.0992,0 z m 2.70785,3.2959 h 0.5209 v 1.2319 h 0.2067 v -1.2319 h 0.5209 v -0.1654 h -1.2485 z m 2.33577,0.8971 v -0.1447 h -0.21911 v -0.8888 h -0.15709 l -0.6904,0.8681 v 0.1654 h 0.65732 v 0.3348 h 0.19017 v -0.3348 z m -0.41341,-0.769 h 0.004 v 0.6243 h -0.48369 z m 2.48047,-0.1281 h 0.5209 v 1.2319 h 0.2067 v -1.2319 h 0.5209 v -0.1654 h -1.2485 z m 1.59577,0.058 h 0.63665 v -0.1654 h -0.78135 l -0.11162,0.7359 h 0.16123 c 0.0744,-0.083 0.1695,-0.1282 0.28112,-0.1282 0.18604,0 0.33487,0.1075 0.33487,0.3018 0,0.1737 -0.12403,0.3142 -0.31833,0.3142 -0.1695,0 -0.30179,-0.07 -0.31833,-0.2273 h -0.1943 c 0.0331,0.3059 0.28939,0.3762 0.48369,0.3762 0.47129,0 0.5457,-0.3308 0.5457,-0.4796 0,-0.2853 -0.24804,-0.4382 -0.49196,-0.4382 -0.13642,0 -0.22737,0.041 -0.29352,0.083 z m 2.89181,-0.058 h 0.5209 v 1.2319 h 0.2067 v -1.2319 h 0.5209 v -0.1654 h -1.2485 z m 2.29443,0.2274 c -0.0207,-0.277 -0.26871,-0.3638 -0.44235,-0.3638 -0.44648,0 -0.55397,0.4299 -0.55397,0.7317 0,0.1778 0.0248,0.3473 0.11576,0.4754 0.10748,0.153 0.26871,0.1985 0.38447,0.1985 0.21497,0 0.30179,-0.054 0.38447,-0.1323 0.0992,-0.1034 0.14056,-0.2026 0.14056,-0.3432 0,-0.3266 -0.28525,-0.434 -0.47129,-0.434 -0.20257,0 -0.31006,0.095 -0.35553,0.1694 h -0.004 c 0,-0.1447 0.062,-0.5085 0.35553,-0.5085 0.16536,0 0.23564,0.091 0.26045,0.2109 z m -0.77721,0.5829 c 0,-0.1613 0.0992,-0.2977 0.31006,-0.2977 0.23151,0 0.30179,0.1695 0.30179,0.2894 0,0.186 -0.11576,0.3142 -0.29352,0.3142 -0.22325,0 -0.31833,-0.1571 -0.31833,-0.3059 z m 2.80086,-0.8103 h 0.5209 v 1.2319 h 0.20671 v -1.2319 h 0.5209 v -0.1654 h -1.24851 z m 1.29398,0.058 h 0.83096 c -0.28939,0.3059 -0.56638,0.7978 -0.61599,1.174 h 0.20671 c 0.11162,-0.6118 0.47129,-1.0459 0.62012,-1.1906 v -0.1488 h -1.0418 z m 3.1936,-0.058 h 0.5209 v 1.2319 h 0.20671 v -1.2319 h 0.5209 v -0.1654 h -1.24851 z m 2.26963,0.215 c 0,-0.1571 -0.13229,-0.3514 -0.46715,-0.3514 -0.35967,0 -0.45475,0.2315 -0.45475,0.3762 0,0.1281 0.0744,0.2191 0.20257,0.2645 -0.1571,0.058 -0.25218,0.1654 -0.25218,0.3349 0,0.066 0,0.215 0.15296,0.3266 0.11989,0.083 0.27698,0.1034 0.3638,0.1034 0.35553,0 0.5085,-0.2109 0.5085,-0.4341 0,-0.1034 -0.0455,-0.2522 -0.24805,-0.3308 0.0661,-0.033 0.1943,-0.091 0.1943,-0.2893 z m -0.46302,0.3762 c 0.17363,0 0.31419,0.079 0.31419,0.2645 0,0.215 -0.16536,0.2605 -0.30179,0.2605 -0.26044,0 -0.32246,-0.1654 -0.32246,-0.2729 0,-0.1281 0.0992,-0.2521 0.31006,-0.2521 z m 0,-0.1489 c -0.13642,0 -0.26458,-0.083 -0.26458,-0.2108 0,-0.087 0.0496,-0.215 0.25218,-0.215 0.21911,0 0.28112,0.1199 0.28112,0.2067 0,0.124 -0.10749,0.2191 -0.26872,0.2191 z m 2.59623,-0.4423 h 0.52089 v 1.2319 h 0.20671 v -1.2319 h 0.5209 v -0.1654 h -1.2485 z m 1.77766,0.7731 c 0.14056,0 0.28939,-0.058 0.34727,-0.1613 h 0.004 c -0.0496,0.3514 -0.1571,0.5126 -0.3638,0.5126 -0.15297,0 -0.24392,-0.087 -0.25632,-0.2274 h -0.18604 c 0,0.1323 0.0951,0.368 0.44649,0.368 0.5209,0 0.5457,-0.6243 0.5457,-0.7731 0,-0.2191 -0.0455,-0.6325 -0.52503,-0.6325 -0.31833,0 -0.48369,0.2191 -0.48369,0.4671 0,0.2729 0.1943,0.4424 0.47129,0.4424 z m 0.0289,-0.153 c -0.12816,0 -0.30592,-0.033 -0.30592,-0.2935 0,-0.1861 0.11575,-0.3101 0.28938,-0.3101 0.21911,0 0.30593,0.1364 0.30593,0.2935 0,0.2688 -0.19017,0.3101 -0.28939,0.3101 z m 2.00298,-0.6201 h 0.5209 v 1.2319 h 0.20672 v -1.2319 h 0.52089 v -0.1654 h -1.2485 z m 2.00401,-0.1364 h -0.14883 c -0.0579,0.2232 -0.16123,0.2439 -0.40514,0.2604 v 0.1364 h 0.3514 v 0.9715 h 0.20257 z m 1.28674,0.7028 c 0,0.3431 -0.0992,0.5498 -0.31419,0.5498 -0.21498,0 -0.31419,-0.2067 -0.31419,-0.5498 0,-0.3432 0.0992,-0.5499 0.31419,-0.5499 0.21497,0 0.31419,0.2067 0.31419,0.5499 z m 0.20257,0 c 0,-0.2853 -0.0827,-0.7028 -0.51676,-0.7028 -0.43408,0 -0.51676,0.4175 -0.51676,0.7028 0,0.2852 0.0827,0.7028 0.51676,0.7028 0.43408,0 0.51676,-0.4176 0.51676,-0.7028 z m 4.22509,-2.1591 v -0.1405 h -0.17777 v -0.2853 h -0.19017 v 0.2853 h -0.15297 v 0.1405 h 0.15297 v 0.6739 c 0,0.1199 0.0413,0.2149 0.22737,0.2149 0.0207,0 0.0744,-0.01 0.14057,-0.012 v -0.1322 h -0.0661 c -0.0372,0 -0.11162,0 -0.11162,-0.083 v -0.6615 z m 0.40203,-0.1405 h -0.18603 v 1.0169 h 0.18603 z m 0,-0.1861 v -0.1943 h -0.18603 v 0.1943 z m 0.31006,1.203 h 0.18604 v -0.5539 c 0,-0.277 0.19017,-0.339 0.29765,-0.339 0.13643,0 0.17364,0.1033 0.17364,0.1901 v 0.7028 h 0.19017 v -0.6201 c 0,-0.1364 0.10335,-0.2728 0.26458,-0.2728 0.1571,0 0.20671,0.095 0.20671,0.2356 v 0.6573 h 0.18603 v -0.7028 c 0,-0.2893 -0.22738,-0.3431 -0.34726,-0.3431 -0.17364,0 -0.24805,0.07 -0.339,0.1654 -0.0331,-0.058 -0.0992,-0.1654 -0.29766,-0.1654 -0.20257,0 -0.29765,0.1158 -0.33899,0.1736 h -0.004 v -0.1446 h -0.17777 z m 2.57142,-0.3183 c -0.004,0.074 -0.11162,0.1985 -0.28938,0.1985 -0.21498,0 -0.3266,-0.1199 -0.3266,-0.3349 h 0.81855 c 0,-0.3597 -0.15709,-0.5912 -0.47955,-0.5912 -0.37207,0 -0.53744,0.2481 -0.53744,0.5664 0,0.2935 0.18604,0.5085 0.50023,0.5085 0.17777,0 0.25218,-0.037 0.30179,-0.07 0.14469,-0.087 0.19431,-0.2274 0.20257,-0.277 z m -0.61598,-0.2728 c 0,-0.1571 0.14056,-0.3018 0.31419,-0.3018 0.22738,0 0.30179,0.1447 0.31006,0.3018 z m 0,0"
       style="fill:#000000;fill-opacity:1;fill-rule:nonzero;stroke:none;stroke-width:0.33636"
       aria-label="T1T2T3&#10;T4T5T6T7T8T9T10&#10;time" />
    <path
       id="path298"
       d="m 610.23035,-1668.0308 h 0.50436 c 0.20671,0 0.3638,0.07 0.3638,0.2852 0,0.2274 -0.14883,0.306 -0.3762,0.306 h -0.49196 z m 0,0.7855 h 0.57877 c 0.40101,0 0.54571,-0.2646 0.54571,-0.5044 0,-0.2729 -0.20257,-0.4754 -0.54571,-0.4754 h -0.83095 v 1.6991 h 0.25218 z m 2.44636,0.2232 0.1819,0.4961 h 0.27285 l -0.66559,-1.6991 h -0.28525 l -0.6904,1.6991 h 0.25631 l 0.19017,-0.4961 z m -0.66146,-0.2026 0.29352,-0.7482 h 0.008 l 0.26872,0.7482 z m 3.08819,0.6987 v -1.6991 h -0.35554 l -0.52503,1.4345 h -0.004 l -0.52503,-1.4345 h -0.35967 v 1.6991 h 0.24392 v -1.0046 c 0,-0.05 -0.008,-0.2646 -0.008,-0.4217 h 0.008 l 0.51676,1.4263 h 0.24805 l 0.51676,-1.4304 h 0.004 c 0,0.1612 -0.004,0.3762 -0.004,0.4258 v 1.0046 z m 1.99057,-0.8847 c 0,-0.062 -0.0331,-0.3886 -0.51676,-0.3886 -0.26459,0 -0.5085,0.124 -0.5085,0.3927 0,0.1737 0.12402,0.2605 0.31419,0.3018 l 0.26045,0.062 c 0.19017,0.041 0.26459,0.074 0.26459,0.1737 0,0.1405 -0.1447,0.1984 -0.30593,0.1984 -0.31832,0 -0.34726,-0.1571 -0.35553,-0.2522 h -0.21911 c 0.008,0.1488 0.0455,0.4341 0.57878,0.4341 0.30179,0 0.52916,-0.1571 0.52916,-0.4134 0,-0.1654 -0.0951,-0.2605 -0.3762,-0.3266 l -0.22738,-0.05 c -0.17363,-0.041 -0.24391,-0.066 -0.24391,-0.1654 0,-0.1571 0.19844,-0.1777 0.26872,-0.1777 0.28525,0 0.31419,0.1322 0.31832,0.2108 z m 0.51263,-0.3555 h -0.22324 v 1.2402 h 0.22324 z m 0,-0.2233 v -0.2356 h -0.22324 v 0.2356 z m 0.48989,0.8392 c 0,-0.1571 0.0207,-0.463 0.36794,-0.463 0.3266,0 0.3638,0.3225 0.3638,0.5251 0,0.3307 -0.22324,0.4175 -0.36793,0.4175 -0.24805,0 -0.36381,-0.2067 -0.36381,-0.4796 z m 0.94672,-0.6159 h -0.21498 v 0.1777 h -0.004 c -0.0538,-0.07 -0.1571,-0.2108 -0.40101,-0.2108 -0.35553,0 -0.55811,0.2687 -0.55811,0.616 0,0.2976 0.1323,0.6945 0.59118,0.6945 0.17777,0 0.29766,-0.078 0.35554,-0.1695 v -0.01 h 0.004 v 0.054 c 0,0.1447 0.008,0.4341 -0.38034,0.4341 -0.0537,0 -0.26458,0 -0.30592,-0.1943 h -0.22324 c 0.0413,0.3266 0.3514,0.3679 0.51263,0.3679 0.62011,0 0.62425,-0.4465 0.62425,-0.6243 z m 1.38906,0.3968 c 0,-0.3514 -0.26045,-0.4299 -0.47129,-0.4299 -0.23151,0 -0.35553,0.1447 -0.40514,0.2108 h -0.004 v -0.1777 h -0.21497 v 1.2402 h 0.22737 v -0.6739 c 0,-0.339 0.22738,-0.4134 0.35554,-0.4134 0.21911,0 0.28525,0.1075 0.28525,0.3225 v 0.7648 h 0.22738 z m 0.51573,-0.021 c 0.0165,-0.091 0.0496,-0.2357 0.30592,-0.2357 0.21498,0 0.31833,0.07 0.31833,0.1985 0,0.124 -0.0661,0.1447 -0.11989,0.1488 l -0.37207,0.041 c -0.3762,0.041 -0.40928,0.2853 -0.40928,0.3886 0,0.215 0.17777,0.3597 0.42168,0.3597 0.26459,0 0.39688,-0.1158 0.48783,-0.2026 0.004,0.095 0.0372,0.1902 0.23564,0.1902 0.0538,0 0.0868,-0.017 0.12403,-0.025 v -0.153 c -0.0248,0 -0.0538,0.012 -0.0744,0.012 -0.0455,0 -0.0744,-0.025 -0.0744,-0.074 v -0.7152 c 0,-0.3142 -0.38861,-0.3431 -0.49609,-0.3431 -0.33073,0 -0.54571,0.1157 -0.55398,0.4093 z m 0.61598,0.434 c 0,0.1654 -0.20257,0.2936 -0.41341,0.2936 -0.1695,0 -0.24391,-0.083 -0.24391,-0.215 0,-0.1571 0.17777,-0.1902 0.28525,-0.2026 0.28112,-0.033 0.339,-0.054 0.37207,-0.079 z m 0.82269,-1.2691 h -0.22324 v 1.6991 h 0.22324 z m 0,0"
       style="fill:#000000;fill-opacity:1;fill-rule:nonzero;stroke:none;stroke-width:0.338943"
       aria-label="PAM signal" />
    <path
       id="path299"
       d="m 554.38677,-1689.3857 v 0.254 h 0.0847 v 0.085 l 0.0847,0.085 v 0.085 l 0.0847,0.1693 v 0.1694 l 0.16933,0.1693 v 0.1693 l 0.0847,0.085 v 0.254 l 0.0847,0.085 v 0.085 l 0.0847,0.085 0.0847,0.1693 v 0.1694 l 0.0847,0.085 0.0847,0.1694 0.0847,0.085 v 0.085 l 0.0847,0.1693 v 0.1694 l 0.0847,0.085 0.0847,0.1694 0.0847,0.085 v 0.1694 l 0.0847,0.085 v 0.1694 l 0.0847,0.085 0.59267,1.016 0.508,0.9314 0.508,0.762 0.508,0.6773 0.508,0.508 0.508,0.3387 0.59266,0.254 0.508,0.1693 0.42334,0.085 h 0.508 l 0.508,-0.1694 0.508,-0.254 1.016,-0.6773 0.93133,-0.9313 0.42333,-0.5927 0.508,-0.6773 0.508,-0.5927 0.42334,-0.762 0.508,-0.762 0.84666,-1.524 0.508,-0.8467 2.11667,-4.2333 0.42333,-0.762 0.42334,-0.8467 0.42333,-0.762 0.33867,-0.6773 0.84666,-1.3547 0.33867,-0.5926 0.42333,-0.508 0.33867,-0.508 0.762,-0.762 0.508,-0.3387 0.16933,-0.085 0.508,-0.1693 0.16933,-0.085 h 0.254 l 0.16934,0.085 0.762,0.254 0.16933,0.085 0.16933,0.1693 0.254,0.085 0.254,0.1693 0.16934,0.254 0.84666,0.8467 0.16934,0.254 0.254,0.254 0.33866,0.508 0.254,0.254 0.16934,0.3386 0.254,0.254 0.0847,0.254 0.254,0.254 0.16934,0.254 0.16933,0.3387 0.254,0.1693 0.16933,0.3387 0.16934,0.254 0.42333,0.4233 0.16933,0.254 0.16934,0.1694 0.254,0.1693 0.0847,0.254 0.254,0.1693 0.33867,0.1694 0.254,0.1693 1.27,0.4233 h 0.16933 l 0.254,-0.085 h 0.254 l 0.762,-0.254 0.33867,-0.085 0.508,-0.3387 0.254,-0.085 0.42333,-0.4234 0.33867,-0.254 0.254,-0.1693 0.254,-0.254 0.254,-0.1693 1.524,-1.524 0.33867,-0.254 1.016,-1.016 1.35466,-1.016 0.33867,-0.1694 0.33867,-0.085 0.33866,-0.1694 h 0.93134 l 0.42333,0.085 0.33867,0.254 0.16933,0.085 0.16933,0.1693 0.254,0.1693 0.33867,0.3387 0.508,0.3387 0.16933,0.1693 0.254,0.1693 0.16934,0.085 0.508,0.1693 h 0.762 l 0.254,-0.1693 0.33866,-0.1693 0.254,-0.254 0.33867,-0.254"
       style="fill:none;stroke:#000000;stroke-width:0.169333;stroke-linecap:round;stroke-linejoin:round;stroke-miterlimit:10;stroke-dasharray:none;stroke-opacity:1" />
    <path
       id="path300"
       d="m 552.86277,-1689.3857 h 45.974"
       style="fill:none;stroke:#000000;stroke-width:0.169333;stroke-linecap:round;stroke-linejoin:round;stroke-miterlimit:10;stroke-dasharray:none;stroke-opacity:1" />
    <path
       id="path301"
       d="m 598.66743,-1690.063 1.35467,0.6773 -1.35467,0.5927 v -1.27"
       style="fill:#000000;fill-opacity:1;fill-rule:evenodd;stroke:none;stroke-width:0.352778" />
    <path
       id="path302"
       d="m 552.86277,-1699.3764 v 19.9814"
       style="fill:none;stroke:#000000;stroke-width:0.169333;stroke-linecap:round;stroke-linejoin:round;stroke-miterlimit:10;stroke-dasharray:none;stroke-opacity:1" />
    <path
       id="path303"
       d="m 552.18544,-1699.207 0.67733,-1.27 0.67733,1.27 h -1.35466"
       style="fill:#000000;fill-opacity:1;fill-rule:evenodd;stroke:none;stroke-width:0.352778" />
    <path
       id="path304"
       d="m 554.66992,-1691.9725 h 0.52089 v 1.2319 h 0.20671 v -1.2319 h 0.5209 v -0.1654 h -1.2485 z m 1.98437,-0.1365 h -0.14883 c -0.0579,0.2233 -0.16123,0.2439 -0.40514,0.2605 v 0.1364 h 0.3514 v 0.9715 h 0.20257 z m 2.41846,0.1365 h 0.5209 v 1.2319 h 0.2067 v -1.2319 h 0.5209 v -0.1654 h -1.2485 z m 1.49655,0.3555 c 0.008,-0.095 0.0207,-0.339 0.30592,-0.339 0.21911,0 0.29766,0.1406 0.29766,0.248 0,0.1778 -0.11576,0.2357 -0.27699,0.3184 l -0.19844,0.1075 c -0.20257,0.1033 -0.34313,0.2563 -0.35553,0.5415 h 1.03353 v -0.1612 h -0.81856 c 0.008,-0.054 0.0538,-0.1612 0.25632,-0.2646 l 0.1571,-0.078 c 0.22737,-0.1075 0.40514,-0.2109 0.40514,-0.4548 0,-0.2563 -0.21084,-0.4093 -0.47129,-0.4093 -0.16536,0 -0.5209,0.045 -0.5209,0.492 z m 2.90628,-0.3555 h 0.5209 v 1.2319 h 0.2067 v -1.2319 h 0.5209 v -0.1654 h -1.2485 z m 1.69395,0.5994 c 0.0289,0 0.0579,0 0.0868,0 0.12816,0 0.3514,0.021 0.3514,0.2522 0,0.1571 -0.13643,0.2646 -0.33073,0.2646 -0.27699,0 -0.31419,-0.1737 -0.31833,-0.3018 h -0.1943 c 0.0124,0.1571 0.0579,0.3142 0.22324,0.3927 0.0744,0.037 0.16537,0.062 0.27699,0.062 0.38447,0 0.54157,-0.2149 0.54157,-0.4382 0,-0.186 -0.10336,-0.277 -0.24805,-0.3224 v 0 c 0.0786,-0.021 0.19017,-0.1075 0.19017,-0.2811 0,-0.2067 -0.17363,-0.3597 -0.46302,-0.3597 -0.39688,0 -0.48783,0.2481 -0.48783,0.4465 h 0.18604 c 0.008,-0.095 0.0248,-0.2935 0.29352,-0.2935 0.22324,0 0.27699,0.1364 0.27699,0.215 0,0.1736 -0.14056,0.2273 -0.28526,0.2273 -0.0331,0 -0.0661,0 -0.0992,0 z m 2.70785,3.2949 h 0.5209 v 1.232 h 0.2067 v -1.232 h 0.5209 v -0.1654 h -1.2485 z m 2.33577,0.8971 v -0.1447 h -0.21911 v -0.8888 h -0.15709 l -0.6904,0.8681 v 0.1654 h 0.65732 v 0.3349 h 0.19017 v -0.3349 z m -0.41341,-0.769 h 0.004 v 0.6243 h -0.48369 z m 2.48047,-0.1281 h 0.5209 v 1.232 h 0.2067 v -1.232 h 0.5209 v -0.1654 h -1.2485 z m 1.59577,0.058 h 0.63665 v -0.1654 h -0.78135 l -0.11162,0.7359 h 0.16123 c 0.0744,-0.083 0.1695,-0.1281 0.28112,-0.1281 0.18604,0 0.33487,0.1074 0.33487,0.3017 0,0.1737 -0.12403,0.3142 -0.31833,0.3142 -0.1695,0 -0.30179,-0.07 -0.31833,-0.2273 h -0.1943 c 0.0331,0.3059 0.28939,0.3762 0.48369,0.3762 0.47129,0 0.5457,-0.3308 0.5457,-0.4796 0,-0.2852 -0.24804,-0.4382 -0.49196,-0.4382 -0.13642,0 -0.22737,0.041 -0.29352,0.083 z m 2.89181,-0.058 h 0.5209 v 1.232 h 0.2067 v -1.232 h 0.5209 v -0.1654 h -1.2485 z m 2.29443,0.2274 c -0.0207,-0.277 -0.26871,-0.3638 -0.44235,-0.3638 -0.44648,0 -0.55397,0.4299 -0.55397,0.7317 0,0.1778 0.0248,0.3473 0.11576,0.4754 0.10748,0.153 0.26871,0.1985 0.38447,0.1985 0.21497,0 0.30179,-0.054 0.38447,-0.1323 0.0992,-0.1034 0.14056,-0.2026 0.14056,-0.3432 0,-0.3266 -0.28525,-0.434 -0.47129,-0.434 -0.20257,0 -0.31006,0.095 -0.35553,0.1695 h -0.004 c 0,-0.1447 0.062,-0.5085 0.35553,-0.5085 0.16536,0 0.23564,0.091 0.26045,0.2109 z m -0.77721,0.5829 c 0,-0.1613 0.0992,-0.2977 0.31006,-0.2977 0.23151,0 0.30179,0.1695 0.30179,0.2894 0,0.186 -0.11576,0.3142 -0.29352,0.3142 -0.22325,0 -0.31833,-0.1571 -0.31833,-0.3059 z m 2.80086,-0.8103 h 0.5209 v 1.232 h 0.20671 v -1.232 h 0.5209 v -0.1654 h -1.24851 z m 1.29398,0.058 h 0.83096 c -0.28939,0.3059 -0.56638,0.7979 -0.61599,1.1741 h 0.20671 c 0.11162,-0.6119 0.47129,-1.046 0.62012,-1.1907 v -0.1488 h -1.0418 z m 3.1936,-0.058 h 0.5209 v 1.232 h 0.20671 v -1.232 h 0.5209 v -0.1654 h -1.24851 z m 2.26963,0.215 c 0,-0.1571 -0.13229,-0.3514 -0.46715,-0.3514 -0.35967,0 -0.45475,0.2315 -0.45475,0.3762 0,0.1281 0.0744,0.2191 0.20257,0.2646 -0.1571,0.058 -0.25218,0.1653 -0.25218,0.3348 0,0.066 0,0.215 0.15296,0.3266 0.11989,0.083 0.27698,0.1034 0.3638,0.1034 0.35553,0 0.5085,-0.2109 0.5085,-0.4341 0,-0.1034 -0.0455,-0.2522 -0.24805,-0.3307 0.0661,-0.033 0.1943,-0.091 0.1943,-0.2894 z m -0.46302,0.3762 c 0.17363,0 0.31419,0.079 0.31419,0.2646 0,0.2149 -0.16536,0.2604 -0.30179,0.2604 -0.26044,0 -0.32246,-0.1654 -0.32246,-0.2729 0,-0.1281 0.0992,-0.2521 0.31006,-0.2521 z m 0,-0.1489 c -0.13642,0 -0.26458,-0.083 -0.26458,-0.2108 0,-0.087 0.0496,-0.215 0.25218,-0.215 0.21911,0 0.28112,0.1199 0.28112,0.2067 0,0.1241 -0.10749,0.2191 -0.26872,0.2191 z m 2.59623,-0.4423 h 0.52089 v 1.232 h 0.20671 v -1.232 h 0.5209 v -0.1654 h -1.2485 z m 1.77766,0.7731 c 0.14056,0 0.28939,-0.058 0.34727,-0.1613 h 0.004 c -0.0496,0.3514 -0.1571,0.5126 -0.3638,0.5126 -0.15297,0 -0.24392,-0.087 -0.25632,-0.2274 h -0.18604 c 0,0.1323 0.0951,0.368 0.44649,0.368 0.5209,0 0.5457,-0.6243 0.5457,-0.7731 0,-0.2191 -0.0455,-0.6325 -0.52503,-0.6325 -0.31833,0 -0.48369,0.2191 -0.48369,0.4671 0,0.2729 0.1943,0.4424 0.47129,0.4424 z m 0.0289,-0.153 c -0.12816,0 -0.30592,-0.033 -0.30592,-0.2935 0,-0.186 0.11575,-0.3101 0.28938,-0.3101 0.21911,0 0.30593,0.1365 0.30593,0.2935 0,0.2688 -0.19017,0.3101 -0.28939,0.3101 z m 2.00298,-0.6201 h 0.5209 v 1.232 h 0.20672 v -1.232 h 0.52089 v -0.1654 h -1.2485 z m 2.00401,-0.1364 h -0.14883 c -0.0579,0.2232 -0.16123,0.2439 -0.40514,0.2604 v 0.1364 h 0.3514 v 0.9716 h 0.20257 z m 1.28674,0.7028 c 0,0.3431 -0.0992,0.5498 -0.31419,0.5498 -0.21498,0 -0.31419,-0.2067 -0.31419,-0.5498 0,-0.3432 0.0992,-0.5499 0.31419,-0.5499 0.21497,0 0.31419,0.2067 0.31419,0.5499 z m 0.20257,0 c 0,-0.2853 -0.0827,-0.7028 -0.51676,-0.7028 -0.43408,0 -0.51676,0.4175 -0.51676,0.7028 0,0.2852 0.0827,0.7028 0.51676,0.7028 0.43408,0 0.51676,-0.4176 0.51676,-0.7028 z m 4.22509,-2.2428 v -0.1406 h -0.17777 v -0.2852 h -0.19017 v 0.2852 h -0.15297 v 0.1406 h 0.15297 v 0.6739 c 0,0.1199 0.0413,0.2149 0.22737,0.2149 0.0207,0 0.0744,-0.01 0.14057,-0.012 v -0.1323 h -0.0661 c -0.0372,0 -0.11162,0 -0.11162,-0.083 v -0.6615 z m 0.40203,-0.1406 h -0.18603 v 1.017 h 0.18603 z m 0,-0.186 v -0.1943 h -0.18603 v 0.1943 z m 0.31006,1.203 h 0.18604 v -0.5539 c 0,-0.277 0.19017,-0.339 0.29765,-0.339 0.13643,0 0.17364,0.1033 0.17364,0.1901 v 0.7028 h 0.19017 v -0.6201 c 0,-0.1364 0.10335,-0.2728 0.26458,-0.2728 0.1571,0 0.20671,0.095 0.20671,0.2356 v 0.6573 h 0.18603 v -0.7028 c 0,-0.2893 -0.22738,-0.3431 -0.34726,-0.3431 -0.17364,0 -0.24805,0.07 -0.339,0.1654 -0.0331,-0.058 -0.0992,-0.1654 -0.29766,-0.1654 -0.20257,0 -0.29765,0.1158 -0.33899,0.1736 h -0.004 v -0.1447 h -0.17777 z m 2.57142,-0.3183 c -0.004,0.074 -0.11162,0.1985 -0.28938,0.1985 -0.21498,0 -0.3266,-0.1199 -0.3266,-0.3349 h 0.81855 c 0,-0.3597 -0.15709,-0.5912 -0.47955,-0.5912 -0.37207,0 -0.53744,0.2481 -0.53744,0.5664 0,0.2935 0.18604,0.5085 0.50023,0.5085 0.17777,0 0.25218,-0.037 0.30179,-0.07 0.14469,-0.087 0.19431,-0.2274 0.20257,-0.277 z m -0.61598,-0.2728 c 0,-0.1571 0.14056,-0.3018 0.31419,-0.3018 0.22738,0 0.30179,0.1447 0.31006,0.3018 z m 0,0"
       style="fill:#000000;fill-opacity:1;fill-rule:nonzero;stroke:none;stroke-width:0.33636"
       aria-label="T1T2T3&#10;T4T5T6T7T8T9T10&#10;time" />
    <path
       id="path305"
       d="m 555.8261,-1689.3857 v 0.085"
       style="fill:none;stroke:#000000;stroke-width:0.169333;stroke-linecap:round;stroke-linejoin:round;stroke-miterlimit:10;stroke-dasharray:none;stroke-opacity:1" />
    <path
       id="path306"
       d="m 555.8261,-1688.539 v 0.085"
       style="fill:none;stroke:#000000;stroke-width:0.169333;stroke-linecap:round;stroke-linejoin:round;stroke-miterlimit:10;stroke-dasharray:none;stroke-opacity:1" />
    <path
       id="path307"
       d="m 555.8261,-1687.6924 v 0.085"
       style="fill:none;stroke:#000000;stroke-width:0.169333;stroke-linecap:round;stroke-linejoin:round;stroke-miterlimit:10;stroke-dasharray:none;stroke-opacity:1" />
    <path
       id="path308"
       d="m 555.8261,-1686.8457 v 0.085"
       style="fill:none;stroke:#000000;stroke-width:0.169333;stroke-linecap:round;stroke-linejoin:round;stroke-miterlimit:10;stroke-dasharray:none;stroke-opacity:1" />
    <path
       id="path309"
       d="m 560.22877,-1689.3857 v 0.085"
       style="fill:none;stroke:#000000;stroke-width:0.169333;stroke-linecap:round;stroke-linejoin:round;stroke-miterlimit:10;stroke-dasharray:none;stroke-opacity:1" />
    <path
       id="path310"
       d="m 560.22877,-1688.539 v 0.085"
       style="fill:none;stroke:#000000;stroke-width:0.169333;stroke-linecap:round;stroke-linejoin:round;stroke-miterlimit:10;stroke-dasharray:none;stroke-opacity:1" />
    <path
       id="path311"
       d="m 560.22877,-1687.6924 v 0.085"
       style="fill:none;stroke:#000000;stroke-width:0.169333;stroke-linecap:round;stroke-linejoin:round;stroke-miterlimit:10;stroke-dasharray:none;stroke-opacity:1" />
    <path
       id="path312"
       d="m 560.22877,-1686.8457 v 0.085"
       style="fill:none;stroke:#000000;stroke-width:0.169333;stroke-linecap:round;stroke-linejoin:round;stroke-miterlimit:10;stroke-dasharray:none;stroke-opacity:1" />
    <path
       id="path313"
       d="m 560.22877,-1685.999 v 0.085"
       style="fill:none;stroke:#000000;stroke-width:0.169333;stroke-linecap:round;stroke-linejoin:round;stroke-miterlimit:10;stroke-dasharray:none;stroke-opacity:1" />
    <path
       id="path314"
       d="m 560.22877,-1685.1524 v 0.085"
       style="fill:none;stroke:#000000;stroke-width:0.169333;stroke-linecap:round;stroke-linejoin:round;stroke-miterlimit:10;stroke-dasharray:none;stroke-opacity:1" />
    <path
       id="path315"
       d="m 560.22877,-1684.3057 v 0.085"
       style="fill:none;stroke:#000000;stroke-width:0.169333;stroke-linecap:round;stroke-linejoin:round;stroke-miterlimit:10;stroke-dasharray:none;stroke-opacity:1" />
    <path
       id="path316"
       d="m 560.22877,-1683.459 v 0.085"
       style="fill:none;stroke:#000000;stroke-width:0.169333;stroke-linecap:round;stroke-linejoin:round;stroke-miterlimit:10;stroke-dasharray:none;stroke-opacity:1" />
    <path
       id="path317"
       d="m 560.22877,-1682.6124 v 0.085"
       style="fill:none;stroke:#000000;stroke-width:0.169333;stroke-linecap:round;stroke-linejoin:round;stroke-miterlimit:10;stroke-dasharray:none;stroke-opacity:1" />
    <path
       id="path318"
       d="m 560.22877,-1681.7657 v 0.085"
       style="fill:none;stroke:#000000;stroke-width:0.169333;stroke-linecap:round;stroke-linejoin:round;stroke-miterlimit:10;stroke-dasharray:none;stroke-opacity:1" />
    <path
       id="path319"
       d="m 582.32677,-1693.619 v 0.1693"
       style="fill:none;stroke:#000000;stroke-width:0.169333;stroke-linecap:round;stroke-linejoin:round;stroke-miterlimit:10;stroke-dasharray:none;stroke-opacity:1" />
    <path
       id="path320"
       d="m 582.32677,-1692.7724 v 0.1694"
       style="fill:none;stroke:#000000;stroke-width:0.169333;stroke-linecap:round;stroke-linejoin:round;stroke-miterlimit:10;stroke-dasharray:none;stroke-opacity:1" />
    <path
       id="path321"
       d="m 582.32677,-1691.9257 v 0.1693"
       style="fill:none;stroke:#000000;stroke-width:0.169333;stroke-linecap:round;stroke-linejoin:round;stroke-miterlimit:10;stroke-dasharray:none;stroke-opacity:1" />
    <path
       id="path322"
       d="m 582.32677,-1691.079 v 0.1693"
       style="fill:none;stroke:#000000;stroke-width:0.169333;stroke-linecap:round;stroke-linejoin:round;stroke-miterlimit:10;stroke-dasharray:none;stroke-opacity:1" />
    <path
       id="path323"
       d="m 582.32677,-1690.2324 v 0.1694"
       style="fill:none;stroke:#000000;stroke-width:0.169333;stroke-linecap:round;stroke-linejoin:round;stroke-miterlimit:10;stroke-dasharray:none;stroke-opacity:1" />
    <path
       id="path324"
       d="m 591.1321,-1696.921 v 0.1693"
       style="fill:none;stroke:#000000;stroke-width:0.169333;stroke-linecap:round;stroke-linejoin:round;stroke-miterlimit:10;stroke-dasharray:none;stroke-opacity:1" />
    <path
       id="path325"
       d="m 591.1321,-1696.0744 v 0.1694"
       style="fill:none;stroke:#000000;stroke-width:0.169333;stroke-linecap:round;stroke-linejoin:round;stroke-miterlimit:10;stroke-dasharray:none;stroke-opacity:1" />
    <path
       id="path326"
       d="m 591.1321,-1695.2277 v 0.1693"
       style="fill:none;stroke:#000000;stroke-width:0.169333;stroke-linecap:round;stroke-linejoin:round;stroke-miterlimit:10;stroke-dasharray:none;stroke-opacity:1" />
    <path
       id="path327"
       d="m 591.1321,-1694.381 v 0.1693"
       style="fill:none;stroke:#000000;stroke-width:0.169333;stroke-linecap:round;stroke-linejoin:round;stroke-miterlimit:10;stroke-dasharray:none;stroke-opacity:1" />
    <path
       id="path328"
       d="m 591.1321,-1693.5344 v 0.1694"
       style="fill:none;stroke:#000000;stroke-width:0.169333;stroke-linecap:round;stroke-linejoin:round;stroke-miterlimit:10;stroke-dasharray:none;stroke-opacity:1" />
    <path
       id="path329"
       d="m 591.1321,-1692.6877 v 0.1693"
       style="fill:none;stroke:#000000;stroke-width:0.169333;stroke-linecap:round;stroke-linejoin:round;stroke-miterlimit:10;stroke-dasharray:none;stroke-opacity:1" />
    <path
       id="path330"
       d="m 591.1321,-1691.841 v 0.1693"
       style="fill:none;stroke:#000000;stroke-width:0.169333;stroke-linecap:round;stroke-linejoin:round;stroke-miterlimit:10;stroke-dasharray:none;stroke-opacity:1" />
    <path
       id="path331"
       d="m 591.1321,-1690.9944 v 0.1694"
       style="fill:none;stroke:#000000;stroke-width:0.169333;stroke-linecap:round;stroke-linejoin:round;stroke-miterlimit:10;stroke-dasharray:none;stroke-opacity:1" />
    <path
       id="path332"
       d="m 591.1321,-1690.1477 v 0.1693"
       style="fill:none;stroke:#000000;stroke-width:0.169333;stroke-linecap:round;stroke-linejoin:round;stroke-miterlimit:10;stroke-dasharray:none;stroke-opacity:1" />
    <path
       id="path333"
       d="m 577.9241,-1699.1224 v 0.1694"
       style="fill:none;stroke:#000000;stroke-width:0.169333;stroke-linecap:round;stroke-linejoin:round;stroke-miterlimit:10;stroke-dasharray:none;stroke-opacity:1" />
    <path
       id="path334"
       d="m 577.9241,-1698.2757 v 0.1693"
       style="fill:none;stroke:#000000;stroke-width:0.169333;stroke-linecap:round;stroke-linejoin:round;stroke-miterlimit:10;stroke-dasharray:none;stroke-opacity:1" />
    <path
       id="path335"
       d="m 577.9241,-1697.429 v 0.1693"
       style="fill:none;stroke:#000000;stroke-width:0.169333;stroke-linecap:round;stroke-linejoin:round;stroke-miterlimit:10;stroke-dasharray:none;stroke-opacity:1" />
    <path
       id="path336"
       d="m 577.9241,-1696.5824 v 0.1694"
       style="fill:none;stroke:#000000;stroke-width:0.169333;stroke-linecap:round;stroke-linejoin:round;stroke-miterlimit:10;stroke-dasharray:none;stroke-opacity:1" />
    <path
       id="path337"
       d="m 577.9241,-1695.7357 v 0.1693"
       style="fill:none;stroke:#000000;stroke-width:0.169333;stroke-linecap:round;stroke-linejoin:round;stroke-miterlimit:10;stroke-dasharray:none;stroke-opacity:1" />
    <path
       id="path338"
       d="m 577.9241,-1694.889 v 0.1693"
       style="fill:none;stroke:#000000;stroke-width:0.169333;stroke-linecap:round;stroke-linejoin:round;stroke-miterlimit:10;stroke-dasharray:none;stroke-opacity:1" />
    <path
       id="path339"
       d="m 577.9241,-1694.0424 v 0.1694"
       style="fill:none;stroke:#000000;stroke-width:0.169333;stroke-linecap:round;stroke-linejoin:round;stroke-miterlimit:10;stroke-dasharray:none;stroke-opacity:1" />
    <path
       id="path340"
       d="m 577.9241,-1693.1957 v 0.1693"
       style="fill:none;stroke:#000000;stroke-width:0.169333;stroke-linecap:round;stroke-linejoin:round;stroke-miterlimit:10;stroke-dasharray:none;stroke-opacity:1" />
    <path
       id="path341"
       d="m 577.9241,-1692.349 v 0.085"
       style="fill:none;stroke:#000000;stroke-width:0.169333;stroke-linecap:round;stroke-linejoin:round;stroke-miterlimit:10;stroke-dasharray:none;stroke-opacity:1" />
    <path
       id="path342"
       d="m 577.9241,-1691.5024 v 0.085"
       style="fill:none;stroke:#000000;stroke-width:0.169333;stroke-linecap:round;stroke-linejoin:round;stroke-miterlimit:10;stroke-dasharray:none;stroke-opacity:1" />
    <path
       id="path343"
       d="m 577.9241,-1690.6557 v 0.085"
       style="fill:none;stroke:#000000;stroke-width:0.169333;stroke-linecap:round;stroke-linejoin:round;stroke-miterlimit:10;stroke-dasharray:none;stroke-opacity:1" />
    <path
       id="path344"
       d="m 577.9241,-1689.809 v 0.085"
       style="fill:none;stroke:#000000;stroke-width:0.169333;stroke-linecap:round;stroke-linejoin:round;stroke-miterlimit:10;stroke-dasharray:none;stroke-opacity:1" />
    <path
       id="path345"
       d="m 569.11877,-1691.333 v 0.1693"
       style="fill:none;stroke:#000000;stroke-width:0.169333;stroke-linecap:round;stroke-linejoin:round;stroke-miterlimit:10;stroke-dasharray:none;stroke-opacity:1" />
    <path
       id="path346"
       d="m 569.11877,-1690.4864 v 0.1694"
       style="fill:none;stroke:#000000;stroke-width:0.169333;stroke-linecap:round;stroke-linejoin:round;stroke-miterlimit:10;stroke-dasharray:none;stroke-opacity:1" />
    <path
       id="path347"
       d="m 569.11877,-1689.6397 v 0.1693"
       style="fill:none;stroke:#000000;stroke-width:0.169333;stroke-linecap:round;stroke-linejoin:round;stroke-miterlimit:10;stroke-dasharray:none;stroke-opacity:1" />
    <path
       id="path348"
       d="m 586.72943,-1693.0264 v 0.1694"
       style="fill:none;stroke:#000000;stroke-width:0.169333;stroke-linecap:round;stroke-linejoin:round;stroke-miterlimit:10;stroke-dasharray:none;stroke-opacity:1" />
    <path
       id="path349"
       d="m 586.72943,-1692.1797 v 0.1693"
       style="fill:none;stroke:#000000;stroke-width:0.169333;stroke-linecap:round;stroke-linejoin:round;stroke-miterlimit:10;stroke-dasharray:none;stroke-opacity:1" />
    <path
       id="path350"
       d="m 586.72943,-1691.333 v 0.1693"
       style="fill:none;stroke:#000000;stroke-width:0.169333;stroke-linecap:round;stroke-linejoin:round;stroke-miterlimit:10;stroke-dasharray:none;stroke-opacity:1" />
    <path
       id="path351"
       d="m 586.72943,-1690.4864 v 0.1694"
       style="fill:none;stroke:#000000;stroke-width:0.169333;stroke-linecap:round;stroke-linejoin:round;stroke-miterlimit:10;stroke-dasharray:none;stroke-opacity:1" />
    <path
       id="path352"
       d="m 586.72943,-1689.6397 v 0.1693"
       style="fill:none;stroke:#000000;stroke-width:0.169333;stroke-linecap:round;stroke-linejoin:round;stroke-miterlimit:10;stroke-dasharray:none;stroke-opacity:1" />
    <path
       id="path353"
       d="m 573.52144,-1699.1224 v 0.1694"
       style="fill:none;stroke:#000000;stroke-width:0.169333;stroke-linecap:round;stroke-linejoin:round;stroke-miterlimit:10;stroke-dasharray:none;stroke-opacity:1" />
    <path
       id="path354"
       d="m 573.52144,-1698.2757 v 0.1693"
       style="fill:none;stroke:#000000;stroke-width:0.169333;stroke-linecap:round;stroke-linejoin:round;stroke-miterlimit:10;stroke-dasharray:none;stroke-opacity:1" />
    <path
       id="path355"
       d="m 573.52144,-1697.429 v 0.1693"
       style="fill:none;stroke:#000000;stroke-width:0.169333;stroke-linecap:round;stroke-linejoin:round;stroke-miterlimit:10;stroke-dasharray:none;stroke-opacity:1" />
    <path
       id="path356"
       d="m 573.52144,-1696.5824 v 0.1694"
       style="fill:none;stroke:#000000;stroke-width:0.169333;stroke-linecap:round;stroke-linejoin:round;stroke-miterlimit:10;stroke-dasharray:none;stroke-opacity:1" />
    <path
       id="path357"
       d="m 573.52144,-1695.7357 v 0.1693"
       style="fill:none;stroke:#000000;stroke-width:0.169333;stroke-linecap:round;stroke-linejoin:round;stroke-miterlimit:10;stroke-dasharray:none;stroke-opacity:1" />
    <path
       id="path358"
       d="m 573.52144,-1694.889 v 0.1693"
       style="fill:none;stroke:#000000;stroke-width:0.169333;stroke-linecap:round;stroke-linejoin:round;stroke-miterlimit:10;stroke-dasharray:none;stroke-opacity:1" />
    <path
       id="path359"
       d="m 573.52144,-1694.0424 v 0.1694"
       style="fill:none;stroke:#000000;stroke-width:0.169333;stroke-linecap:round;stroke-linejoin:round;stroke-miterlimit:10;stroke-dasharray:none;stroke-opacity:1" />
    <path
       id="path360"
       d="m 573.52144,-1693.1957 v 0.1693"
       style="fill:none;stroke:#000000;stroke-width:0.169333;stroke-linecap:round;stroke-linejoin:round;stroke-miterlimit:10;stroke-dasharray:none;stroke-opacity:1" />
    <path
       id="path361"
       d="m 573.52144,-1692.349 v 0.085"
       style="fill:none;stroke:#000000;stroke-width:0.169333;stroke-linecap:round;stroke-linejoin:round;stroke-miterlimit:10;stroke-dasharray:none;stroke-opacity:1" />
    <path
       id="path362"
       d="m 573.52144,-1691.5024 v 0.085"
       style="fill:none;stroke:#000000;stroke-width:0.169333;stroke-linecap:round;stroke-linejoin:round;stroke-miterlimit:10;stroke-dasharray:none;stroke-opacity:1" />
    <path
       id="path363"
       d="m 573.52144,-1690.6557 v 0.085"
       style="fill:none;stroke:#000000;stroke-width:0.169333;stroke-linecap:round;stroke-linejoin:round;stroke-miterlimit:10;stroke-dasharray:none;stroke-opacity:1" />
    <path
       id="path364"
       d="m 573.52144,-1689.809 v 0.085"
       style="fill:none;stroke:#000000;stroke-width:0.169333;stroke-linecap:round;stroke-linejoin:round;stroke-miterlimit:10;stroke-dasharray:none;stroke-opacity:1" />
    <path
       id="path365"
       d="m 564.63144,-1689.3857 v 0.085"
       style="fill:none;stroke:#000000;stroke-width:0.169333;stroke-linecap:round;stroke-linejoin:round;stroke-miterlimit:10;stroke-dasharray:none;stroke-opacity:1" />
    <path
       id="path366"
       d="m 564.63144,-1688.539 v 0.085"
       style="fill:none;stroke:#000000;stroke-width:0.169333;stroke-linecap:round;stroke-linejoin:round;stroke-miterlimit:10;stroke-dasharray:none;stroke-opacity:1" />
    <path
       id="path367"
       d="m 564.63144,-1687.6924 v 0.085"
       style="fill:none;stroke:#000000;stroke-width:0.169333;stroke-linecap:round;stroke-linejoin:round;stroke-miterlimit:10;stroke-dasharray:none;stroke-opacity:1" />
    <path
       id="path368"
       d="m 564.63144,-1686.8457 v 0.085"
       style="fill:none;stroke:#000000;stroke-width:0.169333;stroke-linecap:round;stroke-linejoin:round;stroke-miterlimit:10;stroke-dasharray:none;stroke-opacity:1" />
    <path
       id="path369"
       d="m 564.63144,-1685.999 v 0.085"
       style="fill:none;stroke:#000000;stroke-width:0.169333;stroke-linecap:round;stroke-linejoin:round;stroke-miterlimit:10;stroke-dasharray:none;stroke-opacity:1" />
    <path
       id="path370"
       d="m 564.63144,-1685.1524 v 0.085"
       style="fill:none;stroke:#000000;stroke-width:0.169333;stroke-linecap:round;stroke-linejoin:round;stroke-miterlimit:10;stroke-dasharray:none;stroke-opacity:1" />
    <path
       id="path371"
       d="m 564.63144,-1684.3057 v 0.085"
       style="fill:none;stroke:#000000;stroke-width:0.169333;stroke-linecap:round;stroke-linejoin:round;stroke-miterlimit:10;stroke-dasharray:none;stroke-opacity:1" />
    <path
       id="path372"
       d="m 595.53477,-1698.2757 v 0.1693"
       style="fill:none;stroke:#000000;stroke-width:0.169333;stroke-linecap:round;stroke-linejoin:round;stroke-miterlimit:10;stroke-dasharray:none;stroke-opacity:1" />
    <path
       id="path373"
       d="m 595.53477,-1697.429 v 0.1693"
       style="fill:none;stroke:#000000;stroke-width:0.169333;stroke-linecap:round;stroke-linejoin:round;stroke-miterlimit:10;stroke-dasharray:none;stroke-opacity:1" />
    <path
       id="path374"
       d="m 595.53477,-1696.5824 v 0.1694"
       style="fill:none;stroke:#000000;stroke-width:0.169333;stroke-linecap:round;stroke-linejoin:round;stroke-miterlimit:10;stroke-dasharray:none;stroke-opacity:1" />
    <path
       id="path375"
       d="m 595.53477,-1695.7357 v 0.1693"
       style="fill:none;stroke:#000000;stroke-width:0.169333;stroke-linecap:round;stroke-linejoin:round;stroke-miterlimit:10;stroke-dasharray:none;stroke-opacity:1" />
    <path
       id="path376"
       d="m 595.53477,-1694.889 v 0.1693"
       style="fill:none;stroke:#000000;stroke-width:0.169333;stroke-linecap:round;stroke-linejoin:round;stroke-miterlimit:10;stroke-dasharray:none;stroke-opacity:1" />
    <path
       id="path377"
       d="m 595.53477,-1694.0424 v 0.1694"
       style="fill:none;stroke:#000000;stroke-width:0.169333;stroke-linecap:round;stroke-linejoin:round;stroke-miterlimit:10;stroke-dasharray:none;stroke-opacity:1" />
    <path
       id="path378"
       d="m 595.53477,-1693.1957 v 0.1693"
       style="fill:none;stroke:#000000;stroke-width:0.169333;stroke-linecap:round;stroke-linejoin:round;stroke-miterlimit:10;stroke-dasharray:none;stroke-opacity:1" />
    <path
       id="path379"
       d="m 595.53477,-1692.349 v 0.085"
       style="fill:none;stroke:#000000;stroke-width:0.169333;stroke-linecap:round;stroke-linejoin:round;stroke-miterlimit:10;stroke-dasharray:none;stroke-opacity:1" />
    <path
       id="path380"
       d="m 595.53477,-1691.5024 v 0.085"
       style="fill:none;stroke:#000000;stroke-width:0.169333;stroke-linecap:round;stroke-linejoin:round;stroke-miterlimit:10;stroke-dasharray:none;stroke-opacity:1" />
    <path
       id="path381"
       d="m 595.53477,-1690.6557 v 0.085"
       style="fill:none;stroke:#000000;stroke-width:0.169333;stroke-linecap:round;stroke-linejoin:round;stroke-miterlimit:10;stroke-dasharray:none;stroke-opacity:1" />
    <path
       id="path382"
       d="m 595.53477,-1689.809 v 0.085"
       style="fill:none;stroke:#000000;stroke-width:0.169333;stroke-linecap:round;stroke-linejoin:round;stroke-miterlimit:10;stroke-dasharray:none;stroke-opacity:1" />
    <path
       id="path383"
       d="m 609.70324,-1689.5727 c 0.0165,-0.091 0.0496,-0.2356 0.30593,-0.2356 0.21497,0 0.31832,0.07 0.31832,0.1984 0,0.124 -0.0661,0.1447 -0.11989,0.1488 l -0.37207,0.041 c -0.3762,0.041 -0.40927,0.2852 -0.40927,0.3886 0,0.215 0.17776,0.3596 0.42168,0.3596 0.26458,0 0.39687,-0.1157 0.48782,-0.2025 0.004,0.095 0.0372,0.1901 0.23565,0.1901 0.0537,0 0.0868,-0.016 0.12402,-0.025 v -0.1529 c -0.0248,0 -0.0537,0.012 -0.0744,0.012 -0.0455,0 -0.0744,-0.025 -0.0744,-0.074 v -0.7152 c 0,-0.3142 -0.38861,-0.3432 -0.49609,-0.3432 -0.33073,0 -0.54571,0.1158 -0.55397,0.4093 z m 0.61599,0.4341 c 0,0.1654 -0.20258,0.2935 -0.41342,0.2935 -0.16949,0 -0.24391,-0.083 -0.24391,-0.215 0,-0.1571 0.17777,-0.1901 0.28525,-0.2025 0.28112,-0.033 0.339,-0.054 0.37208,-0.079 z m 1.68981,0.4299 v -1.2402 h -0.22737 v 0.6821 c 0,0.1819 -0.0827,0.4134 -0.36794,0.4134 -0.14883,0 -0.26045,-0.07 -0.26045,-0.2728 v -0.8227 h -0.22737 v 0.893 c 0,0.2935 0.23978,0.3844 0.43821,0.3844 0.21498,0 0.33073,-0.079 0.42582,-0.2232 h 0.004 v 0.1819 z m 1.44178,-1.6991 h -0.22738 v 0.6201 l -0.004,0.017 c -0.0537,-0.07 -0.1571,-0.2109 -0.40101,-0.2109 -0.35554,0 -0.55811,0.2687 -0.55811,0.616 0,0.2977 0.13229,0.6945 0.59118,0.6945 0.12816,0 0.28112,-0.041 0.38034,-0.2067 h 0.004 v 0.1695 h 0.21498 z m -0.95912,1.0749 c 0,-0.1571 0.0207,-0.463 0.36794,-0.463 0.32659,0 0.3638,0.3224 0.3638,0.525 0,0.3307 -0.22324,0.4175 -0.36794,0.4175 -0.24804,0 -0.3638,-0.2067 -0.3638,-0.4795 z m 1.49138,-0.616 h -0.22324 v 1.2402 h 0.22324 z m 0,-0.2232 v -0.2357 h -0.22324 v 0.2357 z m 0.25322,0.8433 c 0,0.3183 0.1943,0.6532 0.62425,0.6532 0.42581,0 0.62425,-0.3349 0.62425,-0.6532 0,-0.3183 -0.19844,-0.6532 -0.62425,-0.6532 -0.42995,0 -0.62425,0.3349 -0.62425,0.6532 z m 0.23151,0 c 0,-0.1653 0.0661,-0.4754 0.39274,-0.4754 0.32246,0 0.38861,0.3101 0.38861,0.4754 0,0.1654 -0.0661,0.4713 -0.38861,0.4713 -0.3266,0 -0.39274,-0.3059 -0.39274,-0.4713 z m 2.91972,-0.2646 c 0,-0.062 -0.0331,-0.3886 -0.51677,-0.3886 -0.26458,0 -0.50849,0.1241 -0.50849,0.3928 0,0.1736 0.12402,0.2604 0.31419,0.3018 l 0.26045,0.062 c 0.19017,0.041 0.26458,0.074 0.26458,0.1736 0,0.1406 -0.14469,0.1984 -0.30592,0.1984 -0.31833,0 -0.34727,-0.1571 -0.35554,-0.2521 h -0.2191 c 0.008,0.1488 0.0455,0.434 0.57877,0.434 0.30179,0 0.52917,-0.1571 0.52917,-0.4134 0,-0.1653 -0.0951,-0.2604 -0.37621,-0.3266 l -0.22737,-0.05 c -0.17364,-0.041 -0.24391,-0.066 -0.24391,-0.1653 0,-0.1571 0.19843,-0.1778 0.26871,-0.1778 0.28526,0 0.31419,0.1323 0.31833,0.2108 z m 0.5209,-0.3555 h -0.22325 v 1.2402 h 0.22325 z m 0,-0.2232 v -0.2357 h -0.22325 v 0.2357 z m 0.49712,0.8392 c 0,-0.1571 0.0207,-0.463 0.36794,-0.463 0.32659,0 0.3638,0.3224 0.3638,0.525 0,0.3307 -0.22324,0.4175 -0.36793,0.4175 -0.24805,0 -0.36381,-0.2067 -0.36381,-0.4795 z m 0.94672,-0.616 h -0.21498 v 0.1778 h -0.004 c -0.0537,-0.07 -0.1571,-0.2109 -0.40101,-0.2109 -0.35554,0 -0.55811,0.2687 -0.55811,0.616 0,0.2977 0.13229,0.6945 0.59118,0.6945 0.17777,0 0.29766,-0.079 0.35553,-0.1695 v -0.01 h 0.004 v 0.054 c 0,0.1447 0.008,0.4341 -0.38034,0.4341 -0.0537,0 -0.26458,0 -0.30592,-0.1943 h -0.22325 c 0.0413,0.3266 0.3514,0.3679 0.51263,0.3679 0.62012,0 0.62426,-0.4464 0.62426,-0.6242 z m 1.39629,0.3969 c 0,-0.3514 -0.26045,-0.43 -0.47129,-0.43 -0.23151,0 -0.35553,0.1447 -0.40514,0.2109 h -0.004 v -0.1778 h -0.21498 v 1.2402 h 0.22738 v -0.6738 c 0,-0.339 0.22737,-0.4134 0.35553,-0.4134 0.21911,0 0.28526,0.1075 0.28526,0.3224 v 0.7648 h 0.22737 z m 0.524,-0.021 c 0.0165,-0.091 0.0496,-0.2356 0.30593,-0.2356 0.21497,0 0.31832,0.07 0.31832,0.1984 0,0.124 -0.0661,0.1447 -0.11989,0.1488 l -0.37207,0.041 c -0.3762,0.041 -0.40927,0.2852 -0.40927,0.3886 0,0.215 0.17776,0.3596 0.42168,0.3596 0.26458,0 0.39687,-0.1157 0.48782,-0.2025 0.004,0.095 0.0372,0.1901 0.23565,0.1901 0.0537,0 0.0868,-0.016 0.12402,-0.025 v -0.1529 c -0.0248,0 -0.0537,0.012 -0.0744,0.012 -0.0455,0 -0.0744,-0.025 -0.0744,-0.074 v -0.7152 c 0,-0.3142 -0.38861,-0.3432 -0.49609,-0.3432 -0.33073,0 -0.54571,0.1158 -0.55397,0.4093 z m 0.61598,0.4341 c 0,0.1654 -0.20257,0.2935 -0.41341,0.2935 -0.1695,0 -0.24391,-0.083 -0.24391,-0.215 0,-0.1571 0.17777,-0.1901 0.28525,-0.2025 0.28112,-0.033 0.339,-0.054 0.37207,-0.079 z m 0.82993,-1.2692 h -0.22324 v 1.6991 h 0.22324 z m 0,0"
       style="fill:#000000;fill-opacity:1;fill-rule:nonzero;stroke:none;stroke-width:0.338943"
       aria-label="audio signal" />
  </g>
</svg>
