<?xml version="1.0" encoding="utf-8" ?>
<svg baseProfile="full" height="160px" version="1.1" viewBox="0 0 520 160" width="520px" xmlns="http://www.w3.org/2000/svg" xmlns:ev="http://www.w3.org/2001/xml-events" xmlns:xlink="http://www.w3.org/1999/xlink"><defs><style type="text/css"><![CDATA[
    text { font-family: 'Inria Sans', 'DejaVu Sans', sans-serif; }
]]></style><marker id="arrow" markerHeight="6" markerWidth="8" orient="auto" refX="6" refY="3"><path d="M0,0 L6,3 L0,6 Z" fill="black" /></marker></defs><rect fill="#f0f4ff" height="36" rx="3" stroke="black" stroke-width="1.5" width="50" x="160" y="62" /><text fill="#333" font-size="13" text-anchor="middle" x="185" y="85">r₃</text><rect fill="#f0f4ff" height="36" rx="3" stroke="black" stroke-width="1.5" width="50" x="240" y="62" /><text fill="#333" font-size="13" text-anchor="middle" x="265" y="85">r₂</text><rect fill="#f0f4ff" height="36" rx="3" stroke="black" stroke-width="1.5" width="50" x="320" y="62" /><text fill="#333" font-size="13" text-anchor="middle" x="345" y="85">r₁</text><rect fill="#f0f4ff" height="36" rx="3" stroke="black" stroke-width="1.5" width="50" x="400" y="62" /><text fill="#333" font-size="13" text-anchor="middle" x="425" y="85">r₀</text><text fill="#555" font-size="11" x="10" y="68">dados</text><line marker-end="url(#arrow)" stroke="black" stroke-width="1.2" x1="40" x2="146" y1="80" y2="80" /><line marker-end="url(#arrow)" stroke="black" stroke-width="1.2" x1="450" x2="490" y1="80" y2="80" /><circle cx="90" cy="80" fill="white" r="10" stroke="black" stroke-width="1.5" /><line stroke="black" stroke-width="1.5" x1="84" x2="96" y1="80" y2="80" /><line stroke="black" stroke-width="1.5" x1="90" x2="90" y1="74" y2="86" /><line marker-end="url(#arrow)" stroke="black" stroke-width="1.2" x1="40" x2="78" y1="80" y2="80" /><line stroke="black" stroke-width="1.2" x1="470" x2="470" y1="80" y2="123" /><line stroke="black" stroke-width="1.2" x1="470" x2="90" y1="123" y2="123" /><line marker-end="url(#arrow)" stroke="black" stroke-width="1.2" x1="90" x2="90" y1="123" y2="92" /><line marker-end="url(#arrow)" stroke="black" stroke-width="1.2" x1="102" x2="160" y1="80" y2="80" /><line marker-end="url(#arrow)" stroke="black" stroke-width="1.2" x1="210" x2="240" y1="80" y2="80" /><circle cx="305" cy="80" fill="white" r="10" stroke="black" stroke-width="1.5" /><line stroke="black" stroke-width="1.5" x1="299" x2="311" y1="80" y2="80" /><line stroke="black" stroke-width="1.5" x1="305" x2="305" y1="74" y2="86" /><line marker-end="url(#arrow)" stroke="black" stroke-width="1.2" x1="290" x2="293" y1="80" y2="80" /><line marker-end="url(#arrow)" stroke="black" stroke-width="1.2" x1="317" x2="320" y1="80" y2="80" /><line marker-end="url(#arrow)" stroke="black" stroke-width="1.2" x1="305" x2="305" y1="123" y2="92" /><circle cx="305" cy="123" fill="black" r="3" /><line marker-end="url(#arrow)" stroke="black" stroke-width="1.2" x1="370" x2="400" y1="80" y2="80" /><text fill="#333" font-size="14" font-weight="bold" text-anchor="middle" x="260" y="22">G(x) = x⁴ + x + 1</text><text fill="#555" font-size="11" x="480" y="68">saída</text><text fill="#888" font-size="10" x="475" y="119">feedback</text></svg>