<?xml version="1.0" encoding="utf-8" ?>
<svg baseProfile="full" height="160px" version="1.1" viewBox="0 0 650 160" width="650px" xmlns="http://www.w3.org/2000/svg" xmlns:ev="http://www.w3.org/2001/xml-events" xmlns:xlink="http://www.w3.org/1999/xlink"><defs><style type="text/css"><![CDATA[
    text { font-family: 'Inria Sans', 'DejaVu Sans', sans-serif; }
]]></style><marker id="arrow" markerHeight="6" markerWidth="8" orient="auto" refX="6" refY="3"><path d="M0,0 L6,3 L0,6 Z" fill="black" /></marker></defs><rect fill="#f0f4ff" height="36" rx="3" stroke="black" stroke-width="1.5" width="50" x="110" y="62" /><text fill="#333" font-size="13" text-anchor="middle" x="135" y="85">r₃</text><rect fill="#f0f4ff" height="36" rx="3" stroke="black" stroke-width="1.5" width="50" x="230" y="62" /><text fill="#333" font-size="13" text-anchor="middle" x="255" y="85">r₂</text><rect fill="#f0f4ff" height="36" rx="3" stroke="black" stroke-width="1.5" width="50" x="350" y="62" /><text fill="#333" font-size="13" text-anchor="middle" x="375" y="85">r₁</text><rect fill="#f0f4ff" height="36" rx="3" stroke="black" stroke-width="1.5" width="50" x="470" y="62" /><text fill="#333" font-size="13" text-anchor="middle" x="495" y="85">r₀</text><text fill="#555" font-size="11" text-anchor="middle" x="585" y="68">dados</text><text fill="#555" font-size="11" text-anchor="middle" x="80" y="68">saída</text><line stroke="black" stroke-width="1.2" x1="110" x2="78" y1="80" y2="80" /><polygon fill="black" points="70,80 78,76 78,84" /><circle cx="555" cy="80" fill="white" r="10" stroke="black" stroke-width="1.5" /><line stroke="black" stroke-width="1.5" x1="549" x2="561" y1="80" y2="80" /><line stroke="black" stroke-width="1.5" x1="555" x2="555" y1="74" y2="86" /><line stroke="black" stroke-width="1.2" x1="580" x2="575" y1="80" y2="80" /><polygon fill="black" points="567,80 575,76 575,84" /><line stroke="black" stroke-width="1.2" x1="92" x2="92" y1="80" y2="123" /><line stroke="black" stroke-width="1.2" x1="92" x2="555" y1="123" y2="123" /><line marker-end="url(#arrow)" stroke="black" stroke-width="1.2" x1="555" x2="555" y1="123" y2="92" /><line stroke="black" stroke-width="1.2" x1="543" x2="528" y1="80" y2="80" /><polygon fill="black" points="520,80 528,76 528,84" /><circle cx="435" cy="80" fill="white" r="10" stroke="black" stroke-width="1.5" /><line stroke="black" stroke-width="1.5" x1="429" x2="441" y1="80" y2="80" /><line stroke="black" stroke-width="1.5" x1="435" x2="435" y1="74" y2="86" /><line stroke="black" stroke-width="1.2" x1="470" x2="455" y1="80" y2="80" /><polygon fill="black" points="447,80 455,76 455,84" /><line stroke="black" stroke-width="1.2" x1="423" x2="408" y1="80" y2="80" /><polygon fill="black" points="400,80 408,76 408,84" /><line marker-end="url(#arrow)" stroke="black" stroke-width="1.2" x1="435" x2="435" y1="123" y2="92" /><circle cx="435" cy="123" fill="black" r="3" /><line stroke="black" stroke-width="1.2" x1="350" x2="288" y1="80" y2="80" /><polygon fill="black" points="280,80 288,76 288,84" /><line stroke="black" stroke-width="1.2" x1="230" x2="168" y1="80" y2="80" /><polygon fill="black" points="160,80 168,76 168,84" /><text fill="#333" font-size="14" font-weight="bold" text-anchor="middle" x="325" y="22">G(x) = x⁴ + x + 1</text><text fill="#888" font-size="10" x="100" y="119">feedback</text></svg>