<?xml version="1.0" encoding="UTF-8" standalone="no"?>
<svg
   width="760"
   height="340"
   viewBox="0 0 760 340"
   version="1.1"
   id="svg23"
   sodipodi:docname="rx_frontend_waveforms.svg"
   inkscape:version="1.4.3 (0d15f75042, 2025-12-25)"
   xmlns:inkscape="http://www.inkscape.org/namespaces/inkscape"
   xmlns:sodipodi="http://sodipodi.sourceforge.net/DTD/sodipodi-0.dtd"
   xmlns="http://www.w3.org/2000/svg"
   xmlns:svg="http://www.w3.org/2000/svg">
  <defs
     id="defs23" />
  <sodipodi:namedview
     id="namedview23"
     pagecolor="#ffffff"
     bordercolor="#999999"
     borderopacity="1"
     inkscape:showpageshadow="0"
     inkscape:pageopacity="0"
     inkscape:pagecheckerboard="0"
     inkscape:deskcolor="#d1d1d1"
     inkscape:zoom="1.2818655"
     inkscape:cx="340.1293"
     inkscape:cy="241.83505"
     inkscape:window-width="1920"
     inkscape:window-height="1035"
     inkscape:window-x="0"
     inkscape:window-y="0"
     inkscape:window-maximized="0"
     inkscape:current-layer="svg23" />
  <rect
     width="760"
     height="340"
     fill="#ffffff"
     id="rect1" />
  <style
     id="style1">
    .axis { stroke: #777; stroke-width: 1.4; }
    .guide { stroke: #d7dbe3; stroke-width: 1; stroke-dasharray: 5 5; }
    .label { font: 18px 'DejaVu Sans', sans-serif; fill: #222; }
    .small { font: 15px 'DejaVu Sans', sans-serif; fill: #444; }
    .mono { font: 16px 'DejaVu Sans Mono', monospace; fill: #222; }
    .diff { stroke: #0b6e4f; stroke-width: 4; fill: none; stroke-linejoin: round; stroke-linecap: round; }
    .pos { stroke: #2b5fad; stroke-width: 4; fill: none; stroke-linejoin: round; stroke-linecap: round; }
    .neg { stroke: #b23a48; stroke-width: 4; fill: none; stroke-linejoin: round; stroke-linecap: round; }
    .tick { stroke: #999; stroke-width: 1; }
  </style>
  <text
     x="28"
     y="30"
     class="label"
     id="text1">Entrada diferencial e saídas do front-end RX</text>
  <line
     x1="180"
     y1="80"
     x2="720"
     y2="80"
     class="axis"
     id="line1" />
  <line
     x1="180"
     y1="192"
     x2="720"
     y2="192"
     class="axis"
     id="line2" />
  <line
     x1="180"
     y1="282"
     x2="720"
     y2="282"
     class="axis"
     id="line3" />
  <line
     x1="240"
     y1="52"
     x2="240"
     y2="288"
     class="guide"
     id="line4" />
  <line
     x1="360"
     y1="52"
     x2="360"
     y2="288"
     class="guide"
     id="line5" />
  <line
     x1="480"
     y1="52"
     x2="480"
     y2="288"
     class="guide"
     id="line6" />
  <line
     x1="600"
     y1="52"
     x2="600"
     y2="288"
     class="guide"
     id="line7" />
  <text
     x="24"
     y="86"
     class="mono"
     id="text7"
     style="font-style:normal;font-variant:normal;font-weight:normal;font-stretch:normal;font-size:16px;line-height:normal;font-family:'DejaVu Sans Mono', monospace">RXP_TR - RXN_TR</text>
  <text
     x="94"
     y="60"
     class="small"
     id="text8">+V<tspan
   dy="4"
   font-size="11"
   id="tspan7">diff</tspan></text>
  <text
     x="94"
     y="112"
     class="small"
     id="text10">-V<tspan
   dy="4"
   font-size="11"
   id="tspan9">diff</tspan></text>
  <text
     x="82"
     y="176"
     class="mono"
     id="text11">RXP_N</text>
  <text
     x="82"
     y="266"
     class="mono"
     id="text12">RXN_N</text>
  <text
     x="109"
     y="150"
     class="small"
     id="text13">1</text>
  <text
     x="109"
     y="196"
     class="small"
     id="text14">0</text>
  <text
     x="109"
     y="240"
     class="small"
     id="text15">1</text>
  <text
     x="109"
     y="286"
     class="small"
     id="text16">0</text>
  <path
     class="diff"
     d="M 180 80     L 220 80     L 220 44     L 280 44     L 280 80     L 340 80     L 340 116     L 400 116     L 400 80     L 460 80     L 460 44     L 520 44     L 520 80     L 720 80"
     id="path16" />
  <path
     class="pos"
     d="M 180 144     L 220 144     L 220 192     L 280 192     L 280 144     L 460 144     L 460 192     L 520 192     L 520 144     L 720 144"
     id="path17" />
  <path
     class="neg"
     d="M 180 234     L 340 234     L 340 282     L 400 282     L 400 234     L 720 234"
     id="path18" />
  <text
     x="236"
     y="315"
     class="small"
     id="text18">pulso positivo</text>
  <text
     x="354"
     y="315"
     class="small"
     id="text19">pulso negativo</text>
  <text
     x="477"
     y="315"
     class="small"
     id="text20">pulso positivo</text>
  <line
     x1="674.04205"
     y1="304"
     x2="715"
     y2="304"
     class="axis"
     id="line20" />
  <polygon
     points="715,304 704,299 704,309"
     fill="#777"
     id="polygon20" />
  <text
     x="622"
     y="309"
     class="small"
     id="text21">tempo</text>
  <text
     x="544"
     y="138"
     class="small"
     id="text22"
     style="font-style:normal;font-variant:normal;font-weight:normal;font-stretch:normal;font-size:15px;line-height:normal;font-family:'DejaVu Sans', sans-serif">comparador do ramo +</text>
  <text
     x="546"
     y="226"
     class="small"
     id="text23"
     style="font-style:normal;font-variant:normal;font-weight:normal;font-stretch:normal;font-size:15px;line-height:normal;font-family:'DejaVu Sans', sans-serif">comparador do ramo -</text>
</svg>
